<?xml version="1.0" standalone="no"?>
<!DOCTYPE svg PUBLIC "-//W3C//DTD SVG 20010904//EN"
 "http://www.w3.org/TR/2001/REC-SVG-20010904/DTD/svg10.dtd">
<svg version="1.0" xmlns="http://www.w3.org/2000/svg"
 width="1280.000000pt" height="720.000000pt" viewBox="0 0 1280.000000 720.000000"
 preserveAspectRatio="xMidYMid meet">
<metadata>
Created by potrace 1.16, written by Peter Selinger 2001-2019
</metadata>
<g transform="translate(0.000000,720.000000) scale(0.100000,-0.100000)"
fill="#000000" stroke="none">
<path d="M0 3600 l0 -3600 138 0 c132 0 137 1 148 23 6 12 40 80 77 152 104
205 134 297 222 685 21 93 38 125 85 170 l37 35 -8 75 c-15 146 -16 144 47
192 l57 43 -6 201 c-3 117 -1 220 4 245 12 55 75 161 127 214 46 49 86 62 221
75 98 9 229 45 278 76 12 8 27 14 34 14 6 0 46 16 88 36 67 32 186 79 261 104
96 32 233 96 253 118 18 20 36 73 72 207 14 55 28 101 29 103 2 1 6 -6 9 -18
3 -12 1 -18 -5 -14 -7 5 -9 -2 -6 -19 3 -15 1 -24 -3 -21 -5 3 -9 -1 -9 -9 0
-8 -15 -64 -34 -125 -18 -61 -30 -116 -26 -122 6 -10 32 62 80 225 5 17 32
129 60 249 43 184 50 225 41 250 l-10 31 2 -37 c2 -20 -1 -34 -5 -32 -4 3 -8
-10 -8 -28 0 -18 -5 -40 -10 -48 -8 -11 -9 -9 -5 10 10 49 64 447 75 555 16
152 20 176 29 171 19 -12 34 389 28 737 l-6 353 -36 120 c-78 254 -222 843
-250 1019 -24 144 -24 451 -2 575 32 177 105 402 159 490 15 25 34 62 43 83
l15 37 -1145 0 -1145 0 0 -3600z"/>
<path d="M2295 7183 c-7 -20 -6 -23 5 -23 5 0 14 8 19 18 7 14 6 19 -4 19 -8
0 -17 -7 -20 -14z"/>
<path d="M2332 7175 c-7 -15 -20 -25 -32 -25 -13 0 -25 -12 -35 -36 -8 -19
-23 -48 -35 -63 -41 -59 -116 -293 -147 -462 -22 -123 -22 -430 2 -574 28
-178 174 -771 250 -1020 l37 -120 2 -420 c2 -677 -12 -931 -69 -1238 -30 -161
-114 -520 -150 -637 -84 -271 -191 -543 -205 -519 -6 8 -9 8 -14 -2 -3 -8 -3
-3 0 11 3 14 15 45 26 70 12 25 43 101 69 170 27 69 49 116 49 106 0 -11 3
-17 6 -13 3 3 3 14 0 24 -6 17 -12 16 -86 -19 -44 -21 -141 -61 -215 -88 -74
-27 -147 -56 -163 -64 -42 -22 -242 -102 -313 -126 -33 -11 -108 -25 -166 -31
-121 -11 -161 -25 -204 -71 -50 -53 -118 -165 -128 -209 -5 -23 -7 -134 -4
-248 l6 -206 -58 -44 -57 -43 7 -92 c3 -50 9 -99 11 -108 3 -11 -9 -32 -34
-56 -57 -56 -69 -84 -108 -255 -60 -268 -132 -482 -204 -612 -61 -111 -80
-146 -80 -150 0 -3 243 -5 540 -5 l539 0 6 38 c19 115 93 478 141 681 30 129
54 239 54 243 0 4 7 8 15 8 20 0 19 -6 -10 -135 -52 -228 -165 -793 -165 -826
0 -5 321 -9 820 -9 451 0 820 2 820 4 0 3 -27 59 -60 125 -33 66 -60 124 -60
129 0 5 -11 36 -25 70 -14 34 -37 108 -51 165 -24 94 -26 114 -21 257 3 106
11 183 25 245 31 132 75 258 92 262 10 3 11 2 4 -4 -14 -10 -67 -172 -90 -273
-10 -44 -18 -138 -21 -230 -5 -144 -3 -163 21 -259 14 -56 44 -146 66 -200 51
-121 138 -300 139 -283 1 7 -10 34 -23 60 -28 57 -69 188 -91 297 -9 43 -20
84 -25 90 -4 5 -16 39 -26 75 -25 89 -25 384 -1 517 18 95 47 196 54 189 3 -2
-2 -24 -11 -49 -64 -188 -71 -617 -11 -712 7 -11 20 -58 29 -105 22 -109 58
-228 93 -307 l28 -62 1633 -1 1632 0 0 33 c-2 186 -22 571 -34 642 -50 295
-173 596 -320 780 -31 39 -56 76 -56 83 0 28 29 8 77 -50 95 -118 149 -217
216 -393 111 -292 147 -510 147 -882 l0 -213 841 0 841 0 -5 43 c-2 23 -14 89
-26 147 -38 185 -41 225 -24 283 33 112 -2 174 -189 338 -70 61 -133 121 -141
133 -14 21 -29 78 -32 127 -2 15 -12 55 -23 90 -40 127 -55 190 -46 198 5 5
37 3 72 -5 35 -7 125 -20 200 -29 75 -9 160 -20 187 -26 126 -23 344 -72 383
-85 49 -16 141 -18 226 -4 63 10 116 30 116 43 0 5 -60 5 -134 2 -120 -7 -140
-5 -197 13 -93 31 -276 60 -419 66 -170 8 -427 45 -455 66 -5 4 -31 10 -56 13
-57 8 -241 68 -329 109 -152 69 -201 99 -344 205 -82 61 -186 133 -230 159
-45 27 -110 70 -146 96 -43 31 -73 46 -85 43 -11 -3 -30 0 -43 7 -12 7 -55 30
-95 51 -41 21 -96 58 -123 83 -27 25 -82 66 -121 91 -40 25 -70 49 -67 54 3 5
7 9 10 9 3 0 2 -5 -2 -12 -5 -8 -2 -9 10 -5 10 4 15 3 11 -3 -3 -6 -2 -10 4
-10 44 0 -25 51 -229 172 -156 92 -664 358 -684 358 -3 0 -65 26 -138 59 -73
32 -182 78 -243 102 -67 26 -123 56 -147 77 -20 18 -41 31 -46 28 -5 -3 -27 8
-48 24 -42 32 -84 39 -84 15 0 -21 -6 -19 -77 17 -40 20 -64 39 -67 54 -6 22
-21 31 -266 156 -91 46 -120 68 -220 164 -104 101 -206 180 -253 197 -9 4 -21
16 -25 28 -5 12 -26 33 -48 48 -23 15 -66 65 -104 121 -61 90 -149 182 -231
242 -63 47 -84 120 -56 200 l13 37 -72 74 c-92 96 -187 230 -234 332 -58 125
-115 271 -145 375 -15 52 -40 118 -55 145 -57 106 -167 412 -201 561 -20 85
-23 125 -22 284 1 238 12 310 73 460 66 162 67 163 95 156 19 -5 30 4 66 50
64 83 122 97 182 44 19 -16 38 -30 42 -30 4 0 29 18 55 40 47 39 70 49 70 31
0 -24 111 -200 160 -255 31 -33 71 -80 89 -104 18 -23 38 -39 43 -36 7 4 8 2
4 -5 -13 -20 295 -358 321 -353 8 2 47 -26 86 -61 131 -117 340 -249 492 -312
91 -37 358 -120 439 -136 57 -10 66 -20 66 -68 l0 -34 -81 6 c-90 6 -99 -1
-17 -13 45 -6 48 -8 16 -9 -48 -1 -202 50 -302 101 -104 53 -360 214 -488 308
-122 89 -364 330 -511 509 -56 68 -128 153 -160 189 -52 58 -98 128 -154 233
l-19 36 -48 -38 c-27 -22 -55 -39 -63 -39 -9 0 -31 14 -50 30 -56 50 -97 38
-163 -44 -36 -45 -49 -56 -66 -51 -25 6 -34 -4 -58 -65 -21 -51 -26 -63 -60
-142 -29 -69 -43 -158 -51 -338 -7 -152 3 -261 39 -402 29 -115 113 -343 170
-463 24 -49 56 -133 71 -185 56 -192 154 -407 243 -531 72 -101 188 -229 208
-229 8 0 29 -7 45 -16 17 -8 88 -31 157 -49 198 -54 202 -55 202 -69 0 -12
109 -51 296 -105 85 -25 101 -26 147 -6 41 17 59 19 37 5 -13 -9 -13 -10 0
-10 8 0 22 5 30 10 13 9 13 10 0 10 -8 0 26 22 75 49 134 72 146 80 252 172
163 140 243 220 293 296 70 103 77 119 100 234 32 154 25 244 -37 429 l-48
145 -87 0 c-71 0 -91 4 -105 18 -17 17 -16 17 19 2 21 -8 67 -15 104 -15 55 0
65 3 60 15 -3 8 -1 15 4 15 5 0 16 -26 25 -57 9 -32 33 -107 53 -168 47 -146
52 -233 22 -386 -25 -126 -30 -139 -100 -242 -51 -77 -142 -169 -255 -259 -38
-30 -79 -65 -90 -78 -11 -12 -46 -39 -78 -60 -32 -21 -52 -40 -45 -43 14 -4
47 19 136 98 31 28 89 77 129 108 78 64 195 183 244 249 40 56 73 121 100 198
18 52 20 69 11 99 -6 20 -9 68 -5 111 5 65 2 87 -21 155 -47 138 -96 342 -102
429 -10 126 8 208 59 263 33 36 46 43 70 41 33 -3 40 -13 55 -79 6 -26 34 -95
62 -154 28 -59 77 -169 110 -245 60 -138 105 -224 155 -290 14 -19 32 -56 39
-81 13 -41 12 -56 -3 -125 -10 -44 -26 -104 -36 -134 -37 -118 -38 -122 -24
-131 11 -7 10 -9 -5 -9 -15 0 -17 5 -12 28 4 15 11 45 15 67 4 22 13 50 19 61
6 12 20 61 31 108 23 105 18 128 -43 218 -23 35 -52 81 -64 103 -43 80 -215
472 -240 545 -14 41 -28 82 -32 90 -14 29 -42 22 -85 -20 -37 -36 -45 -52 -55
-107 -8 -41 -10 -97 -6 -149 6 -87 55 -291 102 -429 23 -69 26 -90 21 -156 -4
-49 -2 -88 6 -108 10 -27 8 -43 -17 -117 -16 -47 -45 -112 -65 -145 -43 -72
-187 -228 -267 -289 -67 -51 -259 -217 -288 -249 -20 -22 -46 -28 -46 -10 0 5
5 7 10 4 10 -6 53 36 45 43 -2 2 -20 -7 -42 -20 -65 -41 -145 -70 -205 -74
-45 -4 -83 3 -175 30 -227 68 -263 80 -263 92 0 15 -28 25 -175 64 -66 17
-135 38 -154 46 -18 8 -36 12 -39 10 -6 -7 203 -106 222 -106 8 0 40 -12 72
-26 33 -14 140 -53 238 -85 167 -56 184 -60 250 -55 l71 5 -70 -11 -70 -10
-197 65 c-108 36 -215 75 -237 86 -51 27 -87 29 -51 4 33 -23 53 -43 43 -43
-4 0 -33 20 -63 45 -30 25 -59 45 -64 45 -5 0 -45 18 -88 41 -44 22 -81 39
-82 37 -36 -57 -34 -124 4 -176 17 -23 34 -42 39 -42 25 0 172 -152 231 -239
39 -57 81 -106 104 -122 22 -15 43 -35 47 -46 4 -10 38 -37 75 -59 43 -24 115
-83 189 -155 79 -76 143 -128 188 -153 132 -73 466 -236 483 -236 9 0 33 -12
53 -27 19 -15 43 -28 52 -28 9 -1 36 -18 59 -37 23 -20 69 -46 103 -59 34 -12
86 -33 115 -46 29 -12 55 -23 58 -23 3 0 26 -9 52 -21 58 -26 86 -38 187 -82
69 -30 281 -133 325 -157 121 -68 188 -104 241 -131 102 -52 429 -255 459
-285 13 -14 13 -15 0 -12 -8 2 -20 10 -27 18 -10 13 -14 13 -25 1 -11 -12 -10
-13 5 -8 10 4 16 3 13 -2 -6 -10 63 -61 82 -61 7 0 36 -12 64 -26 41 -21 53
-23 60 -12 8 10 9 9 5 -4 -4 -12 6 -23 36 -38 23 -12 87 -55 143 -94 55 -40
136 -94 180 -120 44 -26 148 -98 230 -159 105 -79 186 -130 274 -174 138 -68
317 -131 395 -140 27 -3 55 -9 60 -14 29 -22 269 -57 445 -65 143 -6 326 -35
419 -66 57 -18 77 -20 201 -13 120 6 138 5 143 -9 18 -47 -251 -86 -355 -52
-39 13 -257 62 -383 85 -27 6 -112 17 -187 26 -75 9 -165 22 -200 29 -35 7
-65 12 -67 10 -4 -3 24 -114 36 -144 14 -35 41 -145 37 -151 -4 -7 11 -61 29
-96 5 -13 62 -69 126 -124 138 -121 174 -160 201 -216 24 -50 25 -91 6 -155
-16 -52 -12 -96 25 -278 12 -58 24 -124 26 -147 l5 -43 2364 0 2364 0 0 386 0
386 -22 -6 c-13 -4 -77 -13 -143 -22 -66 -8 -131 -19 -145 -24 -56 -22 -341
-39 -496 -29 -455 27 -1034 100 -1399 175 -307 63 -662 171 -773 234 -26 15
-191 90 -247 112 -27 11 -54 23 -60 28 -21 17 -204 71 -290 86 -98 17 -196 14
-319 -11 -82 -17 -119 -6 -60 17 22 9 59 19 84 22 25 4 74 14 110 23 94 22
192 12 375 -39 39 -10 79 -23 90 -28 137 -60 206 -90 209 -90 3 0 33 -13 68
-29 326 -149 448 -184 878 -256 85 -14 180 -30 210 -35 224 -39 913 -111 1264
-132 183 -11 228 -10 375 5 91 9 194 22 229 29 l62 12 0 1693 c0 931 -4 1693
-8 1693 -10 0 -208 -75 -327 -124 -49 -21 -139 -63 -200 -94 -364 -186 -371
-188 -575 -196 -80 -3 -163 -8 -185 -11 l-40 -5 35 10 c19 5 105 12 190 16
186 8 220 17 409 116 167 88 206 107 301 147 41 18 95 41 120 51 25 11 98 39
163 62 l117 43 0 42 c0 24 -2 43 -4 43 -7 0 -309 -116 -348 -133 -148 -67
-216 -101 -298 -149 -137 -80 -261 -144 -293 -152 -16 -4 -39 -17 -52 -30 -21
-21 -35 -23 -161 -29 -77 -4 -173 -11 -214 -16 -41 -6 -163 -15 -270 -21 -185
-11 -721 -72 -901 -104 -181 -32 -324 -78 -544 -176 -22 -10 -74 -30 -115 -45
-41 -14 -119 -47 -172 -72 -81 -38 -95 -48 -82 -57 13 -10 0 -25 -85 -99 -55
-48 -109 -87 -120 -87 -10 0 -41 16 -66 36 -63 47 -70 36 -8 -13 26 -21 48
-42 48 -48 0 -5 -32 -42 -72 -81 -60 -59 -86 -76 -160 -107 -114 -48 -292
-136 -275 -136 7 -1 38 12 70 28 31 16 112 52 178 80 107 46 131 61 195 122
40 38 81 69 90 69 10 0 24 10 30 23 7 12 19 27 28 33 9 7 49 39 88 72 138 116
314 207 543 280 260 84 377 113 679 167 258 45 548 72 996 92 146 7 167 9 110
14 l-70 5 90 1 c50 0 82 -1 72 -4 -9 -2 -15 -8 -12 -12 2 -4 -80 -11 -183 -15
-418 -15 -739 -44 -1003 -91 -620 -111 -984 -249 -1239 -469 -36 -31 -68 -56
-73 -56 -4 0 -12 -11 -17 -25 -5 -14 -17 -25 -28 -25 -10 0 -42 -23 -72 -51
-84 -78 -109 -94 -191 -127 -41 -16 -118 -51 -170 -76 -110 -54 -159 -67 -159
-42 0 9 6 16 14 16 7 0 78 31 157 69 79 37 155 72 169 76 40 12 101 58 153
115 l48 52 -28 30 c-62 66 -133 108 -294 171 -90 36 -193 74 -229 85 -69 21
-383 90 -530 116 -188 34 -566 56 -635 38 -57 -15 -432 -68 -613 -87 -140 -14
-160 -14 -240 1 -137 26 -183 39 -180 49 4 12 18 11 123 -5 67 -10 104 -10
230 4 83 9 206 28 275 41 264 53 594 76 816 55 247 -22 549 -83 696 -141 43
-16 115 -43 160 -58 142 -48 308 -131 385 -192 40 -32 82 -60 93 -64 16 -5 38
9 98 62 43 37 89 76 102 86 16 12 19 16 7 13 -12 -4 -16 -2 -11 5 12 19 -38
-1 -95 -40 -30 -20 -57 -43 -59 -51 -3 -10 3 -8 19 6 33 30 110 76 116 71 2
-3 -15 -17 -40 -31 -24 -14 -52 -35 -62 -46 -21 -23 -45 -26 -45 -6 0 40 201
155 390 223 52 19 124 47 160 63 222 97 367 144 549 176 180 32 716 93 901
104 107 6 229 15 270 21 41 5 136 12 210 16 99 5 138 10 145 20 6 8 40 27 75
42 36 15 124 61 195 101 72 41 158 89 191 107 59 32 284 125 467 193 l87 33 0
1443 0 1444 -3530 0 c-1941 0 -3530 -2 -3530 -4 0 -2 14 -46 30 -97 64 -194
103 -454 120 -789 5 -113 15 -234 20 -270 17 -109 25 -406 12 -414 -15 -9 -16
-147 -3 -194 5 -17 25 -51 44 -74 56 -69 91 -146 152 -329 50 -149 56 -174 45
-194 -7 -13 -10 -36 -7 -50 6 -32 -12 -105 -38 -155 -10 -19 -42 -129 -70
-243 l-53 -209 24 -81 c13 -45 42 -159 63 -254 22 -95 46 -187 54 -205 23 -50
39 -104 28 -93 -19 20 -61 160 -101 333 -22 98 -48 205 -59 239 l-19 61 54
214 c29 117 62 231 73 253 28 58 38 105 33 149 -3 25 0 41 9 46 10 7 4 35 -26
130 -22 67 -41 117 -43 111 -2 -6 4 -33 13 -60 28 -86 29 -161 2 -249 -13 -42
-32 -108 -42 -147 -10 -38 -41 -117 -68 -175 -28 -58 -53 -109 -55 -114 -3 -5
0 -6 5 -3 6 4 9 -5 6 -21 l-3 -27 11 25 c29 66 39 92 39 105 0 8 5 15 10 15 6
0 3 -16 -6 -37 -9 -21 -26 -68 -37 -105 -14 -46 -26 -68 -37 -68 -11 0 -19
-22 -31 -88 -18 -95 -127 -492 -139 -505 -4 -4 -72 1 -151 12 -79 11 -189 25
-244 32 -55 6 -133 20 -174 30 -41 11 -76 17 -78 16 -6 -7 132 -65 182 -77 37
-9 57 -9 75 -1 23 10 22 11 -12 8 -24 -2 -34 1 -29 6 9 9 170 -12 411 -53 30
-5 128 -17 218 -27 89 -9 162 -20 162 -23 0 -3 -48 0 -107 7 -60 8 -124 12
-143 9 -26 -4 -31 -3 -20 5 11 8 -3 9 -50 6 -42 -3 -58 -2 -45 4 13 6 0 7 -40
4 -46 -3 -52 -2 -25 4 l35 8 -35 1 c-19 1 -53 -2 -75 -6 -33 -6 -15 -11 110
-26 83 -10 183 -22 223 -27 40 -5 110 -10 155 -11 69 -1 73 -2 27 -6 -138 -10
-686 65 -875 120 -62 18 -195 82 -195 94 0 3 9 0 19 -6 29 -15 39 -12 17 5
-11 8 -15 15 -10 15 6 0 14 -4 20 -10 16 -16 151 -47 264 -60 58 -7 166 -21
240 -31 74 -10 138 -15 142 -11 15 15 119 402 147 547 25 132 35 162 80 251
33 64 64 146 85 225 19 68 40 137 46 153 26 70 -26 291 -100 422 -17 31 -29
58 -26 61 5 5 23 -31 95 -187 11 -24 11 -24 6 5 -8 42 -74 181 -95 200 -32 29
-30 0 5 -111 40 -127 39 -120 19 -128 -21 -8 -45 48 -84 198 -28 105 -41 141
-84 226 -46 92 -160 307 -167 314 -5 6 -9 21 -8 35 1 23 2 23 8 6 6 -19 52
-110 89 -177 92 -165 136 -269 171 -401 36 -136 55 -187 72 -187 6 0 8 7 5 15
-3 9 -20 61 -37 117 -25 80 -29 102 -18 109 11 6 10 12 -5 28 -10 11 -24 37
-32 58 -17 47 -19 209 -2 219 13 8 5 294 -12 404 -5 36 -15 157 -20 270 -17
337 -56 593 -121 793 l-31 97 -1693 0 -1692 0 -11 -25z m-178 -426 c-9 -35
-18 -66 -21 -69 -7 -7 7 70 20 107 18 53 19 31 1 -38z m3384 -198 c100 -103
134 -240 130 -515 -2 -93 -6 -146 -11 -133 -5 12 -5 76 -1 142 13 233 -28 393
-126 494 -37 38 -44 41 -96 41 -68 0 -98 -14 -85 -38 13 -24 116 -336 132
-399 10 -44 17 -53 35 -53 13 0 39 -19 66 -48 48 -51 70 -113 66 -190 l-1 -37
-4 35 c-11 105 -23 136 -71 182 -26 26 -56 48 -66 50 -13 2 -23 18 -33 53 -29
102 -84 272 -112 347 -15 42 -26 80 -22 86 10 15 33 20 99 21 60 1 64 -1 100
-38z m-2598 -338 c11 -10 20 -24 20 -33 0 -8 52 -69 115 -135 82 -85 115 -126
116 -145 0 -14 3 -19 6 -11 4 10 7 10 13 1 4 -7 14 -10 21 -8 13 4 -199 242
-244 273 -17 12 -18 15 -5 15 17 0 258 -252 259 -272 0 -7 0 -42 -1 -78 -1
-59 -7 -74 -56 -162 -30 -54 -62 -98 -70 -98 -20 0 -18 15 11 65 28 47 55 158
56 235 2 55 -8 68 -154 224 l-64 68 -70 -47 c-54 -36 -84 -48 -130 -55 -37 -5
-77 -19 -104 -36 -24 -15 -73 -42 -109 -60 -69 -33 -106 -63 -135 -107 -15
-24 -45 -37 -45 -20 0 17 111 108 160 131 67 32 167 92 154 92 -23 0 -163 -66
-204 -96 -56 -41 -109 -93 -120 -119 l-9 -20 0 20 c-1 36 123 146 199 175 167
64 272 126 318 189 26 35 43 38 72 14z m1890 -173 c11 -7 12 -12 3 -21 -13
-13 -33 -4 -33 17 0 16 9 18 30 4z m759 -49 c11 -11 23 -41 26 -68 8 -58 75
-366 81 -372 2 -2 4 3 4 12 0 9 4 19 10 22 7 4 7 -3 0 -20 -15 -39 -12 -54 5
-25 17 30 20 21 4 -14 -9 -19 -7 -39 14 -103 36 -110 37 -129 16 -191 -18 -53
-138 -285 -168 -327 -4 -5 -18 -35 -30 -66 -12 -30 -31 -63 -41 -72 -27 -23
-25 -49 7 -78 23 -21 25 -22 18 -4 -18 47 -16 56 17 98 83 104 153 241 198
387 18 58 35 107 39 110 4 3 -2 52 -13 109 -17 92 -21 102 -33 86 -7 -11 -13
-14 -13 -8 0 7 5 15 10 18 6 3 10 16 10 28 -1 21 -1 21 -16 -3 -10 -17 -13
-18 -9 -5 4 11 9 27 12 35 2 8 -16 72 -40 142 -24 70 -41 125 -37 123 16 -10
100 -284 123 -400 19 -98 21 -124 11 -140 -7 -11 -24 -60 -39 -109 -44 -147
-113 -283 -193 -383 -28 -35 -32 -45 -23 -62 26 -49 4 -67 -36 -29 -29 27 -29
56 0 96 13 17 32 51 42 74 11 24 55 111 99 193 45 83 88 171 97 196 20 55 17
75 -34 239 -34 112 -88 347 -102 443 -8 62 -39 86 -82 63 -73 -39 -107 -92
-125 -195 l-12 -70 38 -73 c21 -40 44 -80 52 -88 20 -24 95 -248 101 -302 8
-78 -47 -211 -108 -262 -17 -14 -64 -42 -105 -61 -41 -20 -72 -40 -69 -45 4
-6 14 -6 28 1 22 11 22 11 2 -8 -11 -11 -54 -31 -95 -43 -97 -30 -101 -34 -94
-80 11 -70 -39 -114 -52 -45 -3 20 -4 39 0 42 3 4 6 -5 6 -18 0 -13 4 -30 9
-38 14 -22 32 21 29 71 l-3 43 62 20 c34 11 65 23 69 28 4 4 16 7 27 7 11 0
17 3 13 7 -13 13 -49 13 -64 1 -13 -11 -14 -10 -10 2 2 8 16 17 29 20 33 7
169 75 202 100 15 12 25 26 21 31 -3 5 0 8 7 7 19 -4 81 127 86 180 4 36 -5
75 -37 172 -23 69 -52 141 -64 160 -81 124 -93 165 -76 258 19 100 43 138 115
183 38 24 60 24 84 0z m-2899 -45 c0 -2 -7 -6 -15 -10 -8 -3 -15 -1 -15 4 0 6
7 10 15 10 8 0 15 -2 15 -4z m287 -11 c50 -15 73 -39 54 -58 -5 -5 -22 -4 -44
4 -27 9 -58 10 -141 1 -121 -12 -167 -32 -230 -102 -37 -41 -37 -42 -34 -118
l3 -77 33 -3 c21 -2 56 7 97 27 l65 30 -15 35 c-31 74 -8 131 71 176 84 47
166 39 192 -20 11 -25 11 -33 -4 -54 -9 -15 -19 -26 -23 -26 -4 0 -33 -23 -64
-51 -70 -62 -211 -136 -340 -178 -53 -17 -100 -31 -104 -31 -13 0 7 222 24
257 8 18 43 61 78 97 53 54 74 68 127 85 76 24 185 27 255 6z m1863 -12 c0
-14 -2 -15 -9 -4 -7 11 -9 11 -14 0 -4 -10 -6 -9 -6 4 -1 9 6 17 14 17 8 0 15
-8 15 -17z m-1569 -64 c-6 -16 -10 -18 -10 -7 -1 22 12 55 16 42 2 -6 -1 -22
-6 -35z m18 -13 c-6 -25 -15 -48 -19 -51 -4 -2 0 20 8 50 18 66 28 67 11 1z
m61 4 c0 -29 -4 -40 -15 -40 -11 0 -15 10 -14 38 l2 37 7 -35 7 -35 2 38 c1
50 11 48 11 -3z m-248 -309 c8 11 9 10 4 -3 -3 -12 0 -18 9 -18 8 0 15 -4 15
-10 0 -5 28 -40 63 -77 153 -166 196 -223 166 -223 -18 0 -162 70 -156 76 3 3
15 0 27 -6 12 -6 24 -9 27 -6 5 5 -81 46 -95 46 -4 0 2 -7 12 -15 31 -23 9
-18 -43 11 -67 36 -81 64 -71 139 5 33 12 74 17 90 7 28 8 29 11 6 3 -19 6
-21 14 -10z m-512 -116 c-11 -22 -20 -34 -20 -27 0 16 30 75 36 70 2 -3 -5
-22 -16 -43z m21 -8 c-25 -39 -27 -30 -4 18 10 20 19 32 21 26 2 -6 -6 -26
-17 -44z m85 21 c-3 -13 -6 -26 -6 -30 0 -15 -30 -8 -30 6 0 26 12 46 27 46
11 0 14 -6 9 -22z m2823 -97 c40 -111 17 -220 -61 -286 -40 -33 -198 -135
-210 -135 -22 0 -4 32 33 57 78 53 129 105 156 162 25 50 28 67 28 158 0 88 2
103 16 103 11 0 24 -20 38 -59z m422 -344 c-16 -34 -61 -112 -99 -172 -108
-173 -104 -162 -76 -220 29 -61 30 -75 3 -75 -14 0 -25 11 -35 36 -8 20 -13
38 -10 41 3 3 8 -6 11 -20 7 -27 31 -54 40 -45 3 3 -1 18 -10 34 -8 16 -15 34
-15 41 0 20 -22 27 -32 9 -13 -24 -28 -20 -28 8 0 33 39 105 153 280 53 82 97
154 97 159 0 6 3 8 6 5 7 -8 -30 -80 -79 -153 -80 -117 -167 -268 -167 -288 0
-34 259 401 261 438 1 18 2 18 6 2 3 -11 -9 -47 -26 -80z m-1776 -66 c37 -13
51 -23 53 -39 3 -19 -1 -22 -35 -22 -37 0 -99 -19 -173 -52 -123 -56 -201 -88
-240 -98 -25 -7 -113 -33 -197 -58 -129 -39 -156 -44 -178 -34 -34 16 -33 52
3 90 20 21 53 38 111 56 45 14 87 26 93 26 6 0 68 27 138 60 182 86 318 109
425 71z m975 -92 c0 -5 -4 -8 -9 -5 -5 4 -12 0 -14 -6 -3 -8 -6 -6 -6 5 -1 9
6 17 14 17 8 0 15 -5 15 -11z m-1753 -585 c-3 -3 -12 -4 -19 -1 -8 3 -5 6 6 6
11 1 17 -2 13 -5z m2544 -111 l-11 -28 5 33 c3 23 1 31 -7 26 -7 -5 -8 -3 -3
5 15 25 28 -5 16 -36z m-24 -15 c-3 -8 -6 -5 -6 6 -1 11 2 17 5 13 3 -3 4 -12
1 -19z m-2249 -25 c-10 -2 -28 -2 -40 0 -13 2 -5 4 17 4 22 1 32 -1 23 -4z
m2259 -30 c-3 -10 -5 -4 -5 12 0 17 2 24 5 18 2 -7 2 -21 0 -30z m-2927 -239
c-11 -161 -13 -1470 -2 -1459 4 4 8 345 8 758 1 480 6 772 12 807 11 55 11 55
4 -15 -3 -38 -7 -396 -7 -795 -1 -720 -5 -827 -36 -845 -5 -4 -5 5 1 20 6 15
10 36 9 48 -1 20 -2 20 -9 -3 -5 -15 -6 0 -3 40 2 36 6 389 8 785 3 649 8 825
21 812 3 -3 0 -71 -6 -153z m2110 -184 c0 -11 -7 -20 -15 -20 -8 0 -15 9 -15
20 0 11 7 20 15 20 8 0 15 -9 15 -20z m193 13 c-7 -2 -19 -2 -25 0 -7 3 -2 5
12 5 14 0 19 -2 13 -5z m-1783 -18 c0 -8 -7 -15 -15 -15 -8 0 -15 7 -15 15 0
8 7 15 15 15 8 0 15 -7 15 -15z m160 -131 c43 -44 163 -139 223 -177 15 -10
27 -22 27 -27 0 -16 -36 -11 -51 7 -13 15 -12 15 8 5 50 -27 33 -9 -32 34 -39
26 -94 67 -122 91 -29 25 -53 40 -53 35 0 -23 73 -101 128 -136 33 -21 58 -44
56 -50 -5 -11 -94 -46 -128 -49 -15 -2 -27 21 -66 123 -78 204 -76 233 10 144z
m2575 17 l-20 -8 20 -5 c11 -3 0 -6 -25 -5 -27 0 -35 2 -20 5 23 4 24 5 5 13
-15 6 -10 8 20 8 30 0 35 -2 20 -8z m-2500 -121 c10 -11 16 -20 13 -20 -3 0
-13 9 -23 20 -10 11 -16 20 -13 20 3 0 13 -9 23 -20z m105 -77 c0 -7 -61 31
-73 46 -7 8 7 2 31 -14 23 -15 42 -30 42 -32z m5575 7 c3 -6 -1 -13 -10 -16
-19 -8 -30 0 -20 15 8 14 22 14 30 1z m-5202 -211 c173 -87 293 -139 320 -139
6 0 -1 9 -18 20 -49 32 -22 23 72 -25 48 -24 165 -81 258 -125 301 -143 405
-195 397 -198 -4 -1 -142 62 -307 141 -392 187 -372 178 -408 182 -47 4 -169
55 -349 146 l-160 81 -81 -4 c-60 -3 -96 -10 -136 -28 l-54 -25 -1 -100 c-3
-146 -25 -196 -130 -294 -159 -149 -348 -345 -337 -349 7 -2 54 3 104 12 51 9
142 21 202 26 213 19 302 29 346 39 67 16 116 14 116 -4 0 -11 -11 -15 -41
-14 l-41 2 35 7 35 7 -35 1 c-19 0 -48 -4 -65 -8 l-30 -8 29 -1 c16 0 26 -4
22 -8 -3 -4 -59 -7 -124 -8 -144 -2 -332 -20 -476 -45 -128 -23 -116 -22 -116
-11 0 11 246 260 363 368 108 100 132 152 133 290 0 56 3 105 6 109 4 3 35 17
70 30 45 16 85 23 141 23 l77 1 183 -91z m173 -23 c10 -8 19 -20 19 -27 0 -7
6 -14 14 -17 9 -3 11 0 6 8 -6 9 -4 11 4 5 9 -5 9 -11 3 -17 -13 -13 -92 30
-92 49 0 17 21 17 46 -1z m89 -54 c-3 -3 -11 0 -18 7 -9 10 -8 11 6 5 10 -3
15 -9 12 -12z m3507 -319 c-61 -72 -87 -111 -97 -143 -4 -14 11 2 33 35 40 61
132 172 132 160 0 -4 -26 -39 -58 -78 -77 -95 -91 -120 -119 -197 -12 -36 -23
-58 -23 -49 0 9 7 36 15 59 20 57 18 64 -6 15 -10 -22 -19 -34 -19 -26 0 33
73 161 125 219 71 78 83 81 17 5z m438 -33 c-13 -9 -13 -10 0 -10 9 0 2 -9
-15 -21 -37 -25 -182 -99 -192 -99 -5 1 27 19 71 41 43 22 76 43 73 45 -3 3
-49 -18 -103 -46 -55 -28 -89 -49 -76 -46 12 2 20 0 16 -5 -3 -5 -10 -9 -15
-9 -6 0 -35 -16 -66 -36 -31 -20 -62 -33 -71 -29 -8 3 -23 -2 -34 -11 -10 -10
-20 -15 -23 -12 -9 9 94 72 235 144 160 82 155 80 146 65 -4 -6 -4 -11 1 -11
14 0 38 19 39 30 3 18 4 20 17 20 8 0 7 -4 -3 -10z m-3215 -65 c-27 -7 -65
-14 -83 -14 -71 -2 -460 -67 -516 -86 -43 -15 -60 -13 -29 3 21 11 208 48 308
61 161 21 252 34 290 41 64 13 85 9 30 -5z m230 -72 l104 -58 5 -50 c15 -152
27 -317 32 -445 3 -80 11 -154 17 -165 5 -11 33 -45 61 -76 53 -57 131 -167
124 -174 -2 -3 -85 -14 -183 -26 -99 -11 -215 -32 -260 -45 -44 -13 -128 -37
-187 -54 -60 -17 -149 -51 -200 -78 -131 -68 -372 -220 -421 -266 -60 -55 -78
-66 -108 -66 -26 0 -27 3 -38 79 -7 49 -10 159 -7 297 5 215 5 217 -9 124 -19
-138 -29 -356 -17 -423 7 -47 6 -60 -4 -64 -8 -3 -50 20 -94 51 -151 106 -266
161 -432 205 -202 55 -466 45 -706 -24 -29 -9 -57 -13 -61 -10 -5 2 4 45 20
94 96 299 127 553 87 716 -9 39 -19 102 -20 141 -3 61 -1 74 14 83 10 6 139
32 286 56 147 25 283 49 302 55 19 5 51 9 70 9 33 -2 33 -2 5 -6 -16 -2 -59
-10 -95 -18 -36 -8 -166 -31 -290 -51 -124 -20 -238 -43 -255 -50 l-30 -14 6
-87 c4 -49 14 -122 24 -163 32 -140 -3 -387 -94 -671 -16 -49 -28 -89 -26 -89
2 0 45 11 97 24 115 30 202 43 338 50 245 13 532 -74 753 -228 52 -36 97 -66
99 -66 3 0 1 21 -3 47 -13 77 -10 176 8 364 13 140 19 176 31 176 13 0 14 -31
8 -231 -5 -204 2 -347 19 -364 11 -12 56 13 103 56 65 59 301 209 432 274 52
26 145 61 205 77 61 17 146 42 190 55 44 13 143 31 220 40 189 22 219 27 209
35 -5 3 -23 26 -39 50 -17 25 -55 72 -87 107 -31 34 -59 75 -62 91 -3 15 -8
87 -10 158 -5 124 -22 354 -32 440 -5 39 -7 41 -109 98 -116 64 -141 68 -262
43 -37 -8 -117 -19 -177 -26 -61 -6 -113 -13 -116 -15 -3 -2 -44 -8 -90 -15
-75 -10 -159 -29 -205 -46 -8 -4 -15 -1 -15 7 0 7 3 10 6 6 3 -3 25 1 47 9 23
8 87 22 142 30 55 8 107 17 115 19 8 2 74 11 145 20 72 8 146 19 165 24 19 5
61 9 93 10 53 1 68 -4 162 -56z m-949 -149 c-52 -49 -75 -64 -123 -77 -33 -10
-82 -16 -109 -15 l-49 1 60 7 60 7 -60 3 -60 3 71 7 c87 9 123 27 197 98 46
43 61 52 68 41 6 -10 -9 -30 -55 -75z m3351 44 c-3 -7 -5 -2 -5 12 0 14 2 19
5 13 2 -7 2 -19 0 -25z m187 -3 c-10 -8 -26 -14 -34 -15 -8 0 -4 6 10 14 34
19 48 20 24 1z m-3971 -23 c9 -8 17 -19 17 -24 0 -4 -9 1 -20 12 -11 11 -28
20 -37 19 -14 0 -14 -2 3 -9 23 -9 41 -30 27 -30 -5 0 -14 5 -20 11 -6 6 -32
17 -59 24 l-49 15 45 -5 c34 -4 40 -3 25 5 -16 8 -12 9 15 4 19 -3 43 -13 53
-22z m1679 -46 c35 -23 93 -60 130 -80 72 -40 84 -51 68 -61 -5 -3 -10 -1 -10
5 0 5 -15 19 -32 30 -36 22 -53 26 -43 10 10 -16 0 -12 -67 27 -82 47 -140 92
-132 104 9 15 21 11 86 -35z m-2492 -16 c8 -5 11 -10 5 -10 -5 0 -17 5 -25 10
-8 5 -10 10 -5 10 6 0 17 -5 25 -10z m-315 -61 c-2 -49 -11 -78 -44 -143 -45
-89 -154 -241 -173 -241 -25 0 -16 23 41 99 74 98 133 206 157 285 10 34 19
61 20 61 1 0 0 -28 -1 -61z m2981 -60 c3 -6 -5 -3 -20 6 -14 10 -26 19 -26 22
0 7 39 -17 46 -28z m1807 -216 c-4 -11 -3 -14 5 -9 7 4 12 3 12 -3 0 -5 -5
-13 -10 -16 -17 -11 -40 -76 -40 -114 1 -46 35 -92 129 -170 39 -33 85 -77
103 -96 67 -78 173 -145 278 -179 l45 -15 -40 5 c-30 3 -35 2 -20 -5 11 -5 31
-10 45 -11 18 -2 20 -4 7 -7 -21 -5 -104 21 -170 54 -26 13 -87 60 -135 106
-49 45 -124 113 -167 151 -81 73 -105 111 -105 171 0 43 26 109 39 101 5 -4
12 -2 16 4 3 5 1 10 -5 10 -8 0 -8 6 0 20 13 24 22 27 13 3z m-1071 -402 c16
-23 208 -207 392 -375 116 -106 174 -185 159 -218 -9 -21 -10 -20 -30 13 -24
38 -185 201 -248 250 -55 42 -292 274 -312 305 -22 34 -32 212 -12 225 11 7
16 -9 24 -84 6 -56 17 -101 27 -116z m406 -82 c-2 -6 3 -14 11 -17 9 -3 11 0
6 8 -5 9 -4 11 3 6 16 -10 15 -26 -2 -26 -17 0 -38 24 -29 33 9 10 13 8 11 -4z
m-5400 -168 c55 -65 66 -101 32 -101 -10 0 -24 8 -29 18 -5 9 -35 48 -65 87
-31 38 -56 77 -56 86 0 30 15 30 40 1 14 -16 49 -57 78 -91z m6 -124 c15 -19
26 -42 25 -53 -1 -17 -2 -17 -7 2 -9 26 -51 79 -58 72 -2 -3 7 -20 22 -37 14
-18 24 -34 22 -37 -7 -6 -58 61 -58 75 0 22 30 10 54 -22z m16 -94 c0 -20 -58
-83 -77 -83 -25 0 -13 45 19 72 38 32 58 35 58 11z m-273 -23 c18 -16 39 -30
46 -30 7 0 25 -10 41 -23 23 -19 26 -25 14 -34 -30 -25 -158 59 -158 103 0 22
20 16 57 -16z m-942 -891 c-5 -15 -4 -19 4 -15 6 4 11 2 11 -3 0 -6 -7 -11
-15 -11 -16 0 -19 9 -9 34 9 24 16 19 9 -5z"/>
<path d="M2855 6167 c-28 -29 -77 -67 -110 -85 -33 -18 -49 -31 -35 -28 14 3
39 6 56 6 36 0 184 91 184 113 0 10 -34 48 -43 47 -1 -1 -25 -24 -52 -53z"/>
<path d="M3196 5867 c-2 -6 -9 -48 -15 -91 -6 -46 -23 -104 -38 -135 -15 -31
-29 -60 -31 -65 -3 -5 1 -6 7 -2 6 4 25 35 42 69 18 34 40 74 50 89 25 34 27
133 4 142 -9 3 -17 0 -19 -7z"/>
<path d="M2385 5840 c-3 -5 -1 -10 4 -10 6 0 11 5 11 10 0 6 -2 10 -4 10 -3 0
-8 -4 -11 -10z"/>
<path d="M4810 6030 c0 -5 5 -10 11 -10 5 0 7 5 4 10 -3 6 -8 10 -11 10 -2 0
-4 -4 -4 -10z"/>
<path d="M2742 5926 c-58 -19 -112 -57 -159 -114 -68 -81 -72 -89 -79 -204
l-7 -107 84 25 c107 33 268 115 333 171 111 94 117 101 105 127 -13 28 -48 46
-90 46 -41 0 -127 -49 -150 -86 -23 -38 -24 -65 -2 -111 16 -34 16 -36 -2 -49
-29 -21 -122 -54 -153 -54 -50 0 -54 10 -51 105 l4 87 53 49 c62 57 114 75
248 85 64 4 98 3 114 -6 15 -8 25 -9 32 -2 37 37 -190 67 -280 38z m241 -153
c-7 -2 -19 -2 -25 0 -7 3 -2 5 12 5 14 0 19 -2 13 -5z"/>
<path d="M3076 5498 c-3 -18 -8 -50 -11 -71 -5 -33 -2 -42 25 -68 18 -19 36
-29 46 -25 8 3 12 2 9 -4 -3 -6 -1 -10 4 -10 17 0 13 21 -6 37 -11 9 -12 12
-3 7 8 -4 22 -14 30 -22 8 -7 33 -24 55 -36 22 -13 39 -27 38 -33 -1 -6 10
-16 25 -23 15 -7 35 -16 44 -21 10 -5 20 -9 23 -9 8 0 -40 59 -130 163 -38 44
-80 92 -92 106 -12 14 -22 21 -23 15 0 -6 30 -45 66 -85 101 -112 137 -159
130 -166 -3 -3 -6 -1 -6 6 0 7 -5 9 -12 5 -7 -4 -10 -4 -6 1 8 9 -18 42 -104
133 -32 34 -66 78 -74 97 -8 19 -16 35 -19 35 -2 0 -6 -15 -9 -32z m13 -62
c-6 -21 -12 -36 -14 -34 -3 2 0 21 6 42 6 21 12 36 14 34 3 -2 0 -21 -6 -42z
m19 -66 c7 -11 11 -20 9 -20 -2 0 -12 9 -22 20 -10 11 -14 20 -9 20 5 0 15 -9
22 -20z"/>
<path d="M2677 5443 c-4 -3 -7 -13 -7 -22 1 -13 3 -13 11 2 11 19 8 33 -4 20z"/>
<path d="M5478 5314 c3 -58 -2 -93 -18 -144 -27 -83 -62 -127 -145 -182 -36
-23 -65 -46 -65 -51 0 -5 12 0 28 11 15 10 59 39 97 64 115 75 155 131 155
219 0 52 -33 159 -49 159 -3 0 -4 -34 -3 -76z"/>
<path d="M3939 4926 c-36 -8 -113 -37 -170 -64 -114 -54 -136 -63 -224 -87
-79 -22 -128 -48 -148 -79 -23 -34 -21 -44 7 -57 19 -9 47 -4 152 29 71 22
156 47 190 56 33 8 85 26 115 39 174 80 273 117 309 117 95 0 7 52 -95 56 -38
2 -100 -3 -136 -10z m181 -6 c18 -6 11 -7 -21 -4 -65 8 -175 -20 -295 -76
-100 -47 -198 -83 -260 -95 -19 -4 -46 -22 -68 -46 -40 -46 -44 -54 -18 -40
32 17 195 71 261 87 59 13 125 39 281 111 30 14 63 29 72 34 10 5 28 9 40 9
14 -1 1 -9 -31 -20 -29 -11 -58 -23 -65 -28 -6 -5 -22 -13 -36 -17 -14 -4 -56
-23 -95 -41 -38 -18 -113 -45 -165 -58 -80 -21 -205 -63 -272 -91 -29 -12 -21
14 17 61 27 33 44 44 77 49 58 10 128 35 230 83 79 38 117 51 218 80 43 12 97
13 130 2z"/>
<path d="M3616 3525 c8 -36 54 -162 82 -227 l21 -47 60 22 c34 12 61 24 61 27
0 3 -20 18 -45 33 -59 38 -138 126 -132 148 3 10 -7 29 -25 46 l-30 28 8 -30z"/>
<path d="M3873 2463 c9 -2 25 -2 35 0 9 3 1 5 -18 5 -19 0 -27 -2 -17 -5z"/>
<path d="M4374 3095 c11 -8 25 -15 30 -15 6 0 2 7 -8 15 -11 8 -25 15 -30 15
-6 0 -2 -7 8 -15z"/>
<path d="M8100 2525 c-30 -19 -50 -35 -43 -35 7 0 28 10 46 23 19 12 43 27 53
34 11 6 14 12 9 12 -6 1 -35 -15 -65 -34z"/>
<path d="M4472 2426 c-34 -32 -75 -60 -102 -69 -25 -9 -36 -16 -25 -16 34 -1
91 32 150 87 31 28 51 52 45 52 -6 0 -37 -24 -68 -54z"/>
<path d="M5681 2399 c35 -30 159 -103 165 -96 3 3 -23 21 -58 41 -35 19 -73
44 -85 56 -12 11 -28 20 -34 20 -7 0 -1 -9 12 -21z"/>
<path d="M2916 2274 c-10 -43 -84 -172 -152 -261 -30 -41 -54 -77 -51 -79 7
-7 91 104 136 179 45 75 84 164 78 180 -2 7 -7 -2 -11 -19z"/>
<path d="M7681 1959 c-29 -83 -3 -150 91 -230 35 -29 104 -92 154 -140 62 -59
110 -96 156 -118 36 -17 72 -31 79 -31 8 0 -19 17 -60 37 -54 26 -101 61 -170
127 -53 50 -118 109 -145 131 -96 78 -125 144 -96 221 6 15 9 29 6 31 -2 2 -9
-10 -15 -28z"/>
<path d="M6601 1755 c-2 -118 4 -129 157 -279 75 -74 155 -148 177 -166 62
-48 214 -200 237 -238 11 -18 23 -31 26 -28 13 13 -74 120 -164 202 -181 166
-375 352 -391 374 -9 12 -21 63 -28 114 l-13 91 -1 -70z"/>
<path d="M1550 1475 c0 -6 25 -42 56 -80 30 -39 60 -78 65 -87 10 -19 29 -24
29 -9 0 9 -28 44 -127 160 -12 14 -22 21 -23 16z"/>
<path d="M1631 1141 c-19 -15 -32 -33 -30 -40 3 -7 18 3 38 23 43 44 38 54 -8
17z"/>
<path d="M1360 1154 c0 -16 52 -60 99 -84 57 -28 49 -5 -9 27 -25 14 -55 34
-67 46 -13 11 -23 16 -23 11z"/>
<path d="M3520 6089 c178 -165 567 -422 751 -495 49 -19 89 -27 167 -30 l103
-6 -3 34 c-2 25 -9 34 -28 40 -14 4 -70 19 -125 33 -126 34 -367 113 -379 126
-6 5 -16 9 -24 9 -40 0 -363 216 -462 308 -24 23 -49 42 -55 42 -5 -1 19 -28
55 -61z m555 -367 c129 -76 205 -113 273 -133 23 -7 40 -14 38 -17 -8 -7 -107
29 -181 66 -77 38 -244 138 -260 154 -13 14 -12 14 130 -70z"/>
<path d="M5921 4314 c-1 -12 -4 -36 -7 -53 -4 -18 -2 -31 4 -31 15 0 22 42 13
75 -7 23 -9 25 -10 9z"/>
<path d="M3990 4214 c-36 -18 -59 -34 -52 -34 14 0 132 58 132 65 0 9 -15 3
-80 -31z"/>
<path d="M3858 4153 c7 -3 16 -2 19 1 4 3 -2 6 -13 5 -11 0 -14 -3 -6 -6z"/>
<path d="M2343 3768 c-6 -7 -13 -49 -16 -93 -4 -44 -18 -167 -32 -273 -18
-131 -24 -201 -18 -219 15 -43 57 242 78 520 6 79 5 86 -12 65z m-6 -185 c-3
-10 -5 -2 -5 17 0 19 2 27 5 18 2 -10 2 -26 0 -35z m-10 -85 c-2 -13 -4 -5 -4
17 -1 22 1 32 4 23 2 -10 2 -28 0 -40z m-12 -103 c-4 -37 -9 -65 -11 -62 -3 2
-2 34 2 71 4 37 9 64 12 62 2 -3 1 -35 -3 -71z m-18 -107 c-3 -7 -5 -2 -5 12
0 14 2 19 5 13 2 -7 2 -19 0 -25z m-10 -70 c-3 -7 -5 -2 -5 12 0 14 2 19 5 13
2 -7 2 -19 0 -25z"/>
<path d="M5365 3630 c-11 -5 -15 -9 -10 -9 6 -1 48 -8 95 -16 52 -9 104 -12
135 -8 l50 7 -105 17 c-120 20 -137 21 -165 9z m68 -7 c-7 -2 -19 -2 -25 0 -7
3 -2 5 12 5 14 0 19 -2 13 -5z m60 -10 c-7 -2 -21 -2 -30 0 -10 3 -4 5 12 5
17 0 24 -2 18 -5z m60 -10 c-7 -2 -21 -2 -30 0 -10 3 -4 5 12 5 17 0 24 -2 18
-5z"/>
<path d="M7390 3590 c-148 -9 -251 -23 -415 -56 -66 -13 -187 -31 -270 -40
-150 -16 -158 -16 -330 11 -58 9 71 -23 157 -39 80 -15 100 -15 240 -1 181 19
556 72 613 87 69 18 447 -4 635 -38 152 -27 458 -95 537 -118 67 -21 250 -90
363 -139 19 -8 48 -25 63 -37 15 -12 30 -20 33 -17 6 6 -71 67 -85 67 -6 0
-51 20 -99 44 -48 24 -134 61 -192 80 -58 20 -118 43 -135 50 -117 53 -408
115 -660 141 -148 15 -252 16 -455 5z"/>
<path d="M4198 3203 c6 -2 10 -9 7 -14 -3 -4 21 -22 54 -38 48 -25 60 -28 65
-16 4 11 -12 24 -54 45 -33 17 -65 30 -72 29 -10 0 -10 -2 0 -6z m67 -33 c3
-6 -1 -7 -9 -4 -18 7 -21 14 -7 14 6 0 13 -4 16 -10z m40 -20 c3 -6 -1 -7 -9
-4 -18 7 -21 14 -7 14 6 0 13 -4 16 -10z"/>
<path d="M8578 2773 c7 -3 16 -2 19 1 4 3 -2 6 -13 5 -11 0 -14 -3 -6 -6z"/>
<path d="M2051 2333 c-13 -38 -41 -108 -62 -157 -21 -50 -36 -92 -34 -94 9 -9
128 293 123 309 -2 5 -14 -21 -27 -58z"/>
<path d="M5966 2291 c-6 -9 39 -32 48 -24 3 3 -2 12 -12 19 -20 16 -29 17 -36
5z"/>
<path d="M6135 2154 c43 -36 124 -76 137 -68 6 4 8 3 5 -3 -7 -12 68 -56 86
-50 6 2 -14 21 -45 41 -33 22 -62 35 -69 30 -8 -4 -10 -3 -5 4 4 7 -16 23 -53
42 -73 36 -97 38 -56 4z"/>
<path d="M5950 1536 c0 -4 24 -37 54 -74 122 -153 200 -320 277 -592 47 -167
59 -266 70 -575 5 -159 12 -291 14 -294 12 -11 3 437 -10 559 -34 316 -164
677 -314 877 -58 77 -91 113 -91 99z"/>
<path d="M9055 1370 c-16 -6 -59 -15 -95 -20 -69 -11 -134 -29 -127 -36 2 -2
35 3 73 11 123 25 221 28 319 11 91 -15 252 -65 335 -104 441 -202 504 -227
735 -286 332 -84 540 -121 970 -176 530 -66 819 -84 1045 -64 90 9 169 19 175
23 5 5 57 14 115 20 58 6 126 16 153 22 56 13 65 35 10 25 -231 -41 -441 -52
-663 -37 -376 26 -939 85 -1200 127 -641 101 -784 139 -1140 302 -36 16 -76
33 -90 37 -14 4 -29 11 -35 15 -25 20 -193 82 -282 105 -110 28 -253 40 -298
25z"/>
<path d="M1580 959 c0 -3 -24 -111 -54 -240 -52 -221 -126 -583 -140 -676 -4
-27 -2 -43 4 -43 5 0 10 4 10 9 0 36 98 531 161 810 17 73 28 136 25 139 -4 3
-6 3 -6 1z"/>
</g>
</svg>
