<?xml version="1.0" standalone="no"?>
<!DOCTYPE svg PUBLIC "-//W3C//DTD SVG 20010904//EN"
 "http://www.w3.org/TR/2001/REC-SVG-20010904/DTD/svg10.dtd">
<svg version="1.0" xmlns="http://www.w3.org/2000/svg"
 width="1280.000000pt" height="720.000000pt" viewBox="0 0 1280.000000 720.000000"
 preserveAspectRatio="xMidYMid meet">
<metadata>
Created by potrace 1.16, written by Peter Selinger 2001-2019
</metadata>
<g transform="translate(0.000000,720.000000) scale(0.100000,-0.100000)"
fill="#000000" stroke="none">
<path d="M0 3600 l0 -3600 180 0 c163 0 180 2 180 17 0 10 6 35 14 58 8 22 31
96 50 165 20 69 60 208 91 310 51 168 83 295 99 391 4 22 24 56 52 89 l46 54
-8 61 c-15 110 -10 168 16 206 14 19 38 45 54 59 16 13 38 44 48 68 17 38 19
57 13 160 -5 89 -3 137 9 200 17 90 22 102 74 177 71 102 101 122 208 135 33
4 101 25 150 45 49 21 168 61 264 90 194 58 207 63 365 130 61 26 126 50 145
54 32 6 37 11 53 61 20 60 103 406 137 565 13 61 19 119 16 150 -4 40 -3 44 4
20 7 -23 8 -14 5 35 -2 43 -1 53 4 30 7 -35 7 -35 14 17 4 29 6 81 3 115 -2
43 -1 50 3 23 5 -32 8 -19 14 65 23 363 29 1155 9 1270 -5 30 -31 127 -56 215
-67 227 -203 774 -227 913 -27 161 -31 476 -6 612 28 153 93 365 133 435 13
22 40 74 61 115 20 41 39 78 41 83 2 4 -505 7 -1127 7 l-1131 0 0 -3600z
m2296 57 c0 -56 -2 -86 -5 -67 -4 23 -13 -27 -29 -155 -12 -104 -20 -206 -17
-225 4 -30 3 -32 -5 -10 -8 20 -9 16 -6 -24 2 -28 0 -43 -4 -36 -5 8 -11 -15
-16 -58 -3 -40 -11 -75 -16 -78 -5 -3 -6 5 -3 18 10 47 54 377 70 533 17 157
23 205 28 205 1 0 2 -46 3 -103z m-19 -269 c-2 -13 -4 -5 -4 17 -1 22 1 32 4
23 2 -10 2 -28 0 -40z m-143 -684 c4 -10 2 -13 -6 -8 -7 5 -9 -1 -6 -19 3 -15
2 -24 -3 -22 -4 3 -10 -12 -14 -32 -7 -46 -43 -154 -44 -135 -1 8 8 44 18 80
10 37 24 86 30 110 13 46 16 50 25 26z"/>
<path d="M2274 7183 c3 -7 1 -13 -5 -13 -5 0 -26 -33 -45 -72 -20 -40 -47 -93
-61 -118 -45 -79 -100 -259 -130 -421 -25 -135 -21 -450 6 -611 24 -139 160
-686 227 -913 25 -88 51 -185 56 -215 12 -70 15 -721 5 -995 -16 -418 -39
-585 -147 -1035 -27 -113 -58 -232 -68 -265 -17 -56 -21 -60 -53 -66 -19 -3
-106 -35 -194 -71 -88 -36 -233 -87 -322 -112 -90 -25 -186 -57 -215 -71 -99
-45 -159 -65 -201 -65 -49 0 -113 -28 -143 -61 -12 -13 -42 -54 -68 -91 -62
-90 -81 -183 -71 -344 8 -147 -1 -181 -71 -253 -69 -70 -82 -109 -66 -195 20
-104 17 -119 -33 -178 -25 -29 -48 -62 -50 -73 -2 -11 -9 -47 -15 -80 -11 -62
-56 -221 -140 -500 -57 -188 -100 -342 -100 -355 0 -6 185 -10 489 -10 l488 0
7 53 c10 77 82 428 126 617 21 91 42 182 46 203 3 20 10 40 15 43 21 13 25
-10 12 -67 -15 -66 -52 -238 -83 -389 -35 -169 -80 -414 -80 -437 l0 -23 805
0 804 0 -46 98 c-76 161 -141 363 -155 479 -12 110 -3 243 28 388 23 108 75
255 91 255 17 0 16 -8 -2 -61 -51 -144 -72 -479 -39 -637 9 -42 20 -82 26 -89
5 -7 20 -57 33 -111 25 -109 45 -177 78 -265 l22 -57 1643 0 1643 0 -6 138
c-3 75 -8 193 -10 261 -9 214 -33 344 -106 563 -65 199 -145 352 -251 479 -37
46 -50 85 -26 77 26 -9 147 -172 191 -258 70 -134 136 -315 181 -495 31 -123
46 -276 53 -517 l6 -248 859 0 c772 0 858 2 858 16 0 8 -9 72 -19 142 -28 182
-42 343 -39 449 3 79 0 95 -18 119 -11 15 -33 32 -50 37 -41 14 -124 86 -182
160 -57 72 -90 144 -127 277 -14 52 -28 104 -31 114 -6 17 -2 18 25 13 17 -4
88 -13 158 -22 211 -25 485 -76 597 -112 83 -26 235 -12 340 32 13 6 17 5 12
-3 -24 -39 -267 -66 -352 -39 -108 34 -397 89 -599 113 -71 8 -140 18 -152 21
-23 5 -23 5 -8 -43 8 -27 22 -76 31 -109 41 -161 174 -334 307 -400 54 -26 70
-72 61 -170 -7 -78 6 -228 38 -447 l22 -148 2358 0 2358 0 0 385 c0 212 -3
385 -7 385 -5 0 -35 -7 -68 -14 -33 -8 -91 -17 -130 -21 -38 -4 -92 -13 -120
-20 -215 -59 -625 -46 -1305 41 -571 72 -1058 181 -1298 290 -43 19 -86 39
-97 44 -11 5 -56 25 -100 46 -44 20 -102 45 -130 56 -27 11 -54 23 -60 28 -24
19 -200 71 -293 87 -95 16 -110 16 -229 1 -71 -9 -137 -19 -148 -23 -17 -6
-18 -5 -5 5 13 10 11 11 -8 7 -12 -3 -20 -2 -17 3 5 8 69 25 190 52 129 28
354 0 500 -62 37 -16 179 -78 341 -148 193 -84 312 -123 493 -162 458 -99
1299 -201 1861 -226 171 -8 390 11 603 52 l27 6 0 1699 c0 934 -2 1699 -4
1699 -10 0 -279 -102 -366 -138 -52 -22 -192 -89 -310 -150 -118 -60 -240
-116 -270 -125 -34 -9 -116 -17 -215 -20 -101 -3 -132 -2 -85 3 41 4 114 8
161 9 124 2 142 8 489 187 63 33 133 67 155 76 154 63 273 110 353 138 l92 32
0 44 0 43 -67 -23 c-38 -13 -79 -28 -93 -34 -14 -6 -90 -37 -170 -68 -151 -60
-250 -109 -408 -202 -52 -30 -140 -76 -196 -103 -57 -26 -108 -55 -116 -63 -9
-12 -32 -16 -79 -17 -36 0 -104 -4 -151 -9 -128 -12 -327 -28 -500 -40 -150
-10 -392 -39 -685 -81 -237 -34 -401 -81 -620 -179 -22 -9 -78 -32 -125 -50
-47 -17 -103 -40 -125 -49 -22 -10 -60 -26 -85 -37 -108 -46 -250 -134 -250
-154 0 -6 21 6 47 26 51 39 129 82 118 65 -3 -6 -2 -11 4 -11 5 0 13 5 16 10
3 6 14 10 23 9 14 0 13 -2 -3 -9 -11 -4 -64 -47 -118 -94 -54 -47 -107 -86
-117 -86 -10 0 -40 16 -65 36 -26 19 -49 33 -51 31 -5 -5 35 -41 76 -69 l25
-16 -85 -84 c-70 -68 -98 -88 -155 -111 -93 -37 -293 -136 -277 -136 7 -1 43
14 80 32 37 18 114 53 171 78 87 37 116 56 182 116 43 40 85 73 93 73 8 0 23
11 33 24 33 42 176 156 258 206 99 60 217 117 313 153 236 87 699 196 987 232
72 9 137 18 145 20 8 2 58 6 110 9 428 27 595 36 655 34 64 -2 65 -2 15 -5
-697 -39 -760 -43 -780 -48 -8 -2 -73 -11 -145 -20 -285 -36 -793 -155 -992
-234 -200 -79 -446 -236 -560 -357 -12 -13 -27 -24 -33 -24 -7 0 -42 -29 -79
-65 -55 -53 -85 -72 -180 -114 -62 -28 -145 -67 -185 -86 -39 -19 -87 -37
-106 -40 -29 -4 -31 -3 -10 4 21 7 22 9 5 10 -11 1 14 17 55 37 107 51 218
103 269 125 53 23 71 38 139 111 l54 57 -41 36 c-22 20 -57 49 -79 64 -47 34
-334 150 -457 185 -142 40 -527 114 -675 131 -154 17 -435 20 -507 5 -142 -30
-573 -87 -688 -91 -70 -3 -271 33 -230 41 28 6 26 7 -18 14 -27 4 -47 10 -44
12 3 3 43 -2 90 -11 78 -15 98 -15 234 0 81 9 164 20 183 25 75 18 341 60 455
71 196 19 548 7 730 -25 136 -24 377 -80 396 -92 12 -7 169 -64 209 -76 19 -5
96 -37 169 -70 97 -44 158 -79 215 -125 44 -34 86 -63 92 -63 13 0 194 153
188 159 -5 5 -98 -56 -119 -79 -21 -23 -45 -26 -45 -6 0 27 85 88 195 140 135
65 173 82 205 91 14 4 77 29 140 55 372 156 429 169 1010 244 107 14 265 30
350 36 85 6 214 15 285 21 72 7 196 17 276 23 83 6 152 16 161 23 8 7 69 39
136 72 67 33 139 71 160 85 147 93 409 211 673 304 l84 30 3 1441 2 1441
-3550 0 c-3180 0 -3551 -2 -3557 -15 -3 -9 11 -71 31 -138 20 -67 45 -169 57
-227 25 -131 59 -448 59 -555 0 -44 8 -136 17 -205 11 -88 16 -206 17 -401 l1
-276 41 -54 c23 -31 54 -79 69 -107 41 -79 144 -396 131 -404 -5 -4 -9 -27 -7
-52 3 -51 -8 -94 -45 -174 -13 -29 -24 -57 -24 -63 0 -6 -18 -84 -41 -173 -23
-88 -43 -171 -46 -183 -3 -12 7 -61 21 -110 14 -48 39 -149 56 -223 36 -159
76 -287 99 -314 13 -16 14 -18 1 -14 -21 6 -66 138 -106 313 -19 83 -46 190
-60 238 -14 49 -24 98 -21 110 13 56 88 355 96 382 5 17 21 57 35 90 18 41 26
76 25 110 -1 28 2 57 5 66 7 16 -38 170 -90 309 -25 68 -68 142 -119 206 l-30
37 -1 281 c-1 198 -6 318 -17 406 -9 69 -17 161 -17 205 0 118 -35 432 -64
575 -14 69 -39 168 -56 220 -17 52 -29 105 -27 118 l4 22 -1686 0 c-1624 0
-1687 -1 -1696 -18 -6 -10 -19 -35 -29 -55 -11 -20 -23 -37 -28 -37 -9 0 -6
22 4 30 3 3 8 12 10 20 2 8 11 21 21 28 21 16 22 29 2 29 -9 0 -14 -6 -11 -14z
m575 -407 c32 -55 84 -129 117 -164 32 -36 71 -83 87 -104 16 -22 32 -36 39
-32 7 4 8 3 4 -5 -8 -13 92 -129 270 -313 116 -119 237 -222 382 -323 117 -81
392 -245 411 -245 12 1 11 3 -4 12 -96 53 -256 151 -252 154 2 3 45 -20 94
-51 176 -107 370 -185 463 -185 35 0 39 5 31 43 -5 24 -13 33 -36 39 -317 76
-512 148 -679 249 -72 45 -148 94 -168 110 -20 16 -39 29 -42 29 -3 0 -16 11
-29 24 -13 12 -27 25 -33 27 -5 2 -27 24 -49 49 -46 50 -25 38 55 -34 99 -88
268 -201 405 -269 110 -55 365 -137 540 -174 36 -8 40 -12 46 -46 7 -45 -1
-52 -69 -61 -93 -12 -238 42 -452 169 -284 168 -453 297 -625 473 -125 129
-264 285 -310 347 -16 22 -55 68 -86 101 -52 57 -80 99 -153 227 l-28 49 -32
-30 c-58 -55 -71 -57 -123 -23 -26 17 -52 31 -59 31 -33 0 -65 -23 -105 -75
-35 -44 -48 -55 -65 -50 -26 6 -34 -3 -63 -75 -39 -94 -61 -144 -70 -161 -37
-66 -48 -471 -17 -624 16 -82 79 -286 111 -360 7 -16 25 -59 40 -95 15 -36 40
-91 56 -122 16 -32 40 -99 55 -150 51 -178 146 -389 232 -517 70 -104 207
-251 233 -251 11 0 30 -7 43 -15 18 -12 193 -61 318 -89 14 -3 28 -13 30 -22
3 -17 128 -62 308 -110 70 -19 99 -23 115 -15 11 6 48 22 82 35 34 14 92 43
128 63 37 21 75 43 86 49 30 17 224 188 305 269 69 69 160 195 181 251 21 56
43 204 43 288 0 71 -6 104 -34 188 -19 57 -42 131 -51 165 l-17 62 -42 4 -41
4 46 1 45 2 13 -52 c8 -29 31 -106 52 -171 33 -100 39 -132 39 -203 0 -90 -22
-232 -47 -299 -35 -95 -145 -233 -264 -330 -40 -33 -98 -83 -129 -111 -30 -27
-74 -64 -97 -81 -24 -16 -40 -33 -37 -36 6 -6 112 71 135 99 8 9 44 41 81 70
210 169 325 312 381 477 24 71 25 80 12 111 -11 27 -12 45 -3 93 10 54 9 67
-15 139 -73 223 -98 329 -106 448 -10 165 -1 214 55 271 65 68 102 58 122 -32
6 -28 41 -113 77 -188 36 -76 65 -140 65 -143 0 -2 9 -23 19 -46 31 -67 61
-135 61 -140 0 -10 75 -133 105 -172 48 -63 59 -118 40 -209 -9 -41 -23 -94
-32 -117 -8 -24 -19 -61 -23 -83 -4 -22 -9 -47 -11 -55 -2 -8 2 -14 9 -15 18
0 32 -25 31 -55 -1 -27 -4 -22 -13 23 -4 16 -11 25 -17 21 -19 -11 -26 16 -16
59 6 23 20 74 33 112 55 169 52 227 -17 317 -40 53 -99 167 -160 308 -17 41
-56 127 -86 190 -30 63 -62 142 -70 175 -27 100 -42 106 -103 45 -56 -56 -63
-78 -61 -205 1 -139 10 -188 73 -393 64 -211 62 -201 49 -261 -8 -39 -8 -57 4
-84 13 -31 12 -40 -11 -111 -13 -42 -34 -96 -45 -119 -49 -97 -194 -260 -305
-342 -49 -37 -254 -216 -273 -238 -7 -9 -17 -14 -22 -11 -6 3 2 15 16 26 24
18 26 38 4 38 -6 0 -8 -4 -4 -9 3 -5 0 -13 -6 -17 -8 -4 -9 -3 -5 4 4 7 5 12
3 12 -11 0 -170 -79 -160 -80 10 0 63 22 137 58 5 3 6 0 2 -6 -3 -5 -40 -24
-82 -42 -109 -45 -108 -45 -100 -32 4 7 1 12 -9 12 -9 0 -14 -4 -11 -8 15 -24
-132 8 -317 69 -48 16 -94 29 -101 29 -8 0 -17 9 -21 20 -4 12 -21 23 -43 29
-20 6 -84 22 -142 36 -58 15 -125 35 -149 46 -24 10 -49 19 -55 18 -18 0 207
-108 228 -109 11 0 43 -11 71 -25 79 -37 410 -146 448 -147 17 -1 48 2 67 6
27 5 25 3 -10 -8 -32 -11 -55 -13 -85 -6 -65 15 -389 127 -435 150 -59 30 -71
20 -20 -18 24 -18 39 -32 34 -32 -11 0 -58 34 -94 68 -14 12 -36 26 -50 29
-14 3 -53 22 -88 41 -36 20 -67 31 -72 26 -15 -16 -29 -86 -23 -116 6 -32 42
-72 133 -150 97 -83 124 -112 173 -191 29 -47 65 -90 90 -108 23 -17 45 -38
48 -47 4 -10 46 -42 94 -71 60 -37 121 -87 192 -158 96 -96 115 -110 231 -170
280 -144 403 -203 424 -203 7 0 31 -12 53 -27 22 -15 45 -28 50 -28 6 0 35
-19 65 -41 30 -23 88 -54 128 -68 40 -14 112 -42 160 -62 81 -33 115 -48 216
-92 66 -29 367 -179 451 -225 44 -24 121 -65 170 -91 50 -27 133 -76 185 -109
52 -33 128 -80 167 -105 61 -37 70 -47 57 -56 -13 -10 -10 -15 18 -36 18 -13
42 -25 54 -26 33 -4 166 -79 274 -154 52 -37 144 -97 203 -133 60 -37 168
-111 240 -166 134 -100 200 -138 364 -210 97 -42 293 -103 321 -100 9 1 24 -1
32 -4 8 -3 26 -8 40 -11 14 -2 54 -11 90 -20 84 -19 344 -45 391 -39 41 6 243
-29 339 -59 56 -17 85 -19 210 -15 l145 5 -139 -10 c-130 -10 -145 -9 -215 11
-115 32 -299 63 -340 58 -47 -6 -295 19 -391 39 -41 9 -104 22 -140 29 -255
48 -512 161 -716 315 -73 55 -181 130 -241 167 -59 36 -157 101 -218 143 -127
89 -171 114 -187 104 -7 -4 -8 -3 -4 5 10 15 -22 27 -36 13 -13 -13 47 -46 64
-36 6 4 8 3 5 -3 -8 -13 20 -26 35 -16 7 3 8 1 4 -5 -4 -7 12 -21 41 -36 26
-14 43 -25 37 -26 -27 -1 -193 97 -245 144 -30 28 -84 68 -120 89 -35 20 -58
37 -51 37 7 0 22 -5 32 -10 34 -18 31 7 -3 28 -17 10 -75 46 -127 79 -178 113
-641 355 -855 448 -60 26 -123 53 -140 61 -16 7 -88 35 -158 62 -80 32 -144
64 -172 87 -45 36 -60 38 -28 3 30 -33 8 -19 -39 25 -25 24 -65 51 -89 59 -24
8 -53 19 -63 23 -14 6 -17 5 -11 -4 6 -11 3 -11 -16 -1 -35 18 -37 23 -9 16
14 -3 5 3 -20 15 -51 24 -97 47 -292 147 -127 66 -143 77 -240 175 -72 71
-133 121 -193 158 -48 29 -90 61 -94 71 -3 9 -25 30 -48 47 -25 18 -62 62 -90
108 -26 42 -57 86 -68 97 -43 44 -133 123 -163 144 -70 51 -95 133 -63 210 13
32 13 32 -70 120 -98 103 -183 225 -234 336 -57 123 -111 263 -135 351 -12 44
-37 109 -55 145 -42 83 -114 266 -159 401 -57 175 -70 261 -70 464 1 206 15
316 50 395 14 30 39 89 57 130 29 66 36 75 58 75 20 0 38 14 73 57 65 80 118
89 186 32 l30 -26 27 20 c16 11 37 29 47 41 11 12 26 20 34 19 8 -2 40 -48 71
-102z m-745 -53 c-7 -32 -13 -62 -14 -67 0 -5 -2 -7 -5 -4 -8 8 20 128 29 128
2 0 -2 -26 -10 -57z m3342 -169 c36 -17 87 -80 123 -151 34 -68 51 -207 49
-408 l-2 -180 27 -43 c71 -110 204 -390 226 -477 36 -142 61 -212 78 -227 19
-15 21 -24 -22 117 -35 116 -39 137 -21 100 8 -16 15 -23 15 -15 3 32 73 -110
111 -225 28 -84 40 -137 40 -177 0 -64 -63 -302 -105 -402 -19 -42 -23 -61
-14 -66 8 -5 2 -33 -22 -96 -38 -104 -46 -116 -46 -74 0 20 3 26 9 18 10 -17
10 19 -1 47 -6 14 -13 -8 -26 -80 -30 -173 -72 -345 -137 -558 -20 -68 -21
-69 -52 -63 -17 3 -124 17 -238 31 -217 26 -335 47 -370 66 -11 6 -22 8 -24 6
-10 -9 142 -74 212 -91 55 -14 78 -15 105 -7 34 11 34 11 -10 7 -32 -3 -41 -2
-30 5 10 8 5 9 -19 6 -19 -2 -29 0 -24 5 6 6 105 -5 243 -26 129 -19 305 -43
392 -53 86 -10 157 -20 157 -24 0 -7 -3 -7 -133 11 -48 7 -100 9 -115 6 -21
-5 -24 -4 -12 4 11 9 -2 10 -55 7 -45 -3 -63 -1 -50 4 13 6 0 8 -40 5 -42 -3
-51 -2 -30 3 l30 9 -30 0 c-16 1 -48 -2 -70 -6 -34 -7 -18 -10 100 -25 201
-24 362 -38 417 -36 26 2 51 0 55 -4 31 -31 -592 35 -832 88 -141 32 -271 83
-291 116 -4 7 -3 9 4 5 5 -3 12 -1 14 5 3 9 11 7 29 -4 35 -23 140 -43 377
-72 293 -36 262 -38 278 15 60 193 106 379 134 540 15 82 30 136 45 160 66
105 165 415 165 518 0 39 -11 90 -34 159 -37 109 -98 241 -104 223 -2 -6 8
-49 22 -94 29 -94 32 -117 14 -113 -27 5 -53 69 -93 232 -10 39 -29 95 -43
125 -46 102 -185 360 -193 360 -5 0 7 -42 26 -94 38 -107 66 -212 90 -335 14
-71 14 -86 2 -100 -7 -9 -24 -52 -36 -96 -40 -140 -124 -310 -202 -404 -25
-31 -26 -36 -13 -56 13 -20 13 -24 -1 -35 -13 -11 -19 -10 -35 5 -24 21 -28
90 -6 98 7 3 27 39 44 79 17 41 63 130 102 199 122 215 125 232 69 398 -39
114 -98 359 -114 474 -8 62 -39 86 -82 63 -39 -20 -80 -61 -100 -99 -13 -24
-18 -56 -18 -122 l0 -90 47 -77 c27 -42 60 -114 74 -160 15 -46 34 -103 44
-128 24 -59 13 -127 -34 -224 -38 -79 -62 -101 -178 -157 -37 -18 -64 -37 -61
-42 3 -6 1 -7 -5 -3 -5 3 -13 0 -15 -6 -3 -8 -6 -6 -6 4 -1 12 24 30 81 59
116 58 142 81 178 156 44 90 52 152 29 212 -10 25 -27 78 -39 116 -12 39 -44
108 -73 155 -46 77 -51 92 -55 156 -6 97 16 170 65 217 48 48 86 63 118 49 26
-12 30 -24 58 -173 9 -47 24 -118 33 -158 15 -64 18 -70 30 -54 13 16 13 15 3
-9 -9 -21 -9 -38 1 -74 13 -45 14 -46 26 -23 7 13 13 20 14 16 0 -5 -5 -17
-11 -28 -8 -15 -5 -35 10 -82 33 -104 34 -122 12 -190 -12 -34 -53 -118 -91
-186 -69 -122 -80 -142 -119 -233 -11 -27 -25 -48 -30 -48 -18 0 -12 -56 7
-73 24 -22 37 -9 16 14 -18 20 -23 10 64 140 62 92 126 231 156 333 14 48 30
94 36 100 6 9 5 35 -4 82 -8 38 -17 86 -21 108 -6 36 -7 37 -21 20 -14 -18
-14 -17 -4 4 14 29 8 60 -42 196 -32 87 -37 110 -26 117 11 7 6 12 -12 11 -3
0 -4 88 -3 196 4 289 -15 380 -100 500 -42 59 -81 80 -135 74 -23 -2 -44 -8
-47 -13 -3 -4 10 -63 29 -131 19 -68 38 -140 41 -161 4 -21 18 -70 30 -110 18
-55 28 -73 43 -75 11 -2 41 -25 65 -51 35 -38 47 -60 57 -104 6 -31 9 -69 7
-84 -3 -25 -4 -24 -6 7 -4 80 -21 124 -69 173 -25 26 -54 47 -63 47 -12 0 -23
22 -42 83 -14 45 -28 96 -31 112 -4 17 -23 90 -43 163 -20 73 -33 135 -29 139
3 4 25 10 49 14 23 3 44 7 45 8 2 0 19 -6 38 -15z m-2566 -414 c11 -11 20 -25
20 -31 0 -7 -11 0 -24 14 l-24 25 -47 -54 c-39 -46 -65 -64 -160 -109 -63 -30
-120 -55 -128 -55 -19 0 -146 -91 -177 -126 -14 -16 -28 -38 -32 -49 -5 -18
-6 -18 -7 3 -1 13 11 37 27 54 41 45 142 114 187 128 102 32 210 95 270 157
33 34 63 62 68 63 4 0 16 -9 27 -20z m105 -132 c21 -24 64 -71 96 -105 l58
-62 -5 -73 c-6 -94 -29 -182 -60 -235 -14 -24 -21 -43 -15 -43 5 0 20 21 33
48 13 26 37 72 54 102 38 67 45 142 17 160 -17 11 -17 11 0 6 12 -4 17 -2 14
6 -2 7 -10 12 -16 10 -7 -1 -10 2 -7 7 6 9 -69 95 -180 209 -28 28 -48 52 -43
52 4 0 64 -60 134 -132 l126 -133 -4 -75 c-3 -68 -8 -83 -52 -160 -63 -110
-76 -126 -87 -106 -6 10 0 29 16 55 31 48 54 134 60 226 l5 71 -112 118 -112
119 -72 -47 c-52 -35 -85 -49 -125 -55 -29 -4 -74 -19 -98 -34 -25 -14 -73
-40 -107 -56 -68 -33 -139 -91 -148 -122 -4 -10 -10 -19 -15 -19 -5 0 -6 7 -3
17 5 12 3 14 -8 8 -8 -4 -12 -6 -9 -2 3 3 7 5 10 4 3 -1 23 17 44 40 22 25 69
58 113 80 42 21 98 50 127 65 28 15 68 27 88 27 27 1 57 15 115 54 78 53 78
53 104 35 14 -9 43 -36 64 -60z m1714 -25 c0 -11 -3 -13 -6 -5 -2 6 -9 10 -14
6 -5 -3 -9 0 -9 5 0 6 7 11 15 11 8 0 15 -8 14 -17z m91 -90 c0 -14 -2 -15 -9
-4 -7 11 -9 11 -14 0 -4 -10 -6 -9 -6 4 -1 9 6 17 14 17 8 0 15 -8 15 -17z
m-2175 -33 c-3 -5 -14 -10 -23 -10 -15 0 -15 2 -2 10 20 13 33 13 25 0z m314
-4 c39 -14 61 -40 46 -55 -7 -6 -30 -3 -65 9 -30 11 -47 19 -37 20 10 0 33 -6
52 -14 43 -18 55 -3 18 21 -20 13 -52 19 -123 21 -136 5 -186 -15 -279 -113
-78 -83 -86 -102 -97 -237 l-7 -86 69 19 c106 29 282 119 357 183 37 31 70 56
75 56 5 0 14 12 21 26 16 36 -6 69 -57 85 -35 10 -44 8 -90 -16 -29 -15 -64
-41 -78 -58 -26 -31 -28 -63 -9 -140 7 -25 4 -29 -50 -53 -32 -15 -77 -29 -99
-31 -61 -7 -70 8 -64 107 5 78 6 82 44 121 53 54 107 78 203 89 67 8 91 6 138
-8 73 -22 94 -52 72 -100 -8 -18 -17 -32 -22 -32 -4 0 -37 -25 -72 -55 -66
-55 -182 -120 -278 -154 -97 -35 -159 -52 -165 -46 -3 3 -1 57 6 121 13 132
21 149 109 236 76 75 134 97 258 97 50 -1 105 -6 124 -13z m310 -58 c0 -22 -1
-22 -8 -3 -7 17 -9 16 -16 -13 -4 -18 -4 -36 -1 -39 3 -4 6 2 6 12 0 10 2 16
5 13 7 -7 -5 -58 -14 -58 -10 0 -11 59 -1 85 12 31 30 33 29 3z m61 -14 c0
-36 -14 -53 -24 -28 -11 29 -6 61 9 61 10 0 15 -11 15 -33z m590 -20 c0 -2 -9
0 -20 6 -11 6 -20 13 -20 16 0 2 9 0 20 -6 11 -6 20 -13 20 -16z m-960 -65 c0
-5 -4 -8 -9 -5 -5 4 -12 0 -14 -6 -3 -8 -6 -6 -6 5 -1 9 6 17 14 17 8 0 15 -5
15 -11z m2731 -156 c-12 -20 -14 -14 -5 12 4 9 9 14 11 11 3 -2 0 -13 -6 -23z
m10 -30 c-12 -20 -14 -14 -5 12 4 9 9 14 11 11 3 -2 0 -13 -6 -23z m-1255 -33
c88 -7 88 -7 23 -9 -88 -1 -129 7 -129 28 0 13 2 13 9 2 6 -9 39 -16 97 -21z
m-1281 -119 c231 -254 231 -263 8 -154 -134 65 -148 81 -139 164 4 33 11 71
16 85 l10 26 28 -33 c15 -18 50 -58 77 -88z m-565 5 c0 -24 -37 -62 -49 -51
-7 7 -4 21 9 43 20 32 40 35 40 8z m80 1 c0 -23 -24 -47 -38 -38 -12 7 -12 12
-1 30 15 23 39 28 39 8z m2780 3 c0 31 28 -15 50 -83 16 -49 20 -80 16 -109
-8 -48 -38 -110 -69 -139 -30 -29 -212 -149 -226 -149 -31 0 15 50 86 94 51
31 107 113 124 178 6 26 10 85 8 132 -2 46 -1 79 3 73 5 -8 8 -7 8 3z m491
-324 c25 15 -40 -112 -142 -277 -43 -71 -79 -135 -79 -142 0 -8 11 -36 25 -63
30 -59 30 -64 6 -64 -25 0 -41 21 -48 64 -4 29 -8 34 -19 25 -24 -20 -27 16
-6 65 11 24 60 107 109 183 49 76 100 157 113 181 14 24 26 39 28 33 2 -6 8
-9 13 -5z m-1806 -156 c54 -20 40 -60 -21 -60 -18 0 -88 -29 -170 -71 -76 -39
-188 -88 -249 -109 -60 -21 -153 -54 -205 -74 -110 -42 -121 -43 -145 -16 -17
18 -17 21 -1 55 22 45 43 58 150 95 48 16 137 56 198 89 115 63 148 76 238 97
57 14 162 10 205 -6z m1092 -34 c0 -8 -6 -12 -15 -9 -11 5 -11 7 0 14 7 5 13
9 14 9 0 0 1 -6 1 -14z m75 -5 c-12 -11 -61 -31 -108 -46 l-86 -27 5 -44 c3
-34 0 -50 -14 -67 -10 -12 -18 -17 -19 -11 0 6 6 17 14 23 9 7 12 26 8 59 l-4
48 92 28 c50 15 94 34 97 42 3 8 13 14 22 14 13 -1 12 -4 -7 -19z m-1947 -621
c-3 -5 -1 -10 6 -10 7 0 10 -2 7 -5 -3 -3 -13 -2 -22 1 -14 5 -15 9 -4 15 17
11 20 11 13 -1z m2555 -90 c0 -19 -22 -115 -29 -122 -3 -4 -7 12 -7 35 -1 32
0 37 7 22 7 -14 8 -8 4 21 -2 22 -2 44 2 47 9 10 23 8 23 -3z m48 -58 c2 -7
-3 -12 -12 -12 -9 0 -16 7 -16 16 0 17 22 14 28 -4z m-2333 -12 c13 -5 14 -9
5 -9 -8 0 -24 4 -35 9 -13 5 -14 9 -5 9 8 0 24 -4 35 -9z m-626 -137 c-1 -37
-2 -37 -8 -8 l-7 30 -6 -35 c-18 -99 -29 -658 -20 -1055 4 -231 7 -447 6 -480
l-2 -60 7 55 c5 30 6 341 4 690 -2 349 -1 678 4 730 5 58 8 -207 7 -670 0
-578 -3 -779 -13 -822 -17 -78 -28 -80 -24 -5 2 34 3 213 1 397 -7 789 5 1243
35 1262 17 11 17 12 16 -29z m8661 -177 c8 -2 -33 -4 -92 -5 -59 0 -109 3
-112 7 -4 7 169 5 204 -2z m-6589 -131 c8 19 9 19 6 1 -3 -29 -27 -33 -26 -4
1 20 2 21 7 3 l5 -20 8 20z m196 9 c-3 -3 -12 -4 -19 -1 -8 3 -5 6 6 6 11 1
17 -2 13 -5z m-1791 -29 c-6 -18 -26 -11 -26 8 0 7 4 6 10 -3 8 -13 10 -12 10
4 0 11 3 17 6 13 4 -3 4 -13 0 -22z m194 -148 c42 -40 111 -95 153 -122 42
-28 77 -56 77 -62 0 -7 -2 -13 -5 -13 -10 0 -85 40 -85 46 0 2 9 0 21 -6 11
-7 23 -9 26 -7 2 3 -6 11 -19 18 -41 22 -142 101 -201 158 l-57 56 23 -70 c37
-108 89 -235 96 -235 4 0 32 9 64 20 31 11 62 20 69 19 7 0 -12 -9 -42 -20
-101 -37 -97 -38 -125 25 -22 49 -95 251 -95 262 0 17 33 -7 100 -69z m2558
46 c-10 -2 -28 -2 -40 0 -13 2 -5 4 17 4 22 1 32 -1 23 -4z m-10 -20 c-10 -2
-26 -2 -35 0 -10 3 -2 5 17 5 19 0 27 -2 18 -5z m149 -19 c-3 -3 -12 -4 -19
-1 -8 3 -5 6 6 6 11 1 17 -2 13 -5z m-2583 -160 c28 -19 46 -34 41 -34 -22 0
-114 71 -153 118 -60 71 -52 78 10 9 28 -32 74 -74 102 -93z m4896 103 c0 -7
-4 -6 -10 3 -8 12 -10 12 -10 1 0 -8 -3 -12 -6 -8 -9 9 6 28 17 22 5 -4 9 -12
9 -18z m-4880 -94 c0 -7 -58 36 -66 49 -4 7 9 -1 29 -16 20 -16 37 -30 37 -33z
m5603 20 c-7 -2 -13 -9 -13 -14 0 -6 5 -7 12 -3 7 5 8 3 3 -5 -5 -9 -11 -9
-17 -3 -12 12 -2 32 15 31 9 0 9 -2 0 -6z m-5184 -246 c106 -53 218 -105 248
-114 30 -10 51 -19 45 -21 -18 -6 -186 64 -352 148 l-163 83 -71 -6 c-45 -3
-94 -15 -132 -32 l-62 -27 5 -81 c4 -70 1 -93 -21 -156 l-25 -74 -222 -216
c-149 -145 -217 -217 -206 -219 9 -2 52 4 94 12 43 9 143 22 223 31 230 24
324 35 343 41 11 3 40 3 65 -2 41 -6 44 -8 22 -15 -14 -4 -38 -7 -55 -7 -29 1
-29 1 5 9 41 9 -22 5 -155 -11 -44 -6 -145 -17 -225 -25 -80 -9 -179 -22 -220
-30 -75 -15 -130 -17 -130 -4 0 4 103 108 229 230 227 223 228 224 251 293 19
58 22 83 17 152 l-6 82 49 21 c73 31 118 40 190 37 60 -2 81 -10 259 -99z
m-39 72 c0 -5 5 -7 12 -3 7 4 8 3 4 -4 -4 -7 13 -21 43 -37 57 -28 65 -30 55
-12 -5 9 -4 9 6 0 8 -7 11 -16 7 -20 -11 -10 -144 57 -144 73 0 8 4 14 9 14 4
0 8 -5 8 -11z m202 -90 c16 -12 27 -24 24 -27 -3 -3 0 -12 7 -20 7 -10 -5 -6
-31 8 -24 14 -48 30 -54 38 -7 7 5 4 26 -8 20 -13 39 -20 42 -17 3 3 -8 13
-25 22 -17 8 -31 18 -31 20 0 10 12 5 42 -16z m155 -97 c26 -15 82 -43 123
-62 41 -18 158 -74 260 -123 102 -49 217 -104 255 -122 39 -19 64 -34 56 -34
-8 -1 -64 23 -125 53 -61 30 -165 80 -231 111 -328 157 -421 205 -398 205 7 0
34 -13 60 -28z m3513 -203 c0 -6 -27 -41 -60 -77 -35 -38 -77 -99 -100 -145
-39 -78 -54 -90 -25 -20 8 20 13 38 10 41 -5 6 -22 -36 -40 -103 -8 -27 -14
-40 -14 -27 -1 37 36 132 75 191 68 101 154 180 154 140z m324 -111 c-5 -8 -1
-9 12 -5 50 18 -42 -39 -166 -103 -74 -38 -155 -83 -180 -100 -48 -32 -70 -38
-70 -17 0 16 122 93 250 157 58 29 114 59 125 66 24 17 39 18 29 2z m-3149
-47 c-11 -5 -45 -12 -75 -15 -318 -40 -565 -87 -589 -111 -19 -19 -5 -19 50 1
48 16 153 34 383 64 81 11 164 24 185 30 85 23 133 14 248 -49 l108 -59 2 -48
c2 -27 8 -104 14 -172 6 -68 14 -192 18 -276 l6 -153 40 -47 c134 -158 165
-200 154 -211 -3 -2 -82 -13 -176 -25 -94 -11 -208 -31 -254 -45 -46 -14 -126
-36 -178 -51 -52 -14 -112 -33 -135 -42 -108 -43 -429 -241 -511 -314 -56 -51
-94 -71 -114 -59 -24 15 -31 89 -29 341 l2 255 5 -281 c7 -353 7 -353 127
-245 57 51 273 190 399 257 91 49 131 64 260 99 49 14 127 36 173 50 45 13
140 31 210 40 70 8 146 17 170 20 l42 6 -29 42 c-16 23 -58 75 -94 116 -72 81
-77 96 -77 215 0 44 -5 135 -11 201 -6 66 -14 164 -18 218 l-6 99 -105 59
c-112 62 -159 72 -241 49 -21 -6 -104 -19 -185 -30 -382 -50 -414 -59 -502
-144 -67 -66 -142 -104 -215 -110 -35 -3 -37 -2 -12 4 l30 7 -35 3 c-35 2 -35
2 10 11 78 15 122 39 188 101 49 45 67 57 73 46 7 -10 9 -9 9 5 0 10 6 25 14
32 17 17 212 57 411 85 83 12 173 25 200 29 66 11 85 12 60 2z m2622 -173 c-3
-8 -6 -5 -6 6 -1 11 2 17 5 13 3 -3 4 -12 1 -19z m-3932 -14 c-5 -2 -53 -10
-105 -18 -52 -8 -171 -28 -265 -45 -93 -18 -219 -40 -279 -50 -59 -11 -113
-24 -119 -30 -15 -15 -9 -110 15 -230 16 -83 20 -125 15 -200 -7 -119 -46
-320 -91 -471 -19 -63 -33 -116 -32 -118 2 -1 16 2 32 9 80 31 256 60 399 65
181 7 290 -11 479 -82 136 -51 176 -72 291 -154 l81 -57 -4 156 c-2 96 3 206
12 286 15 130 15 130 8 25 -4 -58 -7 -189 -7 -293 0 -103 -3 -187 -7 -187 -4
0 -43 25 -85 56 -143 103 -292 171 -471 217 -126 32 -380 31 -537 -2 -60 -13
-125 -29 -144 -37 -72 -30 -72 -32 -22 131 41 135 81 339 88 456 4 74 1 118
-15 200 -28 140 -34 225 -17 239 7 6 53 17 101 25 49 9 175 31 279 51 274 51
441 75 400 58z m132 -26 c16 -13 17 -38 1 -38 -6 0 -19 7 -29 16 -10 9 -40 19
-66 22 l-48 6 40 7 c45 7 84 2 102 -13z m1696 -82 c69 -41 68 -26 -1 17 -33
20 -65 44 -72 53 -8 8 13 -2 46 -24 32 -22 96 -61 142 -88 45 -26 82 -54 82
-61 0 -21 -13 -16 -117 43 -123 71 -183 114 -183 130 0 7 12 0 28 -15 15 -15
49 -40 75 -55z m-2522 27 c-11 -5 -11 -7 0 -14 11 -7 10 -9 -3 -9 -10 0 -18 7
-18 15 0 8 8 15 18 14 12 0 13 -2 3 -6z m-306 -50 c-4 -28 -3 -33 4 -18 17 35
12 0 -8 -56 -25 -75 -55 -131 -112 -214 -60 -86 -84 -115 -98 -115 -18 0 -12
27 13 57 76 91 175 273 191 351 9 44 17 40 10 -5z m-855 20 c0 -5 -15 -48 -34
-98 -33 -89 -103 -232 -90 -186 4 15 2 21 -5 17 -10 -6 3 31 34 99 12 26 49
127 60 163 5 13 35 17 35 5z m2151 -21 c-7 -2 -18 1 -23 6 -8 8 -4 9 13 5 13
-4 18 -8 10 -11z m-1104 -44 c-3 -8 -6 -5 -6 6 -1 11 2 17 5 13 3 -3 4 -12 1
-19z m4608 -262 c-22 -31 -36 -66 -42 -106 -7 -50 31 -101 149 -199 53 -44
105 -92 117 -107 41 -53 185 -142 233 -145 7 0 4 -4 -7 -9 -11 -5 -15 -9 -10
-10 30 -3 107 -29 89 -29 -26 -1 -146 39 -200 67 -40 20 -204 163 -330 288
-49 48 -63 69 -69 101 -7 43 8 118 29 143 7 8 16 23 20 34 5 15 9 16 21 6 14
-12 14 -15 0 -34z m-1118 -213 c-3 -10 -5 -4 -5 12 0 17 2 24 5 18 2 -7 2 -21
0 -30z m-8 -108 c1 -30 8 -61 19 -76 19 -30 263 -265 332 -320 61 -50 165
-154 212 -212 21 -27 38 -44 38 -39 0 22 -92 132 -169 202 -170 154 -382 356
-397 378 -8 12 -17 53 -19 90 l-4 67 9 -63 c5 -34 18 -75 29 -90 11 -15 92
-94 182 -177 284 -263 308 -287 345 -341 30 -43 35 -58 28 -75 -9 -19 -11 -18
-41 23 -37 51 -159 176 -223 227 -72 57 -313 291 -331 320 -11 17 -18 59 -22
126 -3 67 -2 85 3 55 5 -25 9 -67 9 -95z m481 -150 c7 -9 10 -18 7 -21 -10
-10 -47 7 -47 22 0 19 24 18 40 -1z m-5470 -127 c70 -79 100 -119 100 -134 0
-20 -30 -25 -45 -6 -65 79 -125 159 -125 167 1 12 42 -37 102 -117 23 -31 45
-55 50 -52 4 3 4 13 -1 22 -17 31 -142 167 -152 165 -5 -2 -9 2 -9 7 0 24 30
5 80 -52z m6640 22 c20 -6 21 -8 5 -8 -11 0 -29 3 -40 8 -25 11 1 11 35 0z
m-6587 -199 c30 -43 34 -61 13 -61 -14 0 -66 68 -66 88 0 24 26 11 53 -27z m7
-93 c0 -27 -47 -78 -72 -78 -28 0 -22 30 14 67 37 38 58 42 58 11z m-282 -10
c13 -13 42 -32 65 -43 75 -37 79 -80 4 -51 -51 19 -103 63 -112 94 -8 29 11
29 43 0z"/>
<path d="M4176 5581 c14 -15 192 -71 222 -70 15 0 -4 8 -43 19 -38 10 -94 27
-123 39 -58 23 -71 26 -56 12z"/>
<path d="M3828 4123 c7 -3 16 -2 19 1 4 3 -2 6 -13 5 -11 0 -14 -3 -6 -6z"/>
<path d="M5950 2251 c0 -14 49 -43 61 -35 6 3 -3 14 -20 25 -35 21 -41 23 -41
10z"/>
<path d="M6090 2135 c7 -8 17 -12 22 -9 6 4 5 10 -3 15 -22 14 -33 10 -19 -6z"/>
<path d="M5914 4358 c-11 -24 -18 -52 -16 -63 3 -15 10 -6 28 34 29 64 17 90
-12 29z"/>
<path d="M5370 3591 c-41 -12 112 -33 173 -24 l52 7 -75 12 c-85 14 -114 15
-150 5z m83 -8 c-7 -2 -21 -2 -30 0 -10 3 -4 5 12 5 17 0 24 -2 18 -5z m60
-10 c-7 -2 -21 -2 -30 0 -10 3 -4 5 12 5 17 0 24 -2 18 -5z"/>
<path d="M2747 5799 c-76 -8 -132 -37 -187 -94 -34 -35 -35 -38 -35 -118 l0
-82 45 1 c48 0 139 39 148 62 2 7 0 18 -7 25 -6 6 -11 32 -11 58 0 59 30 99
103 134 55 26 52 27 -56 14z"/>
<path d="M3282 5780 c0 -14 2 -19 5 -12 2 6 2 18 0 25 -3 6 -5 1 -5 -13z"/>
<path d="M3027 5446 c-4 -9 -9 -43 -13 -76 -6 -57 -5 -61 25 -91 19 -19 37
-29 47 -25 8 3 13 2 10 -3 -5 -7 180 -101 199 -101 5 0 0 9 -10 20 -10 11 -21
18 -24 15 -8 -4 -180 177 -197 209 -11 19 -13 17 -24 -21 -11 -36 -11 -46 3
-67 11 -16 23 -23 36 -19 11 3 24 -3 32 -15 8 -10 33 -29 57 -41 57 -29 53
-34 -8 -8 -27 11 -50 26 -50 33 0 13 -28 27 -39 19 -5 -2 -18 6 -31 20 -19 20
-21 29 -14 62 4 21 7 47 6 58 -1 15 0 16 7 7 4 -8 11 -13 15 -13 5 1 65 -64
178 -193 15 -17 27 -26 28 -20 0 6 -30 44 -66 85 -37 41 -88 98 -114 127 -36
41 -49 50 -53 38z"/>
<path d="M2536 5350 c-9 -17 -13 -30 -8 -30 9 0 35 50 29 56 -2 2 -11 -10 -21
-26z"/>
<path d="M2620 5355 c-8 -9 -8 -15 -2 -15 12 0 26 19 19 26 -2 2 -10 -2 -17
-11z"/>
<path d="M5430 5277 c0 -154 -41 -240 -151 -312 -60 -39 -90 -65 -75 -65 6 0
163 108 198 135 36 30 77 98 84 144 6 40 -26 164 -47 176 -5 4 -9 -29 -9 -78z"/>
<path d="M5847 4942 c-31 -53 -86 -142 -121 -197 -64 -101 -85 -145 -68 -145
5 0 15 12 23 27 8 15 62 108 122 207 90 150 119 208 105 206 -2 -1 -29 -45
-61 -98z"/>
<path d="M5686 4588 c7 -38 30 -78 44 -78 6 0 1 17 -10 37 -11 21 -20 43 -20
50 0 6 -4 15 -10 18 -6 4 -7 -6 -4 -27z"/>
<path d="M3901 4885 c-35 -8 -100 -34 -145 -57 -137 -72 -208 -104 -281 -129
-84 -28 -120 -51 -140 -89 -13 -25 -13 -29 6 -46 19 -17 22 -17 87 6 37 13 85
31 106 41 22 11 76 30 122 44 45 14 153 61 240 105 113 57 169 80 196 80 89 0
36 46 -62 54 -39 3 -90 -1 -129 -9z m179 -13 c3 -2 -15 -2 -40 1 -67 9 -176
-25 -315 -98 -66 -34 -152 -72 -192 -84 -45 -13 -80 -31 -95 -47 -12 -14 -31
-33 -40 -42 -10 -9 -18 -23 -19 -32 0 -9 -3 -10 -5 -3 -7 15 45 88 76 106 14
8 41 18 60 21 19 4 98 38 175 77 167 84 280 120 345 112 25 -3 47 -8 50 -11z
m-25 -19 c-25 -5 -60 -21 -105 -49 -19 -12 -45 -24 -56 -28 -12 -4 -48 -21
-80 -39 -33 -17 -102 -46 -154 -63 -52 -18 -135 -48 -184 -68 -49 -19 -85 -31
-80 -26 12 12 160 71 249 99 66 21 339 151 360 172 5 5 23 8 40 8 19 -1 23 -3
10 -6z"/>
<path d="M5871 4124 c0 -11 3 -14 6 -6 3 7 2 16 -1 19 -3 4 -6 -2 -5 -13z"/>
<path d="M2932 2305 c0 -16 2 -22 5 -12 2 9 2 23 0 30 -3 6 -5 -1 -5 -18z"/>
<path d="M3840 3286 c0 -2 7 -7 16 -10 8 -3 12 -2 9 4 -6 10 -25 14 -25 6z"/>
<path d="M8003 2763 c-14 -5 -114 -127 -132 -161 -7 -13 -10 -26 -8 -29 3 -2
11 6 18 19 18 34 118 156 132 161 7 2 10 7 7 9 -3 3 -10 3 -17 1z"/>
<path d="M8192 2574 c-140 -72 -238 -132 -229 -140 2 -3 29 11 58 31 30 20
113 65 184 101 123 62 162 85 140 83 -6 -1 -74 -34 -153 -75z"/>
<path d="M4449 2404 c-42 -43 -129 -93 -167 -95 -11 0 -13 -2 -4 -6 30 -12
129 38 183 93 29 30 49 54 43 54 -6 0 -31 -21 -55 -46z"/>
<path d="M3976 2400 c12 -5 25 -13 29 -19 7 -13 25 -15 25 -3 0 10 -45 32 -63
31 -7 0 -2 -4 9 -9z"/>
<path d="M5795 2274 c28 -21 117 -66 110 -55 -6 11 -111 71 -122 71 -5 0 1 -8
12 -16z"/>
<path d="M2881 2249 c-2 -30 -80 -173 -141 -258 -61 -84 -78 -124 -23 -54 90
114 182 286 169 317 -2 6 -5 4 -5 -5z"/>
<path d="M2014 2294 c-4 -10 -27 -68 -51 -127 -42 -107 -52 -139 -33 -105 20
34 100 241 95 246 -2 3 -8 -4 -11 -14z"/>
<path d="M7672 1990 c-7 -11 -8 -20 -3 -20 9 0 24 30 18 36 -1 2 -8 -6 -15
-16z"/>
<path d="M7641 1923 c-6 -21 -11 -47 -11 -58 1 -43 39 -102 101 -155 35 -30
105 -93 155 -141 62 -59 110 -96 156 -118 36 -17 72 -31 79 -31 8 0 -20 17
-61 37 -54 26 -100 61 -165 123 -49 47 -120 111 -156 142 -84 72 -107 119 -91
186 13 57 8 69 -7 15z"/>
<path d="M7025 1510 c3 -5 11 -10 16 -10 6 0 7 5 4 10 -3 6 -11 10 -16 10 -6
0 -7 -4 -4 -10z"/>
<path d="M1590 1236 c0 -12 45 -76 53 -76 5 0 0 14 -10 31 -18 31 -43 57 -43
45z"/>
<path d="M1591 1096 c-19 -20 -31 -39 -27 -43 9 -9 69 52 65 66 -3 7 -19 -4
-38 -23z"/>
<path d="M1332 1098 c14 -22 113 -88 131 -88 20 0 -20 34 -60 51 -23 10 -48
27 -55 38 -7 12 -17 21 -22 21 -4 0 -2 -10 6 -22z"/>
<path d="M7255 3560 c-95 -11 -243 -35 -375 -61 -132 -26 -364 -50 -424 -44
-49 4 -49 4 14 -10 36 -9 93 -15 128 -15 104 0 539 55 705 90 72 15 349 12
507 -5 156 -18 579 -101 709 -141 125 -38 380 -142 419 -171 18 -14 35 -23 38
-20 6 6 -71 67 -85 67 -5 0 -52 20 -103 46 -51 25 -133 59 -183 75 -49 17
-103 37 -120 44 -93 40 -261 84 -470 121 -132 23 -181 27 -415 29 -146 2 -301
0 -345 -5z"/>
<path d="M5920 1503 c0 -6 22 -38 48 -70 119 -145 196 -306 276 -582 48 -166
66 -301 76 -590 5 -139 12 -256 16 -260 13 -11 -5 491 -21 599 -48 320 -181
654 -333 840 -64 77 -62 75 -62 63z"/>
<path d="M8990 1345 c-36 -9 -89 -20 -118 -26 -90 -18 -53 -19 86 -1 124 15
138 15 234 -1 107 -18 236 -59 347 -109 36 -16 82 -37 101 -45 19 -8 53 -23
75 -33 22 -10 63 -28 90 -40 28 -13 73 -33 100 -45 123 -56 321 -112 635 -179
387 -82 1181 -175 1530 -178 138 -1 352 17 381 33 9 4 59 13 110 19 123 14
239 39 239 52 0 5 -12 7 -27 4 -213 -41 -432 -60 -603 -52 -217 10 -602 43
-895 77 -697 80 -1151 171 -1389 278 -25 12 -67 30 -93 42 -27 11 -61 26 -78
34 -365 163 -558 208 -725 170z"/>
<path d="M2895 1163 c-9 -26 -21 -58 -26 -71 -18 -45 -48 -198 -60 -305 -24
-205 20 -401 151 -669 33 -67 58 -114 54 -103 -3 11 -19 59 -35 107 -15 49
-38 130 -49 180 -12 51 -27 104 -35 118 -63 117 -58 549 10 739 8 24 13 46 11
48 -2 2 -12 -17 -21 -44z"/>
<path d="M1536 873 c-4 -21 -25 -112 -46 -203 -44 -189 -116 -540 -126 -617
-11 -86 10 -61 24 28 21 131 109 570 155 768 8 34 11 61 7 61 -4 0 -11 -17
-14 -37z"/>
</g>
</svg>
