<?xml version="1.0" standalone="no"?>
<!DOCTYPE svg PUBLIC "-//W3C//DTD SVG 20010904//EN"
 "http://www.w3.org/TR/2001/REC-SVG-20010904/DTD/svg10.dtd">
<svg version="1.0" xmlns="http://www.w3.org/2000/svg"
 width="1280.000000pt" height="720.000000pt" viewBox="0 0 1280.000000 720.000000"
 preserveAspectRatio="xMidYMid meet">
<metadata>
Created by potrace 1.16, written by Peter Selinger 2001-2019
</metadata>
<g transform="translate(0.000000,720.000000) scale(0.100000,-0.100000)"
fill="#000000" stroke="none">
<path d="M0 3600 l0 -3600 169 0 169 0 7 37 c3 20 46 176 95 347 82 291 101
366 115 458 3 21 20 55 41 79 57 68 58 72 43 175 -11 83 -11 97 5 137 10 27
31 56 52 72 19 14 44 45 55 68 20 38 21 52 15 162 -9 170 9 275 63 364 68 112
134 161 216 161 38 0 91 18 178 59 34 16 116 46 182 66 191 59 288 92 356 124
144 66 205 89 224 88 25 -2 43 48 91 258 76 328 86 383 75 428 l-11 42 4 -55
c3 -32 1 -47 -3 -35 -6 14 -10 0 -15 -47 -4 -37 -11 -70 -15 -73 -5 -2 -4 17
0 43 16 88 57 427 70 567 7 77 16 147 20 155 5 9 6 1 4 -20 -3 -19 -9 -84 -15
-145 -6 -60 -17 -168 -26 -240 -11 -97 -13 -140 -5 -170 10 -37 10 -35 7 25
-3 49 -2 58 4 35 8 -25 9 -22 5 18 -3 26 -1 75 3 110 l7 62 7 -45 c4 -28 5
-10 3 50 -2 72 -1 84 5 50 6 -34 8 -22 5 50 -2 59 0 78 4 50 4 -25 10 147 15
382 11 552 -2 828 -44 963 -96 306 -250 894 -274 1042 -8 50 -18 174 -22 275
-5 149 -3 203 11 293 21 136 88 372 125 445 16 30 46 91 68 135 45 93 86 145
113 145 10 0 19 -4 19 -9 0 -10 -100 -161 -107 -161 -2 0 9 24 27 54 18 32 26
57 21 61 -6 3 -31 -36 -57 -87 -25 -51 -59 -115 -73 -143 -38 -70 -98 -277
-123 -420 -17 -105 -19 -144 -14 -307 4 -104 14 -230 22 -280 22 -137 190
-779 274 -1043 25 -79 29 -116 40 -314 20 -361 4 -1014 -31 -1325 -1 -6 -5 5
-8 24 -5 24 -7 6 -8 -55 0 -61 -10 -137 -31 -235 -45 -212 -98 -436 -119 -505
-17 -55 -21 -60 -48 -61 -17 0 -91 -28 -165 -61 -74 -33 -171 -72 -215 -86
-252 -79 -322 -101 -335 -108 -71 -38 -160 -71 -203 -75 -104 -11 -148 -42
-224 -158 -59 -91 -76 -184 -67 -361 6 -109 5 -124 -15 -167 -11 -26 -36 -59
-55 -73 -18 -14 -41 -43 -51 -65 -17 -37 -17 -48 -5 -140 l13 -99 -27 -38
c-14 -21 -38 -53 -51 -72 -14 -19 -25 -47 -25 -62 0 -39 -10 -79 -111 -435
-48 -171 -91 -327 -94 -347 l-7 -37 481 0 c264 0 481 2 481 5 0 3 6 38 14 78
8 40 22 112 31 162 9 50 41 204 71 343 30 139 54 254 54 255 0 2 7 4 15 4 8 0
15 -2 15 -5 0 -2 -22 -115 -50 -250 -27 -136 -61 -314 -75 -397 -15 -82 -29
-160 -32 -172 l-5 -23 786 0 786 0 -14 33 c-7 17 -27 61 -43 97 -47 101 -81
197 -104 295 -18 78 -20 110 -16 240 6 161 20 243 69 397 21 67 35 98 45 98
16 0 16 -3 -12 -100 -22 -80 -45 -266 -45 -374 0 -102 25 -270 44 -301 7 -11
23 -60 34 -110 12 -50 34 -130 49 -180 l29 -90 1658 -3 1658 -2 -7 162 c-14
367 -36 509 -110 734 -74 224 -145 361 -262 505 -54 68 -64 89 -39 89 14 0 99
-100 154 -181 86 -128 205 -437 246 -639 26 -129 36 -238 43 -458 l6 -212 865
0 864 0 -5 22 c-29 113 -60 357 -66 512 l-6 178 -28 24 c-16 13 -34 24 -41 24
-23 0 -121 82 -174 146 -75 91 -96 140 -170 398 -5 17 -1 18 39 12 24 -3 123
-15 219 -26 220 -24 377 -58 462 -99 106 -50 253 -58 413 -22 128 29 166 33
265 28 107 -6 168 -21 420 -102 58 -19 130 -41 160 -49 87 -23 357 -121 444
-161 90 -41 166 -63 346 -100 69 -15 181 -40 250 -56 129 -31 195 -47 315 -74
113 -26 394 -63 690 -90 188 -18 1035 -38 1158 -29 l77 7 0 33 0 34 -442 0
c-386 0 -481 3 -738 25 -418 35 -657 71 -900 135 -19 5 -46 11 -60 14 -14 2
-52 11 -85 20 -33 8 -150 32 -260 52 -164 30 -231 47 -375 99 -96 34 -242 84
-325 110 -82 26 -195 62 -250 80 -55 18 -116 36 -135 40 -19 3 -60 16 -90 27
-78 30 -302 37 -415 13 -255 -53 -353 -56 -451 -11 -31 14 -63 26 -70 26 -8 0
-19 11 -23 24 -12 29 -63 38 -246 42 -116 2 -355 27 -375 39 -4 2 -26 7 -50
10 -23 3 -47 8 -52 11 -6 4 -25 8 -42 9 -48 3 -241 63 -346 108 -150 65 -233
112 -351 201 -60 45 -164 115 -232 156 -67 41 -146 91 -175 112 -30 22 -58 36
-65 32 -6 -4 -9 -3 -4 1 9 10 -54 54 -146 101 -80 41 -106 41 -53 0 21 -15 44
-25 52 -22 8 3 13 2 10 -3 -7 -11 22 -23 36 -14 7 3 8 1 4 -5 -4 -7 12 -21 41
-36 26 -14 43 -25 36 -26 -24 0 -195 100 -242 142 -26 24 -77 60 -112 80 -35
21 -58 38 -51 38 7 0 22 -5 32 -10 11 -6 21 -6 24 -1 11 17 -316 204 -659 379
-102 52 -273 132 -282 132 -2 0 -56 23 -119 50 -63 28 -169 70 -234 95 -132
49 -160 62 -207 101 -18 15 -33 22 -33 16 0 -6 8 -16 17 -21 10 -6 14 -11 10
-11 -5 0 -29 18 -54 40 -25 22 -60 44 -77 49 -17 5 -40 12 -50 17 -14 5 -17 4
-12 -4 5 -9 0 -9 -19 -2 -41 16 -43 11 -5 -10 41 -23 54 -25 44 -7 -5 9 -4 9
6 0 29 -27 -3 -25 -68 3 -41 19 -68 37 -70 48 -3 16 -1 15 17 -3 25 -25 40
-27 37 -4 -2 9 -18 22 -37 29 -19 6 -72 32 -119 57 -47 24 -95 47 -107 51 -56
18 -199 109 -260 167 -38 36 -101 91 -139 122 -73 58 -115 117 -84 117 5 0 9
-3 9 -7 -1 -5 -1 -13 0 -19 2 -18 289 -266 340 -294 99 -55 132 -71 286 -145
88 -41 173 -82 188 -90 16 -8 37 -15 46 -15 10 0 36 -13 58 -29 23 -16 44 -27
47 -24 3 3 29 -12 58 -34 35 -27 100 -58 193 -93 77 -29 165 -64 195 -78 30
-13 89 -38 130 -54 188 -75 647 -313 885 -459 137 -84 162 -104 150 -113 -14
-10 -12 -15 17 -36 18 -14 39 -23 46 -22 19 5 167 -73 262 -138 47 -32 142
-93 211 -135 69 -42 179 -117 244 -166 83 -61 163 -110 260 -158 142 -69 359
-144 425 -146 19 0 45 -6 56 -12 12 -7 24 -10 27 -6 3 3 21 0 39 -6 57 -20
257 -43 403 -46 77 -1 152 -5 168 -9 15 -3 38 -8 51 -11 14 -3 26 -12 28 -21
2 -8 35 -29 73 -46 65 -29 78 -32 180 -31 67 0 135 6 175 16 131 33 189 39
321 35 111 -3 149 -9 224 -32 50 -15 149 -46 220 -68 171 -53 515 -167 635
-211 58 -21 164 -47 270 -66 159 -28 339 -67 430 -91 88 -24 215 -51 306 -65
214 -35 310 -46 594 -70 257 -22 352 -25 738 -25 l442 0 0 1760 0 1760 -67
-36 c-38 -20 -75 -43 -84 -50 -8 -8 -19 -14 -23 -14 -4 0 -40 -23 -80 -50 -40
-28 -76 -50 -80 -50 -19 0 -308 -143 -351 -173 -16 -12 -73 -58 -125 -102
l-95 -80 -275 5 c-556 10 -818 7 -910 -12 -47 -10 -119 -23 -160 -28 -138 -19
-463 -100 -620 -154 -263 -92 -410 -145 -466 -171 -30 -14 -56 -25 -58 -25 -3
0 -51 -27 -108 -60 -116 -68 -194 -100 -240 -100 -29 0 -187 60 -214 81 -6 5
-40 18 -76 29 -72 22 -208 75 -297 116 -144 67 -268 99 -491 128 -358 47 -522
50 -1120 18 -147 -8 -525 3 -590 17 -43 10 -42 10 15 4 119 -11 453 -18 575
-11 600 32 748 30 1120 -17 207 -27 346 -64 540 -148 97 -41 205 -84 240 -95
36 -12 110 -41 165 -66 59 -27 115 -46 136 -46 23 0 69 18 135 52 278 144 309
157 734 304 157 54 483 135 620 154 41 5 113 18 160 28 98 20 442 23 901 9
l265 -9 115 96 c100 85 135 107 286 181 95 47 175 85 179 85 4 0 40 22 80 50
40 27 76 50 78 50 3 0 29 15 58 33 29 18 70 41 91 51 25 11 37 23 37 38 0 19
-5 20 -57 16 -82 -6 -184 -59 -328 -168 -66 -50 -156 -113 -200 -140 -44 -27
-123 -87 -175 -134 -78 -71 -102 -87 -137 -92 -24 -3 -222 -1 -442 6 -219 7
-449 10 -512 8 -149 -8 -451 -58 -714 -120 -116 -27 -411 -119 -490 -153 -16
-7 -88 -34 -160 -60 -138 -50 -267 -111 -319 -150 -17 -12 -74 -44 -126 -70
l-95 -48 -80 28 c-44 16 -109 47 -145 70 -117 75 -187 115 -246 141 -33 14
-87 39 -121 55 -69 32 -222 79 -259 79 -13 0 -24 -4 -24 -10 0 -5 -9 -10 -21
-10 -11 0 -17 5 -14 10 4 6 10 8 15 5 5 -3 11 -1 15 5 3 5 3 10 -2 10 -4 0
-75 10 -158 21 -94 13 -235 22 -377 26 -231 6 -319 0 -693 -45 -159 -18 -579
-21 -655 -4 -38 9 -32 9 35 4 141 -12 474 -6 620 11 388 45 463 50 693 44 329
-8 625 -52 777 -114 46 -19 95 -40 178 -77 61 -27 205 -111 269 -156 20 -15
71 -39 112 -54 l76 -28 92 48 c51 26 113 61 138 78 68 46 163 88 380 167 447
163 585 200 1030 275 218 36 297 39 785 24 502 -15 457 -22 579 95 43 41 114
97 159 124 45 27 136 90 201 140 156 118 265 171 352 171 l44 0 0 1500 0 1500
-3620 0 -3620 0 0 -43 c0 -24 9 -70 21 -103 64 -184 107 -427 129 -729 6 -88
20 -239 30 -335 20 -183 24 -335 14 -483 -8 -117 -2 -142 51 -207 60 -73 102
-162 167 -353 43 -128 50 -159 39 -166 -9 -6 -12 -20 -9 -42 6 -42 -6 -100
-36 -169 -14 -30 -41 -127 -61 -215 -56 -243 -54 -226 -34 -291 10 -33 32
-117 50 -189 63 -264 104 -379 139 -388 12 -3 19 -10 16 -15 -20 -32 -688 33
-916 90 -107 26 -220 74 -236 99 -4 7 -3 9 4 5 5 -3 12 -2 14 4 2 6 20 2 43
-9 43 -21 173 -42 405 -66 80 -8 162 -17 182 -21 l37 -6 25 84 c45 150 95 360
117 498 15 94 29 146 45 171 37 59 83 177 109 278 13 53 31 116 40 141 12 33
15 62 10 110 -8 76 -63 242 -106 319 -17 29 -28 55 -25 58 8 8 66 -114 101
-216 38 -111 52 -212 35 -256 -6 -16 -27 -88 -46 -159 -19 -71 -53 -168 -76
-215 -23 -47 -41 -97 -40 -111 1 -23 1 -23 -8 -5 -8 19 -9 19 -9 -2 -1 -12 2
-29 6 -38 4 -12 16 10 39 71 18 49 33 85 33 79 0 -5 -13 -48 -29 -95 -16 -47
-30 -96 -30 -110 0 -19 -3 -21 -9 -11 -5 8 -7 20 -4 27 2 7 0 20 -5 29 -6 12
-14 -13 -26 -91 -17 -114 -55 -274 -108 -457 l-31 -109 -41 6 c-23 3 -106 13
-186 21 -207 21 -360 45 -399 61 -56 23 -47 8 11 -18 120 -55 203 -76 244 -59
27 10 26 11 -16 7 -34 -4 -41 -2 -27 5 13 8 83 2 245 -20 202 -27 477 -60 521
-62 12 0 11 -2 -4 -8 -11 -5 -31 -4 -45 1 -14 5 -66 10 -116 11 -52 1 -87 6
-80 10 6 5 -25 7 -69 4 -53 -3 -70 -2 -50 4 21 6 9 7 -40 4 -46 -2 -58 -1 -35
4 31 6 28 8 -35 14 -38 4 -88 2 -110 -3 -35 -8 -30 -9 30 -5 43 2 57 1 35 -4
-29 -5 -19 -9 65 -19 161 -20 437 -40 476 -35 l37 5 -33 91 c-18 51 -35 99
-38 107 -3 8 -15 60 -27 115 -12 55 -35 147 -52 205 -35 122 -36 141 -9 241
11 41 32 126 45 189 14 64 37 142 52 174 20 45 27 74 26 120 -1 33 4 63 10 67
13 8 -80 286 -128 380 -18 37 -51 88 -73 113 -54 62 -64 101 -57 216 9 169 6
311 -14 490 -10 96 -24 247 -30 335 -22 303 -63 535 -130 729 -11 33 -20 79
-20 103 l0 43 -2775 0 -2775 0 0 -3600z m4719 3576 c-2 -2 -56 -5 -119 -8 -63
-3 -97 -2 -75 2 42 7 201 13 194 6z m-32 -23 c-20 -2 -52 -2 -70 0 -17 2 0 4
38 4 39 0 53 -2 32 -4z m-129 -10 c-16 -2 -40 -2 -55 0 -16 2 -3 4 27 4 30 0
43 -2 28 -4z m-1888 -343 c0 -23 117 -199 170 -255 31 -33 74 -82 95 -110 107
-134 322 -356 339 -349 7 3 43 -23 82 -57 86 -77 144 -120 259 -191 187 -117
317 -169 588 -239 110 -28 124 -30 195 -20 42 5 79 7 82 5 2 -3 21 -87 42
-187 21 -100 44 -211 53 -247 37 -161 -5 -384 -103 -553 -48 -81 -48 -82 -58
-66 -4 7 -3 10 4 5 13 -8 26 29 16 46 -4 7 -3 10 1 5 12 -10 62 72 90 148 52
137 67 296 40 415 -9 36 -31 142 -50 235 -20 94 -37 175 -39 181 -3 7 -27 8
-79 1 -67 -8 -85 -6 -194 22 -161 41 -352 105 -427 143 -80 41 -309 183 -326
203 -7 8 -16 15 -21 15 -8 0 -35 23 -100 87 -20 20 -39 31 -42 26 -7 -11 104
-107 236 -206 161 -120 528 -337 568 -337 8 0 -35 27 -96 58 -117 62 -265 150
-265 158 0 3 3 3 8 1 4 -2 62 -37 130 -76 207 -122 357 -181 456 -181 34 0 46
-4 46 -15 0 -43 -216 7 -380 89 -164 82 -430 252 -569 364 -122 97 -382 364
-496 507 -21 28 -64 77 -95 110 -53 56 -170 232 -170 255 0 16 -9 12 -54 -25
-47 -38 -86 -45 -107 -18 -19 22 -66 41 -92 36 -12 -3 -44 -34 -72 -69 -41
-53 -54 -64 -72 -59 -25 6 -33 -8 -93 -160 -17 -44 -35 -88 -40 -97 -16 -29
-33 -289 -27 -408 7 -127 33 -264 73 -379 40 -113 111 -286 155 -374 21 -42
50 -117 65 -165 86 -285 218 -524 380 -690 46 -47 84 -91 84 -98 0 -7 5 -16
10 -19 6 -3 10 -14 10 -23 0 -13 -2 -13 -15 4 -8 10 -15 24 -15 30 0 6 -38 49
-84 97 -90 92 -198 245 -241 342 -15 33 -35 79 -46 102 -10 24 -19 45 -19 48
0 3 -9 24 -19 48 -11 23 -32 83 -47 132 -15 50 -41 119 -59 155 -18 36 -45 94
-60 130 -15 36 -32 74 -37 84 -6 11 -14 31 -18 45 -5 14 -24 70 -44 124 -74
207 -98 410 -77 657 12 146 17 162 85 320 41 95 47 105 70 103 19 -1 35 12 73
62 51 67 73 78 129 63 17 -4 39 -17 49 -28 25 -28 44 -25 90 15 39 33 75 45
75 25z m2625 -280 c5 -8 11 -8 20 0 9 8 15 8 20 0 3 -5 -1 -10 -9 -10 -9 0
-16 -2 -16 -3 0 -2 23 -41 50 -87 52 -86 65 -122 81 -219 13 -79 12 -251 -2
-251 -6 0 -28 15 -49 32 -21 18 -47 33 -56 33 -15 0 -27 34 -69 190 -28 105
-59 213 -68 242 -23 69 -22 71 16 76 62 7 76 7 82 -3z m78 -51 c-8 -8 -13 -7
-18 2 -5 8 -4 10 3 5 15 -9 16 6 2 22 -5 7 -2 5 7 -3 12 -11 14 -18 6 -26z
m27 -24 c0 -8 -4 -15 -9 -15 -13 0 -22 16 -14 24 11 11 23 6 23 -9z m70 -94
c0 -5 2 -24 5 -42 4 -29 3 -30 -4 -9 l-9 25 -2 -25 -2 -25 -8 25 c-13 40 -11
60 5 60 8 0 15 -4 15 -9z m-2710 -281 c11 -11 20 -26 20 -33 0 -8 54 -67 120
-132 l120 -119 0 -60 c0 -82 -23 -182 -55 -246 -14 -29 -28 -50 -31 -48 -2 3
7 25 21 51 30 53 55 160 55 237 l0 55 -106 113 c-58 61 -112 112 -120 112 -8
0 -35 -15 -61 -34 -69 -48 -107 -66 -145 -66 -19 0 -58 -15 -93 -35 -33 -19
-88 -49 -123 -66 -43 -22 -74 -46 -100 -80 -39 -51 -82 -67 -82 -30 0 41 94
122 200 171 36 17 73 35 82 40 10 6 23 10 29 10 21 0 148 90 191 134 23 25 46
46 50 46 5 0 17 -9 28 -20z m184 -172 l126 -133 0 -73 c0 -66 -4 -79 -41 -150
-23 -42 -53 -92 -66 -110 -24 -33 -25 -34 -6 -55 17 -21 160 -181 227 -256 25
-27 27 -31 9 -22 -12 6 -24 15 -27 20 -4 5 -14 8 -24 6 -9 -2 -19 -4 -22 -4
-3 -1 18 -12 45 -25 28 -14 47 -25 44 -25 -9 -2 -131 48 -153 62 -12 7 -42 21
-68 31 -62 23 -98 66 -98 116 0 63 22 142 37 135 8 -3 20 7 29 23 8 15 35 63
60 107 43 76 45 83 42 150 -2 52 -6 69 -16 67 -8 -1 -11 2 -7 9 4 6 -45 63
-117 135 -68 68 -118 124 -112 124 7 0 69 -60 138 -132z m1636 46 c0 -17 -22
-14 -28 4 -2 7 3 12 12 12 9 0 16 -7 16 -16z m855 -25 c4 -11 4 -23 1 -26 -8
-9 -36 17 -36 33 0 22 28 16 35 -7z m-821 -88 c25 -50 46 -95 46 -102 0 -20
109 -287 156 -382 24 -49 57 -108 72 -130 16 -23 40 -59 55 -80 49 -71 45
-119 -27 -381 -13 -48 -14 -61 -4 -68 9 -5 8 -8 -6 -8 -23 0 -22 4 39 230 33
121 29 164 -23 234 -54 72 -93 139 -130 226 -19 41 -37 82 -41 90 -15 28 -79
195 -93 240 -8 25 -33 83 -57 129 l-43 85 -18 -25 c-11 -13 -24 -43 -31 -67
-22 -79 3 -315 51 -477 39 -131 54 -230 54 -360 1 -139 -10 -203 -50 -285 -13
-28 -24 -53 -24 -58 0 -9 -55 -98 -106 -170 -21 -29 -67 -79 -103 -111 -37
-32 -84 -75 -106 -95 -54 -50 -131 -88 -285 -143 -8 -3 -29 -6 -46 -7 -17 -2
-45 -10 -64 -19 -31 -16 -35 -16 -52 0 -22 19 -35 12 -15 -9 13 -12 9 -16 -29
-30 -24 -8 -42 -12 -39 -8 2 4 -24 10 -58 13 -94 9 -172 33 -272 82 -49 24
-114 53 -142 64 -29 11 -83 36 -120 55 -38 18 -82 37 -100 40 -102 22 -97
-101 9 -214 51 -54 98 -114 98 -125 0 -5 -14 7 -30 27 -17 20 -49 56 -71 80
-61 66 -89 119 -89 172 0 37 4 48 24 61 34 23 82 12 196 -45 52 -26 106 -51
120 -55 14 -4 64 -27 112 -51 95 -48 167 -70 274 -83 77 -9 104 -5 104 15 0
11 -20 14 -89 14 -100 0 -192 23 -269 69 -61 35 -133 68 -168 77 -15 4 -63 24
-105 46 -90 45 -151 50 -192 18 -28 -23 -45 -27 -25 -7 50 50 118 50 224 -1
43 -22 97 -45 119 -52 22 -7 87 -37 145 -66 135 -68 177 -78 298 -72 90 5 129
13 272 56 84 26 189 103 327 239 53 52 62 67 57 87 -6 26 28 76 52 76 7 0 14
5 16 12 3 7 7 5 11 -6 4 -9 3 -15 -2 -11 -13 7 -71 -43 -71 -62 0 -11 6 -8 20
8 10 13 19 20 20 16 0 -16 -68 -113 -103 -146 -20 -19 -34 -38 -31 -42 3 -5
-1 -6 -9 -4 -7 3 -44 -21 -83 -56 -83 -73 -131 -102 -204 -122 -30 -9 -83 -23
-117 -33 -34 -9 -60 -20 -58 -24 2 -4 30 1 62 11 32 10 92 28 133 40 41 12 90
31 110 43 19 12 46 27 60 33 25 11 135 108 220 193 46 46 160 211 160 231 0 6
6 23 14 37 53 99 72 208 61 352 -7 97 -34 246 -54 290 -9 22 -28 119 -52 265
-12 77 -10 206 4 245 19 54 36 80 52 80 7 0 34 -40 59 -89z m704 24 c6 -58 34
-141 77 -222 23 -45 44 -81 46 -80 2 1 3 0 2 -2 -1 -2 4 -19 12 -38 24 -57 17
-63 -8 -8 -14 30 -26 45 -30 37 -4 -6 2 -30 14 -53 38 -75 68 -165 89 -268 19
-94 19 -106 6 -165 -9 -35 -34 -99 -57 -142 -30 -56 -47 -104 -60 -173 -23
-119 -23 -153 0 -81 9 30 29 73 42 95 14 22 36 69 49 105 13 36 33 85 46 110
48 99 50 117 15 226 -42 133 -47 152 -77 279 -28 122 -52 195 -65 195 -11 0
-59 94 -59 115 0 20 26 19 34 -1 11 -30 5 -39 -9 -14 -17 29 -19 22 -5 -15 5
-14 14 -23 20 -20 5 3 7 0 5 -7 -3 -8 2 -22 10 -33 16 -19 16 -18 9 15 -13 65
-10 104 8 108 10 2 19 -5 23 -17 8 -26 42 -28 49 -3 3 12 4 11 3 -4 -1 -11 3
-27 9 -35 46 -58 211 -392 237 -479 13 -47 35 -119 47 -162 l23 -76 -58 -94
c-115 -184 -195 -317 -195 -325 0 -4 8 -18 18 -31 l17 -22 20 37 c10 21 27 49
36 63 25 38 124 238 145 295 10 28 25 55 32 61 13 9 12 20 -6 75 -44 140 -53
171 -49 175 2 3 12 -22 21 -53 10 -32 26 -85 37 -117 22 -68 24 -97 8 -93 -6
1 -20 -23 -32 -53 -47 -122 -195 -400 -213 -400 -14 0 -44 44 -44 64 0 17 78
153 150 261 25 39 59 91 74 118 l27 47 -22 73 c-12 39 -32 107 -45 149 -22 73
-74 182 -164 347 -82 150 -83 151 -106 151 -14 0 -25 8 -29 21 -5 15 -10 18
-18 10 -11 -11 0 -81 28 -171 8 -25 30 -112 50 -194 20 -82 50 -189 66 -239
16 -49 29 -96 29 -105 0 -10 -25 -77 -55 -151 -30 -74 -55 -138 -55 -143 0 -5
-12 -27 -27 -50 -14 -24 -34 -65 -44 -92 -19 -54 -39 -72 -39 -34 0 13 9 70
20 127 15 78 31 123 64 185 60 112 70 164 50 266 -21 114 -47 190 -101 294
-89 172 -113 226 -117 263 -2 21 -1 28 1 15 2 -12 8 -20 13 -17 4 3 6 -3 3
-14 -6 -23 84 -204 97 -196 6 3 10 11 10 16 0 6 -5 7 -12 3 -7 -4 -8 -3 -4 4
8 14 -28 84 -39 74 -5 -4 -5 -2 -1 5 8 14 -14 64 -25 57 -5 -3 -6 3 -2 12 5
13 3 15 -7 9 -9 -5 -11 -4 -6 4 4 6 2 37 -4 69 -18 85 -17 84 -37 73 -10 -5
-26 -12 -35 -15 -30 -9 -52 -56 -52 -110 0 -52 39 -153 84 -217 33 -46 89
-162 106 -221 9 -29 19 -57 24 -63 43 -58 -18 -249 -102 -318 -24 -20 -74 -50
-112 -67 -48 -23 -65 -35 -58 -42 8 -8 16 -7 29 3 17 13 17 13 0 -8 -10 -11
-51 -31 -90 -44 -95 -29 -98 -32 -90 -84 4 -36 2 -46 -18 -66 l-24 -24 -6 30
c-11 52 -8 72 5 30 12 -39 13 -39 24 -18 7 12 11 42 10 65 l-3 42 65 24 c36
13 74 26 84 29 18 6 18 7 2 19 -16 11 -15 14 16 30 18 10 50 26 72 36 21 10
56 32 78 49 30 25 36 34 26 41 -10 7 -8 8 5 4 11 -4 20 0 24 12 3 9 14 28 23
42 34 52 54 156 36 191 -6 13 -18 46 -26 73 -15 53 -65 156 -124 251 -20 33
-46 91 -58 128 -17 59 -19 74 -8 115 13 53 35 82 61 82 10 0 21 5 24 11 13 20
40 4 43 -26z m192 -20 c0 -8 -6 -15 -14 -15 -17 0 -28 14 -19 24 12 12 33 6
33 -9z m-2699 -46 c66 -17 79 -67 15 -55 l-31 5 27 -14 c44 -24 53 -51 32 -91
-10 -19 -22 -34 -27 -34 -4 0 -37 -25 -72 -55 -36 -30 -97 -71 -137 -90 -40
-20 -77 -40 -83 -44 -10 -8 -197 -71 -211 -71 -12 0 7 224 22 255 26 54 125
156 173 178 26 11 82 23 126 27 82 7 103 6 166 -11z m-316 1 c-3 -5 -14 -10
-23 -10 -15 0 -15 2 -2 10 20 13 33 13 25 0z m625 -57 c0 -24 -22 -93 -30 -93
-9 0 -5 94 5 109 8 15 25 4 25 -16z m58 -20 l-1 -38 -5 35 -5 35 -7 -35 -7
-35 -2 38 c-1 27 3 37 14 37 11 0 15 -10 13 -37z m1054 -271 c26 -7 66 -13 90
-13 34 -2 37 -3 13 -7 -50 -7 -165 19 -165 37 0 10 3 12 8 5 4 -6 28 -16 54
-22z m1116 -135 c78 -166 43 -269 -128 -376 -30 -19 -68 -45 -83 -58 -30 -24
-57 -30 -57 -12 0 11 41 48 96 85 45 31 77 68 106 124 20 40 23 59 23 163 0
130 9 146 43 74z m-2913 -9 c-5 -21 -5 -21 9 2 20 32 20 22 1 -24 -8 -20 -22
-36 -30 -36 -19 0 -19 9 1 48 18 37 28 42 19 10z m95 -2 c0 -25 -12 -46 -26
-46 -16 0 -16 5 -8 38 7 24 34 31 34 8z m1473 -457 c35 -9 57 -32 44 -45 -3
-3 -25 -8 -49 -11 -25 -4 -102 -37 -188 -81 -80 -41 -192 -92 -250 -112 -58
-21 -149 -55 -203 -76 -87 -33 -100 -36 -122 -24 -29 15 -31 35 -10 77 16 33
47 50 145 85 35 13 101 42 145 66 257 136 342 158 488 121z m1087 -19 c-8 -5
-19 -10 -25 -10 -5 0 -3 5 5 10 8 5 20 10 25 10 6 0 3 -5 -5 -10z m-2193 -577
c-3 -10 -5 -4 -5 12 0 17 2 24 5 18 2 -7 2 -21 0 -30z m244 -103 c6 0 7 5 3
12 -4 7 -3 8 4 4 19 -11 14 -26 -8 -26 -13 0 -20 6 -19 18 0 10 3 12 6 5 2 -7
9 -13 14 -13z m2659 -17 c-2 -24 -28 -115 -29 -98 -1 11 -4 31 -6 45 -5 22 -4
23 5 5 8 -16 9 -12 5 18 -5 29 -3 37 10 37 8 0 15 -3 15 -7z m-2265 -64 c-17
-8 -15 -9 10 -6 17 2 44 1 60 -3 l30 -8 -30 -2 c-30 -2 -30 -2 -5 -11 l25 -9
-25 4 c-14 3 -47 11 -75 19 -42 12 -46 15 -25 19 42 9 57 7 35 -3z m2302 -4
c0 -8 -4 -15 -9 -15 -4 0 -8 7 -8 15 0 8 4 15 8 15 5 0 9 -7 9 -15z m-2703
-69 c28 -41 54 -72 59 -69 6 3 7 1 4 -4 -4 -6 3 -22 14 -37 14 -18 16 -24 5
-20 -8 3 -43 48 -78 99 -34 51 -66 91 -70 89 -5 -3 -8 0 -8 5 0 29 30 4 74
-63z m2627 -9 c-10 -9 -11 -8 -5 6 3 10 9 15 12 12 3 -3 0 -11 -7 -18z m-2494
-129 c91 -141 164 -220 326 -354 132 -111 173 -151 105 -102 -152 107 -338
287 -408 395 -20 31 -39 49 -47 46 -7 -3 -13 -8 -13 -12 1 -11 35 -48 50 -54
10 -3 7 -6 -7 -6 -13 -1 -23 5 -23 12 0 8 -11 24 -25 37 -25 24 -36 52 -12 32
7 -6 18 -8 24 -4 14 9 -31 92 -48 92 -6 0 -7 5 -4 10 3 6 8 10 10 10 3 0 35
-46 72 -102z m-394 -210 c-3 -133 0 -479 7 -768 12 -526 9 -655 -20 -684 -8
-8 -9 -4 -1 17 6 16 10 45 10 65 l-2 37 -6 -40 c-3 -22 -6 37 -6 130 0 94 -4
402 -9 685 -5 297 -5 574 0 655 8 132 9 136 15 70 l5 -70 2 73 c1 39 4 72 7
72 2 0 1 -109 -2 -242z m669 -144 c45 -39 102 -83 126 -99 49 -32 51 -46 2
-17 -35 22 -280 230 -280 239 0 5 14 -6 152 -123z m1419 91 c8 19 9 19 6 1 -3
-29 -27 -33 -26 -4 1 20 2 21 7 3 l5 -20 8 20z m222 8 c-7 -2 -21 -2 -30 0
-10 3 -4 5 12 5 17 0 24 -2 18 -5z m-1642 -174 c53 -49 208 -165 235 -176 17
-6 18 -33 2 -33 -19 1 -56 30 -38 30 8 0 -10 16 -40 37 -73 48 -210 163 -210
176 0 6 -3 8 -6 4 -7 -7 38 -142 78 -229 l30 -66 42 17 c42 18 105 36 96 28
-9 -8 -141 -59 -144 -55 -10 11 -60 131 -86 206 -45 132 -41 138 41 61z m2676
45 c-3 -3 -12 -4 -19 -1 -8 3 -5 6 6 6 11 1 17 -2 13 -5z m0 -20 c-3 -3 -12
-4 -19 -1 -8 3 -5 6 6 6 11 1 17 -2 13 -5z m-2552 -186 c31 -21 52 -38 45 -38
-32 0 -170 123 -170 151 0 7 15 -8 34 -31 19 -24 60 -61 91 -82z m-44 55 c13
-16 12 -17 -3 -4 -17 13 -22 21 -14 21 2 0 10 -8 17 -17z m99 -70 c0 -7 -61
31 -73 46 -7 8 7 2 31 -14 23 -15 42 -30 42 -32z m371 -194 c152 -75 276 -129
299 -129 18 0 10 20 -7 21 -10 0 -13 3 -7 5 6 2 73 -25 150 -61 76 -37 157
-75 179 -85 22 -10 92 -43 155 -73 63 -29 130 -59 149 -67 19 -8 30 -15 24
-17 -11 -4 -48 12 -263 114 -63 30 -137 64 -165 76 -27 11 -83 37 -122 57 -43
22 -74 32 -76 26 -6 -19 -137 30 -328 125 l-183 89 -75 -6 c-47 -5 -98 -17
-135 -33 l-58 -26 6 -66 c7 -72 -10 -173 -40 -232 -9 -18 -82 -96 -163 -175
l-146 -143 40 5 c143 20 386 37 479 34 61 -3 101 -1 90 3 -10 4 -14 8 -7 8 7
1 36 -10 65 -23 29 -13 70 -30 91 -37 40 -14 50 -39 15 -39 -12 0 -54 16 -95
36 -73 36 -73 36 -120 21 -66 -20 -100 -26 -239 -37 -65 -5 -177 -14 -248 -21
l-128 -12 -35 -38 c-24 -27 -44 -39 -62 -39 -15 0 -35 -6 -45 -13 -17 -13 -18
-26 -11 -198 16 -371 6 -495 -55 -717 -26 -93 -26 -94 8 -81 62 24 223 47 337
48 266 3 693 -116 826 -229 18 -17 39 -30 46 -30 9 0 12 36 12 133 1 176 20
367 38 367 10 0 13 -50 13 -254 0 -140 3 -262 6 -270 6 -14 10 -14 39 4 17 11
34 17 38 14 3 -3 30 14 60 38 146 115 334 229 497 301 19 9 96 39 170 67 74
28 144 57 155 64 26 17 98 31 238 47 59 7 107 16 107 20 0 4 -21 31 -47 61
-27 29 -57 63 -67 76 -16 18 -20 46 -27 165 -4 78 -15 224 -25 325 l-18 183
-86 46 c-47 25 -103 54 -125 65 -22 10 -47 23 -55 29 -56 36 -75 39 -166 23
-49 -9 -116 -24 -149 -34 -33 -10 -120 -29 -194 -42 l-134 -23 -47 -47 c-43
-43 -99 -70 -140 -67 -8 1 -5 4 8 7 13 4 22 10 20 14 -6 13 77 90 117 108 22
9 63 21 90 25 28 4 55 11 60 15 10 8 218 52 308 65 100 14 113 15 92 5 -15 -8
-10 -9 23 -5 48 6 49 5 247 -99 l139 -73 18 -169 c9 -93 20 -227 23 -299 9
-187 7 -181 85 -270 54 -62 67 -82 57 -91 -6 -6 -75 -19 -152 -28 -93 -11
-153 -24 -179 -37 -21 -11 -99 -42 -174 -70 -246 -91 -462 -211 -659 -367 -30
-24 -60 -41 -66 -39 -7 2 -23 -4 -36 -14 -31 -25 -47 -24 -55 4 -3 12 -6 135
-7 272 -2 249 -2 250 -15 155 -7 -52 -13 -166 -14 -253 -1 -156 -1 -157 -24
-157 -12 0 -31 8 -42 18 -44 41 -114 81 -199 115 -121 47 -173 62 -355 97
-123 24 -180 30 -275 29 -115 -1 -275 -24 -339 -48 -16 -7 -31 -9 -34 -6 -3 3
6 54 21 113 52 208 62 278 58 427 -1 77 -3 217 -4 310 l-2 170 42 10 c25 6 58
25 80 47 42 40 36 39 418 68 136 11 225 27 225 41 0 18 -294 2 -501 -27 -28
-4 -49 -2 -53 4 -3 6 57 71 135 145 77 74 151 151 165 170 36 53 56 154 48
240 l-6 72 53 24 c59 26 151 41 215 35 26 -2 102 -33 205 -85z m191 -30 c16
-12 27 -24 24 -27 -3 -3 0 -12 7 -20 7 -10 -5 -6 -31 8 -24 14 -48 30 -54 38
-7 7 5 4 26 -8 20 -13 39 -20 42 -17 3 3 -8 13 -25 22 -17 8 -31 18 -31 20 0
10 12 5 42 -16z m4628 -44 c0 -14 -74 -75 -91 -75 -5 0 -85 -36 -178 -80 -93
-44 -176 -80 -185 -80 -37 0 -11 27 57 59 40 19 111 53 158 75 47 23 101 47
120 55 19 8 47 25 62 38 33 26 57 30 57 8z m-970 -227 c0 -6 -13 -23 -28 -37
-46 -42 -96 -112 -122 -168 -13 -29 -25 -51 -28 -49 -2 2 6 26 17 51 12 26 21
50 21 54 -1 14 -45 -78 -56 -119 -10 -34 -13 -38 -13 -19 -1 15 19 67 44 115
62 123 165 230 165 172z m370 -78 c-21 -7 -22 -8 -5 -9 17 -1 15 -4 -9 -16
-36 -19 -42 -19 -26 0 17 21 8 19 -35 -6 -39 -23 -42 -38 -3 -19 22 11 22 11
3 -5 -11 -9 -60 -37 -110 -62 -49 -25 -120 -65 -157 -89 -38 -24 -68 -41 -68
-37 0 3 8 12 18 19 9 7 12 14 5 14 -6 0 -19 -10 -27 -22 -12 -17 -16 -19 -16
-6 0 19 120 98 240 157 47 23 105 53 129 66 24 14 54 25 65 24 18 -1 18 -2 -4
-9z m-6257 -40 c3 -12 1 -18 -5 -14 -7 5 -9 -2 -6 -19 3 -15 2 -25 -2 -22 -3
2 -15 -32 -25 -76 -10 -44 -22 -82 -28 -86 -7 -4 -8 0 -3 12 6 16 56 213 56
221 0 12 8 1 13 -16z m5704 -172 c-3 -8 -6 -5 -6 6 -1 11 2 17 5 13 3 -3 4
-12 1 -19z m-3427 -58 c-14 -4 -45 -8 -70 -7 l-45 0 50 7 c73 10 96 10 65 0z
m-37 -27 c-13 -2 -33 -2 -45 0 -13 2 -3 4 22 4 25 0 35 -2 23 -4z m1457 -120
c83 -45 100 -57 100 -70 0 -18 -14 -16 -54 8 -42 24 -44 29 -13 22 21 -4 21
-3 -3 11 -29 18 -44 20 -35 6 12 -20 -12 -9 -90 40 -106 66 -116 75 -110 92 5
12 21 5 78 -32 40 -26 97 -61 127 -77z m-3815 -105 c-36 -105 -84 -213 -91
-205 -3 3 4 23 15 46 12 22 21 46 21 53 0 7 -13 -14 -29 -47 -37 -75 -40 -64
-5 13 21 47 52 125 90 231 3 11 7 12 16 3 9 -9 5 -32 -17 -94z m869 -36 c-15
-37 -55 -110 -90 -162 -79 -118 -88 -130 -103 -130 -16 0 -14 35 3 50 48 39
194 306 197 359 0 9 5 1 10 -17 8 -26 5 -45 -17 -100z m33 106 c-3 -8 -6 -5
-6 6 -1 11 2 17 5 13 3 -3 4 -12 1 -19z m4784 -227 c5 8 9 9 9 3 0 -6 -8 -18
-17 -25 -9 -8 -14 -9 -10 -2 4 6 2 13 -5 15 -7 3 -8 9 -3 19 8 11 10 11 13 -5
3 -15 6 -16 13 -5z m-38 -43 c-4 -19 -3 -21 7 -8 10 13 11 13 7 -2 -30 -93
-14 -135 84 -217 41 -34 110 -95 154 -137 101 -93 127 -110 245 -151 56 -19
85 -33 70 -34 l-25 -1 25 -8 c20 -6 21 -8 5 -8 -11 0 -29 3 -40 8 l-20 9 20 1
c14 1 10 5 -15 15 -46 18 -74 17 -35 0 36 -17 18 -20 -22 -4 -105 43 -139 65
-220 141 -48 46 -118 107 -155 136 -85 67 -112 110 -112 176 0 45 16 106 28
106 2 0 2 -10 -1 -22z m-1060 -257 c6 -68 12 -89 33 -115 29 -35 161 -156 347
-317 159 -138 257 -269 202 -269 -8 0 -15 4 -15 8 0 18 -155 174 -243 246 -51
41 -152 132 -224 203 l-133 128 0 104 c0 78 3 102 13 99 7 -3 15 -36 20 -87z
m452 -191 c-3 -5 -1 -10 6 -10 7 0 10 -3 6 -6 -3 -4 -14 -3 -24 0 -15 6 -15 8
-3 16 19 12 23 12 15 0z m-5466 -183 c106 -113 128 -151 94 -164 -12 -5 -23 2
-37 21 -12 16 -45 58 -73 94 -49 62 -66 102 -44 102 6 0 32 -24 60 -53z m1655
-71 c-3 -8 -20 -17 -37 -21 -63 -12 -118 -28 -123 -36 -9 -15 -44 -10 -44 6 0
8 5 15 11 15 5 0 7 -4 4 -10 -8 -13 5 -13 25 0 13 9 13 10 0 10 -29 1 38 29
81 34 36 4 38 4 14 -3 l-30 -9 27 -1 c38 -2 64 9 46 20 -9 6 -7 9 9 9 15 0 21
-5 17 -14z m-1564 -163 c0 -24 -25 -14 -53 23 -16 19 -27 37 -24 40 2 2 15
-11 28 -31 13 -19 28 -35 32 -35 9 0 4 9 -31 60 -24 35 -24 35 12 -4 20 -22
36 -45 36 -53z m-20 -45 c0 -27 -47 -78 -72 -78 -28 0 -22 30 14 67 37 38 58
42 58 11z m-283 -10 c13 -12 45 -34 71 -48 55 -29 72 -67 25 -56 -70 18 -155
88 -139 115 10 16 17 14 43 -11z m2948 -5 c37 -18 47 -43 18 -43 -23 1 -74 39
-53 40 13 0 13 1 0 10 -24 15 -4 12 35 -7z"/>
<path d="M3270 6069 c0 -5 5 -7 10 -4 6 3 10 8 10 11 0 2 -4 4 -10 4 -5 0 -10
-5 -10 -11z"/>
<path d="M4180 5489 c52 -17 104 -28 135 -27 l50 1 -60 7 c-33 4 -89 17 -125
29 -36 11 -69 20 -75 20 -5 -1 28 -14 75 -30z"/>
<path d="M5217 6513 c-18 -3 -27 -9 -24 -17 5 -13 25 -85 99 -351 25 -92 37
-119 49 -117 8 1 34 -14 57 -34 l42 -36 0 94 c0 176 -24 258 -114 398 -30 46
-52 69 -63 69 -10 -1 -31 -4 -46 -6z"/>
<path d="M5451 6334 c0 -11 3 -14 6 -6 3 7 2 16 -1 19 -3 4 -6 -2 -5 -13z"/>
<path d="M2704 6047 c-47 -56 -136 -116 -239 -158 -55 -23 -120 -56 -144 -73
-55 -39 -131 -113 -131 -128 0 -7 7 -3 15 8 15 19 15 19 8 -1 -3 -11 12 3 35
31 28 35 62 62 104 83 35 17 92 47 126 66 39 21 78 35 99 35 42 0 193 94 193
120 0 8 -9 23 -20 32 -18 16 -20 15 -46 -15z"/>
<path d="M2912 5368 c-19 -72 -15 -125 9 -149 27 -27 190 -102 200 -92 4 4
-35 54 -87 110 -84 92 -95 100 -104 83 -24 -45 -4 -92 41 -95 11 -1 25 -8 32
-15 10 -10 8 -10 -11 0 -13 6 -26 9 -29 6 -3 -3 5 -9 18 -15 80 -31 111 -46
122 -60 11 -14 10 -14 -13 0 -14 9 -46 24 -71 33 -26 10 -61 31 -79 47 -28 26
-31 34 -26 67 3 20 7 46 7 57 1 11 3 15 6 8 2 -7 11 -9 19 -6 8 3 14 -1 14 -8
1 -16 190 -217 190 -202 0 8 -190 219 -210 233 -4 3 -10 14 -12 25 -2 13 -8 4
-16 -27z"/>
<path d="M5410 5921 c0 -5 5 -13 10 -16 6 -3 10 -2 10 4 0 5 -4 13 -10 16 -5
3 -10 2 -10 -4z"/>
<path d="M2650 5790 c-101 -8 -150 -31 -211 -98 -90 -99 -97 -114 -105 -234
l-7 -107 81 25 c105 32 270 120 343 184 32 27 61 50 66 50 4 0 16 14 26 31
l17 31 -31 29 c-37 34 -86 39 -127 12 -15 -10 -36 -23 -47 -29 -47 -25 -84
-121 -55 -139 6 -3 10 -19 10 -35 0 -25 -7 -33 -48 -54 -56 -28 -112 -41 -141
-31 -19 6 -21 14 -21 89 0 70 4 88 23 116 33 48 94 87 165 105 69 18 204 24
240 11 36 -14 27 13 -10 28 -49 20 -85 24 -168 16z m160 -154 c0 -2 -7 -6 -15
-10 -8 -3 -15 -1 -15 4 0 6 7 10 15 10 8 0 15 -2 15 -4z"/>
<path d="M2655 5739 c-90 -13 -140 -36 -196 -90 l-50 -48 3 -83 3 -83 47 2
c30 1 62 10 93 29 42 24 46 30 40 53 -15 52 -10 109 11 138 28 37 99 76 154
84 l45 6 -45 0 c-25 1 -72 -3 -105 -8z"/>
<path d="M3095 5710 c-4 -17 -5 -34 -2 -36 3 -3 8 9 12 26 4 17 5 34 2 36 -3
3 -8 -9 -12 -26z"/>
<path d="M5315 5227 c0 -96 -3 -119 -23 -162 -28 -61 -61 -97 -127 -139 -27
-18 -57 -41 -65 -51 -19 -23 -6 -18 48 20 130 91 169 124 197 165 40 61 42
139 3 223 -15 31 -28 57 -30 57 -2 0 -3 -51 -3 -113z"/>
<path d="M2416 5265 c-3 -8 -1 -15 4 -15 6 0 10 7 10 15 0 8 -2 15 -4 15 -2 0
-6 -7 -10 -15z"/>
<path d="M2506 5284 c-4 -9 -4 -19 -1 -22 2 -3 7 3 11 12 4 9 4 19 1 22 -2 3
-7 -3 -11 -12z"/>
<path d="M3806 4834 c-71 -16 -122 -38 -236 -104 -36 -21 -100 -50 -143 -65
-43 -15 -80 -32 -83 -36 -3 -5 -15 -9 -27 -9 -35 -1 -97 -63 -97 -98 0 -5 10
-14 23 -21 19 -10 33 -8 92 14 38 15 87 35 110 45 22 10 67 26 100 35 33 10
138 58 234 106 108 56 185 89 205 89 42 0 62 13 44 28 -11 9 -129 34 -148 31
-3 0 -36 -7 -74 -15z m94 -14 c-83 -10 -161 -34 -225 -70 -113 -63 -189 -99
-248 -116 -47 -15 -72 -29 -104 -63 -23 -24 -40 -47 -38 -51 2 -4 -2 -7 -10
-7 -18 0 -7 21 37 68 23 25 51 42 88 53 47 14 106 42 285 135 67 35 157 59
220 58 l60 0 -65 -7z m46 -17 c-10 -3 -39 -16 -65 -30 -167 -90 -228 -119
-321 -153 -110 -40 -163 -61 -218 -86 -19 -9 -36 -14 -38 -11 -6 6 103 53 218
93 86 30 215 92 348 167 25 14 56 25 70 25 18 0 20 -2 6 -5z"/>
<path d="M2857 3160 c3 -316 9 -640 13 -720 8 -146 6 6 -10 895 -6 328 -7 297
-3 -175z"/>
<path d="M3755 3230 c3 -5 11 -10 16 -10 6 0 7 5 4 10 -3 6 -11 10 -16 10 -6
0 -7 -4 -4 -10z"/>
<path d="M4810 2584 c-69 -13 -143 -30 -165 -39 -22 -8 -60 -17 -85 -21 -25
-4 -58 -13 -75 -21 -32 -16 -105 -82 -105 -95 0 -19 23 -5 71 42 28 28 61 52
73 55 11 2 73 13 136 25 63 11 144 29 180 39 36 11 90 24 120 29 51 9 52 9 15
10 -22 0 -96 -11 -165 -24z"/>
<path d="M3848 2473 c7 -3 16 -2 19 1 4 3 -2 6 -13 5 -11 0 -14 -3 -6 -6z"/>
<path d="M3949 2456 c14 -17 97 -49 114 -43 6 2 -12 12 -40 21 -29 10 -55 22
-58 27 -4 5 -11 9 -17 9 -7 0 -7 -4 1 -14z"/>
<path d="M8868 2960 c-14 -11 -79 -44 -144 -73 -144 -65 -283 -136 -268 -137
6 0 76 31 155 69 79 37 169 80 199 94 60 28 97 54 88 62 -3 3 -16 -4 -30 -15z"/>
<path d="M7883 2717 c-47 -50 -87 -106 -80 -113 3 -3 15 10 27 28 13 18 41 52
63 75 23 24 39 45 36 48 -3 2 -23 -14 -46 -38z"/>
<path d="M8120 2577 c-86 -43 -192 -108 -186 -114 3 -3 38 15 78 40 40 25 99
58 131 72 52 25 69 36 50 34 -5 0 -37 -15 -73 -32z"/>
<path d="M5550 2356 c0 -7 105 -78 148 -100 61 -31 45 -9 -20 28 -35 19 -78
45 -95 57 -18 11 -33 18 -33 15z"/>
<path d="M5800 2205 c0 -2 10 -10 23 -16 20 -11 21 -11 8 4 -13 16 -31 23 -31
12z"/>
<path d="M1916 2155 c-15 -42 -30 -84 -33 -93 -4 -11 -3 -14 4 -7 12 12 66
165 60 171 -2 3 -16 -30 -31 -71z"/>
<path d="M2811 2188 c-2 -29 -94 -199 -150 -276 -29 -40 -51 -75 -48 -78 6 -6
92 112 129 176 37 64 80 170 74 183 -2 7 -5 4 -5 -5z"/>
<path d="M7565 1897 c-13 -67 9 -110 92 -184 41 -37 108 -97 147 -133 74 -68
141 -117 189 -138 56 -24 48 -11 -12 20 -33 17 -101 68 -150 112 -49 45 -121
110 -161 145 -82 73 -105 114 -95 172 8 48 -2 52 -10 6z"/>
<path d="M6501 1680 l-1 -95 133 -128 c72 -71 173 -161 222 -202 90 -73 191
-173 233 -230 12 -16 22 -25 22 -19 0 28 -108 148 -221 246 -212 184 -318 282
-344 318 -19 27 -27 55 -33 120 l-9 85 -2 -95z"/>
<path d="M1450 1352 c0 -6 24 -39 53 -75 28 -35 61 -77 73 -93 12 -17 23 -24
27 -17 4 6 -6 27 -21 46 -51 63 -132 149 -132 139z"/>
<path d="M3025 1220 c-13 -5 -14 -9 -5 -9 8 0 24 4 35 9 13 5 14 9 5 9 -8 0
-24 -4 -35 -9z"/>
<path d="M1531 1016 c-19 -20 -31 -39 -27 -43 9 -9 69 52 65 66 -3 7 -19 -4
-38 -23z"/>
<path d="M1281 1004 c21 -23 107 -74 124 -74 16 0 -12 23 -54 44 -26 14 -53
32 -60 40 -8 9 -18 16 -24 16 -6 0 0 -12 14 -26z"/>
<path d="M4234 1005 c11 -8 25 -15 30 -15 6 0 2 7 -8 15 -11 8 -25 15 -30 15
-6 0 -2 -7 8 -15z"/>
<path d="M2176 7161 c-10 -11 -13 -22 -8 -25 9 -6 20 4 36 32 11 19 -9 14 -28
-7z"/>
<path d="M5255 3561 c-29 -11 58 -22 115 -13 l45 6 -45 7 c-58 10 -90 9 -115
0z m78 -8 c-7 -2 -19 -2 -25 0 -7 3 -2 5 12 5 14 0 19 -2 13 -5z"/>
<path d="M6038 3473 c6 -2 18 -2 25 0 6 3 1 5 -13 5 -14 0 -19 -2 -12 -5z"/>
<path d="M4130 3090 c8 -5 22 -10 30 -10 13 0 13 1 0 10 -8 5 -22 10 -30 10
-13 0 -13 -1 0 -10z"/>
<path d="M5880 2221 c0 -14 49 -43 61 -35 6 3 -3 14 -20 25 -35 21 -41 23 -41
10z"/>
<path d="M5856 1468 c4 -7 26 -35 50 -63 105 -125 184 -281 259 -509 59 -178
83 -300 95 -486 6 -85 15 -213 20 -285 8 -116 8 -107 4 85 -6 314 -28 460
-103 688 -75 225 -158 386 -270 524 -41 51 -74 78 -55 46z"/>
<path d="M7554 1294 c4 -11 19 -59 33 -109 14 -49 39 -117 55 -149 54 -108
177 -236 260 -271 59 -24 61 -31 69 -228 6 -162 25 -314 60 -484 l10 -53 2380
0 2379 0 0 266 0 267 -77 -7 c-123 -9 -970 11 -1158 29 -338 31 -583 65 -735
101 -63 15 -133 30 -155 34 -22 4 -65 15 -95 23 -30 8 -143 34 -250 57 -207
44 -304 73 -403 119 -74 34 -329 127 -407 147 -30 8 -102 30 -160 48 -259 84
-313 97 -420 103 -102 5 -133 2 -285 -32 -89 -20 -243 -22 -315 -5 -30 7 -75
24 -100 38 -59 33 -218 66 -441 92 -101 12 -199 24 -218 27 -30 5 -33 4 -27
-13z"/>
<path d="M2850 1149 c0 -2 -12 -38 -26 -79 -67 -196 -93 -471 -60 -620 18 -82
41 -158 61 -205 8 -16 22 -50 33 -75 50 -117 76 -170 83 -170 4 0 -8 48 -27
107 -18 59 -38 132 -45 162 -6 31 -19 74 -29 96 -34 74 -53 235 -47 379 6 143
28 286 53 354 9 24 13 46 10 49 -3 4 -6 4 -6 2z"/>
<path d="M1486 819 c-8 -22 -114 -527 -126 -599 -6 -36 -18 -98 -26 -139 -13
-67 -13 -93 2 -79 3 3 23 104 44 224 22 121 57 305 79 409 21 105 37 192 35
194 -2 2 -6 -2 -8 -10z"/>
</g>
</svg>
