<?xml version="1.0" standalone="no"?>
<!DOCTYPE svg PUBLIC "-//W3C//DTD SVG 20010904//EN"
 "http://www.w3.org/TR/2001/REC-SVG-20010904/DTD/svg10.dtd">
<svg version="1.0" xmlns="http://www.w3.org/2000/svg"
 width="1280.000000pt" height="720.000000pt" viewBox="0 0 1280.000000 720.000000"
 preserveAspectRatio="xMidYMid meet">
<metadata>
Created by potrace 1.16, written by Peter Selinger 2001-2019
</metadata>
<g transform="translate(0.000000,720.000000) scale(0.100000,-0.100000)"
fill="#000000" stroke="none">
<path d="M0 3600 l0 -3600 6400 0 6400 0 0 3600 0 3600 -6400 0 -6400 0 0
-3600z m3393 975 c34 -16 55 -44 169 -220 75 -115 194 -241 256 -271 24 -11
39 -29 53 -62 11 -26 25 -57 32 -69 30 -55 163 -208 318 -367 93 -95 169 -177
169 -181 0 -4 13 -24 28 -44 67 -86 101 -156 121 -253 12 -54 21 -110 21 -124
0 -24 3 -26 28 -19 15 3 91 9 169 12 l143 5 11 42 c27 102 102 184 206 225 68
27 223 10 223 -25 0 -16 -36 -19 -45 -4 -3 6 -16 10 -28 11 -21 1 -20 2 3 10
19 7 15 8 -20 4 -33 -3 -40 -2 -25 5 14 7 5 8 -30 4 -60 -7 -144 -45 -193 -88
-35 -30 -82 -120 -82 -154 0 -9 11 9 25 42 13 32 34 70 47 83 34 37 97 75 116
70 14 -4 13 -5 -3 -6 -50 -4 -132 -92 -161 -173 -20 -57 -18 -65 17 -72 36 -7
136 -105 174 -171 25 -41 62 -191 51 -202 -3 -4 -6 5 -7 18 0 22 -1 22 -8 4
-6 -15 -12 -3 -24 50 -16 73 -15 102 2 44 8 -29 9 -30 10 -9 0 14 -6 36 -14
50 -8 14 -14 19 -15 11 0 -8 -13 4 -29 25 -16 21 -49 60 -74 86 -77 80 -216
107 -387 75 l-65 -12 -7 -100 c-3 -55 -11 -113 -17 -128 -16 -40 -14 -47 12
-46 21 0 21 1 2 9 -27 11 -9 12 39 0 36 -8 43 -6 92 31 71 52 141 89 170 89
34 0 30 -26 -6 -33 -16 -4 -61 -27 -100 -53 l-70 -47 29 -18 c46 -28 84 -118
85 -200 1 -60 -2 -71 -24 -91 -24 -23 -24 -23 -6 -1 12 14 20 43 22 75 l3 53
-8 -47 c-10 -53 -44 -104 -74 -112 -12 -3 -19 -8 -16 -11 3 -3 20 0 37 6 17 6
37 9 44 6 7 -3 2 -6 -12 -7 l-25 -2 25 -8 25 -8 -25 -1 c-21 -1 -20 -3 15 -21
51 -26 148 -42 222 -35 41 3 31 0 -32 -11 -113 -19 -175 -8 -241 42 -37 29
-55 35 -107 39 -47 3 -53 2 -27 -4 31 -7 32 -9 8 -10 -14 0 -35 -4 -45 -7 -15
-5 -15 -4 -3 5 8 6 11 11 5 11 -6 0 -6 3 0 9 8 8 84 18 161 21 6 0 21 18 33
41 19 34 22 49 17 91 -8 57 -34 114 -64 141 -11 10 -56 26 -100 36 l-79 17 1
-310 1 -311 -28 -87 c-15 -49 -37 -104 -49 -123 -11 -20 -17 -39 -13 -43 3 -4
97 -7 208 -7 220 1 227 2 429 76 86 31 144 71 131 92 -3 6 -1 7 6 3 6 -4 14 0
17 11 3 10 14 34 24 53 9 19 16 40 13 47 -2 6 1 14 6 18 6 3 12 36 13 73 2 63
2 64 5 15 3 -43 7 -53 22 -53 22 0 134 72 123 80 -15 10 -6 26 41 69 30 28 61
72 86 122 39 77 67 178 58 202 -3 6 -6 1 -7 -13 -1 -21 -3 -18 -15 15 -18 48
-18 48 -5 40 6 -3 10 -1 10 4 0 6 -7 11 -15 11 -8 0 -19 17 -26 40 -10 34 -10
45 5 72 15 27 16 40 7 68 l-10 35 2 -39 c1 -26 -3 -41 -12 -44 -11 -3 -12 1
-7 19 4 13 9 56 13 95 5 65 3 76 -21 120 -15 27 -42 66 -61 87 -19 20 -30 37
-26 37 4 0 16 -9 26 -20 10 -11 22 -17 28 -13 5 3 7 1 4 -4 -4 -6 2 -21 12
-34 30 -39 51 -98 51 -148 0 -25 6 -68 14 -96 l13 -50 6 45 c10 65 -7 163 -39
223 -35 69 -49 88 -57 80 -4 -3 -15 1 -24 9 -10 9 -25 18 -33 21 -13 5 -12 6
1 6 9 1 22 -5 28 -13 7 -8 20 -12 30 -9 28 7 89 -121 102 -212 10 -70 -1 -166
-22 -191 -6 -8 -1 -35 14 -76 14 -35 27 -84 30 -108 5 -35 4 -39 -3 -20 -8 20
-9 17 -5 -17 4 -31 -2 -59 -19 -103 -26 -63 -102 -180 -118 -180 -5 0 6 19 25
43 38 46 81 126 73 134 -3 3 -15 -16 -27 -41 -12 -25 -42 -69 -68 -96 -26 -28
-42 -50 -37 -50 6 0 4 -5 -4 -10 -8 -5 -11 -10 -6 -10 5 0 3 -7 -4 -15 -8 -10
-9 -15 -1 -15 6 0 16 9 23 20 7 11 17 20 22 20 23 0 -73 -84 -123 -109 -53
-25 -55 -28 -76 -94 -13 -37 -32 -78 -43 -90 -33 -35 -129 -89 -185 -105 -278
-76 -374 -84 -595 -51 l-63 10 -55 -47 c-30 -26 -57 -45 -59 -42 -3 3 12 17
33 32 22 15 49 38 62 51 13 14 29 21 39 18 13 -4 14 -3 1 5 -12 9 -12 13 2 29
20 24 48 79 48 95 -1 7 -10 -5 -22 -27 -30 -58 -73 -109 -121 -146 -36 -28
-34 -24 19 32 140 146 145 175 150 779 4 585 3 593 -104 770 -25 41 -84 116
-132 165 -237 244 -383 426 -418 522 -12 31 -26 50 -47 60 -16 9 -66 48 -110
88 -62 57 -99 103 -165 206 -88 138 -160 224 -182 217 -25 -9 -51 -59 -64
-125 -17 -89 -17 -255 0 -318 26 -98 106 -248 193 -364 18 -24 33 -49 33 -55
0 -6 7 -24 15 -39 20 -38 71 -202 80 -253 4 -28 2 -44 -5 -49 -17 -10 -20 -4
-35 67 -18 89 -82 269 -104 293 -10 11 -38 49 -62 85 -23 36 -57 84 -75 107
-84 110 -113 309 -75 506 23 120 31 139 63 161 28 20 42 20 81 1z m217 -1250
c0 -15 -33 -191 -37 -197 -2 -5 -11 -8 -20 -8 -17 0 -15 35 6 120 6 25 13 55
16 68 4 18 35 33 35 17z m1567 -91 c-3 -3 -12 -4 -19 -1 -8 3 -5 6 6 6 11 1
17 -2 13 -5z m-1642 -21 c-2 -10 -4 -21 -4 -24 -1 -3 -22 -15 -48 -26 -170
-74 -221 -82 -483 -82 -220 0 -290 5 -290 18 0 3 33 7 73 7 69 2 70 1 17 -5
-31 -4 50 -7 185 -8 253 -2 290 2 420 49 65 24 129 58 121 65 -2 2 -22 -5 -45
-16 -22 -12 -91 -35 -153 -52 -122 -35 -136 -35 -508 -9 l-105 8 125 -4 c69
-2 180 -7 247 -10 81 -5 137 -3 170 5 96 24 209 62 238 80 38 25 44 25 40 4z
m1615 7 c8 -5 11 -10 5 -10 -5 0 -17 5 -25 10 -8 5 -10 10 -5 10 6 0 17 -5 25
-10z m90 6 c0 -2 -13 -6 -29 -8 -17 -2 -28 -1 -25 4 5 8 54 12 54 4z m-3121
-27 c48 -6 129 -20 181 -31 52 -12 138 -26 190 -32 85 -9 90 -11 50 -16 -41
-5 -38 -6 37 -13 82 -8 103 -5 103 15 0 6 -17 8 -47 5 -48 -6 -48 -6 -10 5 20
5 44 7 52 4 22 -8 18 -34 -5 -41 -31 -10 -231 13 -350 40 -236 53 -409 53
-685 1 -226 -42 -240 -46 -292 -79 -67 -43 -97 -108 -55 -121 42 -13 160 -26
322 -36 96 -6 207 -15 245 -20 39 -5 124 -10 190 -10 80 0 152 -7 214 -20 52
-11 103 -20 115 -20 28 0 99 -20 93 -26 -3 -3 -22 -1 -44 4 -68 18 -233 46
-238 40 -3 -2 58 -17 135 -32 77 -16 150 -30 163 -33 18 -4 19 -3 7 7 -27 20
31 -1 72 -26 43 -27 44 -28 51 -74 6 -33 4 -36 -34 -54 -71 -33 -141 -46 -289
-56 -131 -9 -260 -22 -495 -50 -242 -30 -492 -135 -496 -209 0 -12 -2 -12 -8
3 -6 16 -10 10 -20 -27 -15 -53 -9 -89 20 -118 13 -13 18 -27 14 -40 -4 -10
-3 -19 2 -19 4 0 7 -24 5 -53 -3 -49 -1 -57 28 -85 17 -18 41 -32 53 -31 15 0
17 2 7 6 -28 10 -50 36 -49 57 0 21 0 21 9 -1 21 -53 113 -79 307 -88 136 -6
294 4 403 25 71 14 474 15 519 1 61 -19 110 -60 117 -98 4 -19 2 -44 -4 -56
-8 -18 -9 -14 -5 20 5 39 3 44 -33 78 -22 19 -57 40 -79 46 -52 15 -442 14
-515 -1 -30 -6 -91 -14 -135 -18 l-80 -6 65 -6 c44 -4 78 -2 105 8 28 10 110
16 275 19 259 6 308 0 337 -43 10 -14 26 -34 36 -45 9 -10 17 -24 17 -31 0 -6
-9 0 -20 13 -11 13 -33 40 -49 59 l-29 35 -259 0 c-183 0 -268 -4 -293 -13
-22 -8 -101 -14 -210 -16 -129 -2 -147 -1 -70 4 l105 6 -90 2 c-103 3 -266 17
-310 27 -25 5 -27 4 -12 -5 10 -7 57 -16 105 -20 l87 -9 -80 3 c-72 3 -149 20
-213 50 -34 15 -49 52 -53 131 -3 48 -9 75 -21 87 -29 29 -32 81 -9 151 24 72
41 88 146 137 147 69 482 128 855 150 80 4 161 13 180 19 19 6 44 11 55 10 59
-3 -154 -39 -235 -40 -52 0 -133 -7 -180 -15 l-85 -13 75 4 c252 16 357 24
370 29 8 3 34 10 58 16 27 7 40 15 36 22 -4 6 -3 8 4 5 5 -4 18 -4 27 -1 13 6
14 9 3 16 -9 6 -6 7 10 3 21 -6 22 -4 17 22 -8 31 -70 93 -94 93 -9 0 -2 -9
17 -21 17 -12 32 -28 32 -36 0 -8 5 -11 13 -7 6 4 9 4 5 -1 -4 -4 -3 -14 3
-22 9 -10 8 -13 0 -13 -7 0 -19 12 -28 28 -28 49 -58 62 -230 97 -136 28 -191
35 -288 35 -66 0 -154 5 -195 10 -41 6 -147 15 -235 20 -193 12 -311 28 -347
47 -23 11 -28 20 -28 52 0 96 106 150 400 202 227 39 345 46 489 28z m-734
-329 l30 -8 -30 0 c-16 0 -39 3 -50 8 l-20 9 20 -1 c11 0 34 -4 50 -8z m4222
-42 c-3 -7 -5 -2 -5 12 0 14 2 19 5 13 2 -7 2 -19 0 -25z m-2161 -55 c11 -55
66 -182 92 -217 28 -37 82 -81 117 -96 131 -56 139 -61 105 -55 -27 5 -32 4
-20 -5 25 -19 -28 -2 -96 31 -83 39 -142 105 -182 201 -18 43 -35 92 -37 110
-4 30 -4 30 5 8 9 -24 9 -24 7 5 -1 18 -7 29 -14 28 -7 -2 -13 2 -13 7 0 23
30 8 36 -17z m-266 -73 c2 36 67 -196 89 -320 25 -138 54 -386 48 -402 -3 -7
-6 7 -8 32 l-2 45 -6 -45 c-5 -39 -8 -30 -19 70 -23 202 -53 369 -88 494 -18
66 -33 128 -33 136 1 8 5 4 9 -10 l8 -25 2 25z m2345 -47 c-16 -21 -40 -48
-54 -60 -14 -12 -21 -22 -16 -22 15 0 42 22 75 64 37 46 40 35 4 -12 -31 -41
-130 -107 -109 -73 3 6 1 10 -6 10 -7 0 7 14 30 30 23 17 54 48 69 69 15 21
29 37 31 35 2 -2 -9 -20 -24 -41z m-2979 12 c-11 -8 -24 -15 -30 -15 -5 0 -1
7 10 15 10 8 24 14 29 14 6 0 1 -6 -9 -14z m1247 -282 c-7 -2 -19 -2 -25 0 -7
3 -2 5 12 5 14 0 19 -2 13 -5z m1246 -102 c-12 -23 -26 -41 -31 -41 -4 0 5 20
19 45 34 55 44 51 12 -4z m27 0 c-25 -48 -34 -44 -12 5 12 24 22 40 24 35 2
-5 -4 -23 -12 -40z m-3743 -92 c28 -18 29 -20 7 -14 -37 10 -50 33 -48 84 l2
46 3 -48 c4 -41 9 -51 36 -68z m1295 95 c27 -8 31 -44 3 -44 -10 0 -24 7 -31
15 -15 18 1 20 18 3 6 -6 15 -8 19 -4 4 4 1 12 -7 17 -18 12 -137 6 -410 -21
-107 -11 -215 -21 -240 -24 -25 -2 18 -2 95 1 77 2 199 10 270 18 243 26 246
26 197 15 -59 -13 -313 -38 -457 -45 -66 -4 -167 -13 -225 -20 -150 -20 -323
-35 -413 -35 l-78 0 -16 -37 c-9 -22 -13 -52 -10 -75 3 -22 1 -36 -4 -32 -21
13 -1 129 25 146 6 4 56 9 111 10 l100 2 -105 6 -105 6 80 2 c95 2 255 16 420
37 66 8 224 23 350 35 127 11 244 22 260 23 54 7 129 7 153 1z m2407 -85 c-22
-4 -53 -7 -70 -7 -26 1 -24 2 10 8 22 4 54 7 70 7 25 1 23 -1 -10 -8z m292
-66 c-2 -16 -4 -5 -4 22 0 28 2 40 4 28 2 -13 2 -35 0 -50z m-2640 -355 c-3
-8 -6 -5 -6 6 -1 11 2 17 5 13 3 -3 4 -12 1 -19z m-102 -24 c-80 -40 -60 -39
30 1 33 14 56 22 50 17 -5 -6 -50 -27 -100 -48 -49 -21 -97 -43 -105 -50 -16
-12 -336 -85 -367 -83 -10 1 -4 5 12 9 l30 8 -30 0 c-16 0 -43 -4 -60 -8 l-30
-8 30 -2 c18 -1 -15 -12 -80 -27 -60 -13 -123 -32 -140 -42 -64 -37 -96 -128
-57 -164 9 -9 37 -20 62 -26 86 -20 163 -12 396 40 125 28 273 59 328 69 56
11 144 29 196 41 52 12 129 23 170 24 41 0 109 7 150 14 58 11 146 12 390 7
266 -6 328 -4 398 9 133 26 273 74 374 130 34 19 49 19 22 0 -44 -30 -211 -96
-313 -122 l-106 -28 -350 3 c-254 2 -369 0 -420 -9 -38 -7 -107 -13 -152 -14
-45 0 -85 -3 -89 -7 -11 -11 356 1 393 13 23 7 77 7 177 0 395 -30 596 -1 799
114 93 52 116 54 30 2 -200 -122 -426 -156 -829 -126 -100 7 -154 7 -177 0
-17 -6 -108 -12 -202 -15 -129 -3 -188 -10 -245 -25 -41 -11 -149 -36 -240
-55 -91 -19 -230 -49 -310 -66 -235 -50 -394 -52 -462 -7 -30 21 -33 28 -36
77 -2 42 3 64 20 94 34 58 59 66 503 156 83 17 164 37 180 45 80 39 211 94
220 94 6 0 -21 -16 -60 -35z"/>
<path d="M3307 4552 c-21 -22 -31 -49 -48 -137 -38 -195 -15 -366 65 -483 18
-26 63 -92 100 -147 54 -78 77 -124 108 -214 21 -63 41 -134 45 -158 3 -24 10
-46 14 -49 12 -7 11 11 -6 83 -30 126 -87 255 -164 368 -119 175 -161 290
-161 447 0 138 22 245 59 281 27 28 30 28 57 14 33 -17 51 -41 165 -215 60
-90 104 -143 167 -202 48 -44 91 -80 98 -80 17 0 39 -30 58 -78 31 -81 185
-269 416 -507 48 -49 107 -124 133 -165 103 -170 107 -203 102 -785 -3 -381
-6 -482 -19 -535 -22 -90 -18 -107 7 -35 21 57 22 78 22 385 1 243 4 333 14
355 7 17 15 75 18 130 3 55 10 103 16 107 5 3 46 12 89 18 99 16 217 8 282
-17 51 -21 123 -84 158 -141 21 -35 37 -38 19 -4 -15 29 -78 102 -107 125 -14
11 -42 26 -63 33 -29 10 -36 17 -34 36 1 12 0 16 -3 7 -4 -14 -28 -18 -152
-23 -81 -3 -160 -7 -176 -8 -29 -3 -29 -3 -43 77 -21 127 -39 175 -95 258 -29
44 -57 86 -63 95 -5 9 -88 98 -184 197 -184 191 -299 333 -327 406 -19 49 -41
79 -58 79 -7 0 -50 36 -98 80 -63 59 -107 112 -167 202 -113 173 -132 198
-163 214 -38 20 -51 18 -81 -14z"/>
<path d="M5300 3230 c8 -5 20 -10 25 -10 6 0 3 5 -5 10 -8 5 -19 10 -25 10 -5
0 -3 -5 5 -10z"/>
<path d="M4805 2750 c-22 -11 -66 -40 -99 -64 -49 -37 -64 -44 -95 -40 -20 2
-10 -3 23 -10 74 -17 123 -63 142 -132 7 -27 13 -39 13 -26 2 52 -62 152 -97
152 -7 0 -12 6 -10 13 7 18 117 94 163 111 24 9 32 15 20 15 -11 1 -38 -8 -60
-19z"/>
<path d="M5581 2732 c-11 -26 -11 -38 -1 -62 16 -37 25 -33 10 4 -7 19 -7 33
1 47 6 11 9 25 7 31 -2 6 -10 -3 -17 -20z"/>
<path d="M5162 2645 c0 -16 2 -22 5 -12 2 9 2 23 0 30 -3 6 -5 -1 -5 -18z"/>
<path d="M5611 2594 c0 -11 3 -14 6 -6 3 7 2 16 -1 19 -3 4 -6 -2 -5 -13z"/>
<path d="M5611 2440 c-7 -23 -10 -44 -8 -47 7 -6 29 65 25 79 -2 6 -10 -8 -17
-32z"/>
<path d="M4663 2303 c9 -2 23 -2 30 0 6 3 -1 5 -18 5 -16 0 -22 -2 -12 -5z"/>
<path d="M4720 2280 c0 -18 101 -61 153 -65 l52 -4 -53 9 c-61 12 -135 47
-127 60 4 6 -1 10 -9 10 -9 0 -16 -4 -16 -10z"/>
<path d="M5395 2124 c-16 -13 -42 -26 -57 -29 -32 -7 -47 -24 -54 -58 -8 -46
-54 -126 -87 -151 -32 -24 -117 -60 -230 -96 -109 -35 -188 -43 -361 -38 -92
3 -165 4 -164 2 2 -1 61 -8 131 -14 147 -13 259 -3 395 36 45 13 87 24 94 24
28 0 127 59 168 100 36 36 49 57 60 103 13 56 15 59 66 83 49 23 82 50 73 58
-2 2 -17 -7 -34 -20z"/>
<path d="M3586 3309 c-8 -24 -27 -112 -33 -149 -4 -25 -2 -32 6 -25 11 11 43
176 36 184 -3 2 -7 -2 -9 -10z"/>
<path d="M1820 3190 c-85 -10 -300 -48 -370 -65 -79 -20 -153 -59 -184 -95
-33 -40 -35 -84 -3 -104 29 -18 143 -34 342 -46 88 -5 194 -14 235 -20 41 -5
136 -9 210 -8 121 2 124 2 30 5 -58 1 -181 9 -275 18 -93 8 -231 19 -305 24
-74 6 -159 15 -187 21 -51 11 -53 13 -53 44 0 66 74 120 205 149 384 85 606
93 857 31 53 -13 116 -23 140 -23 42 2 42 2 -12 9 -30 4 -98 16 -150 28 -182
40 -324 49 -480 32z"/>
<path d="M1815 2555 c-259 -35 -525 -137 -525 -202 0 -8 13 1 30 20 63 72 322
154 560 177 69 6 127 14 129 16 8 8 -94 2 -194 -11z"/>
<path d="M1418 1943 c7 -3 16 -2 19 1 4 3 -2 6 -13 5 -11 0 -14 -3 -6 -6z"/>
<path d="M3445 2705 c4 -16 21 -61 39 -100 37 -80 87 -129 172 -169 76 -36 91
-33 18 4 -112 56 -150 98 -207 230 -15 36 -25 52 -22 35z"/>
<path d="M3181 2673 c-1 -7 12 -59 28 -116 29 -104 63 -297 78 -437 4 -41 9
-65 11 -53 4 29 -24 245 -48 363 -20 96 -68 266 -69 243z"/>
<path d="M1838 2213 c-10 -2 -77 -11 -150 -18 -133 -14 -133 -14 -28 -9 107 6
294 32 230 32 -19 0 -43 -2 -52 -5z"/>
<path d="M2440 1696 c-25 -12 -108 -36 -185 -52 -77 -16 -133 -30 -124 -32 29
-5 283 57 334 82 28 14 43 25 35 25 -8 0 -35 -10 -60 -23z"/>
<path d="M1885 1566 c-104 -29 -121 -39 -145 -86 -27 -53 -26 -113 1 -139 56
-52 230 -52 469 -1 80 17 199 42 265 56 185 38 341 77 329 81 -6 2 -45 -3 -85
-12 -41 -9 -119 -24 -175 -35 -55 -10 -203 -41 -328 -69 -132 -30 -252 -51
-286 -51 -79 0 -153 17 -179 41 -44 41 -14 141 52 176 18 9 73 27 122 39 50
13 79 23 65 23 -14 0 -61 -10 -105 -23z"/>
</g>
</svg>
