<?xml version="1.0" standalone="no"?>
<!DOCTYPE svg PUBLIC "-//W3C//DTD SVG 20010904//EN"
 "http://www.w3.org/TR/2001/REC-SVG-20010904/DTD/svg10.dtd">
<svg version="1.0" xmlns="http://www.w3.org/2000/svg"
 width="1280.000000pt" height="720.000000pt" viewBox="0 0 1280.000000 720.000000"
 preserveAspectRatio="xMidYMid meet">
<metadata>
Created by potrace 1.16, written by Peter Selinger 2001-2019
</metadata>
<g transform="translate(0.000000,720.000000) scale(0.100000,-0.100000)"
fill="#000000" stroke="none">
<path d="M0 3600 l0 -3600 110 0 c92 0 110 3 110 15 0 8 4 23 10 33 14 26 120
298 120 310 0 5 36 106 81 223 44 118 96 259 116 314 20 55 48 116 62 135 55
74 71 125 71 225 0 50 5 105 11 121 6 16 37 51 70 77 l59 48 0 126 c0 119 27
328 49 385 14 35 48 67 79 74 15 3 61 21 102 39 41 18 116 46 165 61 50 14
101 33 115 40 14 7 54 22 90 34 36 11 72 23 80 27 45 17 213 78 265 94 109 36
245 92 257 106 6 8 24 21 39 28 l27 15 -19 61 c-34 109 -49 226 -49 378 0 166
9 252 50 506 45 281 59 390 66 525 5 108 3 136 -15 205 -11 44 -25 119 -30
165 -37 314 -49 376 -154 830 -81 347 -107 513 -88 562 6 16 2 58 -14 133 -58
279 -53 662 12 900 28 102 117 266 182 337 9 9 27 28 39 42 l24 26 -1046 0
-1046 0 0 -3600z"/>
<path d="M2080 7168 c-14 -17 -32 -38 -41 -47 -63 -66 -157 -235 -183 -331
-64 -230 -69 -609 -11 -893 15 -73 20 -120 14 -134 -9 -23 2 -162 20 -263 5
-30 37 -172 71 -315 100 -428 114 -501 151 -815 5 -46 19 -121 30 -165 32
-123 21 -280 -51 -730 -41 -254 -50 -340 -50 -506 0 -154 15 -270 50 -380 18
-59 19 -65 4 -74 -9 -5 -28 -19 -43 -30 -32 -25 -125 -65 -246 -104 -49 -16
-178 -62 -285 -101 -107 -39 -244 -87 -303 -106 -60 -20 -133 -49 -162 -65
-29 -16 -64 -29 -77 -29 -25 0 -58 -25 -82 -63 -26 -39 -56 -253 -56 -395 l0
-131 -59 -48 c-32 -26 -64 -58 -70 -71 -6 -13 -11 -68 -11 -123 0 -88 -3 -105
-27 -152 -15 -28 -37 -65 -49 -82 -12 -16 -36 -70 -54 -120 -18 -49 -38 -103
-45 -120 -7 -16 -22 -57 -35 -90 -12 -33 -31 -82 -43 -110 -11 -27 -39 -106
-62 -175 -24 -69 -66 -183 -94 -255 -28 -71 -51 -133 -51 -137 0 -4 238 -8
529 -8 l529 0 6 27 c3 16 12 78 20 138 20 141 30 194 65 335 16 63 46 196 66
294 21 99 41 189 46 200 8 19 9 18 5 -4 -10 -63 -87 -415 -110 -506 -32 -125
-43 -180 -62 -319 -8 -60 -17 -122 -20 -137 -5 -23 -2 -28 15 -28 17 0 21 6
21 34 0 50 35 277 70 451 17 83 39 200 50 260 11 61 29 144 41 185 19 71 19
75 3 87 -20 14 -7 18 15 4 12 -7 10 -22 -7 -87 -12 -44 -31 -128 -42 -189 -11
-60 -33 -177 -50 -260 -35 -174 -70 -401 -70 -451 l0 -34 3370 0 3370 0 -6 28
c-4 15 -31 104 -61 197 -105 327 -123 400 -123 494 0 67 -1 71 -33 95 -17 13
-43 30 -57 35 -33 15 -69 39 -120 81 -92 75 -95 80 -118 175 -25 106 -37 175
-29 175 17 0 323 -74 392 -95 44 -13 121 -31 171 -40 49 -8 130 -29 180 -45
l89 -31 293 0 c223 1 310 -3 365 -14 87 -19 259 -82 382 -140 147 -70 205 -95
305 -130 52 -18 131 -47 175 -64 80 -31 246 -84 360 -115 33 -9 74 -21 90 -25
69 -21 534 -128 695 -161 25 -5 77 -16 115 -24 173 -36 458 -83 590 -97 300
-32 1055 -2 1055 42 0 5 -37 9 -82 9 -46 0 -144 4 -218 10 -74 5 -234 14 -355
20 -349 16 -622 52 -1030 136 -66 13 -282 56 -480 95 -198 38 -391 77 -430 86
-267 60 -570 157 -735 235 -133 63 -349 143 -420 156 -100 19 -206 23 -337 12
-168 -13 -341 0 -440 34 -39 14 -116 32 -170 41 -54 9 -123 25 -155 36 -31 10
-121 32 -200 49 -78 16 -188 43 -243 59 -55 17 -169 50 -254 75 -85 25 -161
52 -170 60 -9 8 -54 26 -101 40 -131 40 -469 199 -595 281 -44 28 -111 70
-150 94 -67 41 -133 90 -336 251 -131 105 -159 125 -279 207 -238 163 -370
250 -480 316 -63 39 -178 112 -255 163 -183 120 -350 213 -450 248 -44 16
-102 39 -130 53 -27 14 -104 40 -169 59 -141 42 -204 72 -254 122 -20 21 -53
49 -72 63 -31 23 -348 205 -410 237 -62 31 -141 104 -166 155 -49 95 -126 199
-209 282 -45 45 -95 101 -109 124 -29 46 -36 103 -17 139 14 25 29 28 56 8 71
-49 303 -152 410 -181 33 -9 87 -30 120 -45 125 -60 119 -59 245 -39 141 22
213 45 355 114 91 44 120 63 165 113 87 95 168 211 215 307 86 179 125 286
125 344 -1 88 -50 365 -111 615 -31 131 -23 292 19 339 33 37 55 22 100 -65
23 -46 56 -119 73 -163 33 -87 75 -166 184 -350 116 -195 118 -207 90 -470 -8
-77 -14 -165 -14 -195 l1 -55 14 73 c14 69 18 77 79 141 78 82 222 272 242
321 26 61 13 189 -30 287 -19 45 -46 127 -58 182 -20 89 -22 109 -12 167 14
79 59 173 90 187 13 6 24 8 26 6 24 -32 73 -116 101 -173 55 -111 146 -319
142 -323 -2 -2 -25 44 -52 102 -26 58 -52 101 -56 97 -5 -5 7 -41 27 -80 19
-39 35 -74 35 -76 0 -3 16 -32 35 -65 19 -32 35 -68 35 -78 0 -14 2 -15 9 -5
6 10 10 8 14 -10 15 -55 9 -87 -74 -393 -11 -38 -30 -112 -44 -164 -26 -101
-35 -117 -59 -108 -22 9 -21 18 25 200 22 89 47 188 55 219 7 32 22 84 33 115
32 97 36 158 13 190 -31 43 -142 272 -158 327 -9 26 -13 54 -10 62 5 14 -15
54 -61 122 -22 33 -22 33 -41 14 -33 -33 -72 -125 -78 -187 -7 -67 20 -202 57
-284 59 -130 76 -267 45 -343 -21 -49 -164 -238 -242 -321 -64 -67 -67 -73
-78 -138 -6 -44 -15 -69 -23 -69 -17 0 -17 78 2 255 25 232 17 300 -41 380
-48 66 -195 335 -223 410 -49 127 -122 266 -139 263 -60 -12 -81 -178 -43
-341 54 -235 83 -379 98 -499 16 -121 16 -135 1 -192 -9 -34 -31 -93 -48 -132
-18 -38 -43 -96 -57 -129 -13 -33 -46 -91 -74 -130 -27 -38 -64 -92 -83 -120
-100 -149 -312 -257 -594 -304 l-123 -21 -94 45 c-51 24 -120 51 -152 60 -120
34 -338 129 -405 176 -30 22 -31 22 -44 4 -41 -56 -9 -122 121 -250 86 -85
148 -169 201 -270 30 -59 109 -135 173 -167 62 -31 379 -214 411 -237 19 -14
52 -43 72 -63 50 -50 132 -90 253 -123 55 -15 132 -43 170 -61 39 -18 103 -44
143 -58 113 -40 262 -123 462 -256 63 -43 167 -109 230 -147 110 -66 240 -152
480 -316 120 -82 148 -102 279 -207 203 -161 269 -210 336 -251 62 -38 195
-121 250 -157 11 -6 29 -16 41 -21 22 -10 133 -62 281 -132 45 -21 119 -50
165 -65 46 -14 94 -33 108 -43 14 -9 90 -36 170 -60 80 -23 190 -55 245 -72
55 -16 165 -43 243 -59 79 -17 169 -39 200 -49 32 -11 101 -27 155 -36 54 -9
132 -28 175 -42 103 -34 267 -46 435 -33 131 11 238 7 337 -12 89 -17 365
-122 474 -180 25 -13 192 -74 301 -109 196 -63 324 -93 815 -189 195 -38 409
-81 475 -94 258 -53 496 -93 634 -106 53 -5 141 -14 196 -20 90 -9 395 -24
733 -37 l122 -5 0 1776 c0 977 -2 1776 -5 1776 -7 0 -519 -254 -560 -278 -16
-9 -46 -27 -65 -39 -55 -34 -177 -93 -192 -93 -7 0 27 21 76 46 50 25 117 63
150 83 34 20 181 96 329 169 l267 131 0 46 c0 29 -4 45 -12 45 -7 0 -47 -19
-88 -41 -41 -23 -149 -79 -240 -126 -159 -82 -210 -113 -385 -235 -44 -31
-116 -74 -160 -97 l-80 -41 -320 15 c-176 8 -382 15 -458 15 -156 0 -468 -23
-631 -46 -206 -30 -494 -110 -631 -175 -38 -19 -88 -40 -110 -48 -22 -7 -64
-24 -92 -37 -29 -13 -79 -36 -110 -50 -79 -35 -429 -211 -478 -240 -134 -80
-207 -106 -360 -130 -82 -13 -177 -28 -210 -34 -33 -5 -71 -9 -85 -9 -27 1 42
14 275 49 136 20 159 26 250 70 55 27 116 59 135 71 41 26 304 160 405 206 39
17 105 48 147 67 42 20 82 36 88 36 6 0 18 4 28 9 14 7 140 63 207 91 35 15
186 58 312 89 155 38 288 57 530 76 235 18 377 19 788 0 l319 -14 91 50 c49
27 142 87 205 132 63 45 185 118 270 162 86 44 196 102 244 129 48 26 103 53
122 59 l34 10 0 1584 0 1583 -3730 0 -3729 0 53 -87 c68 -112 128 -231 154
-308 16 -49 64 -236 122 -480 34 -140 54 -463 41 -653 l-8 -123 54 -102 c30
-55 70 -126 88 -156 19 -31 53 -101 76 -156 54 -130 61 -223 30 -397 -22 -125
-74 -342 -120 -502 l-28 -99 28 -96 c16 -53 33 -105 38 -116 6 -11 28 -65 51
-120 22 -55 45 -108 50 -117 6 -10 10 -22 10 -28 0 -6 11 -33 25 -62 14 -28
25 -53 25 -55 0 -2 -10 -3 -22 -3 -16 0 -19 3 -10 8 12 8 -8 63 -113 312 -15
36 -42 113 -60 171 l-32 106 28 99 c95 333 143 581 137 709 -6 109 -35 183
-177 435 -86 154 -91 168 -85 205 4 22 7 135 7 250 -1 229 -17 377 -60 560
-45 196 -93 380 -103 397 -6 10 -10 23 -10 30 0 17 -73 158 -143 276 l-61 102
-1611 0 -1610 -1 -25 -31z m693 -595 c188 -380 321 -550 602 -769 293 -229
612 -350 951 -361 l151 -6 36 -171 c70 -326 68 -393 -18 -582 -15 -33 -31 -70
-37 -84 -37 -93 -129 -227 -222 -326 -42 -46 -78 -73 -132 -99 -41 -19 -76
-35 -79 -35 -4 0 -30 -11 -58 -24 -62 -29 -142 -52 -254 -74 -70 -13 -87 -13
-110 -2 -16 7 -32 12 -37 11 -5 -1 -41 14 -80 33 -39 19 -100 42 -136 52 -88
24 -201 72 -348 150 -200 106 -335 221 -446 380 -65 91 -173 287 -221 399 -21
50 -53 119 -71 155 -18 36 -40 85 -49 110 -47 130 -88 260 -112 357 -26 103
-27 120 -28 353 0 298 10 370 61 425 19 21 34 42 34 47 0 5 12 9 28 8 56 -4
66 2 157 90 75 72 99 90 123 90 16 0 35 -7 42 -15 19 -23 67 -18 108 10 20 14
45 25 54 25 13 0 38 -40 91 -147z m2904 -555 c-2 -13 -4 -3 -4 22 0 25 2 35 4
23 2 -13 2 -33 0 -45z m-223 -145 c13 -27 35 -86 49 -131 15 -46 72 -175 129
-287 l101 -203 -12 -89 c-18 -123 -45 -236 -87 -364 -20 -61 -34 -113 -30
-116 35 -35 146 361 146 520 0 57 -6 71 -100 252 -55 106 -100 198 -100 204 0
6 13 11 29 11 22 0 34 -9 55 -40 14 -22 26 -47 26 -56 0 -10 6 -25 14 -33 7
-9 31 -50 53 -91 22 -41 63 -115 91 -165 71 -125 111 -224 118 -292 12 -110
-58 -471 -149 -773 -24 -80 -67 -242 -96 -361 -29 -119 -56 -221 -60 -228 -6
-10 -32 -6 -112 14 -165 42 -222 54 -254 54 -17 -1 -2 -6 36 -14 36 -7 96 -22
133 -34 84 -26 242 -64 361 -86 50 -10 144 -33 210 -51 223 -62 539 -136 625
-145 47 -5 303 -9 569 -9 438 0 497 -2 630 -21 262 -38 583 -130 776 -224 108
-53 238 -122 282 -151 12 -8 32 -14 44 -14 35 0 6 25 -90 77 -47 25 -111 60
-141 78 -208 119 -631 242 -940 275 -52 5 -325 10 -605 10 l-511 0 -159 29
c-172 32 -353 72 -425 95 -51 16 -43 21 10 6 74 -22 261 -63 415 -91 l159 -29
511 0 c484 0 622 -6 760 -31 153 -29 428 -101 555 -146 100 -36 431 -205 473
-241 9 -8 17 -21 17 -29 0 -28 -56 -11 -178 56 -288 156 -371 189 -673 265
-267 68 -367 76 -910 76 -266 0 -522 4 -569 9 -86 9 -403 83 -625 145 -66 18
-172 44 -235 56 -63 12 -164 35 -225 51 -180 48 -258 67 -300 74 -32 6 -36 9
-20 15 l20 8 -20 4 c-11 3 0 3 25 0 54 -5 131 -21 265 -56 55 -14 103 -22 107
-18 4 4 30 102 58 217 28 116 73 284 100 375 64 218 93 341 125 540 39 237 32
278 -87 490 -27 47 -69 126 -94 175 -26 50 -53 94 -60 98 -8 4 -14 17 -14 28
0 29 -50 99 -71 99 -22 0 -17 -15 39 -115 18 -33 58 -109 87 -170 49 -97 55
-117 55 -171 0 -84 -55 -364 -79 -399 -4 -5 -15 -36 -26 -68 -10 -32 -27 -62
-36 -68 -33 -17 -31 25 6 134 40 122 68 236 85 357 l13 86 -66 129 c-36 72
-74 148 -86 170 -32 61 -57 123 -80 200 -36 115 -61 159 -95 163 -42 5 -52
-11 -29 -45 20 -31 57 -110 129 -278 98 -230 111 -265 97 -265 -5 0 -9 9 -10
21 -1 11 -26 76 -56 142 -30 67 -60 138 -68 157 -19 55 -97 212 -113 229 -30
33 -14 51 46 51 35 0 39 -4 62 -47z m-2550 -2125 c18 -617 18 -664 2 -943 -21
-341 -31 -396 -109 -616 -31 -89 -143 -286 -155 -274 -3 2 21 45 52 94 63 99
73 122 120 260 49 144 64 240 81 520 15 256 19 726 5 586 -4 -38 -8 -153 -9
-255 -1 -196 -24 -544 -42 -645 -6 -33 -26 -107 -44 -165 -18 -58 -36 -116
-39 -130 -3 -14 -26 -61 -52 -105 -25 -44 -57 -100 -71 -125 -17 -31 -23 -37
-19 -19 3 15 35 76 71 137 36 60 65 117 65 126 0 8 15 62 34 118 45 134 53
184 70 423 18 246 22 626 11 968 -7 227 -6 257 7 257 13 0 16 -32 22 -212z
m564 -226 c2 -7 -3 -12 -12 -12 -9 0 -16 7 -16 16 0 17 22 14 28 -4z m8722
-68 c69 -14 195 -38 280 -54 199 -37 246 -54 233 -86 -12 -33 -170 -11 -493
71 l-185 46 -260 4 c-143 2 -343 9 -445 16 -270 17 -684 3 -900 -32 -204 -33
-493 -111 -597 -162 -38 -18 -90 -41 -118 -51 -27 -10 -78 -31 -113 -47 -35
-16 -65 -29 -67 -29 -14 0 -465 -220 -488 -238 -55 -42 -260 -119 -370 -138
-97 -17 -309 -37 -334 -32 -10 2 45 9 122 16 77 7 174 19 215 26 90 16 248 74
322 117 67 40 398 205 458 229 25 10 75 32 113 49 37 17 70 31 73 31 7 0 50
18 164 71 114 52 378 126 570 160 224 40 675 59 950 40 96 -7 294 -14 440 -16
l265 -4 185 -46 c311 -78 488 -105 478 -72 -8 22 -54 37 -214 67 -272 51 -417
78 -469 89 l-50 10 55 -6 c30 -3 111 -16 180 -29z m-8483 -56 c136 -77 169
-127 96 -148 -21 -5 -58 -21 -82 -35 -23 -14 -47 -25 -51 -25 -8 0 -64 170
-75 227 -6 29 -4 32 15 28 11 -2 55 -23 97 -47z m163 -162 c0 -2 -7 -6 -15
-10 -8 -3 -15 -1 -15 4 0 6 7 10 15 10 8 0 15 -2 15 -4z m35 -16 c8 -14 110
-64 155 -78 19 -5 69 -15 110 -21 92 -15 128 -26 203 -62 32 -15 75 -33 95
-40 20 -7 62 -25 92 -42 30 -16 84 -45 120 -65 88 -47 370 -236 359 -240 -5
-2 -64 34 -131 80 -68 46 -161 106 -208 133 -166 97 -401 204 -475 216 -169
27 -216 41 -293 84 -31 17 -48 22 -60 15 -9 -5 -43 -16 -76 -25 -32 -9 -76
-27 -97 -41 -36 -23 -39 -28 -39 -71 0 -72 -29 -163 -68 -210 -32 -40 -192
-162 -254 -194 -30 -16 -222 -198 -215 -205 2 -2 39 2 83 10 43 9 129 22 189
30 61 9 133 20 160 25 64 12 267 17 284 6 25 -15 -12 -25 -95 -25 -78 0 -406
-43 -585 -76 -85 -16 -85 -16 -113 -61 -26 -43 -26 -49 -16 -97 7 -28 15 -139
20 -246 9 -210 -1 -347 -39 -530 -11 -52 -18 -96 -17 -97 1 -1 29 6 62 16 87
27 242 36 407 22 179 -15 288 -34 335 -59 21 -11 53 -23 72 -27 34 -7 314
-129 335 -145 7 -6 10 55 10 178 0 153 3 198 18 247 29 91 41 52 26 -82 -10
-97 -7 -260 7 -333 l4 -25 -11 25 c-12 29 -17 260 -7 375 l7 80 -17 -45 c-13
-36 -16 -85 -17 -243 0 -108 -2 -197 -4 -197 -2 0 -51 23 -107 50 -56 28 -105
50 -108 50 -4 0 -29 11 -58 25 -28 13 -67 28 -87 31 -20 4 -55 17 -78 30 -48
25 -119 37 -320 55 -167 14 -319 6 -411 -23 -35 -11 -66 -18 -68 -15 -2 2 5
48 16 103 39 187 49 322 40 534 -5 107 -14 220 -20 250 -11 53 -11 58 16 102
26 44 29 46 103 61 l76 15 -67 -4 -68 -4 108 106 c59 58 121 112 137 121 66
35 225 156 258 196 41 50 67 129 67 204 0 49 2 55 33 73 17 11 64 30 102 41
39 12 77 28 85 35 17 17 27 18 35 4z m-218 -47 c-9 -2 -15 -9 -12 -14 4 -5 1
-9 -4 -9 -12 0 -14 13 -4 23 3 4 13 6 22 6 13 -1 12 -2 -2 -6z m1361 -518 c-3
-3 -58 -12 -123 -20 -279 -35 -398 -63 -486 -114 -72 -41 -152 -70 -229 -81
-43 -6 -44 -7 -17 -14 37 -11 169 33 255 85 85 51 247 86 482 105 47 4 98 13
113 21 26 13 33 12 74 -8 37 -18 261 -164 351 -230 21 -15 21 -18 11 -105 -6
-49 -9 -165 -7 -259 l5 -170 51 -93 c29 -50 52 -96 52 -101 0 -10 -1 -10 -145
-39 -56 -12 -112 -25 -125 -30 -14 -5 -47 -12 -75 -16 -156 -22 -530 -143
-725 -234 -57 -27 -141 -82 -187 -125 -24 -22 -43 -35 -43 -29 0 17 90 91 157
128 164 92 612 243 798 270 28 4 61 11 73 15 13 5 58 16 100 24 43 9 96 20
119 26 l41 11 -35 67 c-20 36 -43 80 -52 96 -13 25 -16 66 -16 245 0 118 3
233 7 255 l7 40 -132 91 c-120 82 -191 128 -249 161 -17 9 -29 9 -57 -2 -20
-7 -90 -18 -156 -24 -214 -20 -334 -47 -419 -96 -94 -53 -234 -99 -276 -90
-44 10 -39 35 8 35 53 0 145 32 232 80 79 43 160 65 350 94 197 31 277 40 268
31z m-1100 -141 c32 -9 61 -20 67 -25 5 -5 -15 -2 -44 7 -29 8 -55 13 -58 10
-3 -3 16 -11 43 -17 27 -7 44 -14 38 -16 -5 -2 -37 5 -69 16 -43 14 -53 20
-35 22 24 1 23 2 -5 9 -17 4 -22 8 -12 9 11 0 44 -6 75 -15z m102 -55 c0 -5
-8 -9 -17 -8 -11 0 -13 3 -5 6 6 2 9 10 6 15 -4 7 -2 8 4 4 7 -4 12 -11 12
-17z m-2039 -182 c-6 -19 -36 -75 -66 -125 -29 -51 -50 -92 -45 -92 10 0 96
145 111 189 6 17 13 30 16 28 7 -8 -29 -89 -70 -159 -26 -46 -45 -68 -58 -68
-11 0 -19 4 -19 9 0 5 25 51 55 102 31 52 61 108 67 126 16 43 23 34 9 -10z
m26 21 c-3 -8 -6 -5 -6 6 -1 11 2 17 5 13 3 -3 4 -12 1 -19z m4541 -689 c6
-51 26 -80 105 -146 124 -104 360 -341 401 -403 37 -57 47 -100 22 -100 -8 0
-18 9 -21 20 -17 55 -188 236 -448 477 -42 39 -77 80 -77 90 0 13 5 10 19 -12
10 -16 49 -57 86 -90 143 -126 364 -352 404 -414 22 -35 41 -58 41 -50 0 45
-189 251 -449 489 -74 67 -83 80 -89 120 l-6 45 -7 -35 -6 -35 -2 38 c-1 43
22 48 27 6z m-723 -60 c164 -154 315 -481 361 -784 39 -261 38 -635 -1 -635
-13 0 -15 35 -15 223 0 335 -24 505 -102 717 -70 192 -140 310 -255 430 -51
54 -90 100 -86 104 15 14 36 3 98 -55z m-4215 -284 c0 -8 -6 -15 -14 -15 -14
0 -196 183 -196 198 0 5 44 -35 97 -89 53 -54 99 -97 102 -94 2 3 -39 50 -92
104 -53 54 -97 102 -97 107 1 16 200 -195 200 -211z m1250 38 c0 -5 -9 -37
-20 -73 -39 -123 -50 -185 -62 -335 -22 -260 -17 -335 31 -530 23 -93 49 -185
57 -203 19 -47 18 -62 -6 -62 -15 0 -23 12 -35 58 -9 31 -27 82 -40 112 -27
66 -40 123 -56 250 -14 114 -5 406 16 516 19 98 84 274 102 274 7 0 13 -3 13
-7z m1170 -65 c0 -4 -7 -8 -15 -8 -8 0 -15 4 -15 8 0 5 7 9 15 9 8 0 15 -4 15
-9z m-2430 -19 c0 -71 -47 -155 -83 -147 -13 2 -9 16 19 72 19 38 34 76 34 83
0 7 7 13 15 13 8 0 15 -9 15 -21z m-208 -136 c32 -16 58 -34 58 -40 0 -35
-131 12 -138 50 -5 24 14 22 80 -10z m9405 -589 c-3 -3 -12 -4 -19 -1 -8 3 -5
6 6 6 11 1 17 -2 13 -5z m383 -24 c0 -5 -19 -9 -42 -9 l-43 2 40 7 c22 4 41 8
43 9 1 0 2 -3 2 -9z m578 -87 c-10 -2 -28 -2 -40 0 -13 2 -5 4 17 4 22 1 32
-1 23 -4z m-48 -47 c0 -2 -16 -6 -35 -8 -19 -2 -35 0 -35 4 0 4 16 8 35 8 19
0 35 -2 35 -4z"/>
<path d="M2638 6685 c-42 -29 -108 -34 -128 -10 -24 29 -52 15 -139 -69 -86
-84 -114 -101 -162 -98 -18 2 -29 -5 -39 -23 -7 -14 -23 -31 -36 -40 -37 -24
-49 -125 -49 -405 1 -232 2 -251 28 -353 43 -171 108 -358 157 -452 15 -27 46
-95 69 -150 24 -55 46 -104 51 -110 4 -5 28 -50 54 -98 140 -268 294 -430 541
-569 148 -83 243 -125 409 -178 80 -25 101 -29 108 -18 8 10 9 10 5 -2 -5 -21
18 -41 51 -44 15 -1 39 -8 54 -15 23 -12 39 -11 105 2 93 18 194 46 208 57 6
4 21 11 35 15 14 4 66 27 117 52 72 35 104 58 150 107 101 109 186 234 228
337 14 35 30 72 36 82 22 39 51 125 59 172 11 68 -4 198 -46 387 -19 86 -34
159 -34 161 0 2 -66 7 -147 10 -102 3 -178 12 -243 27 -342 80 -567 198 -854
448 -156 136 -309 343 -422 574 -95 193 -110 222 -119 225 -6 2 -27 -8 -47
-22z m235 -777 c27 -29 70 -81 94 -116 49 -67 44 -47 55 -257 1 -16 -1 -50 -5
-75 -7 -43 -6 -43 9 10 8 30 18 58 22 62 4 4 5 35 3 70 l-4 63 -13 -35 c-9
-21 -12 -25 -9 -10 2 14 5 31 5 38 0 6 7 12 15 12 18 0 25 -113 9 -150 -6 -14
-19 -57 -29 -97 -15 -64 -55 -138 -55 -103 0 7 7 18 15 24 8 6 17 27 20 46 l5
35 -12 -30 c-6 -16 -18 -35 -27 -42 -12 -9 -15 -30 -14 -106 1 -100 8 -137 24
-137 6 0 6 7 -1 19 -17 33 -11 34 15 3 18 -22 44 -35 102 -52 43 -12 87 -24
98 -27 11 -3 -31 44 -92 105 -62 61 -113 115 -113 121 0 6 16 -7 36 -29 20
-22 41 -40 47 -40 6 0 -5 17 -24 38 -19 20 -41 46 -49 57 -13 19 -13 18 10 -1
14 -12 30 -20 36 -18 6 3 22 -9 37 -26 15 -16 23 -30 18 -30 -6 0 -13 5 -16
10 -3 6 -11 10 -17 10 -6 0 -3 -9 6 -19 11 -12 25 -17 37 -14 16 5 20 2 17
-14 -2 -14 19 -43 65 -93 38 -39 65 -75 62 -78 -4 -4 -12 2 -19 13 -17 30
-119 136 -125 130 -2 -3 21 -31 52 -63 31 -32 57 -61 57 -65 0 -4 -10 -7 -22
-8 -13 -1 -3 -6 20 -11 24 -5 42 -12 39 -15 -3 -2 -34 3 -69 12 -34 9 -80 21
-101 26 -56 14 -115 46 -128 70 -6 12 -11 68 -12 125 -1 93 1 106 20 123 28
27 58 158 43 195 -5 15 -10 37 -10 50 0 12 -9 40 -20 61 -11 22 -18 45 -16 51
2 6 -26 49 -62 96 l-67 84 -29 -14 c-15 -8 -56 -18 -90 -22 -114 -15 -171 -32
-276 -83 -132 -63 -210 -120 -203 -147 3 -11 0 -20 -6 -20 -6 0 -8 8 -4 18 6
15 5 15 -10 3 -14 -11 -18 -11 -23 2 -17 44 124 148 281 208 44 16 89 34 100
39 11 4 52 16 90 25 39 9 81 23 95 30 42 24 62 17 113 -37z m-36 -143 c7 -19
5 -21 -27 -29 -25 -6 -25 -6 -2 5 12 7 22 16 22 21 0 10 -112 9 -155 -1 -28
-7 -27 -8 20 -16 l50 -8 -65 -15 c-123 -27 -242 -129 -311 -264 -28 -56 -50
-168 -33 -168 22 0 171 53 194 68 14 9 45 27 70 41 25 13 58 34 73 47 16 13
32 24 36 24 4 0 43 33 86 74 51 50 76 80 72 90 -6 16 -77 56 -98 56 -30 0
-100 -44 -119 -74 -21 -35 -26 -98 -11 -139 5 -13 6 -28 3 -34 -12 -18 -122
-72 -180 -89 -31 -9 -61 -20 -67 -24 -13 -9 -55 -20 -55 -14 0 3 13 10 29 15
26 9 29 15 34 77 17 176 149 287 372 311 39 5 72 7 74 5 4 -4 -19 -8 -119 -23
-87 -13 -157 -45 -221 -101 -56 -48 -87 -110 -96 -191 l-6 -60 29 6 c54 12
199 90 195 105 -2 8 -6 38 -8 66 -9 90 40 152 134 170 40 7 117 -33 121 -64 6
-43 -110 -143 -317 -272 -35 -21 -202 -80 -230 -80 -11 0 -13 12 -7 63 16 164
183 358 330 383 l41 7 -40 12 -40 12 45 10 c73 17 170 16 177 -2z m253 -150
l7 50 1 -52 c2 -41 -1 -53 -13 -53 -12 0 -15 12 -13 53 l2 52 5 -50 5 -50 6
50z m51 -18 c-9 -9 -14 -9 -21 3 -16 25 -11 35 6 14 15 -18 15 -18 10 11 -5
28 -5 28 6 7 9 -17 8 -26 -1 -35z m-164 -369 l1 -63 -8 50 c-6 42 -4 75 4 75
1 0 2 -28 3 -62z m1051 -374 c2 -16 -4 -23 -25 -27 -15 -3 -64 -27 -108 -52
-44 -26 -114 -60 -155 -77 -41 -16 -88 -36 -105 -43 -16 -7 -73 -30 -125 -50
-176 -69 -260 -89 -274 -66 -11 16 56 48 213 101 84 28 168 60 185 69 17 10
56 27 88 39 31 12 96 43 145 70 48 27 95 52 103 55 28 11 55 2 58 -19z m336
-369 c-4 -8 -8 -15 -10 -15 -2 0 -4 7 -4 15 0 8 4 15 10 15 5 0 7 -7 4 -15z"/>
<path d="M2779 5940 c-9 -5 -51 -19 -95 -30 -111 -30 -239 -79 -307 -117 -33
-18 -62 -33 -66 -33 -13 0 -111 -92 -111 -105 0 -7 21 7 48 31 90 85 358 194
473 194 16 0 49 9 71 20 l42 20 30 -37 c66 -78 114 -147 109 -155 -2 -5 0 -14
5 -21 5 -7 14 -25 21 -42 10 -28 10 -26 5 15 -7 52 -28 90 -98 174 -78 94 -94
105 -127 86z"/>
<path d="M3042 5271 c4 -13 18 -16 19 -4 0 4 -5 9 -11 12 -7 2 -11 -2 -8 -8z"/>
<path d="M3110 5203 c0 -6 -10 -9 -22 -6 -21 4 -21 3 -5 -7 20 -12 48 2 34 17
-4 3 -7 2 -7 -4z"/>
<path d="M2990 5105 c0 -15 176 -72 188 -61 2 3 -16 10 -39 16 -75 19 -114 32
-123 41 -11 10 -26 12 -26 4z"/>
<path d="M3900 4822 c-134 -74 -378 -176 -520 -216 -25 -7 -67 -25 -95 -39
-47 -25 -48 -26 -20 -26 43 -1 239 66 350 119 11 5 54 22 95 38 41 16 115 52
164 80 48 28 101 54 118 57 29 7 34 28 7 32 -8 1 -52 -19 -99 -45z"/>
<path d="M2881 3799 c1 -85 5 -201 9 -259 4 -61 5 2 2 150 -3 140 -6 257 -8
259 -2 2 -3 -65 -3 -150z"/>
<path d="M3611 3388 c10 -44 32 -113 50 -159 l10 -25 56 28 c31 15 64 28 74
28 26 0 33 18 16 43 -14 22 -162 115 -197 124 -17 4 -17 1 -9 -39z"/>
<path d="M3679 2520 c-75 -4 -140 -9 -145 -12 -5 -4 -79 -16 -164 -28 -147
-20 -192 -30 -139 -30 13 0 116 14 228 30 112 17 241 30 287 30 49 0 84 4 84
10 0 6 -3 9 -7 8 -5 0 -69 -4 -144 -8z"/>
<path d="M5842 1523 c85 -87 136 -161 202 -296 122 -252 166 -478 166 -872 1
-217 11 -268 23 -110 8 99 -7 387 -27 520 -42 281 -180 587 -339 752 -44 46
-85 83 -91 83 -6 0 24 -35 66 -77z"/>
<path d="M2866 1289 c-3 -8 -19 -52 -37 -99 -44 -122 -58 -206 -65 -407 -5
-135 -2 -206 9 -294 15 -110 22 -137 61 -234 8 -22 20 -58 26 -80 11 -44 26
-72 34 -64 3 3 -4 34 -15 69 -11 36 -36 130 -56 210 -41 167 -46 257 -25 505
12 149 23 212 61 334 11 36 18 67 16 69 -3 3 -7 -1 -9 -9z"/>
<path d="M1591 1172 c-13 -34 -28 -65 -32 -68 -5 -3 -9 -10 -9 -16 0 -25 51
38 61 75 18 68 4 74 -20 9z"/>
<path d="M1350 1095 c0 -11 82 -55 102 -55 17 1 8 9 -32 30 -55 29 -70 34 -70
25z"/>
<path d="M5361 5758 c-1 -10 8 -43 20 -74 15 -41 24 -53 32 -45 8 8 3 28 -20
74 -18 34 -32 54 -32 45z"/>
<path d="M5546 5298 c-20 -79 -41 -159 -62 -238 -62 -234 -94 -375 -89 -388
10 -28 29 5 51 91 26 98 75 283 103 387 22 81 27 160 11 160 -6 0 -12 -6 -14
-12z"/>
<path d="M7554 1234 c4 -22 16 -79 28 -127 18 -78 25 -91 56 -115 19 -15 54
-43 76 -63 23 -20 68 -51 101 -69 93 -50 95 -52 95 -138 0 -51 10 -111 31
-191 33 -127 124 -416 139 -443 6 -10 10 -26 10 -37 0 -11 3 -26 6 -35 6 -15
222 -16 2355 -16 l2349 0 0 161 0 161 -22 -6 c-13 -4 -79 -11 -148 -16 -69 -5
-165 -15 -213 -21 -100 -14 -533 -7 -687 11 -101 11 -379 55 -445 69 -22 5
-78 17 -125 26 -97 19 -96 19 -370 80 -213 48 -393 90 -445 106 -16 4 -57 16
-90 25 -93 25 -288 85 -310 94 -43 18 -232 88 -270 100 -48 15 -76 27 -225 97
-63 30 -156 70 -206 88 -50 18 -99 37 -110 43 -60 31 -176 42 -467 41 l-292 0
-89 31 c-50 16 -131 37 -180 45 -50 9 -127 27 -171 40 -45 13 -141 38 -215 55
-74 17 -143 33 -154 37 -17 5 -18 1 -12 -33z"/>
</g>
</svg>
