<?xml version="1.0" standalone="no"?>
<!DOCTYPE svg PUBLIC "-//W3C//DTD SVG 20010904//EN"
 "http://www.w3.org/TR/2001/REC-SVG-20010904/DTD/svg10.dtd">
<svg version="1.0" xmlns="http://www.w3.org/2000/svg"
 width="1280.000000pt" height="720.000000pt" viewBox="0 0 1280.000000 720.000000"
 preserveAspectRatio="xMidYMid meet">
<metadata>
Created by potrace 1.16, written by Peter Selinger 2001-2019
</metadata>
<g transform="translate(0.000000,720.000000) scale(0.100000,-0.100000)"
fill="#000000" stroke="none">
<path d="M0 3600 l0 -3600 98 0 98 0 52 110 c29 61 64 141 78 178 13 37 29 76
34 87 5 11 23 56 40 100 18 44 36 89 41 100 66 150 109 287 144 456 12 60 23
85 51 118 20 22 42 41 50 41 11 0 14 21 14 104 0 118 -2 114 99 197 l64 52 -7
131 c-11 223 -8 254 39 346 41 81 150 160 220 160 18 0 59 12 91 26 99 45 269
114 277 114 5 0 23 6 40 14 18 8 66 26 107 41 141 52 455 190 478 210 2 2 -9
29 -23 62 -60 128 -85 230 -86 346 0 45 -4 120 -9 167 -5 47 -14 362 -20 700
-10 570 -13 625 -35 755 -13 77 -26 163 -29 190 -4 28 -17 102 -31 165 -67
312 -150 773 -176 985 -19 150 -16 507 4 630 20 116 60 260 89 325 12 25 27
61 35 80 9 19 39 72 69 118 30 45 54 85 54 87 0 3 -439 5 -975 5 l-975 0 0
-3600z"/>
<path d="M1960 7190 c0 -5 -24 -47 -54 -92 -100 -155 -158 -308 -193 -513 -20
-123 -23 -480 -4 -630 26 -212 109 -673 176 -985 14 -63 27 -137 31 -165 3
-27 16 -113 29 -190 22 -130 25 -185 35 -755 6 -338 15 -653 20 -700 5 -47 9
-123 9 -170 1 -99 33 -231 80 -330 17 -36 31 -69 31 -75 -1 -10 -24 -22 -200
-103 -94 -44 -130 -58 -405 -162 -104 -40 -224 -88 -265 -107 -41 -19 -101
-39 -134 -43 -32 -5 -66 -16 -75 -24 -10 -9 -22 -16 -28 -16 -18 0 -101 -96
-121 -141 -23 -49 -39 -131 -35 -169 2 -14 6 -84 10 -156 l6 -131 -82 -68 -81
-67 0 -107 c0 -100 -1 -107 -22 -116 -43 -19 -85 -89 -97 -162 -22 -128 -96
-352 -175 -528 -8 -16 -44 -106 -81 -200 -37 -93 -80 -194 -96 -223 -34 -63
-34 -62 -11 -62 12 0 24 18 40 65 14 38 30 65 38 65 16 0 19 -31 5 -46 -5 -5
-13 -26 -16 -46 l-7 -38 510 0 510 0 7 138 c11 227 91 655 154 832 11 31 20
46 21 35 2 -17 3 -16 10 5 5 15 8 18 9 9 1 -9 -8 -45 -18 -80 -68 -223 -126
-539 -142 -772 -6 -87 -9 -160 -7 -163 3 -2 1529 -3 3391 -2 l3386 3 -30 46
c-16 25 -45 100 -64 165 -20 65 -58 188 -86 273 -49 146 -51 158 -46 229 9
122 -2 134 -234 242 -75 34 -84 51 -115 198 -15 73 -25 135 -22 138 6 6 191
-41 318 -81 47 -14 99 -30 115 -35 17 -5 84 -30 150 -55 189 -74 350 -109 565
-125 63 -5 174 -14 245 -19 271 -21 399 -58 662 -190 56 -28 105 -51 109 -51
3 0 20 -6 37 -14 61 -27 476 -168 557 -190 30 -8 100 -28 155 -45 89 -26 405
-105 525 -130 117 -25 212 -46 420 -95 145 -34 475 -93 595 -106 212 -24 273
-29 365 -36 52 -3 147 -12 210 -20 63 -8 145 -14 183 -14 l67 0 0 40 0 40 -78
0 c-177 0 -587 30 -817 59 -80 11 -422 66 -505 81 -30 6 -104 20 -165 32 -60
11 -189 47 -285 80 -96 33 -254 79 -350 103 -191 47 -369 98 -525 150 -55 19
-172 57 -260 86 -142 45 -344 123 -430 164 -112 54 -286 80 -635 96 -279 12
-386 29 -510 79 -263 107 -412 155 -631 204 -63 14 -130 30 -149 36 -19 5 -49
10 -65 10 -51 0 -295 57 -411 96 -136 46 -621 289 -701 351 -32 25 -80 61
-108 79 -27 18 -90 65 -140 104 -49 38 -112 86 -140 106 -56 39 -87 64 -312
250 -216 179 -282 227 -420 311 -65 40 -140 90 -168 112 -99 79 -402 271 -521
331 -28 14 -58 33 -68 43 -14 13 -35 17 -104 17 -67 0 -109 7 -182 29 -130 40
-142 45 -218 94 -86 56 -311 186 -382 222 -126 63 -272 175 -291 223 -19 48
-93 166 -97 154 -2 -6 6 -25 18 -42 12 -16 17 -30 11 -30 -13 0 -43 56 -39 73
2 7 -37 57 -86 110 -93 100 -146 177 -146 213 0 36 21 84 37 84 9 0 41 -15 72
-34 94 -57 269 -140 408 -195 131 -51 135 -52 264 -57 123 -4 136 -3 208 22
42 15 103 39 136 54 33 15 78 35 100 45 113 50 274 177 262 207 -3 8 13 41 35
74 71 105 117 187 143 258 14 38 23 71 21 74 -3 2 -10 -8 -16 -24 -6 -16 -16
-42 -22 -59 -40 -104 -199 -346 -267 -407 -51 -46 -222 -136 -306 -162 -27 -8
-77 -24 -110 -36 -53 -19 -74 -21 -170 -16 -157 7 -218 19 -324 60 -163 64
-480 233 -587 312 -65 48 -177 165 -235 244 -72 98 -177 303 -217 424 -16 45
-33 81 -38 79 -5 -2 -32 41 -59 94 -26 54 -61 124 -77 156 -48 94 -77 194
-102 342 -21 125 -23 156 -16 290 8 145 26 339 35 380 6 28 56 48 100 39 34
-6 38 -3 90 52 30 33 65 74 78 92 l22 34 98 -7 c88 -5 100 -4 126 15 39 27 46
26 65 -15 21 -43 64 -95 80 -95 6 0 53 -80 103 -177 74 -144 95 -177 114 -180
12 -2 23 -4 24 -6 36 -56 151 -194 219 -262 131 -130 210 -185 366 -254 114
-50 199 -80 465 -161 57 -17 181 -38 328 -56 184 -23 192 -40 16 -36 -254 6
-424 29 -566 78 -41 14 -77 24 -79 21 -8 -8 189 -76 265 -92 113 -23 306 -38
413 -31 l96 7 10 -33 c90 -292 95 -316 88 -427 -3 -58 -8 -122 -12 -141 -5
-28 -4 -33 6 -23 8 7 15 46 18 93 2 44 8 80 13 80 18 0 8 54 -45 237 -117 405
-136 509 -107 595 14 43 53 78 87 78 18 0 29 -14 58 -75 20 -41 57 -107 83
-147 66 -100 96 -152 128 -228 16 -36 51 -96 78 -134 27 -38 56 -88 64 -110
24 -68 28 -235 9 -368 -10 -65 -14 -123 -11 -128 12 -19 34 23 28 53 -3 15 -1
27 5 27 5 0 8 -9 5 -20 -10 -39 6 -19 36 47 17 36 53 96 80 132 77 105 115
195 124 294 5 49 1 71 -29 150 -90 240 -98 441 -24 587 34 66 48 55 117 -87
34 -71 78 -169 97 -219 19 -51 43 -112 54 -135 82 -180 80 -170 58 -360 -10
-82 -26 -149 -55 -234 -23 -65 -40 -132 -40 -149 l1 -31 8 30 8 30 1 -32 c1
-23 -4 -33 -14 -33 -26 0 -18 59 26 185 58 171 85 402 54 462 -32 62 -135 311
-135 326 0 15 -131 272 -141 275 -5 2 -24 -27 -41 -64 -28 -59 -32 -81 -36
-174 -5 -125 11 -211 70 -369 37 -100 38 -107 29 -175 -12 -93 -56 -199 -119
-283 -27 -37 -66 -99 -85 -138 -49 -99 -61 -120 -74 -122 -21 -4 -23 47 -7
154 19 127 14 309 -9 366 -9 20 -33 60 -55 89 -22 29 -63 100 -90 158 -28 58
-78 147 -112 199 -34 52 -78 127 -97 168 -38 80 -55 89 -90 51 -54 -60 -61
-122 -28 -258 14 -58 30 -125 35 -150 6 -25 22 -83 36 -130 72 -232 101 -372
75 -356 -4 3 -11 -27 -13 -67 -9 -122 -68 -274 -163 -415 -30 -45 -55 -92 -55
-105 0 -41 -140 -153 -260 -208 -130 -59 -184 -82 -250 -104 -69 -24 -85 -25
-205 -21 -132 5 -200 21 -321 76 -22 11 -63 28 -90 38 -60 24 -154 71 -257
129 -44 25 -80 43 -82 41 -11 -14 -25 -50 -25 -67 0 -34 62 -119 172 -237 75
-80 113 -131 140 -185 20 -41 54 -90 75 -110 46 -45 169 -127 243 -164 74 -37
304 -171 360 -209 126 -86 246 -126 409 -135 79 -5 116 -11 119 -19 2 -7 29
-26 61 -41 118 -58 425 -252 526 -332 28 -22 103 -72 168 -112 146 -89 363
-254 573 -436 54 -48 163 -133 185 -146 9 -5 61 -44 114 -85 54 -41 122 -92
152 -113 31 -21 79 -56 106 -78 28 -22 116 -73 196 -113 81 -40 196 -98 256
-129 129 -65 204 -96 300 -124 97 -30 305 -74 335 -71 14 0 52 -6 85 -15 33
-9 125 -32 205 -51 174 -41 302 -83 512 -165 190 -75 256 -87 558 -100 231
-11 339 -21 470 -46 84 -16 109 -24 265 -90 170 -73 328 -127 775 -267 69 -21
208 -59 310 -84 102 -25 219 -57 260 -71 237 -82 306 -102 405 -121 61 -12
135 -26 165 -32 83 -15 425 -70 505 -81 230 -29 640 -59 817 -59 l78 0 0 1816
c0 1452 -3 1814 -12 1806 -7 -5 -65 -31 -128 -57 -63 -26 -140 -60 -170 -76
-30 -16 -59 -29 -63 -29 -5 0 -21 -8 -35 -18 -15 -11 -54 -33 -87 -49 -231
-117 -286 -143 -302 -142 -14 0 -15 2 -3 6 18 7 282 139 444 222 66 33 123 61
127 61 4 0 36 13 71 29 35 16 84 38 111 49 41 18 47 25 47 50 l0 30 -86 -34
c-84 -32 -212 -95 -364 -177 -41 -22 -93 -50 -115 -60 -57 -28 -186 -109 -242
-152 -44 -34 -52 -36 -93 -30 -304 43 -530 52 -895 36 -470 -20 -892 -96
-1205 -216 -19 -7 -73 -28 -120 -45 -102 -39 -286 -109 -391 -150 -104 -41
-245 -117 -241 -130 1 -6 -2 -9 -7 -6 -5 4 -25 -3 -44 -14 -45 -27 -55 -23
-273 123 -57 38 -202 117 -216 117 -4 0 -38 14 -75 31 -96 44 -337 115 -473
140 -156 28 -416 39 -770 32 -264 -5 -313 -3 -460 16 -91 12 -201 26 -245 32
-44 5 -96 13 -115 18 -108 27 -207 56 -300 88 l-105 37 -26 75 c-15 42 -43
114 -62 161 -20 47 -52 145 -71 219 l-35 134 50 221 c83 369 103 460 103 488
1 14 4 24 9 21 4 -2 7 3 7 11 0 9 -5 16 -11 16 -7 0 -10 33 -8 98 l3 97 -50
86 c-28 48 -79 143 -114 213 -36 70 -81 148 -101 175 l-36 48 -6 304 c-3 192
-11 350 -21 429 -28 209 -114 473 -233 718 l-75 152 -1664 0 c-1063 0 -1664
-3 -1664 -10z m3444 -1262 c8 -13 25 -50 37 -83 22 -61 49 -126 75 -179 8 -16
14 -35 14 -42 0 -7 6 -19 13 -26 18 -18 149 -234 172 -283 27 -57 23 -114 -25
-330 -23 -104 -46 -206 -50 -225 -22 -99 -21 -105 9 -37 29 65 41 110 81 310
25 124 26 228 1 282 -10 22 -52 96 -94 165 -43 68 -77 130 -77 137 0 58 97
-73 187 -251 35 -71 84 -164 108 -205 l44 -76 2 -150 c2 -131 0 -160 -20 -229
-13 -43 -40 -153 -61 -245 -73 -320 -121 -527 -150 -646 -16 -66 -31 -132 -35
-147 -5 -25 -9 -27 -48 -24 -23 1 -69 16 -102 33 -94 48 -215 84 -215 65 0 -9
144 -72 163 -72 5 0 36 -16 68 -35 58 -34 99 -45 99 -26 0 5 -8 12 -17 14 -10
3 -2 4 17 2 19 -1 60 -13 90 -25 63 -26 404 -142 500 -171 140 -41 222 -59
307 -69 48 -5 160 -18 248 -29 140 -18 214 -20 595 -19 406 2 443 0 561 -20
174 -30 364 -84 512 -143 134 -54 308 -148 372 -200 33 -28 79 -55 103 -62 46
-12 55 -32 20 -42 -13 -3 -32 -10 -43 -15 -79 -36 -362 -102 -412 -97 -38 4
-38 4 7 5 66 3 291 62 450 118 9 3 -8 14 -41 28 -31 13 -79 41 -105 63 -99 82
-344 198 -549 259 -153 46 -165 49 -315 76 -117 20 -153 22 -560 20 -381 -1
-455 1 -595 19 -88 11 -200 24 -250 30 -49 5 -133 21 -185 35 -52 14 -119 32
-148 40 -30 8 -62 18 -72 24 -9 5 -102 37 -205 70 -103 34 -207 70 -231 80
-37 16 -44 17 -44 5 0 -25 -51 -17 -110 16 -30 17 -82 41 -115 54 -118 45
-125 49 -125 67 0 10 5 18 11 18 31 0 142 -36 213 -69 97 -45 139 -48 144 -11
2 14 16 77 32 140 27 105 102 425 120 510 26 120 55 240 82 340 29 108 31 124
29 263 l-3 148 -38 63 c-21 34 -68 123 -105 196 -64 127 -162 286 -172 276 -2
-2 19 -42 48 -88 29 -45 72 -120 96 -166 61 -117 60 -163 -11 -497 -20 -90
-77 -235 -93 -235 -16 0 -16 5 -3 50 6 19 15 53 19 75 5 22 28 126 51 230 51
230 53 272 17 341 -25 49 -136 227 -155 250 -5 6 -13 21 -17 35 -4 13 -20 51
-35 84 -15 33 -39 92 -54 130 -14 39 -33 81 -42 93 -23 33 -64 26 -83 -12 -13
-28 -11 -34 23 -100 20 -39 36 -75 36 -79 0 -5 30 -72 66 -150 106 -229 117
-260 116 -352 -1 -111 -19 -223 -54 -335 -16 -52 -33 -119 -38 -150 l-9 -55 4
55 c2 30 17 98 33 150 34 111 52 223 54 335 1 65 -4 91 -24 140 -62 144 -161
366 -197 438 -41 81 -41 83 -8 135 14 21 75 15 91 -10z m-2500 -2348 c11 -241
12 -400 5 -675 -12 -507 -10 -495 -187 -854 -42 -85 -78 -149 -80 -143 -2 7 6
28 19 48 27 44 86 166 145 298 48 107 74 195 74 246 l0 33 -18 -24 c-11 -13
-22 -45 -25 -71 -11 -79 -58 -206 -130 -353 -39 -76 -73 -151 -78 -165 -6 -20
-7 -21 -8 -5 0 11 32 88 73 171 90 185 123 277 140 397 8 51 14 79 15 62 1
-23 4 -26 13 -17 16 16 21 647 8 982 -20 498 -20 486 -10 385 16 -174 29 -654
27 -1007 -2 -196 -1 -355 2 -352 2 2 8 172 12 376 6 341 -1 661 -25 1013 -4
64 -4 66 4 20 5 -27 16 -192 24 -365z m-863 111 c7 11 9 9 9 -7 0 -12 -6 -21
-15 -21 -10 0 -15 9 -14 26 1 20 3 21 6 7 4 -15 7 -16 14 -5z m9274 -266 c358
-22 566 -44 740 -76 395 -73 492 -89 549 -89 63 0 48 12 -44 36 -36 9 -74 20
-85 24 -11 5 -112 25 -225 45 -251 44 -262 46 -257 51 6 6 476 -82 552 -105
113 -32 132 -41 115 -51 -8 -6 -36 -10 -61 -10 -52 0 -156 17 -545 89 -165 31
-471 61 -818 82 -189 11 -262 9 -386 -11 -30 -4 -104 -14 -165 -20 -173 -19
-357 -48 -480 -75 -121 -27 -424 -121 -440 -136 -5 -5 -15 -9 -22 -9 -8 0 -60
-18 -116 -39 -56 -22 -167 -63 -247 -92 -80 -28 -149 -56 -154 -60 -6 -5 -16
-9 -24 -9 -7 0 -32 -8 -55 -19 -23 -10 -53 -22 -67 -25 l-25 -7 25 14 c14 8
120 49 235 92 116 42 219 81 230 85 61 27 313 115 437 154 212 66 382 99 698
136 135 15 262 31 280 35 35 7 139 4 355 -10z m-7611 -50 c107 -63 157 -97
152 -103 -3 -3 -34 13 -68 35 -35 22 -81 51 -103 64 -22 12 -43 28 -47 33 -4
6 -8 7 -8 3 0 -10 58 -185 65 -197 3 -5 25 -1 50 10 59 25 117 41 110 29 -4
-5 -13 -9 -22 -9 -8 0 -42 -12 -75 -27 -34 -15 -62 -22 -67 -17 -9 10 -71 194
-71 212 0 17 0 17 84 -33z m245 -158 c9 -7 41 -22 71 -34 141 -54 188 -66 290
-72 126 -8 157 -21 290 -121 52 -39 106 -73 120 -76 49 -10 111 -48 218 -133
59 -47 150 -113 202 -145 125 -79 318 -223 337 -253 13 -19 15 -42 9 -121 -19
-296 -19 -410 -3 -436 17 -26 47 -103 47 -122 0 -7 -61 -15 -169 -22 -182 -12
-230 -20 -526 -93 -71 -17 -159 -44 -194 -60 -35 -16 -69 -29 -75 -29 -6 0
-22 -9 -36 -20 -14 -11 -31 -20 -37 -20 -17 0 -136 -74 -205 -126 -31 -24 -62
-44 -68 -44 -14 0 -7 149 16 304 14 103 13 122 -5 88 -23 -43 -42 -152 -48
-275 l-6 -128 -31 6 c-17 4 -82 29 -144 56 -201 88 -289 112 -536 145 -111 15
-145 16 -235 6 -58 -7 -145 -23 -193 -36 -52 -15 -90 -21 -94 -15 -3 5 6 49
20 97 24 84 37 144 52 227 10 59 5 396 -7 495 -30 243 -34 237 141 250 69 5
172 14 230 20 58 6 197 15 309 20 192 9 207 8 265 -11 33 -11 77 -30 96 -41
19 -11 60 -24 90 -29 l55 -8 -55 3 c-40 2 -76 13 -135 42 l-79 39 -161 -3
c-88 -1 -236 -9 -330 -18 -93 -8 -221 -19 -284 -24 -141 -11 -153 -19 -147
-99 3 -31 9 -94 15 -141 13 -103 17 -425 6 -495 -10 -71 -33 -170 -56 -244
-10 -35 -19 -67 -19 -71 0 -5 39 2 88 16 48 13 135 29 193 36 90 10 124 9 235
-6 256 -34 383 -70 589 -166 33 -15 72 -30 88 -34 l27 -6 0 77 c1 178 50 376
86 340 3 -2 -2 -51 -10 -108 -8 -57 -17 -148 -21 -203 l-7 -99 58 45 c67 52
189 128 205 128 5 0 20 6 32 14 47 31 201 86 324 116 289 71 339 79 516 91 89
7 164 13 166 15 3 2 -10 38 -29 80 l-33 75 6 147 c4 81 10 193 13 250 6 91 5
104 -12 123 -29 33 -231 180 -334 244 -52 33 -104 67 -115 77 -108 95 -257
198 -285 198 -29 0 -51 13 -155 90 -133 100 -158 110 -261 110 -74 0 -102 6
-208 41 -66 23 -137 50 -157 61 l-36 20 -84 -22 c-116 -31 -119 -33 -119 -82
0 -23 -8 -66 -17 -96 -14 -45 -29 -65 -83 -114 -36 -32 -94 -78 -130 -102
-139 -92 -185 -121 -202 -128 -19 -8 -139 -87 -148 -98 -3 -3 -18 -16 -34 -28
l-28 -22 83 6 c46 3 118 9 159 14 171 21 354 32 495 29 150 -4 150 -4 229 -41
43 -21 90 -38 105 -39 14 0 35 -4 46 -9 13 -6 3 -7 -30 -3 -28 2 -83 21 -125
41 -75 37 -76 37 -225 41 -141 3 -324 -8 -495 -29 -41 -5 -114 -12 -162 -15
-74 -4 -88 -3 -88 10 0 8 3 15 8 15 4 0 18 10 32 23 30 27 142 105 168 115 17
7 79 46 202 128 36 24 95 70 132 104 73 66 98 117 98 201 0 26 4 50 9 53 14 9
184 54 205 55 11 1 27 -5 35 -12z m5121 -320 c0 -19 -112 -71 -225 -105 -196
-59 -251 -72 -340 -76 l-90 -5 85 9 c183 21 546 136 508 162 -8 5 -2 6 14 2
20 -4 29 -2 34 10 7 19 14 21 14 3z m-4060 -211 c0 -8 -4 -17 -9 -20 -4 -3
-77 -12 -162 -21 -85 -8 -170 -19 -189 -24 -100 -25 -159 -47 -198 -73 -77
-53 -202 -87 -202 -54 0 8 16 16 43 19 40 6 130 48 142 67 9 15 192 68 290 84
221 38 285 42 285 22z m-1941 -119 c-2 -1 -12 -9 -22 -16 -15 -12 -17 -12 -11
3 3 9 13 16 22 16 8 0 13 -1 11 -3z m-1004 -208 c-5 -15 -4 -19 4 -15 6 4 11
15 12 24 0 11 2 13 6 4 3 -7 -15 -43 -39 -80 -24 -37 -66 -106 -93 -154 -44
-80 -75 -110 -75 -74 0 25 173 315 188 316 2 0 0 -10 -3 -21z m3714 -775 c71
-60 275 -341 339 -469 85 -169 134 -415 136 -685 1 -175 -7 -240 -28 -240 -11
0 -13 30 -8 153 9 291 -46 592 -141 767 -81 149 -276 420 -329 456 -30 20 -37
44 -14 44 8 0 28 -12 45 -26z m821 -39 c1 19 1 19 13 -2 7 -11 50 -55 97 -96
144 -126 291 -286 352 -382 64 -102 73 -130 44 -130 -15 0 -38 30 -85 110 -55
91 -89 133 -196 241 -71 72 -153 151 -182 175 -35 29 -54 54 -58 74 -4 24 -3
26 4 10 l10 -20 1 20z m-5135 -94 c25 -24 117 -88 181 -127 17 -10 17 -13 -6
-70 -35 -87 -89 -194 -99 -194 -11 0 -90 27 -116 40 -11 5 -32 14 -47 20 -16
5 -28 16 -28 25 0 17 13 19 38 5 22 -13 120 -50 131 -50 8 0 101 176 101 191
0 4 -31 25 -68 47 -65 39 -142 110 -142 132 0 18 24 10 55 -19z m5712 -91 c3
-10 2 -11 -4 -4 -4 7 -17 14 -28 17 -16 5 -15 5 4 4 14 -1 26 -9 28 -17z
m-4277 -1 c0 -6 -11 -54 -24 -107 -14 -53 -29 -131 -35 -172 -6 -41 -18 -121
-26 -176 -19 -129 -19 -345 -1 -451 8 -45 27 -131 41 -192 26 -108 29 -161 10
-162 -17 -1 -55 119 -87 275 -42 205 -42 361 1 627 31 192 83 369 108 369 7 0
13 -5 13 -11z"/>
<path d="M4880 2679 c-203 -28 -394 -74 -430 -103 -37 -31 -97 -61 -144 -72
-28 -7 -41 -13 -29 -13 35 -1 114 28 168 64 45 29 102 51 205 76 19 5 102 16
184 24 83 8 154 19 160 25 12 12 -20 12 -114 -1z"/>
<path d="M2023 2297 c-42 -59 -136 -227 -130 -233 3 -3 29 37 57 88 29 51 66
112 83 135 17 24 28 45 25 48 -2 3 -18 -14 -35 -38z"/>
<path d="M5761 1567 c70 -63 236 -289 323 -440 90 -156 139 -413 140 -724 1
-139 4 -196 11 -185 6 10 10 93 9 197 -1 293 -51 541 -141 705 -85 154 -314
466 -334 454 -5 -3 -9 -1 -9 4 0 6 -8 13 -17 16 -10 3 -2 -9 18 -27z"/>
<path d="M6600 1521 c0 -6 10 -19 22 -29 115 -92 325 -308 374 -385 24 -37 44
-69 44 -72 0 -11 63 -95 71 -95 13 0 -1 24 -77 141 -60 89 -210 252 -340 367
-27 24 -59 53 -71 64 -13 11 -23 15 -23 9z"/>
<path d="M1430 1450 c12 -22 140 -116 179 -131 29 -12 25 -31 -31 -146 -26
-55 -45 -83 -56 -83 -10 1 -50 14 -89 29 -40 16 -73 26 -73 22 0 -7 133 -58
163 -63 22 -3 65 67 102 166 18 47 21 66 12 75 -6 6 -15 11 -20 11 -15 0 -159
103 -171 122 -15 25 -29 23 -16 -2z"/>
<path d="M2875 1343 c-64 -158 -115 -452 -117 -672 -1 -127 3 -165 30 -297 34
-163 74 -286 80 -246 2 13 -8 73 -23 133 -14 61 -33 147 -41 192 -18 106 -18
322 1 451 8 55 20 135 26 176 6 41 22 119 35 174 23 90 27 133 9 89z"/>
<path d="M5350 7103 c84 -171 106 -225 153 -363 100 -300 116 -408 124 -834
l6 -299 34 -46 c19 -25 68 -111 109 -191 42 -80 95 -179 119 -220 l43 -75 -5
-87 c-4 -61 -2 -92 6 -102 9 -11 9 -27 -3 -73 -8 -32 -24 -101 -35 -153 -11
-52 -43 -194 -70 -316 l-50 -221 35 -133 c19 -73 52 -174 73 -224 22 -50 50
-121 62 -158 l24 -67 100 -35 c90 -31 196 -62 295 -87 19 -5 71 -13 115 -18
44 -6 154 -20 245 -32 147 -19 196 -21 460 -16 350 6 614 -4 766 -31 153 -28
383 -95 499 -147 28 -12 75 -33 105 -46 60 -25 193 -102 225 -129 11 -10 55
-38 97 -64 l77 -46 54 34 c91 59 317 165 350 166 5 0 23 6 40 14 18 7 50 20
72 29 22 8 58 22 80 30 427 165 621 218 970 266 152 22 300 34 480 42 363 16
586 8 857 -32 l77 -11 43 35 c55 45 133 93 233 147 242 129 362 189 465 231
l115 47 3 1656 2 1656 -3749 0 -3750 0 49 -97z"/>
<path d="M2590 6619 c-22 -17 -35 -19 -125 -14 l-100 6 -23 -33 c-12 -18 -45
-58 -72 -88 -47 -52 -50 -54 -102 -55 -90 -1 -93 -6 -108 -147 -6 -68 -16
-188 -20 -268 -7 -129 -5 -161 16 -285 26 -157 51 -239 102 -335 19 -36 43
-83 54 -105 11 -22 29 -60 41 -84 12 -24 30 -46 40 -48 9 -3 17 -12 17 -19 0
-40 70 -206 145 -342 113 -207 286 -390 450 -475 28 -15 77 -42 110 -62 61
-36 299 -155 310 -155 3 0 26 -9 49 -20 108 -49 364 -78 451 -51 225 70 390
156 471 245 61 67 178 248 223 346 36 77 61 204 61 315 0 77 -11 125 -89 384
l-7 24 -175 2 c-274 3 -379 27 -669 148 -226 95 -384 210 -547 396 -113 129
-190 255 -324 529 -22 45 -46 82 -54 82 -15 0 -46 36 -78 92 l-22 37 -25 -20z
m148 -684 c-5 -24 7 -36 14 -15 9 27 206 -194 240 -270 22 -48 40 -70 57 -70
6 0 11 -18 11 -41 0 -48 -24 -51 -27 -3 l-2 29 9 -30 8 -30 1 30 c1 20 -6 34
-19 43 -17 10 -20 10 -21 -5 -1 -10 -5 -2 -9 17 l-7 35 -2 -36 c0 -20 2 -39 6
-42 7 -8 4 -126 -7 -222 -6 -51 -7 -36 -3 60 2 72 6 135 8 142 2 7 0 15 -4 17
-5 3 -11 -38 -14 -92 -17 -266 -19 -322 -11 -322 5 0 7 28 6 62 -2 35 -2 61 1
58 3 -3 7 -32 8 -65 2 -51 0 -60 -15 -63 -18 -4 -18 3 -12 124 4 71 11 182 17
248 10 117 10 119 -14 155 -35 52 -114 148 -173 208 -45 47 -56 53 -91 53 -87
0 -188 -31 -331 -103 -24 -12 -78 -58 -120 -102 -59 -62 -69 -70 -45 -35 58
86 120 133 239 183 114 48 186 67 255 67 29 0 39 4 39 16 0 14 -8 16 -57 10
-85 -10 -199 -44 -275 -82 -72 -36 -174 -125 -209 -180 -12 -19 -24 -33 -26
-30 -9 9 66 103 115 147 61 53 146 96 252 124 99 28 122 32 174 34 36 1 38 -1
34 -24z m74 -272 c-9 -4 -6 -14 13 -38 14 -19 25 -43 25 -54 0 -21 -46 -62
-147 -130 -35 -23 -63 -46 -63 -51 0 -21 -168 -90 -219 -90 -14 0 -38 -6 -53
-14 -38 -20 -88 -30 -88 -17 0 6 10 36 22 68 74 201 188 292 396 317 127 16
131 16 114 9z m328 -81 c0 -39 -21 -40 -31 -1 -6 20 -7 18 -8 -13 -1 -27 -6
-38 -16 -38 -11 0 -15 12 -15 44 l0 45 35 -2 c33 -2 35 -4 35 -35z m-110 -97
c0 -8 -4 -15 -10 -15 -5 0 -7 7 -4 15 4 8 8 15 10 15 2 0 4 -7 4 -15z m86
-346 c125 -134 134 -149 92 -149 -25 0 -222 80 -214 87 2 2 21 -3 41 -12 21
-8 40 -13 43 -11 2 3 -14 13 -37 22 -23 9 -40 19 -37 21 3 3 24 -4 48 -15 57
-27 139 -62 145 -62 10 0 -45 69 -107 135 -36 39 -72 79 -80 90 l-14 20 20
-20 c11 -11 56 -59 100 -106z m33 -74 c7 -11 -23 17 -68 63 -44 46 -81 87 -81
92 0 9 129 -124 149 -155z m-677 53 c6 -53 1 -68 -22 -68 -25 0 -30 21 -18 69
14 54 35 53 40 -1z m-98 -18 c-4 -19 -2 -30 5 -30 6 0 12 15 12 33 1 18 3 24
6 14 6 -25 -5 -67 -18 -67 -15 0 -22 27 -15 55 9 35 17 31 10 -5z m1634 -241
c-2 -12 -12 -27 -23 -33 -11 -6 -40 -25 -65 -42 -27 -18 -56 -30 -70 -28 -14
1 -38 -4 -55 -12 -16 -8 -59 -25 -95 -39 -36 -14 -54 -23 -41 -21 14 3 31 0
37 -5 9 -8 30 -3 73 16 33 15 59 31 56 34 -2 4 5 8 16 8 37 3 3 -23 -69 -53
-37 -16 -82 -37 -101 -47 -89 -48 -246 -102 -328 -113 -36 -4 -57 -12 -63 -24
-5 -9 -23 -23 -41 -30 -26 -11 -32 -11 -40 1 -19 30 -9 46 39 64 26 10 72 30
102 46 66 33 253 109 270 109 6 0 46 12 88 27 82 29 160 72 230 128 51 41 85
46 80 14z m-273 -159 c-3 -5 -14 -10 -23 -10 -15 0 -15 2 -2 10 20 13 33 13
25 0z m615 -319 c-29 -42 -36 -39 -8 3 13 19 24 33 26 31 3 -2 -6 -18 -18 -34z"/>
<path d="M2815 5838 c37 -40 88 -100 113 -133 58 -78 62 -81 62 -68 0 26 -210
273 -232 273 -5 0 20 -33 57 -72z"/>
<path d="M2657 5639 c-81 -9 -180 -62 -243 -131 -58 -64 -146 -248 -111 -235
31 12 117 37 161 47 69 15 128 44 172 85 22 19 72 59 113 88 97 68 101 75 66
121 -30 40 -33 40 -158 25z m106 -16 c-7 -2 -21 -2 -30 0 -10 3 -4 5 12 5 17
0 24 -2 18 -5z m-100 -10 c-13 -2 -23 -10 -23 -17 0 -7 -8 -20 -18 -30 -31
-27 -47 -89 -33 -127 16 -46 16 -46 -36 -73 -50 -25 -190 -63 -199 -54 -10 11
20 104 48 150 17 27 49 59 77 77 59 38 159 80 186 79 17 -1 17 -1 -2 -5z m14
-19 c-3 -3 -12 -4 -19 -1 -8 3 -5 6 6 6 11 1 17 -2 13 -5z"/>
<path d="M2576 5580 c-111 -55 -180 -124 -200 -197 -3 -13 -9 -32 -12 -44 -5
-19 -3 -20 28 -14 58 11 132 37 165 57 30 18 31 20 21 55 -12 44 3 107 35 141
25 27 15 27 -37 2z"/>
<path d="M3083 5575 c0 -22 2 -30 4 -17 2 12 2 30 0 40 -3 9 -5 -1 -4 -23z"/>
<path d="M3122 5580 c0 -14 2 -19 5 -12 2 6 2 18 0 25 -3 6 -5 1 -5 -13z"/>
<path d="M3120 5029 c59 -26 106 -36 96 -20 -4 6 -11 9 -16 6 -4 -3 -29 4 -55
15 -26 11 -52 20 -58 19 -7 0 8 -9 33 -20z"/>
<path d="M2442 5115 c-8 -26 -8 -43 -2 -49 18 -18 28 7 21 49 l-7 40 -12 -40z"/>
<path d="M3907 4815 c-38 -30 -65 -55 -60 -55 15 1 147 86 151 98 8 25 -26 9
-91 -43z"/>
<path d="M3580 4673 c-42 -15 -228 -98 -246 -110 -12 -7 -46 -22 -75 -33 -37
-13 -54 -24 -54 -36 0 -28 19 -26 54 5 24 21 47 31 87 36 31 4 83 16 117 27
78 25 239 99 232 106 -8 8 -97 11 -115 5z m70 -13 c11 -8 7 -9 -15 -4 -20 4
-26 3 -17 -4 11 -7 11 -10 -3 -15 -9 -4 -13 -3 -10 3 9 14 -15 12 -45 -3 -14
-7 -54 -24 -89 -37 -36 -13 -60 -25 -54 -27 6 -2 46 10 89 26 43 17 80 29 82
27 5 -6 -156 -66 -186 -70 -15 -2 -18 -1 -7 2 18 4 18 5 3 11 -11 4 22 22 100
53 128 52 130 52 152 38z"/>
<path d="M2930 6155 c0 -3 13 -28 29 -56 76 -134 268 -336 419 -443 113 -79
283 -159 345 -162 26 -1 53 -7 60 -12 17 -14 156 -49 243 -62 81 -11 444 -33
450 -28 2 3 -75 14 -171 27 -95 12 -216 33 -267 46 -105 27 -365 109 -418 132
-19 9 -55 25 -80 35 -214 94 -346 204 -525 438 -51 68 -85 101 -85 85z m81
-102 c13 -16 12 -17 -3 -4 -10 7 -18 15 -18 17 0 8 8 3 21 -13z m183 -207
c139 -135 329 -262 480 -321 22 -8 37 -18 33 -21 -10 -11 -237 104 -319 162
-87 61 -282 248 -337 324 -32 44 -32 44 10 -5 23 -27 83 -90 133 -139z"/>
<path d="M7530 1282 c0 -6 11 -63 25 -128 23 -109 27 -121 59 -149 19 -16 70
-45 113 -64 104 -46 159 -84 171 -120 6 -17 8 -63 5 -104 -4 -54 -1 -86 10
-118 14 -39 67 -205 137 -428 13 -40 37 -95 54 -122 l31 -48 2333 0 2332 -1 0
40 0 40 -67 0 c-38 0 -120 6 -183 14 -63 8 -158 17 -210 21 -92 6 -187 15
-375 36 -128 15 -452 74 -624 115 -80 19 -166 39 -191 44 -25 5 -76 16 -115
25 -38 8 -104 22 -145 31 -190 39 -590 149 -800 220 -336 114 -438 153 -580
224 -52 26 -122 58 -155 70 -33 13 -65 27 -70 31 -19 14 -238 50 -370 60 -71
5 -182 14 -245 19 -216 16 -368 50 -585 130 -217 80 -293 104 -435 140 -47 11
-93 23 -102 26 -10 3 -18 1 -18 -4z"/>
<path d="M1462 919 c-67 -230 -127 -573 -136 -784 -7 -183 0 -162 13 35 15
223 78 570 137 753 9 26 14 52 12 59 -2 6 -14 -22 -26 -63z"/>
<path d="M281 65 c-24 -64 -24 -65 -11 -65 6 0 10 8 10 18 1 9 7 35 15 57 8
21 12 41 11 43 -2 2 -13 -22 -25 -53z"/>
</g>
</svg>
