<?xml version="1.0" standalone="no"?>
<!DOCTYPE svg PUBLIC "-//W3C//DTD SVG 20010904//EN"
 "http://www.w3.org/TR/2001/REC-SVG-20010904/DTD/svg10.dtd">
<svg version="1.0" xmlns="http://www.w3.org/2000/svg"
 width="1280.000000pt" height="720.000000pt" viewBox="0 0 1280.000000 720.000000"
 preserveAspectRatio="xMidYMid meet">
<metadata>
Created by potrace 1.16, written by Peter Selinger 2001-2019
</metadata>
<g transform="translate(0.000000,720.000000) scale(0.100000,-0.100000)"
fill="#000000" stroke="none">
<path d="M0 3600 l0 -3600 60 0 c45 0 60 4 60 14 0 8 15 35 34 59 19 25 32 48
29 51 -3 3 -12 -2 -20 -12 -8 -9 6 21 30 68 78 148 170 333 194 390 56 132
157 391 188 481 24 71 45 112 74 147 l41 48 -9 74 c-8 64 -7 80 9 116 11 22
30 48 43 57 39 26 86 76 113 123 26 43 27 51 28 207 1 159 1 163 32 228 54
114 135 171 289 204 101 21 363 94 390 108 11 5 23 16 27 22 4 7 23 16 42 19
107 20 456 139 456 155 0 29 -33 108 -63 148 -89 123 -111 212 -137 553 -5 74
-14 194 -20 265 -5 72 -12 276 -15 455 -3 179 -8 381 -11 450 -13 282 -63 739
-83 764 -11 13 -60 178 -102 344 -79 315 -93 755 -33 1047 16 79 35 135 71
215 14 30 31 71 38 90 7 20 24 58 38 85 14 28 32 66 40 85 39 89 57 133 57
136 0 2 -425 4 -945 4 l-945 0 0 -3600z"/>
<path d="M1889 7162 c-8 -20 -35 -80 -58 -132 -158 -350 -170 -385 -196 -580
-32 -232 -13 -628 41 -859 25 -111 96 -354 111 -384 26 -51 74 -475 87 -777 3
-69 8 -271 11 -450 3 -179 10 -383 15 -455 6 -71 15 -191 20 -265 26 -339 45
-417 132 -536 31 -43 68 -134 68 -170 0 -17 -241 -102 -444 -156 -27 -7 -47
-17 -45 -21 2 -5 -14 -15 -36 -23 -65 -23 -313 -91 -400 -110 -140 -30 -225
-91 -280 -201 -29 -56 -30 -63 -32 -213 -1 -85 -2 -162 -2 -171 -2 -28 -78
-133 -121 -163 -22 -17 -49 -46 -59 -67 -17 -32 -18 -45 -10 -114 l10 -78 -40
-47 c-46 -54 -43 -48 -106 -225 -82 -226 -184 -464 -280 -652 -52 -101 -90
-185 -85 -188 4 -3 17 14 29 38 12 23 21 36 21 29 0 -19 -16 -47 -66 -115 -24
-32 -44 -63 -44 -68 0 -5 249 -9 584 -9 l584 0 6 22 c3 13 6 50 6 84 0 33 6
109 14 170 16 117 81 513 96 579 5 22 16 75 25 118 9 43 18 77 21 75 2 -2 -8
-58 -21 -124 -34 -159 -101 -565 -114 -684 -13 -118 -20 -242 -13 -236 14 14
80 425 137 855 13 101 27 186 30 189 7 7 8 23 -20 -188 -52 -391 -98 -684
-131 -837 l-4 -23 3410 0 3410 0 -16 26 c-17 25 -81 64 -107 64 -18 0 -28 26
-62 150 -29 104 -61 204 -76 235 -41 90 -47 148 -24 235 35 132 17 162 -130
215 -145 52 -176 67 -190 90 -7 11 -15 63 -18 115 -3 52 -9 106 -13 119 l-7
24 72 -7 c40 -3 86 -13 101 -21 16 -8 76 -31 132 -51 57 -19 112 -39 123 -44
44 -19 213 -69 270 -81 34 -6 99 -9 150 -7 50 3 74 2 55 -1 -34 -6 -33 -7 20
-14 30 -4 116 -7 190 -7 187 0 307 -21 505 -89 33 -11 87 -26 120 -32 99 -19
294 -76 390 -112 114 -44 344 -135 370 -148 62 -28 497 -173 705 -234 52 -16
114 -34 138 -42 55 -17 554 -139 607 -148 22 -4 65 -14 95 -22 261 -67 740
-133 1148 -158 l102 -6 0 1528 0 1529 -57 16 c-32 9 -96 28 -143 42 -257 80
-337 98 -645 150 -451 75 -502 78 -840 56 -579 -38 -1091 -134 -1390 -260 -11
-5 -31 -12 -45 -15 -22 -6 -39 -13 -115 -46 -11 -4 -58 -22 -105 -40 -47 -17
-89 -35 -94 -40 -6 -5 -16 -9 -23 -9 -7 0 -68 -26 -136 -59 -67 -32 -135 -61
-152 -65 -16 -4 -43 -13 -60 -20 -16 -7 -57 -21 -90 -31 -33 -9 -73 -23 -90
-30 -32 -14 -222 -41 -230 -33 -3 3 41 11 97 18 57 7 110 16 118 21 8 4 74 26
145 49 72 23 176 64 233 91 57 27 105 49 108 49 2 0 23 8 47 19 43 19 247 99
372 146 379 143 826 227 1410 265 244 16 388 15 510 -4 626 -96 695 -111 1089
-237 74 -24 86 -24 86 -1 0 14 -15 23 -62 37 -35 10 -96 34 -136 52 -83 39
-221 72 -434 105 -87 13 -141 25 -131 30 14 5 14 7 3 8 -8 1 21 14 65 29 109
38 109 38 315 131 63 29 169 72 235 97 66 24 125 49 132 55 12 10 19 68 8 68
-12 0 -235 -85 -295 -112 -113 -51 -403 -198 -464 -236 l-59 -35 -186 21
c-406 48 -562 52 -856 27 -530 -46 -1015 -152 -1340 -295 -22 -9 -71 -30 -110
-45 -38 -16 -118 -52 -178 -82 -127 -63 -220 -101 -377 -154 -129 -44 -150
-47 -150 -21 0 22 -40 64 -145 152 -115 96 -164 129 -302 198 -140 70 -210 93
-274 91 -24 -1 -96 10 -159 24 -298 67 -520 91 -765 82 -162 -5 -214 -3 -350
15 -88 11 -214 27 -280 35 -66 8 -145 22 -175 30 -51 14 -372 85 -384 85 -4 0
-6 6 -6 14 0 7 -7 19 -15 26 -8 7 -15 20 -15 29 1 10 6 6 16 -11 8 -16 19 -28
25 -28 6 0 8 -4 5 -9 -3 -5 1 -11 9 -15 25 -9 17 14 -23 63 -33 40 -60 88 -93
166 -14 33 -56 224 -69 312 -11 77 -11 86 14 170 14 48 33 135 41 193 9 58 27
143 40 190 14 47 32 139 40 205 l17 121 -26 90 c-14 50 -32 104 -41 120 -8 16
-15 32 -15 36 0 12 -97 175 -151 252 -108 155 -159 240 -165 275 -3 20 -14 72
-25 116 -10 46 -23 156 -28 255 -13 218 -32 332 -97 570 -59 217 -104 352
-147 442 l-42 88 -1645 0 -1645 -1 -16 -37z m550 -551 c33 -10 78 -33 100 -51
l41 -31 11 25 c17 36 33 32 48 -11 16 -46 76 -149 149 -258 30 -43 58 -88 62
-100 4 -11 36 -51 70 -90 34 -38 83 -96 108 -128 36 -46 48 -55 59 -45 11 9
22 3 56 -29 83 -80 255 -191 432 -281 175 -89 356 -153 540 -192 108 -23 273
-27 281 -7 9 25 33 14 40 -17 3 -17 12 -40 18 -51 7 -11 21 -45 31 -75 10 -30
21 -59 25 -65 18 -23 61 -207 66 -285 14 -199 -121 -631 -213 -683 -18 -11
-33 -15 -33 -10 0 4 14 16 30 25 77 44 210 440 210 623 0 28 -5 79 -11 115
-10 68 -80 283 -108 335 -15 30 -17 30 -51 18 -29 -10 -31 -12 -11 -12 13 -1
21 -4 17 -8 -4 -5 -56 -8 -116 -8 -120 0 -125 9 -10 19 116 11 152 23 148 49
-2 14 -9 20 -18 17 -8 -2 -55 -6 -103 -8 -129 -5 -291 31 -522 115 -215 79
-535 262 -637 365 -48 49 -76 66 -42 26 l19 -23 -22 19 c-42 35 -24 4 54 -93
153 -192 318 -330 493 -414 159 -77 251 -97 475 -107 l170 -7 -136 -1 c-168
-2 -289 17 -425 68 -248 92 -404 220 -642 522 -66 84 -148 185 -182 223 -34
39 -66 79 -70 90 -4 12 -32 57 -62 100 -70 103 -106 166 -139 238 -25 56 -26
57 -37 32 -15 -33 -24 -32 -79 10 -48 36 -125 65 -175 65 -26 0 -32 -6 -53
-57 -57 -135 -66 -147 -113 -155 -24 -4 -63 -3 -88 1 -24 5 -46 5 -49 2 -17
-29 -38 -226 -42 -411 -4 -173 -2 -234 11 -312 30 -173 51 -228 155 -408 30
-52 66 -117 79 -145 14 -27 34 -63 46 -80 12 -16 30 -48 40 -70 43 -94 103
-214 132 -264 82 -137 229 -273 464 -428 51 -34 291 -153 370 -183 19 -7 82
-33 139 -57 58 -24 116 -44 130 -44 99 1 131 -1 157 -9 21 -6 13 -7 -31 -3
-33 2 -65 6 -71 8 -6 2 -17 -1 -25 -6 -11 -7 -10 -9 6 -10 11 0 15 -3 8 -5
-11 -5 -133 39 -228 81 -28 13 -73 30 -100 39 -27 9 -60 23 -74 31 -14 8 -74
37 -132 64 -252 116 -515 333 -623 512 -18 30 -58 110 -90 179 -32 69 -65 132
-73 141 -7 9 -28 45 -46 80 -18 35 -56 102 -83 149 -101 173 -129 250 -160
429 -21 124 -15 466 11 621 9 58 20 108 24 112 3 4 28 2 54 -2 26 -5 64 -6 85
-2 39 8 54 30 110 160 21 48 25 52 56 52 19 0 61 -8 95 -19z m240 -630 c8 -5
11 -17 7 -28 -5 -15 -22 -22 -84 -32 -114 -19 -211 -48 -251 -74 -75 -50 -139
-117 -174 -184 -41 -76 -51 -70 -12 7 31 62 70 106 140 160 58 45 147 75 292
101 67 11 96 30 72 45 -6 3 -50 3 -99 -1 -81 -6 -96 -11 -171 -53 -95 -54
-209 -155 -235 -209 -10 -21 -23 -58 -30 -83 -7 -25 -13 -35 -13 -23 -1 12 8
48 20 80 42 116 249 277 377 293 82 11 145 11 161 1z m2526 -29 c12 -8 49 -90
65 -145 7 -21 14 -36 17 -33 3 3 0 19 -6 37 -6 18 -11 51 -11 74 0 50 28 75
82 75 35 0 31 5 75 -100 45 -106 104 -220 113 -220 6 0 9 -4 6 -8 -2 -4 9 -32
25 -62 16 -29 29 -58 29 -63 0 -5 27 -66 61 -135 60 -123 61 -126 60 -206 -1
-98 -21 -213 -68 -408 -36 -147 -38 -193 -8 -168 8 7 15 21 15 31 0 10 16 80
34 156 37 146 66 330 66 415 0 40 -8 65 -41 125 -23 41 -38 77 -35 80 3 4 6 2
6 -3 0 -6 7 -19 16 -30 15 -19 16 -19 10 1 -5 16 -3 16 13 -5 30 -38 99 -182
127 -268 l26 -76 -32 -246 c-30 -231 -74 -444 -189 -910 -10 -41 -25 -105 -32
-142 -15 -79 -25 -84 -81 -38 -19 16 -77 50 -129 75 -51 25 -86 45 -78 45 22
0 185 -85 220 -114 17 -14 34 -24 39 -21 4 3 13 29 20 57 6 29 20 89 30 133
147 618 159 677 190 912 34 261 33 272 -12 373 -72 158 -99 212 -104 208 -3
-3 6 -29 20 -57 31 -59 33 -107 11 -261 -14 -100 -77 -389 -96 -438 -11 -29
-43 -26 -47 5 -2 11 13 86 32 165 46 190 66 306 67 404 1 75 -2 86 -34 145
-19 35 -47 93 -62 129 -40 98 -54 127 -91 188 -18 31 -59 116 -90 189 -52 123
-58 133 -82 133 -15 0 -38 -9 -51 -19 -21 -16 -23 -24 -19 -67 3 -27 13 -67
23 -89 52 -115 114 -231 149 -277 75 -101 96 -225 64 -384 -9 -44 -26 -157
-38 -249 -11 -93 -26 -175 -32 -182 -6 -7 -8 -24 -6 -38 3 -14 1 -25 -3 -25
-12 0 -11 64 1 76 6 6 19 82 30 170 11 87 28 197 37 244 20 101 20 209 -1 268
-9 24 -40 80 -71 126 -30 45 -75 125 -100 177 -24 52 -45 88 -45 82 0 -23 78
-181 126 -255 26 -40 47 -81 45 -91 -1 -10 2 -24 8 -31 6 -7 17 -45 26 -84 14
-69 14 -80 -10 -230 -14 -86 -34 -207 -45 -268 -22 -124 -25 -190 -10 -197 6
-3 5 -4 -2 -3 -21 4 -21 72 1 195 62 344 72 427 58 493 -8 35 -19 73 -25 85
-7 12 -12 30 -12 40 0 10 -14 38 -31 63 -30 45 -124 229 -145 285 -6 17 -24
64 -41 105 -28 72 -31 75 -64 78 -43 4 -50 -4 -78 -87 -40 -122 -28 -225 60
-500 21 -68 39 -140 39 -159 0 -93 -65 -324 -126 -448 -20 -39 -41 -104 -49
-145 -9 -49 -13 -62 -14 -39 -1 50 22 129 62 213 19 39 43 97 52 127 10 30 22
63 26 72 10 20 28 121 36 194 4 42 -2 76 -35 180 -89 282 -100 375 -61 507 12
40 26 78 32 85 10 13 76 16 92 4z m-2485 -52 c11 19 181 -148 240 -235 57 -86
62 -98 46 -121 -7 -11 -16 -53 -19 -94 -4 -41 -9 -96 -13 -122 -8 -55 4 -74
130 -209 45 -48 92 -102 106 -120 34 -46 36 -91 2 -57 -17 17 -15 33 3 18 9
-7 15 -8 15 -2 0 5 -11 17 -25 26 -14 9 -25 22 -25 28 0 6 -31 43 -68 82 -37
39 -80 87 -95 106 -15 19 -27 30 -27 23 0 -15 37 -61 119 -147 36 -38 50 -57
31 -42 -53 42 -161 169 -158 186 1 8 -2 22 -7 30 -5 8 -12 35 -16 60 -4 26 -6
-9 -5 -84 l1 -129 30 -18 c17 -10 37 -18 45 -18 8 0 -3 10 -25 22 l-40 23 -1
69 -1 70 6 -67 c6 -67 7 -68 46 -88 21 -11 44 -20 50 -20 5 0 26 -14 45 -31
l35 -30 -43 26 c-24 14 -48 25 -54 23 -6 -2 24 -24 66 -48 43 -25 73 -46 66
-48 -6 -2 -17 2 -25 8 -18 15 -59 39 -136 79 -30 16 -61 37 -68 45 -14 16 -12
162 5 386 5 72 4 88 -10 99 -9 7 -16 19 -16 26 0 7 -6 18 -14 24 -11 10 -27 6
-76 -19 -34 -17 -64 -29 -67 -26 -5 5 116 66 133 66 6 0 23 -19 38 -42 28 -42
28 -45 23 -153 -3 -72 -2 -96 3 -70 5 22 9 63 9 90 1 28 7 60 15 71 14 19 11
27 -33 93 -47 72 -214 251 -233 251 -6 0 28 -39 76 -87 52 -53 86 -95 86 -107
0 -23 -65 -57 -134 -70 -72 -14 -403 -193 -449 -244 -10 -11 -20 -42 -24 -71
l-6 -51 29 0 c58 0 191 46 255 87 27 18 35 29 32 44 -4 14 0 19 13 19 16 0 16
-2 4 -10 -8 -5 -11 -12 -8 -16 4 -3 19 3 35 13 15 11 53 32 83 48 82 42 121
70 157 116 40 50 36 64 -4 19 -27 -30 -31 -31 -63 -21 l-35 11 39 -6 c34 -5
38 -3 32 12 -4 10 -4 15 0 11 4 -4 18 3 31 15 18 17 26 19 35 10 9 -9 6 -18
-15 -40 -15 -15 -27 -33 -27 -38 0 -14 -72 -65 -140 -99 -30 -15 -80 -45 -110
-65 -30 -20 -73 -46 -95 -57 -57 -29 -175 -63 -220 -63 l-38 0 7 62 c3 36 13
69 23 81 44 47 353 216 437 238 81 20 146 51 146 68 0 10 -40 57 -90 105 -49
49 -89 96 -89 105 1 12 3 11 6 -3 4 -14 7 -16 13 -6z m635 -273 c90 -87 203
-166 315 -219 153 -71 267 -98 470 -108 l155 -8 -160 3 c-163 4 -243 17 -376
63 -210 74 -411 225 -578 437 l-62 80 77 -85 c43 -47 114 -120 159 -163z
m1214 170 c15 -19 84 -144 144 -262 64 -126 102 -185 164 -256 97 -110 97
-110 90 -283 -6 -139 4 -376 17 -436 3 -14 -1 -5 -10 20 -13 36 -16 95 -16
310 l-1 265 -26 35 c-14 19 -45 58 -70 85 -56 64 -83 106 -148 233 -66 129
-121 229 -146 265 -24 35 -52 33 -81 -6 -19 -26 -21 -41 -19 -142 2 -105 20
-211 43 -260 40 -82 83 -242 95 -350 8 -66 19 -141 26 -167 10 -38 11 -65 2
-127 -14 -96 -75 -283 -107 -331 -13 -19 -27 -46 -31 -60 -8 -25 -121 -150
-136 -150 -5 0 -35 -17 -66 -37 -135 -87 -397 -183 -512 -188 l-76 -4 78 9
c76 9 184 41 277 82 204 91 275 132 349 202 29 28 63 71 75 96 12 25 30 58 40
73 63 94 126 380 97 436 -5 9 -16 77 -25 151 -12 107 -23 159 -56 250 -58 164
-77 242 -84 350 -7 97 0 143 29 186 17 27 65 33 84 11z m926 -8 c10 -30 0 -33
-13 -4 -6 14 -7 25 -2 25 5 0 12 -9 15 -21z m-2385 -229 c3 33 3 33 7 7 3 -16
2 -36 -2 -45 -5 -14 -7 -14 -15 -2 -6 8 -9 29 -9 45 2 30 2 30 9 -5 l7 -35 3
35z m-42 -53 c2 -27 -1 -37 -11 -37 -14 0 -29 64 -18 76 13 12 26 -6 29 -39z
m-61 -34 c-3 -10 -5 -2 -5 17 0 19 2 27 5 18 2 -10 2 -26 0 -35z m15 -29 c-6
-11 -11 -13 -16 -5 -4 6 -2 11 3 11 6 0 12 17 13 38 1 36 1 36 5 5 2 -18 0
-40 -5 -49z m-452 -28 l0 -43 -81 -37 c-44 -20 -89 -36 -100 -36 -52 0 15 84
104 129 27 14 50 28 53 33 12 18 24 -6 24 -46z m-92 -323 c3 -46 -11 -83 -32
-83 -16 0 -26 21 -26 55 0 78 53 103 58 28z m3328 38 c-4 -5 0 -12 6 -14 8 -3
6 -6 -4 -6 -10 -1 -18 6 -18 14 0 8 5 15 11 15 5 0 8 -4 5 -9z m-3401 -43
c-10 -64 -15 -78 -30 -78 -29 0 -30 94 -1 112 28 19 38 8 31 -34z m3490 -235
c-4 -41 -9 -72 -11 -70 -3 2 -2 42 2 88 4 46 9 78 12 71 2 -8 1 -47 -3 -89z
m22 75 c-3 -8 -6 -5 -6 6 -1 11 2 17 5 13 3 -3 4 -12 1 -19z m-1891 -33 c14
-35 -7 -65 -74 -108 -37 -24 -80 -58 -96 -76 -17 -17 -34 -31 -39 -31 -5 0
-62 -25 -126 -56 -112 -53 -297 -114 -350 -114 -13 0 -34 -9 -45 -19 -22 -20
-45 -25 -108 -23 -33 2 -38 5 -38 27 0 25 13 30 98 39 22 2 46 16 72 41 21 20
49 43 62 51 57 33 139 67 213 90 293 90 276 83 332 141 52 53 88 67 99 38z
m582 -162 l-1 -48 -7 40 c-6 32 -7 27 -5 -25 2 -47 0 -58 -6 -40 -7 19 -8 14
-4 -20 3 -34 2 -40 -6 -25 -7 16 -8 12 -4 -15 3 -20 1 -29 -3 -22 -5 8 -15
-15 -26 -62 -9 -41 -24 -82 -32 -92 -11 -16 -11 -11 2 26 26 75 64 243 64 281
0 20 3 39 7 42 16 17 23 4 21 -40z m1269 -10 c-3 -10 -5 -2 -5 17 0 19 2 27 5
18 2 -10 2 -26 0 -35z m-2970 -500 c-9 -2 -14 -9 -11 -15 4 -7 2 -8 -4 -4 -20
12 -13 26 11 25 17 -1 18 -2 4 -6z m1448 -11 c-22 -19 -89 -54 -75 -39 8 9 29
23 45 31 33 18 44 20 30 8z m-1338 -36 c92 -46 222 -98 313 -125 41 -13 98
-31 125 -40 28 -10 76 -24 108 -31 31 -7 55 -15 52 -18 -6 -6 -65 10 -245 65
-149 47 -230 78 -360 140 l-74 35 -23 -27 c-39 -45 -28 -77 45 -127 79 -54
166 -149 216 -235 53 -92 83 -122 162 -159 46 -22 77 -44 61 -44 -12 0 -144
75 -164 93 -23 20 -93 132 -93 147 0 18 -69 82 -81 74 -8 -5 -9 -3 -5 5 9 14
-55 79 -114 116 -44 27 -60 52 -60 88 0 28 35 77 55 77 8 0 45 -15 82 -34z
m1229 -5 c-4 -5 -1 -12 4 -14 6 -3 5 -4 -2 -3 -20 5 -49 -14 -42 -26 4 -7 3
-8 -4 -4 -6 4 -47 -11 -91 -34 -95 -47 -275 -103 -406 -126 -33 -5 -37 -8 -20
-14 24 -10 0 -11 -35 -1 -20 6 -14 9 35 20 236 51 378 102 525 189 41 24 43
25 36 13z m1504 -81 c-13 -8 -12 -10 4 -10 11 0 17 -3 13 -6 -3 -4 -13 -4 -22
0 -18 6 -11 26 8 26 7 0 6 -4 -3 -10z m-1935 -71 c-22 -4 -53 -7 -70 -7 -26 1
-24 2 10 8 22 4 54 7 70 7 25 1 23 -1 -10 -8z m-932 -656 c-2 -329 -3 -632 -3
-673 0 -190 -48 -386 -132 -545 -44 -81 -89 -145 -103 -145 -21 0 -18 30 5 65
50 73 130 237 154 312 33 105 55 261 38 272 -9 5 -8 37 2 131 11 97 13 246 9
655 -2 291 -2 528 0 525 3 -3 8 -241 10 -530 4 -395 2 -555 -8 -645 -7 -66
-10 -125 -5 -130 5 -6 10 -28 12 -50 7 -86 12 286 10 825 0 311 2 557 6 548 4
-10 6 -287 5 -615z m774 611 c-3 -3 -12 -4 -19 -1 -8 3 -5 6 6 6 11 1 17 -2
13 -5z m1684 -202 c-7 -2 -18 1 -23 6 -8 8 -4 9 13 5 13 -4 18 -8 10 -11z
m119 -49 c25 -14 58 -37 74 -50 35 -29 147 -87 196 -101 19 -5 89 -25 155 -45
66 -19 172 -47 235 -61 63 -15 149 -36 190 -46 41 -11 152 -28 245 -40 203
-24 248 -31 243 -36 -8 -7 -415 47 -488 66 -41 10 -127 31 -190 46 -318 74
-577 165 -594 210 -3 7 -41 32 -86 54 -80 40 -105 59 -52 39 15 -6 47 -22 72
-36z m-2279 3 c5 3 9 0 9 -5 0 -6 -7 -11 -15 -11 -8 0 -15 8 -14 18 0 10 3 12
6 4 2 -6 9 -10 14 -6z m2526 -106 c21 -11 43 -20 50 -20 7 0 13 -5 13 -10 0
-6 -15 -4 -36 5 -20 8 -41 12 -47 8 -6 -4 -7 -1 -3 6 5 8 2 11 -9 9 -10 -2
-20 3 -22 10 -7 17 12 15 54 -8z m-2216 -67 c36 -27 110 -76 165 -111 311
-198 339 -214 411 -232 89 -23 236 -40 347 -40 63 0 85 -4 89 -14 7 -19 -1
-26 -32 -26 -19 -1 -13 -5 24 -19 80 -29 169 -80 247 -143 151 -120 251 -195
335 -248 88 -56 234 -173 353 -284 36 -34 124 -110 195 -171 72 -60 132 -113
135 -116 6 -8 199 -161 270 -216 30 -22 78 -54 106 -71 28 -16 68 -41 90 -55
66 -43 122 -73 319 -171 228 -113 255 -125 415 -182 198 -71 245 -82 610 -140
52 -8 102 -19 112 -24 9 -5 42 -16 75 -24 32 -8 126 -37 208 -65 83 -27 194
-58 245 -70 52 -12 111 -26 131 -31 20 -6 52 -11 70 -11 28 -1 29 -3 9 -6 -41
-8 -239 39 -470 113 -328 103 -268 89 -603 145 -105 17 -196 38 -292 68 -286
87 -820 353 -1035 515 -69 52 -263 207 -270 215 -3 3 -63 56 -135 116 -71 61
-159 137 -195 171 -119 111 -265 228 -353 284 -81 51 -136 92 -351 260 -79 62
-190 125 -245 139 -34 10 -39 31 -7 31 14 0 26 4 26 8 0 5 -64 12 -142 15
-155 7 -300 33 -369 65 -63 30 -392 237 -493 311 -33 24 -71 47 -85 52 l-26 7
25 1 c15 1 51 -18 91 -46z m256 -219 c40 -27 62 -54 43 -54 -5 0 -10 4 -10 8
0 5 -18 20 -40 35 -22 14 -40 25 -40 23 0 -11 33 -113 39 -118 3 -4 28 -1 55
7 27 8 54 15 60 14 13 -1 -94 -38 -111 -39 -10 0 -53 114 -53 141 0 15 18 10
57 -17z m3623 -14 c140 -16 297 -41 450 -72 80 -15 192 -38 250 -49 151 -28
205 -46 270 -87 289 -186 400 -275 400 -323 0 -15 -79 -39 -180 -55 l-25 -4
25 9 c14 5 56 16 94 25 38 9 71 18 74 21 18 17 -116 134 -264 230 -226 147
-206 138 -394 174 -58 11 -170 34 -250 49 -80 16 -197 37 -260 46 -63 10 -128
20 -145 23 -16 3 -176 9 -355 13 l-325 6 275 2 c152 1 314 -2 360 -8z m-3534
-59 c-10 -4 -36 27 -36 42 0 6 10 -1 23 -14 12 -13 18 -26 13 -28z m4255 -29
c-7 -2 -18 1 -23 6 -8 8 -4 9 13 5 13 -4 18 -8 10 -11z m-4118 -35 c91 -50
202 -78 331 -82 l121 -5 93 -47 c91 -47 183 -113 335 -240 41 -34 117 -89 170
-122 108 -67 299 -224 400 -330 62 -64 68 -73 63 -103 -10 -64 -18 -152 -26
-287 -8 -132 -7 -137 14 -161 20 -22 46 -89 46 -119 0 -15 -31 -14 -115 4 -93
20 -270 19 -349 -1 -180 -46 -408 -128 -521 -187 -11 -6 -62 -33 -114 -60 -89
-46 -192 -115 -206 -137 -3 -5 -13 -10 -22 -10 -13 0 -15 10 -9 71 6 60 27
192 52 324 10 54 -14 6 -40 -80 -34 -110 -54 -201 -62 -279 -4 -36 -10 -66
-13 -66 -3 0 -82 38 -176 84 -125 63 -208 96 -315 128 -140 41 -149 43 -280
42 -128 0 -261 -15 -305 -34 -59 -24 -117 -41 -123 -36 -3 4 0 21 7 39 23 56
50 160 51 202 1 29 3 35 9 21 8 -21 -19 -153 -44 -212 -8 -20 -15 -38 -15 -40
0 -2 30 7 68 20 100 36 201 50 357 50 119 1 149 -3 200 -21 33 -12 91 -29 129
-38 74 -19 261 -98 336 -143 25 -15 57 -33 71 -39 l27 -11 6 58 c17 147 87
390 113 390 12 0 14 -7 10 -32 -25 -131 -46 -264 -52 -323 l-7 -70 28 26 c57
50 101 77 249 152 196 99 376 167 591 221 82 21 246 21 356 -1 49 -9 91 -14
94 -10 10 9 -18 80 -42 107 -22 25 -22 28 -13 175 5 83 13 186 18 230 l10 80
-67 68 c-105 107 -295 263 -399 328 -53 33 -129 88 -170 122 -154 129 -244
194 -335 240 -93 48 -94 48 -209 52 -124 4 -239 32 -331 81 -38 20 -55 24 -85
18 -74 -14 -111 -38 -139 -89 -45 -86 -86 -125 -304 -293 -14 -11 -100 -57
-190 -103 -91 -45 -176 -91 -189 -101 l-24 -18 39 -2 c84 -3 345 4 454 13 63
5 172 9 243 9 103 0 127 -3 127 -14 0 -10 -18 -16 -62 -20 -138 -13 -483 -27
-653 -26 l-180 2 1 -129 c0 -70 3 -265 6 -433 5 -262 5 -271 -2 -65 -4 132
-11 329 -15 438 -7 166 -6 197 6 197 8 1 90 0 182 0 193 -1 625 18 677 30 52
12 -190 12 -333 0 -171 -14 -468 -16 -491 -4 -16 10 -12 15 40 46 33 19 120
65 194 102 74 38 150 80 170 95 88 65 197 156 223 185 40 44 87 115 87 130 0
21 100 60 163 65 10 0 37 -9 60 -22z m-8 -37 c4 -6 11 -8 16 -4 5 3 8 0 7 -8
-2 -8 6 -13 19 -12 12 0 20 -3 17 -8 -9 -15 -31 -8 -58 17 -15 14 -31 25 -37
25 -5 0 -9 5 -9 10 0 12 35 -4 45 -20z m-317 -122 c-6 -18 -28 -21 -28 -4 0 9
7 16 16 16 9 0 14 -5 12 -12z m-261 -203 c0 -8 -4 -15 -9 -15 -4 0 -8 7 -8 15
0 8 4 15 8 15 5 0 9 -7 9 -15z m1411 -133 c21 -14 -26 -30 -134 -46 -77 -11
-112 -21 -150 -44 -54 -33 -122 -57 -132 -48 -9 9 7 22 63 52 28 14 62 32 77
40 14 8 73 23 130 33 126 22 130 23 146 13z m-714 -134 c50 -25 71 -30 125
-29 36 0 82 5 101 11 47 14 60 13 60 -4 0 -20 -89 -40 -181 -40 -68 -1 -80 2
-120 29 -24 17 -62 35 -84 42 -33 9 -35 11 -15 13 l25 2 -25 9 c-19 7 -16 7
15 3 22 -3 67 -19 99 -36z m-1974 -182 c0 -27 -70 -148 -135 -236 -37 -49 -69
-90 -71 -90 -2 0 -1 8 2 18 5 14 3 14 -10 -2 -11 -14 -16 -16 -15 -5 0 8 22
43 49 79 27 36 72 101 100 145 49 78 65 94 34 34 -8 -17 -13 -33 -10 -36 7 -7
46 76 46 97 0 13 -1 13 -10 0 -5 -8 -10 -10 -10 -4 0 6 3 14 6 17 9 9 24 -2
24 -17z m6224 -521 c-5 -12 -26 -15 -103 -15 -181 0 -301 -39 -406 -133 -105
-93 -148 -187 -149 -325 0 -37 -3 -56 -8 -48 -13 23 -12 156 1 204 14 51 68
142 84 142 6 0 1 -10 -10 -22 -25 -28 -56 -88 -49 -95 2 -3 13 12 24 34 25 48
94 121 150 158 23 15 40 30 38 33 -6 5 -62 -29 -91 -55 -11 -10 -29 -25 -40
-33 -19 -14 -19 -14 -5 4 32 42 136 107 200 126 122 36 135 38 252 39 101 1
117 -1 112 -14z m-2774 -144 c0 -5 3 -16 6 -25 4 -11 1 -16 -11 -16 -12 0 -15
5 -11 17 4 9 1 20 -6 25 -10 6 -8 8 5 8 9 0 17 -4 17 -9z m264 -173 c100 -99
198 -245 260 -388 49 -115 61 -151 92 -275 41 -164 58 -517 30 -610 -21 -71
-31 -36 -28 100 6 204 -23 447 -69 595 -70 221 -199 442 -340 579 -32 32 -59
63 -59 69 0 28 35 6 114 -70z m-4306 -148 c113 -96 112 -91 63 -193 -16 -32
-25 -60 -21 -62 8 -5 35 47 53 100 10 27 20 40 33 41 12 1 13 0 3 -3 -9 -2
-23 -27 -33 -58 -21 -67 -51 -107 -65 -85 -7 10 -3 28 14 60 51 99 52 98 -32
170 -96 83 -143 135 -143 158 1 10 6 5 14 -13 7 -16 58 -68 114 -115z m89 -43
c35 -27 62 -52 59 -54 -3 -3 -15 3 -28 13 -47 38 -218 186 -218 189 0 2 -2 10
-5 17 -3 8 25 -15 62 -50 37 -36 95 -87 130 -115z m5010 169 c4 -8 33 -32 63
-55 30 -23 113 -99 183 -169 122 -120 131 -133 179 -232 56 -117 98 -218 97
-234 0 -6 -9 12 -20 39 -11 28 -46 104 -78 170 -57 117 -62 123 -187 246 -124
122 -264 246 -264 234 0 -4 62 -68 138 -143 76 -75 167 -174 203 -220 57 -74
188 -301 189 -327 0 -11 -33 44 -93 158 -55 106 -164 238 -318 388 -71 70
-129 134 -129 143 0 20 26 21 37 2z m1076 -146 c4 -36 3 -48 -3 -35 -8 19 -14
103 -6 94 2 -2 6 -29 9 -59z m-4813 31 c0 -5 -7 -28 -15 -51 -8 -24 -29 -109
-46 -189 -28 -131 -31 -169 -36 -371 -5 -208 -3 -237 21 -389 30 -188 33 -251
13 -251 -19 0 -42 77 -69 223 -19 103 -23 156 -22 337 0 278 16 371 119 688 5
14 35 17 35 3z m-1428 -246 c83 -32 108 -63 42 -50 -20 3 -44 10 -53 14 -9 5
-33 16 -53 26 -21 10 -38 25 -38 32 0 17 3 17 102 -22z"/>
<path d="M4308 5323 c12 -2 32 -2 45 0 12 2 2 4 -23 4 -25 0 -35 -2 -22 -4z"/>
<path d="M3048 5510 c2 -16 6 -30 8 -30 2 0 4 14 4 30 0 17 -4 30 -8 30 -5 0
-7 -13 -4 -30z"/>
<path d="M2505 5421 c-58 -33 -125 -88 -125 -102 0 -14 16 -11 63 10 23 10 59
26 80 34 33 14 37 20 37 51 0 20 -1 36 -2 36 -2 -1 -25 -14 -53 -29z"/>
<path d="M2440 5111 c-11 -22 -14 -74 -3 -84 14 -15 33 18 33 59 0 47 -12 57
-30 25z"/>
<path d="M2376 5104 c-18 -17 -21 -51 -7 -73 10 -15 13 -7 26 57 7 36 4 39
-19 16z"/>
<path d="M3937 4847 c-49 -50 -59 -55 -162 -86 -203 -61 -240 -73 -300 -103
-88 -42 -103 -52 -145 -93 -29 -28 -47 -37 -81 -41 -70 -7 -89 -13 -89 -29 0
-10 11 -16 33 -17 53 -2 68 1 94 22 14 11 37 20 51 20 95 0 445 142 517 210
22 21 66 54 97 74 54 34 76 64 63 86 -11 18 -26 10 -78 -43z m-127 -117 c-8
-5 -32 -12 -52 -15 -55 -10 -265 -96 -322 -133 -28 -18 -48 -32 -45 -32 22 0
156 46 213 74 127 61 227 102 211 88 -5 -5 -72 -37 -149 -72 -143 -64 -261
-104 -279 -93 -5 3 -13 -1 -18 -8 -7 -12 -9 -11 -8 1 0 34 243 146 409 189 47
12 58 13 40 1z"/>
<path d="M2846 2515 c-13 -115 -70 -263 -159 -413 -56 -96 -57 -123 -1 -35 60
94 112 205 139 299 25 84 44 204 33 204 -3 0 -8 -25 -12 -55z"/>
<path d="M4653 2679 c-82 -15 -117 -27 -185 -64 -46 -26 -72 -43 -58 -40 14 4
53 23 88 42 50 27 86 38 165 50 56 8 109 19 117 24 22 12 -5 10 -127 -12z"/>
<path d="M4005 2582 c11 -4 43 -20 70 -37 44 -27 58 -30 125 -29 72 1 168 20
157 30 -3 3 -24 0 -48 -6 -23 -7 -73 -12 -111 -12 -58 0 -77 5 -123 31 -30 17
-63 31 -72 30 -15 -1 -15 -2 2 -7z"/>
<path d="M2007 2238 c-20 -29 -51 -72 -68 -96 -17 -24 -29 -45 -27 -48 5 -4
85 99 123 159 33 51 8 38 -28 -15z"/>
<path d="M8080 1861 c-14 -5 -45 -13 -70 -19 -58 -14 -104 -31 -98 -37 3 -3
22 2 42 10 59 25 132 38 256 45 l115 6 -110 1 c-60 1 -121 -2 -135 -6z"/>
<path d="M7675 1528 c-3 -24 -9 -52 -11 -63 -4 -16 -3 -17 4 -5 11 17 26 110
18 110 -2 0 -7 -19 -11 -42z"/>
<path d="M5720 1616 c0 -2 28 -31 62 -63 269 -254 426 -715 405 -1183 -5 -100
-4 -121 6 -105 7 12 13 75 16 165 9 365 -70 653 -254 937 -68 103 -235 281
-235 249z"/>
<path d="M2857 1403 c-18 -30 -80 -250 -97 -344 -31 -164 -38 -428 -16 -579
23 -156 45 -259 61 -290 14 -25 14 -24 15 16 0 22 -12 114 -26 205 -24 152
-26 181 -21 389 5 202 8 240 36 371 17 80 38 166 46 189 14 39 15 65 2 43z"/>
<path d="M1364 1181 c8 -12 145 -66 151 -59 3 3 -23 15 -57 28 -35 12 -67 26
-72 31 -13 12 -29 12 -22 0z"/>
<path d="M5210 7197 c0 -2 15 -34 34 -73 34 -69 91 -236 127 -369 87 -322 106
-428 119 -655 6 -96 17 -202 25 -235 8 -33 19 -83 25 -111 9 -52 39 -103 175
-299 62 -89 133 -211 153 -265 8 -19 27 -80 44 -134 l30 -99 -16 -121 c-9 -67
-27 -159 -41 -206 -13 -47 -31 -132 -40 -190 -8 -58 -27 -145 -41 -193 -25
-84 -25 -93 -14 -170 31 -218 85 -372 162 -470 21 -27 38 -55 38 -63 0 -8 2
-14 5 -14 11 0 286 -62 335 -75 30 -9 109 -22 175 -30 66 -8 192 -24 280 -35
136 -18 188 -20 350 -15 245 9 467 -15 765 -82 63 -14 135 -25 159 -24 63 2
138 -22 279 -90 136 -66 189 -100 307 -199 105 -88 145 -130 145 -152 0 -25
10 -23 140 21 165 57 210 75 355 147 134 66 433 187 565 229 385 123 982 214
1394 215 152 0 277 -9 547 -42 l177 -21 33 21 c105 64 522 272 546 272 3 0 19
6 36 14 18 8 74 29 125 46 l92 33 0 1718 0 1719 -3795 0 c-2087 0 -3795 -1
-3795 -3z m3760 -4315 c0 -5 -7 -9 -15 -9 -8 0 -15 4 -15 9 0 4 7 8 15 8 8 0
15 -4 15 -8z"/>
<path d="M12730 3644 c-36 -14 -85 -32 -110 -41 -41 -14 -109 -44 -215 -93
-84 -39 -209 -91 -269 -111 -106 -36 -108 -34 109 -70 173 -28 302 -61 378
-98 69 -33 166 -66 173 -59 2 3 3 115 2 250 l-3 246 -65 -24z"/>
<path d="M7524 1244 c5 -10 11 -63 14 -117 l5 -99 40 -29 c22 -16 45 -29 51
-29 21 0 220 -80 234 -94 22 -22 26 -95 8 -162 -21 -82 -20 -123 5 -186 29
-74 55 -154 94 -292 19 -65 38 -122 42 -126 4 -4 30 -15 56 -24 33 -12 55 -29
70 -52 l22 -34 1945 1 1945 1 -135 24 c-74 13 -155 26 -180 30 -25 3 -54 9
-65 14 -11 4 -47 13 -80 20 -181 36 -700 164 -905 224 -352 102 -769 254
-1008 367 -45 21 -85 39 -89 39 -3 0 -31 12 -62 26 -117 56 -347 134 -392 134
-17 0 -74 13 -127 29 -130 40 -184 49 -337 55 -97 4 -156 13 -232 33 -57 16
-103 31 -103 35 0 4 6 5 13 3 123 -41 193 -55 317 -60 146 -7 259 -25 348 -57
32 -11 86 -24 122 -28 36 -5 92 -18 125 -29 77 -25 354 -137 470 -191 50 -22
99 -45 110 -50 163 -74 597 -225 890 -309 212 -60 750 -192 975 -238 297 -60
432 -73 782 -73 297 0 308 1 308 19 0 17 -10 20 -87 25 -468 32 -841 83 -1153
156 -47 11 -201 48 -343 81 -142 33 -320 79 -395 101 -75 22 -166 48 -202 58
-81 22 -195 58 -235 75 -16 7 -68 25 -115 40 -47 15 -94 31 -105 36 -11 5 -42
16 -70 25 -27 9 -129 48 -225 86 -375 150 -472 181 -685 219 -32 5 -64 14 -70
18 -15 12 -131 49 -210 67 -40 9 -162 19 -285 25 -231 9 -397 22 -445 34 -84
20 -417 133 -498 169 -20 9 -65 19 -99 23 -58 6 -61 5 -54 -13z m114 -11 c-10
-2 -26 -2 -35 0 -10 3 -2 5 17 5 19 0 27 -2 18 -5z m42 -23 c20 -6 21 -8 5 -8
-11 0 -33 4 -50 8 -27 7 -27 8 -5 8 14 0 36 -4 50 -8z m2100 -530 c0 -5 -7 -7
-15 -4 -8 4 -15 8 -15 10 0 2 7 4 15 4 8 0 15 -4 15 -10z m1000 -350 c0 -5 -2
-10 -4 -10 -3 0 -8 5 -11 10 -3 6 -1 10 4 10 6 0 11 -4 11 -10z m290 -90 c0
-5 -7 -7 -15 -4 -8 4 -15 8 -15 10 0 2 7 4 15 4 8 0 15 -4 15 -10z m140 -5 c0
-8 -7 -15 -15 -15 -8 0 -15 7 -15 15 0 8 7 15 15 15 8 0 15 -7 15 -15z"/>
</g>
</svg>
