<?xml version="1.0" standalone="no"?>
<!DOCTYPE svg PUBLIC "-//W3C//DTD SVG 20010904//EN"
 "http://www.w3.org/TR/2001/REC-SVG-20010904/DTD/svg10.dtd">
<svg version="1.0" xmlns="http://www.w3.org/2000/svg"
 width="1280.000000pt" height="720.000000pt" viewBox="0 0 1280.000000 720.000000"
 preserveAspectRatio="xMidYMid meet">
<metadata>
Created by potrace 1.16, written by Peter Selinger 2001-2019
</metadata>
<g transform="translate(0.000000,720.000000) scale(0.100000,-0.100000)"
fill="#000000" stroke="none">
<path d="M0 3600 l0 -3600 60 0 c45 0 60 4 60 14 0 8 16 35 35 60 19 25 30 48
26 51 -5 2 -12 -2 -15 -11 -4 -9 -9 -14 -12 -11 -4 3 10 32 29 64 63 104 212
416 276 579 35 87 67 168 72 179 5 11 24 67 44 124 25 75 45 117 74 151 l39
46 -5 85 c-6 99 5 125 76 180 24 19 59 60 78 91 l36 57 1 163 1 163 37 76 c58
119 112 151 348 209 233 58 333 89 350 110 9 11 52 27 102 40 79 19 298 90
370 118 16 7 28 16 28 21 0 28 -36 111 -65 151 -45 62 -72 119 -90 187 -34
130 -73 652 -80 1068 -8 458 -14 602 -35 813 -27 262 -47 397 -65 432 -14 28
-29 78 -90 305 -73 272 -96 637 -59 937 20 171 57 286 159 503 55 119 74 162
80 188 4 15 11 30 16 33 5 3 9 9 9 15 0 5 -361 9 -945 9 l-945 0 0 -3600z"/>
<path d="M1882 7151 c-12 -27 -22 -52 -22 -56 0 -5 -12 -33 -26 -64 -30 -63
-70 -150 -107 -232 -72 -160 -107 -364 -108 -642 -2 -236 30 -488 85 -677 13
-47 32 -114 41 -150 9 -36 25 -84 36 -107 22 -49 41 -173 69 -445 21 -211 27
-355 35 -813 7 -414 46 -938 79 -1066 15 -56 54 -132 101 -193 21 -28 55 -122
55 -151 0 -6 -17 -18 -37 -27 -56 -24 -276 -95 -366 -118 -86 -21 -100 -27
-92 -39 5 -10 -179 -65 -382 -116 -203 -50 -259 -85 -319 -198 l-39 -72 -1
-168 -2 -168 -35 -57 c-19 -31 -54 -72 -78 -91 -71 -55 -83 -82 -76 -179 l6
-83 -43 -54 c-31 -37 -52 -78 -71 -136 -74 -229 -318 -786 -386 -881 -21 -29
-23 -38 -10 -38 5 0 18 15 30 33 11 17 21 29 21 25 0 -13 -37 -74 -74 -123
-20 -25 -36 -51 -36 -56 0 -5 234 -9 585 -9 461 0 585 3 585 13 0 9 2 9 8 1 4
-7 8 45 8 115 2 127 45 425 110 756 32 164 32 165 51 165 13 0 14 -8 9 -42 -4
-24 -12 -79 -17 -123 -21 -169 -99 -684 -119 -779 -11 -54 -20 -100 -20 -102
0 -2 1535 -4 3410 -4 l3411 0 -11 21 c-14 24 -65 58 -102 66 -31 6 -42 30 -83
183 -14 52 -35 120 -46 150 -64 172 -64 174 -49 252 21 108 19 173 -5 197 -11
10 -71 38 -134 61 -137 49 -167 65 -179 88 -5 9 -12 62 -15 117 -2 55 -8 108
-12 118 -6 15 -1 17 35 17 44 0 128 -18 145 -31 14 -10 244 -94 380 -137 101
-32 121 -35 234 -36 95 -1 114 -3 80 -9 -76 -14 -196 -1 -314 36 -129 40 -365
125 -380 137 -13 10 -108 30 -144 30 -28 0 -29 -1 -20 -37 5 -21 9 -69 9 -106
0 -38 4 -77 10 -87 13 -25 63 -52 150 -83 133 -46 151 -54 167 -70 21 -21 23
-106 3 -204 -15 -79 -16 -75 44 -238 14 -38 39 -122 57 -185 17 -63 34 -121
39 -129 4 -7 31 -23 61 -35 36 -14 60 -31 74 -53 l20 -32 2318 0 c2266 -1
2317 0 2317 18 0 21 15 19 -290 41 -329 25 -563 57 -855 120 -751 161 -1271
315 -1860 552 -276 111 -443 163 -590 184 -27 4 -82 20 -121 35 -144 58 -220
70 -466 77 -124 4 -229 9 -231 12 -12 11 384 -2 468 -16 50 -8 135 -31 190
-50 55 -20 134 -42 175 -50 161 -30 354 -88 495 -149 400 -173 984 -361 1505
-486 605 -144 849 -185 1285 -218 77 -6 175 -13 218 -17 l77 -5 0 1530 c0
1201 -3 1531 -12 1531 -7 0 -109 30 -227 66 -118 36 -258 74 -311 85 -140 27
-490 85 -595 99 -49 6 -116 15 -147 20 -63 10 -454 -10 -703 -35 -383 -39
-803 -129 -1055 -225 -30 -12 -71 -27 -90 -34 -120 -44 -283 -109 -307 -121
-15 -8 -32 -15 -36 -15 -4 0 -54 -22 -110 -49 -128 -62 -407 -155 -510 -171
-47 -7 -99 -9 -130 -4 l-52 7 45 9 c61 11 170 39 170 44 0 32 -58 81 -295 247
-145 102 -190 124 -290 141 -49 9 -121 23 -160 31 -424 93 -649 118 -1018 113
-137 -1 -238 0 -225 4 37 10 493 9 613 -2 172 -16 370 -49 650 -109 50 -10
123 -24 163 -31 84 -14 148 -45 277 -136 254 -180 295 -215 295 -255 0 -12
-39 -27 -115 -44 -49 -11 -54 -14 -25 -14 104 -2 410 86 565 162 64 31 88 42
182 83 83 35 461 177 530 198 258 80 610 148 928 181 249 25 640 45 703 35 31
-5 98 -14 147 -20 106 -14 457 -73 594 -99 92 -18 162 -38 411 -115 133 -41
140 -42 140 -18 0 14 -15 23 -57 36 -32 9 -92 33 -134 52 -79 36 -223 72 -399
100 -135 21 -187 31 -175 33 6 1 3 6 -5 11 -12 8 -11 10 7 10 36 0 323 114
405 160 19 11 278 113 323 127 25 8 30 15 33 46 2 20 0 37 -4 37 -10 0 -144
-49 -181 -65 -17 -8 -34 -15 -37 -15 -18 0 -424 -200 -536 -265 l-65 -38 -135
17 c-534 65 -849 59 -1357 -24 -201 -33 -283 -50 -468 -96 -113 -28 -366 -117
-480 -169 -16 -7 -50 -21 -75 -31 -25 -10 -94 -42 -155 -72 -148 -73 -460
-193 -499 -192 -6 0 -22 18 -35 39 -23 38 -162 159 -266 233 -63 45 -305 163
-366 178 -26 6 -57 10 -70 8 -20 -3 -17 -6 21 -21 41 -15 42 -16 10 -11 -19 4
-40 10 -46 15 -32 26 -385 95 -606 118 -109 12 -264 13 -380 3 -60 -6 -140 1
-375 30 -164 20 -327 44 -363 52 -36 9 -113 27 -172 41 -59 14 -127 28 -151
31 -25 4 -49 9 -53 13 -17 12 -45 71 -39 81 3 5 -10 40 -29 77 -40 78 -89 256
-106 389 -11 88 -10 95 14 175 15 46 35 141 45 210 11 69 26 142 34 162 22 50
50 241 43 285 -4 27 -3 31 4 17 20 -45 10 42 -15 129 -34 117 -117 274 -220
421 -47 66 -99 143 -115 170 -43 75 -77 245 -89 457 -14 231 -42 376 -132 693
-49 171 -69 228 -117 327 l-37 78 -1645 0 -1645 0 -23 -49z m557 -540 c33 -10
78 -33 100 -51 l41 -31 11 24 c13 30 36 31 43 2 9 -34 93 -182 151 -265 29
-41 60 -91 70 -110 10 -19 42 -61 71 -92 29 -32 106 -126 171 -210 190 -244
327 -371 503 -466 169 -91 291 -122 520 -132 l165 -6 -137 -2 c-295 -4 -535
83 -771 278 -45 37 -91 78 -102 91 -80 93 -181 217 -239 292 -37 48 -91 113
-120 145 -29 31 -61 73 -71 92 -10 19 -42 70 -73 113 -30 43 -78 124 -107 179
-48 92 -54 99 -64 79 -16 -28 -25 -27 -78 14 -48 36 -125 65 -175 65 -25 0
-32 -6 -49 -47 -45 -110 -74 -157 -104 -165 -28 -8 -109 -4 -138 8 -10 4 -19
-32 -36 -143 -20 -129 -23 -176 -19 -363 6 -319 25 -387 192 -674 47 -83 86
-155 86 -161 0 -7 9 -20 20 -30 11 -10 22 -27 26 -39 22 -71 140 -292 192
-359 123 -161 334 -322 577 -441 94 -46 197 -94 230 -106 33 -12 74 -28 90
-35 108 -49 153 -62 206 -58 29 2 74 0 99 -6 37 -7 30 -8 -45 -5 -61 3 -84 1
-70 -5 77 -37 324 22 523 124 109 56 128 61 123 33 -2 -13 10 -9 64 22 61 35
175 152 175 180 0 10 7 26 16 34 20 20 77 162 98 241 22 87 31 198 17 223 -6
11 -15 74 -21 139 -9 103 -18 141 -71 298 -48 141 -63 202 -72 282 -16 149 5
225 66 246 29 11 68 -41 152 -206 94 -182 140 -256 229 -362 l66 -80 -1 -265
c-2 -197 1 -277 11 -310 l14 -45 11 60 c16 81 32 128 70 205 39 78 58 135 85
255 27 123 25 153 -16 285 -94 300 -104 395 -56 530 l27 75 48 3 c38 3 48 0
54 -15 3 -10 14 -36 23 -58 10 -22 23 -57 30 -78 6 -21 14 -36 17 -33 3 3 0
19 -6 37 -6 18 -11 51 -11 74 0 50 28 75 84 75 31 0 36 -4 47 -37 6 -21 15
-42 19 -48 4 -5 20 -41 35 -80 16 -38 44 -96 63 -128 36 -63 174 -354 199
-421 23 -63 3 -212 -64 -481 -37 -150 -39 -201 -8 -175 8 7 15 19 15 27 0 7
14 70 30 138 41 165 59 270 66 386 l7 95 -42 78 c-44 82 -51 102 -25 70 14
-17 15 -17 10 -1 -4 11 -2 16 5 11 17 -10 127 -242 150 -314 l20 -65 -21 -160
c-42 -330 -50 -376 -99 -575 -88 -361 -130 -544 -137 -587 -8 -52 -25 -55 -74
-14 -39 32 -170 101 -191 101 -7 0 20 -17 61 -38 41 -21 98 -55 125 -76 57
-45 111 -70 127 -60 6 4 8 3 4 -4 -4 -6 13 -16 41 -26 116 -36 256 -76 353
-100 58 -13 152 -36 210 -50 58 -14 184 -35 280 -46 179 -21 311 -43 205 -34
-151 13 -393 48 -485 70 -273 65 -324 79 -448 116 -73 21 -156 49 -185 61 -59
24 -127 66 -127 78 0 4 -51 34 -112 65 -62 31 -99 54 -83 51 l30 -6 -30 14
c-19 9 -24 14 -12 15 9 0 25 -4 35 -9 9 -5 46 -23 82 -39 36 -17 87 -46 115
-66 27 -20 53 -36 56 -36 4 0 10 17 13 38 8 42 63 276 137 582 28 112 56 252
64 310 57 415 57 418 40 476 -18 62 -134 309 -141 301 -3 -3 9 -34 27 -68 31
-62 32 -66 25 -159 -7 -113 -24 -212 -66 -392 -38 -163 -45 -180 -68 -176 -28
5 -25 47 12 195 38 150 61 270 71 376 7 66 6 70 -43 175 -27 59 -59 130 -72
157 -38 86 -64 139 -86 171 -11 17 -47 93 -79 168 -51 120 -61 136 -82 136
-13 0 -35 -7 -48 -16 -30 -19 -33 -68 -11 -132 26 -73 120 -252 163 -309 74
-99 93 -221 60 -388 -9 -44 -25 -154 -37 -244 -18 -147 -33 -202 -48 -186 -3
2 0 11 7 19 6 8 20 83 31 167 11 85 27 192 35 239 27 143 28 157 10 235 -11
51 -28 91 -53 127 -20 29 -58 91 -84 138 -26 47 -48 79 -48 71 0 -18 62 -131
106 -193 19 -26 31 -54 28 -62 -3 -8 1 -28 10 -44 35 -67 36 -135 5 -332 -16
-102 -34 -211 -40 -243 -8 -47 -16 -102 -21 -146 -2 -21 3 -41 11 -41 4 0 7
12 4 28 -3 23 -2 24 6 7 14 -29 13 -45 -3 -45 -33 0 -36 43 -11 174 8 44 28
164 44 266 31 197 30 265 -5 332 -8 16 -13 35 -11 41 2 7 -13 38 -34 69 -33
48 -124 227 -149 293 -64 170 -64 170 -101 173 -43 4 -50 -4 -78 -87 -40 -121
-28 -219 58 -496 46 -148 48 -175 21 -300 -27 -123 -44 -174 -97 -288 -28 -60
-49 -124 -56 -167 -6 -42 -15 -70 -23 -70 -28 0 -37 93 -35 355 l1 260 -66 80
c-84 101 -140 186 -196 300 -58 118 -112 213 -141 250 l-24 29 -31 -30 c-22
-22 -32 -45 -38 -79 -12 -86 15 -264 56 -360 47 -112 90 -281 90 -359 0 -28 7
-79 16 -114 14 -54 15 -79 6 -148 -13 -99 -76 -295 -107 -333 -12 -14 -25 -39
-29 -55 -8 -32 -105 -138 -145 -160 -14 -7 -62 -34 -106 -60 -44 -25 -105 -56
-135 -67 -232 -88 -242 -91 -353 -96 -122 -6 -140 -3 -402 79 -163 51 -186 60
-335 130 l-85 39 -22 -26 c-13 -14 -23 -33 -23 -41 0 -24 29 -62 64 -82 46
-27 159 -135 176 -169 27 -52 98 -158 116 -174 11 -9 48 -31 84 -49 36 -18 92
-53 125 -79 59 -46 210 -149 269 -184 104 -62 214 -131 236 -147 52 -40 278
-79 466 -80 55 0 73 -4 78 -15 7 -19 -13 -28 -51 -22 -27 4 -27 4 5 6 59 2 33
21 -30 21 -188 0 -445 46 -491 87 -12 11 -69 48 -127 83 -128 76 -288 182
-352 231 -30 24 -55 35 -67 32 -10 -2 -22 1 -26 7 -5 9 -1 10 14 5 44 -14 18
6 -56 44 -92 46 -104 58 -172 173 -52 86 -141 181 -208 220 -63 37 -80 94 -42
142 26 33 35 33 106 -3 135 -69 353 -148 541 -197 75 -20 87 -16 22 7 -30 11
-68 25 -85 33 -16 8 -84 35 -150 61 -219 87 -410 187 -536 282 -232 176 -313
269 -415 481 -35 73 -64 139 -64 146 0 7 -11 23 -25 36 -14 13 -25 29 -25 35
0 6 -39 78 -86 161 -109 187 -129 232 -161 358 -22 88 -26 128 -31 316 -4 191
-2 233 19 373 23 155 24 158 46 152 54 -13 110 -16 135 -6 25 9 63 76 107 184
13 34 51 36 140 8z m-539 -491 c0 -11 -7 -20 -15 -20 -8 0 -15 9 -15 20 0 11
7 20 15 20 8 0 15 -9 15 -20z m779 -139 c8 -5 11 -16 7 -28 -5 -15 -19 -22
-54 -27 -105 -14 -244 -55 -284 -82 -81 -56 -135 -114 -171 -181 -40 -76 -51
-70 -13 6 34 66 68 104 143 161 55 42 77 51 171 73 59 15 126 29 149 33 41 6
62 27 42 40 -6 3 -50 3 -99 -1 -80 -6 -97 -11 -164 -50 -172 -97 -271 -212
-277 -319 -1 -15 -3 -16 -6 -4 -8 30 27 122 62 167 75 94 241 199 334 211 81
11 144 11 160 1z m466 -89 c71 -65 236 -176 364 -246 57 -31 105 -56 107 -56
1 0 32 -14 68 -30 95 -44 317 -117 432 -141 115 -25 271 -29 286 -7 8 10 9 10
5 -2 -5 -21 -95 -30 -187 -18 -177 22 -435 105 -646 208 -148 72 -356 204
-426 271 -23 21 -43 39 -45 39 -3 0 -11 7 -19 15 -10 10 -11 15 -4 15 7 0 36
-22 65 -48z m-283 -109 c64 -65 158 -196 158 -219 0 -6 -6 -17 -14 -23 -16
-14 -30 -152 -31 -318 0 -67 -3 -119 -7 -115 -4 4 -9 59 -11 122 l-3 115 -2
-117 c-2 -95 1 -120 14 -132 17 -18 39 -22 29 -6 -3 6 -2 10 4 10 5 0 12 -4
16 -9 3 -5 18 -12 34 -16 16 -3 37 -15 47 -26 16 -18 11 -17 -35 6 -85 43 -70
21 19 -26 44 -24 88 -52 98 -63 15 -17 12 -17 -23 4 -22 13 -51 31 -65 39 -14
9 -51 30 -83 46 -38 20 -60 38 -64 53 -5 23 0 185 13 363 6 81 5 88 -20 127
-14 23 -29 42 -32 42 -2 0 -33 -14 -66 -32 l-62 -32 32 -8 c28 -8 35 -5 61 24
23 26 32 30 42 21 9 -9 6 -19 -15 -43 -14 -17 -26 -35 -26 -39 0 -10 -44 -39
-180 -121 -201 -120 -265 -147 -374 -158 l-49 -4 6 62 c4 35 13 70 20 78 42
51 375 229 469 251 55 13 118 48 118 65 0 7 -40 52 -90 100 -99 98 -123 131
-33 45 88 -83 133 -135 133 -152 0 -20 -78 -61 -135 -72 -73 -13 -412 -198
-453 -247 -7 -9 -15 -39 -19 -67 -6 -49 -5 -51 18 -51 94 0 297 89 291 127 -2
14 4 22 20 26 22 6 22 5 4 -8 -11 -8 -17 -17 -14 -20 3 -3 58 26 123 63 86 50
126 80 151 113 38 51 36 67 -4 21 -24 -29 -31 -31 -64 -26 -21 4 -38 12 -38
19 0 18 114 75 144 73 13 -1 22 -6 20 -10 -3 -5 5 -22 17 -39 20 -29 22 -39
17 -148 -4 -73 -3 -99 2 -71 5 25 9 68 9 95 1 28 7 60 15 71 14 19 11 27 -33
94 -27 40 -93 118 -147 173 -54 56 -81 87 -59 70 22 -18 70 -62 107 -100z
m371 -30 c271 -306 522 -432 897 -453 l155 -8 -155 3 c-125 3 -174 8 -251 28
-233 61 -396 153 -564 322 -68 67 -201 225 -191 225 2 0 51 -53 109 -117z
m2276 -3 c0 -8 -6 0 -14 19 -8 18 -15 36 -15 40 1 13 29 -45 29 -59z m-2393
-175 c4 -8 3 -27 -1 -42 -5 -21 -8 -24 -16 -12 -12 19 -11 69 1 69 6 0 13 -7
16 -15z m-47 -77 c1 -19 -4 -28 -14 -28 -9 0 -15 9 -15 24 0 13 -3 33 -6 43
-5 15 -4 15 5 3 9 -13 11 -12 12 5 l0 20 9 -20 c5 -11 9 -32 9 -47z m-58 -5
c-4 -28 -6 -32 -9 -15 -3 22 3 52 11 52 1 0 1 -17 -2 -37z m9 -50 c-11 -17
-11 -17 -6 0 3 10 7 26 7 35 1 15 2 15 6 0 2 -10 -1 -25 -7 -35z m-450 -26 l0
-44 -70 -32 c-90 -41 -130 -49 -130 -27 0 24 49 72 114 111 78 46 86 45 86 -8z
m1889 -81 c13 -16 58 -144 87 -251 43 -157 43 -253 -2 -440 -44 -180 -128
-375 -173 -403 -15 -9 -26 -21 -24 -27 1 -5 -16 -20 -40 -33 l-42 -23 30 25
c17 14 34 26 38 26 5 0 6 4 2 9 -3 5 9 19 26 31 79 57 209 445 209 625 0 106
-64 342 -124 461 -9 17 -18 46 -21 65 -4 30 -3 29 10 -10 8 -24 19 -48 24 -55z
m-44 14 c-3 -5 0 -10 7 -10 7 0 4 -6 -7 -12 -11 -7 -68 -12 -130 -13 l-110 -2
109 18 c60 10 114 20 120 23 17 7 18 7 11 -4z m-80 -60 c-3 -5 -16 -10 -28 -9
-21 0 -21 1 -2 9 28 12 37 12 30 0z m-1228 -175 c134 -144 134 -145 128 -167
-5 -15 -10 -17 -21 -7 -8 6 -14 16 -14 21 0 6 7 5 15 -2 10 -8 15 -9 15 -2 0
12 -40 38 -52 34 -4 -1 -5 5 -1 14 4 10 -20 41 -69 92 -41 42 -83 90 -93 105
-10 15 -20 25 -23 23 -8 -9 29 -59 102 -135 39 -41 59 -66 45 -57 -48 31 -154
164 -156 197 l-1 30 21 -28 c11 -16 58 -68 104 -118z m-629 -31 c3 -54 -14
-82 -43 -70 -32 12 -11 130 23 124 13 -2 18 -15 20 -54z m-73 4 c-10 -64 -15
-78 -28 -75 -43 8 -31 117 14 117 19 0 20 -4 14 -42z m3492 -215 c-4 -49 -13
-101 -18 -118 -9 -30 -9 -29 -4 5 2 19 7 67 11 105 3 39 7 76 10 83 9 30 9 6
1 -75z m-1871 22 c11 -28 -17 -74 -60 -99 -24 -14 -65 -45 -93 -70 -28 -25
-54 -46 -57 -46 -3 0 -41 -16 -83 -36 -43 -20 -100 -46 -128 -59 -47 -21 -199
-66 -272 -80 -17 -4 -37 -13 -44 -21 -8 -9 -32 -14 -75 -14 -61 0 -64 1 -64
25 0 25 14 31 96 38 19 2 45 17 67 38 78 76 148 106 442 195 115 34 122 38
172 90 52 54 88 68 99 39z m578 -214 c-6 -42 -8 -44 -15 -21 -6 18 -7 13 -4
-20 3 -34 2 -40 -6 -25 -7 16 -8 12 -4 -15 4 -27 2 -31 -6 -20 -8 12 -10 9 -6
-13 2 -15 2 -25 -1 -22 -3 2 -16 -29 -30 -70 -14 -42 -27 -73 -29 -71 -3 2 4
31 16 63 28 79 60 219 63 268 1 39 1 39 8 -10 l7 -50 3 55 c2 37 4 45 7 26 3
-17 1 -50 -3 -75z m400 -6 c-4 -8 -8 -15 -10 -15 -2 0 -4 7 -4 15 0 8 4 15 10
15 5 0 7 -7 4 -15z m-2097 -452 c-9 -2 -15 -9 -12 -14 4 -5 1 -9 -4 -9 -6 0
-11 7 -11 15 0 9 9 15 23 14 17 -1 18 -2 4 -6z m2850 -140 c-3 -10 -5 -4 -5
12 0 17 2 24 5 18 2 -7 2 -21 0 -30z m-1942 -64 c-22 -4 -56 -7 -75 -7 -32 1
-31 2 10 8 25 4 59 7 75 7 25 1 23 -1 -10 -8z m-933 -308 c5 -417 3 -825 -4
-1026 -7 -198 -27 -302 -87 -446 -41 -98 -123 -233 -144 -237 -27 -5 -20 18
35 113 72 126 112 217 136 310 28 108 39 215 22 225 -10 6 -9 26 1 96 11 67
14 232 15 659 1 622 1 617 14 596 4 -8 10 -138 12 -290z m291 22 c-4 -11 -3
-14 5 -9 7 4 12 2 12 -3 0 -6 -7 -11 -15 -11 -15 0 -21 21 -8 33 11 11 13 8 6
-10z m35 -69 c-4 -3 -12 5 -18 18 -12 22 -12 22 6 6 10 -10 15 -20 12 -24z
m32 -5 c0 -5 -4 -9 -8 -9 -5 0 -9 7 -9 15 0 8 4 12 9 9 4 -3 8 -9 8 -15z
m2468 -39 c22 -11 45 -20 51 -20 5 0 12 -4 15 -9 3 -5 -5 -8 -18 -7 -13 0 -22
5 -18 10 3 5 -5 7 -16 4 -12 -4 -20 -2 -17 2 5 8 -33 26 -47 22 -5 -1 -8 3 -8
8 0 14 11 13 58 -10z m-1968 -280 c14 -11 30 -20 37 -20 19 0 77 -60 59 -60
-9 0 -20 9 -26 19 -5 11 -20 23 -32 27 -13 3 -36 16 -52 27 -29 20 -29 20 -22
1 4 -10 13 -40 19 -66 7 -27 15 -48 18 -48 4 0 26 7 49 15 62 22 74 17 15 -6
-27 -10 -56 -18 -64 -17 -8 2 -20 26 -27 53 -8 28 -16 60 -20 73 -8 28 11 29
46 2z m231 -144 c93 -51 205 -79 334 -81 l120 -3 88 -46 c108 -56 157 -90 251
-170 120 -103 168 -140 236 -180 131 -79 449 -347 480 -406 6 -11 6 -49 0
-101 -5 -46 -14 -147 -19 -224 -9 -138 -9 -140 13 -165 24 -26 54 -116 42
-127 -3 -3 -48 1 -99 10 -113 21 -269 22 -357 3 -70 -15 -320 -99 -410 -137
-155 -66 -362 -182 -424 -238 -17 -15 -27 -20 -24 -11 12 39 225 165 422 249
124 53 372 136 451 150 85 16 236 14 338 -5 48 -9 91 -14 94 -11 9 10 -19 81
-43 107 -23 25 -23 26 -13 170 5 80 13 181 18 225 6 46 6 86 1 96 -31 58 -350
327 -480 405 -68 40 -116 77 -236 180 -94 80 -143 114 -251 170 -88 46 -88 46
-203 49 -122 3 -219 27 -336 82 -52 24 -53 24 -111 8 -74 -21 -84 -29 -114
-90 -29 -60 -63 -94 -198 -204 -66 -53 -146 -105 -220 -144 -230 -119 -275
-145 -279 -155 -4 -13 260 -8 468 8 74 5 194 9 265 8 128 -1 128 -1 -55 -8
-102 -4 -273 -13 -380 -19 -201 -12 -295 -10 -311 6 -14 14 -1 22 156 103 220
114 242 127 349 213 133 108 166 142 196 204 26 53 50 70 130 92 53 14 64 13
111 -13z m6 -49 c12 -11 29 -17 38 -13 11 4 14 2 9 -6 -5 -7 0 -9 14 -6 12 4
22 2 22 -3 0 -27 -84 6 -120 47 -26 30 -9 21 37 -19z m592 -68 c71 -33 126
-71 255 -177 93 -76 100 -81 260 -188 97 -64 218 -162 374 -303 176 -159 385
-334 547 -458 201 -154 667 -398 960 -501 184 -65 225 -75 505 -122 176 -30
227 -43 439 -111 186 -61 258 -81 391 -109 74 -16 125 -29 112 -29 -42 -2
-247 47 -392 94 -80 25 -190 59 -245 76 -55 17 -212 51 -350 76 -249 44 -337
68 -580 158 -233 86 -678 326 -850 458 -162 124 -371 299 -547 458 -225 203
-455 376 -484 365 -8 -3 -13 -1 -11 4 1 5 -43 45 -98 90 -191 155 -256 199
-355 239 -30 12 -41 19 -25 16 17 -3 59 -19 94 -36z m-919 -38 c0 -15 -28 -33
-40 -26 -8 5 -8 11 1 21 13 15 39 19 39 5z m-248 -192 c-13 -5 -20 -13 -17
-19 3 -5 1 -10 -4 -10 -6 0 -11 6 -11 14 0 15 15 24 40 25 8 0 5 -4 -8 -10z
m1418 -140 c0 -17 -71 -41 -166 -54 -68 -10 -103 -21 -140 -43 -54 -33 -122
-57 -132 -48 -9 9 7 22 63 52 28 14 62 33 78 41 15 8 69 21 121 29 51 7 104
18 117 23 32 13 59 13 59 0z m3733 4 c-7 -2 -19 -2 -25 0 -7 3 -2 5 12 5 14 0
19 -2 13 -5z m-4539 -114 c22 -6 55 -21 75 -33 20 -13 50 -25 66 -29 28 -5
124 4 188 19 20 5 27 3 27 -9 0 -21 -80 -40 -176 -41 -77 -1 -85 1 -128 31
-25 18 -61 35 -81 39 -42 7 -57 23 -17 17 23 -3 24 -2 7 6 -28 13 -8 13 39 0z
m-159 -9 c-87 -14 -464 -31 -661 -30 l-189 2 1 -159 c0 -87 6 -259 13 -383 7
-147 8 -244 2 -280 -9 -51 -9 -49 -5 25 3 44 1 150 -5 235 -17 257 -25 556
-15 563 5 3 153 8 329 12 176 3 363 10 415 14 131 11 180 11 115 1z m-1769
-265 c-44 -97 -182 -283 -198 -267 -12 12 2 40 59 114 24 32 64 90 89 130 24
40 44 68 44 62 0 -15 -79 -139 -138 -218 -29 -38 -52 -73 -52 -79 0 -14 1 -13
80 94 77 105 129 202 131 245 l2 29 4 -28 c3 -16 -6 -50 -21 -82z m1 63 c-3
-7 -5 -2 -5 12 0 14 2 19 5 13 2 -7 2 -19 0 -25z m-1147 -378 c0 -11 -2 -20
-4 -20 -2 0 -6 9 -9 20 -3 11 -1 20 4 20 5 0 9 -9 9 -20z m7275 -140 l-110 -6
115 -4 115 -4 -120 -6 c-222 -12 -298 -42 -417 -161 -42 -42 -74 -70 -71 -60
3 12 1 11 -11 -3 -18 -22 -21 -40 -6 -31 13 8 13 -1 0 -25 -23 -43 -31 -124
-19 -188 6 -35 9 -66 5 -69 -12 -13 -26 14 -36 70 -30 160 69 338 241 430 75
41 194 65 319 64 l105 -1 -110 -6z m-3968 -157 c-7 -41 -44 -267 -56 -343
l-10 -65 5 70 c5 62 33 244 50 330 5 21 3 27 -4 20 -22 -21 -86 -268 -97 -377
-8 -78 -18 -83 -77 -43 -62 42 -279 142 -358 164 -41 12 -113 33 -160 47 -59
17 -109 24 -165 24 -117 0 -285 -25 -376 -55 -44 -15 -83 -25 -86 -22 -3 3 7
30 21 59 14 29 32 89 40 133 8 44 15 66 15 49 1 -41 -35 -181 -54 -211 -9 -13
-14 -23 -12 -23 2 0 37 11 78 25 85 30 258 55 374 55 81 0 131 -11 352 -80 98
-31 280 -114 341 -155 20 -14 40 -25 43 -25 4 0 10 28 14 63 7 70 45 230 76
325 13 40 26 62 36 62 11 0 14 -7 10 -27z m1313 -8 c0 -8 -2 -15 -4 -15 -2 0
-6 7 -10 15 -3 8 -1 15 4 15 6 0 10 -7 10 -15z m263 -157 c256 -252 398 -639
396 -1078 -1 -151 -14 -241 -34 -230 -6 3 -9 63 -6 150 7 305 -47 576 -159
800 -68 136 -164 274 -242 351 -37 37 -68 72 -68 78 0 27 35 5 113 -71z
m-4350 -109 c34 -29 82 -70 105 -91 l44 -40 -17 -47 c-10 -25 -26 -61 -36 -78
-10 -18 -15 -33 -10 -33 15 0 31 26 51 86 11 32 25 61 30 64 5 3 -28 37 -73
75 -121 103 -157 141 -156 161 0 17 1 17 9 -2 7 -19 87 -93 221 -206 24 -21
35 -35 25 -31 -14 4 -17 3 -12 -6 4 -7 2 -10 -5 -9 -7 2 -20 -21 -31 -56 -21
-68 -33 -86 -59 -86 -11 0 -19 2 -19 4 0 2 16 38 36 80 l36 76 -53 47 c-118
104 -169 159 -168 184 1 20 2 19 10 -8 6 -22 31 -50 72 -84z m5144 87 c4 -8
33 -33 63 -55 30 -23 112 -98 183 -168 120 -119 130 -133 178 -232 55 -112 99
-223 98 -244 0 -6 -9 11 -18 39 -10 27 -46 107 -80 176 -60 123 -64 128 -189
251 -127 125 -262 244 -262 231 0 -4 51 -55 113 -114 61 -59 143 -146 181
-194 42 -51 73 -82 77 -75 5 8 8 8 13 0 4 -6 2 -11 -3 -11 -6 0 4 -24 23 -52
42 -66 126 -233 126 -250 0 -7 -22 30 -48 82 -27 52 -61 115 -77 140 -51 82
-210 264 -313 360 -95 88 -123 130 -87 130 7 0 18 -6 22 -14z m-3737 -113 c0
-5 -7 -30 -16 -58 -24 -81 -61 -262 -74 -370 -18 -144 -7 -478 19 -615 24
-123 27 -210 8 -210 -36 0 -86 264 -94 496 -8 243 19 434 93 657 23 69 41 107
50 107 8 0 14 -3 14 -7z m4753 -180 c-7 -2 -21 -2 -30 0 -10 3 -4 5 12 5 17 0
24 -2 18 -5z m-50 -30 c-6 -17 -5 -17 14 0 20 17 93 21 93 4 0 -4 -16 -5 -35
-1 -27 5 -41 2 -55 -11 -11 -10 -23 -15 -26 -12 -7 7 2 37 10 37 3 0 3 -8 -1
-17z m-6171 -22 c18 -11 52 -25 76 -32 23 -7 42 -18 42 -26 0 -18 -17 -17 -82
6 -66 23 -98 42 -98 58 0 18 24 16 62 -6z m7069 -186 c26 -7 109 -16 185 -20
156 -7 261 -25 364 -61 38 -13 87 -24 108 -24 58 0 325 -96 529 -191 46 -21
86 -39 88 -39 3 0 35 -14 72 -31 122 -56 317 -129 608 -227 121 -42 481 -144
635 -181 497 -119 722 -167 970 -204 22 -4 21 -4 -5 -6 -28 -1 -157 20 -325
53 -75 15 -405 91 -640 147 -154 37 -513 139 -635 181 -324 109 -599 216 -810
313 -125 57 -132 60 -280 115 -86 32 -167 56 -210 61 -38 4 -92 17 -120 28
-78 30 -197 49 -349 56 -76 4 -161 13 -190 21 -28 9 -70 20 -93 26 -24 6 -43
15 -43 19 0 5 21 1 48 -7 26 -9 68 -22 93 -29z"/>
<path d="M5291 5760 c0 -17 38 -90 39 -74 0 6 -9 28 -20 50 -10 21 -19 32 -19
24z"/>
<path d="M4124 4100 c-128 -66 -308 -121 -429 -131 -66 -6 -58 -6 45 -4 132 3
124 1 340 84 90 35 163 76 166 94 3 22 7 23 -122 -43z"/>
<path d="M3102 5555 c0 -16 2 -22 5 -12 2 9 2 23 0 30 -3 6 -5 -1 -5 -18z"/>
<path d="M3052 5505 c0 -16 2 -22 5 -12 2 9 2 23 0 30 -3 6 -5 -1 -5 -18z"/>
<path d="M2495 5415 c-61 -36 -121 -92 -111 -103 6 -5 152 54 169 68 5 4 7 22
5 39 l-3 32 -60 -36z"/>
<path d="M4335 5330 l-40 -7 35 -1 c19 0 46 4 60 8 32 10 2 10 -55 0z"/>
<path d="M2441 5111 c-23 -42 -4 -117 20 -80 12 19 11 86 0 94 -6 3 -15 -3
-20 -14z"/>
<path d="M2370 5101 c-13 -25 -13 -71 -1 -71 13 0 17 9 25 53 7 40 -6 51 -24
18z"/>
<path d="M3937 4847 c-56 -57 -48 -54 -357 -143 -93 -27 -216 -97 -267 -152
-14 -16 -36 -25 -65 -28 -69 -7 -88 -13 -88 -29 0 -21 103 -21 119 -1 7 8 31
18 54 21 140 23 480 160 519 210 10 13 46 42 80 65 68 45 93 73 84 95 -9 25
-25 17 -79 -38z m-107 -121 c0 -7 -15 -19 -32 -27 -18 -7 -79 -34 -135 -60
-98 -46 -262 -103 -271 -94 -2 2 29 13 70 25 40 12 125 45 188 74 63 29 128
58 144 65 44 18 27 21 -34 6 -90 -21 -223 -76 -340 -140 -68 -37 -72 -30 -5
10 65 40 96 54 170 80 28 10 55 22 61 26 11 9 146 46 172 48 6 1 12 -5 12 -13z"/>
<path d="M2864 3400 c1 -421 -2 -586 -12 -648 -10 -64 -10 -87 -1 -98 26 -31
-23 -272 -81 -400 -15 -33 -51 -100 -79 -148 -55 -93 -64 -132 -11 -50 119
189 181 376 186 569 13 498 14 643 6 970 l-9 370 1 -565z"/>
<path d="M3615 3030 c-3 -5 -2 -10 4 -10 5 0 13 5 16 10 3 6 2 10 -4 10 -5 0
-13 -4 -16 -10z"/>
<path d="M4761 2699 c-13 -5 -65 -16 -116 -23 -76 -12 -106 -22 -176 -61 -46
-25 -73 -43 -59 -40 14 4 53 23 88 42 48 26 85 38 155 48 51 7 108 20 127 28
38 17 21 22 -19 6z"/>
<path d="M4005 2582 c11 -4 43 -20 70 -37 46 -28 57 -30 136 -28 54 1 98 7
120 17 24 11 26 14 9 11 -60 -14 -157 -23 -185 -18 -16 3 -53 18 -81 34 -28
16 -60 29 -70 28 -18 -1 -17 -1 1 -7z"/>
<path d="M8020 1846 c-30 -6 -84 -27 -119 -46 -62 -34 -171 -130 -171 -152 0
-7 22 11 48 39 27 28 76 69 110 91 56 36 80 45 187 70 22 6 31 10 20 10 -11 0
-45 -5 -75 -12z"/>
<path d="M7679 1549 c-15 -54 -15 -175 0 -209 9 -21 10 -17 4 20 -11 61 -7
141 7 185 7 20 10 39 7 42 -3 3 -11 -15 -18 -38z"/>
<path d="M5720 1616 c0 -4 32 -36 71 -73 120 -114 251 -333 313 -528 63 -195
92 -419 84 -640 -5 -125 -4 -136 7 -100 31 92 13 441 -31 620 -57 229 -180
465 -326 620 -58 62 -118 113 -118 101z"/>
<path d="M2857 1403 c-2 -4 -18 -51 -36 -103 -69 -211 -96 -406 -88 -644 5
-173 42 -409 70 -462 l16 -29 0 50 c1 28 -9 97 -20 155 -26 137 -37 471 -19
615 13 107 49 289 74 370 14 44 15 69 3 48z"/>
<path d="M1374 1176 c23 -19 125 -58 138 -54 5 2 -21 16 -59 31 -97 40 -100
41 -79 23z"/>
<path d="M5210 7196 c0 -3 9 -20 19 -38 29 -49 85 -205 130 -363 90 -316 118
-462 132 -693 6 -113 19 -217 35 -290 27 -124 17 -106 199 -372 92 -134 153
-260 191 -390 l26 -93 -21 -147 c-11 -81 -28 -164 -37 -185 -9 -21 -24 -95
-35 -164 -10 -69 -30 -164 -45 -210 -24 -80 -25 -87 -14 -175 18 -136 64 -302
105 -381 21 -39 40 -72 44 -75 14 -11 51 -63 51 -73 0 -6 -12 6 -27 26 -27 35
-43 46 -43 29 0 -5 9 -18 20 -30 11 -12 20 -25 19 -29 -1 -5 21 -12 47 -16 27
-4 96 -19 154 -33 58 -13 134 -31 170 -40 36 -8 199 -32 363 -52 235 -29 315
-36 375 -30 248 22 583 -13 917 -97 28 -7 64 -10 82 -8 48 8 135 -22 288 -97
107 -53 166 -89 250 -157 122 -98 185 -159 185 -179 0 -7 4 -16 10 -19 21 -13
296 88 466 172 65 32 137 65 159 74 22 9 79 33 127 53 168 71 414 153 528 176
25 6 86 19 135 30 135 31 434 78 601 96 337 35 610 29 1019 -22 l130 -16 65
37 c73 42 408 208 485 242 58 25 158 63 233 89 l52 18 0 1718 0 1718 -3795 0
c-2087 0 -3795 -2 -3795 -4z"/>
<path d="M12690 3629 c-58 -21 -114 -43 -125 -49 -11 -5 -60 -27 -110 -49 -49
-21 -115 -50 -145 -64 -30 -13 -102 -42 -159 -63 l-103 -38 53 -12 c30 -6 103
-19 163 -28 149 -24 283 -59 358 -94 71 -34 167 -66 174 -60 2 3 3 116 2 251
l-3 246 -105 -40z"/>
<path d="M1465 1028 c-31 -94 -134 -746 -140 -883 l-5 -120 20 90 c19 85 97
589 120 775 5 47 13 100 16 118 6 31 -2 45 -11 20z"/>
</g>
</svg>
