<?xml version="1.0" standalone="no"?>
<!DOCTYPE svg PUBLIC "-//W3C//DTD SVG 20010904//EN"
 "http://www.w3.org/TR/2001/REC-SVG-20010904/DTD/svg10.dtd">
<svg version="1.0" xmlns="http://www.w3.org/2000/svg"
 width="1280.000000pt" height="720.000000pt" viewBox="0 0 1280.000000 720.000000"
 preserveAspectRatio="xMidYMid meet">
<metadata>
Created by potrace 1.16, written by Peter Selinger 2001-2019
</metadata>
<g transform="translate(0.000000,720.000000) scale(0.100000,-0.100000)"
fill="#000000" stroke="none">
<path d="M0 3600 l0 -3600 29 0 c26 0 32 6 49 53 11 28 27 66 36 82 9 17 16
33 16 37 0 4 23 56 51 115 76 160 112 238 154 333 21 47 51 113 66 147 98 215
152 360 154 414 1 33 9 66 18 80 13 17 17 46 17 110 0 82 2 89 36 140 20 31
56 68 85 87 27 18 54 44 59 58 6 14 10 69 10 122 1 105 2 114 50 302 35 139
54 169 128 201 37 16 152 45 537 135 61 15 157 41 215 59 155 49 215 65 243
65 78 0 76 42 -8 159 -72 100 -98 194 -120 426 -35 383 -46 568 -55 952 -12
523 -59 998 -110 1122 -10 25 -26 73 -36 106 -9 33 -25 87 -35 120 -88 286
-121 681 -83 1004 20 171 57 293 148 486 14 28 36 79 51 115 15 36 38 89 51
118 l24 52 -890 0 -890 0 0 -3600z"/>
<path d="M1766 7147 c-14 -30 -26 -58 -26 -62 0 -7 -37 -92 -135 -310 -138
-305 -140 -916 -6 -1350 10 -33 27 -89 37 -125 9 -36 21 -69 25 -75 52 -71
106 -594 119 -1148 6 -225 17 -495 25 -600 48 -594 56 -636 152 -771 42 -58
63 -106 63 -140 0 -21 -6 -26 -37 -31 -70 -10 -137 -27 -258 -65 -118 -37
-165 -49 -511 -129 -305 -71 -337 -93 -369 -246 -10 -50 -25 -106 -33 -125 -9
-22 -17 -91 -21 -182 -5 -95 -12 -152 -20 -162 -7 -8 -32 -28 -56 -42 -23 -15
-57 -50 -76 -77 -31 -46 -34 -57 -39 -147 -3 -58 -11 -104 -18 -113 -8 -9 -15
-40 -16 -69 -3 -48 -77 -247 -164 -439 -75 -163 -132 -291 -132 -294 0 -2 -27
-59 -59 -127 -53 -109 -141 -306 -141 -315 0 -2 263 -3 585 -3 l585 0 0 68 c0
90 14 204 55 465 54 342 86 497 102 497 16 0 16 -20 2 -130 -23 -188 -101
-730 -115 -800 -8 -41 -14 -81 -14 -87 0 -10 689 -13 3410 -13 2167 0 3410 3
3410 10 0 21 -78 90 -109 96 -43 9 -53 28 -90 163 -18 62 -48 154 -69 205 -39
99 -44 154 -27 313 10 92 -3 114 -77 138 -125 40 -221 80 -242 102 -21 21 -24
35 -28 126 -3 56 -8 110 -13 120 -6 15 -1 17 40 17 47 0 120 -16 140 -31 6 -4
56 -23 112 -42 85 -29 112 -43 160 -87 82 -73 224 -139 423 -196 91 -26 194
-55 230 -65 35 -11 143 -30 240 -44 475 -68 553 -93 845 -269 341 -207 524
-303 875 -461 58 -26 125 -57 150 -68 l45 -22 1053 -3 1052 -3 0 1448 c0 796
-4 1453 -8 1459 -8 13 -93 39 -192 59 -36 8 -144 32 -240 54 -218 50 -455 92
-869 154 -214 32 -220 32 -576 31 -282 -1 -388 -5 -490 -18 -254 -34 -490 -88
-650 -147 -44 -17 -141 -48 -215 -70 -263 -77 -361 -115 -520 -200 -111 -60
-146 -73 -305 -114 -129 -33 -195 -33 -195 0 0 8 14 12 43 12 23 -1 80 11 127
25 47 14 99 29 115 32 29 7 163 71 255 123 25 14 81 40 125 58 75 31 139 53
415 140 63 20 144 47 179 60 114 43 342 94 561 125 512 74 807 67 1418 -29
l193 -31 37 29 c54 43 174 104 282 144 93 35 339 103 453 127 l57 11 0 1860 0
1859 -3860 0 -3861 0 30 -53 c39 -71 91 -222 156 -452 66 -238 102 -439 110
-620 4 -95 14 -175 31 -250 27 -118 57 -177 165 -320 125 -167 196 -305 239
-469 23 -84 23 -85 6 -208 -9 -68 -26 -152 -36 -188 -11 -36 -29 -124 -40
-195 -11 -71 -30 -160 -41 -198 -23 -75 -22 -138 7 -272 14 -68 71 -251 95
-311 7 -16 11 -33 10 -38 -1 -5 5 -16 12 -25 8 -9 24 -34 35 -56 17 -33 25
-39 53 -41 19 -1 81 -20 138 -43 149 -59 336 -89 666 -106 61 -3 130 -7 155
-10 25 -3 88 -7 140 -10 52 -2 156 -16 230 -30 74 -13 164 -29 200 -34 201
-30 462 -96 600 -151 30 -12 86 -32 124 -46 111 -39 476 -292 476 -331 0 -22
-34 -14 -63 16 -16 16 -43 31 -64 34 -35 6 -97 44 -205 124 -31 24 -59 43 -62
43 -4 0 -23 11 -44 23 -20 13 -62 32 -92 42 -30 10 -73 26 -95 35 -38 17 -58
24 -180 64 -53 17 -305 69 -415 85 -36 6 -114 20 -175 32 -116 22 -199 30
-490 48 -353 21 -580 57 -700 111 -107 48 -100 46 -345 114 -30 8 -88 36 -128
61 -41 25 -75 45 -77 45 -11 0 -75 43 -71 47 3 3 64 -29 137 -71 73 -42 139
-76 145 -76 28 0 257 -72 335 -105 147 -63 330 -94 704 -116 291 -18 374 -26
490 -48 61 -12 139 -26 175 -32 110 -16 373 -71 410 -84 19 -7 48 -16 65 -20
41 -9 248 -89 315 -122 30 -15 71 -39 90 -54 86 -65 205 -139 226 -139 13 0
39 -14 59 -31 20 -18 38 -29 41 -27 9 10 -101 96 -257 200 -121 81 -177 112
-250 137 -52 19 -107 40 -124 47 -81 37 -371 107 -555 135 -36 5 -126 21 -200
34 -74 14 -178 28 -230 30 -52 3 -115 7 -140 10 -25 3 -94 7 -155 10 -284 15
-521 48 -617 86 -125 50 -178 66 -201 62 -22 -4 -29 1 -51 43 -15 27 -30 56
-35 64 -15 25 -99 301 -115 375 -29 134 -30 197 -7 272 11 38 30 127 41 198
11 72 29 159 40 195 10 36 26 120 36 188 17 123 17 124 -6 210 -26 102 -100
258 -168 355 -209 299 -202 287 -233 420 -21 89 -30 161 -35 267 -7 170 -39
356 -95 565 -63 234 -107 362 -156 463 l-46 92 -1637 0 -1638 0 -26 -53z m545
-553 c30 -9 75 -31 102 -50 l47 -34 11 23 c13 30 36 31 43 2 8 -33 93 -182
140 -245 22 -30 52 -76 66 -102 15 -27 67 -94 116 -150 50 -57 114 -134 144
-173 113 -148 249 -290 355 -370 78 -59 231 -137 331 -170 120 -39 259 -58
394 -51 63 2 129 7 145 11 29 5 29 5 5 -6 -39 -17 -234 -23 -335 -10 -145 19
-222 43 -373 112 -178 82 -353 240 -551 499 -19 25 -75 91 -125 148 -49 56
-101 123 -116 150 -14 26 -45 73 -68 104 -23 32 -66 103 -96 159 -49 92 -55
100 -65 80 -16 -28 -23 -27 -81 15 -52 38 -123 64 -172 64 -23 0 -31 -7 -45
-37 -79 -184 -85 -189 -195 -179 -38 3 -68 3 -68 -1 0 -5 -9 -69 -20 -143 -47
-323 -14 -666 82 -847 55 -103 171 -310 196 -348 11 -16 58 -106 105 -200 97
-192 150 -263 277 -373 192 -165 384 -274 705 -401 72 -29 144 -58 160 -66 17
-7 43 -17 60 -21 26 -6 27 -8 10 -14 -36 -14 50 -23 158 -18 96 5 165 22 262
63 17 7 59 26 95 41 122 53 244 131 308 198 34 35 62 72 62 81 0 9 11 31 24
48 14 18 37 64 51 104 23 60 25 77 16 100 -11 27 -11 27 -6 -7 4 -27 2 -31 -6
-20 -8 12 -10 9 -6 -12 2 -15 1 -26 -2 -23 -4 2 -13 -17 -20 -43 -15 -51 -40
-104 -41 -85 0 6 8 31 19 55 22 53 61 213 62 259 1 75 14 63 14 -13 0 -46 -2
-71 -6 -57 l-7 24 0 -25 c0 -14 3 -34 7 -45 6 -16 11 -8 20 35 19 85 25 198
13 223 -6 12 -16 73 -22 135 -8 86 -20 140 -51 230 -100 287 -93 256 -93 399
-1 118 1 134 20 160 13 17 32 29 50 31 27 2 33 -4 81 -85 28 -49 72 -130 97
-181 57 -115 109 -193 197 -295 l68 -78 3 -287 c3 -264 8 -322 27 -322 4 0 7
8 8 18 4 65 20 118 64 214 51 112 95 268 106 374 5 54 1 76 -40 200 -57 175
-73 241 -82 332 -6 63 -3 84 21 163 30 99 46 115 101 100 30 -8 44 -30 75
-116 l18 -50 -6 52 c-8 69 0 88 42 108 56 26 66 18 109 -80 54 -125 97 -205
107 -199 6 4 8 3 5 -4 -10 -15 3 -43 17 -35 6 3 8 3 4 -1 -7 -8 24 -81 115
-266 61 -124 62 -126 60 -205 -2 -94 -21 -205 -70 -408 -34 -140 -37 -195 -11
-169 30 30 118 475 118 601 0 51 -24 115 -65 174 -8 12 -15 28 -14 37 0 13 1
13 6 0 12 -31 56 -101 60 -96 3 3 -7 26 -22 51 -15 26 -25 48 -23 51 6 6 92
-151 121 -221 58 -143 60 -152 43 -287 -9 -68 -23 -184 -32 -258 -8 -74 -40
-241 -70 -370 -30 -129 -70 -302 -89 -385 -19 -82 -39 -168 -44 -190 l-10 -40
5 45 c3 25 21 110 40 190 109 462 144 629 158 750 9 74 23 190 32 258 15 120
15 124 -6 185 -22 66 -105 239 -94 197 24 -92 7 -264 -52 -520 -41 -177 -44
-185 -70 -185 -30 0 -28 27 10 183 48 199 67 309 69 402 2 76 1 81 -50 181
-29 57 -70 142 -92 189 -22 47 -60 121 -83 166 -41 76 -67 132 -102 217 -20
48 -37 54 -82 26 l-36 -22 6 -55 c7 -60 113 -280 173 -359 45 -58 61 -93 78
-165 17 -72 19 -131 6 -156 -12 -21 -27 -119 -51 -325 -9 -86 -23 -164 -30
-172 -7 -8 -9 -26 -5 -43 8 -38 -21 -55 -31 -17 -5 22 1 101 11 135 12 39 58
375 63 448 3 69 0 94 -18 144 -12 33 -19 62 -16 65 2 3 -13 31 -35 63 -57 84
-114 196 -168 333 -38 97 -53 125 -74 135 -44 21 -63 2 -92 -91 -40 -124 -29
-208 61 -487 24 -74 44 -153 44 -175 0 -47 -42 -235 -70 -318 -11 -32 -36 -89
-55 -126 -19 -38 -37 -88 -40 -112 -12 -83 -13 -91 -19 -96 -2 -3 -9 -2 -15 1
-22 14 -31 119 -31 360 l0 253 -68 79 c-89 104 -141 181 -197 295 -68 140
-148 269 -166 269 -8 0 -26 -12 -40 -26 -22 -23 -24 -35 -27 -132 -3 -122 5
-158 86 -392 39 -111 54 -174 67 -270 8 -69 18 -145 21 -169 13 -92 -58 -365
-112 -438 -13 -17 -24 -39 -24 -48 0 -9 -24 -41 -52 -72 -98 -103 -265 -194
-518 -283 -99 -35 -253 -39 -362 -11 -220 59 -524 166 -582 206 -29 21 -52 19
-70 -7 -27 -38 -20 -64 30 -105 69 -56 204 -185 204 -194 0 -5 23 -44 51 -88
48 -76 54 -82 127 -117 42 -20 85 -45 94 -55 19 -19 281 -193 338 -224 44 -24
130 -77 195 -121 72 -49 193 -74 385 -81 85 -3 160 -8 167 -12 18 -9 -212 -2
-301 10 -172 23 -221 42 -376 149 -14 10 -46 28 -70 40 -25 13 -112 67 -194
121 -81 55 -156 99 -167 99 -10 0 -21 5 -25 11 -4 8 0 9 15 4 46 -14 17 7 -64
46 -85 41 -86 42 -133 122 -46 80 -152 196 -255 280 -49 40 -60 74 -37 117 7
13 7 21 0 25 -18 11 -11 35 10 35 11 0 20 -4 20 -10 0 -5 -7 -7 -16 -3 -12 4
-15 2 -12 -8 3 -9 15 -13 32 -11 17 2 62 -13 120 -42 118 -57 473 -176 525
-176 16 0 -133 65 -279 120 -104 40 -232 98 -315 143 -165 92 -370 254 -462
367 -50 61 -203 342 -203 373 0 7 -11 24 -25 37 -14 13 -25 27 -25 31 0 5 -34
67 -75 139 -149 260 -179 339 -205 541 -16 134 -12 367 10 519 11 74 20 141
20 148 0 10 17 11 73 6 48 -4 81 -3 95 5 18 10 65 95 101 184 13 33 48 36 132
11z m-531 -499 c0 -8 -7 -15 -15 -15 -8 0 -15 7 -15 15 0 8 7 15 15 15 8 0 15
-7 15 -15z m3507 -121 c-3 -3 -12 -4 -19 -1 -8 3 -5 6 6 6 11 1 17 -2 13 -5z
m-2728 -13 c28 -18 3 -48 -45 -55 -72 -9 -215 -46 -248 -63 -86 -45 -176 -137
-215 -221 -14 -29 -26 -50 -29 -48 -8 8 50 121 80 155 40 45 122 109 161 126
36 15 179 51 244 61 41 6 62 27 42 40 -6 3 -48 3 -92 -1 -62 -5 -97 -14 -142
-37 -161 -81 -263 -185 -295 -301 -7 -26 -15 -46 -17 -43 -8 8 27 108 52 152
44 75 211 198 302 223 70 20 180 26 202 12z m467 -80 c86 -79 287 -208 439
-282 155 -75 292 -125 464 -170 173 -45 361 -52 361 -14 0 8 6 15 14 15 9 0
17 -15 21 -40 4 -22 10 -42 15 -45 5 -3 18 -36 31 -73 12 -37 26 -72 31 -79
14 -18 45 -135 63 -237 15 -92 15 -95 -10 -223 -30 -155 -63 -269 -103 -355
-16 -35 -32 -73 -36 -85 -4 -12 -21 -34 -39 -49 -18 -15 -32 -31 -32 -36 0
-14 -78 -56 -94 -50 -10 4 -12 1 -6 -8 5 -9 4 -11 -3 -6 -6 4 -42 -11 -80 -32
-142 -81 -376 -153 -483 -150 l-64 2 75 5 75 6 -70 8 c-106 12 -114 14 -64 16
26 0 70 -4 99 -9 47 -9 65 -7 154 19 122 36 295 115 349 160 10 8 17 9 22 2 7
-12 75 28 75 45 0 5 14 20 31 33 57 43 135 243 180 463 l30 149 -17 97 c-18
105 -35 163 -84 287 -18 44 -37 94 -43 112 l-12 32 -90 -6 c-146 -9 -354 38
-615 139 -201 78 -476 238 -582 339 -21 19 -39 32 -40 28 -2 -5 -8 3 -15 16
-6 14 -9 25 -6 25 3 0 29 -22 59 -49z m-320 -78 c88 -82 183 -201 198 -250 5
-14 2 -23 -9 -27 -12 -4 -16 -20 -15 -63 0 -32 -4 -81 -10 -110 -6 -29 -9 -98
-8 -154 l3 -102 64 -33 c35 -18 68 -37 74 -43 6 -6 -21 4 -59 24 -39 19 -77
41 -84 50 -20 25 2 422 25 441 11 8 4 26 -42 92 -52 76 -228 260 -239 249 -3
-3 36 -45 86 -93 62 -60 90 -94 88 -107 -3 -19 -101 -67 -137 -67 -22 0 -284
-134 -356 -183 -102 -68 -115 -84 -115 -139 0 -43 2 -48 22 -48 49 0 137 27
213 66 61 31 79 45 77 59 -3 17 13 35 33 35 6 -1 1 -7 -9 -15 -41 -31 -7 -23
45 10 30 20 73 45 96 56 23 11 47 27 53 35 7 7 18 14 26 14 7 0 19 10 25 23 6
12 21 32 32 45 11 12 16 22 10 22 -5 0 -21 -13 -35 -29 -23 -25 -31 -28 -60
-22 -52 11 -45 33 20 65 69 34 88 30 121 -21 22 -34 23 -43 16 -117 -4 -45
-11 -144 -15 -221 l-7 -140 4 155 c2 85 6 183 9 217 5 48 2 67 -12 88 l-18 27
-28 -33 c-15 -19 -28 -39 -28 -46 0 -7 -11 -18 -24 -25 -64 -34 -159 -91 -234
-141 -99 -66 -233 -117 -305 -117 l-37 0 0 53 c0 66 13 85 103 146 89 60 322
179 368 188 48 9 139 51 139 64 0 6 -40 51 -90 99 -85 83 -104 110 -79 110 6
0 53 -39 105 -87z m528 -186 c94 -90 194 -158 319 -217 152 -71 269 -97 517
-114 30 -2 0 -2 -67 0 -133 4 -232 21 -350 60 -100 34 -234 103 -308 159 -78
59 -211 191 -287 285 l-60 75 83 -90 c46 -49 115 -120 153 -158z m2156 148 c0
-16 -27 28 -34 55 -5 19 -2 16 13 -10 11 -19 20 -39 21 -45z m-2380 -237 c0
-40 -27 -36 -33 5 -6 44 0 47 12 6 l11 -34 -5 40 c-3 28 -2 35 5 25 5 -8 10
-27 10 -42z m-58 -24 c2 -19 0 -37 -4 -40 -16 -10 -28 8 -28 42 0 47 26 46 32
-2z m-42 -40 c0 -30 -3 -53 -7 -51 -8 5 -5 107 3 107 2 0 4 -25 4 -56z m-458
-72 c-4 -41 -6 -43 -67 -73 -70 -34 -135 -48 -135 -30 0 32 184 172 201 153 3
-4 4 -26 1 -50z m1859 -57 c0 -5 -18 -15 -40 -22 -23 -6 -39 -8 -36 -2 4 5
-10 9 -32 8 -33 -1 -35 -2 -13 -9 17 -5 8 -7 -32 -6 -32 1 -58 4 -58 7 0 4 29
10 65 14 35 3 77 10 92 15 34 10 54 8 54 -5z m-1284 -269 c57 -61 103 -114
103 -119 0 -6 -16 7 -36 29 -19 21 -52 57 -72 79 -20 23 -61 67 -89 99 -29 32
-53 52 -53 46 0 -11 74 -96 139 -157 18 -18 29 -33 24 -33 -8 0 -107 98 -147
147 -10 13 -21 40 -23 60 l-4 38 27 -40 c15 -22 74 -89 131 -149z m-659 -2 c3
-54 -14 -82 -43 -70 -32 12 -11 130 23 124 13 -2 18 -15 20 -54z m-73 4 c-10
-64 -15 -78 -28 -75 -43 8 -31 117 14 117 19 0 20 -4 14 -42z m591 -8 c5 0 45
-21 88 -46 43 -25 84 -47 90 -49 26 -5 45 -18 51 -33 5 -14 4 -14 -13 1 -10 9
-22 14 -25 10 -4 -3 -15 0 -24 8 -24 19 -55 37 -137 79 -38 20 -72 43 -74 51
-4 10 0 9 15 -3 11 -10 24 -18 29 -18z m2923 -127 l-1 -28 -8 25 c-6 20 -9 12
-11 -35 -5 -100 -6 -109 -18 -135 l-11 -25 5 26 c2 14 7 59 11 100 3 41 7 80
10 87 7 23 24 12 23 -15z m-1886 -40 c2 -5 0 -22 -4 -39 -6 -21 -26 -42 -66
-70 -31 -21 -75 -56 -97 -76 -23 -21 -44 -38 -48 -38 -4 0 -59 -24 -121 -54
-106 -50 -268 -107 -347 -122 -19 -4 -43 -13 -52 -21 -39 -34 -153 -23 -146
14 4 20 36 31 96 32 28 1 45 6 49 16 8 22 121 101 186 129 30 14 131 48 223
76 l169 50 52 55 c36 38 60 55 77 55 14 0 27 -3 29 -7z m578 -178 c-6 -35 -9
-41 -10 -20 -1 30 9 78 15 73 2 -2 -1 -26 -5 -53z m393 -40 c-4 -8 -8 -15 -10
-15 -2 0 -4 7 -4 15 0 8 4 15 10 15 5 0 7 -7 4 -15z m763 -580 c0 -8 -4 -15
-9 -15 -4 0 -8 7 -8 15 0 8 4 15 8 15 5 0 9 -7 9 -15z m-1952 -86 c-22 -4 -53
-7 -70 -7 -26 1 -24 2 10 8 22 4 54 7 70 7 25 1 23 -1 -10 -8z m-923 -263 c2
-122 3 -450 3 -731 0 -460 -2 -518 -19 -590 -46 -203 -185 -479 -222 -443 -7
8 -2 18 94 198 39 74 70 148 86 208 31 116 43 226 27 246 -8 10 -9 38 0 112 8
67 10 275 7 644 -4 358 -3 447 2 260 11 -432 11 -815 0 -909 -6 -51 -6 -89 0
-96 5 -6 11 -33 13 -60 2 -28 3 265 1 650 -2 385 -6 714 -9 730 -4 21 -3 26 4
16 5 -8 11 -114 13 -235z m2425 68 c-3 -3 -12 -4 -19 -1 -8 3 -5 6 6 6 11 1
17 -2 13 -5z m80 -29 c33 -13 83 -38 109 -55 27 -17 61 -36 77 -42 37 -17 35
-30 -3 -17 -16 6 -30 15 -30 20 0 11 -120 72 -127 65 -3 -2 23 -19 57 -36 34
-17 60 -33 58 -36 -3 -2 -31 11 -64 29 -32 17 -88 45 -124 60 -36 15 -55 25
-42 22 12 -3 32 -8 45 -11 21 -5 20 -4 -3 10 -36 22 -22 19 47 -9z m-2230 -47
c-3 -8 -6 -5 -6 6 -1 11 2 17 5 13 3 -3 4 -12 1 -19z m72 -84 c6 4 11 2 11 -3
0 -6 -5 -11 -12 -11 -15 0 -48 30 -48 44 0 6 9 0 19 -13 10 -13 23 -21 30 -17z
m2462 -21 c13 -15 12 -15 -7 -5 -12 6 -24 8 -28 5 -3 -3 -6 -1 -6 5 0 18 25
14 41 -5z m499 -151 c0 -5 -7 -9 -15 -9 -8 0 -15 4 -15 9 0 4 7 8 15 8 8 0 15
-4 15 -8z m-2355 -212 c23 -25 8 -26 -19 -1 -25 22 -98 62 -104 56 -3 -3 26
-103 32 -112 1 -1 24 4 51 12 26 8 53 15 59 14 12 0 -93 -38 -109 -39 -12 0
-49 125 -41 138 7 12 104 -39 131 -68z m159 -89 c100 -48 205 -71 327 -71
l106 0 117 -61 c86 -46 151 -91 254 -176 75 -63 155 -124 177 -135 109 -56
337 -237 458 -363 l67 -70 -6 -70 c-3 -38 -11 -140 -18 -225 l-13 -155 23 -25
c25 -28 62 -125 52 -136 -4 -3 -47 1 -95 10 -108 20 -276 20 -363 2 -257 -56
-700 -257 -822 -374 -21 -20 -38 -32 -38 -26 0 41 223 175 456 276 105 45 314
114 404 134 86 18 258 18 360 -2 45 -8 84 -13 87 -10 9 9 -27 89 -52 116 l-23
25 19 224 18 225 -41 45 c-105 118 -367 329 -483 389 -22 11 -99 69 -170 129
-151 125 -157 129 -280 193 l-94 48 -128 4 c-110 4 -142 10 -223 37 -52 18
-105 39 -118 47 -19 13 -32 13 -75 4 -61 -12 -117 -43 -117 -64 0 -25 -55 -99
-113 -151 -148 -137 -219 -186 -392 -273 -77 -39 -158 -83 -180 -97 l-40 -26
210 6 c116 3 255 10 310 15 55 5 157 9 228 10 106 0 127 -2 127 -15 0 -8 -4
-15 -8 -15 -4 0 -111 -7 -238 -16 -126 -9 -315 -17 -420 -18 l-191 -1 -8 -180
c-5 -99 -7 -294 -5 -432 1 -141 -1 -253 -6 -253 -11 0 -10 430 1 690 l8 185
196 1 c187 1 649 28 659 39 9 9 -238 5 -343 -5 -55 -5 -196 -13 -312 -16 -183
-6 -213 -5 -213 7 0 17 76 62 245 147 66 33 143 77 171 99 192 143 282 236
307 315 7 19 54 44 112 57 60 14 62 13 129 -18z m-24 -31 c25 -22 42 -29 60
-26 14 3 19 3 12 0 -6 -3 -10 -10 -7 -14 3 -5 -7 -5 -22 1 -30 11 -104 69 -88
69 6 0 26 -14 45 -30z m528 -17 c-10 -2 -28 -2 -40 0 -13 2 -5 4 17 4 22 1 32
-1 23 -4z m-1 -24 c140 -57 194 -91 353 -222 52 -43 122 -94 155 -114 33 -20
87 -54 120 -76 67 -46 296 -234 307 -252 4 -7 40 -39 80 -71 40 -32 132 -108
203 -169 72 -61 142 -120 156 -131 15 -10 69 -51 120 -91 128 -97 280 -189
494 -297 401 -203 586 -266 968 -331 288 -49 376 -73 467 -129 36 -21 81 -48
100 -58 26 -14 29 -18 14 -18 -11 0 -45 17 -75 38 -120 83 -201 108 -525 162
-151 25 -280 52 -351 75 -119 38 -358 126 -389 144 -11 6 -75 38 -144 70 -242
116 -419 220 -569 334 -51 40 -105 81 -120 91 -14 11 -84 70 -156 131 -71 61
-163 137 -203 169 -40 32 -76 64 -80 71 -11 18 -240 206 -307 252 -33 22 -87
56 -120 76 -33 20 -103 71 -155 114 -160 132 -206 161 -370 231 -34 14 -8 15
27 1z m-855 -76 c-6 -2 -10 -9 -6 -14 3 -5 0 -9 -5 -9 -6 0 -11 7 -11 15 0 8
8 15 18 14 10 0 12 -3 4 -6z m5082 -206 c28 -24 66 -53 84 -66 33 -23 43 -51
18 -51 -8 0 -34 19 -58 43 -24 23 -33 32 -19 21 44 -37 81 -57 81 -45 0 6 -3
11 -7 11 -5 0 -39 25 -76 55 -38 30 -75 55 -83 55 -8 0 -12 5 -9 10 9 15 14
13 69 -33z m-5306 1 c-7 -19 -38 -22 -38 -4 0 10 9 16 21 16 12 0 19 -5 17
-12z m5283 -15 c13 -16 12 -17 -3 -4 -10 7 -18 15 -18 17 0 8 8 3 21 -13z
m-3871 -108 c0 -17 -70 -39 -180 -55 -51 -7 -89 -20 -123 -41 -41 -25 -138
-66 -124 -53 2 3 43 25 91 49 67 35 107 48 182 60 53 8 108 22 122 30 32 17
25 19 -13 5 -15 -6 -69 -17 -121 -24 -73 -11 -109 -23 -158 -50 -65 -36 -116
-59 -116 -51 0 4 47 29 144 77 21 11 80 26 131 34 51 7 103 18 116 23 35 14
49 13 49 -4z m-805 -112 c16 -4 50 -19 74 -35 50 -31 104 -36 204 -17 67 12
93 3 52 -18 -16 -9 -70 -17 -126 -20 -94 -6 -99 -5 -146 23 -26 16 -61 34 -78
41 -23 9 -26 12 -10 13 15 1 11 5 -15 16 -21 8 -25 12 -10 9 14 -3 38 -8 55
-12z m-1905 -180 c0 -15 -2 -16 -10 -3 -14 21 -13 -5 1 -31 19 -36 -26 -125
-138 -275 -29 -39 -59 -71 -67 -71 -21 0 -4 38 47 105 84 110 141 214 139 255
-1 26 3 37 14 37 7 0 14 -8 14 -17z m-1013 -227 c-14 -11 -15 -15 -5 -19 8 -4
7 -6 -4 -6 -10 -1 -18 5 -18 13 0 12 13 20 40 25 3 0 -3 -6 -13 -13z m-147
-206 c0 -5 -8 -10 -17 -10 -15 0 -16 2 -3 10 19 12 20 12 20 0z m7335 -78
l-40 -6 40 -6 c22 -4 -7 -5 -65 -3 -58 3 -123 0 -145 -5 -33 -8 -22 -9 60 -7
55 1 80 1 55 -1 -186 -16 -278 -53 -375 -150 -34 -34 -74 -86 -89 -115 -15
-32 -26 -45 -27 -33 0 18 -1 18 -9 -1 -5 -11 -8 -33 -8 -50 l0 -30 9 30 c7 26
8 25 4 -10 -3 -22 -5 -49 -6 -60 -1 -11 -5 -5 -10 15 -6 28 -7 24 -3 -20 2
-30 7 -66 10 -80 4 -18 3 -21 -4 -10 -32 50 -21 186 24 277 48 100 198 217
311 244 47 11 204 26 273 26 34 0 34 -1 -5 -5z m-4029 -199 c-6 -27 -35 -205
-54 -333 l-10 -65 5 70 c5 70 37 281 49 323 3 12 2 22 -3 22 -18 0 -78 -225
-95 -355 -6 -49 -12 -91 -13 -93 -1 -1 -81 35 -176 82 -96 46 -199 91 -229
100 -209 59 -283 76 -336 76 -96 0 -291 -29 -372 -56 -41 -13 -81 -24 -88 -24
-18 0 -18 24 0 39 14 12 28 54 50 161 8 36 14 57 15 48 2 -32 -30 -163 -48
-200 -10 -21 -16 -38 -12 -38 3 0 40 11 82 25 83 26 278 55 373 55 57 0 177
-28 363 -86 45 -14 148 -58 228 -98 144 -72 145 -72 145 -47 1 46 28 184 61
304 27 99 35 117 52 117 16 0 18 -5 13 -27z m1313 5 c0 -16 -2 -18 -6 -8 -3 8
-11 18 -17 22 -7 5 -4 8 7 8 11 0 17 -7 16 -22z m236 -129 c140 -122 279 -340
343 -539 90 -278 120 -630 66 -789 -2 -8 -6 -12 -9 -9 -2 2 2 26 10 53 41 134
4 498 -76 742 -69 211 -296 539 -404 584 -15 6 -16 8 -4 8 9 1 42 -22 74 -50z
m3 -36 c190 -187 340 -515 382 -831 15 -114 17 -422 2 -447 -10 -17 -11 -15
-7 15 12 104 13 138 5 285 -14 258 -61 444 -162 640 -58 114 -161 260 -233
333 -40 39 -69 72 -64 72 5 0 40 -30 77 -67z m814 -1 c7 -10 42 -40 78 -67 36
-27 117 -101 181 -165 92 -90 125 -131 156 -190 47 -90 113 -243 113 -262 0
-7 -12 16 -27 52 -14 36 -51 112 -80 170 -49 93 -67 117 -166 216 -62 60 -145
136 -185 168 -40 32 -76 64 -79 72 -3 8 -9 14 -14 14 -20 0 14 -41 79 -94 69
-57 246 -249 267 -289 6 -12 19 -21 28 -21 9 1 15 -2 12 -6 -3 -5 8 -28 24
-52 38 -57 126 -226 120 -232 -2 -2 -22 30 -44 72 -50 97 -113 194 -132 205
-8 5 -17 17 -21 27 -7 19 -211 250 -221 250 -15 0 -131 118 -131 133 0 22 25
22 42 -1z m-5073 -155 c58 -49 113 -95 123 -101 25 -15 23 -38 -3 -34 -18 2
-25 -6 -39 -48 -26 -74 -38 -94 -60 -94 -25 0 -25 10 0 52 10 18 26 52 34 75
l14 41 -84 72 c-91 79 -134 125 -134 143 1 7 7 0 15 -14 7 -14 48 -54 90 -90
42 -35 88 -73 101 -84 l24 -21 -20 -59 c-11 -32 -27 -69 -35 -82 -9 -13 -11
-23 -6 -23 14 0 38 43 54 96 13 42 18 49 38 47 24 -3 24 -2 4 12 -90 68 -230
196 -241 220 -14 30 -14 30 3 6 10 -13 65 -65 122 -114z m6154 -2 c5 -28 4
-34 -3 -20 -8 19 -14 73 -6 64 2 -2 6 -22 9 -44z m-4817 -7 c-69 -232 -91
-390 -91 -638 0 -173 4 -225 24 -330 27 -144 38 -270 23 -270 -29 0 -55 84
-83 275 -45 301 -24 599 62 865 17 52 32 101 34 108 3 6 12 12 21 12 12 0 15
-6 10 -22z m-1471 -222 c11 -7 44 -21 72 -30 51 -17 71 -31 59 -43 -14 -14
-166 43 -182 69 -4 6 8 3 27 -9 39 -23 138 -58 145 -50 3 3 -23 15 -58 26 -35
12 -72 28 -82 36 -25 19 -7 20 19 1z m6681 -61 c48 -28 130 -61 209 -86 72
-22 153 -49 180 -61 98 -40 202 -66 355 -87 504 -70 584 -94 982 -295 145 -74
355 -170 468 -215 113 -45 214 -86 225 -91 11 -4 70 -27 130 -49 133 -49 448
-176 473 -190 14 -9 14 -10 1 -11 -8 0 -19 4 -25 8 -5 5 -25 15 -44 22 -19 7
-48 19 -65 25 -16 7 -66 27 -110 45 -44 17 -93 37 -110 45 -16 7 -75 30 -130
50 -383 141 -575 224 -880 380 -338 173 -421 197 -915 266 -153 21 -294 55
-351 84 -16 9 -88 33 -160 55 -142 43 -207 70 -284 118 -76 48 -39 38 51 -13z"/>
<path d="M5166 5780 c11 -43 115 -243 155 -299 21 -29 36 -58 33 -62 -3 -5 5
-36 17 -68 17 -49 20 -74 17 -143 -5 -78 -52 -417 -63 -446 -11 -29 -17 -142
-8 -142 5 0 8 13 5 29 -2 16 3 39 11 52 8 14 20 77 27 149 7 69 21 175 32 235
11 61 22 125 25 142 3 18 -2 66 -11 107 -13 58 -28 90 -67 145 -27 39 -79 128
-114 198 -36 71 -63 117 -59 103z"/>
<path d="M2723 5592 c-29 -15 -53 -30 -53 -33 0 -4 14 -9 30 -11 26 -4 36 1
61 34 36 45 31 46 -38 10z"/>
<path d="M2930 5500 c0 -16 4 -30 8 -30 5 0 7 14 4 30 -2 17 -6 30 -8 30 -2 0
-4 -13 -4 -30z"/>
<path d="M2396 5406 c-27 -17 -70 -50 -95 -73 -39 -36 -43 -43 -25 -43 12 0
48 13 80 30 32 16 64 30 70 30 9 0 27 80 20 86 -1 0 -23 -13 -50 -30z"/>
<path d="M4260 5330 c-20 -6 -21 -8 -5 -8 11 0 29 3 40 8 25 11 -1 11 -35 0z"/>
<path d="M2331 5091 c-23 -42 -4 -117 20 -80 12 19 11 86 0 94 -6 3 -15 -3
-20 -14z"/>
<path d="M2260 5081 c-13 -25 -13 -71 -1 -71 13 0 17 9 25 53 7 40 -6 51 -24
18z"/>
<path d="M3827 4836 c-52 -54 -53 -54 -212 -101 -88 -26 -178 -54 -200 -63
-55 -21 -203 -119 -215 -143 -8 -14 -21 -19 -55 -19 -24 0 -56 -5 -72 -11 -27
-10 -27 -11 -9 -25 28 -20 79 -17 109 6 14 11 37 20 51 20 14 0 26 5 26 11 0
5 5 7 10 4 31 -19 434 149 488 204 15 15 52 44 82 66 64 45 80 62 80 87 0 32
-29 19 -83 -36z m-99 -117 c-5 -16 -257 -133 -353 -164 -44 -15 -87 -29 -95
-31 -13 -5 -13 -4 0 5 8 6 47 21 85 33 39 11 111 41 160 65 50 25 114 54 143
65 29 11 51 22 49 25 -6 6 -124 -24 -162 -42 -16 -7 -54 -22 -82 -33 -29 -11
-74 -33 -100 -48 -49 -29 -123 -65 -123 -60 0 2 30 21 68 43 140 84 423 181
410 142z"/>
<path d="M2762 2515 c-6 -99 -82 -300 -177 -462 -20 -35 -32 -63 -27 -63 11 0
98 153 135 238 36 79 79 248 74 287 l-4 30 -1 -30z"/>
<path d="M5270 3770 c8 -5 22 -10 30 -10 13 0 13 1 0 10 -8 5 -22 10 -30 10
-13 0 -13 -1 0 -10z"/>
<path d="M3975 2544 c68 -36 70 -37 161 -31 51 3 101 11 111 17 16 10 15 11
-7 5 -14 -3 -62 -8 -107 -12 -78 -6 -83 -5 -137 26 -31 17 -63 31 -72 31 -10
0 14 -16 51 -36z"/>
<path d="M1983 2321 c-23 -47 -75 -128 -138 -215 -55 -76 -41 -75 17 1 59 78
118 173 137 221 21 50 9 45 -16 -7z"/>
<path d="M7841 1838 c-102 -52 -231 -184 -231 -237 0 -9 13 7 29 35 51 88 177
189 274 219 31 10 36 14 17 14 -14 0 -54 -14 -89 -31z"/>
<path d="M2777 1383 c-2 -4 -18 -51 -36 -103 -55 -169 -75 -289 -86 -515 -7
-162 36 -498 75 -578 l20 -42 -5 75 c-2 41 -13 125 -25 185 -31 160 -37 412
-16 580 17 130 55 314 75 369 11 26 9 48 -2 29z"/>
<path d="M12690 3449 c-111 -25 -314 -83 -398 -115 -84 -31 -267 -129 -291
-155 -19 -20 -19 -20 -217 11 -357 56 -494 71 -709 77 -251 6 -425 -5 -720
-48 -246 -35 -419 -77 -690 -168 -99 -33 -216 -71 -260 -85 -82 -25 -166 -56
-222 -81 -17 -8 -34 -15 -37 -15 -3 0 -40 -21 -83 -46 -93 -55 -189 -100 -235
-109 -18 -4 -77 -20 -132 -37 -58 -17 -109 -27 -125 -24 -26 5 -26 5 -3 -6 17
-8 39 -9 80 -1 113 20 248 61 313 94 219 111 289 141 424 183 242 76 398 127
430 141 46 20 307 83 435 104 233 39 320 45 675 46 344 0 354 -1 566 -32 411
-61 648 -103 874 -155 99 -22 189 -42 200 -43 31 -5 217 -55 227 -61 5 -4 8 9
6 27 -3 38 21 29 -248 93 -131 31 -467 100 -530 108 l-25 3 22 19 c12 10 52
32 90 48 37 15 77 32 88 37 59 26 202 69 389 116 187 47 211 55 214 74 4 25 4
25 -108 0z m40 -465 c0 -2 -7 -4 -15 -4 -8 0 -15 4 -15 10 0 5 7 7 15 4 8 -4
15 -8 15 -10z"/>
<path d="M12583 3365 c-117 -30 -258 -70 -314 -90 -119 -43 -258 -106 -244
-111 6 -2 93 -20 195 -39 178 -35 433 -92 533 -120 l47 -13 0 214 c0 118 -1
214 -2 214 -2 -1 -99 -25 -215 -55z"/>
<path d="M7451 1248 c5 -18 9 -67 9 -108 1 -43 6 -82 13 -91 23 -29 67 -52
190 -94 93 -32 125 -48 135 -66 13 -24 12 -48 -4 -229 -5 -59 -2 -74 30 -159
21 -51 52 -148 71 -215 44 -154 49 -163 94 -171 38 -7 111 -73 111 -100 0 -13
166 -15 1288 -14 l1287 1 -56 26 c-31 15 -71 33 -90 41 -269 113 -593 282
-909 474 -302 183 -367 204 -840 272 -97 14 -205 33 -240 44 -500 143 -558
166 -672 269 -43 40 -71 55 -147 81 -52 17 -99 35 -105 40 -16 12 -100 31
-140 31 -34 0 -35 0 -25 -32z m107 -10 c15 0 33 -1 40 -1 6 1 12 -3 12 -9 0
-5 -16 -6 -37 -2 -29 5 -39 3 -50 -11 -7 -11 -13 -14 -13 -8 0 7 5 15 10 18 8
5 8 11 1 19 -6 7 -7 16 -3 20 4 4 8 1 10 -8 2 -9 15 -17 30 -18z m9 16 c-3 -3
-12 -4 -19 -1 -8 3 -5 6 6 6 11 1 17 -2 13 -5z m-64 -34 c-3 -12 -8 -19 -11
-16 -5 6 5 36 12 36 2 0 2 -9 -1 -20z"/>
<path d="M1390 1018 c0 -4 -13 -75 -29 -160 -54 -280 -102 -619 -106 -742 l-4
-121 19 90 c36 171 137 921 126 932 -3 4 -6 4 -6 1z"/>
</g>
</svg>
