<?xml version="1.0" standalone="no"?>
<!DOCTYPE svg PUBLIC "-//W3C//DTD SVG 20010904//EN"
 "http://www.w3.org/TR/2001/REC-SVG-20010904/DTD/svg10.dtd">
<svg version="1.0" xmlns="http://www.w3.org/2000/svg"
 width="1280.000000pt" height="720.000000pt" viewBox="0 0 1280.000000 720.000000"
 preserveAspectRatio="xMidYMid meet">
<metadata>
Created by potrace 1.16, written by Peter Selinger 2001-2019
</metadata>
<g transform="translate(0.000000,720.000000) scale(0.100000,-0.100000)"
fill="#000000" stroke="none">
<path d="M0 3600 l0 -3600 29 0 c26 0 32 6 49 53 11 28 27 66 36 82 9 17 16
33 16 37 0 4 27 65 61 135 33 71 67 144 76 163 9 19 33 72 54 118 22 46 39 85
39 87 0 2 15 37 34 77 99 214 159 374 161 429 1 33 9 66 18 80 13 17 17 46 17
110 0 82 2 89 36 140 20 31 56 68 85 87 27 18 54 44 59 58 6 14 10 69 10 122
1 105 2 114 50 302 35 139 54 169 128 201 37 16 152 45 537 135 61 15 157 41
215 59 155 49 215 65 243 65 78 0 76 42 -8 159 -72 100 -98 194 -120 426 -35
383 -46 568 -55 952 -12 523 -59 998 -110 1122 -10 25 -26 73 -36 106 -9 33
-25 87 -35 120 -88 286 -121 681 -83 1004 20 171 57 293 148 486 14 28 36 79
51 115 15 36 38 89 51 118 l24 52 -890 0 -890 0 0 -3600z"/>
<path d="M1766 7147 c-14 -30 -26 -58 -26 -62 0 -7 -37 -92 -135 -310 -138
-305 -140 -916 -6 -1350 10 -33 27 -89 37 -125 9 -36 21 -69 25 -75 52 -71
106 -594 119 -1148 6 -225 17 -495 25 -600 48 -594 56 -636 152 -771 42 -58
63 -106 63 -140 0 -21 -6 -26 -37 -31 -70 -10 -137 -27 -258 -65 -118 -37
-165 -49 -511 -129 -305 -71 -337 -93 -369 -246 -10 -50 -25 -106 -33 -125 -9
-22 -17 -91 -21 -182 -5 -95 -12 -152 -20 -162 -7 -8 -32 -28 -56 -42 -23 -15
-57 -50 -76 -77 -31 -46 -34 -57 -39 -147 -3 -58 -11 -104 -18 -113 -8 -9 -15
-40 -16 -69 -3 -48 -76 -244 -164 -439 -11 -24 -46 -99 -76 -166 -31 -67 -56
-124 -56 -127 0 -2 -27 -60 -59 -128 -53 -109 -141 -306 -141 -315 0 -2 263
-3 585 -3 l585 0 0 68 c0 90 14 204 55 465 54 342 86 497 102 497 16 0 16 -20
2 -130 -23 -188 -101 -730 -115 -800 -8 -41 -14 -81 -14 -87 0 -10 689 -13
3410 -13 2167 0 3410 3 3410 10 0 21 -78 90 -109 96 -43 9 -53 27 -94 175 -20
69 -52 168 -72 220 -40 101 -39 83 -19 291 9 99 3 105 -161 164 -78 27 -147
58 -160 71 -20 21 -23 36 -27 126 -3 56 -8 110 -13 120 -6 15 -1 17 46 17 30
-1 77 -9 104 -19 230 -83 247 -91 303 -142 81 -72 224 -138 422 -195 91 -26
194 -55 230 -66 36 -10 130 -27 210 -38 318 -44 508 -85 625 -137 44 -19 157
-81 250 -137 341 -207 524 -303 875 -461 58 -26 125 -57 150 -68 l45 -22 1053
-3 1052 -3 0 1448 c0 796 -4 1453 -8 1459 -8 13 -93 39 -192 59 -36 8 -144 32
-240 54 -218 50 -455 92 -869 154 -214 32 -220 32 -576 31 -282 -1 -388 -5
-490 -18 -254 -34 -490 -88 -650 -147 -44 -17 -141 -48 -215 -70 -263 -77
-361 -115 -520 -200 -111 -60 -146 -73 -305 -114 -129 -33 -195 -33 -195 0 0
8 14 12 43 12 23 -1 80 11 127 25 47 14 99 29 115 32 29 7 163 71 255 123 25
14 81 40 125 58 75 31 139 53 415 140 63 20 144 47 179 60 114 43 342 94 561
125 512 74 807 67 1418 -29 l193 -31 37 29 c54 43 174 104 282 144 93 35 339
103 453 127 l57 11 0 1860 0 1859 -3860 0 -3861 0 30 -53 c39 -71 91 -222 156
-452 66 -236 102 -439 109 -616 8 -176 44 -341 92 -420 18 -31 67 -101 108
-157 131 -180 190 -297 236 -466 20 -73 21 -86 10 -180 -7 -55 -21 -135 -32
-176 -11 -41 -30 -138 -43 -215 -13 -77 -34 -174 -46 -216 -19 -68 -21 -83
-11 -160 18 -142 62 -304 119 -439 3 -8 5 -19 4 -24 -1 -5 5 -16 12 -25 8 -9
24 -34 35 -56 17 -33 25 -39 53 -41 19 -1 81 -20 138 -43 149 -59 336 -89 666
-106 61 -3 130 -7 155 -10 25 -3 88 -7 140 -10 52 -2 156 -16 230 -30 74 -13
164 -29 200 -34 201 -30 462 -96 600 -151 30 -12 86 -32 124 -46 111 -39 476
-292 476 -331 0 -22 -34 -14 -63 16 -16 16 -43 31 -64 34 -35 6 -97 44 -205
124 -31 24 -59 43 -62 43 -4 0 -23 11 -44 23 -20 13 -62 32 -92 42 -30 10 -73
26 -95 35 -38 17 -58 24 -180 64 -53 17 -305 69 -415 85 -36 6 -114 20 -175
32 -116 22 -199 30 -490 48 -353 21 -580 57 -700 111 -107 48 -100 46 -345
114 -30 8 -88 36 -128 61 -41 25 -75 45 -77 45 -11 0 -75 43 -71 47 3 3 64
-29 137 -71 73 -42 139 -76 145 -76 28 0 257 -72 335 -105 147 -63 330 -94
704 -116 291 -18 374 -26 490 -48 61 -12 139 -26 175 -32 110 -16 373 -71 410
-84 19 -7 48 -16 65 -20 41 -9 248 -89 315 -122 30 -15 71 -39 90 -54 86 -65
205 -139 226 -139 13 0 39 -14 59 -31 20 -18 38 -29 41 -27 9 10 -101 96 -257
200 -121 81 -177 112 -250 137 -52 19 -107 40 -124 47 -81 37 -371 107 -555
135 -36 5 -126 21 -200 34 -74 14 -178 28 -230 30 -52 3 -115 7 -140 10 -25 3
-94 7 -155 10 -284 15 -521 48 -617 86 -125 50 -178 66 -201 62 -22 -4 -29 1
-51 43 -15 27 -30 56 -35 64 -15 25 -99 301 -115 375 -29 134 -30 197 -7 272
11 38 29 127 41 198 11 72 32 172 46 223 14 51 24 107 22 123 -3 16 -1 29 2
29 4 0 11 31 14 70 6 55 3 86 -15 152 -27 105 -102 259 -178 368 -196 279
-191 270 -222 408 -21 90 -31 167 -35 267 -7 166 -39 353 -95 560 -63 234
-107 362 -156 463 l-46 92 -1637 0 -1638 0 -26 -53z m545 -553 c30 -9 75 -31
102 -50 l47 -34 11 23 c13 30 36 31 43 2 8 -33 93 -182 140 -245 22 -30 52
-76 66 -102 15 -27 67 -94 116 -150 50 -57 114 -134 144 -173 113 -148 249
-290 355 -370 78 -59 231 -137 331 -170 120 -39 259 -58 394 -51 63 2 129 7
145 11 29 5 29 5 5 -6 -39 -17 -234 -23 -335 -10 -145 19 -222 43 -373 112
-178 82 -353 240 -551 499 -19 25 -75 91 -125 148 -49 56 -101 123 -116 150
-14 26 -45 73 -68 104 -23 32 -66 103 -96 159 -49 92 -55 100 -65 80 -16 -28
-23 -27 -81 15 -52 38 -123 64 -172 64 -23 0 -31 -7 -45 -37 -79 -184 -85
-189 -195 -179 -38 3 -68 3 -68 -1 0 -5 -9 -69 -20 -143 -47 -323 -14 -666 82
-847 57 -106 172 -311 196 -348 11 -16 51 -94 90 -172 108 -218 169 -299 312
-417 215 -178 348 -251 735 -406 234 -94 275 -98 450 -47 66 20 145 47 175 61
70 33 174 89 193 105 10 8 17 9 22 2 7 -12 75 28 75 45 0 5 14 20 31 33 57 43
135 243 180 463 l30 149 -17 97 c-9 53 -24 122 -34 152 -31 92 -66 183 -83
217 -9 18 -17 39 -17 47 0 13 -14 15 -92 10 -150 -10 -355 36 -618 138 -201
78 -476 238 -582 339 -21 20 -38 31 -38 25 0 -6 -6 0 -13 14 -8 14 -12 27 -11
29 2 2 28 -19 59 -47 247 -226 790 -466 1105 -489 101 -7 160 1 160 22 0 32
28 13 35 -22 4 -21 11 -43 16 -49 10 -13 50 -117 84 -219 13 -38 30 -113 39
-166 16 -95 16 -98 -9 -226 -30 -155 -63 -269 -103 -355 -16 -35 -32 -73 -36
-85 -4 -12 -21 -34 -39 -49 -18 -15 -32 -31 -32 -36 0 -14 -78 -56 -94 -50
-10 4 -12 1 -6 -8 5 -9 4 -11 -3 -6 -6 4 -42 -11 -80 -32 -83 -47 -192 -90
-325 -127 -84 -24 -111 -27 -180 -22 -60 3 -75 2 -57 -5 14 -5 76 -8 140 -5
111 4 171 17 275 62 17 7 59 26 95 41 122 53 244 131 308 198 34 35 62 72 62
81 0 9 11 31 24 48 14 18 37 64 51 104 23 60 25 77 16 100 -11 27 -11 27 -6
-7 4 -27 2 -31 -6 -20 -8 12 -10 9 -6 -12 2 -15 1 -26 -2 -23 -4 2 -13 -17
-20 -43 -15 -51 -40 -104 -41 -85 0 6 8 31 19 55 22 53 61 213 62 259 1 75 14
63 14 -13 0 -46 -2 -71 -6 -57 l-7 24 0 -25 c0 -14 3 -34 7 -45 6 -16 11 -8
20 35 19 85 25 198 13 223 -6 12 -16 74 -22 137 -9 89 -20 141 -52 230 -97
276 -92 254 -92 397 -1 118 1 134 20 160 13 17 32 29 50 31 27 2 33 -5 81 -85
28 -49 70 -126 93 -173 58 -116 119 -208 200 -302 l69 -79 3 -287 c3 -264 8
-322 27 -322 4 0 7 8 8 18 4 62 19 115 50 181 65 140 123 346 123 439 0 20
-20 98 -44 172 -56 171 -72 237 -81 328 -6 63 -3 84 21 163 30 99 46 115 101
100 31 -8 52 -43 79 -129 20 -66 28 -63 13 5 -16 68 -7 97 36 117 61 29 77 13
136 -138 32 -79 71 -146 82 -139 6 3 7 1 4 -5 -9 -14 3 -43 14 -36 5 3 8 2 7
-3 -4 -12 50 -134 116 -263 59 -113 59 -116 59 -195 -1 -98 -22 -223 -70 -418
-26 -110 -33 -151 -24 -160 7 -7 14 -7 19 -1 14 15 81 321 98 444 22 160 17
211 -29 287 -20 33 -37 67 -36 74 0 11 2 10 6 -1 12 -31 56 -101 60 -96 3 3
-7 26 -22 51 -15 26 -25 48 -23 51 13 12 135 -240 165 -338 22 -75 -30 -475
-102 -793 -75 -327 -122 -532 -134 -580 l-10 -40 5 45 c3 25 20 108 39 185
117 495 145 636 175 884 l31 253 -20 62 c-11 33 -38 97 -61 141 -22 44 -38 71
-34 60 26 -76 8 -258 -52 -520 -20 -88 -38 -166 -40 -172 -5 -18 -43 -16 -50
2 -4 8 10 81 30 162 45 188 67 318 69 413 2 70 -1 80 -35 140 -20 36 -55 108
-77 159 -22 51 -59 125 -81 164 -23 39 -64 123 -91 186 -64 146 -68 151 -114
127 -43 -23 -51 -51 -35 -114 13 -55 129 -281 169 -332 40 -50 59 -91 76 -162
17 -72 19 -131 6 -156 -12 -21 -27 -119 -51 -325 -9 -86 -23 -164 -30 -172 -7
-8 -9 -26 -5 -43 8 -38 -21 -55 -31 -17 -5 22 1 101 11 135 12 39 58 375 63
448 3 69 0 94 -18 144 -12 33 -19 62 -17 65 3 3 -15 35 -39 71 -49 72 -133
239 -157 312 -31 92 -58 141 -83 151 -42 15 -61 -4 -89 -94 -40 -124 -29 -208
61 -487 24 -74 44 -153 44 -175 -1 -92 -65 -319 -125 -444 -19 -38 -37 -89
-40 -113 -12 -82 -13 -90 -19 -95 -2 -3 -9 -2 -15 1 -22 14 -31 119 -31 360
l0 253 -69 80 c-82 94 -142 186 -200 303 -68 136 -144 260 -162 260 -8 0 -26
-12 -40 -26 -22 -23 -24 -35 -27 -132 -3 -122 5 -160 86 -392 40 -113 54 -173
67 -270 9 -69 18 -145 21 -169 13 -92 -58 -365 -112 -438 -13 -17 -24 -39 -24
-48 0 -9 -24 -41 -52 -72 -98 -103 -265 -194 -518 -283 -99 -35 -253 -39 -362
-11 -210 56 -417 127 -555 192 l-65 30 -24 -22 c-37 -34 -31 -62 22 -106 69
-56 204 -185 204 -194 0 -5 23 -44 51 -88 49 -77 53 -81 134 -120 46 -23 85
-45 87 -50 3 -9 282 -196 338 -227 43 -23 129 -76 195 -120 72 -49 193 -74
385 -81 85 -3 160 -8 167 -12 18 -9 -212 -2 -301 10 -172 23 -221 42 -376 149
-14 10 -46 28 -70 40 -25 13 -112 67 -193 121 -81 55 -156 99 -167 99 -10 0
-22 5 -26 11 -4 8 0 9 15 4 46 -14 17 7 -64 46 -85 41 -86 42 -133 122 -46 80
-152 196 -255 280 -38 31 -47 45 -47 70 0 32 33 77 57 77 7 0 56 -20 109 -45
123 -59 473 -175 523 -175 16 0 -137 66 -279 120 -250 95 -424 194 -620 356
-92 75 -143 130 -197 209 -44 66 -163 297 -163 318 0 7 -11 24 -25 37 -14 13
-25 27 -25 31 0 5 -34 67 -75 139 -149 260 -179 339 -205 541 -16 134 -12 367
10 519 11 74 20 141 20 148 0 10 17 11 73 6 48 -4 81 -3 95 5 18 10 65 95 101
184 13 33 48 36 132 11z m-531 -499 c0 -8 -7 -15 -15 -15 -8 0 -15 7 -15 15 0
8 7 15 15 15 8 0 15 -7 15 -15z m3507 -121 c-3 -3 -12 -4 -19 -1 -8 3 -5 6 6
6 11 1 17 -2 13 -5z m-2728 -13 c28 -18 3 -48 -45 -55 -77 -10 -215 -46 -254
-66 -66 -34 -173 -142 -204 -209 -16 -33 -31 -59 -34 -57 -2 3 10 34 26 69 22
46 49 81 99 126 37 35 80 69 96 77 31 16 192 59 261 69 43 7 66 28 45 41 -6 3
-48 3 -92 -1 -62 -5 -97 -14 -142 -37 -159 -80 -264 -187 -295 -301 -7 -26
-15 -46 -17 -43 -9 9 30 117 58 160 70 105 245 215 364 229 60 8 120 7 134 -2z
m154 -163 c133 -129 219 -257 182 -272 -12 -4 -16 -20 -15 -63 0 -32 -4 -81
-10 -110 -6 -29 -9 -98 -8 -154 l3 -102 64 -33 c35 -18 68 -37 74 -43 6 -6
-21 4 -59 24 -39 19 -77 41 -84 50 -9 11 -11 47 -6 142 11 229 17 287 32 299
11 9 4 24 -37 85 -51 74 -225 259 -244 259 -5 0 32 -42 83 -93 50 -51 92 -100
92 -109 0 -19 -68 -53 -135 -68 -48 -11 -275 -127 -360 -183 -101 -67 -115
-84 -115 -139 0 -43 2 -48 22 -48 49 0 137 27 213 65 68 34 80 43 77 63 -2 16
2 22 15 22 15 0 16 -2 3 -10 -8 -5 -12 -12 -8 -15 3 -4 29 9 57 28 27 19 70
44 95 56 24 12 50 29 56 37 7 7 18 14 26 14 7 0 19 10 25 23 6 12 21 32 32 45
11 12 16 22 10 22 -5 0 -21 -13 -35 -29 -23 -25 -31 -28 -60 -22 -52 11 -45
33 20 65 69 34 88 30 121 -21 22 -34 23 -43 16 -117 -4 -45 -11 -144 -15 -221
l-7 -140 4 155 c2 85 6 183 9 217 5 48 2 67 -12 88 l-18 27 -28 -33 c-15 -19
-28 -39 -28 -46 0 -7 -11 -18 -24 -25 -70 -37 -163 -94 -224 -136 -91 -63
-244 -122 -315 -122 l-37 0 0 53 c0 32 6 61 16 75 38 55 367 239 466 261 55
13 128 48 128 63 0 6 -40 50 -90 99 -49 49 -90 94 -90 99 0 26 34 3 123 -82z
m521 -181 c94 -90 194 -158 319 -217 152 -71 269 -97 517 -114 30 -2 0 -2 -67
0 -133 4 -232 21 -350 60 -100 34 -234 103 -308 159 -78 59 -211 191 -287 285
l-60 75 83 -90 c46 -49 115 -120 153 -158z m2150 163 l7 -25 -14 25 c-8 14
-17 36 -21 50 l-7 25 14 -25 c8 -14 17 -36 21 -50z m-2374 -252 c0 -40 -27
-36 -33 5 -6 44 0 47 12 6 l11 -34 -5 40 c-3 28 -2 35 5 25 5 -8 10 -27 10
-42z m-58 -24 c2 -19 0 -37 -4 -40 -16 -10 -28 8 -28 42 0 47 26 46 32 -2z
m-42 -40 c0 -30 -3 -53 -7 -51 -8 5 -5 107 3 107 2 0 4 -25 4 -56z m-450 -68
l0 -43 -69 -32 c-77 -35 -141 -50 -141 -33 0 34 153 151 198 152 8 0 12 -15
12 -44z m1851 -61 c0 -5 -18 -15 -40 -22 -23 -6 -39 -8 -36 -2 4 5 -10 9 -32
8 -33 -1 -35 -2 -13 -9 17 -5 8 -7 -32 -6 -32 1 -58 4 -58 7 0 4 29 10 65 14
35 3 77 10 92 15 34 10 54 8 54 -5z m-1284 -269 c57 -61 103 -114 103 -119 0
-6 -16 7 -36 29 -19 21 -52 57 -72 79 -20 23 -61 67 -89 99 -29 32 -53 52 -53
46 0 -11 74 -96 139 -157 18 -18 29 -33 24 -33 -8 0 -107 98 -147 147 -10 13
-21 40 -23 60 l-4 38 27 -40 c15 -22 74 -89 131 -149z m-659 -2 c3 -54 -14
-82 -43 -70 -32 12 -11 130 23 124 13 -2 18 -15 20 -54z m-73 4 c-10 -64 -15
-78 -28 -75 -43 8 -31 117 14 117 19 0 20 -4 14 -42z m591 -8 c5 0 45 -21 88
-46 43 -25 84 -47 90 -49 26 -5 45 -18 51 -33 5 -14 4 -14 -13 1 -10 9 -22 14
-25 10 -4 -3 -15 0 -24 8 -24 19 -55 37 -137 79 -38 20 -72 43 -74 51 -4 10 0
9 15 -3 11 -10 24 -18 29 -18z m2923 -122 c0 -22 -1 -22 -8 -3 -5 13 -11 -10
-16 -70 -4 -49 -11 -99 -16 -110 -8 -17 -9 -17 -5 5 3 14 8 59 11 100 4 41 8
81 10 88 7 21 25 13 24 -10z m-1886 -45 c2 -5 0 -22 -4 -39 -6 -21 -26 -42
-66 -70 -31 -21 -75 -56 -97 -76 -23 -21 -44 -38 -48 -38 -4 0 -58 -24 -120
-54 -116 -56 -189 -82 -315 -114 -39 -10 -78 -24 -87 -31 -39 -32 -151 -20
-144 16 4 20 36 31 96 32 28 1 45 6 49 16 8 22 121 101 186 129 30 14 131 48
223 76 l169 50 52 55 c36 38 60 55 77 55 14 0 27 -3 29 -7z m578 -178 c-6 -35
-9 -41 -10 -20 -1 30 9 78 15 73 2 -2 -1 -26 -5 -53z m393 -40 c-4 -8 -8 -15
-10 -15 -2 0 -4 7 -4 15 0 8 4 15 10 15 5 0 7 -7 4 -15z m-2084 -466 c0 -5 -5
-7 -12 -3 -8 5 -9 2 -5 -9 3 -10 2 -17 -3 -17 -11 0 -13 23 -3 33 10 10 23 8
23 -4z m2847 -114 c0 -8 -4 -15 -9 -15 -4 0 -8 7 -8 15 0 8 4 15 8 15 5 0 9
-7 9 -15z m-1952 -86 c-22 -4 -53 -7 -70 -7 -26 1 -24 2 10 8 22 4 54 7 70 7
25 1 23 -1 -10 -8z m-80 -19 c28 -6 14 -6 -45 -3 -47 3 -87 7 -89 9 -8 7 94 3
134 -6z m-849 -31 c2 -13 7 -331 10 -707 6 -762 5 -772 -62 -972 -32 -96 -104
-239 -142 -282 -8 -10 -21 -18 -29 -18 -21 0 -9 30 52 135 29 50 64 117 78
150 53 126 92 340 68 369 -9 10 -9 38 0 112 8 67 10 275 7 644 -4 358 -3 447
2 260 11 -432 11 -815 0 -909 -6 -51 -6 -89 0 -96 5 -6 11 -33 13 -60 2 -28 3
265 1 650 -2 385 -6 713 -9 730 -4 16 -4 27 0 24 3 -4 8 -17 11 -30z m2431
-145 c-3 -3 -12 -4 -19 -1 -8 3 -5 6 6 6 11 1 17 -2 13 -5z m80 -29 c33 -13
83 -38 109 -55 27 -17 61 -36 77 -42 37 -17 35 -30 -3 -17 -16 6 -30 15 -30
20 0 11 -120 72 -127 65 -3 -2 23 -19 57 -36 34 -17 60 -33 58 -36 -3 -2 -31
11 -64 29 -32 17 -88 45 -124 60 -36 15 -55 25 -42 22 12 -3 32 -8 45 -11 21
-5 20 -4 -3 10 -36 22 -22 19 47 -9z m-2230 -47 c-3 -8 -6 -5 -6 6 -1 11 2 17
5 13 3 -3 4 -12 1 -19z m72 -84 c6 4 11 2 11 -3 0 -6 -5 -11 -12 -11 -15 0
-48 30 -48 44 0 6 9 0 19 -13 10 -13 23 -21 30 -17z m2462 -21 c13 -15 12 -15
-7 -5 -12 6 -24 8 -28 5 -3 -3 -6 -1 -6 5 0 18 25 14 41 -5z m499 -151 c0 -5
-7 -9 -15 -9 -8 0 -15 4 -15 9 0 4 7 8 15 8 8 0 15 -4 15 -8z m-2355 -212 c23
-25 8 -26 -19 -1 -25 22 -98 62 -104 56 -3 -3 26 -103 32 -112 1 -1 24 4 51
12 26 8 53 15 59 14 12 0 -93 -38 -109 -39 -12 0 -49 125 -41 138 7 12 104
-39 131 -68z m159 -89 c100 -48 205 -71 327 -71 l106 0 117 -61 c86 -46 151
-91 254 -176 75 -63 155 -124 177 -135 113 -58 374 -266 467 -371 l58 -65 -19
-223 -18 -224 23 -25 c25 -28 62 -125 52 -136 -4 -3 -47 1 -95 10 -108 20
-276 20 -363 2 -250 -54 -702 -260 -822 -374 -21 -20 -38 -32 -38 -26 0 29
131 119 285 197 158 79 441 184 575 213 87 18 258 18 360 -2 45 -8 84 -13 87
-10 9 9 -27 89 -52 116 l-23 25 19 224 18 224 -57 64 c-93 105 -355 313 -467
371 -22 11 -99 69 -170 129 -151 125 -157 129 -280 193 l-94 48 -128 4 c-110
4 -142 10 -223 37 -52 18 -105 39 -118 47 -19 13 -32 13 -75 4 -61 -12 -117
-43 -117 -64 0 -25 -55 -99 -113 -151 -148 -137 -219 -186 -392 -273 -77 -39
-158 -83 -180 -97 l-40 -26 210 6 c116 3 255 10 310 15 55 5 157 9 228 10 106
0 127 -2 127 -15 0 -8 -4 -15 -8 -15 -4 0 -111 -7 -238 -16 -126 -9 -315 -17
-420 -18 l-191 -1 -8 -180 c-5 -99 -7 -294 -5 -432 1 -141 -1 -253 -6 -253
-11 0 -10 430 1 690 l8 185 196 1 c187 1 649 28 659 39 9 9 -238 5 -343 -5
-55 -5 -196 -13 -312 -16 -183 -6 -213 -5 -213 7 0 17 76 62 245 147 66 33
143 77 171 99 192 143 282 236 307 315 7 19 54 44 112 57 60 14 62 13 129 -18z
m-24 -31 c25 -22 42 -29 60 -26 14 3 19 3 12 0 -6 -3 -10 -10 -7 -14 3 -5 -7
-5 -22 1 -30 11 -104 69 -88 69 6 0 26 -14 45 -30z m528 -17 c-10 -2 -28 -2
-40 0 -13 2 -5 4 17 4 22 1 32 -1 23 -4z m-1 -24 c140 -57 194 -91 353 -222
52 -43 122 -94 155 -114 135 -80 287 -196 415 -317 59 -55 216 -187 414 -349
231 -189 373 -280 651 -421 401 -203 586 -266 968 -331 288 -49 376 -73 467
-129 36 -21 81 -48 100 -58 26 -14 29 -18 14 -18 -11 0 -45 17 -75 38 -120 83
-201 108 -525 162 -151 25 -280 52 -351 75 -119 38 -358 126 -389 144 -11 6
-75 38 -144 70 -239 115 -418 220 -565 331 -159 122 -481 388 -575 476 -128
121 -280 237 -415 317 -33 20 -103 71 -155 114 -160 132 -206 161 -370 231
-34 14 -8 15 27 1z m-855 -76 c-6 -2 -10 -9 -6 -14 3 -5 0 -9 -5 -9 -6 0 -11
7 -11 15 0 8 8 15 18 14 10 0 12 -3 4 -6z m5082 -206 c28 -24 66 -53 84 -66
33 -23 43 -51 18 -51 -8 0 -34 19 -58 43 -24 23 -33 32 -19 21 44 -37 81 -57
81 -45 0 6 -3 11 -7 11 -5 0 -39 25 -76 55 -38 30 -75 55 -83 55 -8 0 -12 5
-9 10 9 15 14 13 69 -33z m-5306 1 c-7 -19 -38 -22 -38 -4 0 10 9 16 21 16 12
0 19 -5 17 -12z m5283 -15 c13 -16 12 -17 -3 -4 -10 7 -18 15 -18 17 0 8 8 3
21 -13z m-3871 -108 c0 -17 -70 -39 -180 -55 -51 -7 -89 -20 -123 -41 -41 -25
-138 -66 -124 -53 2 3 43 25 91 49 67 35 107 48 182 60 53 8 108 22 122 30 32
17 25 19 -13 5 -15 -6 -69 -17 -121 -24 -73 -11 -109 -23 -158 -50 -65 -36
-116 -59 -116 -51 0 4 47 29 144 77 21 11 80 26 131 34 51 7 103 18 116 23 35
14 49 13 49 -4z m-805 -112 c16 -4 50 -19 74 -35 50 -31 104 -36 204 -17 67
12 93 3 52 -18 -16 -9 -70 -17 -126 -20 -94 -6 -99 -5 -146 23 -26 16 -61 34
-78 41 -23 9 -26 12 -10 13 15 1 11 5 -15 16 -21 8 -25 12 -10 9 14 -3 38 -8
55 -12z m-1905 -180 c0 -15 -2 -16 -10 -3 -14 21 -13 -5 1 -31 19 -36 -26
-125 -138 -275 -29 -39 -59 -71 -67 -71 -21 0 -4 38 47 105 84 110 141 214
139 255 -1 26 3 37 14 37 7 0 14 -8 14 -17z m-1013 -227 c-14 -11 -15 -15 -5
-19 8 -4 7 -6 -4 -6 -10 -1 -18 5 -18 13 0 12 13 20 40 25 3 0 -3 -6 -13 -13z
m-147 -206 c0 -5 -8 -10 -17 -10 -15 0 -16 2 -3 10 19 12 20 12 20 0z m7335
-78 l-40 -6 40 -6 c22 -4 -7 -5 -65 -3 -58 3 -123 0 -145 -5 -33 -8 -22 -9 60
-7 55 1 80 1 55 -1 -186 -16 -278 -53 -375 -150 -34 -34 -74 -86 -89 -115 -15
-32 -26 -45 -27 -33 0 18 -1 18 -9 -1 -5 -11 -8 -33 -8 -50 l0 -30 9 30 c7 26
8 25 4 -10 -3 -22 -5 -49 -6 -60 -1 -11 -5 -5 -10 15 -6 28 -7 24 -3 -20 2
-30 7 -66 10 -80 4 -18 3 -21 -4 -10 -32 50 -21 186 24 277 48 100 198 217
311 244 47 11 204 26 273 26 34 0 34 -1 -5 -5z m-4029 -199 c-6 -27 -35 -205
-54 -333 l-10 -65 5 70 c5 70 37 281 49 323 3 12 2 22 -3 22 -18 0 -78 -225
-95 -355 -6 -49 -12 -91 -13 -93 -1 -1 -81 35 -176 82 -96 46 -199 91 -229
100 -209 59 -283 76 -336 76 -106 0 -296 -30 -383 -60 -47 -17 -87 -28 -90
-25 -2 3 5 25 17 49 12 24 31 84 41 132 11 49 19 81 20 72 3 -44 -37 -188 -66
-239 -2 -3 34 7 79 22 87 29 281 59 382 59 57 0 177 -28 363 -86 45 -14 148
-58 228 -98 144 -72 145 -72 145 -47 1 46 28 184 61 304 27 99 35 117 52 117
16 0 18 -5 13 -27z m1313 5 c0 -16 -2 -18 -6 -8 -3 8 -11 18 -17 22 -7 5 -4 8
7 8 11 0 17 -7 16 -22z m236 -129 c140 -122 279 -340 343 -539 90 -278 120
-630 66 -789 -2 -8 -6 -12 -9 -9 -2 2 2 26 10 53 41 134 4 498 -76 742 -69
211 -296 539 -404 584 -15 6 -16 8 -4 8 9 1 42 -22 74 -50z m3 -36 c190 -187
340 -515 382 -831 15 -114 17 -422 2 -447 -10 -17 -11 -15 -7 15 12 104 13
138 5 285 -14 258 -61 444 -162 640 -58 114 -161 260 -233 333 -40 39 -69 72
-64 72 5 0 40 -30 77 -67z m814 -1 c7 -10 42 -40 78 -67 36 -27 117 -101 182
-165 92 -91 124 -131 155 -190 48 -91 113 -243 113 -262 0 -7 -12 16 -27 52
-14 36 -50 112 -80 169 -44 85 -70 121 -141 193 -48 49 -118 115 -157 146 -38
31 -87 74 -109 95 -21 21 -41 35 -45 32 -3 -3 24 -32 59 -63 84 -74 186 -179
262 -269 33 -40 65 -70 71 -66 5 3 7 1 3 -5 -3 -6 7 -30 23 -54 38 -57 126
-226 120 -232 -2 -2 -22 30 -44 72 -95 185 -244 366 -442 542 -60 53 -80 90
-49 90 8 0 21 -8 28 -18z m-5073 -155 c58 -49 113 -95 123 -101 25 -15 23 -38
-3 -34 -18 2 -25 -6 -39 -48 -26 -74 -38 -94 -60 -94 -25 0 -25 10 0 52 10 18
26 52 34 75 l14 41 -84 72 c-91 79 -134 125 -134 143 1 7 7 0 15 -14 7 -14 48
-54 90 -90 42 -35 88 -73 101 -84 l24 -21 -20 -59 c-11 -32 -27 -69 -35 -82
-9 -13 -11 -23 -6 -23 14 0 38 43 54 96 13 42 18 49 38 47 24 -3 24 -2 4 12
-90 68 -230 196 -241 220 -14 30 -14 30 3 6 10 -13 65 -65 122 -114z m6154 -2
c5 -28 4 -34 -3 -20 -8 19 -14 73 -6 64 2 -2 6 -22 9 -44z m-4817 -7 c-69
-232 -91 -390 -91 -638 0 -173 4 -225 24 -330 27 -144 38 -270 23 -270 -29 0
-55 84 -83 275 -45 301 -24 599 62 865 17 52 32 101 34 108 3 6 12 12 21 12
12 0 15 -6 10 -22z m-1471 -222 c11 -7 44 -21 72 -30 51 -17 71 -31 59 -43
-14 -14 -166 43 -182 69 -4 6 8 3 27 -9 39 -23 138 -58 145 -50 3 3 -23 15
-58 26 -35 12 -72 28 -82 36 -25 19 -7 20 19 1z m6681 -61 c48 -28 130 -61
209 -86 72 -22 153 -49 180 -61 98 -40 202 -66 355 -87 504 -70 584 -94 982
-295 145 -74 355 -170 468 -215 113 -45 214 -86 225 -91 11 -4 70 -27 130 -49
133 -49 448 -176 473 -190 14 -9 14 -10 1 -11 -8 0 -19 4 -25 8 -5 5 -25 15
-44 22 -19 7 -48 19 -65 25 -16 7 -66 27 -110 45 -44 17 -93 37 -110 45 -16 7
-75 30 -130 50 -383 141 -575 224 -880 380 -338 173 -421 197 -915 266 -153
21 -294 55 -351 84 -16 9 -88 33 -160 55 -142 43 -207 70 -284 118 -76 48 -39
38 51 -13z"/>
<path d="M5170 5772 c0 -20 110 -233 151 -291 21 -29 36 -58 33 -62 -3 -5 5
-36 17 -68 17 -49 20 -74 17 -143 -5 -78 -52 -417 -63 -446 -11 -29 -17 -142
-8 -142 5 0 8 13 5 29 -2 16 3 39 11 52 8 14 20 77 27 149 7 69 21 175 32 235
11 61 22 125 25 142 3 18 -2 66 -11 107 -13 57 -28 90 -66 145 -28 39 -77 123
-110 188 -32 65 -59 112 -60 105z"/>
<path d="M2723 5592 c-29 -15 -53 -30 -53 -33 0 -4 14 -9 30 -11 26 -4 36 1
61 34 36 45 31 46 -38 10z"/>
<path d="M2930 5500 c0 -16 4 -30 8 -30 5 0 7 14 4 30 -2 17 -6 30 -8 30 -2 0
-4 -13 -4 -30z"/>
<path d="M2385 5396 c-33 -19 -76 -51 -95 -72 l-35 -37 30 6 c17 3 60 20 98
37 63 30 67 34 67 66 0 19 -1 34 -2 34 -2 0 -30 -16 -63 -34z"/>
<path d="M4260 5330 c-20 -6 -21 -8 -5 -8 11 0 29 3 40 8 25 11 -1 11 -35 0z"/>
<path d="M2331 5091 c-23 -42 -4 -117 20 -80 12 19 11 86 0 94 -6 3 -15 -3
-20 -14z"/>
<path d="M2260 5081 c-13 -25 -13 -71 -1 -71 13 0 17 9 25 53 7 40 -6 51 -24
18z"/>
<path d="M3827 4836 c-52 -54 -53 -54 -212 -101 -88 -26 -178 -54 -200 -63
-55 -21 -203 -119 -215 -143 -8 -14 -21 -19 -55 -19 -24 0 -56 -5 -72 -11 -27
-10 -27 -11 -9 -25 28 -20 79 -17 109 6 14 11 37 20 51 20 14 0 26 5 26 11 0
5 4 8 10 4 33 -20 431 146 489 204 14 15 51 44 81 66 64 45 80 62 80 87 0 32
-29 19 -83 -36z m-97 -116 c0 -13 -240 -127 -340 -160 -47 -16 -94 -31 -105
-35 -16 -6 -17 -5 -5 4 8 6 47 20 85 32 39 11 109 41 158 65 48 24 112 54 143
65 30 12 53 23 51 26 -6 6 -124 -24 -162 -42 -16 -7 -55 -23 -85 -35 -30 -12
-75 -33 -100 -48 -47 -28 -120 -63 -120 -58 0 4 130 79 160 93 93 41 164 68
220 83 76 21 100 24 100 10z"/>
<path d="M2760 2514 c0 -81 -73 -288 -145 -410 -63 -107 -67 -114 -57 -114 8
0 107 167 135 230 39 87 93 320 73 320 -3 0 -6 -12 -6 -26z"/>
<path d="M5270 3770 c8 -5 22 -10 30 -10 13 0 13 1 0 10 -8 5 -22 10 -30 10
-13 0 -13 -1 0 -10z"/>
<path d="M3975 2544 c68 -36 70 -37 161 -31 51 3 101 11 111 17 16 10 15 11
-7 5 -14 -3 -62 -8 -107 -12 -78 -6 -83 -5 -137 26 -31 17 -63 31 -72 31 -10
0 14 -16 51 -36z"/>
<path d="M1983 2321 c-23 -47 -75 -128 -138 -215 -55 -76 -41 -75 17 1 59 78
118 173 137 221 21 50 9 45 -16 -7z"/>
<path d="M7841 1838 c-102 -52 -231 -184 -231 -237 0 -9 13 7 29 35 51 88 177
189 274 219 31 10 36 14 17 14 -14 0 -54 -14 -89 -31z"/>
<path d="M2777 1383 c-2 -4 -18 -51 -36 -103 -55 -169 -75 -289 -86 -515 -7
-162 36 -498 75 -578 l20 -42 -5 75 c-2 41 -13 125 -25 185 -31 160 -37 412
-16 580 17 130 55 314 75 369 11 26 9 48 -2 29z"/>
<path d="M12690 3449 c-111 -25 -314 -83 -398 -115 -84 -31 -267 -129 -291
-155 -19 -20 -19 -20 -217 11 -357 56 -494 71 -709 77 -251 6 -425 -5 -720
-48 -246 -35 -419 -77 -690 -168 -99 -33 -216 -71 -260 -85 -82 -25 -166 -56
-222 -81 -17 -8 -34 -15 -37 -15 -3 0 -40 -21 -83 -46 -93 -55 -189 -100 -235
-109 -18 -4 -77 -20 -132 -37 -58 -17 -109 -27 -125 -24 -26 5 -26 5 -3 -6 17
-8 39 -9 80 -1 113 20 248 61 313 94 219 111 289 141 424 183 242 76 398 127
430 141 46 20 307 83 435 104 233 39 320 45 675 46 344 0 354 -1 566 -32 411
-61 648 -103 874 -155 99 -22 189 -42 200 -43 31 -5 217 -55 227 -61 5 -4 8 9
6 27 -3 38 21 29 -248 93 -131 31 -467 100 -530 108 l-25 3 22 19 c12 10 52
32 90 48 37 15 77 32 88 37 59 26 202 69 389 116 187 47 211 55 214 74 4 25 4
25 -108 0z m40 -465 c0 -2 -7 -4 -15 -4 -8 0 -15 4 -15 10 0 5 7 7 15 4 8 -4
15 -8 15 -10z"/>
<path d="M12583 3365 c-117 -30 -258 -70 -314 -90 -119 -43 -258 -106 -244
-111 6 -2 93 -20 195 -39 178 -35 433 -92 533 -120 l47 -13 0 214 c0 118 -1
214 -2 214 -2 -1 -99 -25 -215 -55z"/>
<path d="M7451 1248 c5 -18 9 -67 9 -108 1 -107 8 -114 193 -181 158 -56 161
-60 151 -169 -13 -143 -10 -222 9 -260 20 -37 62 -165 97 -294 28 -101 36
-113 79 -121 38 -7 111 -73 111 -100 0 -13 166 -15 1288 -14 l1287 1 -56 26
c-31 15 -71 33 -90 41 -269 113 -593 282 -909 474 -91 55 -201 117 -246 138
-115 53 -297 94 -624 139 -80 11 -174 28 -210 38 -501 144 -555 166 -670 269
-41 37 -76 56 -152 84 -78 29 -100 34 -108 23 -9 -10 -19 -10 -51 -1 -40 12
-53 28 -27 35 11 3 11 2 0 -6 -10 -7 -3 -12 27 -19 38 -10 51 -8 51 7 0 11
-83 30 -129 30 l-40 0 10 -32z m52 -28 c-3 -12 -8 -19 -11 -16 -5 6 5 36 12
36 2 0 2 -9 -1 -20z m20 -5 c-3 -9 -8 -14 -10 -11 -3 3 -2 9 2 15 9 16 15 13
8 -4z"/>
<path d="M1390 1018 c0 -4 -13 -75 -29 -160 -54 -280 -102 -619 -106 -742 l-4
-121 19 90 c36 171 137 921 126 932 -3 4 -6 4 -6 1z"/>
</g>
</svg>
