<?xml version="1.0" standalone="no"?>
<!DOCTYPE svg PUBLIC "-//W3C//DTD SVG 20010904//EN"
 "http://www.w3.org/TR/2001/REC-SVG-20010904/DTD/svg10.dtd">
<svg version="1.0" xmlns="http://www.w3.org/2000/svg"
 width="1280.000000pt" height="720.000000pt" viewBox="0 0 1280.000000 720.000000"
 preserveAspectRatio="xMidYMid meet">
<metadata>
Created by potrace 1.16, written by Peter Selinger 2001-2019
</metadata>
<g transform="translate(0.000000,720.000000) scale(0.100000,-0.100000)"
fill="#000000" stroke="none">
<path d="M0 3643 c1 -3504 1 -3557 20 -3518 10 22 51 119 90 215 85 208 74
184 149 343 34 70 61 130 61 132 0 2 12 30 26 62 15 32 32 72 39 88 7 17 33
71 57 120 l43 90 0 170 c0 203 -1 200 126 285 55 36 85 63 90 80 4 14 12 93
19 175 17 221 36 329 67 388 31 55 73 92 118 102 17 4 49 16 72 27 27 12 100
26 200 39 87 10 196 24 243 29 47 6 110 17 142 25 31 8 116 20 189 26 74 6
142 14 152 18 16 6 11 17 -44 91 -82 111 -138 227 -175 360 -8 30 -21 79 -29
107 -38 139 -58 453 -70 1093 -7 376 -15 558 -45 935 -29 369 -39 451 -60 509
-33 90 -69 248 -84 366 -48 375 -22 555 111 790 82 144 107 180 210 308 l83
102 -900 0 -900 0 0 -3557z"/>
<path d="M1782 7153 c-132 -142 -321 -443 -361 -577 -44 -144 -48 -315 -14
-581 14 -112 52 -274 87 -372 38 -106 91 -860 101 -1433 12 -640 32 -954 70
-1093 8 -28 21 -79 30 -112 9 -33 21 -64 26 -70 5 -5 9 -15 9 -23 0 -28 78
-170 138 -250 34 -46 62 -90 62 -97 0 -16 -33 -22 -194 -35 -66 -6 -145 -17
-175 -25 -31 -8 -94 -19 -141 -25 -47 -5 -156 -19 -243 -29 -116 -15 -168 -25
-193 -40 -19 -12 -44 -21 -56 -21 -33 0 -86 -38 -118 -85 -39 -57 -57 -131
-70 -279 -18 -219 -28 -315 -35 -327 -4 -6 -44 -35 -89 -64 -121 -78 -121 -78
-121 -275 0 -149 -2 -169 -22 -210 -12 -25 -51 -112 -88 -195 -80 -182 -72
-164 -141 -310 -31 -66 -67 -149 -81 -185 -14 -36 -31 -81 -40 -100 -75 -172
-123 -296 -123 -317 l0 -23 610 0 c336 0 610 3 610 8 0 4 16 132 35 285 19
153 35 306 35 340 0 92 37 300 59 332 3 6 22 56 41 113 19 57 43 112 53 122 9
11 17 21 17 23 0 2 -21 7 -47 10 -27 3 -66 15 -88 26 -21 12 -46 21 -55 22
-10 0 -9 3 5 9 18 8 18 9 -5 10 -14 1 -20 4 -14 6 6 3 45 -2 85 -11 76 -15
149 -20 149 -9 0 4 -8 23 -18 43 -10 20 -29 58 -43 86 -13 27 -42 70 -63 95
-47 53 -95 153 -101 206 l-5 39 10 -37 c15 -58 65 -151 108 -201 22 -25 49
-67 62 -94 12 -26 30 -64 41 -84 34 -65 29 -72 -48 -66 -38 2 -76 8 -85 12
-10 4 -18 3 -18 -3 0 -16 65 -42 104 -42 29 0 36 -4 36 -19 0 -10 -6 -21 -14
-24 -7 -3 -21 -25 -29 -49 -9 -24 -34 -94 -56 -157 -43 -120 -71 -262 -71
-360 0 -33 -16 -186 -35 -341 -32 -256 -36 -304 -20 -288 3 3 15 97 28 209 18
166 23 195 28 154 l6 -50 3 60 c3 48 4 52 7 20 12 -149 64 -408 78 -393 3 3
-3 43 -14 89 -33 140 -53 273 -43 277 6 2 6 17 1 40 -11 49 -11 243 1 357 10
97 39 196 100 339 41 95 74 148 177 284 35 45 54 78 44 72 -22 -11 -111 -117
-111 -131 0 -5 -8 -9 -17 -9 -13 0 -30 26 -57 84 -21 47 -58 106 -82 133 -42
46 -114 174 -114 203 0 8 18 -22 40 -65 22 -44 60 -102 84 -128 24 -27 61 -86
82 -133 22 -46 42 -84 46 -84 4 0 9 8 12 18 10 28 99 120 124 127 34 10 27 -7
-40 -97 -73 -97 -142 -197 -151 -218 -3 -8 -22 -53 -42 -100 -80 -187 -87
-222 -89 -455 -1 -185 1 -213 16 -235 20 -27 23 -50 8 -50 -5 0 -6 7 -3 17 4
11 3 14 -5 9 -8 -5 -10 -1 -5 11 4 13 3 15 -6 8 -8 -8 -6 -36 8 -110 23 -121
28 -146 42 -207 l11 -48 609 0 c335 0 609 2 609 4 0 2 -11 32 -24 67 -57 154
-106 427 -106 597 0 188 55 472 121 624 22 51 37 80 34 63 -7 -33 9 -25 19 10
3 13 4 11 2 -5 -2 -14 -18 -57 -34 -96 -56 -134 -82 -304 -82 -544 0 -205 15
-308 80 -555 16 -60 32 -122 35 -137 l5 -28 1613 0 1612 0 18 60 c9 32 17 68
17 79 0 11 4 22 8 25 18 11 35 244 28 373 -22 387 -128 727 -305 979 -77 109
-93 135 -87 141 3 4 6 1 6 -6 0 -6 6 -11 13 -9 17 4 59 -45 134 -157 60 -88
143 -242 143 -264 0 -6 4 -19 10 -29 16 -28 67 -219 89 -332 32 -167 41 -252
41 -398 0 -172 -25 -319 -75 -444 -7 -17 19 -18 459 -18 l465 0 25 53 c48 103
60 163 59 302 -1 135 -18 264 -52 397 -19 73 -35 114 -88 223 -13 28 -17 41
-8 30 9 -11 24 -37 32 -58 10 -24 19 -35 25 -29 6 6 5 18 -3 33 -18 34 -263
362 -326 437 -29 34 -53 70 -53 80 0 11 5 7 15 -12 8 -15 37 -54 63 -85 83
-95 284 -372 329 -451 24 -41 43 -68 43 -60 0 38 -217 349 -372 534 -32 39
-58 74 -58 80 0 5 10 -4 22 -20 13 -17 44 -55 69 -85 62 -72 249 -323 293
-392 41 -63 80 -161 73 -180 -3 -6 -6 -3 -6 8 -1 11 -6 27 -12 35 -8 11 -9 8
-5 -15 4 -22 -1 -16 -17 20 -18 39 -25 46 -30 31 -10 -26 -9 -44 2 -27 20 31
75 -208 91 -397 7 -82 8 -147 1 -201 -11 -87 -43 -197 -66 -227 -15 -18 -15
-18 -8 1 3 11 10 25 15 32 6 7 8 17 6 23 -2 6 -13 -9 -26 -34 l-22 -46 485 0
c427 0 485 2 485 15 0 21 -105 303 -147 394 l-34 74 16 91 c8 50 18 118 21
151 6 57 4 61 -23 87 -15 14 -66 45 -113 67 -47 23 -101 50 -120 60 l-35 19
-3 86 c-3 95 1 100 65 75 15 -6 94 -14 175 -18 130 -6 150 -9 170 -27 45 -41
114 -73 205 -94 51 -12 137 -37 190 -57 54 -19 132 -45 173 -59 41 -13 127
-44 190 -69 63 -24 160 -57 215 -74 55 -17 158 -49 230 -71 71 -22 135 -40
143 -40 14 0 173 -63 272 -107 30 -14 127 -72 215 -130 88 -58 196 -130 240
-159 44 -29 139 -85 210 -125 72 -39 132 -76 133 -81 2 -4 40 -8 85 -7 l82 0
-42 22 c-23 12 -79 41 -125 64 -172 88 -367 200 -531 305 -99 63 -127 80 -218
127 -134 70 -247 112 -450 171 -199 58 -405 127 -669 223 -167 61 -312 104
-398 118 -62 9 -148 46 -137 58 3 2 23 -5 45 -18 22 -12 66 -26 99 -32 104
-16 403 -113 686 -222 50 -19 117 -42 150 -51 457 -129 649 -202 825 -316 110
-71 422 -258 478 -286 26 -13 54 -28 62 -33 8 -6 29 -16 45 -24 17 -8 68 -34
115 -58 l85 -44 1188 -3 1187 -2 0 1327 -1 1328 -87 48 c-65 37 -186 82 -487
182 -444 148 -475 157 -625 180 -166 25 -325 34 -605 35 -607 3 -1175 -100
-1580 -287 -77 -36 -153 -71 -170 -78 -16 -7 -55 -24 -85 -38 -30 -14 -76 -34
-102 -46 -26 -11 -85 -35 -132 -52 -53 -19 -86 -36 -86 -45 0 -18 -58 -18
-175 1 -141 23 -194 35 -285 62 -47 14 -121 29 -165 33 -79 7 -79 7 -20 9 33
0 85 -6 115 -14 167 -45 216 -57 325 -75 142 -24 195 -25 195 -7 0 7 30 24 68
37 37 13 112 43 167 67 55 25 123 54 150 66 28 12 102 47 165 78 280 136 648
228 1103 275 438 45 966 29 1267 -37 25 -6 171 -52 325 -103 154 -51 344 -114
423 -140 79 -26 165 -60 193 -76 27 -16 63 -36 79 -45 l30 -16 0 35 c0 33 -3
35 -100 85 -56 28 -108 51 -116 51 -8 0 -22 4 -32 9 -9 6 -118 43 -242 83
-152 50 -225 78 -225 88 0 12 153 95 253 138 50 21 302 112 385 138 53 17 77
30 77 41 0 10 -5 13 -17 8 -10 -4 -47 -16 -82 -27 -219 -68 -457 -169 -589
-249 -35 -22 -68 -39 -73 -39 -5 0 -78 20 -162 44 -258 74 -522 100 -948 93
-386 -6 -678 -36 -905 -91 -194 -47 -220 -55 -314 -91 -52 -20 -121 -46 -154
-56 -32 -11 -116 -49 -186 -85 -71 -35 -131 -64 -135 -64 -3 0 -67 -30 -143
-66 -75 -36 -170 -82 -211 -101 l-75 -35 -105 8 c-58 4 -98 9 -88 12 9 2 17 7
17 12 0 5 -8 7 -17 4 -13 -4 -14 -3 -5 3 15 11 -7 35 -48 52 -14 6 -65 40
-115 75 -90 64 -279 186 -345 222 -19 10 -42 24 -50 30 -19 13 -124 58 -212
90 -107 39 -388 93 -593 115 -346 36 -379 39 -535 48 -154 10 -282 33 -618
110 -160 37 -280 84 -292 115 -4 11 -21 49 -38 83 -17 35 -42 112 -57 173
l-28 109 38 143 c20 79 47 195 60 258 20 103 75 270 110 340 14 28 65 210 65
231 0 8 -22 -49 -49 -126 -27 -77 -66 -185 -86 -240 -44 -117 -70 -202 -129
-420 -80 -293 -108 -390 -115 -403 -6 -10 -36 10 -110 73 -57 48 -105 85 -107
82 -3 -3 42 -46 100 -97 59 -50 106 -96 106 -101 0 -5 5 -9 10 -9 6 0 33 -16
61 -35 28 -19 56 -35 63 -35 6 0 44 -20 84 -44 91 -55 177 -85 357 -126 313
-72 420 -90 585 -100 154 -9 442 -36 640 -60 90 -11 350 -69 435 -97 95 -30
310 -142 440 -228 72 -47 143 -93 159 -103 16 -9 41 -27 56 -39 15 -13 53 -36
85 -53 31 -16 52 -30 45 -30 -17 0 -106 46 -139 71 -37 29 -318 213 -376 246
-71 41 -249 121 -306 137 -105 30 -315 75 -399 85 -196 25 -486 52 -640 61
-165 10 -280 29 -580 99 -225 52 -301 79 -395 141 -22 15 -55 32 -72 38 -18 6
-48 22 -66 36 -19 15 -36 26 -39 26 -3 0 -27 21 -54 48 -27 26 -77 73 -112
106 -63 59 -74 76 -47 76 13 0 125 -90 178 -143 12 -12 23 -15 28 -10 5 5 30
83 55 174 25 90 68 245 95 344 27 99 58 200 68 225 71 172 161 439 161 477 0
23 -76 149 -104 172 -9 8 -16 18 -16 23 0 42 122 -141 131 -197 l6 -40 2 39
c1 42 -42 123 -108 201 -69 82 -165 216 -205 286 -31 55 -127 177 -184 237
-55 56 -89 66 -120 35 -15 -15 -18 -13 -34 23 -10 21 -18 32 -18 23 0 -23 70
-162 140 -280 70 -116 70 -116 70 -103 0 5 -21 45 -46 89 -108 186 -115 201
-103 229 13 29 21 31 49 16 35 -19 198 -236 249 -330 14 -25 43 -72 65 -105
56 -82 66 -112 51 -150 -13 -29 -34 -129 -42 -190 -2 -17 7 -1 20 35 13 36 31
82 40 104 10 21 18 50 18 65 1 19 3 21 6 7 5 -18 -13 -90 -27 -111 -28 -40
-110 -374 -110 -447 0 -36 -4 -48 -15 -48 -29 0 -17 102 35 316 28 113 50 215
50 227 1 12 7 33 14 47 17 30 11 47 -47 131 -24 35 -55 84 -68 109 -50 94
-214 311 -249 330 -15 8 -21 6 -30 -10 -6 -11 -9 -24 -7 -28 2 -4 36 -61 75
-127 74 -126 133 -260 131 -298 -1 -17 -3 -15 -8 8 -7 28 -8 27 -15 -20 -4
-27 -21 -116 -37 -197 -16 -81 -29 -157 -28 -170 1 -13 5 -3 10 22 5 25 19 83
30 130 11 47 23 112 28 145 6 42 9 49 10 25 0 -19 -6 -66 -15 -105 -8 -38 -22
-100 -29 -137 -31 -142 -55 -337 -45 -363 13 -35 13 -35 -10 -35 -31 0 -46 41
-31 87 6 21 20 101 32 178 11 77 29 181 39 230 43 204 43 211 18 273 -12 32
-58 117 -102 191 -84 143 -152 300 -142 328 9 22 20 8 42 -54 18 -52 27 -62
39 -43 3 6 22 10 41 10 29 0 44 -9 86 -52 61 -64 148 -179 203 -269 22 -36 59
-90 82 -120 160 -207 213 -290 213 -333 0 -42 -55 -242 -91 -328 -54 -129 -70
-181 -94 -298 -13 -63 -40 -179 -60 -258 l-38 -143 26 -103 c35 -140 98 -269
140 -289 78 -36 120 -50 242 -78 330 -77 461 -100 615 -110 156 -9 189 -12
535 -48 206 -22 485 -76 605 -117 158 -55 378 -179 605 -340 50 -35 104 -70
121 -78 17 -7 42 -28 56 -46 24 -31 28 -32 104 -34 74 -1 85 2 179 45 105 48
259 122 460 220 66 32 147 67 180 78 33 11 107 38 165 60 57 22 127 45 155 51
27 7 94 22 149 36 224 55 518 84 901 91 429 8 684 -17 950 -93 l161 -45 64 39
c134 80 336 165 575 242 50 15 98 31 108 35 16 7 17 108 17 1926 l0 1919
-3996 0 -3996 0 32 -37 c30 -34 88 -146 105 -203 4 -14 15 -41 25 -60 10 -19
28 -60 40 -90 11 -30 25 -64 30 -75 26 -57 42 -106 69 -208 45 -172 50 -201
71 -452 6 -71 16 -169 22 -216 10 -83 11 -86 34 -81 29 5 34 -23 5 -33 -10 -3
-37 -23 -60 -44 l-41 -38 0 -79 c0 -77 20 -215 39 -277 6 -18 29 -87 51 -155
40 -123 48 -162 31 -162 -5 0 -12 -11 -15 -25 -4 -14 -18 -50 -31 -80 -14 -29
-25 -56 -25 -59 0 -8 -70 -127 -117 -198 -37 -55 -43 -70 -34 -87 16 -29 14
-41 -8 -41 -25 0 -42 22 -41 56 0 16 1 154 4 307 l3 277 -28 44 c-16 23 -39
54 -51 67 -37 41 -102 131 -129 179 -43 77 -53 93 -91 147 -21 28 -54 81 -74
117 -41 75 -56 81 -103 37 -29 -27 -31 -33 -31 -103 1 -82 6 -109 49 -226 41
-110 54 -135 117 -218 l54 -71 -6 -129 c-6 -122 -41 -344 -79 -494 -9 -36 -19
-75 -22 -88 -3 -12 -40 -51 -82 -85 -41 -34 -115 -97 -164 -139 -48 -43 -96
-78 -105 -78 -9 0 -32 -9 -50 -20 -18 -11 -40 -20 -49 -20 -9 0 -24 -7 -34
-16 -14 -12 -45 -16 -151 -17 -163 -2 -204 9 -420 112 -37 18 -37 18 -35 -3 1
-12 7 -24 12 -28 6 -4 2 -8 -7 -8 -10 0 -18 4 -18 10 0 12 -136 143 -182 174
-47 31 -137 57 -203 58 -49 1 -49 1 -7 5 52 5 56 23 4 23 -46 0 -97 -34 -121
-82 l-17 -33 39 -52 c35 -48 57 -60 57 -32 0 6 -5 7 -12 3 -6 -4 -8 -3 -4 4 3
6 -3 17 -15 25 -11 9 -28 26 -37 39 -10 14 2 7 33 -19 132 -110 235 -247 268
-353 3 -9 31 -29 63 -45 80 -40 266 -207 277 -247 5 -17 39 -74 77 -127 74
-104 138 -155 255 -207 64 -28 210 -63 262 -64 17 0 35 -5 38 -10 3 -5 36 -10
71 -10 47 0 65 -3 62 -12 -3 -7 -15 -15 -27 -18 -19 -4 -15 -9 31 -31 56 -28
189 -143 358 -310 53 -53 125 -115 161 -139 93 -63 184 -140 328 -278 25 -24
54 -48 66 -54 11 -6 45 -30 75 -55 30 -24 107 -84 170 -135 148 -117 519 -366
663 -444 62 -33 144 -79 182 -103 77 -46 215 -115 315 -156 36 -14 74 -30 85
-35 205 -90 314 -126 400 -135 82 -8 135 -21 148 -38 28 -37 117 -57 287 -67
91 -6 179 -14 195 -20 30 -10 30 -10 -5 -5 -19 3 -107 10 -195 15 -169 10
-265 32 -295 69 -11 13 -44 23 -120 34 -100 15 -199 42 -265 72 -16 8 -112 48
-212 90 -182 75 -267 116 -375 182 -31 19 -104 61 -162 92 -58 31 -203 122
-323 202 -199 133 -266 183 -493 368 -41 33 -79 61 -83 61 -8 0 -168 140 -207
181 -29 30 -125 106 -189 149 -36 24 -108 86 -161 139 -171 169 -301 281 -362
312 -60 30 -67 48 -20 51 40 2 -101 18 -188 22 -41 1 -104 10 -139 20 -35 9
-65 15 -68 13 -11 -11 110 -41 192 -48 l90 -8 -105 4 c-61 1 -97 -1 -85 -5 11
-5 66 -9 121 -9 98 -1 103 -2 173 -40 70 -39 165 -121 376 -324 55 -54 139
-124 184 -157 46 -33 122 -94 170 -137 116 -106 197 -173 208 -173 6 0 122
-89 152 -116 3 -2 6 -61 8 -131 2 -103 8 -140 28 -199 14 -40 25 -85 25 -99 0
-25 -3 -27 -30 -22 -130 26 -428 15 -615 -23 -235 -48 -634 -220 -738 -319
-20 -19 -37 -31 -37 -25 0 23 72 76 189 138 69 36 130 66 136 66 6 0 15 4 21
9 16 17 336 121 430 141 149 31 369 45 509 33 66 -6 122 -9 124 -7 6 5 -13 76
-33 132 -11 28 -17 84 -19 168 l-3 126 -69 58 c-39 33 -75 59 -82 60 -14 0
-104 72 -214 172 -48 43 -124 105 -170 138 -45 33 -128 103 -184 157 -197 190
-322 298 -384 331 -57 29 -70 32 -155 32 -103 0 -177 19 -281 73 -64 33 -251
214 -282 272 -8 17 -17 31 -18 33 -2 2 -17 -4 -35 -13 -23 -12 -30 -21 -25
-33 8 -19 25 -94 51 -219 17 -81 17 -82 -5 -136 -40 -99 -102 -156 -254 -235
-42 -23 -97 -54 -121 -71 -40 -26 -177 -95 -231 -116 -19 -7 -18 -8 5 -15 14
-4 144 -11 290 -15 342 -11 323 -11 410 -3 59 5 65 5 30 -3 -25 -5 -74 -10
-110 -11 -110 -4 -583 13 -618 22 -19 5 -39 7 -46 4 -7 -3 -18 -35 -24 -72
-15 -83 -32 -425 -32 -626 0 -119 -4 -157 -16 -181 -14 -26 -84 -209 -84 -220
0 -1 30 10 68 25 92 39 212 46 397 26 264 -30 513 -100 722 -202 l43 -21 0 76
c0 42 7 103 14 136 19 79 78 243 83 228 2 -6 -8 -39 -22 -74 -42 -99 -65 -204
-65 -296 0 -45 -3 -83 -6 -83 -3 0 -48 20 -99 44 -261 125 -690 212 -924 189
-68 -7 -112 -17 -152 -36 -69 -33 -73 -33 -65 1 10 40 64 183 81 214 11 20 15
63 15 180 0 200 16 523 31 618 l12 75 116 57 c64 31 141 72 171 92 30 20 80
48 110 63 128 60 209 132 256 225 21 41 25 60 20 92 -10 67 -47 230 -57 248
-15 30 -10 47 21 63 40 20 57 19 65 -6 9 -27 154 -185 167 -181 5 1 7 -2 4 -7
-8 -12 64 -72 77 -64 6 3 7 2 4 -4 -7 -11 81 -63 104 -63 8 1 -2 9 -21 20 -19
11 -28 20 -20 20 8 0 -1 9 -20 20 -50 27 -32 24 32 -5 29 -14 62 -25 73 -25
11 1 -12 13 -51 29 -39 15 -82 35 -95 44 -33 24 -49 21 -19 -3 14 -11 21 -20
17 -20 -16 0 -58 38 -46 42 6 2 -5 15 -25 28 -44 30 -170 202 -180 245 -9 39
-198 209 -284 255 -48 25 -62 38 -64 59 -2 14 -8 25 -15 24 -7 -2 -10 4 -7 12
7 17 -87 153 -144 208 -22 22 -42 33 -49 29 -8 -5 6 -31 47 -82 82 -103 111
-142 140 -190 18 -30 41 -49 89 -73 35 -18 66 -38 69 -45 5 -17 -49 -15 -72 3
-11 8 -15 15 -9 15 7 0 15 -4 18 -10 3 -5 18 -10 33 -10 22 1 17 6 -33 31 -61
31 -115 74 -115 93 -1 14 -31 55 -157 211 -57 69 -103 130 -103 135 0 4 -21
20 -46 35 -67 39 -120 99 -139 155 -16 48 -16 51 4 79 12 16 49 51 84 78 204
160 511 188 720 65 50 -30 57 -38 57 -66 0 -55 -43 -128 -124 -209 -43 -42
-85 -77 -94 -78 -11 0 -8 -5 9 -12 15 -7 51 -37 80 -67 75 -76 157 -106 342
-126 76 -8 142 -15 145 -16 4 -2 50 19 102 45 106 52 116 63 195 225 67 139
112 282 126 402 12 104 7 462 -6 506 -6 20 -15 22 -123 27 -123 5 -285 38
-491 99 -226 67 -448 171 -641 302 -61 42 -114 76 -116 76 -13 0 83 -118 153
-187 132 -131 256 -211 439 -283 178 -71 462 -109 649 -88 36 4 48 3 30 -1
l-30 -9 30 -2 30 -2 -35 -9 c-35 -9 -197 2 -350 22 -371 50 -682 217 -874 473
-80 107 -74 123 23 59 31 -20 92 -60 136 -89 103 -67 344 -183 465 -224 227
-76 484 -130 613 -130 l95 0 6 -27 c4 -16 9 -114 13 -218 8 -250 -5 -363 -59
-520 -37 -108 -127 -303 -161 -347 -13 -16 -123 -78 -140 -78 -5 0 -22 -9 -37
-20 -16 -11 -34 -18 -42 -15 -7 3 -74 11 -149 19 -171 18 -284 57 -341 119
-42 44 -50 42 -17 -5 23 -32 129 -86 254 -129 61 -21 87 -24 197 -22 126 1
172 9 132 23 -13 5 -6 8 22 8 23 0 59 10 80 21 21 12 44 21 51 21 7 0 52 36
102 79 49 43 122 105 161 137 40 32 77 69 82 83 35 89 95 423 102 570 l6 124
-58 77 c-32 43 -69 104 -81 136 -12 33 -34 88 -48 124 -27 70 -41 191 -29 254
13 67 105 102 128 49 7 -16 37 -65 68 -111 65 -98 92 -143 121 -197 22 -41 88
-132 125 -172 12 -13 34 -41 49 -62 26 -39 27 -42 31 -233 3 -106 1 -240 -4
-298 -9 -108 -3 -148 26 -158 11 -3 12 0 2 17 -6 12 -8 31 -4 43 4 12 1 24 -7
30 -11 8 -10 9 3 4 12 -4 29 13 63 64 53 82 128 228 147 288 7 23 16 42 20 42
14 0 8 25 -42 177 -59 180 -83 313 -78 424 3 81 4 81 43 115 22 19 45 34 52
34 6 0 15 5 18 10 4 7 -2 9 -17 5 -24 -6 -25 -5 -36 92 -6 54 -16 154 -22 223
-22 250 -26 277 -71 445 -25 96 -118 342 -139 370 -4 6 -11 21 -15 35 -15 52
-96 206 -125 238 l-30 32 -1482 0 -1482 0 -44 -47z m624 -446 c3 -18 10 -36
14 -42 4 -5 17 -41 30 -80 24 -77 90 -212 168 -346 57 -99 186 -257 306 -374
48 -47 97 -108 121 -149 47 -81 185 -223 296 -306 138 -102 338 -191 519 -231
30 -6 127 -15 215 -19 l160 -7 -126 -1 c-224 -3 -429 49 -645 163 -153 81
-357 267 -429 391 -24 41 -73 102 -122 149 -84 83 -261 289 -271 315 -3 8 -13
26 -22 40 -65 93 -182 355 -225 499 l-7 24 -35 -36 c-40 -43 -69 -53 -115 -39
-18 6 -49 13 -69 16 -35 6 -38 5 -72 -46 -19 -29 -46 -76 -61 -105 -14 -29
-35 -57 -45 -63 -11 -5 -61 -10 -113 -9 -124 1 -145 -5 -156 -44 -23 -76 -43
-159 -62 -261 -23 -118 -23 -243 -1 -346 7 -30 24 -111 38 -180 29 -143 62
-245 122 -376 22 -51 41 -101 41 -113 0 -61 69 -267 130 -391 146 -291 320
-516 500 -642 86 -60 113 -73 246 -119 145 -50 259 -97 305 -126 48 -31 159
-72 238 -88 39 -8 68 -20 73 -30 6 -9 19 -20 31 -25 l22 -9 -22 0 c-13 -1 -29
9 -38 23 -11 16 -28 25 -59 29 -63 9 -194 54 -246 85 -77 46 -156 79 -345 146
-200 71 -343 181 -487 374 -169 227 -274 441 -347 710 -7 23 -16 42 -20 42
-13 0 -21 43 -11 56 7 7 0 31 -20 70 -45 88 -94 243 -124 389 -14 72 -33 159
-41 195 -31 134 -9 332 67 592 13 44 36 50 174 49 105 -1 101 -4 161 106 21
40 49 84 61 98 25 28 32 28 130 3 51 -13 75 -3 112 46 29 39 46 37 56 -7z
m2734 -772 c0 -8 -7 -15 -15 -15 -8 0 -15 7 -15 15 0 8 7 15 15 15 8 0 15 -7
15 -15z m-2772 -54 c8 -5 12 -17 10 -27 -3 -17 -17 -20 -143 -26 -151 -7 -188
-14 -251 -46 -49 -25 -161 -113 -181 -142 -12 -17 -18 -18 -29 -9 -12 10 -9
18 16 52 56 76 190 154 322 187 76 19 233 26 256 11z m215 -91 c55 -36 217
-188 217 -203 0 -5 -30 23 -67 63 -37 40 -99 93 -138 119 -38 26 -70 53 -71
61 0 8 1 10 3 5 2 -6 27 -26 56 -45z m55 -9 c74 -47 180 -164 188 -208 4 -20
4 -97 0 -172 l-7 -136 29 -45 c16 -25 50 -70 76 -100 27 -30 61 -77 77 -105
17 -27 35 -58 42 -68 22 -32 -10 -38 -52 -10 -20 14 -58 35 -86 48 -45 20
-195 143 -203 166 -7 18 20 185 44 279 32 123 32 123 31 69 -1 -26 -6 -44 -11
-41 -5 3 -6 -9 -3 -29 5 -26 4 -30 -4 -19 -8 11 -9 7 -5 -18 3 -18 2 -52 -3
-75 -18 -85 -24 -167 -11 -167 7 0 39 -25 72 -55 33 -31 82 -67 109 -80 52
-27 66 -41 23 -25 -46 18 -64 30 -130 91 -37 32 -71 59 -76 59 -6 0 18 -27 53
-60 54 -50 129 -96 243 -149 5 -2 0 8 -10 21 -10 14 -26 23 -34 21 -13 -4 -13
-4 0 6 13 9 12 14 -5 43 -10 18 -42 61 -71 95 -29 34 -58 71 -64 83 -6 12 -14
19 -17 17 -8 -8 15 -45 70 -110 29 -34 60 -75 70 -92 l18 -30 -23 29 c-13 16
-46 56 -75 89 -28 33 -64 83 -79 111 -15 28 -31 54 -36 57 -9 6 4 149 22 254
l9 50 -4 -50 c-2 -27 -9 -93 -14 -145 -8 -64 -8 -96 -1 -98 5 -2 10 -9 10 -16
0 -7 7 -21 16 -32 15 -19 16 -19 8 1 -5 11 -9 97 -9 192 l0 172 -75 76 c-41
42 -103 95 -137 118 -35 23 -63 46 -63 51 0 5 10 0 23 -10 12 -11 46 -35 75
-53z m-108 -96 c0 -12 -14 -15 -63 -15 -55 0 -121 -12 -192 -35 -17 -6 -18 -5
-3 4 9 6 40 17 70 25 36 10 44 15 26 15 -36 1 -144 -39 -129 -48 7 -5 2 -12
-14 -19 -36 -16 -45 -14 -15 3 14 8 19 14 12 15 -15 0 -152 -68 -152 -76 0 -3
7 -3 16 0 8 3 12 2 9 -4 -8 -13 -2 -13 30 2 16 7 21 14 14 18 -7 5 -5 9 6 13
9 4 13 3 10 -3 -8 -14 -10 -14 75 21 101 42 196 48 346 24 78 -13 114 -23 114
-32 0 -8 -11 -13 -27 -12 l-28 1 25 8 c16 6 1 7 -40 3 -95 -8 -179 -20 -148
-22 28 -1 98 -54 98 -75 0 -11 -104 -70 -125 -71 -5 0 -59 -24 -120 -54 -118
-58 -235 -101 -271 -101 -13 0 -25 -4 -28 -8 -3 -5 -33 -17 -68 -27 -35 -11
-66 -24 -70 -30 -5 -6 -8 -5 -8 3 0 7 -5 10 -11 6 -18 -11 -2 92 22 138 11 22
39 60 62 85 22 24 35 43 28 41 -26 -6 -22 20 6 40 46 32 169 98 243 130 91 39
134 49 233 51 53 1 67 -2 67 -14z m1867 -481 c-3 -3 -12 -4 -19 -1 -8 3 -5 6
6 6 11 1 17 -2 13 -5z m763 -368 c0 -2 -7 -6 -15 -10 -8 -3 -15 -1 -15 4 0 6
7 10 15 10 8 0 15 -2 15 -4z m-40 -45 c-5 -11 -8 -26 -7 -33 2 -7 2 -10 0 -5
-3 4 -9 5 -14 2 -10 -7 0 24 14 43 14 18 19 14 7 -7z m-39 -82 c-9 -22 -10
-22 -10 -3 -1 11 2 24 6 27 12 12 14 0 4 -24z m-3071 -141 c0 -12 -28 -10 -35
2 -3 6 1 7 10 4 11 -5 14 -2 9 12 -5 16 -4 16 5 4 6 -8 11 -18 11 -22z m1000
-450 c15 -21 17 -28 6 -19 -16 13 -41 51 -33 51 2 0 14 -15 27 -32z m21 5 c13
-16 12 -17 -3 -4 -17 13 -22 21 -14 21 2 0 10 -8 17 -17z m1155 -18 c-11 -8
-25 -15 -30 -15 -6 1 0 7 14 15 32 19 40 18 16 0z m-348 -42 c-10 -2 -26 -2
-35 0 -10 3 -2 5 17 5 19 0 27 -2 18 -5z m105 -10 c-7 -2 -21 -2 -30 0 -10 3
-4 5 12 5 17 0 24 -2 18 -5z m-772 -20 c13 -16 12 -17 -3 -4 -17 13 -22 21
-14 21 2 0 10 -8 17 -17z m874 -23 c19 -8 19 -9 -2 -9 -12 -1 -25 4 -28 9 -7
12 2 12 30 0z m-1304 -67 c-11 -5 -11 -7 0 -14 11 -7 10 -9 -3 -9 -10 0 -18 7
-18 15 0 8 8 15 18 14 12 0 13 -2 3 -6z m-30 -264 c4 -129 13 -310 20 -404 8
-98 14 -311 14 -505 0 -361 -5 -410 -61 -558 -30 -80 -85 -172 -102 -172 -17
0 -11 19 43 127 75 152 78 169 82 513 3 221 0 359 -11 500 -20 247 -22 744 -3
738 9 -4 14 -65 18 -239z m187 199 c-2 -9 8 -12 29 -11 17 2 34 -1 37 -6 4 -5
-4 -7 -16 -4 -22 4 -22 3 2 -11 35 -22 17 -20 -30 3 -24 11 -40 15 -40 8 0 -5
-3 -7 -6 -4 -4 4 -1 13 6 22 15 18 21 19 18 3z m107 -37 c3 -6 -3 -14 -12 -20
-13 -7 -14 -10 -4 -11 8 0 12 -2 9 -5 -3 -3 -16 -2 -28 3 -24 9 -24 9 5 16 23
6 26 9 14 17 -9 5 -9 9 -2 9 6 0 14 -4 18 -9z m32 -27 c-3 -3 -12 -4 -19 -1
-8 3 -5 6 6 6 11 1 17 -2 13 -5z m6903 -786 c0 -4 -7 -8 -15 -8 -8 0 -15 4
-15 8 0 5 7 9 15 9 8 0 15 -4 15 -9z m-5280 -298 c-21 -7 -22 -8 -5 -10 39 -3
-16 -17 -109 -29 -85 -10 -137 -31 -166 -66 -15 -19 -193 -75 -236 -75 -40 0
-141 35 -176 60 -15 11 -40 20 -55 21 -15 0 -37 4 -48 9 -13 6 -3 7 30 3 28
-3 61 -13 75 -22 42 -30 139 -61 183 -60 l42 2 -45 6 c-25 4 -79 25 -120 46
-52 27 -94 41 -135 46 l-60 6 54 1 c45 2 69 -5 149 -44 97 -46 98 -47 187 -30
25 5 24 4 -5 -5 -19 -7 -30 -13 -24 -15 5 -3 37 5 70 16 41 14 48 18 24 15
-25 -4 -31 -2 -20 5 8 5 21 10 28 10 7 0 41 20 75 44 58 41 68 45 162 56 55 7
102 14 104 16 2 2 14 4 25 3 18 -1 18 -2 -4 -9z m-857 -71 c23 -6 17 -7 -23
-3 -30 3 -212 6 -405 7 -192 1 -323 5 -290 8 80 9 677 -1 718 -12z m24 15 c-3
-3 -12 -4 -19 -1 -8 3 -5 6 6 6 11 1 17 -2 13 -5z m4638 -38 c72 -19 124 -35
117 -35 -7 -1 -68 13 -135 30 -67 17 -164 34 -217 39 l-95 9 100 -5 c70 -3
139 -14 230 -38z m-6445 -260 c0 -39 -50 -122 -125 -206 -38 -43 -71 -77 -74
-75 -2 3 25 37 61 77 71 80 112 140 123 178 4 14 -9 -1 -29 -33 -19 -32 -64
-91 -99 -130 -35 -40 -67 -79 -70 -87 -4 -12 -6 -12 -6 1 -1 10 25 46 58 82
75 83 120 148 127 187 8 36 34 41 34 6z m-1085 -105 l-20 -8 20 -5 c18 -5 18
-6 -2 -7 -14 -1 -23 5 -23 14 0 9 9 15 23 14 21 0 21 -1 2 -8z m3218 -500 c-3
-12 -9 -21 -13 -21 -13 0 -42 -160 -50 -279 l-9 -116 4 125 c4 110 22 224 42
270 4 8 8 22 8 30 1 8 3 24 4 35 2 19 3 19 11 -2 5 -11 6 -30 3 -42z m-2898
-508 c17 -16 29 -17 19 -1 -4 7 -3 8 4 4 15 -9 15 -26 0 -26 -20 0 -48 32 -47
54 1 19 2 19 6 2 3 -11 11 -26 18 -33z m6171 -39 l2 -29 -6 30 -5 30 -7 -30
-8 -30 -1 33 c-1 23 3 32 12 30 6 -3 13 -18 13 -34z m427 -121 c-7 -2 -19 -2
-25 0 -7 3 -2 5 12 5 14 0 19 -2 13 -5z"/>
<path d="M1836 5152 c-2 -4 -1 -14 5 -22 7 -12 9 -10 9 8 0 23 -5 28 -14 14z"/>
<path d="M2111 5859 c-80 -22 -151 -55 -221 -103 -56 -38 -110 -91 -110 -108
0 -8 8 -4 18 8 26 32 128 111 172 134 60 31 125 43 265 49 106 5 130 9 130 21
0 25 -162 24 -254 -1z"/>
<path d="M2736 5353 c-9 -43 -26 -165 -26 -190 0 -13 3 -23 8 -23 4 0 8 28 9
62 1 34 7 86 14 115 6 30 9 57 6 60 -3 2 -8 -8 -11 -24z"/>
<path d="M2417 5683 c18 -2 50 -2 70 0 21 2 7 4 -32 4 -38 0 -55 -2 -38 -4z"/>
<path d="M2315 5621 c-44 -11 -130 -50 -215 -97 -58 -32 -74 -46 -72 -61 1
-11 -4 -26 -13 -33 -18 -15 -21 0 -3 18 6 6 9 15 5 19 -10 10 -65 -44 -102
-102 -33 -50 -54 -128 -38 -138 5 -3 40 6 78 19 39 14 81 27 95 30 68 15 162
51 267 105 64 32 121 59 127 59 6 0 35 12 64 27 l53 28 -35 32 c-21 19 -46 33
-61 33 -15 0 -25 6 -25 14 0 11 24 16 98 22 l97 7 -65 13 c-71 14 -207 16
-255 5z m110 -11 c-3 -5 -23 -9 -43 -9 l-37 2 35 7 c52 11 52 11 45 0z m-85
-10 c0 -5 -10 -10 -22 -9 -22 0 -22 1 -3 9 11 5 21 9 23 9 1 1 2 -3 2 -9z
m-36 -58 c3 -5 -8 -22 -25 -38 -29 -27 -31 -32 -25 -82 l6 -53 -53 -24 c-55
-25 -195 -65 -229 -65 -25 0 -23 35 5 85 25 44 92 89 222 148 87 40 91 41 99
29z m-364 -249 c-8 -3 -18 -10 -21 -15 -3 -5 -9 -3 -12 6 -5 12 0 16 21 15 16
0 21 -3 12 -6z m-25 -43 c-28 -12 -37 -12 -30 0 3 6 16 10 28 9 21 0 21 -1 2
-9z"/>
<path d="M2188 5491 c-138 -69 -166 -88 -194 -132 -37 -59 -33 -72 19 -64 54
9 185 52 214 71 19 12 21 20 16 63 -5 46 -3 52 25 80 17 17 27 31 24 31 -4 0
-51 -22 -104 -49z"/>
<path d="M2025 5534 c-11 -8 -19 -20 -17 -25 1 -6 -2 -8 -7 -5 -5 4 -12 2 -15
-3 -15 -23 17 -19 59 7 37 23 43 31 30 36 -23 8 -27 8 -50 -10z"/>
<path d="M2692 3645 c-1 -171 4 -341 14 -465 11 -141 14 -280 12 -500 -5 -343
-12 -385 -87 -525 -39 -74 -53 -105 -46 -105 16 0 100 184 122 267 26 96 26
104 27 443 1 210 -4 412 -13 515 -7 94 -17 276 -20 405 l-8 235 -1 -270z"/>
<path d="M4517 2709 c-76 -10 -90 -16 -154 -65 -51 -39 -44 -47 8 -9 65 46 90
56 177 66 48 6 89 13 91 15 6 6 -44 3 -122 -7z"/>
<path d="M5270 5710 c0 -8 5 -22 10 -30 9 -13 10 -13 10 0 0 8 -5 22 -10 30
-9 13 -10 13 -10 0z"/>
<path d="M5507 5245 c7 -35 32 -87 32 -65 0 8 -9 33 -19 55 -17 35 -19 36 -13
10z"/>
<path d="M4258 5173 c12 -2 30 -2 40 0 9 3 -1 5 -23 4 -22 0 -30 -2 -17 -4z"/>
<path d="M5681 4680 c-17 -73 -30 -155 -30 -183 l2 -52 7 60 c4 33 19 113 34
178 15 65 26 121 23 123 -3 3 -19 -54 -36 -126z"/>
<path d="M5451 4643 c-7 -53 -15 -103 -19 -111 -3 -9 -1 -13 5 -9 10 6 39 204
31 212 -3 3 -10 -39 -17 -92z"/>
<path d="M3145 4691 c-101 -27 -181 -67 -258 -128 -89 -71 -101 -90 -85 -134
6 -19 24 -49 39 -68 31 -39 118 -103 130 -96 4 3 10 18 14 34 14 64 151 112
182 63 6 -11 34 -24 69 -31 35 -8 75 -26 99 -45 63 -48 149 -128 161 -150 11
-18 12 -17 10 9 -1 17 -7 40 -14 52 -6 12 -10 28 -7 35 4 9 -6 20 -27 29 -34
15 -49 39 -24 39 24 0 174 158 196 208 32 72 28 85 -42 126 -79 47 -149 66
-273 72 -78 3 -115 0 -170 -15z m305 -30 c19 -5 28 -9 20 -10 -12 -1 -12 -3
-2 -9 18 -12 -207 -79 -288 -86 -36 -3 -95 -9 -131 -12 -109 -11 -147 10 -89
47 36 22 154 69 203 79 47 10 234 4 287 -9z m167 -93 c-3 -7 -5 -2 -5 12 0 14
2 19 5 13 2 -7 2 -19 0 -25z m-777 -83 c0 -8 -4 -15 -10 -15 -5 0 -7 7 -4 15
4 8 8 15 10 15 2 0 4 -7 4 -15z m413 -132 c-7 -2 -21 -2 -30 0 -10 3 -4 5 12
5 17 0 24 -2 18 -5z m176 -97 c7 -8 18 -13 26 -10 16 7 29 -12 15 -21 -6 -4
-7 -12 -4 -18 4 -7 -13 7 -37 29 -24 23 -54 45 -66 48 -11 4 -27 14 -34 22 -7
9 8 5 38 -11 28 -13 56 -31 62 -39z"/>
<path d="M3165 4661 c-89 -20 -221 -84 -209 -102 18 -30 343 17 464 68 30 12
32 16 18 24 -23 13 -224 20 -273 10z"/>
<path d="M3450 4229 c0 -5 5 -7 10 -4 6 3 10 8 10 11 0 2 -4 4 -10 4 -5 0 -10
-5 -10 -11z"/>
<path d="M5420 4499 c0 -16 20 -49 29 -49 5 0 4 14 -2 30 -11 29 -27 41 -27
19z"/>
<path d="M12720 3286 c-36 -13 -72 -25 -80 -28 -8 -4 -69 -25 -135 -48 -123
-44 -405 -175 -405 -189 0 -11 40 -25 310 -112 124 -40 262 -91 308 -115 l82
-42 0 279 c0 153 -3 279 -7 278 -5 -1 -37 -11 -73 -23z"/>
<path d="M4095 3184 c28 -7 61 -13 75 -13 14 1 -2 7 -35 15 -78 17 -105 16
-40 -2z"/>
<path d="M4010 3160 c8 -5 24 -9 35 -9 l20 0 -20 9 c-11 5 -27 9 -35 9 -13 1
-13 0 0 -9z"/>
<path d="M5610 1622 c0 -6 4 -13 9 -16 19 -12 163 -237 190 -297 103 -228 182
-609 181 -874 -1 -96 -21 -248 -45 -330 -10 -33 -19 -71 -22 -85 -7 -41 15 0
37 70 65 203 68 467 9 770 -55 282 -119 438 -271 662 -60 88 -88 120 -88 100z"/>
<path d="M2612 1248 c-34 -95 -77 -284 -92 -408 -21 -176 -5 -390 46 -600 32
-128 74 -240 91 -240 15 0 11 28 -27 165 -62 229 -80 352 -80 560 0 231 23
384 77 528 14 38 23 70 20 73 -2 3 -18 -32 -35 -78z"/>
<path d="M1298 1283 c7 -3 16 -2 19 1 4 3 -2 6 -13 5 -11 0 -14 -3 -6 -6z"/>
<path d="M7422 1044 l3 -79 122 -60 c67 -33 134 -72 149 -85 25 -24 26 -29 20
-91 -3 -36 -13 -104 -21 -151 l-15 -86 44 -104 c53 -125 136 -352 136 -373 0
-13 133 -15 1188 -15 l1187 0 -115 64 c-119 67 -217 128 -480 302 -145 95
-204 127 -340 183 -30 13 -70 29 -88 37 -18 8 -38 14 -45 14 -7 0 -71 18 -142
40 -72 22 -175 54 -230 71 -55 17 -143 47 -195 66 -96 36 -329 119 -430 153
-30 10 -102 30 -159 44 -101 25 -147 46 -204 93 -26 21 -39 23 -135 23 -59 1
-125 5 -147 9 -22 5 -55 12 -73 16 l-33 8 3 -79z"/>
<path d="M6866 911 c-4 -6 -3 -18 2 -27 8 -15 10 -14 16 2 8 20 -8 42 -18 25z"/>
<path d="M6891 839 c-1 -3 8 -41 19 -85 53 -206 70 -484 36 -589 -20 -62 -20
-95 -1 -40 41 113 39 332 -6 547 -18 86 -46 185 -48 167z"/>
<path d="M1281 197 c-7 -67 -15 -139 -18 -159 l-6 -38 61 0 60 0 -24 101 c-13
56 -27 125 -30 154 -4 30 -12 56 -19 59 -9 3 -16 -29 -24 -117z"/>
</g>
</svg>
