<?xml version="1.0" standalone="no"?>
<!DOCTYPE svg PUBLIC "-//W3C//DTD SVG 20010904//EN"
 "http://www.w3.org/TR/2001/REC-SVG-20010904/DTD/svg10.dtd">
<svg version="1.0" xmlns="http://www.w3.org/2000/svg"
 width="1280.000000pt" height="720.000000pt" viewBox="0 0 1280.000000 720.000000"
 preserveAspectRatio="xMidYMid meet">
<metadata>
Created by potrace 1.16, written by Peter Selinger 2001-2019
</metadata>
<g transform="translate(0.000000,720.000000) scale(0.100000,-0.100000)"
fill="#000000" stroke="none">
<path d="M1 3663 c0 -2585 3 -3531 11 -3513 12 27 17 38 73 180 34 86 53 127
130 295 13 28 33 75 45 105 12 30 32 77 44 105 13 27 38 84 56 125 l33 74 -7
151 c-8 184 -4 196 104 270 113 78 108 68 131 324 10 123 24 242 30 265 23 88
97 176 147 176 11 0 41 10 65 23 30 16 76 27 148 36 170 19 379 51 449 68 36
8 124 21 197 28 72 7 136 16 142 19 7 4 -15 41 -55 94 -92 122 -139 228 -208
464 -37 126 -58 395 -76 968 -10 346 -28 744 -35 810 -2 19 -13 136 -25 260
-35 382 -40 421 -71 515 -45 136 -66 228 -83 355 -33 258 -29 442 15 580 58
183 315 578 400 614 15 6 59 41 98 79 l71 67 -915 0 -915 0 1 -3537z"/>
<path d="M1770 7125 c-41 -41 -82 -75 -92 -75 -16 0 -81 -70 -150 -160 -95
-125 -223 -351 -257 -452 -43 -132 -48 -319 -15 -578 17 -130 31 -190 79 -340
35 -110 40 -143 75 -530 12 -124 23 -241 25 -260 7 -66 25 -464 35 -810 18
-573 39 -842 76 -968 65 -221 117 -334 213 -460 33 -45 61 -85 61 -91 0 -15
-63 -29 -165 -36 -49 -3 -128 -15 -175 -25 -80 -18 -233 -41 -483 -74 -68 -9
-115 -20 -126 -30 -9 -9 -33 -19 -52 -22 -46 -9 -83 -37 -118 -88 -41 -59 -49
-96 -70 -342 -11 -121 -24 -231 -29 -245 -11 -27 -58 -68 -124 -108 -21 -12
-48 -37 -60 -54 -22 -30 -23 -41 -23 -207 0 -160 -2 -178 -22 -215 -22 -42
-133 -291 -133 -300 0 -3 -27 -65 -61 -138 -78 -171 -70 -152 -129 -302 -32
-83 -50 -144 -50 -172 l0 -43 574 0 574 0 6 38 c15 95 38 309 46 432 5 74 13
164 18 200 10 71 91 315 123 368 10 18 19 35 19 36 0 2 -21 6 -47 9 -63 8
-173 53 -147 60 16 4 15 5 -3 6 -27 1 -29 -15 -6 -42 13 -15 14 -19 4 -15 -22
6 -35 33 -27 53 5 14 13 16 44 10 99 -20 212 -30 212 -20 0 23 -98 196 -132
233 -72 78 -127 232 -83 232 8 0 15 -5 15 -11 0 -26 67 -141 112 -195 44 -51
134 -211 125 -221 -6 -5 -33 38 -42 67 -11 36 -52 98 -98 150 -22 25 -57 81
-78 124 -29 60 -39 73 -39 53 0 -40 47 -132 95 -185 43 -47 135 -217 135 -248
0 -17 -27 -17 -180 0 -42 5 -43 4 -15 -6 17 -6 35 -15 41 -19 6 -5 33 -12 60
-15 69 -9 79 -20 51 -54 -30 -35 -117 -285 -129 -370 -5 -36 -13 -126 -18
-200 -5 -74 -18 -209 -29 -300 -11 -90 -18 -166 -16 -169 11 -11 17 14 30 135
13 119 14 122 9 34 -3 -52 -7 -112 -11 -132 -5 -37 -5 -38 26 -38 17 0 31 2
31 5 0 2 -6 51 -14 107 -21 149 -25 196 -16 173 4 -11 13 -67 20 -125 15 -134
20 -160 32 -160 6 0 7 11 3 28 -17 68 -31 172 -25 183 4 6 3 28 -2 48 -6 21
-8 115 -5 231 4 190 5 197 40 300 59 175 92 247 151 328 25 34 46 65 46 69 0
3 11 21 25 39 14 18 21 35 17 38 -5 3 -25 -18 -45 -47 -20 -29 -37 -46 -37
-39 0 30 96 142 122 142 26 0 22 -18 -15 -64 -52 -64 -88 -126 -81 -138 4 -6
3 -8 -4 -4 -26 16 -110 -149 -174 -339 l-33 -100 0 -210 c0 -200 1 -212 23
-257 13 -27 22 -53 20 -59 -2 -7 -10 7 -17 31 -8 27 -16 39 -20 31 -8 -12 0
-72 20 -163 l11 -48 599 0 c329 0 599 3 599 8 0 4 -11 51 -25 105 -75 295 -71
599 10 903 27 100 53 169 61 161 3 -3 -1 -18 -9 -34 -8 -15 -18 -44 -21 -63
-4 -21 6 -4 24 40 30 75 38 109 20 80 -5 -8 -10 -10 -10 -5 0 6 5 17 10 25 9
13 10 13 10 0 0 -13 1 -13 10 0 17 26 11 4 -24 -87 -60 -158 -76 -270 -76
-521 0 -223 18 -359 72 -544 l19 -68 1644 0 c1577 0 1645 1 1645 18 0 10 4 22
9 28 11 12 31 186 31 276 0 270 -78 633 -182 853 -44 92 -183 308 -218 340
-23 21 -26 45 -7 45 23 0 90 -83 194 -240 94 -142 175 -376 223 -640 30 -165
38 -426 16 -553 -9 -53 -19 -103 -22 -112 -6 -13 44 -15 465 -15 l470 0 10 38
c39 143 39 260 0 473 -32 179 -61 265 -127 372 -13 22 -21 41 -19 44 3 2 16
-14 30 -37 14 -23 27 -37 31 -32 3 6 -11 32 -31 59 -20 26 -82 107 -138 179
-55 73 -128 166 -162 208 -35 43 -63 83 -63 89 0 7 4 6 10 -3 8 -12 10 -12 10
5 0 17 2 17 17 -5 9 -14 40 -52 68 -85 60 -69 266 -337 314 -408 39 -58 91
-170 90 -194 0 -10 -7 -3 -15 17 l-14 35 5 -35 c5 -34 5 -33 -13 10 -10 25
-24 44 -30 43 -7 -2 -9 4 -5 15 5 13 3 14 -7 6 -7 -7 -9 -21 -5 -34 5 -17 9
-19 15 -10 5 9 15 -9 28 -51 20 -65 40 -179 23 -129 -7 21 -9 21 -9 5 -1 -11
3 -38 7 -60 l9 -40 2 35 c2 29 4 24 15 -30 8 -36 13 -85 13 -110 0 -34 -3 -26
-9 29 -5 41 -12 77 -15 80 -4 3 -4 -14 -1 -39 4 -25 10 -101 14 -170 l8 -125
6 90 5 90 2 -77 c2 -68 -15 -182 -33 -230 -7 -17 18 -18 434 -18 472 0 455 -2
428 50 -7 14 -21 48 -31 75 -10 28 -41 103 -68 167 -49 115 -50 118 -39 170 7
29 15 95 18 146 7 113 3 119 -125 181 -48 23 -103 50 -122 59 -35 17 -35 18
-43 101 -5 45 -6 85 -3 88 3 3 41 -2 86 -11 46 -9 129 -16 195 -16 64 0 116
-4 120 -10 3 -5 26 -24 51 -41 34 -23 85 -41 197 -69 84 -22 177 -48 207 -60
30 -12 91 -33 135 -47 44 -14 89 -29 100 -34 11 -4 63 -24 115 -43 93 -35 153
-53 450 -137 267 -75 410 -139 615 -274 83 -54 159 -103 170 -109 11 -7 52
-32 90 -57 39 -25 106 -64 149 -87 72 -39 85 -43 140 -40 l61 3 -85 43 c-125
65 -228 120 -290 157 -197 117 -267 159 -280 170 -18 15 -195 105 -260 132
-25 11 -63 27 -85 37 -22 9 -78 27 -125 40 -95 26 -240 67 -345 97 -38 11
-131 42 -205 69 -74 27 -157 55 -185 63 -27 8 -88 29 -135 46 -105 39 -299 91
-340 91 -32 0 -136 47 -127 57 3 3 27 -6 53 -21 25 -14 59 -26 75 -26 48 0
212 -47 454 -129 127 -43 248 -86 269 -95 22 -9 114 -37 205 -62 91 -25 168
-47 171 -49 4 -2 51 -16 106 -30 54 -15 122 -36 149 -47 101 -41 333 -160 425
-218 52 -33 118 -73 145 -88 28 -16 83 -48 124 -71 40 -23 129 -71 198 -107
l125 -64 1284 0 1284 0 0 1284 0 1284 -28 11 c-16 7 -81 40 -144 75 -129 70
-146 76 -338 136 -74 23 -200 63 -280 90 -371 125 -525 153 -931 170 -259 11
-329 8 -698 -30 -457 -47 -800 -137 -1126 -295 -155 -75 -305 -145 -310 -145
-3 0 -28 -11 -57 -24 -29 -13 -77 -32 -107 -42 -32 -11 -56 -26 -59 -36 -5
-22 -18 -22 -147 -3 -121 17 -281 51 -338 71 -23 9 -80 19 -127 23 -81 8 -82
8 -25 10 33 0 85 -6 115 -14 116 -32 272 -66 372 -80 128 -18 138 -18 138 -1
0 7 26 24 58 36 155 61 466 201 515 233 21 13 57 28 207 84 258 96 534 156
891 193 369 38 439 41 698 30 405 -17 557 -45 931 -170 80 -26 206 -67 280
-89 213 -66 239 -77 445 -191 57 -31 65 -32 65 -5 0 14 -5 25 -10 25 -6 0 -38
19 -73 43 -129 90 -187 116 -387 177 -58 17 -116 35 -130 40 -14 5 -71 23
-127 41 -107 34 -126 52 -80 75 12 6 72 36 132 67 61 30 139 66 175 80 116 45
343 124 423 147 51 15 77 28 77 38 0 8 -6 12 -12 9 -7 -2 -56 -17 -108 -32
-249 -73 -553 -201 -712 -302 -21 -12 -43 -23 -49 -23 -6 0 -67 16 -136 35
-234 66 -348 81 -722 94 -190 6 -294 5 -415 -5 -188 -15 -358 -32 -401 -39
-16 -3 -50 -7 -75 -9 -87 -9 -390 -80 -490 -114 -126 -44 -323 -122 -358 -141
-20 -12 -75 -39 -122 -62 -47 -22 -152 -73 -235 -114 -293 -143 -278 -137
-353 -130 -37 4 -74 12 -82 17 -12 7 -11 8 5 4 11 -2 48 -8 82 -11 52 -6 68
-4 95 13 18 11 69 35 113 53 44 18 94 41 110 50 17 10 50 28 75 40 338 165
411 199 420 199 6 0 56 18 113 41 126 50 186 69 352 109 156 38 215 50 275 56
25 2 59 6 75 9 43 7 213 24 401 39 121 10 225 11 415 5 375 -13 488 -28 725
-94 88 -25 134 -34 144 -27 22 13 153 84 235 126 79 40 357 145 485 182 47 14
100 29 118 35 l32 11 0 1919 0 1919 -4080 0 -4081 0 25 -42 c13 -24 36 -72 51
-108 15 -36 37 -87 50 -115 13 -27 28 -70 35 -95 6 -25 38 -108 70 -185 58
-137 108 -301 129 -420 11 -62 45 -363 57 -497 6 -67 9 -78 25 -78 28 0 23
-15 -13 -44 -79 -63 -85 -84 -68 -221 14 -112 29 -172 91 -358 50 -152 55
-172 40 -163 -7 5 -51 -80 -51 -98 0 -18 -72 -154 -122 -230 -61 -94 -65 -105
-47 -123 13 -13 4 -33 -14 -33 -41 1 -42 5 -38 330 l3 311 -81 98 c-44 54
-103 136 -132 182 -29 46 -74 116 -100 154 -27 39 -61 94 -76 123 -32 61 -55
67 -98 25 -27 -27 -27 -30 -23 -129 2 -56 8 -108 14 -115 6 -8 22 -45 34 -84
31 -96 53 -138 117 -222 l55 -71 -7 -134 c-6 -130 -31 -308 -61 -438 -35 -153
-33 -148 -108 -215 -203 -180 -255 -225 -263 -225 -4 -1 -26 -9 -48 -20 -22
-11 -46 -19 -54 -20 -8 0 -22 -7 -31 -15 -28 -26 -229 -34 -320 -14 -43 10
-134 43 -217 80 -23 11 -46 19 -52 19 -5 0 -22 20 -37 44 -16 25 -32 42 -36
40 -5 -3 -5 -11 -2 -17 4 -7 -13 6 -37 29 -44 41 -104 72 -116 60 -3 -3 -11
-2 -17 3 -21 16 -157 43 -186 37 -16 -3 -31 -2 -34 2 -13 22 145 4 214 -25 8
-3 21 -5 28 -4 18 3 95 -33 111 -53 7 -8 19 -12 27 -9 12 4 10 8 -7 17 -27 13
-37 36 -16 36 8 0 48 34 88 75 79 80 134 173 125 209 -5 21 -81 70 -145 93
-18 7 -84 18 -146 24 -103 10 -120 9 -195 -10 -45 -11 -106 -32 -135 -46 -30
-14 -57 -25 -62 -25 -15 0 -173 -151 -173 -166 0 -43 73 -135 142 -177 36 -22
48 -21 48 4 0 27 59 86 94 95 15 3 42 2 59 -4 30 -10 30 -10 -10 -5 -36 5 -48
1 -79 -22 -71 -55 -70 -61 48 -177 106 -105 208 -242 208 -281 0 -15 14 -31
44 -49 24 -16 48 -28 54 -28 6 0 35 -21 63 -46 28 -25 80 -68 115 -95 45 -36
66 -60 75 -87 6 -20 36 -70 66 -110 29 -40 56 -79 60 -87 9 -25 152 -113 233
-144 41 -16 113 -34 160 -41 47 -6 95 -16 108 -21 13 -5 50 -9 83 -9 44 0 60
-3 57 -12 -3 -7 -15 -14 -27 -16 -19 -3 -13 -9 32 -31 54 -27 94 -61 344 -294
64 -59 155 -135 203 -167 48 -33 122 -92 166 -131 153 -137 189 -168 235 -201
26 -18 67 -49 91 -68 173 -135 298 -224 449 -322 96 -61 188 -121 204 -133 17
-13 75 -46 130 -74 55 -29 109 -57 120 -64 11 -6 40 -24 65 -38 111 -67 257
-132 580 -261 91 -36 202 -64 291 -73 54 -5 73 -12 100 -36 18 -16 27 -29 21
-29 -7 0 -22 11 -33 24 -17 20 -35 26 -88 31 -123 13 -244 48 -396 115 -22 9
-83 34 -135 54 -102 40 -303 137 -385 186 -27 16 -95 52 -150 81 -55 28 -113
61 -130 74 -16 12 -108 72 -204 133 -170 110 -315 216 -476 347 -44 35 -84 65
-88 65 -8 0 -67 50 -215 182 -41 38 -114 95 -162 128 -48 32 -139 108 -203
167 -247 230 -298 274 -353 299 -57 26 -60 38 -14 47 14 2 0 5 -31 6 -31 0
-70 6 -88 12 -20 7 -49 8 -79 3 l-47 -8 40 -7 c27 -5 13 -7 -45 -4 -66 2 -79
1 -60 -8 14 -5 75 -11 136 -11 l111 -2 72 -43 c73 -43 177 -132 362 -311 54
-52 132 -117 172 -145 86 -59 197 -147 197 -157 0 -8 173 -146 211 -168 14 -8
53 -37 88 -65 l63 -49 -3 -51 c-5 -74 11 -226 26 -260 16 -36 39 -124 34 -130
-2 -2 -65 1 -139 7 -114 10 -159 9 -290 -6 -152 -17 -314 -47 -348 -65 -9 -5
-78 -31 -152 -57 -167 -59 -416 -189 -464 -243 -11 -11 -25 -21 -33 -21 -29 0
-7 283 30 372 9 20 13 47 11 60 -5 21 -4 21 6 5 9 -14 8 -27 -5 -60 -24 -58
-45 -197 -45 -291 l0 -80 33 30 c17 17 48 40 67 52 71 41 256 139 275 144 35
10 249 88 270 98 38 19 201 49 355 66 129 15 177 16 285 7 72 -6 132 -9 134
-7 2 2 -6 32 -18 66 -26 72 -42 181 -42 285 l0 72 -74 60 c-40 34 -78 61 -83
61 -12 0 -160 114 -192 149 -38 40 -127 113 -200 161 -36 24 -113 89 -171 144
-205 195 -297 274 -369 317 -72 43 -73 43 -179 45 -116 2 -187 20 -296 77 -62
33 -223 189 -275 267 l-25 38 -28 -22 c-24 -19 -26 -25 -17 -51 16 -51 49
-197 56 -251 5 -42 2 -60 -20 -106 -33 -69 -124 -157 -202 -195 -51 -25 -126
-69 -190 -111 -10 -7 -63 -34 -116 -60 -54 -26 -98 -50 -98 -54 0 -5 73 -8
163 -9 89 0 227 -4 307 -8 108 -7 167 -5 235 5 49 7 104 13 120 13 17 -1 -24
-9 -90 -19 -98 -14 -148 -16 -270 -9 -82 4 -228 9 -324 10 -146 2 -175 0 -182
-13 -14 -25 -28 -247 -35 -558 -4 -204 -10 -301 -18 -315 -14 -22 -76 -191
-76 -205 0 -5 15 -1 33 10 62 37 127 50 248 50 294 0 614 -70 892 -194 l57
-26 0 69 c0 38 6 102 14 143 15 79 67 229 73 211 2 -6 -8 -39 -22 -74 -34 -79
-55 -190 -55 -284 0 -67 -10 -99 -24 -77 -4 7 -152 72 -231 102 -40 15 -173
51 -275 75 -131 30 -276 45 -432 45 -106 0 -127 -3 -186 -26 -37 -15 -72 -31
-79 -36 -31 -25 -19 55 23 149 8 17 14 36 14 42 0 7 6 22 14 34 10 17 15 91
20 312 7 311 21 520 36 560 5 14 16 25 24 25 8 0 16 3 18 8 2 4 46 28 98 54
52 27 104 54 114 60 63 41 129 79 186 107 80 40 172 129 207 198 21 44 24 61
19 100 -10 67 -46 224 -57 245 -15 29 -10 43 21 66 38 28 42 28 64 -8 9 -17
22 -27 28 -24 7 4 8 2 4 -5 -5 -7 27 -48 81 -106 85 -90 130 -127 193 -160 43
-22 61 -18 20 5 -19 11 -28 20 -20 20 8 0 -1 10 -20 21 -41 23 -28 20 55 -15
33 -14 69 -25 80 -25 11 0 -15 13 -58 29 -43 16 -94 39 -113 51 -19 12 -37 19
-40 16 -3 -3 4 -11 16 -17 12 -6 19 -14 16 -17 -3 -3 -17 4 -31 15 -14 11 -20
22 -14 24 6 2 -7 16 -29 32 -22 15 -43 34 -46 42 -3 7 -30 47 -61 87 -30 40
-58 88 -61 106 -5 25 -26 48 -98 105 -50 41 -101 86 -113 100 -13 14 -31 26
-40 26 -14 -1 -12 -4 7 -15 48 -27 5 -15 -60 18 -43 21 -71 43 -85 65 -25 41
-57 83 -160 209 -96 118 -116 148 -109 167 4 11 0 13 -14 9 -58 -15 -192 130
-192 207 0 28 138 149 205 180 67 31 169 64 231 74 47 8 228 -8 288 -26 43
-12 136 -64 148 -82 27 -39 -26 -144 -121 -241 -40 -41 -81 -75 -90 -76 -9 0
-2 -7 15 -14 18 -8 46 -33 65 -56 22 -28 53 -51 96 -70 94 -42 125 -49 273
-64 l135 -13 93 45 c107 52 121 69 195 229 62 134 104 258 118 354 12 84 8
516 -6 557 -7 22 -12 23 -109 22 -182 -1 -586 103 -819 210 -143 66 -207 101
-292 157 -108 74 -138 92 -148 93 -15 2 46 -73 127 -157 125 -128 239 -208
386 -269 173 -72 259 -93 454 -113 108 -11 167 -10 306 5 25 2 14 -2 -25 -10
-86 -17 -166 -18 -293 -5 -260 29 -491 108 -662 228 -131 92 -330 306 -313
336 6 11 29 0 98 -46 159 -105 207 -133 352 -201 247 -116 640 -219 834 -218
l107 1 7 -28 c13 -51 18 -480 6 -560 -17 -113 -65 -259 -125 -377 -20 -38 -36
-74 -36 -78 0 -5 -13 -28 -30 -51 -23 -35 -48 -53 -122 -89 l-93 -46 -140 14
c-77 7 -160 20 -185 28 -108 35 -156 60 -187 95 -18 20 -32 33 -32 27 0 -5 12
-24 27 -42 64 -75 388 -173 469 -142 15 6 44 9 64 8 34 -3 52 3 142 47 16 8
35 14 42 14 13 0 82 58 282 236 53 48 75 75 82 102 45 166 78 375 86 535 l6
129 -54 71 c-64 85 -76 107 -112 212 -15 44 -32 86 -38 93 -6 8 -13 64 -15
125 -4 111 -4 112 23 140 19 18 38 27 59 27 28 0 35 -6 59 -52 15 -29 49 -84
76 -123 26 -38 72 -108 101 -155 29 -47 81 -119 115 -160 106 -129 97 -88 94
-435 -3 -261 -1 -307 11 -315 23 -15 34 -12 20 5 -18 22 -5 60 47 139 63 96
96 159 133 251 17 44 35 82 40 85 4 3 -16 77 -45 165 -29 88 -61 196 -70 240
-31 151 -21 305 20 305 19 0 51 40 39 48 -6 4 -14 43 -18 87 -11 133 -46 436
-57 500 -14 78 -66 269 -86 315 -8 19 -19 44 -23 55 -24 55 -53 123 -65 150
-7 17 -16 46 -20 65 -4 19 -19 62 -35 95 -15 33 -33 76 -40 95 -7 19 -31 70
-53 113 l-41 77 -1390 -1 -1391 0 -75 -74z m497 -600 c14 -38 33 -94 44 -123
70 -199 291 -517 469 -674 36 -31 78 -81 102 -123 52 -88 235 -272 341 -344
147 -99 355 -183 527 -212 91 -16 322 -16 409 1 34 6 65 9 68 7 11 -12 -154
-30 -272 -30 -144 -1 -240 12 -360 49 -161 51 -272 101 -380 174 -107 73 -272
235 -325 321 -25 40 -87 115 -140 168 -189 189 -261 286 -378 503 -40 74 -132
308 -132 335 0 19 -4 17 -49 -28 -45 -46 -29 -43 -174 -23 -42 6 -44 5 -67
-32 -13 -22 -37 -64 -53 -94 -49 -92 -48 -92 -182 -95 -82 -2 -121 -7 -130
-16 -12 -13 -42 -128 -77 -299 -16 -82 -17 -228 -1 -300 7 -30 22 -104 34
-165 25 -136 78 -300 134 -419 23 -50 45 -112 48 -137 20 -157 153 -442 326
-699 59 -88 239 -263 333 -326 59 -39 115 -64 230 -103 186 -63 268 -97 311
-128 36 -27 202 -83 245 -83 15 0 33 5 40 12 8 8 15 8 24 1 7 -6 24 -13 38
-16 18 -3 15 -5 -13 -6 -34 -1 -37 -3 -27 -20 5 -11 20 -22 32 -24 21 -4 20
-4 -3 -6 -18 -1 -32 7 -43 24 -11 17 -26 25 -46 25 -46 0 -220 59 -268 90 -47
31 -155 75 -347 141 -151 52 -227 101 -366 239 -137 136 -248 299 -355 525
-49 103 -114 286 -114 320 0 9 -6 18 -14 21 -19 7 -31 55 -16 64 8 5 2 25 -19
67 -57 109 -117 304 -153 493 -10 58 -24 130 -30 160 -11 60 -5 174 13 260 37
179 64 283 75 295 16 15 148 29 196 20 44 -8 74 16 115 95 76 143 70 140 191
118 l64 -12 37 41 c20 23 42 41 50 40 7 -1 25 -33 38 -72z m-46 -785 c20 -11
25 -35 9 -45 -6 -3 -65 -8 -132 -11 -187 -6 -251 -28 -373 -128 -27 -22 -56
-49 -63 -58 -7 -10 -20 -18 -28 -18 -29 0 -13 33 45 90 78 79 209 141 366 174
41 8 157 6 176 -4z m242 -109 c85 -57 193 -167 203 -205 3 -14 1 -54 -4 -89
-19 -107 -24 -187 -12 -187 5 0 10 -9 10 -19 0 -11 3 -22 8 -24 4 -3 7 73 7
168 0 99 4 171 9 168 5 -4 6 -73 2 -162 l-7 -156 34 -50 c19 -27 55 -73 81
-101 25 -29 46 -55 46 -58 0 -7 34 -58 59 -89 20 -24 22 -47 5 -47 -8 0 -32
11 -54 25 -22 14 -64 36 -93 50 -28 13 -81 52 -117 86 -36 35 -56 56 -45 49
11 -8 37 -30 58 -49 20 -19 37 -30 37 -24 0 13 -88 93 -101 93 -5 0 -8 15 -8
33 2 30 2 30 6 4 2 -15 13 -32 24 -38 11 -6 45 -33 75 -59 29 -27 76 -61 104
-75 27 -14 50 -28 50 -31 0 -2 -9 0 -19 6 -11 5 -26 10 -33 10 -7 0 14 -15 47
-33 33 -18 62 -32 64 -31 2 2 -6 15 -18 30 -11 15 -21 32 -21 39 0 7 -7 18
-15 25 -17 14 -20 1 -5 -18 6 -8 5 -8 -4 0 -36 32 -146 174 -167 216 -13 26
-27 50 -32 53 -7 5 3 132 19 245 6 39 3 44 -54 111 -37 43 -94 92 -146 128
-50 33 -86 64 -86 74 1 14 2 14 11 -2 5 -9 42 -39 82 -66z m145 -92 c83 -89
79 -95 -4 -8 -37 37 -100 90 -140 116 -41 26 -74 51 -74 56 0 18 162 -104 218
-164z m2559 -42 c2 6 -5 34 -16 64 -11 29 -19 54 -17 56 8 8 47 -107 42 -124
-3 -11 9 -45 32 -85 63 -113 146 -247 150 -243 5 5 -38 83 -106 194 -29 46
-52 91 -52 98 0 22 19 53 33 53 38 -1 208 -213 290 -362 21 -37 42 -70 47 -73
5 -3 23 -30 40 -60 31 -54 31 -55 16 -102 -13 -43 -33 -135 -42 -203 -2 -14 7
7 20 45 13 39 33 93 44 121 11 29 18 61 15 73 -14 54 52 -12 117 -117 49 -80
48 -87 -94 -487 -26 -71 -72 -222 -102 -335 -126 -466 -136 -500 -150 -500 -8
0 -54 36 -103 80 -49 44 -95 80 -102 81 -11 0 -11 2 -1 6 13 5 71 -38 155
-116 37 -35 50 -42 57 -31 4 7 29 92 55 189 103 386 145 531 185 641 94 262
112 317 117 366 5 51 4 54 -57 143 -34 50 -63 91 -64 91 -2 0 -3 -13 -3 -29 0
-16 -9 -48 -20 -72 -42 -89 -99 -319 -113 -449 -7 -69 -7 -71 -9 -22 0 29 10
104 24 168 14 64 25 120 25 126 0 60 -60 -212 -63 -283 -1 -32 -5 -52 -9 -45
-10 15 0 89 27 211 46 203 67 291 77 335 15 64 13 73 -26 127 -19 26 -52 77
-73 113 -42 74 -74 120 -156 226 -76 98 -118 136 -134 122 -22 -18 -15 -35 61
-162 83 -136 139 -265 133 -305 -3 -22 -4 -20 -7 9 -2 25 -8 5 -20 -65 -10
-55 -30 -163 -44 -240 -14 -77 -25 -156 -25 -175 1 -19 9 18 20 82 10 64 25
145 34 179 9 35 20 91 25 124 6 47 8 52 9 22 0 -21 -10 -86 -23 -145 -14 -59
-32 -163 -41 -232 -9 -69 -20 -137 -24 -151 -5 -15 -5 -33 0 -40 16 -26 10
-59 -11 -59 -23 0 -36 37 -26 78 4 15 15 86 26 157 10 72 25 166 34 210 9 44
23 122 32 173 15 92 15 94 -7 150 -13 31 -41 86 -63 122 -115 191 -142 241
-168 309 -15 42 -28 81 -27 86 0 6 12 -21 27 -59 14 -38 27 -65 29 -59z
m-2777 49 c0 -10 -23 -15 -87 -19 -91 -6 -168 -29 -272 -81 -29 -15 -50 -23
-46 -17 12 20 -11 11 -76 -28 -35 -21 -64 -44 -64 -51 0 -7 -8 -14 -17 -16
-31 -4 -8 22 58 65 77 51 236 124 314 145 73 20 190 21 190 2z m2906 -38 c55
-42 167 -181 241 -301 23 -37 58 -87 78 -110 55 -66 122 -156 170 -230 38 -57
45 -75 45 -116 0 -53 -57 -264 -91 -340 -38 -83 -60 -154 -80 -260 -11 -57
-38 -176 -59 -263 l-38 -159 20 -82 c11 -45 40 -127 64 -182 42 -95 47 -102
92 -124 26 -13 54 -26 62 -30 8 -5 38 -13 65 -20 28 -6 97 -22 155 -35 262
-61 475 -96 590 -96 47 0 132 -4 190 -10 58 -5 202 -19 320 -31 364 -34 671
-111 855 -212 85 -46 319 -195 375 -238 19 -15 62 -41 96 -59 33 -17 66 -40
72 -51 10 -15 9 -17 -3 -13 -8 4 -15 10 -15 14 0 4 -31 24 -70 44 -38 20 -82
47 -97 59 -27 23 -122 85 -213 141 -25 15 -72 44 -105 65 -199 123 -493 202
-895 240 -118 12 -262 26 -320 31 -58 6 -143 10 -190 10 -115 0 -328 35 -590
96 -58 13 -127 29 -155 35 -85 20 -178 66 -193 97 -42 85 -74 171 -96 255
l-24 96 38 159 c21 87 48 206 59 263 21 108 47 193 82 267 32 70 89 279 89
329 0 51 -32 112 -104 198 -23 28 -57 70 -75 95 -17 25 -48 66 -69 92 -20 26
-46 64 -57 85 -20 38 -86 126 -159 212 -72 85 -132 113 -155 74 -9 -15 -10
-16 -11 -2 0 9 3 19 7 22 14 15 71 6 99 -15z m-2848 -25 c67 -12 102 -22 102
-30 0 -8 -11 -13 -27 -12 l-28 1 25 9 c19 6 14 7 -20 4 -25 -3 -81 -8 -125
-12 -76 -6 -78 -7 -40 -15 39 -8 95 -51 95 -72 0 -11 -109 -73 -121 -69 -4 1
-59 -25 -123 -57 -64 -33 -147 -69 -184 -80 -37 -12 -96 -32 -132 -45 -64 -23
-107 -35 -124 -34 -5 1 -13 -5 -18 -13 -17 -23 2 107 20 143 47 92 106 141
270 223 158 79 241 91 430 59z m181 -132 c-5 -24 -7 -53 -4 -65 5 -17 4 -18
-5 -6 -9 12 -11 8 -7 -20 2 -19 -1 -69 -8 -110 -11 -64 -13 -69 -15 -35 -2 32
-5 24 -15 -40 -7 -44 -13 -66 -14 -50 -1 37 22 178 43 265 9 36 18 76 21 89 4
13 8 22 10 19 2 -2 -1 -23 -6 -47z m1711 -196 c0 -8 -5 -15 -11 -15 -5 0 -8 4
-5 9 4 5 0 12 -6 14 -8 3 -6 6 5 6 9 1 17 -6 17 -14z m674 -439 c-21 -15 -30
-14 -19 3 3 6 14 11 23 11 13 0 13 -2 -4 -14z m-34 -45 c-13 -26 -13 -34 2
-25 7 4 8 3 4 -5 -4 -6 -11 -9 -16 -6 -5 3 -12 -4 -15 -16 -4 -11 -9 -18 -13
-15 -8 8 32 86 45 86 2 0 -1 -9 -7 -19z m-1670 -138 c16 -3 27 -9 24 -14 -3
-5 1 -9 8 -10 20 0 -109 -47 -177 -63 -70 -17 -231 -36 -304 -36 -127 0 -8 82
194 134 23 6 212 -2 255 -11z m-1442 -88 c16 -34 15 -45 -1 -45 -13 0 -37 40
-37 60 0 20 27 9 38 -15z m1624 0 c3 -14 1 -25 -3 -25 -5 0 -9 11 -9 25 0 14
2 25 4 25 2 0 6 -11 8 -25z m-389 -222 c-7 -2 -19 -2 -25 0 -7 3 -2 5 12 5 14
0 19 -2 13 -5z m205 -155 c34 -31 62 -52 64 -47 2 5 11 -4 21 -21 18 -29 18
-30 -2 -30 -12 0 -21 4 -21 9 0 5 -35 44 -77 86 -89 87 -76 90 15 3z m672
-126 c0 -5 -7 -9 -15 -9 -8 0 -12 4 -9 9 3 4 9 8 15 8 5 0 9 -4 9 -8z m-242
-9 c-10 -2 -28 -2 -40 0 -13 2 -5 4 17 4 22 1 32 -1 23 -4z m95 -10 c-7 -2
-21 -2 -30 0 -10 3 -4 5 12 5 17 0 24 -2 18 -5z m-1204 -142 c-6 -2 -18 4 -27
13 -15 15 -15 15 10 4 15 -7 23 -15 17 -17z m-45 -53 c3 -35 8 -160 11 -278 3
-118 12 -280 21 -360 21 -196 30 -640 14 -771 -15 -135 -69 -323 -87 -305 -3
3 -1 11 5 19 20 24 60 183 72 286 16 131 7 576 -14 771 -9 80 -19 253 -22 385
-4 132 -10 256 -15 275 -16 65 -1 -507 18 -690 13 -130 18 -257 18 -495 0
-366 -5 -398 -91 -568 -25 -49 -43 -91 -40 -94 2 -3 17 18 31 47 14 29 28 50
31 48 7 -8 -51 -108 -63 -108 -21 0 -15 23 32 111 84 163 90 197 90 564 0 238
-5 365 -18 495 -10 96 -21 300 -24 453 -5 247 -4 277 10 277 12 0 17 -15 21
-62z m251 -1 c38 -18 45 -25 32 -30 -12 -4 -16 -3 -11 4 4 7 0 9 -12 5 -11 -3
-39 1 -64 9 -51 15 -34 20 19 5 54 -15 49 -3 -5 14 -27 8 -40 15 -29 15 11 0
42 -10 70 -22z m75 -48 c0 -5 -4 -9 -8 -9 -5 0 -9 7 -9 15 0 8 4 12 9 9 4 -3
8 -9 8 -15z m2409 -96 c47 -42 95 -86 107 -97 23 -23 49 -39 144 -89 36 -19
88 -47 115 -62 86 -47 143 -65 345 -109 327 -73 424 -88 610 -96 360 -17 632
-47 855 -96 187 -41 185 -41 389 -133 86 -39 201 -109 381 -230 77 -52 160
-102 185 -112 50 -20 42 -25 -11 -8 -27 10 -278 168 -411 260 -15 11 -29 19
-32 19 -3 0 -27 13 -53 28 -26 16 -66 35 -88 44 -22 9 -67 28 -100 43 -33 14
-69 30 -80 35 -34 15 -335 78 -425 89 -157 20 -433 43 -610 51 -187 8 -285 24
-610 96 -217 48 -280 67 -360 113 -30 17 -82 45 -115 61 -101 51 -105 54 -299
232 -23 21 -37 38 -32 38 5 0 47 -34 95 -77z m-2048 9 c-7 -2 -18 1 -23 6 -8
8 -4 9 13 5 13 -4 18 -8 10 -11z m6649 -604 c0 -4 -7 -8 -15 -8 -8 0 -15 4
-15 8 0 5 7 9 15 9 8 0 15 -4 15 -9z m-5366 -382 c-3 -8 -18 -17 -32 -20 -31
-7 -162 -26 -178 -26 -6 0 -29 -16 -52 -35 -48 -41 -198 -95 -265 -95 -41 0
-160 39 -181 60 -6 6 -17 10 -25 10 -20 0 -94 20 -89 25 8 8 120 -25 180 -53
70 -33 155 -43 188 -22 10 6 -2 7 -38 3 -54 -6 -71 -1 -184 58 -20 10 -52 19
-70 20 -18 0 -42 4 -53 9 -12 5 1 6 35 3 47 -5 140 -38 202 -73 10 -6 31 -10
47 -10 36 0 164 43 194 64 77 56 95 64 182 75 49 7 92 14 94 17 2 2 15 4 27 4
16 0 22 -4 18 -14z m3791 -46 c77 -18 147 -36 155 -42 13 -8 13 -9 -1 -5 -76
23 -312 71 -384 77 l-90 9 90 -4 c55 -2 145 -15 230 -35z m-4717 -25 c2 -2
-162 -3 -365 -2 -202 1 -327 5 -278 8 84 6 636 0 643 -6z m75 8 c-13 -2 -33
-2 -45 0 -13 2 -3 4 22 4 25 0 35 -2 23 -4z m-1793 -310 c-1 -40 -47 -123
-108 -193 -30 -33 -62 -70 -73 -83 -10 -12 -18 -18 -19 -13 0 4 26 38 58 75
65 72 118 149 110 156 -3 3 -18 -14 -33 -37 -15 -24 -54 -72 -85 -108 -31 -36
-60 -72 -63 -80 -5 -13 -6 -13 -6 1 -1 9 17 37 39 62 28 31 38 51 34 64 -4 13
-3 14 4 5 18 -25 112 107 112 158 0 11 7 20 15 20 10 0 15 -10 15 -27z m5397
-1110 c-3 -10 -5 -2 -5 17 0 19 2 27 5 18 2 -10 2 -26 0 -35z m21 8 c-3 -40
-3 -40 42 -52 35 -9 220 -22 403 -28 9 -1 17 -8 17 -16 0 -10 -10 -15 -32 -14
l-33 1 30 7 c25 6 20 8 -34 14 -35 4 -106 7 -157 7 -75 0 -241 22 -249 32 -4
6 7 88 12 88 3 0 3 -18 1 -39z m-6080 -69 c2 -7 -5 -12 -15 -11 -12 0 -14 2
-4 6 11 5 11 7 0 15 -12 8 -12 9 0 6 8 -3 17 -10 19 -16z"/>
<path d="M1697 5013 c-3 -5 -1 -17 4 -28 7 -17 8 -17 8 8 1 27 -4 34 -12 20z"/>
<path d="M3205 3630 c-3 -5 -2 -10 4 -10 5 0 13 5 16 10 3 6 2 10 -4 10 -5 0
-13 -4 -16 -10z"/>
<path d="M2045 5734 c-143 -30 -268 -90 -354 -170 -34 -31 -61 -61 -61 -66 0
-5 30 17 67 50 119 109 204 140 396 146 126 5 145 9 126 32 -11 13 -122 18
-174 8z"/>
<path d="M2680 5091 c0 -19 149 -204 150 -185 0 5 -21 35 -46 65 -26 30 -58
71 -72 92 -25 38 -32 44 -32 28z"/>
<path d="M2725 4885 c38 -24 55 -30 55 -21 0 7 -71 46 -83 46 -7 0 6 -12 28
-25z"/>
<path d="M5367 5136 c7 -35 33 -88 32 -66 0 8 -9 33 -19 55 -16 33 -18 35 -13
11z"/>
<path d="M5308 4475 c-4 -27 -9 -63 -13 -80 -3 -16 -1 -37 4 -45 15 -23 24 -4
13 28 -6 18 -6 35 0 45 5 10 8 36 6 60 l-3 42 -7 -50z"/>
<path d="M2235 5543 c-75 -17 -252 -89 -242 -99 3 -3 27 6 54 19 85 43 176 70
258 77 l80 7 -65 0 c-36 1 -74 -1 -85 -4z"/>
<path d="M2175 5479 c-48 -11 -243 -109 -302 -151 -73 -53 -125 -131 -138
-208 -8 -48 1 -50 85 -19 30 10 92 30 137 44 45 14 140 54 210 90 70 36 132
65 137 65 6 0 35 12 64 27 l53 28 -35 32 c-24 22 -46 33 -66 33 -19 0 -30 5
-30 14 0 10 25 16 103 22 l102 7 -65 13 c-75 15 -197 16 -255 3z m110 -8 c-6
-6 -35 -12 -65 -15 l-55 -6 55 14 c73 18 76 18 65 7z m-130 -71 c-18 -8 -18
-9 -2 -9 15 -1 12 -6 -13 -28 -30 -25 -32 -30 -28 -80 3 -35 0 -57 -8 -63 -23
-20 -174 -70 -229 -76 -53 -7 -55 -6 -55 17 0 33 31 81 73 113 44 34 246 136
267 135 10 0 9 -3 -5 -9z m200 -10 c3 -6 -1 -7 -9 -4 -18 7 -21 14 -7 14 6 0
13 -4 16 -10z m-491 -110 c-29 -30 -30 -30 -31 -8 -2 16 0 19 6 9 7 -10 13 -7
27 12 11 14 21 23 23 21 3 -3 -8 -18 -25 -34z"/>
<path d="M2034 5342 c-109 -57 -159 -93 -185 -136 -31 -51 -26 -60 32 -52 52
7 98 22 180 58 l45 20 -4 54 c-4 47 -1 58 18 79 33 35 18 31 -86 -23z"/>
<path d="M2596 5218 c-3 -13 -5 -34 -5 -48 1 -15 5 -7 10 19 9 47 6 68 -5 29z"/>
<path d="M3020 4525 c-66 -18 -200 -82 -200 -96 0 -13 85 -11 215 6 157 20
307 67 274 85 -31 18 -231 21 -289 5z"/>
<path d="M1840 4453 c0 -5 7 -18 15 -29 13 -18 14 -18 8 4 -5 22 -23 41 -23
25z"/>
<path d="M3370 4001 c0 -5 5 -13 10 -16 6 -3 10 -2 10 4 0 5 -4 13 -10 16 -5
3 -10 2 -10 -4z"/>
<path d="M4509 2606 c-2 -3 -44 -10 -93 -16 -77 -11 -96 -18 -145 -51 -32 -22
-82 -48 -112 -59 -30 -10 -47 -19 -39 -20 30 0 116 37 165 73 44 31 63 37 140
47 83 11 146 29 104 30 -9 0 -18 -2 -20 -4z"/>
<path d="M1891 2240 c-1 -8 -4 -26 -7 -40 -5 -22 -4 -23 6 -7 6 10 9 28 7 40
-2 12 -5 15 -6 7z"/>
<path d="M3333 4113 c-7 -2 -13 -9 -13 -15 0 -7 5 -7 13 1 8 6 17 8 20 4 4 -3
7 -1 7 5 0 13 -7 14 -27 5z"/>
<path d="M2860 4104 c0 -9 143 -188 191 -239 21 -22 49 -60 62 -85 24 -47 96
-110 125 -110 9 0 -5 13 -31 30 -30 19 -47 37 -47 49 0 43 -190 289 -212 275
-6 -4 -8 -2 -5 3 4 6 -13 27 -38 48 -25 20 -45 33 -45 29z m185 -204 c10 -11
16 -20 13 -20 -3 0 -13 9 -23 20 -10 11 -16 20 -13 20 3 0 13 -9 23 -20z"/>
<path d="M12710 3288 c-72 -22 -312 -107 -375 -133 -22 -9 -49 -20 -60 -24
-62 -25 -295 -145 -295 -152 0 -8 86 -37 320 -109 224 -69 233 -73 300 -109
36 -19 93 -54 127 -78 35 -24 65 -43 68 -43 3 0 5 151 5 335 0 262 -3 335 -12
334 -7 -1 -42 -10 -78 -21z"/>
<path d="M3832 3084 c3 -3 28 -14 54 -25 42 -17 44 -19 14 -13 -19 3 -31 3
-27 -2 7 -8 137 -16 137 -8 0 2 -15 8 -32 13 -28 8 -23 9 27 5 57 -3 58 -3 20
7 -22 5 -54 7 -71 4 -17 -3 -50 2 -74 10 -46 16 -57 18 -48 9z"/>
<path d="M5504 1518 c63 -80 168 -241 205 -317 139 -285 220 -768 178 -1056
-8 -55 -18 -110 -22 -122 -5 -14 -3 -23 3 -23 13 0 26 47 43 153 17 108 6 380
-21 527 -24 136 -71 309 -107 399 -27 68 -28 71 -63 141 -48 93 -215 330 -233
330 -5 0 2 -15 17 -32z"/>
<path d="M6401 1348 c13 -18 53 -69 89 -113 106 -128 251 -323 302 -409 27
-44 48 -73 48 -65 0 35 -171 276 -387 546 -59 73 -93 100 -52 41z"/>
<path d="M1536 1291 c-10 -10 -14 -21 -9 -24 4 -3 16 6 26 19 21 28 8 32 -17
5z"/>
<path d="M2476 983 c-73 -302 -73 -578 1 -875 24 -101 28 -108 51 -108 19 0
23 4 17 17 -18 47 -57 222 -70 314 -26 185 -18 510 16 662 6 26 9 50 6 53 -2
3 -12 -26 -21 -63z"/>
<path d="M7326 958 c3 -40 9 -76 11 -81 2 -4 44 -26 91 -48 200 -92 196 -87
189 -214 -3 -55 -11 -124 -17 -153 -11 -47 -10 -58 9 -97 12 -25 21 -47 21
-50 0 -2 11 -28 23 -57 13 -29 34 -80 47 -113 13 -33 27 -64 30 -70 4 -5 11
-25 15 -42 l7 -33 1139 0 c626 0 1139 2 1139 5 0 3 -27 18 -61 35 -33 17 -93
52 -132 78 -40 25 -81 51 -92 58 -11 6 -85 54 -165 106 -218 143 -346 201
-610 277 -281 80 -376 109 -475 146 -55 20 -129 46 -164 57 -36 11 -104 35
-153 54 -48 18 -154 49 -234 69 -107 26 -159 44 -190 66 -24 16 -44 34 -44 39
0 6 -50 10 -117 10 -65 0 -149 7 -188 15 -38 8 -74 15 -78 15 -5 0 -5 -33 -1
-72z"/>
<path d="M6756 852 c-4 -6 -1 -24 7 -38 9 -17 17 -23 21 -16 4 6 1 24 -7 38
-9 17 -17 23 -21 16z"/>
<path d="M6802 735 c-1 -5 8 -41 18 -80 10 -38 19 -59 19 -45 0 24 -36 146
-37 125z"/>
<path d="M6862 90 c-7 -33 -15 -69 -18 -78 -5 -14 -4 -15 5 -2 12 18 34 116
29 131 -2 6 -9 -17 -16 -51z"/>
</g>
</svg>
