<?xml version="1.0" standalone="no"?>
<!DOCTYPE svg PUBLIC "-//W3C//DTD SVG 20010904//EN"
 "http://www.w3.org/TR/2001/REC-SVG-20010904/DTD/svg10.dtd">
<svg version="1.0" xmlns="http://www.w3.org/2000/svg"
 width="1280.000000pt" height="720.000000pt" viewBox="0 0 1280.000000 720.000000"
 preserveAspectRatio="xMidYMid meet">
<metadata>
Created by potrace 1.16, written by Peter Selinger 2001-2019
</metadata>
<g transform="translate(0.000000,720.000000) scale(0.100000,-0.100000)"
fill="#000000" stroke="none">
<path d="M1 3663 c0 -2585 3 -3531 11 -3513 12 27 17 38 73 180 34 86 53 127
130 295 13 28 33 75 45 105 12 30 32 77 44 105 13 27 38 84 56 125 l33 74 -7
151 c-8 184 -4 196 104 270 113 78 108 68 131 324 10 123 24 242 30 265 23 88
97 176 147 176 11 0 41 11 65 23 31 17 76 27 153 36 166 19 358 48 464 70 52
11 143 25 201 30 58 6 114 13 125 16 17 6 17 5 2 -5 -10 -6 -68 -15 -130 -21
-62 -6 -151 -19 -198 -29 -80 -18 -237 -42 -483 -74 -68 -9 -115 -20 -126 -30
-9 -9 -33 -19 -52 -22 -46 -9 -83 -37 -118 -88 -41 -59 -49 -96 -70 -342 -11
-121 -24 -231 -29 -245 -11 -27 -58 -68 -124 -108 -21 -12 -48 -37 -60 -54
-22 -30 -23 -41 -23 -207 0 -160 -2 -178 -22 -215 -22 -42 -133 -291 -133
-300 0 -3 -27 -65 -61 -138 -78 -171 -70 -152 -129 -302 -32 -83 -50 -144 -50
-172 l0 -43 574 0 574 0 6 38 c15 95 38 309 46 432 5 74 13 164 18 200 10 71
91 315 123 368 10 18 19 35 19 36 0 2 -21 6 -47 9 -63 8 -173 53 -147 60 16 4
15 5 -3 6 -27 1 -29 -15 -5 -42 12 -15 13 -19 3 -15 -22 6 -35 33 -27 53 5 14
13 16 44 10 99 -20 212 -30 212 -20 0 23 -98 196 -132 233 -70 77 -126 232
-83 232 8 0 15 -5 15 -11 0 -26 67 -141 112 -195 44 -51 134 -211 125 -221 -6
-5 -33 38 -42 67 -11 36 -52 98 -98 150 -22 25 -57 81 -78 125 -29 61 -39 73
-39 53 0 -40 47 -132 95 -186 43 -47 135 -217 135 -248 0 -17 -27 -17 -180 0
-42 5 -43 4 -15 -6 17 -6 35 -15 41 -19 6 -5 33 -12 60 -15 69 -9 79 -20 51
-54 -30 -35 -117 -285 -129 -370 -5 -36 -13 -126 -18 -200 -5 -74 -18 -209
-29 -300 -11 -90 -18 -166 -16 -169 11 -11 17 14 30 135 13 119 14 122 9 34
-3 -52 -7 -112 -11 -132 -5 -37 -5 -38 26 -38 17 0 31 2 31 5 0 2 -6 51 -14
107 -23 164 -26 194 -15 177 5 -7 9 -36 9 -64 1 -47 1 -49 14 -26 10 18 11 33
4 60 -6 21 -8 117 -5 231 4 190 5 197 40 300 59 175 92 247 151 328 25 34 46
65 46 69 0 3 11 21 25 39 14 18 21 35 17 38 -5 3 -25 -18 -45 -47 -20 -29 -37
-46 -37 -39 0 30 96 142 122 142 26 0 22 -17 -13 -62 -122 -153 -198 -294
-261 -483 l-33 -100 0 -210 c0 -200 1 -212 23 -257 13 -27 22 -53 20 -59 -2
-7 -10 8 -17 32 -24 78 -31 21 -10 -81 10 -52 19 -96 19 -97 0 -7 1200 -2
1200 5 0 4 -11 51 -25 105 -75 295 -71 599 10 903 27 100 53 169 61 161 3 -3
-1 -18 -9 -34 -8 -15 -18 -44 -21 -63 -4 -21 6 -4 24 40 30 75 38 109 20 80
-5 -8 -10 -10 -10 -5 0 6 5 17 10 25 9 13 10 13 10 0 0 -13 1 -13 10 0 17 26
11 4 -24 -87 -60 -158 -76 -270 -76 -521 0 -223 18 -359 72 -544 l19 -68 1644
0 c1577 0 1645 1 1645 18 0 10 4 22 9 28 11 12 31 186 31 276 0 269 -73 614
-178 841 -46 100 -183 317 -222 352 -23 21 -26 45 -6 45 23 0 83 -76 198 -249
84 -126 173 -385 218 -631 30 -165 38 -425 16 -553 -9 -53 -19 -103 -22 -112
-6 -13 44 -15 465 -15 l470 0 10 38 c39 143 39 260 0 473 -32 179 -61 265
-127 372 -13 22 -21 41 -19 44 3 2 16 -14 30 -37 14 -23 27 -37 31 -32 3 6
-11 32 -31 59 -20 26 -79 104 -131 173 -52 69 -109 141 -127 160 -48 51 -105
130 -105 143 0 7 4 6 10 -3 8 -13 10 -12 10 3 0 12 17 -3 48 -42 26 -33 72
-90 102 -127 203 -248 342 -461 339 -520 0 -12 -5 -7 -15 16 l-14 35 5 -35 c5
-34 5 -33 -13 10 -10 25 -24 44 -30 43 -7 -2 -9 4 -5 15 5 13 3 14 -7 6 -7 -7
-9 -21 -5 -34 5 -17 9 -19 15 -10 5 9 15 -9 28 -51 20 -65 40 -179 23 -129 -7
21 -9 21 -9 5 -1 -11 3 -38 7 -60 l9 -40 2 35 c2 29 4 24 15 -30 8 -36 13 -85
13 -110 0 -34 -3 -26 -9 29 -5 41 -12 77 -15 80 -4 3 -4 -14 -1 -39 4 -25 10
-101 14 -170 l8 -125 6 90 5 90 2 -77 c2 -68 -15 -182 -33 -230 -7 -17 18 -18
434 -18 472 0 455 -2 428 50 -7 14 -21 48 -31 75 -10 28 -41 103 -68 167 -49
115 -50 118 -39 170 7 29 15 95 18 146 7 113 3 119 -125 181 -48 23 -103 50
-122 59 -35 17 -35 18 -43 101 -5 45 -6 85 -3 88 3 3 41 -2 86 -11 46 -9 129
-16 195 -16 64 0 116 -4 120 -10 3 -5 26 -24 51 -41 34 -23 85 -41 197 -69 84
-22 177 -48 207 -60 30 -12 91 -33 135 -47 44 -14 89 -29 100 -34 57 -25 242
-88 325 -112 52 -15 136 -38 185 -53 50 -14 126 -36 170 -49 77 -22 238 -86
320 -127 22 -12 110 -67 196 -124 86 -57 159 -104 163 -104 3 0 27 -15 53 -34
27 -19 95 -59 152 -90 98 -54 107 -57 165 -54 l61 3 -85 43 c-122 63 -227 120
-292 158 -32 19 -86 51 -120 71 -35 20 -89 54 -121 74 -31 21 -101 61 -155 88
-94 47 -114 57 -214 99 -25 11 -129 43 -230 72 -298 83 -317 89 -458 140 -74
27 -157 55 -185 63 -27 8 -88 29 -135 46 -105 39 -299 91 -340 91 -32 0 -136
47 -127 57 3 3 27 -6 53 -21 25 -14 59 -26 75 -26 48 0 212 -47 454 -129 127
-43 247 -85 267 -94 20 -9 88 -30 150 -47 261 -73 462 -132 496 -147 123 -54
330 -161 410 -213 51 -34 117 -74 145 -89 29 -15 85 -47 126 -70 40 -23 129
-71 198 -107 l125 -64 1284 0 1284 0 0 1284 0 1284 -28 11 c-16 7 -81 40 -144
75 -129 70 -146 76 -338 136 -74 23 -200 63 -280 90 -371 125 -525 153 -931
170 -259 11 -331 8 -698 -30 -264 -28 -411 -54 -656 -116 -108 -28 -338 -115
-470 -179 -155 -75 -305 -145 -310 -145 -3 0 -28 -11 -57 -24 -29 -13 -77 -32
-107 -42 -32 -11 -56 -26 -59 -36 -5 -22 -18 -22 -147 -3 -121 17 -281 51
-338 71 -23 9 -80 19 -127 23 -81 8 -82 8 -25 10 33 0 85 -6 115 -14 116 -32
272 -66 372 -80 128 -18 138 -18 138 -1 0 7 26 24 58 36 155 61 466 201 515
233 43 28 324 130 442 161 235 60 391 88 656 116 367 38 439 41 698 30 405
-17 557 -45 931 -170 80 -26 206 -67 280 -89 213 -66 239 -77 445 -191 57 -31
65 -32 65 -5 0 14 -5 25 -10 25 -6 0 -38 19 -73 43 -129 90 -187 116 -387 177
-58 17 -116 35 -130 40 -14 5 -71 23 -127 41 -107 34 -126 52 -80 75 12 6 72
36 132 67 61 30 139 66 175 80 116 45 343 124 423 147 51 15 77 28 77 38 0 8
-6 12 -12 9 -7 -2 -56 -17 -108 -32 -249 -73 -553 -201 -712 -302 -21 -12 -43
-23 -49 -23 -6 0 -67 16 -136 35 -234 66 -348 81 -722 94 -190 6 -294 5 -415
-5 -188 -15 -358 -32 -401 -39 -16 -3 -50 -7 -75 -9 -86 -9 -392 -80 -492
-115 -124 -43 -321 -121 -356 -140 -20 -12 -75 -39 -122 -62 -47 -22 -152 -73
-235 -114 -293 -143 -278 -137 -353 -130 -37 4 -74 12 -82 17 -12 7 -11 8 5 4
11 -2 48 -8 82 -11 52 -6 68 -4 95 13 18 11 69 35 113 53 44 18 94 41 110 50
17 10 50 28 75 40 338 165 411 199 420 199 6 0 56 18 113 41 128 51 158 61
337 105 169 41 228 53 290 60 25 2 59 6 75 9 43 7 213 24 401 39 121 10 225
11 415 5 375 -13 488 -28 725 -94 88 -25 134 -34 144 -27 22 13 153 84 235
126 79 40 357 145 485 182 47 14 100 29 118 35 l32 11 0 1919 0 1919 -4080 0
-4081 0 25 -42 c13 -24 36 -72 51 -108 15 -36 37 -87 50 -115 13 -27 28 -70
35 -95 6 -25 38 -108 70 -185 58 -137 108 -301 129 -420 11 -62 45 -363 57
-497 6 -67 9 -78 25 -78 28 0 23 -15 -13 -44 -57 -45 -66 -57 -73 -92 -15 -84
29 -301 109 -532 37 -107 42 -127 27 -118 -9 6 -15 -7 -56 -108 -15 -37 -43
-95 -62 -129 -20 -34 -41 -71 -47 -82 -6 -11 -25 -40 -41 -63 -24 -37 -27 -47
-17 -63 21 -32 -4 -51 -38 -29 -12 8 -14 55 -11 320 l3 311 -80 98 c-73 89
-149 200 -180 261 -7 14 -33 52 -57 85 -24 33 -56 82 -70 108 -14 26 -33 51
-41 54 -23 9 -61 -16 -75 -48 -14 -35 -8 -201 8 -221 6 -7 21 -44 33 -83 31
-96 53 -138 117 -222 l55 -71 -7 -134 c-6 -130 -31 -308 -61 -438 -36 -156
-28 -142 -149 -253 -134 -122 -211 -187 -222 -187 -4 -1 -26 -9 -48 -20 -22
-11 -46 -19 -54 -20 -8 0 -22 -7 -31 -15 -28 -26 -245 -35 -325 -14 -54 15
-267 98 -283 111 -9 8 -12 5 -10 -13 2 -13 8 -27 13 -31 6 -4 2 -8 -7 -8 -10
0 -18 4 -18 9 0 5 -35 44 -77 85 -43 42 -75 76 -70 76 11 0 130 -111 143 -134
11 -18 12 -17 10 9 -3 38 -26 86 -38 79 -4 -3 -5 -11 -2 -17 4 -7 -13 7 -37
29 -41 38 -105 71 -117 59 -3 -3 -10 -1 -16 4 -22 17 -158 43 -194 37 -25 -4
-32 -2 -22 4 8 5 28 10 44 10 27 0 134 -24 166 -37 8 -3 20 -5 26 -4 18 2 98
-34 112 -52 8 -9 20 -13 28 -10 12 4 10 8 -7 17 -26 13 -37 36 -17 36 25 0
174 162 197 214 27 62 27 70 -5 95 -68 54 -145 80 -266 92 -106 10 -123 9
-197 -9 -132 -34 -205 -72 -293 -152 -43 -39 -78 -78 -78 -86 0 -46 61 -124
133 -170 40 -26 57 -24 57 6 0 10 19 35 42 54 42 37 69 42 118 26 18 -7 12 -8
-20 -4 -41 5 -49 2 -86 -30 -60 -52 -61 -67 -2 -111 101 -78 268 -288 268
-338 0 -15 14 -31 44 -49 24 -16 48 -28 54 -28 6 0 35 -21 63 -46 28 -25 80
-68 115 -95 45 -36 66 -60 75 -87 6 -20 41 -79 78 -130 59 -83 75 -99 148
-143 103 -62 186 -93 293 -109 47 -6 95 -16 108 -21 13 -5 50 -9 83 -9 44 0
60 -3 57 -12 -3 -7 -15 -14 -27 -16 -19 -3 -13 -9 32 -31 54 -27 94 -61 344
-294 64 -59 155 -135 203 -167 48 -33 122 -92 166 -131 153 -137 189 -168 235
-201 26 -18 67 -49 91 -68 173 -135 298 -224 449 -322 96 -61 188 -121 204
-133 17 -13 75 -46 130 -74 55 -29 121 -64 146 -79 142 -83 249 -136 374 -186
77 -30 180 -71 229 -91 103 -42 212 -70 307 -80 54 -5 73 -12 100 -36 18 -16
27 -29 21 -29 -7 0 -22 11 -33 24 -17 20 -35 26 -88 31 -120 13 -252 50 -386
110 -48 22 -103 44 -210 84 -111 43 -189 82 -350 178 -11 7 -65 35 -120 64
-55 28 -113 61 -130 74 -16 12 -108 72 -204 133 -170 110 -315 216 -476 347
-44 35 -84 65 -88 65 -8 0 -67 50 -215 182 -41 38 -114 95 -162 128 -48 32
-139 108 -203 167 -247 230 -298 274 -353 299 -57 26 -60 38 -14 47 14 2 0 5
-31 6 -31 0 -70 6 -88 12 -20 7 -49 8 -79 3 l-47 -8 40 -7 c27 -5 13 -7 -45
-4 -66 2 -79 1 -60 -8 14 -5 75 -11 136 -11 l111 -2 72 -43 c73 -43 177 -132
362 -311 54 -52 132 -117 172 -145 86 -59 197 -147 197 -157 0 -8 173 -146
211 -168 14 -8 53 -37 88 -65 l63 -49 -3 -51 c-5 -74 11 -226 26 -260 16 -36
39 -124 34 -130 -2 -2 -65 1 -139 7 -114 10 -159 9 -290 -6 -152 -17 -314 -47
-348 -65 -9 -5 -78 -31 -152 -57 -167 -59 -416 -189 -464 -243 -11 -11 -25
-21 -33 -21 -29 0 -7 283 30 372 9 20 13 47 11 60 -5 21 -4 21 6 5 9 -14 8
-27 -5 -60 -24 -58 -45 -197 -45 -291 l0 -80 33 30 c17 17 48 40 67 52 71 41
256 139 275 144 35 10 249 88 270 98 38 19 201 49 355 66 129 15 177 16 285 7
72 -6 132 -9 134 -7 2 2 -6 32 -18 66 -26 72 -42 181 -42 285 l0 72 -74 60
c-40 34 -78 61 -83 61 -12 0 -160 114 -192 149 -38 40 -127 113 -200 161 -36
24 -113 89 -171 144 -205 195 -297 274 -369 317 -72 43 -73 43 -179 45 -117 2
-164 14 -280 70 -60 30 -92 56 -175 141 -55 57 -103 109 -105 116 -2 7 -11 22
-20 33 l-17 21 -27 -21 c-24 -19 -26 -25 -17 -51 16 -51 49 -197 56 -251 5
-42 2 -60 -20 -106 -33 -69 -124 -157 -202 -196 -33 -15 -98 -53 -146 -84 -48
-30 -125 -72 -172 -94 -47 -21 -86 -42 -86 -46 0 -5 73 -8 163 -9 89 0 227 -4
307 -8 108 -7 167 -5 235 5 49 7 104 13 120 13 17 -1 -24 -9 -90 -19 -98 -14
-148 -16 -270 -9 -82 4 -228 9 -324 10 -146 2 -175 0 -182 -13 -14 -25 -28
-247 -35 -558 -4 -204 -10 -301 -18 -315 -18 -28 -78 -197 -72 -202 2 -3 19 3
36 12 65 34 125 45 243 45 289 0 615 -71 890 -194 l57 -26 0 69 c0 38 6 102
14 143 15 79 67 229 73 211 2 -6 -8 -39 -22 -74 -34 -79 -55 -190 -55 -284 0
-67 -10 -99 -24 -77 -4 7 -158 75 -231 102 -51 19 -170 51 -275 74 -147 32
-278 46 -430 46 -112 0 -128 -2 -198 -30 -74 -30 -115 -33 -94 -7 5 6 15 30
22 52 6 22 18 54 26 72 8 17 14 36 14 42 0 7 6 22 14 34 10 17 15 91 20 312 7
311 21 520 36 560 5 14 16 25 24 25 8 0 16 3 18 8 2 4 44 27 93 50 50 24 124
65 165 91 41 26 104 62 140 80 80 40 172 129 207 198 21 44 24 61 19 100 -10
67 -46 224 -57 245 -15 29 -10 43 21 66 38 29 42 28 64 -10 27 -48 67 -88 80
-81 6 3 8 3 4 -2 -18 -20 182 -204 222 -205 13 0 13 1 0 10 -13 9 -13 10 0 10
8 0 -15 17 -53 37 -37 20 -66 37 -65 39 2 1 44 -17 93 -42 50 -24 106 -46 125
-49 30 -5 28 -3 -15 13 -142 53 -241 118 -293 191 -31 45 -47 59 -60 55 -13
-5 -14 -4 -3 4 11 8 10 15 -8 40 -11 17 -24 44 -27 62 -5 24 -28 48 -98 104
-50 41 -101 86 -113 100 -13 14 -31 26 -40 26 -14 -1 -12 -4 7 -15 48 -27 5
-15 -60 18 -43 21 -71 43 -85 65 -25 42 -60 87 -160 208 -97 117 -116 145
-110 162 2 7 -4 12 -16 12 -22 0 -81 36 -123 76 -31 30 -65 97 -66 131 0 27
127 146 190 178 52 26 186 70 246 79 58 10 247 -11 307 -35 71 -27 131 -70
135 -97 7 -44 -46 -134 -126 -214 -42 -43 -83 -78 -92 -79 -8 0 -3 -6 11 -12
15 -7 51 -37 80 -68 47 -48 65 -59 139 -83 60 -20 125 -32 223 -41 l138 -13
87 45 c48 24 95 54 105 66 30 36 135 258 167 351 44 132 53 216 47 473 -2 125
-8 238 -12 250 -7 22 -12 23 -109 22 -202 -1 -610 110 -879 239 -79 38 -183
96 -231 128 -164 111 -170 113 -122 47 48 -67 209 -222 281 -270 187 -125 404
-199 664 -224 105 -10 162 -9 301 5 33 4 28 1 -20 -9 l-65 -14 60 4 c109 7 11
-14 -121 -25 -121 -11 -263 -3 -374 21 -134 30 -336 115 -457 193 -104 67
-278 238 -333 327 -25 40 -87 115 -140 168 -185 185 -253 275 -374 493 -38 68
-118 269 -131 327 -3 17 -8 31 -10 31 -1 0 -21 -19 -44 -41 -45 -46 -29 -44
-177 -23 -45 7 -48 4 -117 -126 -49 -92 -48 -92 -182 -95 -82 -2 -121 -7 -130
-16 -14 -14 -50 -159 -81 -324 -17 -94 -16 -200 5 -285 6 -25 20 -94 32 -155
25 -136 78 -300 134 -419 23 -50 45 -112 48 -137 26 -200 238 -611 426 -823
64 -73 201 -187 274 -230 24 -15 115 -50 203 -80 185 -63 246 -88 294 -121 73
-51 290 -109 306 -83 5 8 1 9 -12 4 -15 -6 -16 -5 -7 5 9 9 16 9 25 2 7 -6 24
-13 38 -16 18 -3 15 -5 -13 -6 -34 -1 -37 -3 -27 -20 5 -11 20 -22 32 -24 23
-4 23 -4 -1 -6 -14 0 -33 9 -47 24 -15 16 -34 25 -53 25 -43 0 -218 62 -264
93 -41 27 -154 73 -342 138 -127 43 -178 72 -289 163 -156 127 -308 339 -432
601 -49 103 -114 286 -114 320 0 9 -6 18 -14 21 -19 7 -31 55 -16 64 8 5 2 25
-19 67 -57 109 -117 304 -153 493 -10 58 -23 125 -28 150 -14 69 -12 151 6
242 31 162 67 310 80 323 16 15 148 29 196 20 44 -8 74 16 115 95 76 143 70
140 191 118 l64 -12 40 43 c22 23 45 40 50 39 6 -2 21 -33 33 -68 65 -185 80
-220 150 -340 20 -36 46 -81 57 -100 45 -79 219 -283 309 -363 35 -30 77 -81
101 -122 53 -89 246 -283 346 -348 257 -166 557 -246 817 -218 l80 8 -75 2
c-317 6 -610 90 -825 234 -119 80 -340 316 -317 339 10 10 60 -17 184 -101 77
-52 228 -130 363 -189 107 -46 242 -86 445 -132 157 -35 201 -41 291 -41 l107
1 7 -28 c4 -15 9 -130 12 -255 7 -291 -5 -375 -77 -557 -32 -81 -116 -252
-137 -277 -10 -12 -58 -42 -107 -67 l-88 -45 -142 14 c-200 19 -314 56 -373
123 -40 45 -44 30 -5 -16 28 -33 106 -71 248 -117 71 -24 151 -30 268 -21 53
4 73 10 159 52 16 8 35 14 42 14 16 0 96 66 242 199 87 79 115 111 123 140 44
165 77 374 85 534 l6 129 -54 71 c-64 85 -76 107 -112 212 -15 44 -32 86 -38
93 -16 20 -22 206 -7 241 12 31 56 55 86 49 10 -2 32 -26 49 -55 16 -28 48
-77 70 -108 22 -32 47 -69 55 -84 57 -98 101 -162 166 -242 41 -51 80 -101 85
-112 7 -12 10 -124 8 -324 -3 -260 -1 -305 11 -313 23 -15 34 -12 20 5 -16 19
-5 61 26 102 13 17 24 35 24 38 0 4 8 19 18 33 33 47 87 154 117 230 15 39 32
72 36 72 8 0 -5 46 -45 155 -62 174 -104 396 -90 479 7 45 24 76 40 76 18 0
50 40 38 48 -6 4 -14 43 -18 87 -11 133 -46 436 -57 500 -14 78 -66 269 -86
315 -8 19 -19 44 -23 55 -24 55 -53 123 -65 150 -7 17 -16 46 -20 65 -4 19
-19 62 -35 95 -15 33 -33 76 -40 95 -7 19 -31 70 -53 113 l-41 77 -1388 0
-1388 0 -78 -75 c-42 -41 -84 -75 -92 -75 -63 0 -348 -429 -409 -612 -68 -205
-39 -616 63 -916 34 -98 45 -162 56 -317 9 -116 32 -362 44 -470 8 -66 25
-449 36 -815 23 -725 40 -879 129 -1135 42 -119 79 -184 186 -327 19 -27 31
-48 26 -48 -16 0 -130 163 -165 235 -57 118 -122 328 -136 440 -26 202 -45
553 -55 975 -5 230 -21 560 -31 670 -3 30 -12 120 -20 200 -8 80 -19 204 -24
275 -11 154 -23 220 -55 312 -37 107 -63 218 -79 343 -33 258 -29 442 15 580
61 195 344 619 413 620 6 0 44 32 84 70 l72 70 -915 0 -915 0 1 -3537z m2220
2077 c20 -11 25 -35 9 -45 -6 -3 -65 -8 -132 -11 -187 -6 -251 -28 -373 -128
-27 -22 -56 -49 -63 -58 -16 -22 -42 -24 -42 -4 0 8 23 39 51 70 70 77 214
146 374 180 41 8 157 6 176 -4z m247 -113 c78 -52 188 -163 198 -201 3 -14 1
-54 -4 -89 -19 -107 -24 -187 -12 -187 5 0 10 -9 10 -19 0 -11 3 -22 8 -24 4
-3 7 73 7 168 0 99 4 171 9 168 5 -4 6 -73 2 -162 l-7 -156 34 -50 c19 -27 55
-73 81 -101 25 -29 46 -55 46 -58 0 -7 34 -58 59 -89 20 -24 22 -47 5 -47 -8
0 -32 11 -54 25 -22 14 -64 36 -93 49 -28 14 -81 53 -117 87 -36 34 -51 52
-35 41 17 -11 44 -34 60 -52 31 -32 103 -75 112 -66 3 2 -10 12 -29 22 -18 9
-59 41 -91 70 -32 30 -62 54 -68 54 -5 0 -8 15 -8 33 2 29 2 30 6 5 3 -17 16
-35 36 -47 18 -11 48 -36 67 -56 19 -20 61 -50 93 -66 31 -16 57 -32 57 -34 0
-3 -9 -1 -19 5 -11 5 -26 10 -33 10 -7 0 14 -15 47 -33 33 -18 62 -32 64 -31
2 2 -6 15 -18 30 -11 15 -21 32 -21 39 0 7 -7 18 -15 25 -17 14 -20 1 -5 -18
6 -8 5 -8 -4 0 -36 32 -146 174 -167 216 -13 26 -27 50 -32 53 -7 5 3 132 19
245 6 39 3 44 -54 111 -39 45 -92 91 -146 127 -53 34 -86 63 -86 73 0 14 3 14
15 -5 9 -12 46 -41 83 -65z m145 -93 c31 -33 57 -63 57 -67 0 -3 -28 24 -62
60 -35 36 -93 85 -129 109 -36 23 -71 50 -79 59 -34 41 162 -107 213 -161z
m2532 28 c-3 14 -8 34 -12 45 -3 10 -3 15 1 12 13 -12 46 -114 41 -129 -2 -8
12 -45 33 -82 63 -113 146 -247 150 -243 5 5 -38 83 -106 194 -29 46 -52 92
-52 102 0 17 25 49 38 49 32 -2 210 -226 271 -340 13 -25 48 -81 78 -125 30
-44 52 -86 49 -95 -19 -57 -59 -250 -53 -256 3 -3 8 10 12 28 4 18 22 72 40
120 19 48 31 95 28 107 -9 33 12 24 49 -21 64 -78 98 -142 98 -184 0 -22 -25
-111 -56 -199 -107 -310 -133 -393 -208 -675 -93 -351 -96 -360 -113 -360 -8
0 -35 19 -61 43 -26 24 -68 60 -95 82 -26 21 -45 40 -43 43 5 5 140 -103 170
-137 11 -11 22 -21 26 -21 11 0 24 40 65 195 87 332 140 517 178 625 101 286
127 368 127 403 0 31 -12 57 -61 128 -34 49 -62 89 -63 89 -2 0 -3 -13 -3 -29
0 -16 -9 -48 -20 -72 -42 -89 -99 -319 -113 -449 -7 -69 -7 -71 -9 -22 0 29
10 104 24 168 14 64 25 120 25 126 0 60 -60 -212 -63 -283 -1 -32 -5 -52 -9
-45 -14 20 15 182 68 381 13 50 24 102 24 116 0 15 6 44 14 66 16 45 16 45
-50 139 -23 33 -53 82 -68 109 -50 92 -175 259 -233 308 l-33 29 -11 -25 c-10
-22 -3 -37 64 -149 78 -127 138 -261 136 -301 -1 -17 -3 -15 -8 8 -6 24 -10
12 -20 -60 -7 -49 -17 -103 -22 -120 -13 -45 -49 -276 -48 -310 1 -16 9 23 20
87 10 64 25 145 35 180 9 35 19 92 24 128 6 55 8 58 9 22 0 -24 -10 -91 -23
-150 -14 -59 -32 -163 -41 -232 -9 -69 -20 -137 -24 -151 -5 -15 -5 -33 0 -40
16 -26 10 -59 -11 -59 -23 0 -36 37 -26 78 4 15 16 88 26 163 11 74 27 169 35
210 8 40 22 116 30 168 15 92 15 95 -7 150 -12 31 -40 85 -62 121 -134 222
-139 232 -176 330 -25 70 -25 89 1 30 11 -26 17 -34 14 -18z m-2755 -17 c0
-12 -14 -15 -63 -15 -82 0 -163 -21 -265 -70 -46 -22 -80 -35 -77 -30 12 19
-12 10 -76 -29 -35 -21 -64 -44 -64 -51 0 -7 -8 -14 -17 -16 -59 -8 70 82 213
149 138 65 170 73 282 76 53 1 67 -2 67 -14z m2904 -37 c54 -38 169 -180 240
-298 22 -36 57 -85 78 -110 55 -65 122 -155 173 -233 37 -55 45 -75 45 -114 0
-71 -38 -203 -124 -426 -14 -38 -37 -123 -51 -190 -13 -67 -39 -186 -58 -265
l-35 -143 20 -82 c11 -45 40 -127 64 -182 42 -95 47 -102 92 -124 26 -13 54
-26 62 -30 8 -5 38 -13 65 -20 28 -6 97 -22 155 -35 262 -61 475 -96 590 -96
47 0 132 -4 190 -10 58 -5 202 -19 320 -31 364 -34 671 -111 855 -212 85 -46
319 -195 375 -238 19 -15 62 -41 96 -59 33 -17 66 -40 72 -51 10 -15 9 -17 -3
-13 -8 4 -15 10 -15 14 0 4 -31 24 -70 44 -38 20 -82 47 -97 59 -27 23 -122
85 -213 141 -25 15 -72 44 -105 65 -199 123 -493 202 -895 240 -118 12 -262
26 -320 31 -58 6 -143 10 -190 10 -115 0 -328 35 -590 96 -58 13 -127 29 -155
35 -85 20 -178 66 -193 97 -42 85 -74 171 -96 255 l-24 95 35 144 c19 78 45
197 58 263 23 114 59 239 75 260 27 35 100 295 100 354 0 49 -33 111 -104 196
-23 28 -56 71 -73 96 -17 25 -39 51 -48 59 -17 14 -81 110 -93 139 -8 18 -86
120 -146 190 -72 85 -132 113 -155 74 -6 -10 -11 -13 -11 -7 -1 37 56 44 104
12z m-2846 -25 c67 -12 102 -22 102 -30 0 -8 -11 -13 -27 -12 l-28 1 25 9 c19
6 14 7 -20 4 -25 -3 -81 -8 -125 -12 -76 -6 -78 -7 -40 -15 39 -8 95 -51 95
-72 0 -11 -105 -70 -125 -71 -5 0 -71 -31 -146 -68 -74 -37 -140 -67 -146 -67
-6 0 -66 -18 -134 -41 -68 -22 -128 -41 -134 -42 -5 -1 -14 -6 -18 -12 -5 -5
-6 17 -2 51 10 101 60 179 158 243 78 50 262 138 302 144 70 10 167 6 263 -10z
m181 -132 c-5 -24 -7 -53 -4 -65 5 -17 4 -18 -5 -6 -9 12 -11 8 -7 -20 2 -19
-1 -69 -8 -110 -11 -64 -13 -69 -15 -35 -2 32 -5 24 -15 -40 -7 -44 -13 -66
-14 -50 -1 37 22 178 43 265 9 36 18 76 21 89 4 13 8 22 10 19 2 -2 -1 -23 -6
-47z m2389 -628 c-17 -4 -32 -34 -33 -65 0 -10 -4 -17 -9 -15 -5 1 -15 -11
-22 -28 -7 -16 -13 -25 -14 -19 0 7 6 25 13 40 29 67 48 94 65 93 16 -1 16 -2
0 -6z m-1708 -190 c16 -3 27 -9 24 -14 -3 -5 1 -9 8 -10 20 0 -109 -47 -177
-63 -74 -18 -220 -36 -297 -36 -50 0 -58 3 -58 18 0 29 112 82 245 116 23 6
212 -2 255 -11z m-1442 -88 c16 -34 15 -45 -1 -45 -13 0 -37 40 -37 60 0 20
27 9 38 -15z m1624 0 c3 -14 1 -25 -3 -25 -5 0 -9 11 -9 25 0 14 2 25 4 25 2
0 6 -11 8 -25z m-389 -222 c-7 -2 -19 -2 -25 0 -7 3 -2 5 12 5 14 0 19 -2 13
-5z m-213 -248 l25 -30 -33 29 c-17 17 -32 34 -32 40 0 6 3 6 8 1 4 -6 18 -23
32 -40z m1090 -33 c0 -5 -7 -9 -15 -9 -8 0 -12 4 -9 9 3 4 9 8 15 8 5 0 9 -4
9 -8z m-252 -9 c-10 -2 -26 -2 -35 0 -10 3 -2 5 17 5 19 0 27 -2 18 -5z m105
-10 c-7 -2 -21 -2 -30 0 -10 3 -4 5 12 5 17 0 24 -2 18 -5z m-1204 -142 c-6
-2 -18 4 -27 13 -15 15 -15 15 10 4 15 -7 23 -15 17 -17z m-45 -37 c3 -26 6
-106 6 -178 0 -150 14 -387 35 -593 17 -165 20 -540 5 -663 -16 -127 -70 -313
-87 -297 -3 4 -1 12 5 20 19 22 59 178 71 272 16 128 14 500 -4 668 -21 204
-35 439 -36 607 -1 80 -5 159 -10 175 -15 55 -1 -513 18 -695 13 -130 18 -258
18 -495 0 -366 -5 -398 -91 -568 -25 -49 -43 -91 -40 -94 2 -3 17 18 31 47 14
29 28 50 31 48 7 -8 -51 -108 -63 -108 -21 0 -15 23 32 111 84 163 90 197 90
564 0 237 -5 365 -18 495 -10 96 -21 300 -24 453 -5 243 -4 277 9 277 11 0 17
-14 22 -46z m251 -17 c38 -18 45 -25 32 -30 -12 -4 -16 -3 -11 4 4 7 0 9 -12
5 -11 -3 -39 1 -64 9 -51 15 -34 20 19 5 54 -15 49 -3 -5 14 -27 8 -40 15 -29
15 11 0 42 -10 70 -22z m75 -48 c0 -5 -4 -9 -8 -9 -5 0 -9 7 -9 15 0 8 4 12 9
9 4 -3 8 -9 8 -15z m2482 -161 c61 -58 80 -70 178 -121 36 -19 88 -47 115 -62
86 -47 143 -65 345 -109 327 -73 424 -88 610 -96 360 -17 632 -47 855 -96 187
-41 185 -41 389 -133 86 -39 201 -109 381 -230 77 -52 160 -102 185 -112 50
-20 42 -25 -11 -8 -27 10 -278 168 -411 260 -15 11 -29 19 -32 19 -3 0 -27 13
-53 28 -26 16 -66 35 -88 44 -22 9 -67 28 -100 43 -33 14 -69 30 -80 35 -34
15 -335 78 -425 89 -157 20 -433 43 -610 51 -187 8 -285 24 -610 96 -217 48
-280 67 -360 113 -30 17 -82 45 -115 61 -100 51 -136 78 -299 234 -38 36 -37
35 19 -8 33 -25 86 -70 117 -98z m-2121 74 c-7 -2 -18 1 -23 6 -8 8 -4 9 13 5
13 -4 18 -8 10 -11z m6644 -602 c3 -5 1 -10 -4 -10 -6 0 -11 5 -11 10 0 6 2
10 4 10 3 0 8 -4 11 -10z m-5361 -384 c-3 -8 -18 -17 -32 -20 -31 -7 -162 -26
-178 -26 -6 0 -29 -16 -52 -35 -48 -41 -198 -95 -265 -95 -41 0 -160 39 -181
60 -6 6 -17 10 -25 10 -20 0 -94 20 -89 25 8 8 120 -25 180 -53 70 -33 155
-43 188 -22 10 6 -2 7 -38 3 -54 -6 -71 -1 -184 58 -20 10 -52 19 -70 20 -18
0 -42 4 -53 9 -12 5 1 6 35 3 47 -5 140 -38 202 -73 10 -6 31 -10 47 -10 36 0
164 43 194 64 77 56 95 64 182 75 49 7 92 14 94 17 2 2 15 4 27 4 16 0 22 -4
18 -14z m3791 -46 c77 -18 147 -36 155 -42 13 -8 13 -9 -1 -5 -76 23 -312 71
-384 77 l-90 9 90 -4 c55 -2 145 -15 230 -35z m-4717 -25 c2 -2 -162 -3 -365
-2 -202 1 -327 5 -278 8 84 6 636 0 643 -6z m75 8 c-13 -2 -33 -2 -45 0 -13 2
-3 4 22 4 25 0 35 -2 23 -4z m-1818 -330 c-8 -46 4 -38 15 9 7 28 8 29 9 8 1
-37 -46 -120 -107 -190 -30 -33 -62 -70 -73 -83 -10 -12 -18 -18 -19 -13 0 4
26 38 58 75 65 72 118 149 110 156 -3 3 -18 -14 -33 -37 -15 -24 -54 -72 -85
-108 -31 -36 -60 -72 -63 -80 -5 -13 -6 -13 -6 1 -1 9 17 37 39 62 28 31 38
51 34 64 -4 13 -3 14 4 5 7 -10 16 -5 40 23 35 40 72 106 72 130 0 8 3 15 6
15 3 0 3 -17 -1 -37z m5422 -1090 c-3 -10 -5 -2 -5 17 0 19 2 27 5 18 2 -10 2
-26 0 -35z m21 8 c-3 -40 -3 -40 42 -52 35 -9 220 -22 403 -28 9 -1 17 -8 17
-16 0 -10 -10 -15 -32 -14 l-33 1 30 7 c25 6 20 8 -34 14 -35 4 -106 7 -157 7
-75 0 -241 22 -249 32 -4 6 7 88 12 88 3 0 3 -18 1 -39z m-6080 -69 c2 -7 -5
-12 -15 -11 -12 0 -14 2 -4 6 11 5 11 7 0 15 -12 8 -12 9 0 6 8 -3 17 -10 19
-16z"/>
<path d="M2045 5734 c-144 -30 -274 -93 -357 -172 -80 -76 -73 -87 9 -14 119
109 204 140 396 146 126 5 145 9 126 32 -11 13 -122 18 -174 8z"/>
<path d="M2680 5091 c0 -19 149 -204 150 -185 0 5 -21 35 -46 65 -26 30 -58
71 -72 92 -25 38 -32 44 -32 28z"/>
<path d="M5150 5530 c0 -8 5 -22 10 -30 9 -13 10 -13 10 0 0 8 -5 22 -10 30
-9 13 -10 13 -10 0z"/>
<path d="M5367 5135 c7 -35 32 -87 32 -65 0 8 -9 33 -19 55 -17 35 -19 36 -13
10z"/>
<path d="M5308 4475 c-4 -27 -9 -63 -13 -80 -3 -16 -1 -37 4 -45 15 -23 24 -4
13 28 -6 18 -6 35 0 45 5 10 8 36 6 60 l-3 42 -7 -50z"/>
<path d="M2230 5543 c-59 -10 -247 -89 -237 -99 3 -3 31 8 63 24 87 43 159 64
249 72 l80 7 -65 0 c-36 0 -76 -2 -90 -4z"/>
<path d="M2178 5480 c-43 -8 -243 -108 -305 -152 -73 -53 -125 -131 -138 -208
-8 -48 -4 -49 81 -20 32 11 96 32 141 45 45 14 140 54 210 90 70 36 132 65
137 65 6 0 35 12 64 27 l53 28 -35 32 c-24 22 -46 33 -66 33 -19 0 -30 5 -30
14 0 10 25 16 103 22 l102 7 -65 13 c-71 14 -193 16 -252 4z m100 -15 c-2 -3
-34 -7 -69 -10 l-64 -4 59 9 c32 5 61 12 64 15 3 3 8 3 10 0 3 -3 3 -7 0 -10z
m-123 -65 c-18 -8 -18 -9 -2 -9 15 -1 12 -6 -13 -28 -30 -25 -32 -30 -28 -80
3 -35 0 -57 -8 -63 -23 -20 -174 -70 -229 -76 -53 -7 -55 -6 -55 17 0 33 31
81 73 113 44 34 246 136 267 135 10 0 9 -3 -5 -9z m200 -10 c3 -6 -1 -7 -9 -4
-18 7 -21 14 -7 14 6 0 13 -4 16 -10z m-491 -110 c-29 -30 -30 -30 -31 -8 -2
16 0 19 6 9 7 -10 13 -7 27 12 11 14 21 23 23 21 3 -3 -8 -18 -25 -34z"/>
<path d="M2034 5342 c-109 -57 -159 -93 -185 -136 -31 -51 -26 -60 32 -52 52
7 98 22 180 58 l45 20 -4 54 c-4 47 -1 58 18 79 33 35 18 31 -86 -23z"/>
<path d="M2596 5218 c-3 -13 -5 -34 -5 -48 1 -15 5 -7 10 19 9 47 6 68 -5 29z"/>
<path d="M3020 4525 c-66 -18 -200 -82 -200 -96 0 -12 80 -11 198 2 149 17
324 71 291 89 -31 18 -231 21 -289 5z"/>
<path d="M1840 4453 c0 -5 7 -18 15 -29 13 -18 14 -18 8 4 -5 22 -23 41 -23
25z"/>
<path d="M4509 2606 c-2 -3 -44 -10 -93 -16 -77 -11 -96 -18 -145 -51 -32 -22
-82 -48 -112 -59 -30 -10 -47 -19 -39 -20 30 0 116 37 165 73 44 31 63 37 140
47 83 11 146 29 104 30 -9 0 -18 -2 -20 -4z"/>
<path d="M1697 5013 c-3 -5 -1 -17 4 -28 7 -17 8 -17 8 8 1 27 -4 34 -12 20z"/>
<path d="M3333 4113 c-7 -2 -13 -9 -13 -15 0 -7 5 -7 13 1 8 6 17 8 20 4 4 -3
7 -1 7 5 0 13 -7 14 -27 5z"/>
<path d="M2860 4103 c0 -9 96 -128 181 -226 28 -32 61 -77 73 -100 24 -44 96
-107 124 -107 9 0 -5 13 -31 30 -30 19 -47 37 -47 49 0 43 -190 289 -212 275
-6 -4 -8 -2 -5 3 4 6 -13 27 -38 48 -25 20 -45 33 -45 28z m185 -203 c10 -11
16 -20 13 -20 -3 0 -13 9 -23 20 -10 11 -16 20 -13 20 3 0 13 -9 23 -20z"/>
<path d="M12710 3288 c-72 -22 -312 -107 -375 -133 -22 -9 -49 -20 -60 -24
-62 -25 -295 -145 -295 -152 0 -8 86 -37 320 -109 224 -69 233 -73 300 -109
36 -19 93 -54 127 -78 35 -24 65 -43 68 -43 3 0 5 151 5 335 0 262 -3 335 -12
334 -7 -1 -42 -10 -78 -21z"/>
<path d="M3832 3084 c3 -3 28 -14 54 -24 27 -11 43 -19 36 -20 -7 0 -29 7 -49
15 -20 8 -38 13 -41 10 -11 -10 56 -28 116 -30 34 -2 62 -1 62 1 0 2 -15 8
-32 13 -28 8 -23 9 27 5 57 -3 58 -3 20 7 -22 5 -54 7 -71 4 -17 -3 -50 2 -74
10 -46 16 -57 18 -48 9z"/>
<path d="M5504 1518 c71 -88 186 -273 224 -360 102 -232 173 -582 172 -843 -1
-78 -21 -247 -35 -292 -5 -14 -3 -23 3 -23 13 0 26 47 43 153 17 108 6 380
-21 527 -38 212 -98 399 -173 545 -46 91 -213 325 -230 325 -5 0 2 -15 17 -32z"/>
<path d="M6396 1353 c9 -16 44 -58 75 -95 91 -105 269 -345 321 -432 27 -44
48 -73 48 -65 0 37 -207 328 -368 519 -40 46 -72 88 -72 92 0 4 -5 8 -11 8 -7
0 -4 -11 7 -27z"/>
<path d="M1536 1291 c-10 -10 -14 -21 -9 -24 4 -3 16 6 26 19 21 28 8 32 -17
5z"/>
<path d="M2476 983 c-73 -302 -73 -578 1 -875 24 -101 28 -108 51 -108 19 0
23 4 17 17 -18 47 -57 222 -70 314 -26 185 -18 510 16 662 6 26 9 50 6 53 -2
3 -12 -26 -21 -63z"/>
<path d="M7326 958 c3 -40 9 -76 11 -81 2 -4 44 -26 91 -48 200 -92 196 -87
189 -214 -3 -55 -11 -124 -17 -153 -11 -47 -10 -58 9 -97 12 -25 21 -47 21
-50 0 -2 11 -28 23 -57 13 -29 34 -80 47 -113 13 -33 27 -64 30 -70 4 -5 11
-25 15 -42 l7 -33 1139 0 c626 0 1139 2 1139 5 0 3 -30 20 -68 39 -37 19 -98
55 -136 80 -38 25 -71 46 -74 46 -2 0 -75 47 -161 104 -204 135 -352 208 -521
256 -329 93 -465 134 -575 175 -55 20 -129 46 -164 57 -36 11 -104 35 -153 54
-48 18 -154 49 -234 69 -107 26 -159 44 -190 66 -24 16 -44 34 -44 39 0 6 -50
10 -117 10 -65 0 -149 7 -188 15 -38 8 -74 15 -78 15 -5 0 -5 -33 -1 -72z"/>
<path d="M6756 852 c-4 -6 -1 -24 7 -38 9 -17 17 -23 21 -16 4 6 1 24 -7 38
-9 17 -17 23 -21 16z"/>
<path d="M6802 735 c-1 -5 8 -41 18 -80 10 -38 19 -59 19 -45 0 24 -36 146
-37 125z"/>
<path d="M1241 160 c-1 -29 18 -152 25 -159 13 -13 11 14 -5 94 -11 50 -19 79
-20 65z"/>
<path d="M6862 90 c-7 -33 -15 -69 -18 -78 -5 -14 -4 -15 5 -2 12 18 34 116
29 131 -2 6 -9 -17 -16 -51z"/>
</g>
</svg>
