<?xml version="1.0" standalone="no"?>
<!DOCTYPE svg PUBLIC "-//W3C//DTD SVG 20010904//EN"
 "http://www.w3.org/TR/2001/REC-SVG-20010904/DTD/svg10.dtd">
<svg version="1.0" xmlns="http://www.w3.org/2000/svg"
 width="1280.000000pt" height="720.000000pt" viewBox="0 0 1280.000000 720.000000"
 preserveAspectRatio="xMidYMid meet">
<metadata>
Created by potrace 1.16, written by Peter Selinger 2001-2019
</metadata>
<g transform="translate(0.000000,720.000000) scale(0.100000,-0.100000)"
fill="#000000" stroke="none">
<path d="M0 3600 l0 -3600 6400 0 6400 0 0 3600 0 3600 -6400 0 -6400 0 0
-3600z m3173 1148 c2 -7 -5 -25 -16 -40 -15 -21 -21 -52 -28 -153 -8 -114 -7
-137 12 -216 11 -49 25 -91 30 -95 5 -3 9 -15 9 -27 -1 -35 -28 35 -51 129
-17 71 -18 97 -10 206 5 81 14 137 25 158 19 39 18 40 -11 29 -28 -10 -39 -54
-48 -180 -8 -115 5 -198 46 -288 36 -79 32 -92 -5 -15 -43 88 -59 181 -50 304
9 136 22 182 54 191 37 10 38 10 43 -3z m81 -19 c17 -16 -3 -22 -36 -12 -23 8
-27 11 -13 12 17 1 18 3 5 12 -11 8 -9 9 10 4 14 -4 29 -11 34 -16z m39 -5
c-7 -3 -9 -12 -6 -21 4 -11 2 -14 -5 -9 -18 11 -14 36 6 35 9 0 12 -3 5 -5z
m140 -164 c22 -30 71 -91 108 -136 61 -73 73 -83 131 -103 110 -39 122 -45
160 -79 21 -19 52 -59 69 -91 18 -31 39 -64 47 -74 8 -9 12 -20 9 -24 -4 -3
33 -49 81 -102 48 -53 114 -127 146 -164 33 -38 114 -112 180 -165 148 -117
314 -277 371 -357 43 -61 60 -102 44 -107 -10 -4 21 -131 33 -136 4 -2 8 -9 8
-16 0 -9 10 -12 28 -9 51 9 58 16 22 24 -23 5 -15 6 26 3 l60 -6 13 41 c15 52
43 83 104 116 69 37 134 55 197 53 l55 -1 -70 -7 c-59 -5 -183 -46 -172 -56 1
-2 33 8 70 21 76 28 142 32 190 11 34 -14 98 -76 80 -76 -6 0 -22 12 -35 28
-55 65 -149 68 -270 9 -80 -39 -104 -59 -92 -78 4 -7 3 -9 -4 -5 -11 7 -32
-23 -32 -46 0 -9 26 -21 70 -32 81 -21 172 -66 213 -104 52 -49 89 -148 100
-272 l5 -55 -9 45 c-22 101 -38 163 -33 125 3 -22 8 -87 11 -145 5 -73 9 -96
14 -75 6 26 6 25 4 -8 -2 -22 -14 -61 -28 -88 -20 -42 -22 -52 -11 -67 7 -9
13 -28 12 -42 -1 -25 -1 -25 -5 -1 -5 24 -43 93 -43 78 0 -5 7 -24 16 -43 9
-18 14 -39 11 -46 -4 -8 -6 -7 -6 4 -1 10 -17 48 -36 85 -20 38 -29 59 -20 49
12 -16 15 -17 15 -4 0 18 -24 41 -33 31 -4 -3 -7 -1 -7 5 0 22 26 12 43 -17
19 -33 22 -45 7 -36 -11 7 -14 -8 -3 -19 4 -4 16 3 26 16 l18 23 -11 -22 c-6
-13 -7 -23 -1 -23 9 0 41 72 41 93 -1 6 -7 -1 -16 -18 -11 -24 -13 -25 -7 -5
12 45 15 193 4 234 -5 23 -13 54 -16 69 -3 15 -10 25 -15 22 -6 -4 -7 1 -3 11
5 14 8 13 19 -7 8 -15 13 -18 14 -9 1 47 -107 161 -152 160 -7 0 5 -12 27 -25
56 -35 41 -31 -41 10 -38 19 -76 35 -84 36 -10 0 -8 3 5 9 l20 9 -20 0 c-11 0
-26 -3 -34 -8 -10 -6 -3 -12 25 -21 49 -15 163 -81 188 -109 10 -11 24 -18 30
-14 6 3 3 -2 -6 -12 -16 -17 -19 -16 -66 19 -56 41 -160 92 -230 112 -46 13
-46 14 -7 8 52 -7 195 -74 246 -115 22 -17 42 -29 45 -26 10 10 -77 69 -160
107 -100 47 -165 60 -185 36 -8 -10 -29 -16 -52 -16 l-39 0 -2 -92 -2 -93 -3
88 c-3 73 -6 88 -18 83 -8 -3 -15 -2 -15 3 0 10 49 21 90 21 15 0 34 7 41 16
12 14 8 15 -43 9 -53 -7 -56 -6 -75 22 -25 34 -56 149 -48 174 17 52 -177 262
-403 438 -90 70 -157 132 -210 194 -42 51 -107 125 -144 166 -37 40 -66 78
-65 85 1 6 -4 10 -11 8 -8 -1 -11 2 -7 8 8 13 -34 82 -46 75 -5 -4 -6 1 -3 10
4 11 -5 29 -27 52 -46 47 -92 75 -164 98 -75 24 -128 72 -240 220 -84 111
-135 167 -135 148 0 -5 9 -18 21 -28 11 -11 58 -70 105 -132 81 -107 224 -251
245 -245 5 1 9 -2 9 -8 0 -21 -25 -8 -87 47 -36 31 -90 90 -121 131 -32 41
-87 112 -125 158 -37 46 -63 84 -57 84 5 0 7 8 4 18 -7 23 78 -69 129 -138z
m369 -332 c24 -19 41 -43 48 -67 10 -38 71 -116 233 -299 48 -55 87 -104 87
-109 0 -9 31 -35 224 -188 174 -137 360 -335 337 -358 -11 -11 -3 -39 10 -31
5 3 9 -3 9 -12 0 -16 -1 -16 -20 1 -25 23 -25 15 -1 -27 11 -18 29 -67 42
-108 23 -78 27 -147 19 -360 -4 -84 0 -123 17 -195 19 -79 40 -217 29 -190 -2
6 -12 55 -21 109 -13 76 -20 95 -27 82 -7 -12 -5 -45 6 -104 9 -48 18 -112 20
-142 2 -30 7 -86 11 -125 5 -57 3 -81 -14 -129 -30 -85 -63 -137 -121 -189
-31 -28 -45 -47 -38 -50 8 -3 6 -6 -4 -6 -30 -2 -20 23 22 52 50 35 89 93 125
182 24 61 27 78 21 135 -4 36 -9 97 -12 135 -3 39 -16 122 -30 185 -13 63 -23
131 -23 150 2 37 3 30 15 -59 4 -32 8 -40 15 -30 11 17 12 52 1 45 -4 -2 -6
53 -3 122 8 225 5 304 -13 367 -21 71 -85 205 -106 222 -10 8 -11 12 -3 13 6
0 15 -5 18 -10 4 -6 11 -8 16 -5 5 3 6 -1 3 -9 -3 -8 -2 -22 3 -30 7 -13 10
-13 21 4 10 17 5 28 -46 87 -65 75 -212 217 -270 260 -156 117 -230 179 -247
208 -11 19 -72 92 -135 162 -143 159 -168 191 -176 232 -7 35 -61 84 -131 120
-24 12 -43 23 -43 26 0 9 98 -40 132 -67z m-637 -73 c20 -30 60 -76 88 -101
58 -52 151 -114 170 -114 6 0 -12 16 -42 35 -111 71 -225 185 -200 201 7 4 9
3 6 -3 -16 -25 243 -233 290 -233 6 0 13 -7 17 -15 3 -9 0 -15 -10 -15 -9 0
-14 -3 -12 -7 2 -5 23 -48 47 -97 23 -49 49 -110 57 -136 7 -25 31 -74 53
-107 91 -141 112 -200 69 -197 -20 2 -46 -68 -28 -74 18 -6 11 -32 -8 -32 -10
0 -33 -18 -51 -40 -33 -42 -61 -52 -61 -23 0 9 7 24 15 33 14 15 6 16 -102 13
-65 -1 -176 -12 -248 -22 -71 -11 -176 -25 -232 -30 -55 -6 -136 -17 -180 -25
-207 -39 -262 -48 -273 -44 -6 2 37 12 97 21 181 31 190 34 93 38 -119 5 -213
0 -225 -12 -6 -6 10 -8 50 -5 47 4 42 2 -25 -9 -187 -31 -265 -34 -628 -26
-446 10 -532 3 -706 -63 -53 -21 -204 -88 -230 -104 -5 -3 -6 0 -2 7 9 14 80
47 221 103 55 21 85 37 67 34 -54 -9 -275 -105 -303 -132 -18 -18 -25 -33 -23
-52 l4 -27 -9 25 c-8 23 -9 22 -10 -11 -1 -36 18 -66 34 -51 5 4 5 2 2 -4 -9
-16 54 -35 88 -26 l30 9 -30 7 c-46 12 -65 34 -64 75 l2 36 6 -34 c8 -47 42
-68 141 -87 66 -12 121 -14 245 -10 88 3 219 8 290 10 l130 3 -125 -8 c-279
-18 -445 -21 -511 -9 -52 9 -76 9 -107 -1 -33 -9 -48 -9 -74 1 -53 21 -68 39
-68 82 0 64 40 94 230 172 148 60 371 104 475 93 33 -3 30 -4 -20 -6 -33 -2
-85 -7 -115 -11 l-55 -9 65 3 c36 2 227 -1 425 -5 343 -7 510 -2 566 20 16 5
-49 9 -186 10 -115 0 -244 4 -286 7 -42 3 -107 2 -145 -4 -95 -15 -210 -24
-202 -17 3 3 43 10 89 15 l84 8 -87 -1 c-48 0 -90 2 -94 6 -6 6 715 -1 726 -8
3 -2 46 2 95 7 50 6 149 11 220 12 123 1 200 9 530 57 77 11 200 23 273 26
l133 6 18 41 c37 81 41 68 -100 351 -112 226 -137 268 -163 282 -74 38 -197
157 -232 226 -24 45 -8 31 31 -28z m875 -438 c0 -7 -38 -30 -84 -51 -87 -39
-128 -72 -133 -107 l-3 -21 32 21 c53 35 156 80 196 85 30 5 32 4 12 -3 l-25
-9 25 -1 c17 -1 4 -9 -40 -25 -85 -30 -172 -86 -237 -154 -29 -30 -53 -50 -53
-44 0 6 32 40 71 76 39 36 67 66 61 66 -6 0 -42 -28 -79 -62 l-68 -62 52 55
c40 41 50 58 43 69 -9 14 -15 6 -10 -15 1 -5 -2 -7 -6 -3 -4 5 -14 -1 -21 -12
-8 -11 -19 -18 -24 -14 -5 3 -19 -5 -30 -18 l-20 -23 17 28 c9 15 22 26 29 23
7 -2 25 13 41 35 16 21 32 39 37 39 4 0 7 5 7 10 0 21 -19 8 -49 -32 -17 -23
-31 -37 -31 -30 0 7 24 36 53 65 37 38 75 64 132 90 88 39 105 43 105 24z
m158 -64 c-21 -2 -55 -2 -75 0 -21 2 -4 4 37 4 41 0 58 -2 38 -4z m0 -20 c-21
-2 -55 -2 -75 0 -21 2 -4 4 37 4 41 0 58 -2 38 -4z m-448 -147 c0 -2 -8 -10
-17 -17 -16 -13 -17 -12 -4 4 13 16 21 21 21 13z m850 -148 c22 -23 54 -78 46
-78 -2 0 -20 23 -40 50 -38 53 -41 65 -6 28z m860 -144 c14 -7 43 -32 66 -56
125 -133 196 -292 192 -427 l-1 -56 -7 65 -7 65 -3 -70 -3 -70 -8 80 c-4 44
-5 96 -3 115 3 27 2 31 -5 15 -5 -11 -10 -48 -10 -83 -1 -40 -8 -77 -20 -101
-15 -33 -16 -42 -5 -62 7 -13 13 -33 14 -44 0 -12 13 -59 30 -105 32 -92 36
-123 19 -167 -8 -22 -12 -24 -19 -13 -6 8 -7 29 -4 45 6 40 -38 175 -78 239
-18 28 -36 53 -40 54 -13 6 -9 34 17 102 29 78 33 63 5 -17 -25 -71 -26 -91
-1 -38 28 62 64 242 50 251 -4 2 -10 -22 -14 -53 -10 -85 -16 -89 -11 -8 3 39
1 59 -3 46 -6 -22 -8 -18 -19 28 -7 29 -9 57 -6 63 4 6 2 13 -3 17 -5 3 -19
22 -30 41 -12 19 -35 48 -52 64 -17 17 -31 34 -31 40 0 17 60 -47 87 -91 14
-24 29 -43 34 -43 5 0 9 -6 9 -12 0 -16 39 -67 40 -53 0 6 -26 48 -57 94 -66
97 -126 152 -145 133 -7 -7 -16 -12 -22 -12 -5 0 -2 6 8 13 17 12 15 14 -19
15 -21 1 -40 4 -44 7 -10 11 74 2 99 -11z m-3492 -31 c-15 -2 -42 -2 -60 0
-18 2 -6 4 27 4 33 0 48 -2 33 -4z m3489 -7 c0 -8 -6 -12 -15 -9 -11 5 -11 7
0 14 7 5 13 9 14 9 0 0 1 -6 1 -14z m-3220 -13 c-20 -2 -52 -2 -70 0 -17 2 0
4 38 4 39 0 53 -2 32 -4z m330 1 c-3 -3 -12 -4 -19 -1 -8 3 -5 6 6 6 11 1 17
-2 13 -5z m-77 -30 c0 -2 -7 -4 -15 -4 -8 0 -15 4 -15 10 0 5 7 7 15 4 8 -4
15 -8 15 -10z m-752 -20 c-15 -8 -32 -23 -38 -34 -18 -34 -10 -36 16 -2 14 17
30 32 35 32 6 0 -3 -14 -20 -31 -40 -39 -43 -101 -8 -139 13 -14 26 -32 29
-42 13 -32 107 -43 388 -43 146 0 237 -1 203 -3 -49 -2 -61 -6 -56 -17 4 -13
-12 -15 -103 -13 l-109 2 105 7 c58 3 -34 5 -205 3 -170 -2 -328 -4 -349 -4
-22 0 -36 -3 -32 -7 4 -5 134 -9 289 -9 155 -1 342 -5 414 -9 122 -7 135 -9
159 -32 24 -22 26 -29 20 -70 -8 -62 -26 -95 -59 -111 -44 -21 -201 -50 -332
-62 -66 -6 -147 -15 -180 -22 -33 -6 -109 -16 -170 -23 -121 -14 -245 -38
-465 -90 -80 -19 -163 -37 -185 -41 -22 -4 -52 -13 -67 -21 -35 -17 -78 -100
-78 -149 0 -44 32 -91 74 -110 17 -7 24 -13 16 -14 -19 0 -66 31 -85 56 -8 10
-15 39 -15 64 -2 50 -13 89 -23 74 -3 -6 -2 -16 3 -23 4 -8 4 -27 -1 -43 -10
-38 23 -92 78 -125 21 -13 32 -23 25 -23 -8 0 -28 10 -45 22 -16 12 -40 22
-53 23 -25 1 -64 32 -64 51 0 7 13 -1 29 -17 26 -26 51 -38 51 -24 0 2 -11 21
-25 41 -14 20 -25 45 -25 56 0 10 -7 21 -15 24 -20 8 -19 18 8 60 15 25 43 46
95 71 65 32 83 36 150 37 42 0 66 2 53 6 -21 5 -17 7 25 17 27 6 63 9 79 7 24
-3 26 -2 10 4 -17 8 -11 11 30 20 28 6 70 9 95 7 35 -3 38 -3 15 3 -26 7 -19
10 50 21 44 7 105 24 136 36 75 32 153 43 344 49 179 6 323 27 405 60 l55 22
-3 44 c-2 25 -10 49 -18 53 -8 4 -14 14 -14 22 0 15 -28 17 -490 36 -157 6
-289 14 -295 17 -5 3 -117 6 -250 6 -173 1 -247 5 -265 14 l-25 13 25 -7 c51
-13 372 -16 464 -5 50 7 157 13 236 13 80 1 138 3 130 4 -102 15 -160 27 -160
34 0 5 -12 23 -27 41 -19 22 -30 49 -34 83 l-6 51 -2 -51 c-1 -43 4 -57 29
-89 39 -49 39 -60 0 -15 -36 43 -44 68 -37 126 5 48 47 104 76 104 10 -1 5 -7
-11 -16z m3013 -119 c5 4 9 1 9 -4 0 -6 -7 -11 -15 -11 -11 0 -15 11 -13 43
l1 42 4 -38 c2 -20 8 -35 14 -32z m76 -21 c-3 -3 -12 -4 -19 -1 -8 3 -5 6 6 6
11 1 17 -2 13 -5z m-3873 -89 c7 -18 6 -18 -4 -2 -6 9 -16 14 -22 11 -8 -5 -9
-1 -5 10 4 10 8 30 8 44 1 23 2 22 9 -8 4 -19 10 -44 14 -55z m2477 38 c0 -15
2 -15 8 2 5 11 6 -12 4 -55 -6 -97 -11 -111 -12 -32 -1 35 -6 72 -11 83 -7 13
-7 19 0 19 5 0 10 -8 11 -17z m-36 -50 c-2 -46 -1 -51 5 -23 6 27 7 21 5 -25
-2 -33 0 -69 5 -80 l9 -20 1 20 c0 12 11 -3 24 -35 12 -30 34 -73 48 -95 39
-60 134 -155 156 -155 11 0 25 -7 32 -15 7 -8 18 -15 24 -15 18 -1 63 -39 46
-40 -13 0 -13 -1 0 -10 8 -5 10 -10 5 -10 -6 0 -19 6 -30 14 -11 8 -40 20 -64
27 -63 19 -171 131 -216 224 -53 108 -75 211 -59 273 10 35 12 26 9 -35z
m2192 10 c-3 -10 -5 -2 -5 17 0 19 2 27 5 18 2 -10 2 -26 0 -35z m-770 -100
c-4 -43 -9 -90 -13 -104 -5 -24 -3 -26 28 -26 26 0 43 9 78 43 67 65 154 89
227 64 31 -11 58 -41 86 -97 18 -35 23 -58 7 -33 -7 10 -10 11 -10 2 0 -21
-42 12 -80 63 -29 39 -39 45 -70 45 -44 0 -83 -21 -149 -81 l-50 -46 24 -23
c28 -26 34 -17 8 12 -9 10 -12 18 -6 18 16 0 133 -127 133 -144 0 -22 -29 -20
-37 1 -4 10 -27 36 -52 58 -25 22 -56 50 -69 63 -19 19 -62 31 -62 18 0 -2 11
-53 25 -112 14 -59 26 -130 26 -158 1 -146 -3 -265 -10 -301 -5 -26 -7 -3 -3
66 3 68 1 112 -7 126 -8 16 -8 22 2 26 20 6 12 120 -17 240 -14 60 -26 113
-26 118 0 5 14 9 32 9 17 0 28 3 25 7 -4 3 -21 6 -38 5 -30 -1 -31 1 -25 31 3
18 9 67 12 110 4 42 9 77 12 77 3 0 2 -35 -1 -77z m-2449 40 c-10 -2 -26 -2
-35 0 -10 3 -2 5 17 5 19 0 27 -2 18 -5z m-1291 -9 c-3 -3 -12 -4 -19 -1 -8 3
-5 6 6 6 11 1 17 -2 13 -5z m2340 -36 c-3 -8 -6 -5 -6 6 -1 11 2 17 5 13 3 -3
4 -12 1 -19z m-278 -153 c0 -5 -4 -1 -9 10 -17 41 -10 -11 11 -74 11 -35 18
-65 15 -68 -2 -3 -14 28 -26 69 -12 40 -28 93 -36 117 -18 56 -17 78 1 31 l14
-35 -4 40 c-4 35 -2 33 15 -20 11 -33 19 -64 19 -70z m-629 18 c0 -25 -4 -31
-15 -27 -8 4 -15 16 -14 28 0 20 1 21 10 1 7 -15 8 -9 4 20 -4 29 -3 36 4 25
6 -8 11 -29 11 -47z m3020 9 c-7 -15 -17 -35 -22 -45 -15 -29 -4 -30 22 -2 13
14 28 25 34 25 6 0 -11 -20 -38 -45 -26 -25 -52 -45 -57 -45 -18 0 -8 37 16
60 14 13 25 29 25 35 0 19 25 65 29 54 2 -6 -2 -23 -9 -37z m-2367 -79 c6 -32
4 -25 87 -308 33 -115 67 -234 76 -264 8 -30 18 -60 23 -65 5 -6 11 -23 15
-38 3 -14 9 -34 12 -45 5 -15 4 -15 -5 -3 -9 13 -11 13 -12 0 0 -8 -9 3 -19
25 -22 48 -25 70 -5 35 21 -36 18 -13 -5 45 -18 44 -20 46 -15 15 11 -75 -20
17 -85 254 -33 119 -34 128 -20 106 9 -13 10 -13 9 0 -1 8 -5 26 -9 40 l-8 25
-2 -25 c-1 -17 -8 -4 -20 37 -10 34 -16 71 -13 81 2 11 -2 40 -11 66 -18 54
-19 59 -7 52 5 -3 11 -18 14 -33z m2083 -23 c3 0 3 15 0 33 -5 24 -4 27 3 12
14 -30 13 -55 -3 -55 -14 0 -26 31 -25 60 0 8 5 0 10 -17 5 -18 12 -33 15 -33z
m151 -32 c-2 -13 -4 -3 -4 22 0 25 2 35 4 23 2 -13 2 -33 0 -45z m-3982 -26
l-30 -5 30 -8 c23 -7 21 -7 -13 -3 -43 4 -165 -22 -158 -35 2 -3 -6 -7 -17 -7
-12 -1 -47 -9 -77 -17 -100 -29 -62 -11 57 28 128 42 174 53 213 52 21 0 20
-1 -5 -5z m4226 -132 c-20 -53 -60 -105 -111 -145 -14 -11 -2 4 27 34 50 51
94 136 92 179 0 9 -10 -11 -23 -45 -25 -66 -58 -112 -112 -153 -37 -28 -41
-38 -19 -46 19 -8 105 47 145 92 16 19 30 30 30 25 0 -16 -68 -78 -116 -106
-47 -28 -70 -31 -77 -12 -3 6 -6 -15 -7 -48 -2 -70 -7 -63 -13 18 -2 32 0 52
4 45 11 -16 12 2 3 27 -6 13 -9 14 -16 3 -6 -9 -7 -5 -3 11 5 16 4 21 -4 17
-6 -4 -9 -1 -5 7 5 13 -55 81 -64 73 -7 -8 35 -65 43 -58 5 4 5 1 1 -5 -4 -7
2 -43 14 -79 36 -118 26 -198 -35 -278 -25 -33 -116 -86 -146 -86 -8 0 14 14
48 30 63 31 121 94 138 150 19 62 -2 169 -55 282 -17 35 -30 72 -29 83 1 17 2
16 9 -5 l8 -25 2 25 c2 23 3 22 11 -8 6 -19 20 -37 34 -44 15 -7 31 -28 41
-54 9 -24 22 -44 27 -44 6 0 34 24 62 54 39 41 57 71 76 126 23 67 24 70 32
43 6 -20 3 -44 -12 -83z m-3896 68 c-5 -21 -5 -21 9 2 11 18 15 21 16 8 0 -9
-4 -20 -10 -23 -14 -9 -12 -63 4 -105 26 -69 27 -74 5 -35 -12 22 -25 62 -30
90 l-8 50 4 -56 c2 -31 11 -72 21 -90 14 -28 14 -32 2 -21 -17 13 -38 84 -38
126 0 27 16 76 25 76 4 0 4 -10 0 -22z m792 -135 c-2 -21 -4 -6 -4 32 0 39 2
55 4 38 2 -18 2 -50 0 -70z m20 5 c-2 -18 -4 -4 -4 32 0 36 2 50 4 33 2 -18 2
-48 0 -65z m3110 45 c-3 -10 -5 -2 -5 17 0 19 2 27 5 18 2 -10 2 -26 0 -35z
m-407 -63 c0 -28 -23 -70 -54 -99 -19 -18 -37 -24 -71 -24 -25 0 -51 5 -57 11
-19 19 -54 14 -121 -16 -55 -25 -62 -32 -63 -58 -2 -46 -72 -245 -101 -287
-15 -21 -36 -43 -46 -49 -14 -7 -9 4 15 33 20 24 42 58 51 74 27 53 69 202 65
231 -3 27 2 31 67 61 39 18 63 33 55 33 -8 0 -39 -11 -69 -25 -30 -14 -56 -24
-58 -22 -2 2 25 17 59 33 64 29 112 34 191 19 32 -6 42 -4 64 16 14 13 32 39
39 57 16 36 34 43 34 12z m383 -50 c-24 -20 -67 -50 -98 -66 l-55 -29 0 -50
c-1 -145 -134 -298 -237 -272 -10 3 -4 5 15 6 46 1 81 22 131 76 55 60 81 122
81 194 l0 57 59 28 c32 15 76 45 97 65 22 21 41 36 44 34 3 -3 -14 -22 -37
-43z m-3087 7 c6 -3 14 -35 18 -69 3 -35 20 -110 36 -168 33 -116 34 -122 19
-100 -7 11 -8 6 -3 -20 11 -56 25 -82 19 -35 -4 34 -1 30 18 -25 38 -106 79
-181 125 -227 24 -23 35 -40 25 -37 -15 6 -16 4 -6 -6 7 -8 32 -17 55 -21 l43
-6 -42 -2 c-78 -2 -157 87 -210 242 -31 87 -103 337 -103 355 0 16 -54 72 -69
72 -5 0 -14 8 -20 17 -8 15 -14 15 -48 4 -21 -7 -117 -21 -213 -32 -96 -11
-209 -24 -250 -29 -41 -5 -93 -9 -115 -8 -39 1 12 7 366 46 96 11 185 25 197
31 29 16 69 14 76 -4 3 -8 11 -15 19 -15 16 0 60 -56 69 -90 4 -14 4 4 1 40
-2 36 -10 71 -17 77 -16 18 -83 18 -231 0 -197 -24 -344 -37 -405 -36 -44 2
-36 4 35 9 232 19 357 32 435 43 80 12 152 9 176 -6z m-676 -57 c38 -7 33 -8
-30 -5 -47 2 -64 1 -45 -4 28 -7 26 -8 -25 -15 -30 -5 -80 -14 -110 -22 -30
-8 -75 -13 -100 -12 l-45 1 55 7 55 7 -50 0 c-27 1 -75 -2 -105 -7 l-55 -7 49
-2 c71 -2 54 -8 -39 -14 -51 -3 -65 -2 -40 2 l40 8 -35 1 c-19 0 -55 -3 -80
-7 l-45 -8 39 -2 c54 -1 42 -7 -29 -14 -39 -4 -50 -3 -30 2 l30 9 -30 0 c-16
0 -41 -4 -55 -8 l-25 -8 25 -2 c24 -2 24 -2 -4 -10 -16 -5 -50 -7 -75 -5 -38
4 -41 3 -16 -4 21 -6 24 -9 10 -10 -11 -1 -31 -4 -45 -6 -22 -5 -22 -4 -5 4
19 9 19 10 1 10 -33 1 -14 9 64 26 173 37 488 78 595 78 49 -1 54 0 25 6 l-35
8 35 5 c54 8 81 7 130 -2z m620 -16 c0 -2 -13 -4 -30 -4 -16 0 -30 4 -30 8 0
5 14 7 30 4 17 -2 30 -6 30 -8z m2570 -24 l-35 -7 35 -2 c26 -2 11 -7 -55 -22
-92 -19 -130 -23 -85 -9 l25 8 -25 2 c-33 3 104 39 145 38 29 -1 29 -1 -5 -8z
m-3260 -35 c0 -9 -9 -15 -25 -15 -16 0 -25 6 -25 15 0 9 9 15 25 15 16 0 25
-6 25 -15z m-750 -143 c0 -7 21 -35 46 -62 39 -42 54 -51 102 -60 32 -7 65
-16 74 -21 10 -5 26 -9 35 -10 12 0 14 -2 5 -6 -8 -3 -24 -1 -35 5 -12 5 -48
15 -81 22 -72 15 -135 67 -160 135 -21 54 -36 58 -36 9 0 -26 7 -42 29 -62 89
-83 171 -116 286 -116 52 0 62 -2 40 -7 -23 -6 -19 -7 17 -4 26 3 50 0 53 -5
3 -6 45 -9 93 -9 l87 2 -84 8 c-110 10 -116 19 -10 15 60 -3 68 -2 29 3 -47 5
-32 8 105 19 184 16 218 22 299 60 33 15 61 23 63 17 2 -6 86 -9 233 -7 l231
3 46 -30 c59 -39 71 -58 75 -111 3 -51 -3 -56 -115 -100 -45 -18 -119 -50
-165 -71 -46 -22 -86 -39 -89 -39 -3 0 -34 -14 -68 -31 -61 -30 -96 -35 -97
-14 0 5 38 26 83 45 46 19 89 38 94 41 6 4 73 33 150 64 77 31 146 62 153 67
24 20 14 67 -20 99 -46 42 -83 49 -252 49 -163 0 -275 -14 -293 -37 -16 -20
-93 -39 -258 -64 -117 -18 -167 -20 -300 -15 -88 3 -173 10 -190 16 l-30 10
30 -5 c70 -11 355 -16 410 -7 49 8 38 9 -62 5 -66 -3 -129 -2 -140 2 -10 4
-47 9 -83 11 -162 7 -334 88 -354 166 -5 19 -6 48 -2 64 l8 29 24 -30 c13 -16
24 -36 24 -43z m779 -46 c16 -9 40 -16 53 -16 17 1 13 4 -15 14 -46 17 -77 43
-77 65 1 11 5 8 14 -8 16 -29 52 -50 88 -51 20 0 26 -4 22 -15 -17 -44 -145
17 -144 69 1 16 4 14 15 -11 7 -17 27 -39 44 -47z m-790 9 c0 -5 -6 1 -14 15
-8 14 -14 30 -14 35 0 6 6 -1 14 -15 8 -14 14 -29 14 -35z m3752 -34 c5 8 9 9
9 3 0 -21 -63 -105 -107 -141 -29 -24 -41 -39 -34 -46 7 -7 19 -4 38 9 20 13
44 18 83 17 50 -1 51 -1 15 6 l-40 6 60 8 c33 5 98 12 145 18 47 5 103 11 125
14 31 3 35 2 15 -4 -23 -8 -24 -9 -3 -10 12 -1 24 -5 28 -10 3 -6 -7 -6 -27 0
-18 5 -49 8 -68 8 l-35 -2 40 -6 c37 -7 33 -8 -38 -15 -43 -5 -81 -6 -84 -2
-4 3 16 6 43 7 27 0 43 3 36 6 -8 3 -48 2 -90 -3 -70 -7 -73 -9 -37 -14 35 -6
30 -7 -42 -14 -71 -7 -85 -12 -98 -32 -9 -14 -25 -24 -38 -24 -13 0 -63 -23
-111 -51 -49 -27 -116 -61 -150 -73 -33 -13 -100 -40 -147 -59 -148 -61 -470
-116 -719 -121 -85 -2 -121 -2 -80 0 154 7 330 26 496 54 177 30 245 49 355
98 35 16 86 37 112 47 27 9 72 33 100 51 29 19 72 41 97 50 60 21 73 28 78 42
2 7 -9 5 -28 -5 -24 -14 -34 -15 -37 -6 -3 8 -27 -3 -70 -32 -99 -68 -289
-156 -418 -193 -139 -40 -540 -93 -685 -90 -74 2 -77 2 -20 5 238 10 619 65
745 108 102 34 271 116 356 172 76 51 219 182 219 201 0 7 -23 -11 -51 -40
l-51 -53 46 54 c25 29 46 58 47 65 0 6 3 5 6 -3 5 -11 7 -11 14 0z m-3446 -58
c31 -5 35 -8 20 -13 -11 -4 -24 -4 -30 0 -5 5 -21 10 -35 13 -40 7 1 7 45 0z
m118 -20 c-13 -2 -35 -2 -50 0 -16 2 -5 4 22 4 28 0 40 -2 28 -4z m3771 -24
c-4 -8 4 -9 27 -5 19 4 6 -4 -31 -19 -36 -13 -78 -27 -95 -30 -16 -2 -1 6 35
19 64 24 73 37 11 15 -25 -9 -35 -9 -44 0 -9 9 -8 11 4 6 8 -3 31 1 50 9 41
18 52 20 43 5z m-141 -66 c-7 -2 -21 -2 -30 0 -10 3 -4 5 12 5 17 0 24 -2 18
-5z m-2193 -173 c-8 -5 -28 -9 -45 -9 -30 2 -30 2 5 9 51 11 57 11 40 0z
m-895 -70 l-40 -7 45 -2 c33 -2 13 -8 -79 -22 -144 -21 -321 -64 -371 -89 -48
-24 -66 -47 -83 -105 l-14 -49 -7 35 c-14 74 32 131 129 162 126 40 354 86
425 85 l35 -1 -40 -7z m925 -6 l-35 -14 35 4 c19 3 29 2 22 -1 -6 -2 -10 -8
-8 -12 3 -3 -21 -6 -51 -5 -35 1 -50 -1 -42 -7 8 -5 30 -9 49 -10 29 -1 26 -3
-19 -10 -30 -5 -56 -7 -59 -4 -3 3 6 5 19 5 22 1 22 2 6 11 -14 8 -43 4 -120
-16 -56 -15 -121 -34 -145 -42 -23 -9 -45 -13 -48 -10 -6 6 27 16 246 78 79
22 146 42 149 44 2 3 11 5 20 4 9 0 0 -7 -19 -15z m-35 -75 c-14 -6 -7 -7 24
-3 62 9 351 -27 351 -43 0 -17 -66 -16 -190 1 -78 11 -98 11 -115 0 -16 -10
-30 -10 -68 -2 -53 13 -213 -1 -321 -28 -34 -8 -74 -12 -94 -8 -22 4 -33 3
-29 -3 4 -6 -3 -8 -18 -5 -14 2 -33 -2 -43 -9 -15 -12 -15 -11 -2 3 20 20 147
48 197 43 28 -4 31 -3 13 3 -21 7 -17 9 30 20 54 12 241 40 270 40 9 0 8 -3
-5 -9z m-764 -89 c6 0 7 5 4 10 -10 16 1 12 40 -14 47 -32 106 -40 193 -27 38
6 85 9 104 6 26 -4 29 -3 13 4 -19 9 -19 10 3 10 15 1 22 -4 20 -11 -3 -7 -50
-22 -109 -34 -57 -11 -133 -30 -169 -42 -110 -36 -301 -70 -555 -99 -65 -7
-165 13 -165 33 0 12 8 13 38 7 55 -11 151 -7 297 12 127 16 315 54 365 73 24
9 24 9 -12 21 -43 14 -88 48 -87 64 0 8 2 8 6 0 2 -7 9 -13 14 -13z m-663
-112 c7 1 12 -2 12 -8 0 -5 -6 -10 -14 -10 -15 0 -27 22 -25 48 1 10 4 7 8 -8
4 -14 13 -24 19 -22z"/>
<path d="M3228 4723 c7 -3 16 -2 19 1 4 3 -2 6 -13 5 -11 0 -14 -3 -6 -6z"/>
<path d="M5026 3130 c-37 -33 -61 -88 -53 -121 3 -12 0 -19 -10 -19 -8 0 -11
5 -8 10 8 13 -48 13 -60 1 -6 -5 -21 -11 -35 -14 -14 -2 -6 -3 17 -1 23 2 67
-1 98 -7 36 -7 61 -7 72 0 15 8 10 11 -24 17 -33 5 -43 11 -43 26 0 31 27 74
67 107 21 17 32 31 26 31 -7 0 -28 -14 -47 -30z m1 -146 c-3 -3 -12 -4 -19 -1
-8 3 -5 6 6 6 11 1 17 -2 13 -5z"/>
<path d="M5110 2961 c8 -5 26 -12 40 -15 l25 -7 -25 15 c-14 9 -32 15 -40 15
-13 0 -13 -1 0 -8z"/>
<path d="M3426 3931 c-4 -5 50 -124 120 -263 l127 -253 -25 -70 -24 -70 -135
-6 c-73 -4 -199 -16 -279 -28 -80 -11 -203 -27 -274 -36 -72 -8 -132 -18 -135
-22 -4 -3 17 -3 44 1 28 4 106 13 175 21 69 7 170 21 225 29 134 21 345 28
345 11 0 -7 -7 -18 -15 -25 -8 -7 -15 -18 -15 -24 0 -6 20 10 44 37 31 33 48
62 56 98 9 36 16 49 27 45 32 -13 23 29 -24 107 -61 99 -103 181 -103 200 0
21 -100 217 -111 217 -5 0 -9 4 -9 10 0 5 6 7 14 4 8 -3 17 -1 21 5 3 6 2 11
-4 11 -5 0 -16 3 -24 6 -8 3 -18 1 -21 -5z"/>
<path d="M1310 3125 c-59 -17 -31 -17 45 0 36 8 48 13 30 13 -16 0 -50 -6 -75
-13z"/>
<path d="M3935 3681 c-74 -35 -123 -71 -97 -71 6 0 14 5 18 11 4 7 44 29 90
51 76 35 98 49 77 47 -5 0 -44 -17 -88 -38z"/>
<path d="M3945 3599 c-61 -30 -87 -49 -69 -49 5 0 20 7 32 16 13 9 49 26 80
39 31 13 48 24 37 24 -11 0 -47 -13 -80 -30z"/>
<path d="M5590 2978 c0 -9 4 -19 10 -23 5 -3 7 -13 4 -23 -5 -13 -4 -14 4 -3
8 11 10 11 15 0 4 -11 6 -11 6 1 0 8 -8 26 -19 40 -15 20 -20 21 -20 8z"/>
<path d="M5640 2938 c0 -9 4 -19 8 -22 9 -6 -1 -77 -24 -171 -8 -33 -16 -65
-18 -72 -1 -7 -5 -16 -9 -19 -14 -14 -7 -42 19 -80 38 -56 86 -210 79 -254 -4
-26 -3 -31 4 -20 18 25 12 67 -19 163 -61 183 -58 169 -41 202 8 17 18 66 22
110 4 44 10 89 13 100 4 12 -2 32 -14 50 -14 21 -20 25 -20 13z m7 -215 c-3
-10 -5 -4 -5 12 0 17 2 24 5 18 2 -7 2 -21 0 -30z m-27 -65 c-23 -35 -23 -31
-1 15 8 15 16 25 19 22 2 -2 -5 -19 -18 -37z"/>
<path d="M5692 2805 c0 -16 2 -22 5 -12 2 9 2 23 0 30 -3 6 -5 -1 -5 -18z"/>
<path d="M1790 2784 c8 -2 141 -8 295 -14 349 -13 329 -11 331 -33 1 -12 1
-13 -3 -2 -2 8 -9 15 -14 15 -13 0 -11 -11 5 -29 8 -9 16 -38 18 -65 l3 -49
-60 -22 c-90 -34 -231 -55 -410 -61 -188 -6 -267 -17 -332 -45 -27 -12 -77
-27 -113 -34 -36 -7 -53 -14 -39 -14 14 -1 61 8 105 19 43 12 115 23 159 26
44 3 109 11 145 19 36 7 110 17 165 20 101 7 283 36 342 56 43 14 70 50 78
103 6 37 3 47 -18 69 l-24 27 -279 10 c-278 10 -383 11 -354 4z m58 -281 c-16
-2 -40 -2 -55 0 -16 2 -3 4 27 4 30 0 43 -2 28 -4z m-98 -7 c0 -2 -13 -6 -29
-8 -17 -2 -28 -1 -25 4 5 8 54 12 54 4z"/>
<path d="M1325 2410 c-27 -7 -27 -8 -5 -8 14 0 36 4 50 8 20 6 21 8 5 8 -11 0
-33 -4 -50 -8z"/>
<path d="M1210 2380 c-20 -6 -21 -8 -5 -8 11 0 29 3 40 8 25 11 -1 11 -35 0z"/>
<path d="M1051 2349 c-24 -5 -61 -20 -82 -34 -21 -14 -43 -25 -47 -25 -5 0
-21 -17 -34 -38 -21 -31 -23 -39 -12 -50 8 -7 14 -23 15 -35 1 -21 1 -20 8 3
5 14 5 32 0 40 -8 16 16 70 31 70 5 0 12 -5 16 -12 4 -6 3 -8 -4 -4 -16 9 -23
-9 -14 -34 7 -20 10 -18 24 19 9 23 12 39 7 36 -5 -4 -9 -4 -9 -1 0 13 75 48
131 60 69 15 43 19 -30 5z"/>
<path d="M3420 2698 c0 -33 63 -138 124 -204 48 -52 77 -76 113 -89 26 -10 52
-22 58 -26 16 -15 28 -10 15 6 -7 8 -20 15 -30 15 -10 0 -23 7 -30 15 -7 8
-20 15 -29 15 -28 0 -148 137 -186 212 -19 39 -35 64 -35 56z"/>
<path d="M5003 2727 c-33 -12 -139 -105 -130 -114 3 -2 27 16 54 42 53 51 97
75 140 75 38 0 74 -11 68 -20 -5 -8 73 -96 80 -89 10 10 -58 101 -82 110 -32
12 -91 10 -130 -4z"/>
<path d="M4930 2554 c0 -6 20 -32 45 -57 25 -26 45 -43 45 -38 0 13 -89 108
-90 95z"/>
<path d="M3111 2644 c0 -11 3 -14 6 -6 3 7 2 16 -1 19 -3 4 -6 -2 -5 -13z"/>
<path d="M5475 2549 c-11 -17 1 -21 15 -4 8 9 8 15 2 15 -6 0 -14 -5 -17 -11z"/>
<path d="M3176 2435 c11 -48 25 -76 18 -35 -4 19 -10 42 -15 50 -6 10 -7 5 -3
-15z"/>
<path d="M3225 2270 c7 -44 83 -300 84 -280 0 8 -20 83 -45 165 -24 83 -42
134 -39 115z"/>
<path d="M3351 1854 c0 -11 3 -14 6 -6 3 7 2 16 -1 19 -3 4 -6 -2 -5 -13z"/>
<path d="M5232 2237 c-18 -49 -55 -77 -103 -77 -21 0 -41 5 -44 10 -3 6 -23 9
-43 9 -27 -1 -30 -3 -12 -6 14 -2 44 -11 67 -20 39 -14 44 -14 80 3 39 20 77
72 71 100 -2 11 -8 3 -16 -19z"/>
<path d="M2571 2060 c0 -8 10 -51 24 -95 13 -44 24 -73 24 -65 0 8 -10 51 -24
95 -13 44 -24 73 -24 65z"/>
<path d="M2655 1777 c3 -11 8 -31 12 -45 9 -40 61 -133 91 -164 41 -45 48 -32
7 13 -20 23 -50 69 -65 103 -42 93 -51 113 -45 93z"/>
<path d="M1650 2130 l-25 -8 25 0 c14 0 34 3 45 8 l20 9 -20 -1 c-11 0 -31 -4
-45 -8z"/>
<path d="M1148 2053 c6 -2 18 -2 25 0 6 3 1 5 -13 5 -14 0 -19 -2 -12 -5z"/>
<path d="M4970 2100 c-20 -6 -21 -8 -5 -8 11 0 34 4 50 8 27 7 27 8 5 8 -14 0
-36 -4 -50 -8z"/>
<path d="M1778 2083 c7 -3 16 -2 19 1 4 3 -2 6 -13 5 -11 0 -14 -3 -6 -6z"/>
<path d="M1977 1858 c-15 -6 -24 -14 -21 -20 4 -6 3 -8 -3 -5 -5 3 -29 -1 -54
-10 -24 -8 -100 -21 -169 -28 -69 -7 -105 -13 -80 -14 25 -1 63 -6 85 -11 30
-6 19 -7 -45 -5 l-85 4 70 -10 c59 -8 87 -6 175 11 111 22 166 48 75 35 -99
-14 -37 4 88 25 106 18 157 21 295 18 164 -3 168 -4 209 -32 31 -21 44 -37 49
-61 11 -60 2 -69 -129 -123 -152 -63 -348 -150 -355 -157 -13 -13 22 -2 84 26
179 80 225 100 309 134 111 46 123 55 117 97 -6 43 -20 61 -71 98 l-42 31
-222 -3 c-122 -2 -231 -7 -242 -12 -14 -5 -16 -5 -6 2 20 14 0 21 -32 10z
m-114 -65 c-7 -2 -19 -2 -25 0 -7 3 -2 5 12 5 14 0 19 -2 13 -5z m-48 -13 c12
-5 -1 -6 -35 -3 -30 3 -57 7 -59 9 -9 8 75 2 94 -6z"/>
<path d="M1845 1435 c-221 -41 -331 -84 -358 -140 -9 -20 -17 -43 -16 -53 0
-14 2 -14 6 -2 19 54 39 79 74 99 49 28 184 65 326 90 59 11 92 19 73 19 -19
0 -66 -6 -105 -13z"/>
<path d="M2888 1433 c7 -3 16 -2 19 1 4 3 -2 6 -13 5 -11 0 -14 -3 -6 -6z"/>
<path d="M2770 1359 c-25 -4 -67 -10 -93 -14 -27 -4 -46 -9 -43 -12 3 -3 55 0
115 7 82 10 123 11 158 3 36 -9 51 -8 67 2 17 11 37 11 116 -1 100 -14 147
-17 139 -9 -3 2 -54 11 -115 19 -115 16 -269 18 -344 5z"/>
<path d="M3248 1333 c7 -3 16 -2 19 1 4 3 -2 6 -13 5 -11 0 -14 -3 -6 -6z"/>
<path d="M2520 1310 l-25 -8 25 0 c14 0 34 3 45 8 l20 9 -20 -1 c-11 0 -31 -4
-45 -8z"/>
<path d="M2159 1276 c6 -7 33 -22 59 -31 l47 -19 -34 -13 c-133 -55 -577 -113
-676 -90 -26 6 -28 6 -10 -5 59 -35 495 18 695 84 36 12 103 30 150 39 70 15
74 17 25 11 -112 -13 -178 -8 -219 16 -43 25 -53 28 -37 8z"/>
</g>
</svg>
