<?xml version="1.0" standalone="no"?>
<!DOCTYPE svg PUBLIC "-//W3C//DTD SVG 20010904//EN"
 "http://www.w3.org/TR/2001/REC-SVG-20010904/DTD/svg10.dtd">
<svg version="1.0" xmlns="http://www.w3.org/2000/svg"
 width="1280.000000pt" height="720.000000pt" viewBox="0 0 1280.000000 720.000000"
 preserveAspectRatio="xMidYMid meet">
<metadata>
Created by potrace 1.16, written by Peter Selinger 2001-2019
</metadata>
<g transform="translate(0.000000,720.000000) scale(0.100000,-0.100000)"
fill="#000000" stroke="none">
<path d="M0 3600 l0 -3600 109 0 109 0 7 33 c4 17 19 75 35 127 16 52 40 145
54 205 23 98 44 170 91 315 8 25 17 63 21 85 4 22 11 45 16 52 6 8 5 50 -2
115 -15 130 -14 136 8 189 25 57 63 94 128 125 29 13 72 42 95 63 l44 39 6
193 c8 242 18 286 74 314 46 24 189 81 225 90 14 4 54 22 90 40 80 41 189 75
362 115 135 31 248 63 274 78 11 6 4 13 -26 26 -61 27 -155 119 -186 183 -63
127 -39 377 67 696 32 98 59 190 59 205 0 15 6 47 14 72 7 25 19 133 26 240
14 211 9 423 -16 725 -8 99 -23 293 -34 430 -29 362 -39 442 -66 518 -73 208
-73 546 1 840 48 189 149 424 260 605 42 68 58 77 26 14 -32 -62 -13 -57 31 8
80 121 298 292 518 409 l95 51 -1257 0 -1258 0 0 -3600z"/>
<path d="M2485 7171 c-265 -139 -488 -311 -577 -446 -34 -52 -44 -62 -51 -49
-8 14 -12 12 -29 -12 -39 -59 -131 -250 -173 -363 -80 -215 -115 -411 -115
-643 0 -161 17 -279 54 -385 27 -76 37 -156 66 -518 11 -137 26 -331 34 -430
25 -302 30 -514 16 -725 -7 -107 -19 -215 -26 -240 -8 -25 -14 -58 -14 -73 0
-15 -27 -107 -59 -205 -107 -320 -130 -572 -66 -691 33 -60 124 -149 181 -176
22 -10 42 -23 46 -29 9 -14 -93 -47 -287 -92 -177 -42 -310 -84 -362 -117 -21
-12 -72 -33 -113 -46 -41 -13 -102 -37 -136 -52 -34 -16 -65 -29 -71 -29 -18
0 -44 -37 -55 -77 -6 -21 -13 -127 -17 -237 l-6 -198 -42 -38 c-24 -21 -67
-49 -95 -63 -64 -30 -104 -68 -130 -123 -23 -49 -23 -51 -8 -177 9 -82 8 -104
-5 -142 -8 -25 -15 -51 -15 -58 0 -7 -18 -68 -40 -137 -22 -69 -52 -174 -66
-235 -14 -60 -38 -153 -54 -205 -15 -52 -31 -110 -35 -127 l-7 -33 465 0 465
0 11 68 c16 94 38 167 71 237 15 33 36 102 45 154 21 111 71 257 124 363 22
43 37 79 33 81 -4 3 -46 17 -95 32 -54 17 -87 33 -87 41 0 8 8 14 18 14 13 0
14 -2 4 -9 -13 -8 14 -21 126 -56 28 -9 52 -20 52 -24 0 -4 -19 -46 -43 -92
-66 -128 -137 -352 -137 -432 0 -14 -14 -51 -31 -83 -31 -59 -61 -158 -73
-246 l-7 -48 82 0 81 0 -6 32 c-17 91 -17 166 -1 309 38 348 92 494 253 687
55 65 42 70 -14 5 l-41 -46 -65 94 c-36 52 -73 110 -81 129 -13 29 -16 31 -16
13 -1 -13 32 -72 74 -133 41 -61 75 -116 75 -123 0 -6 -7 -20 -15 -31 -14 -18
-17 -18 -105 9 -49 16 -88 30 -86 32 2 3 41 -7 86 -22 46 -14 83 -24 84 -23 1
2 8 11 15 20 11 15 3 31 -58 120 -74 107 -101 178 -67 178 9 0 16 -6 16 -14 0
-8 33 -64 74 -125 l73 -109 37 44 c33 39 66 58 66 37 0 -5 -27 -42 -60 -83
-33 -41 -60 -78 -60 -83 0 -5 -11 -23 -24 -40 -76 -101 -120 -257 -151 -527
-18 -163 -19 -216 -3 -292 l12 -58 2047 0 2047 0 6 22 c18 68 0 508 -40 998
-28 354 -28 350 -13 350 31 0 99 -794 99 -1157 l0 -213 660 0 660 0 11 28 c6
15 23 70 37 122 24 88 26 111 26 310 l1 215 -38 105 c-44 122 -54 157 -33 115
l15 -30 -5 30 c-4 27 -3 26 14 -10 26 -54 37 -95 22 -75 -10 12 -11 10 -6 -10
3 -14 6 -29 7 -35 0 -5 4 -1 8 9 6 15 12 5 27 -45 16 -55 19 -94 18 -279 0
-204 -2 -220 -28 -310 -15 -52 -30 -105 -33 -118 l-5 -22 406 0 c249 0 406 4
406 9 0 25 -44 236 -66 316 -26 97 -30 177 -10 240 11 37 14 40 53 43 62 5
257 -82 436 -195 40 -25 271 -143 280 -143 3 0 60 -26 128 -59 123 -58 350
-151 467 -190 47 -16 87 -21 168 -21 59 0 105 2 103 5 -3 2 -79 30 -170 60
-268 92 -522 190 -677 261 -41 19 -75 34 -77 34 -2 0 -96 45 -209 100 -215
104 -299 140 -328 140 -36 0 -19 29 19 32 38 3 55 21 29 31 -8 3 -43 2 -78 -3
-34 -5 -98 -10 -140 -10 -68 0 -83 4 -140 34 -35 18 -108 64 -163 101 -55 38
-134 92 -176 121 -54 36 -84 50 -100 47 -13 -2 -57 7 -98 21 -40 14 -77 23
-82 20 -5 -3 -9 -1 -9 4 0 5 -24 18 -52 29 -60 22 -104 48 -361 218 -424 281
-551 376 -782 586 -204 185 -307 287 -549 542 -267 282 -436 418 -834 671 -48
30 -62 53 -41 67 10 6 7 9 -13 9 -15 0 -31 7 -36 16 -5 9 -39 21 -81 30 -104
22 -239 62 -289 86 -71 34 -171 141 -248 265 -41 68 -74 111 -81 108 -7 -2
-44 27 -82 66 -38 38 -72 65 -75 60 -4 -5 28 -40 70 -78 42 -37 110 -113 150
-168 40 -55 83 -112 94 -127 29 -37 13 -42 -78 -23 -55 11 -86 13 -103 6 -23
-9 -22 -10 11 -12 19 -2 46 -2 60 -1 20 1 22 -1 10 -9 -11 -8 -7 -9 18 -5 41
7 162 -31 162 -50 0 -19 0 -19 -125 21 -60 19 -119 35 -131 35 -28 0 -54 10
-54 20 0 4 6 8 13 7 53 -2 38 8 -43 29 -52 13 -104 28 -115 34 -28 13 -135 48
-165 53 l-25 4 26 2 c14 0 70 -15 125 -35 79 -28 374 -104 407 -104 8 0 -6 21
-100 150 -55 77 -242 260 -264 260 -13 0 -11 46 3 92 12 40 76 98 108 98 8 0
25 7 36 15 40 27 101 33 272 25 135 -6 174 -11 196 -25 40 -26 191 -33 247
-11 58 23 156 95 246 180 l76 72 -211 42 c-416 82 -580 159 -792 372 -89 88
-162 188 -312 425 -40 64 -131 257 -192 409 -20 50 -47 106 -60 125 -84 127
-148 263 -182 394 -10 37 -21 67 -24 67 -4 0 -26 -29 -50 -64 -26 -38 -53 -67
-67 -71 -27 -6 -80 19 -147 70 -26 19 -51 33 -56 30 -4 -3 -26 -36 -48 -75
-23 -38 -66 -101 -97 -140 -53 -67 -58 -70 -98 -70 -24 0 -69 13 -107 30 l-65
29 -18 -42 c-10 -23 -32 -94 -49 -157 -30 -113 -30 -119 -25 -290 4 -118 12
-205 25 -266 23 -108 140 -473 157 -494 7 -8 28 -44 47 -80 110 -206 185 -342
220 -392 47 -70 189 -220 280 -296 71 -58 86 -85 21 -36 -67 50 -268 257 -310
319 -35 53 -109 184 -221 395 -19 36 -38 70 -43 76 -16 20 -138 406 -160 504
-14 66 -22 148 -26 270 -5 173 -5 176 27 298 18 68 38 136 46 150 8 15 14 33
14 40 0 18 11 15 85 -18 37 -16 82 -30 101 -30 29 0 40 8 89 70 31 39 75 102
97 141 41 72 61 89 83 73 68 -52 158 -104 173 -100 9 3 38 37 65 76 32 47 52
67 62 64 8 -4 15 -13 15 -22 0 -67 103 -304 183 -422 16 -25 40 -70 53 -100
20 -47 30 -58 25 -27 0 4 3 7 9 7 14 0 12 -28 -2 -32 -8 -3 -6 -18 10 -51 12
-26 22 -50 22 -53 0 -11 122 -257 148 -298 259 -409 384 -538 642 -664 126
-62 212 -87 473 -138 118 -23 197 -43 197 -50 0 -15 -123 -130 -195 -184 -31
-23 -82 -53 -113 -67 -51 -23 -67 -25 -148 -21 -59 3 -103 11 -125 23 -26 13
-72 19 -197 25 -169 8 -205 5 -259 -23 -18 -10 -37 -17 -43 -17 -6 0 -29 -14
-50 -31 -59 -48 -80 -128 -39 -150 26 -14 48 3 31 23 -15 19 -33 68 -23 65 4
-1 20 12 35 30 20 24 43 36 97 50 48 12 64 19 49 23 -11 3 48 6 132 8 130 2
161 0 208 -16 31 -11 101 -22 160 -26 117 -8 157 1 240 54 26 17 58 30 72 30
28 0 133 104 237 235 73 93 181 205 197 205 27 0 212 250 252 340 45 101 52
122 52 146 0 14 7 64 17 110 14 74 21 89 50 114 36 32 64 38 81 18 29 -36 42
-124 42 -282 -1 -89 -5 -179 -9 -201 -5 -22 -11 -53 -15 -70 -6 -29 -6 -30 6
-5 40 83 55 126 48 135 -5 5 -9 62 -9 125 0 63 -4 145 -7 182 -5 47 -3 72 5
82 16 19 -9 69 -45 93 -19 12 -24 22 -19 37 3 12 22 86 42 166 62 259 57 469
-18 729 -67 229 -112 328 -226 496 -143 208 -212 285 -388 427 -60 49 -118 96
-128 104 -15 12 -156 14 -955 13 l-937 -2 -50 -26z m-435 -384 c0 -17 -20 -37
-37 -37 -16 0 -17 22 -1 38 16 16 38 15 38 -1z m3127 -1312 c0 -8 -4 -15 -9
-15 -4 0 -8 7 -8 15 0 8 4 15 8 15 5 0 9 -7 9 -15z m-2582 -245 c-104 -8 -167
-21 -251 -49 -32 -11 -122 -36 -199 -56 -178 -45 -175 -44 -175 -57 0 -6 7 -7
18 -3 18 9 242 60 437 101 66 13 147 27 180 29 50 4 46 2 -25 -9 -47 -8 -128
-24 -180 -35 -155 -34 -393 -88 -417 -96 -19 -6 -23 -4 -23 14 0 11 2 21 5 21
14 0 326 83 381 102 99 32 174 45 259 45 l80 0 -90 -7z m72 -16 c-3 -3 -12 -4
-19 -1 -8 3 -5 6 6 6 11 1 17 -2 13 -5z m57 -64 c10 -13 9 -13 -6 -1 -10 7
-18 21 -17 30 0 13 1 14 6 1 3 -8 11 -22 17 -30z m73 -55 c83 -110 133 -169
133 -156 0 25 31 8 48 -25 13 -26 21 -33 27 -24 4 7 2 16 -6 21 -9 6 -10 9 -2
9 7 0 17 -8 22 -17 6 -10 11 -12 11 -5 0 27 29 9 44 -28 20 -50 20 -70 1 -70
-8 0 -15 6 -15 14 0 8 -3 23 -6 33 -5 15 -4 15 5 3 9 -13 11 -13 11 1 0 8 -6
23 -13 34 -21 27 -31 2 -16 -40 11 -29 11 -37 0 -47 -11 -10 -12 -10 -7 -1 10
18 -15 96 -27 84 -5 -5 -2 -22 9 -42 14 -28 14 -32 2 -21 -9 7 -19 25 -23 39
-4 18 -9 23 -14 15 -5 -9 -11 -4 -19 13 -7 15 -8 24 -2 20 12 -7 12 -3 4 19
-3 9 -10 16 -16 16 -5 0 -7 -4 -4 -8 3 -5 -2 -9 -10 -9 -18 0 -214 240 -214
263 0 11 6 3 77 -91z m-28 -5 c14 -20 53 -68 85 -108 44 -54 66 -94 87 -154
16 -45 29 -91 28 -103 -1 -11 -5 -5 -10 15 -24 99 -58 169 -111 234 l-57 69
-93 4 c-51 3 -95 7 -97 9 -2 2 27 5 65 5 59 1 64 3 34 10 -28 6 -24 7 18 3 51
-5 53 -4 43 15 -12 22 -31 37 -31 24 0 -5 -20 -14 -45 -21 -60 -16 -81 -14
-30 3 55 18 25 18 -44 0 -72 -18 -182 -64 -156 -64 11 0 38 8 60 18 22 10 54
21 70 24 36 8 16 -2 -65 -31 -116 -43 -256 -95 -285 -108 -53 -23 -154 -54
-176 -54 -43 0 -11 23 71 49 47 16 130 46 185 68 196 78 241 94 310 112 95 26
113 23 144 -19z m-44 -70 c4 -6 2 -17 -5 -25 -9 -11 -5 -15 24 -21 42 -7 44
-17 14 -74 -52 -98 -185 -144 -265 -93 -19 12 -34 12 -120 -6 -54 -11 -132
-25 -173 -32 l-75 -12 34 -14 c82 -34 155 -45 261 -40 110 5 132 12 220 70 31
21 39 23 25 9 -11 -12 -45 -35 -75 -51 -30 -17 -48 -31 -40 -31 39 0 205 128
237 184 10 16 12 17 13 5 0 -27 -132 -144 -202 -178 -82 -40 -197 -55 -306
-39 -94 14 -137 15 -180 6 -31 -7 -33 -6 -30 15 3 20 -5 24 -67 40 -38 10 -73
24 -77 30 -17 26 19 37 267 83 170 31 279 67 405 133 105 55 106 55 115 41z
m246 -182 c2 5 15 -5 29 -22 14 -16 19 -27 13 -23 -8 5 -13 3 -13 -5 -1 -7 -7
1 -16 17 -12 26 -13 26 -9 5 4 -14 8 -43 10 -65 l4 -40 -8 41 c-5 22 -17 58
-25 80 -12 29 -12 34 -2 21 8 -10 16 -14 17 -9z m64 -104 c8 -20 15 -42 14
-48 0 -6 -4 -2 -9 9 l-9 20 0 -20 c0 -11 4 -29 9 -40 l9 -20 1 20 c2 22 50
-121 49 -145 -1 -8 -5 -4 -9 10 l-8 25 -2 -25 c-1 -14 -3 -20 -5 -15 -2 6 -15
51 -30 100 -15 50 -31 102 -37 117 -9 24 -5 48 7 48 3 0 12 -16 20 -36z m-55
-64 c1 37 19 -19 29 -93 13 -90 13 -174 1 -97 -5 29 -6 15 -3 -40 2 -46 7 -88
9 -92 3 -4 15 -8 27 -7 l22 0 -22 9 c-19 8 -23 16 -21 47 l1 38 4 -36 c4 -34
7 -37 66 -57 89 -32 94 -29 52 30 -36 49 -71 118 -60 118 2 0 11 -15 18 -32 8
-18 33 -57 55 -87 32 -42 39 -58 30 -68 -8 -10 -7 -13 5 -13 31 0 28 22 -11
73 -53 70 -72 100 -72 110 0 5 16 -15 36 -44 20 -30 47 -65 60 -80 13 -14 24
-30 24 -36 0 -7 14 -20 30 -30 30 -17 41 -43 19 -43 -7 0 -26 9 -43 19 -17 11
-56 26 -86 34 -77 22 -129 42 -142 55 -8 8 -12 55 -12 140 -1 70 -3 109 -6 87
l-5 -40 -8 57 c-4 31 -10 65 -13 75 -5 15 -4 15 5 3 9 -13 11 -13 11 0z m-880
-89 c0 -31 -15 -71 -26 -71 -16 0 -17 5 -8 49 6 27 34 46 34 22z m59 -83 c1
-10 -6 -18 -14 -18 -8 0 -15 6 -15 14 0 8 -3 23 -6 33 -5 15 -4 15 5 3 9 -13
11 -12 12 5 l0 20 9 -20 c5 -11 9 -28 9 -37z m61 34 c0 -5 -7 -9 -15 -9 -8 0
-15 4 -15 9 0 4 7 8 15 8 8 0 15 -4 15 -8z m-70 -172 c0 -13 -5 -18 -15 -14
-8 4 -15 12 -15 20 0 8 7 14 15 14 8 0 15 -9 15 -20z m-55 -102 c3 -7 -1 -4
-9 6 -9 11 -16 29 -15 40 1 17 2 16 9 -6 4 -14 11 -32 15 -40z m23 -3 c-3 -3
-9 2 -12 12 -6 14 -5 15 5 6 7 -7 10 -15 7 -18z m12 -45 c0 9 9 2 20 -15 24
-36 25 -45 6 -45 -8 0 -23 18 -35 40 -23 45 -28 69 -6 30 9 -15 14 -19 15 -10z
m1377 -246 c-3 -3 -12 -4 -19 -1 -8 3 -5 6 6 6 11 1 17 -2 13 -5z m-1039 -187
c4 -18 -22 -24 -33 -7 -4 6 1 7 12 4 16 -5 15 -3 -2 11 -20 17 -20 17 0 13 11
-2 21 -11 23 -21z m62 -32 c6 -8 9 -18 6 -23 -3 -6 6 -13 20 -16 15 -4 23 -10
20 -14 -10 -9 -96 40 -96 55 0 18 35 16 50 -2z m199 -113 c60 -38 173 -80 274
-103 31 -8 57 -17 57 -22 0 -5 -9 -5 -21 -2 -12 4 -49 15 -83 25 -150 44 -257
94 -302 142 l-29 31 34 -24 c18 -13 50 -34 70 -47z m-98 41 c13 -15 12 -15 -8
-4 -24 12 -29 21 -14 21 5 0 15 -7 22 -17z m-96 -58 c-4 -31 -9 -54 -12 -51
-3 2 -1 30 2 61 4 31 9 54 12 51 3 -2 1 -30 -2 -61z m-17 -98 c4 -228 8 -246
176 -711 92 -253 116 -343 116 -432 0 -41 -4 -54 -15 -54 -11 0 -15 12 -15 48
0 64 -25 154 -104 372 -182 503 -191 539 -183 734 6 117 14 196 21 196 0 0 2
-69 4 -153z m1107 -247 l20 -9 -20 0 c-11 0 -27 4 -35 9 -13 9 -13 10 0 9 8 0
24 -4 35 -9z m560 -200 c7 -11 152 -110 161 -110 7 0 217 -144 269 -184 136
-104 305 -258 451 -413 93 -98 204 -213 246 -256 l78 -79 -6 -52 c-4 -28 -1
-78 6 -110 16 -78 -3 -130 -68 -184 -46 -38 -49 -39 -147 -45 -100 -7 -144
-16 -375 -80 -69 -19 -154 -40 -190 -47 -36 -7 -81 -23 -100 -36 -20 -13 -63
-35 -97 -48 -65 -25 -318 -159 -344 -182 -38 -33 -42 -20 -36 109 5 114 24
253 33 244 2 -2 -3 -48 -11 -103 -8 -54 -15 -135 -15 -178 0 -75 1 -78 18 -64
26 23 248 141 327 174 39 16 90 41 115 55 25 15 74 32 110 39 36 7 121 28 190
47 228 63 274 73 371 80 94 6 98 7 142 44 24 21 52 55 62 75 15 32 15 44 5
100 -7 36 -10 87 -6 114 6 42 4 50 -13 59 -10 6 -95 93 -188 193 -92 101 -206
220 -253 264 -171 163 -393 337 -577 450 -43 26 -99 64 -125 85 l-47 36 -83
-30 c-79 -29 -90 -31 -238 -31 -145 -1 -159 1 -217 25 l-62 26 6 -87 c8 -128
7 -131 -89 -178 -46 -23 -94 -44 -108 -48 -14 -4 -38 -17 -55 -28 -38 -28
-114 -61 -295 -131 -80 -31 -147 -61 -151 -66 -3 -6 -9 -88 -13 -182 -13 -332
-32 -468 -95 -687 -17 -57 -27 -107 -23 -111 4 -4 16 -9 27 -12 15 -4 14 -5
-7 -6 -15 0 -30 3 -33 9 -3 5 10 65 29 132 62 219 79 340 91 658 8 214 9 217
48 228 30 9 161 60 302 118 33 14 80 38 105 54 25 16 56 32 70 35 14 4 61 26
105 49 l80 41 -1 113 c-2 118 2 126 43 97 38 -26 134 -45 234 -45 114 0 179
11 257 44 66 28 78 30 87 16z m-329 -477 c-15 -4 -16 -7 -5 -14 11 -7 10 -9
-4 -9 -25 0 -14 -14 49 -61 30 -22 71 -43 90 -46 18 -3 34 -11 34 -18 0 -17
-35 -25 -69 -15 -29 8 -131 77 -131 88 -1 4 -9 17 -19 29 l-18 21 -194 -29
c-213 -32 -477 -45 -619 -32 -66 6 -29 8 165 9 227 1 268 4 450 32 l200 31 30
-34 c65 -74 153 -125 184 -106 9 6 2 11 -25 16 -53 9 -149 84 -148 114 1 22
-1 23 -60 17 -34 -4 -135 -18 -226 -31 -198 -28 -381 -38 -510 -27 -81 6 -65
8 115 8 203 0 283 8 595 57 36 6 139 6 116 0z m839 0 c-73 -3 -467 -66 -443
-71 9 -2 100 11 203 28 105 17 208 29 238 27 l52 -3 -55 -2 c-30 -1 -149 -18
-263 -37 -189 -31 -213 -37 -265 -69 -31 -19 -70 -37 -87 -41 -16 -4 15 16 70
45 60 32 88 50 69 47 -17 -3 -58 -22 -90 -41 -33 -20 -63 -36 -69 -36 -17 0
77 59 120 76 69 26 413 82 500 81 62 -1 66 -1 20 -4z m-1933 -362 c5 9 6 3 2
-16 -11 -44 -46 -97 -97 -141 -52 -45 -208 -141 -245 -151 -51 -12 -15 22 91
87 58 36 130 88 159 115 45 43 47 44 18 10 -41 -48 -96 -91 -173 -135 -61 -34
-73 -54 -15 -25 50 26 150 94 176 121 34 36 72 95 72 113 -1 11 -5 8 -15 -9
-18 -31 -19 -21 -3 16 7 14 14 21 16 14 3 -9 7 -9 14 1z m45 -343 c-3 -7 -5
-2 -5 12 0 14 2 19 5 13 2 -7 2 -19 0 -25z m-20 -15 c-3 -10 -5 -4 -5 12 0 17
2 24 5 18 2 -7 2 -21 0 -30z m2614 -198 c-8 -53 -33 -60 -29 -8 2 24 8 37 16
36 6 -2 12 2 12 9 0 6 2 9 4 7 2 -2 1 -22 -3 -44z m-1359 -87 c-27 -44 -68
-175 -86 -273 -8 -44 -15 -68 -15 -53 -2 69 64 305 96 341 25 27 27 20 5 -15z
m-582 -114 c210 -46 253 -67 437 -213 38 -30 46 -52 9 -24 -233 178 -243 183
-446 227 -257 56 -537 64 -670 18 -81 -28 -82 -28 -87 -15 -4 12 46 43 69 42
7 0 -4 -7 -24 -16 -21 -8 -38 -19 -38 -24 0 -6 9 -5 21 1 125 68 432 69 729 4z
m-893 -46 c-15 -42 -14 -57 3 -23 22 46 27 29 6 -18 -106 -234 -143 -393 -153
-662 -7 -188 5 -319 49 -525 36 -171 43 -209 28 -165 -21 62 -69 314 -81 420
-21 197 2 531 47 668 9 26 14 52 12 58 -7 20 -58 -161 -73 -256 -43 -273 -22
-567 57 -813 17 -51 28 -95 25 -98 -7 -7 -57 162 -77 261 -44 219 -48 434 -14
654 13 82 58 246 84 306 4 11 25 62 46 113 21 50 40 92 42 92 2 0 2 -6 -1 -12z
m4286 -460 c-2 -5 1 -8 8 -8 7 0 10 -3 7 -6 -4 -3 -19 1 -35 9 l-28 15 27 -1
c14 -1 24 -5 21 -9z m269 -104 c16 -8 27 -18 25 -21 -10 -10 -67 38 -66 55 1
15 2 15 6 -1 2 -9 18 -24 35 -33z"/>
<path d="M2020 6775 c-7 -9 -8 -15 -2 -15 5 0 12 7 16 15 3 8 4 15 2 15 -2 0
-9 -7 -16 -15z"/>
<path d="M3071 4824 c0 -11 3 -14 6 -6 3 7 2 16 -1 19 -3 4 -6 -2 -5 -13z"/>
<path d="M2698 5113 c7 -3 16 -2 19 1 4 3 -2 6 -13 5 -11 0 -14 -3 -6 -6z"/>
<path d="M2750 5060 l-25 -8 28 -1 c15 -1 27 4 27 9 0 6 -1 10 -2 9 -2 -1 -14
-5 -28 -9z"/>
<path d="M2330 4994 c-47 -19 -130 -51 -185 -69 -55 -19 -91 -35 -80 -35 19 0
150 47 305 109 41 16 68 30 60 30 -8 0 -53 -16 -100 -35z"/>
<path d="M2615 4969 c-119 -63 -239 -102 -415 -134 -181 -33 -243 -48 -247
-62 -4 -12 89 -43 127 -43 18 0 21 -4 16 -24 -6 -23 -5 -24 37 -14 30 7 58 6
97 -3 60 -13 238 -15 282 -2 17 5 -26 8 -110 8 -119 0 -146 3 -207 24 -108 37
-108 45 -1 60 50 7 134 22 186 33 86 18 97 19 125 5 51 -26 81 -28 127 -8 59
25 106 66 123 108 8 20 15 37 15 39 0 2 -16 6 -35 10 -36 6 -44 21 -23 42 21
21 -4 11 -97 -39z m-555 -207 c0 -4 -9 -8 -20 -8 -11 0 -20 4 -20 8 0 4 9 8
20 8 11 0 20 -4 20 -8z"/>
<path d="M3011 4750 c0 -8 4 -22 9 -30 12 -18 12 -2 0 25 -6 13 -9 15 -9 5z"/>
<path d="M3056 4610 c4 -19 11 -44 15 -55 6 -14 7 -9 3 15 -4 19 -11 44 -15
55 -6 14 -7 9 -3 -15z"/>
<path d="M2982 4635 c0 -16 2 -22 5 -12 2 9 2 23 0 30 -3 6 -5 -1 -5 -18z"/>
<path d="M3080 4325 c36 -19 96 -29 104 -17 3 6 -2 8 -11 6 -10 -3 -38 2 -62
11 -53 18 -64 19 -31 0z"/>
<path d="M3220 4292 c0 -12 50 -46 56 -39 3 3 -9 15 -25 27 -17 12 -31 17 -31
12z"/>
<path d="M2076 4554 c-4 -14 -5 -28 -3 -31 3 -2 8 8 11 23 4 14 5 28 3 31 -3
2 -8 -8 -11 -23z"/>
<path d="M2141 4504 c0 -11 3 -14 6 -6 3 7 2 16 -1 19 -3 4 -6 -2 -5 -13z"/>
<path d="M2137 4180 c3 -11 9 -20 15 -20 5 0 4 9 -2 20 -6 11 -12 20 -14 20
-2 0 -2 -9 1 -20z"/>
<path d="M2510 3740 c0 -5 5 -10 11 -10 5 0 7 5 4 10 -3 6 -8 10 -11 10 -2 0
-4 -4 -4 -10z"/>
<path d="M2502 3435 c-2 -170 0 -178 190 -715 77 -215 88 -254 98 -335 l7 -60
2 52 c1 70 -22 174 -64 287 -19 52 -35 97 -35 101 0 4 -6 21 -14 38 -20 45
-122 338 -147 422 -13 44 -23 118 -28 200 l-8 130 -1 -120z"/>
<path d="M2426 1945 c-11 -8 -15 -15 -10 -15 6 0 19 7 30 15 10 8 15 14 9 14
-5 0 -19 -6 -29 -14z"/>
<path d="M5382 1675 c0 -16 2 -22 5 -12 2 9 2 23 0 30 -3 6 -5 -1 -5 -18z"/>
<path d="M2510 1285 c-17 -48 -30 -88 -28 -91 3 -2 19 35 37 82 18 47 31 88
28 90 -2 2 -19 -34 -37 -81z"/>
<path d="M4487 7156 c108 -82 240 -200 299 -269 149 -173 276 -381 337 -553
128 -358 147 -598 74 -904 -19 -80 -38 -152 -41 -161 -5 -11 1 -22 18 -33 33
-21 61 -85 48 -107 -12 -19 -3 -299 9 -299 5 0 19 -23 31 -52 12 -29 55 -93
95 -142 58 -72 72 -96 68 -114 -3 -13 -2 -21 3 -18 5 3 18 -1 28 -10 18 -14
18 -15 -3 -5 -20 10 -23 5 -62 -105 -43 -120 -55 -187 -25 -130 9 15 27 67 40
115 14 47 27 92 29 99 6 18 78 -22 112 -63 23 -26 25 -35 19 -84 -4 -31 -18
-99 -33 -151 -32 -118 -39 -159 -25 -145 17 16 62 203 69 286 6 74 5 76 -27
112 -38 44 -60 118 -60 205 0 81 18 125 59 142 30 12 34 11 62 -16 17 -16 49
-60 71 -99 22 -38 67 -110 99 -160 32 -49 68 -112 79 -138 l21 -48 -29 -62
c-17 -34 -62 -100 -102 -147 -82 -98 -196 -251 -193 -261 1 -3 -9 -35 -21 -70
-88 -239 -110 -280 -150 -278 -21 0 -21 0 -1 9 12 4 27 16 35 25 26 31 113
248 124 310 2 11 5 25 7 30 1 6 -3 21 -9 35 -9 22 -11 22 -11 5 -1 -12 -15 7
-34 45 -43 86 -117 198 -162 249 -21 23 -68 62 -106 87 -38 25 -72 50 -76 57
-4 6 24 -10 61 -36 38 -27 70 -46 73 -43 6 6 -83 72 -119 88 -15 7 -30 18 -33
25 -5 15 11 18 19 4 4 -5 37 -29 74 -54 72 -48 111 -83 76 -71 -12 5 -4 -7 18
-29 20 -21 51 -58 69 -83 17 -25 33 -43 36 -40 3 3 -12 29 -32 58 -21 29 -30
46 -20 38 24 -19 108 -150 102 -157 -3 -3 -13 9 -22 27 -9 18 -19 30 -21 27
-3 -3 2 -18 11 -34 9 -15 32 -55 51 -88 38 -69 43 -69 13 0 -23 53 -23 60 14
195 14 52 29 119 33 148 6 47 4 56 -17 78 -25 27 -88 69 -93 63 -2 -2 -14 -38
-25 -79 -12 -41 -29 -94 -37 -118 -16 -44 -37 -51 -42 -16 -2 16 37 142 73
235 4 12 -19 48 -72 115 -84 106 -104 141 -97 170 3 11 -2 28 -10 39 -15 19
-15 19 -16 -8 0 -16 4 -37 10 -47 7 -13 2 -35 -21 -85 -33 -74 -99 -276 -99
-305 0 -10 4 -22 10 -25 6 -4 7 1 4 12 -5 15 -4 16 5 3 6 -8 11 -18 11 -22 0
-14 -23 -8 -35 8 -12 17 1 77 39 183 18 48 22 88 7 61 -5 -8 -21 -52 -36 -98
-19 -56 -31 -79 -39 -73 -6 5 -22 12 -36 16 -22 6 -21 4 6 -13 42 -27 51 -42
30 -54 -9 -5 -16 -16 -16 -25 0 -14 2 -14 16 3 14 17 15 17 10 1 -3 -10 -6
-21 -6 -23 0 -2 -7 -4 -15 -4 -19 0 -19 34 0 53 13 13 11 17 -13 34 -22 15
-54 19 -172 24 l-145 5 145 4 145 4 -140 6 -140 6 133 2 c99 1 142 -2 169 -13
43 -18 43 -18 43 -2 0 6 19 62 42 122 l42 110 1 210 c0 191 -2 214 -20 249
-11 22 -25 42 -32 44 -7 2 -28 -12 -47 -30 -30 -28 -38 -45 -51 -108 -8 -41
-15 -87 -15 -102 0 -46 -58 -181 -114 -265 -71 -106 -174 -233 -190 -233 -16
0 -124 -112 -197 -205 -31 -39 -91 -107 -133 -153 -60 -63 -84 -82 -105 -82
-14 0 -42 -11 -61 -23 -19 -13 -62 -34 -95 -46 -54 -20 -70 -22 -165 -15 -58
3 -129 15 -159 25 -92 32 -283 23 -404 -19 -33 -12 -60 -30 -80 -55 l-30 -36
39 -48 c59 -74 128 -138 144 -136 10 2 40 -37 82 -104 138 -223 211 -278 448
-337 52 -13 111 -27 132 -30 20 -4 39 -13 42 -21 3 -8 17 -15 31 -15 27 0 32
-9 14 -27 -12 -12 16 -35 117 -98 354 -221 481 -331 974 -842 190 -197 476
-457 625 -567 191 -143 601 -419 782 -526 52 -31 260 -110 289 -110 20 0 8 19
-20 30 -12 5 -15 9 -6 9 18 1 95 -47 292 -180 185 -123 198 -132 232 -146 33
-15 144 -17 233 -4 78 12 105 6 101 -23 -2 -17 -11 -22 -43 -24 -40 -4 -39 -4
40 -31 44 -16 166 -70 270 -121 202 -98 358 -170 440 -202 28 -11 64 -26 80
-33 59 -27 273 -105 465 -169 l195 -66 1763 0 1762 0 0 1209 0 1210 -92 44
c-51 24 -113 53 -138 65 -25 11 -108 50 -186 85 -277 129 -443 185 -704 237
-52 11 -147 30 -210 44 -253 54 -297 57 -695 53 -313 -3 -390 -7 -500 -24 -71
-11 -166 -24 -209 -27 -156 -14 -313 -51 -566 -136 -63 -21 -164 -53 -225 -70
-60 -17 -220 -70 -355 -116 -273 -95 -418 -134 -500 -134 -66 0 -220 47 -199
61 12 7 11 9 -1 9 -8 0 -32 9 -53 20 -44 24 -46 24 -43 5 1 -9 15 -22 30 -30
15 -8 41 -26 58 -40 30 -25 55 -34 43 -15 -3 6 1 7 9 4 19 -7 11 -24 -10 -24
-9 0 -30 11 -47 24 -18 13 -50 34 -72 46 -22 13 -76 43 -120 67 -44 25 -140
74 -212 110 -73 36 -133 71 -133 78 0 7 -10 15 -22 18 -13 3 -86 29 -163 57
-308 113 -679 214 -948 260 -62 11 -150 26 -197 35 -47 9 -101 18 -120 21 -19
3 -51 9 -70 14 -19 5 -73 16 -120 25 -89 18 -275 70 -370 104 -144 51 -197 77
-296 141 -12 8 -54 34 -93 58 -38 24 -74 49 -79 55 -11 13 -26 77 -19 77 25 0
146 -89 175 -129 20 -28 52 -46 37 -21 -3 6 -1 10 4 10 6 0 11 -7 11 -15 0
-27 -24 -16 -78 35 -29 27 -59 47 -66 44 -8 -3 -17 -1 -21 5 -3 7 0 8 9 5 28
-11 17 3 -25 30 l-41 27 7 -23 c4 -13 12 -29 18 -36 14 -17 63 -43 71 -37 3 3
4 2 1 -2 -5 -6 90 -73 105 -73 4 0 14 -8 21 -17 44 -53 395 -181 624 -227 73
-15 102 -21 235 -47 65 -12 150 -27 277 -49 264 -45 617 -141 953 -261 80 -28
155 -53 168 -56 12 -3 22 -12 22 -20 0 -17 66 -47 82 -37 6 4 -8 15 -33 25
-24 10 -39 18 -33 18 5 1 39 -10 74 -24 82 -32 93 -31 50 5 -127 107 -758 321
-1146 389 -60 10 -242 42 -404 70 -318 55 -391 70 -517 107 -69 20 -84 29
-101 57 -118 193 -152 252 -152 267 0 9 50 101 110 205 61 104 110 192 110
196 0 4 21 28 46 54 67 70 118 167 117 225 -1 41 -10 61 -70 151 -38 57 -87
135 -109 174 -46 83 -99 145 -125 145 -41 0 -71 -25 -101 -83 -26 -52 -29 -68
-26 -127 2 -38 0 -66 -4 -63 -5 2 -8 33 -8 68 0 114 63 215 135 215 37 0 82
-49 140 -150 27 -47 77 -127 112 -178 35 -51 63 -101 63 -112 0 -14 5 -18 18
-14 10 4 13 3 6 -3 -6 -4 -15 -24 -19 -43 -11 -56 -72 -167 -113 -208 -21 -21
-52 -63 -68 -93 -17 -30 -70 -122 -118 -205 l-88 -152 18 -33 c53 -105 160
-262 184 -271 68 -26 244 -63 535 -114 176 -31 370 -65 430 -75 230 -40 648
-162 915 -266 126 -49 175 -75 264 -140 51 -38 55 -43 32 -43 -14 0 -44 7 -66
16 -34 14 -44 14 -53 4 -10 -10 -8 -12 6 -7 10 4 16 3 13 -2 -7 -10 22 -24 34
-16 12 8 81 -22 195 -85 55 -30 106 -53 113 -52 7 2 27 -6 45 -16 58 -36 191
-65 260 -58 69 7 247 53 262 67 5 5 15 9 23 9 13 0 154 52 217 80 38 16 170
59 340 111 94 28 229 71 300 94 167 56 315 90 490 110 77 9 196 25 265 36 188
28 765 28 965 -2 178 -26 552 -104 677 -141 l68 -20 132 62 c246 116 374 160
556 190 l72 12 0 2054 0 2054 -4186 0 -4186 0 59 -44z m996 -2606 c2 -47 0
-76 -4 -65 -4 11 -8 54 -8 95 1 95 6 80 12 -30z m153 -1185 c13 -13 13 -15 1
-15 -8 0 -17 7 -21 15 -3 8 -3 15 0 15 3 0 12 -7 20 -15z"/>
<path d="M5534 4746 c-24 -20 -28 -32 -32 -91 -6 -93 12 -166 55 -222 35 -46
36 -47 30 -122 -6 -68 -57 -295 -70 -307 -3 -3 3 -24 13 -47 9 -23 20 -50 24
-60 5 -15 17 -3 64 60 32 43 87 112 121 153 72 86 111 143 121 180 8 31 -25
105 -96 210 -28 41 -68 107 -89 145 -33 62 -87 123 -107 125 -4 0 -19 -11 -34
-24z"/>
<path d="M5250 4755 c0 -17 44 -88 82 -131 24 -27 54 -62 66 -78 12 -16 22
-25 22 -20 0 14 -28 52 -78 108 -24 28 -52 67 -63 88 -18 34 -29 47 -29 33z"/>
<path d="M3604 3305 c38 -14 71 -23 73 -21 5 4 -75 34 -112 41 -16 3 1 -6 39
-20z"/>
<path d="M12675 3060 c-180 -36 -269 -69 -530 -196 -102 -49 -105 -50 -166
-29 -84 30 -500 118 -684 144 -200 30 -777 30 -965 2 -69 -11 -188 -27 -265
-36 -172 -20 -322 -53 -480 -106 -66 -23 -208 -67 -315 -100 -180 -55 -462
-153 -485 -169 -17 -12 -206 -69 -280 -85 -89 -19 -137 -19 -199 0 -79 24 -88
16 -12 -11 43 -14 92 -24 127 -24 77 0 251 46 439 115 149 55 292 101 468 151
46 13 143 43 215 68 216 73 370 109 523 122 43 3 138 16 209 27 110 17 187 21
500 24 398 4 442 1 695 -53 63 -14 158 -33 210 -44 248 -50 481 -127 695 -230
87 -41 135 -64 295 -135 58 -26 111 -52 118 -57 9 -8 12 -3 12 18 0 26 -8 32
-78 65 -42 20 -106 49 -142 64 -36 16 -105 48 -155 72 -100 49 -178 83 -275
118 -36 13 -55 24 -42 25 12 0 30 -4 40 -10 9 -5 56 -25 103 -44 47 -19 119
-50 160 -69 171 -80 208 -96 281 -127 43 -17 80 -36 84 -41 20 -32 24 15 24
266 0 151 -2 275 -6 275 -41 0 -361 -91 -389 -110 -5 -4 -21 -11 -35 -15 -13
-4 -58 -23 -98 -42 -94 -43 -175 -74 -180 -68 -3 2 6 8 19 14 13 5 58 24 99
41 212 92 321 130 473 165 64 15 117 31 117 36 0 12 -19 10 -125 -11z"/>
<path d="M7821 2686 c2 -2 33 -19 69 -39 36 -19 100 -53 143 -77 43 -23 80
-40 83 -37 5 5 -158 97 -240 135 -46 21 -65 27 -55 18z"/>
<path d="M5395 1285 c3 -44 13 -192 24 -330 32 -413 43 -632 40 -798 -3 -129
-2 -157 10 -157 11 0 13 48 8 293 -3 160 -13 380 -21 487 -18 215 -68 632 -61
505z"/>
<path d="M6830 860 c0 -8 5 -22 10 -30 9 -13 10 -13 10 0 0 8 -5 22 -10 30 -9
13 -10 13 -10 0z"/>
<path d="M6871 760 c-1 -3 6 -37 14 -75 20 -93 20 -336 0 -448 -8 -47 -26
-120 -39 -162 -13 -41 -21 -75 -17 -75 10 0 52 147 68 240 19 111 13 413 -10
480 -8 25 -15 43 -16 40z"/>
<path d="M7613 594 c-7 -3 -13 -10 -13 -15 0 -6 5 -7 10 -4 6 3 10 1 10 -4 0
-6 -6 -11 -14 -11 -35 0 -34 -110 3 -253 16 -62 36 -156 46 -209 l17 -98 641
0 c352 0 638 3 635 6 -6 5 -116 48 -213 83 -28 10 -77 30 -108 45 -32 14 -59
26 -62 26 -20 0 -456 215 -555 274 -204 122 -351 181 -397 160z"/>
</g>
</svg>
