<?xml version="1.0" standalone="no"?>
<!DOCTYPE svg PUBLIC "-//W3C//DTD SVG 20010904//EN"
 "http://www.w3.org/TR/2001/REC-SVG-20010904/DTD/svg10.dtd">
<svg version="1.0" xmlns="http://www.w3.org/2000/svg"
 width="1280.000000pt" height="720.000000pt" viewBox="0 0 1280.000000 720.000000"
 preserveAspectRatio="xMidYMid meet">
<metadata>
Created by potrace 1.16, written by Peter Selinger 2001-2019
</metadata>
<g transform="translate(0.000000,720.000000) scale(0.100000,-0.100000)"
fill="#000000" stroke="none">
<path d="M0 3600 l0 -3600 143 0 143 0 19 58 c10 31 31 82 45 112 34 72 64
164 90 275 11 50 36 140 56 200 19 61 43 138 54 173 11 34 20 73 20 85 0 13 5
28 10 33 7 7 7 49 0 131 -11 120 -11 121 16 177 27 58 57 85 134 123 25 12 63
35 85 50 l40 29 6 179 c5 121 13 203 24 249 20 76 34 89 135 127 30 11 69 26
85 34 17 7 53 19 80 26 28 6 57 17 65 24 40 33 163 73 370 120 85 19 188 45
228 57 l73 21 -40 21 c-160 83 -228 198 -223 379 3 126 52 360 112 526 27 76
50 150 50 164 0 13 7 44 15 68 21 58 45 347 45 534 0 149 -20 519 -39 750 -6
66 -15 190 -21 275 -17 252 -21 281 -46 360 -44 137 -57 243 -51 443 7 268 61
498 174 737 14 30 36 78 49 105 23 49 43 82 97 163 15 23 27 46 27 51 0 16 28
33 35 21 4 -6 2 -9 -4 -8 -6 2 -22 -21 -35 -49 -32 -68 -17 -68 24 -1 30 49
126 151 181 193 108 82 142 107 203 143 l70 42 -1272 0 -1272 0 0 -3600z"/>
<path d="M2545 7187 c-62 -38 -205 -134 -238 -161 -79 -64 -175 -163 -206
-213 -31 -49 -61 -75 -61 -51 0 27 -32 -23 -90 -140 -152 -308 -209 -521 -217
-812 -6 -200 5 -298 47 -435 30 -93 33 -118 50 -375 6 -85 15 -209 21 -275 19
-231 39 -601 39 -750 0 -187 -24 -476 -45 -534 -8 -24 -15 -55 -15 -70 0 -15
-22 -88 -49 -162 -82 -224 -133 -513 -110 -621 13 -59 39 -117 77 -166 27 -36
121 -104 160 -116 63 -20 -17 -51 -306 -115 -156 -35 -248 -65 -317 -101 -27
-15 -63 -30 -80 -34 -75 -18 -267 -99 -284 -120 -27 -33 -42 -125 -47 -291 -3
-93 -7 -180 -10 -192 -4 -23 -72 -73 -130 -98 -57 -24 -100 -63 -128 -117 -26
-51 -27 -51 -16 -170 6 -68 6 -126 1 -136 -4 -9 -11 -33 -15 -52 -3 -19 -29
-105 -56 -190 -27 -85 -59 -195 -70 -245 -29 -122 -53 -199 -86 -270 -28 -60
-63 -154 -64 -167 0 -5 254 -8 565 -8 l564 0 -4 28 c-2 15 -9 99 -15 187 -6
88 -14 168 -17 179 -3 10 -1 16 4 13 6 -4 15 -89 22 -189 15 -212 16 -218 42
-218 18 0 19 5 13 53 -3 28 -10 68 -15 87 -24 93 -1 384 45 570 33 134 58 194
117 285 55 85 149 202 149 187 0 -6 -20 -32 -45 -60 -25 -27 -45 -53 -45 -56
0 -4 -24 -43 -54 -87 -78 -113 -119 -248 -150 -484 -18 -134 -21 -295 -6 -358
5 -23 12 -63 15 -89 l6 -48 2038 0 2038 0 7 52 c18 157 1 669 -40 1187 -8 106
-13 196 -10 199 4 3 6 -1 6 -9 0 -8 7 -95 15 -194 33 -414 47 -725 43 -977 -1
-142 0 -258 3 -258 24 0 34 301 20 570 -13 247 -25 403 -66 824 -2 27 -2 46 2
43 3 -4 12 -73 19 -154 7 -81 20 -224 28 -318 26 -293 39 -612 31 -760 -4 -77
-8 -153 -8 -170 -2 -27 1 -30 28 -32 l30 -2 -30 9 c-29 7 -29 8 -5 9 15 0 31
-4 36 -9 7 -7 223 -9 628 -8 l617 3 29 74 c37 94 60 187 70 276 l7 70 3 -60 3
-60 7 60 c7 59 7 59 8 13 3 -69 -36 -238 -83 -360 -7 -17 17 -18 415 -18 l422
0 -6 34 c-9 45 5 48 68 18 77 -37 135 -52 201 -52 67 0 62 9 -20 36 -85 27
-246 95 -284 119 -20 12 -98 55 -173 95 -76 40 -138 79 -138 86 0 19 23 17 67
-5 21 -11 70 -34 108 -51 39 -17 88 -40 110 -50 110 -50 308 -133 467 -196 87
-34 148 -44 148 -23 0 5 -4 8 -9 5 -5 -4 -7 3 -4 14 5 21 33 28 33 9 0 -5 -4
-7 -10 -4 -5 3 -10 1 -10 -4 0 -6 6 -11 14 -11 8 0 16 -5 18 -10 2 -7 34 -10
83 -8 l80 3 -55 19 c-30 11 -82 31 -115 46 -33 16 -93 40 -133 54 -41 14 -97
36 -125 47 -29 12 -70 28 -92 36 -22 9 -60 25 -85 36 -25 11 -67 28 -95 37
-27 10 -101 38 -162 63 -62 25 -148 58 -190 72 -43 15 -82 31 -88 36 -5 5 -17
9 -26 9 -10 0 -31 14 -48 32 -24 26 -32 29 -44 20 -12 -10 -23 -10 -53 1 -46
16 -192 107 -284 177 -70 54 -119 88 -135 94 -6 2 -5 8 2 16 10 10 18 10 45
-2 18 -9 77 -21 131 -28 54 -7 96 -15 93 -17 -8 -8 -189 19 -225 33 -48 20
-51 17 -9 -9 20 -12 71 -48 113 -80 127 -97 275 -187 275 -168 0 5 -36 30 -80
55 -44 26 -80 49 -80 52 0 3 26 -9 58 -27 31 -18 69 -40 84 -49 16 -8 28 -20
28 -26 0 -15 28 -26 34 -15 8 13 -20 34 -120 90 -92 52 -110 60 -98 39 4 -7 3
-8 -5 -4 -6 4 -9 12 -6 17 4 5 1 9 -6 9 -7 0 -10 3 -6 6 15 16 283 -143 304
-180 7 -13 72 -41 213 -94 96 -36 194 -74 225 -87 17 -8 73 -30 125 -50 120
-46 167 -64 205 -81 17 -7 68 -27 113 -43 45 -17 114 -44 154 -61 40 -17 104
-42 142 -56 l69 -24 2104 0 2103 0 0 1364 0 1365 -57 11 c-72 14 -162 36 -368
89 -299 76 -518 107 -868 122 -227 10 -267 10 -330 -4 -40 -9 -124 -18 -187
-21 -106 -5 -335 -35 -540 -72 -47 -8 -110 -19 -140 -24 -174 -31 -265 -52
-495 -114 -204 -56 -414 -119 -450 -135 -20 -9 -55 -21 -250 -79 -220 -67
-304 -91 -385 -112 -47 -12 -98 -28 -115 -34 -56 -24 -101 -36 -150 -41 l-50
-5 60 14 c33 8 80 22 105 31 25 9 92 29 150 45 171 45 420 121 630 191 204 67
614 182 744 208 22 5 75 15 116 24 41 8 120 22 175 32 55 9 120 20 145 25 105
21 343 51 445 56 61 2 144 12 186 21 68 14 107 14 335 4 262 -11 371 -23 589
-61 120 -21 303 -61 360 -80 68 -21 317 -80 341 -80 2 0 4 22 4 48 l0 48 -62
17 c-35 10 -83 24 -108 31 -167 50 -432 111 -570 131 -58 8 -136 20 -175 26
-189 28 -712 19 -955 -16 -174 -26 -452 -85 -498 -106 -23 -11 -75 -26 -115
-34 -40 -9 -97 -22 -127 -30 -30 -8 -82 -21 -115 -29 -33 -8 -118 -31 -190
-51 -71 -20 -163 -45 -204 -56 -41 -11 -113 -34 -160 -51 -47 -16 -99 -33
-116 -38 -16 -4 -120 -37 -230 -74 -364 -120 -651 -182 -890 -193 l-130 -6
-104 84 c-236 191 -239 193 -526 343 -135 70 -281 121 -455 156 -58 11 -150
32 -205 45 -55 14 -212 47 -350 75 -137 28 -288 60 -335 71 -130 31 -340 105
-366 130 -26 25 -86 160 -110 252 -10 34 -17 100 -18 147 l-1 85 71 120 c135
228 156 260 195 300 21 22 54 72 74 110 49 93 44 138 -24 240 -27 39 -74 116
-105 171 -62 107 -110 164 -137 164 -41 0 -71 -25 -101 -83 -27 -54 -29 -67
-26 -138 3 -65 2 -79 -10 -76 -9 1 -19 -10 -24 -28 -5 -16 -14 -39 -19 -50
-24 -51 -57 -165 -48 -165 13 0 31 45 60 145 12 44 24 82 25 83 11 16 87 -42
119 -92 19 -29 13 -72 -36 -245 -27 -96 -31 -136 -9 -101 12 19 57 209 65 278
7 49 4 57 -22 95 -17 23 -37 64 -46 91 -19 56 -22 168 -6 214 11 31 47 62 72
62 24 0 74 -63 133 -165 31 -55 67 -114 81 -132 29 -39 83 -152 83 -173 0 -31
-49 -117 -101 -180 -135 -162 -193 -239 -215 -289 -13 -29 -24 -60 -24 -67 0
-8 -4 -22 -10 -32 -5 -9 -19 -39 -30 -67 -12 -27 -28 -66 -36 -85 -30 -71 -42
-85 -71 -87 -19 -1 -21 0 -6 4 26 5 43 29 73 103 12 30 31 75 42 100 11 25 29
72 39 105 11 32 27 71 36 84 21 33 123 160 189 236 52 60 104 146 104 171 0
19 -52 125 -81 166 -13 18 -51 81 -84 139 -33 59 -75 119 -93 134 -31 26 -33
26 -58 11 -34 -23 -44 -54 -44 -137 0 -77 25 -157 62 -196 19 -21 23 -35 22
-87 -2 -67 -45 -262 -69 -310 -13 -25 -13 -33 -2 -50 15 -23 38 -86 32 -86 -7
0 -55 113 -50 118 3 3 0 11 -5 17 -7 9 -2 44 19 116 42 149 54 215 43 236 -11
20 -47 53 -85 77 l-24 16 -28 -97 c-33 -117 -50 -149 -70 -133 -26 22 -24 -7
4 -41 15 -19 40 -52 54 -74 15 -22 27 -33 27 -25 0 8 -18 39 -40 68 -40 53
-46 75 -6 25 24 -30 86 -131 86 -140 0 -3 -9 5 -20 18 -25 31 -26 15 -1 -20
19 -26 71 -137 71 -150 0 -3 -25 40 -55 97 -90 168 -139 227 -265 312 -33 22
-60 43 -60 46 0 3 6 2 13 -2 31 -19 114 -78 133 -95 11 -11 24 -19 29 -19 18
0 -32 43 -112 96 -47 31 -82 58 -80 60 5 5 139 -85 179 -121 20 -18 30 -22 33
-13 2 7 22 63 44 124 44 125 45 118 -29 204 -63 74 -100 129 -99 149 0 10 4 6
10 -9 6 -13 36 -56 68 -95 31 -38 65 -81 74 -95 10 -15 17 -19 17 -10 0 8 -34
57 -75 108 -41 51 -75 99 -75 106 0 6 -13 33 -29 58 -27 43 -29 51 -32 179 -2
74 0 144 4 156 10 27 -5 60 -40 89 l-25 22 43 173 c39 160 43 187 47 329 3
137 1 170 -22 281 -31 153 -101 369 -151 464 -53 101 -178 286 -261 385 -69
83 -119 132 -222 218 l-51 42 -1073 -1 c-812 0 -1078 -3 -1093 -12z m341
-1152 c26 -93 81 -211 151 -325 22 -36 46 -83 53 -105 22 -68 129 -305 182
-405 118 -220 284 -448 403 -552 186 -164 351 -240 660 -303 66 -14 138 -29
160 -35 22 -5 57 -10 78 -10 25 0 37 -5 37 -14 0 -18 -139 -147 -210 -196 -31
-21 -85 -50 -121 -65 -63 -27 -66 -28 -149 -16 -47 7 -98 19 -115 28 -21 11
-81 18 -209 24 -178 8 -179 8 -231 -16 -28 -14 -55 -25 -59 -25 -4 0 -25 -14
-46 -31 -60 -49 -80 -127 -37 -146 13 -6 62 -47 109 -92 47 -44 88 -77 92 -73
4 4 6 2 4 -4 -3 -10 87 -147 140 -215 30 -36 16 -44 -52 -29 -34 7 -52 7 -64
-1 -15 -9 -14 -10 6 -6 14 3 20 1 15 -6 -4 -6 2 -8 18 -4 48 13 170 -36 147
-59 -3 -2 -52 12 -109 31 -57 19 -118 35 -135 35 -17 0 -38 7 -45 17 -13 15
-12 15 8 5 25 -14 72 -15 91 -3 9 5 -9 12 -50 21 -93 18 -163 39 -261 76 -49
19 -100 34 -113 34 -14 0 -27 6 -30 14 -3 8 -20 18 -37 21 -102 21 -272 98
-332 152 -46 41 -36 36 54 -24 70 -46 194 -98 277 -116 36 -7 50 -15 47 -24
-3 -9 3 -13 20 -13 13 0 71 -17 128 -38 57 -22 129 -45 159 -52 30 -7 98 -24
150 -36 52 -13 98 -24 102 -24 4 0 -20 42 -54 93 -64 95 -276 317 -303 317
-18 0 -20 38 -5 91 9 33 74 99 98 99 5 0 34 11 64 25 54 25 54 25 240 16 138
-7 191 -13 209 -24 13 -9 61 -21 106 -28 73 -11 87 -10 127 5 72 27 184 105
271 189 l80 76 -35 1 c-19 0 -53 5 -75 10 -22 6 -87 19 -145 31 -374 73 -590
186 -794 417 -110 126 -320 467 -378 617 -9 22 -27 65 -41 95 -13 30 -34 80
-45 110 -11 30 -47 100 -79 155 -33 55 -73 134 -90 175 -35 85 -74 217 -72
246 1 18 2 18 6 -1 2 -11 16 -60 29 -110z m-85 43 c-23 -29 -41 -56 -41 -60 0
-3 -13 -11 -29 -16 -26 -9 -37 -6 -88 24 -32 20 -70 47 -86 62 -26 25 -27 25
-42 6 -8 -10 -21 -32 -29 -49 -15 -30 -49 -79 -119 -172 -20 -28 -47 -53 -60
-57 -25 -6 -80 8 -145 40 -56 27 -60 24 -90 -58 -50 -135 -62 -209 -62 -375 0
-163 14 -279 49 -413 32 -119 120 -383 130 -389 5 -3 27 -42 49 -86 116 -231
191 -363 244 -432 45 -59 284 -293 298 -293 6 0 10 -9 10 -20 0 -10 8 -24 18
-30 11 -8 12 -10 2 -7 -8 2 -19 12 -24 23 -5 11 -27 33 -48 49 -56 43 -258
252 -295 305 -17 25 -82 142 -144 260 -62 118 -119 221 -126 228 -7 7 -13 19
-13 26 0 6 -20 74 -45 151 -94 289 -115 402 -115 628 0 127 4 175 20 238 29
112 69 217 86 223 9 3 34 -4 56 -15 63 -32 119 -50 139 -44 10 3 35 29 56 57
78 104 112 153 113 161 1 18 46 77 59 77 8 0 26 -11 40 -24 15 -13 51 -40 81
-59 46 -29 60 -33 75 -24 11 5 23 15 27 21 36 55 84 114 86 107 2 -5 -15 -33
-37 -63z m337 -506 c6 -18 -15 -14 -22 4 -4 10 -1 14 6 12 6 -2 14 -10 16 -16z
m2229 -27 c0 -8 -4 -15 -9 -15 -4 0 -8 7 -8 15 0 8 4 15 8 15 5 0 9 -7 9 -15z
m-2497 -220 c0 -9 -9 -15 -21 -15 -11 0 -27 -6 -34 -14 -8 -8 -38 -17 -67 -21
-106 -15 -538 -104 -562 -117 -13 -7 -22 -6 -34 6 -9 8 -14 17 -11 19 2 2 81
23 174 46 94 24 190 50 215 58 136 46 340 69 340 38z m140 -175 c53 -72 96
-123 98 -115 5 21 18 19 39 -8 10 -12 26 -21 36 -19 11 2 17 -3 17 -15 0 -15
2 -16 10 -3 5 8 10 11 10 5 0 -5 -5 -17 -10 -25 -8 -13 -10 -13 -10 0 0 10 -3
11 -11 3 -8 -8 -7 -19 4 -39 8 -16 12 -36 10 -44 -3 -10 0 -9 7 3 6 9 8 27 5
40 -5 18 -4 19 5 7 10 -12 11 -11 7 8 -3 13 -1 20 5 16 6 -4 8 2 3 16 -4 14
-3 20 3 17 13 -9 35 -93 27 -106 -10 -16 -25 -3 -25 21 0 12 -3 19 -6 15 -3
-3 -6 -23 -6 -44 0 -29 -2 -33 -9 -18 -4 11 -8 16 -8 11 -1 -5 -7 -3 -15 3 -8
7 -16 8 -18 4 -3 -4 -3 -3 -2 4 2 6 -5 17 -13 25 -15 11 -16 11 -9 -7 4 -10 9
-40 11 -65 5 -44 5 -44 -8 10 -7 30 -19 66 -26 80 -11 23 -11 24 3 6 10 -12
16 -15 16 -7 0 7 9 3 19 -10 31 -39 31 -18 -1 41 -16 30 -27 47 -24 38 4 -10
9 -26 12 -35 3 -10 -4 -2 -14 17 -11 19 -25 35 -31 35 -10 0 -151 171 -151
184 -1 3 -14 21 -30 40 l-29 34 2 -28 c2 -24 -3 -29 -38 -41 l-40 -13 45 4
c41 4 40 3 -20 -14 -36 -10 -85 -26 -110 -35 -25 -10 -68 -24 -96 -32 -47 -13
-93 -30 -149 -54 -67 -28 -212 -77 -244 -82 -43 -6 -34 20 11 32 39 11 331
117 438 159 25 10 80 26 123 36 77 18 78 18 72 47 -13 56 20 27 115 -102z
m2343 35 c17 -44 18 -73 15 -250 l-4 -200 -46 -120 c-56 -149 -62 -171 -46
-182 7 -4 17 -8 23 -8 5 0 11 -8 13 -17 2 -11 -3 -18 -12 -18 -9 0 -16 5 -16
10 0 6 -4 10 -10 10 -5 0 -10 -7 -10 -15 0 -8 -7 -15 -15 -15 -17 0 -20 23 -5
51 9 16 5 22 -22 39 -28 17 -53 20 -168 22 l-135 2 140 6 140 6 -135 4 -135 4
115 4 c129 3 168 -1 196 -24 18 -14 18 -15 -4 -4 -13 6 -28 10 -33 8 -6 -2 7
-12 28 -22 21 -10 35 -15 32 -11 -7 6 -1 24 61 185 33 84 33 88 38 279 4 190
-2 250 -31 289 -15 20 -41 14 -71 -17 -28 -29 -66 -151 -66 -212 0 -47 -48
-155 -113 -256 -35 -54 -72 -104 -81 -112 -10 -8 -31 -35 -48 -59 -17 -24 -45
-50 -62 -57 -35 -15 -86 -68 -228 -236 -111 -132 -194 -213 -208 -204 -6 3
-10 0 -10 -7 0 -10 -2 -10 -9 1 -7 11 -17 8 -52 -16 -102 -70 -257 -84 -395
-38 -90 30 -243 34 -357 9 -102 -22 -123 -32 -152 -70 l-26 -34 22 -33 c42
-59 141 -156 154 -151 8 3 20 -5 28 -18 110 -179 140 -222 200 -281 43 -43 92
-80 130 -99 34 -16 82 -42 107 -57 25 -15 72 -38 105 -51 74 -30 115 -59 108
-76 -3 -7 11 -21 34 -33 51 -26 180 -153 284 -281 61 -74 103 -115 143 -140
104 -63 182 -127 235 -192 106 -129 167 -202 216 -257 28 -31 67 -85 88 -121
21 -36 71 -106 111 -157 47 -58 70 -95 64 -101 -26 -26 220 -256 465 -436 68
-50 159 -120 202 -155 145 -116 322 -226 505 -313 313 -149 337 -159 400 -178
l35 -10 -40 6 c-58 8 -173 58 -455 198 -173 86 -319 178 -455 287 -43 35 -134
105 -202 154 -246 181 -500 422 -474 448 5 5 -20 46 -65 103 -40 52 -90 122
-110 157 -20 34 -57 85 -83 114 -69 76 -125 143 -166 199 -84 112 -218 225
-246 208 -7 -4 -9 -3 -6 3 4 6 -16 24 -42 42 -29 18 -84 74 -132 134 -98 120
-240 261 -286 282 -18 9 -33 24 -33 33 0 17 -56 62 -78 62 -7 0 -49 19 -94 43
-45 23 -107 56 -139 72 -90 46 -171 124 -243 234 -36 54 -73 114 -82 134 -13
27 -23 36 -35 32 -11 -4 -37 17 -85 68 -96 103 -102 116 -74 162 26 41 43 50
155 76 122 28 274 26 369 -6 57 -19 95 -25 164 -25 100 0 150 14 216 60 25 17
58 30 74 30 33 0 103 68 241 235 106 127 173 195 193 195 9 0 30 16 45 37 15
20 44 55 64 77 90 101 199 302 199 365 0 14 9 64 20 111 25 101 56 143 105
138 25 -3 32 -10 48 -53z m-2402 3 c8 -15 8 -18 0 -14 -6 4 -16 16 -22 28 -8
15 -8 18 0 14 6 -4 16 -16 22 -28z m-11 -28 c13 -9 13 -10 0 -11 -10 0 -8 -3
5 -8 19 -8 -128 -3 -150 4 -5 2 24 4 65 6 73 2 74 2 25 9 l-50 7 45 1 c25 1
52 -3 60 -8z m90 -78 c62 -79 109 -180 116 -252 l3 -35 -9 35 c-24 89 -59 171
-92 211 -56 70 -91 119 -85 119 3 0 33 -35 67 -78z m-120 23 c0 -8 -4 -15 -10
-15 -5 0 -10 -4 -10 -10 0 -5 9 -10 19 -10 51 0 61 -18 37 -64 -53 -103 -182
-156 -263 -107 -28 18 -36 18 -80 7 -27 -7 -104 -21 -171 -31 -75 -11 -118
-22 -110 -27 26 -16 144 -47 208 -53 111 -11 201 12 300 78 31 21 39 24 27 10
-27 -31 -115 -76 -177 -90 l-55 -13 53 5 c71 6 152 51 230 127 46 44 59 63 50
69 -10 7 -9 9 5 9 33 0 16 -29 -52 -91 -101 -90 -157 -117 -267 -131 -72 -9
-112 -9 -191 2 -56 7 -122 10 -148 7 -45 -7 -47 -6 -42 16 6 20 0 23 -66 40
-39 10 -75 23 -79 30 -17 27 29 41 252 77 185 31 269 56 393 120 118 61 147
70 147 45z m2501 -286 c8 -21 6 -34 -11 -64 -12 -21 -43 -101 -70 -179 -27
-78 -49 -136 -49 -129 -1 18 84 264 108 311 16 32 19 47 11 61 -5 11 -9 30 -9
43 1 20 2 20 6 3 2 -11 9 -32 14 -46z m-2191 -7 c37 -121 60 -209 59 -222 -1
-8 -5 -4 -9 10 l-8 25 -2 -25 c0 -14 -14 20 -30 75 -16 55 -26 114 -24 130 3
23 2 25 -4 11 -8 -19 -9 -19 -15 4 -14 55 17 48 33 -8z m-60 -52 c1 13 2 13
10 -1 5 -8 16 -80 25 -159 8 -80 19 -148 23 -151 9 -8 128 -49 142 -49 6 0
-10 26 -34 58 -24 31 -47 67 -50 79 -15 49 14 26 79 -63 38 -53 82 -103 97
-112 30 -17 38 -42 13 -42 -8 0 -31 11 -51 25 -20 14 -43 25 -50 25 -36 0
-173 52 -178 68 -3 9 -12 80 -21 157 -8 77 -18 149 -21 160 -4 16 -3 17 5 5
10 -13 11 -13 11 0z m2501 -133 c1 -42 0 -80 -3 -82 -3 -3 -6 34 -7 82 -1 48
0 85 3 83 2 -3 6 -40 7 -83z m-3407 19 c-3 -21 -8 -35 -11 -32 -2 2 -1 20 3
40 3 21 8 35 11 32 2 -2 1 -20 -3 -40z m23 12 c-3 -7 -5 -2 -5 12 0 14 2 19 5
13 2 -7 2 -19 0 -25z m-10 -40 c-3 -8 -6 -5 -6 6 -1 11 2 17 5 13 3 -3 4 -12
1 -19z m53 12 c0 13 1 13 10 0 15 -23 12 -50 -5 -50 -8 0 -15 6 -15 14 0 8 -3
23 -6 33 -5 15 -4 15 5 3 9 -13 11 -13 11 0z m80 0 c0 -5 -8 -10 -17 -10 -15
0 -16 2 -3 10 19 12 20 12 20 0z m-80 -167 c0 -14 -2 -15 -9 -4 -7 11 -9 11
-14 0 -4 -10 -6 -9 -6 4 -1 9 6 17 14 17 8 0 15 -8 15 -17z m-65 -45 c-3 -7 4
-31 15 -53 12 -24 18 -31 16 -17 -6 32 3 21 25 -28 10 -23 14 -38 9 -35 -13 8
-13 -1 1 -28 7 -14 8 -18 1 -12 -15 14 -69 125 -77 158 -5 17 -3 27 4 27 6 0
8 -6 6 -12z m1402 -374 c-3 -3 -12 -4 -19 -1 -8 3 -5 6 6 6 11 1 17 -2 13 -5z
m-40 -10 c-3 -3 -12 -4 -19 -1 -8 3 -5 6 6 6 11 1 17 -2 13 -5z m2090 -106
c-3 -8 -6 -5 -6 6 -1 11 2 17 5 13 3 -3 4 -12 1 -19z m-3072 -48 c4 -6 -1 -7
-12 -4 -13 4 -10 0 7 -15 l25 -21 -25 9 c-28 9 -40 41 -16 41 8 0 18 -4 21
-10z m60 -40 c3 -6 -1 -7 -9 -4 -18 7 -21 14 -7 14 6 0 13 -4 16 -10z m22 -35
c23 -14 43 -28 43 -31 0 -5 -63 27 -90 45 -31 21 5 10 47 -14z m-28 -57 c-5
-18 -8 -44 -8 -58 1 -23 2 -23 8 5 3 16 6 -50 6 -145 0 -171 1 -178 34 -285
19 -60 47 -145 64 -190 16 -44 58 -163 94 -265 63 -179 65 -189 68 -295 l3
-110 -8 110 c-5 75 -16 132 -33 180 -84 233 -154 436 -189 545 -37 116 -40
136 -46 280 -7 155 -7 155 -15 73 -16 -170 11 -280 194 -808 63 -183 73 -220
75 -290 l3 -80 -8 81 c-6 60 -26 133 -81 290 -205 592 -220 672 -178 919 9 57
15 75 23 75 2 0 -1 -15 -6 -32z m18 -10 c-3 -8 -6 -5 -6 6 -1 11 2 17 5 13 3
-3 4 -12 1 -19z m2603 -83 c13 -35 81 -106 177 -186 45 -38 84 -78 88 -89 3
-11 11 -20 16 -20 5 0 3 13 -6 30 -8 16 -15 40 -15 53 0 26 -29 53 -112 100
-67 39 -100 72 -100 102 0 13 -4 22 -9 19 -5 -3 -9 0 -9 7 0 6 8 9 18 7 31 -9
138 -92 161 -125 11 -18 26 -33 32 -33 8 0 7 5 -1 15 -11 13 -10 14 4 9 21 -8
21 -34 -1 -34 -14 0 -13 -3 5 -16 14 -10 22 -26 22 -44 0 -48 19 -74 75 -106
40 -22 52 -33 45 -43 -13 -23 -75 13 -145 83 -34 34 -100 96 -147 138 -47 42
-93 93 -103 113 -21 45 -29 39 -20 -14 5 -33 22 -54 103 -133 175 -170 302
-251 422 -267 36 -5 128 -31 205 -59 126 -44 434 -125 635 -166 397 -81 592
-146 885 -293 196 -98 259 -138 382 -241 40 -33 80 -65 90 -70 10 -6 15 -13
12 -17 -4 -3 -35 17 -70 45 -155 123 -231 175 -334 229 -60 31 -132 69 -160
83 -66 35 -121 59 -230 98 -49 18 -104 39 -122 46 -33 15 -247 67 -423 103
-295 61 -706 173 -788 215 -15 7 -56 16 -91 20 -115 11 -243 90 -414 255 -92
88 -117 127 -117 181 0 37 26 41 40 5z m-1693 -211 c-3 -3 -12 -4 -19 -1 -8 3
-5 6 6 6 11 1 17 -2 13 -5z m188 -102 c-7 -8 -65 10 -60 18 3 4 18 3 35 -3 16
-6 27 -13 25 -15z m-32 -206 c67 -45 280 -60 406 -31 72 17 57 23 152 -60 25
-22 74 -60 108 -85 34 -25 78 -65 97 -90 19 -25 69 -79 110 -121 40 -42 74
-81 74 -86 0 -6 -36 -16 -80 -23 -45 -7 -79 -15 -76 -18 3 -2 43 1 88 9 46 7
90 12 98 10 8 -2 35 -20 61 -42 47 -39 74 -43 42 -5 -17 18 -16 18 13 -2 45
-31 138 -134 184 -203 21 -32 74 -103 117 -156 105 -132 325 -463 319 -480 -3
-7 -14 -16 -23 -20 -10 -4 -21 -11 -25 -17 -3 -5 -51 -11 -105 -12 -79 -3
-136 -13 -298 -55 -110 -28 -236 -59 -280 -68 -47 -10 -96 -29 -119 -44 -21
-15 -44 -27 -51 -27 -15 0 -242 -112 -331 -163 -34 -19 -67 -31 -74 -27 -9 5
-9 37 0 136 10 117 37 277 39 229 0 -11 -4 -38 -9 -60 -12 -47 -33 -286 -26
-292 2 -3 64 27 138 65 73 38 169 84 213 103 44 18 89 41 101 51 11 10 60 26
110 37 49 11 179 42 289 71 158 40 219 51 290 53 75 2 95 6 122 25 l32 22
-122 183 c-67 100 -164 234 -215 298 -50 64 -92 121 -92 125 -1 29 -166 208
-182 198 -7 -5 -5 -12 7 -20 10 -8 17 -16 14 -18 -2 -2 -37 23 -77 55 -40 33
-77 57 -81 55 -3 -2 -83 -16 -176 -31 -151 -23 -177 -30 -243 -66 -42 -21 -82
-39 -89 -39 -20 0 113 70 162 86 34 11 36 13 13 13 -15 1 -61 -17 -103 -39
-87 -46 -106 -51 -53 -15 53 36 123 61 208 74 41 7 117 19 168 28 l93 15 -75
77 c-41 42 -91 96 -110 121 -19 25 -63 65 -97 90 -34 25 -83 63 -108 85 -92
81 -79 75 -146 59 -122 -28 -319 -13 -409 32 -16 7 -30 14 -30 14 -1 0 0 -49
2 -110 l4 -110 -98 -46 c-55 -25 -112 -53 -129 -61 -74 -39 -169 -83 -180 -83
-5 0 -208 -77 -280 -106 -51 -20 376 -31 530 -14 50 6 131 17 180 25 105 17
177 21 192 12 6 -4 17 0 24 9 12 15 7 16 -61 9 -41 -4 -138 -16 -215 -27 -160
-22 -437 -33 -540 -21 -52 6 -12 8 160 8 184 0 260 5 380 23 189 27 326 38
305 23 -13 -10 -13 -11 0 -12 12 0 11 -2 -2 -7 -10 -4 -14 -12 -10 -18 16 -24
116 -86 148 -91 38 -6 46 -28 14 -36 -46 -12 -149 46 -196 110 l-22 29 -78 -8
c-44 -4 -90 -10 -104 -14 -121 -28 -452 -42 -646 -26 l-81 7 -17 -250 c-25
-367 -31 -400 -101 -625 -33 -104 -33 -102 -5 -111 l25 -7 -26 -1 c-15 -1 -29
5 -32 12 -3 7 8 51 23 97 75 230 83 281 109 660 l16 244 60 22 c224 82 351
135 395 164 14 9 45 24 70 33 25 9 74 32 110 50 l65 34 0 111 c-1 120 3 127
48 98z m6810 -206 c-13 -5 -46 -12 -75 -14 l-53 -5 60 13 c71 16 99 18 68 6z
m-5406 -525 c0 -17 -32 -21 -42 -5 -4 6 1 7 11 3 12 -4 15 -3 10 5 -4 7 -1 12
7 12 7 0 14 -7 14 -15z m2851 -53 c32 -8 60 -27 118 -82 75 -71 97 -80 118
-48 9 14 4 24 -27 56 -20 21 -37 43 -37 49 0 6 40 13 103 17 93 7 159 14 257
30 22 4 17 1 -15 -9 -27 -8 -114 -20 -192 -26 l-143 -12 35 -39 c38 -41 40
-49 25 -79 -20 -37 -55 -23 -138 54 -63 60 -86 75 -120 81 -31 4 -42 11 -42
24 0 11 3 13 8 5 4 -7 27 -16 50 -21z m-5131 -95 c-14 -23 -43 -58 -64 -79
-42 -40 -206 -142 -244 -152 -13 -3 -18 -3 -10 0 9 4 10 9 2 13 -6 4 33 33 87
66 115 70 183 131 211 188 12 23 21 35 21 26 0 -23 -52 -101 -87 -130 -17 -15
-74 -53 -127 -85 -52 -32 -93 -60 -91 -62 6 -6 186 101 226 135 41 35 89 109
90 142 2 24 2 25 6 3 3 -13 -6 -41 -20 -65z m60 -264 c2 -25 1 -26 -8 -8 -8
17 -9 16 -6 -7 3 -16 0 -28 -4 -28 -10 0 -12 31 -3 54 9 25 19 19 21 -11z
m1220 -350 c-28 -52 -72 -207 -82 -290 -4 -29 -11 -53 -17 -53 -6 0 -31 17
-57 39 -164 137 -216 164 -403 206 -84 20 -195 40 -246 46 -119 14 -361 6
-427 -14 -27 -8 -60 -18 -72 -22 -36 -11 -29 20 7 35 17 7 33 10 36 8 3 -3 -9
-11 -27 -17 -18 -6 -30 -14 -26 -17 3 -3 14 -1 25 5 70 38 321 53 499 31 137
-17 380 -77 443 -109 58 -30 113 -69 202 -143 l47 -39 6 48 c16 118 95 356
113 339 3 -3 -6 -27 -21 -53z m-1466 -135 c-5 -13 -23 -54 -41 -93 -50 -110
-109 -301 -125 -400 -33 -211 -29 -458 11 -660 23 -116 87 -310 95 -288 7 15
8 15 8 -5 2 -45 -23 -16 -47 54 -97 284 -124 608 -77 898 16 99 64 258 111
369 20 45 42 97 49 115 16 36 30 45 16 10z m-25 -114 c-92 -218 -114 -323
-123 -590 -8 -234 6 -355 82 -694 l6 -25 -11 25 c-19 42 -69 299 -81 414 -23
215 1 537 51 700 25 81 120 309 127 303 2 -3 -21 -63 -51 -133z m-1166 -48 c0
-8 33 -64 74 -124 l73 -110 43 41 43 42 -38 -47 c-20 -27 -41 -48 -46 -48 -11
0 -132 175 -153 220 -16 34 -16 34 -11 5 3 -16 39 -79 80 -139 72 -106 73
-109 58 -133 -13 -20 -22 -24 -45 -19 -47 9 -169 48 -165 52 2 2 43 -8 91 -22
82 -24 88 -25 106 -9 18 16 16 20 -49 113 -83 119 -112 192 -76 192 8 0 15 -6
15 -14z m-102 -257 c-2 -6 38 -25 87 -42 97 -32 111 -43 91 -67 -55 -62 -154
-322 -176 -460 -7 -41 -18 -85 -26 -98 -8 -12 -12 -27 -9 -32 3 -6 -3 -38 -15
-73 -11 -34 -29 -118 -39 -187 -10 -69 -19 -119 -20 -112 -1 7 -5 10 -11 7
-17 -10 -12 85 10 186 20 95 49 183 74 222 8 12 20 51 26 87 23 132 97 342
151 431 16 25 29 49 29 52 0 4 -37 18 -82 32 -95 29 -113 38 -104 54 9 14 17
14 14 0z m5783 -444 c0 -5 -5 -11 -13 -13 -10 -3 -10 -1 1 6 11 8 10 11 -5 15
-16 5 -16 6 -1 4 10 -1 18 -6 18 -12z m819 -480 c0 -8 -7 -15 -15 -15 -8 0
-15 7 -15 15 0 8 7 15 15 15 8 0 15 -7 15 -15z"/>
<path d="M3720 3403 c36 -15 120 -42 120 -38 0 8 -65 32 -101 39 -19 3 -27 3
-19 -1z"/>
<path d="M2695 5318 c-27 -5 -81 -18 -120 -29 -38 -11 -137 -38 -220 -59 -208
-55 -211 -55 -198 -63 6 -4 22 -3 35 3 24 11 229 54 428 91 167 31 196 39 180
49 -9 6 -1 10 26 13 27 2 21 4 -21 4 -33 1 -82 -4 -110 -9z"/>
<path d="M2735 5171 c-27 -10 -95 -35 -150 -55 -55 -21 -156 -58 -224 -81 -68
-24 -125 -46 -128 -49 -10 -9 67 13 162 49 174 64 319 116 350 125 17 5 44 13
60 18 28 10 28 10 5 10 -14 1 -47 -7 -75 -17z"/>
<path d="M3120 5031 c0 -5 5 -13 10 -16 6 -3 10 -2 10 4 0 5 -4 13 -10 16 -5
3 -10 2 -10 -4z"/>
<path d="M3170 4990 c0 -5 5 -10 10 -10 6 0 10 5 10 10 0 6 -4 10 -10 10 -5 0
-10 -4 -10 -10z"/>
<path d="M3241 4950 c0 -8 4 -24 9 -35 5 -13 9 -14 9 -5 0 8 -4 24 -9 35 -5
13 -9 14 -9 5z"/>
<path d="M5245 4419 c-9 -28 -2 -33 13 -9 6 11 8 21 3 25 -5 3 -13 -4 -16 -16z"/>
<path d="M2815 5070 c-130 -72 -284 -118 -505 -150 -106 -16 -173 -34 -178
-48 -3 -11 90 -42 128 -42 18 0 21 -5 18 -22 -4 -22 -2 -23 71 -24 42 0 123
-3 181 -7 l105 -6 -100 13 c-109 15 -235 52 -235 70 0 7 47 19 123 29 67 10
148 25 179 34 55 15 58 15 86 -6 50 -36 124 -24 195 32 37 29 72 91 61 108 -3
5 -18 9 -35 9 -30 0 -38 17 -17 38 22 22 -6 12 -77 -28z m-575 -208 c0 -4 -9
-8 -20 -8 -11 0 -20 4 -20 8 0 4 9 8 20 8 11 0 20 -4 20 -8z"/>
<path d="M3211 4785 c0 -5 10 -46 24 -90 13 -44 24 -71 24 -60 0 21 -46 167
-48 150z"/>
<path d="M3160 4743 c0 -57 34 -301 43 -309 7 -6 46 -21 87 -33 41 -12 97 -33
124 -47 54 -28 75 -26 26 2 -17 11 -40 32 -50 49 -42 65 -110 157 -110 148 0
-13 75 -129 89 -137 16 -10 13 -26 -4 -26 -14 0 -154 46 -161 52 -1 2 -10 70
-19 153 -9 82 -18 152 -21 154 -2 2 -4 0 -4 -6z"/>
<path d="M2321 4604 c0 -11 3 -14 6 -6 3 7 2 16 -1 19 -3 4 -6 -2 -5 -13z"/>
<path d="M2290 4325 c0 -5 5 -17 10 -25 5 -8 10 -10 10 -5 0 6 -5 17 -10 25
-5 8 -10 11 -10 5z"/>
<path d="M5370 3641 c0 -11 12 -29 28 -41 32 -26 132 -90 139 -90 3 0 -7 15
-22 33 -45 54 -154 131 -114 80 13 -16 12 -17 -3 -4 -10 7 -16 17 -13 21 3 5
1 11 -5 15 -5 3 -10 -3 -10 -14z"/>
<path d="M5601 3346 c14 -13 89 -45 89 -38 0 9 -64 42 -82 42 -6 0 -9 -2 -7
-4z"/>
<path d="M3970 2634 c0 -22 110 -107 150 -117 14 -3 32 -2 40 3 12 8 11 10 -6
10 -29 0 -113 46 -151 83 -18 17 -33 26 -33 21z"/>
<path d="M4450 2610 c-34 -7 -34 -7 -5 -8 17 0 50 3 75 7 l45 8 -40 0 c-22 0
-56 -3 -75 -7z"/>
<path d="M1352 333 c-26 -71 -52 -201 -52 -256 0 -64 8 -40 25 78 9 60 26 135
37 168 11 32 18 60 15 63 -2 3 -14 -21 -25 -53z"/>
<path d="M4770 7169 c19 -17 62 -53 94 -82 115 -100 310 -362 390 -524 51
-102 122 -324 152 -472 23 -113 25 -142 21 -286 -4 -145 -9 -176 -46 -324
l-40 -164 29 -27 c32 -30 46 -71 34 -97 -10 -22 -5 -286 6 -293 4 -3 23 -36
43 -75 19 -38 58 -96 86 -128 62 -71 74 -92 66 -117 -4 -14 -2 -18 7 -15 9 4
12 23 10 71 -6 115 57 224 129 224 42 0 85 -46 149 -160 29 -52 77 -130 107
-173 51 -73 55 -82 56 -140 2 -53 -3 -72 -32 -129 -19 -37 -49 -81 -67 -98
-32 -30 -59 -71 -198 -305 l-71 -120 1 -80 c0 -44 9 -109 19 -145 25 -88 87
-220 116 -247 26 -23 220 -91 352 -122 45 -11 195 -43 332 -71 138 -28 295
-61 350 -75 55 -13 147 -34 205 -45 214 -43 361 -102 695 -277 46 -23 139 -94
295 -222 l102 -84 127 6 c143 7 308 33 491 78 151 37 118 27 490 148 168 54
339 109 380 120 41 12 104 30 140 41 140 41 455 121 535 135 22 4 63 17 90 30
52 23 334 83 515 110 242 35 766 44 955 16 204 -31 336 -53 390 -66 33 -8 98
-23 145 -34 92 -21 110 -26 245 -66 50 -15 100 -29 113 -32 l22 -5 0 2176 0
2176 -4032 0 -4033 -1 35 -30z"/>
<path d="M7466 331 c5 -4 52 -31 104 -59 52 -28 122 -65 155 -83 121 -65 173
-89 294 -133 109 -40 221 -67 221 -54 0 3 -21 13 -47 23 -48 18 -88 35 -175
74 -26 11 -51 21 -56 21 -8 0 -229 98 -416 184 -80 37 -97 43 -80 27z"/>
<path d="M7020 292 c0 -28 -34 -148 -63 -224 -14 -38 -22 -68 -18 -68 5 0 25
48 44 107 35 105 55 203 43 203 -3 0 -6 -8 -6 -18z"/>
<path d="M7803 45 c4 -9 7 -23 7 -31 0 -11 16 -14 73 -13 39 0 65 3 57 6 -8 3
-33 13 -55 23 -71 31 -89 35 -82 15z"/>
</g>
</svg>
