<?xml version="1.0" standalone="no"?>
<!DOCTYPE svg PUBLIC "-//W3C//DTD SVG 20010904//EN"
 "http://www.w3.org/TR/2001/REC-SVG-20010904/DTD/svg10.dtd">
<svg version="1.0" xmlns="http://www.w3.org/2000/svg"
 width="1280.000000pt" height="720.000000pt" viewBox="0 0 1280.000000 720.000000"
 preserveAspectRatio="xMidYMid meet">
<metadata>
Created by potrace 1.16, written by Peter Selinger 2001-2019
</metadata>
<g transform="translate(0.000000,720.000000) scale(0.100000,-0.100000)"
fill="#000000" stroke="none">
<path d="M0 3600 l0 -3600 118 0 119 0 28 108 c15 59 50 170 78 247 69 194 81
235 129 440 46 196 47 223 23 391 -14 97 -14 116 -2 145 16 39 59 84 134 141
91 70 98 90 123 398 18 215 33 263 95 315 33 26 53 35 82 35 52 0 717 139 743
155 4 3 1 26 -7 52 -20 66 -11 212 20 328 68 254 109 414 121 483 8 42 22 115
31 162 48 255 62 517 45 860 -15 308 -29 779 -36 1201 -5 287 -3 353 16 545
32 323 47 384 145 584 145 296 249 437 419 563 28 22 53 41 55 43 2 2 -554 4
-1237 4 l-1242 0 0 -3600z"/>
<path d="M2443 7152 c-185 -143 -278 -266 -431 -577 -101 -205 -110 -241 -142
-569 -19 -192 -21 -258 -16 -545 7 -422 21 -893 36 -1201 17 -343 3 -605 -45
-860 -9 -47 -23 -120 -31 -162 -13 -72 -60 -258 -120 -478 -32 -120 -42 -266
-21 -331 8 -26 12 -51 8 -57 -10 -16 -686 -162 -753 -162 -30 0 -46 -8 -82
-43 -54 -53 -63 -81 -82 -267 -8 -80 -18 -184 -23 -231 -12 -108 -34 -154
-103 -206 -70 -53 -116 -100 -134 -136 -14 -25 -13 -41 1 -140 9 -62 17 -134
18 -162 2 -94 -104 -507 -183 -704 -19 -50 -90 -295 -90 -313 0 -5 264 -8 586
-8 l586 0 -6 48 c-15 127 -16 190 -7 343 11 174 34 302 76 426 15 41 25 76 23
78 -2 1 -19 10 -38 20 -49 25 -130 85 -130 97 0 5 18 -6 40 -25 23 -19 62 -45
88 -58 26 -13 49 -25 51 -26 2 -1 -10 -46 -28 -100 -46 -144 -61 -229 -72
-413 -9 -152 -8 -215 7 -342 5 -44 8 -48 33 -48 l27 0 -9 72 c-13 104 -2 464
18 578 33 194 87 337 172 453 20 26 33 50 30 53 -3 3 -26 -24 -52 -60 -26 -36
-51 -66 -55 -66 -13 0 -78 137 -99 210 -11 36 -20 56 -20 45 -1 -36 36 -143
74 -212 l37 -68 -22 -42 c-13 -25 -30 -43 -40 -43 -21 0 -129 69 -155 100 -13
15 -4 11 25 -11 54 -43 113 -79 128 -79 7 0 21 18 32 41 19 37 20 43 6 58 -37
41 -108 250 -105 310 1 21 3 20 9 -9 l7 -35 3 35 c2 28 4 30 7 10 14 -83 50
-185 91 -257 l24 -43 42 58 c37 50 91 106 73 75 -4 -6 -3 -13 2 -15 5 -1 -13
-33 -40 -70 -27 -37 -49 -73 -49 -79 0 -6 -9 -23 -19 -38 -26 -36 -77 -206
-98 -326 -13 -76 -17 -160 -18 -355 0 -140 3 -263 7 -272 7 -17 46 -18 617
-18 l609 0 -48 93 c-73 138 -143 337 -173 487 -45 224 -49 569 -8 707 25 87
79 193 98 193 20 0 16 -19 -17 -79 -54 -98 -62 -140 -67 -349 -6 -217 8 -355
57 -547 34 -136 64 -214 147 -377 l64 -128 1419 0 1418 0 6 38 c3 20 9 150 12
289 7 278 -2 426 -42 662 -24 142 -29 196 -14 136 l8 -30 0 30 c0 17 -4 41 -8
55 l-8 25 -1 -24 c-2 -48 -11 -12 -40 173 -35 211 -36 229 -18 224 7 -3 24
-75 43 -194 17 -104 43 -254 57 -334 15 -80 34 -208 43 -285 18 -154 24 -522
11 -673 l-8 -92 611 0 c385 0 610 4 610 10 0 5 21 51 46 102 25 51 54 118 64
148 11 30 19 47 20 38 0 -23 -49 -146 -89 -223 -33 -64 -36 -75 -21 -75 18 0
102 201 123 295 4 19 5 18 6 -2 1 -26 -52 -180 -85 -245 l-24 -48 362 0 363 0
-75 42 c-84 46 -111 68 -86 68 9 0 16 -4 16 -9 0 -4 40 -29 89 -55 l90 -46
2565 0 2566 0 0 1535 0 1535 -67 0 c-216 -1 -739 -57 -1274 -135 -643 -95
-1233 -228 -1619 -366 -398 -142 -590 -201 -820 -253 -160 -36 -216 -43 -477
-66 -126 -11 -295 -29 -374 -40 -204 -29 -309 -36 -309 -21 0 14 -3 13 140 40
63 12 124 25 135 27 15 4 16 3 5 -4 -8 -5 -64 -18 -125 -30 -60 -12 -119 -24
-130 -26 -45 -11 152 6 285 24 79 11 247 29 373 40 126 11 259 25 295 30 200
31 517 118 807 221 277 98 323 113 460 153 289 84 639 162 1010 226 464 80
1169 168 1463 183 199 9 222 12 222 28 0 15 -15 18 -104 24 -172 12 -755 0
-891 -19 -941 -127 -1366 -232 -2100 -518 -272 -106 -439 -164 -630 -220 -145
-42 -148 -43 -515 -68 -85 -6 -205 -18 -265 -26 l-111 -16 -69 69 c-89 88
-222 191 -313 242 -61 35 -188 96 -377 181 -75 34 -687 235 -785 258 -47 11
-159 37 -250 57 -91 20 -205 52 -255 70 -116 44 -164 59 -266 89 -46 14 -138
49 -204 79 l-120 53 3 114 c2 63 7 122 11 132 4 12 46 36 110 63 134 58 161
78 162 118 2 30 2 30 6 5 2 -15 0 -36 -6 -47 -11 -20 -48 -39 -213 -110 -55
-23 -56 -27 -60 -164 -3 -112 -12 -101 117 -157 39 -17 77 -34 85 -38 8 -5 49
-19 90 -31 121 -37 240 -77 314 -105 37 -14 141 -42 230 -62 88 -20 199 -45
246 -56 100 -23 738 -234 825 -272 341 -150 487 -240 654 -404 l75 -73 105 15
c58 9 176 20 261 26 366 25 370 26 515 68 191 56 363 116 595 207 247 98 642
234 824 285 355 99 688 161 1356 252 66 9 227 13 523 13 l427 0 0 2033 0 2032
-4007 0 -4006 0 109 -112 c151 -155 277 -343 366 -547 33 -75 87 -239 110
-330 37 -156 36 -881 -3 -952 -6 -11 -17 -46 -25 -76 l-15 -56 29 -31 c50 -53
94 -126 108 -180 18 -66 16 -95 -1 -36 l-14 45 3 -45 c2 -25 1 -37 -1 -27 -2
9 -10 17 -17 17 -6 0 -24 25 -39 55 -37 76 -75 135 -87 135 -6 0 -10 -4 -10
-10 0 -16 -51 -119 -98 -199 -27 -46 -47 -94 -52 -127 -11 -64 -74 -186 -175
-339 -80 -121 -151 -194 -305 -313 -38 -30 -128 -44 -222 -37 -125 11 -156 28
-214 120 -32 51 -50 72 -52 60 -2 -9 6 -28 19 -41 12 -13 17 -24 11 -24 -16 0
-42 41 -42 66 0 16 -14 30 -47 50 -40 23 -59 28 -118 28 -45 0 -81 -6 -101
-17 -39 -20 -92 -80 -110 -123 -16 -38 -18 -95 -5 -110 5 -5 21 -56 36 -114
50 -198 116 -393 152 -447 65 -98 251 -254 357 -298 40 -17 49 -30 14 -20 -22
5 -21 5 2 -10 14 -9 17 -14 8 -11 -10 3 -26 8 -35 12 -10 3 7 -8 37 -25 30
-16 99 -42 152 -57 54 -15 96 -29 94 -32 -3 -2 -46 8 -98 23 -90 25 -235 92
-306 140 -38 26 -80 23 -46 -3 10 -8 44 -25 74 -39 131 -58 130 -57 130 -167
0 -63 49 -173 105 -234 37 -41 113 -92 137 -92 7 0 -7 12 -32 26 -91 54 -153
132 -165 209 -3 22 -11 66 -17 97 -16 86 -13 89 73 61 86 -29 179 -42 179 -24
0 6 -15 20 -32 31 -36 22 -33 26 6 9 27 -13 40 -35 30 -51 -10 -16 -99 -3
-183 25 l-73 24 5 -36 c4 -20 11 -67 17 -104 5 -38 15 -78 21 -90 51 -98 153
-162 364 -227 33 -10 50 -19 37 -19 -12 -1 -59 13 -104 30 -44 17 -99 32 -122
33 -50 2 -124 49 -168 109 -55 75 -81 145 -88 235 -8 94 -12 99 -100 132 -30
12 -71 32 -91 45 l-37 24 -48 -18 c-47 -18 -85 -25 -255 -51 -81 -13 -190 -3
-254 24 l-32 14 3 -42 c2 -22 5 -81 8 -129 3 -78 2 -88 -13 -85 -12 2 -17 18
-21 65 -3 34 -2 72 1 85 3 13 7 -13 7 -56 2 -72 6 -96 15 -85 2 2 1 60 -3 129
-4 69 -6 127 -4 129 3 3 20 -3 39 -12 20 -9 68 -22 107 -28 72 -11 89 -10 283
22 79 13 210 59 195 69 -7 4 -20 6 -29 3 -9 -2 -25 6 -36 19 l-20 23 21 -17
c11 -10 26 -18 32 -18 7 0 -18 29 -55 63 -50 48 -67 71 -69 93 -1 16 -13 47
-28 68 -25 38 -107 279 -142 419 -9 37 -19 66 -21 63 -9 -9 27 -217 52 -291
14 -44 44 -111 66 -148 23 -38 38 -71 35 -75 -4 -3 -21 0 -39 7 -18 7 -66 24
-107 38 -74 25 -115 47 -69 37 19 -5 21 -4 9 5 -18 13 -3 13 25 1 l20 -9 -20
-1 c-15 -1 156 -70 173 -70 2 0 -5 10 -15 23 -9 13 -26 23 -38 22 -14 -2 -15
-1 -2 2 9 2 17 9 17 14 0 6 -4 8 -8 5 -5 -3 -9 0 -10 7 0 7 -17 59 -37 117
-20 58 -43 149 -51 203 -21 147 -32 177 -71 193 -30 13 -33 18 -33 56 0 77 87
206 154 228 107 35 200 31 329 -13 63 -22 82 -47 71 -93 -5 -18 -1 -31 15 -45
11 -11 21 -24 21 -29 0 -5 19 -22 43 -37 39 -25 50 -27 152 -29 127 -1 131 0
242 86 43 34 60 45 38 24 -22 -20 -64 -55 -94 -77 l-53 -41 -123 -1 c-110 -1
-128 1 -159 20 -51 31 -96 96 -94 138 1 19 -2 39 -5 44 -10 15 -103 49 -172
62 -63 11 -166 1 -209 -21 -64 -33 -146 -152 -146 -213 0 -32 4 -38 30 -48 21
-8 34 -23 44 -52 12 -32 15 -35 15 -15 0 14 -6 36 -14 50 -8 14 -14 42 -15 63
0 20 -5 37 -11 37 -6 0 -8 -9 -4 -22 6 -18 5 -20 -5 -12 -7 7 -9 21 -5 34 5
17 10 19 21 9 11 -9 14 -8 14 5 0 24 43 88 79 119 37 31 127 52 184 43 68 -11
156 -64 177 -107 11 -20 23 -39 27 -41 5 -1 15 -16 25 -33 26 -48 78 -72 177
-79 153 -12 203 11 369 168 122 116 313 425 326 528 3 26 17 66 31 89 39 61
115 211 115 227 0 8 9 12 23 10 16 -2 35 -27 73 -96 50 -90 52 -92 58 -61 5
26 0 42 -26 83 -18 28 -48 68 -67 88 l-33 38 21 77 c12 43 27 96 33 118 8 27
12 166 12 415 1 398 -1 421 -54 595 -83 273 -240 541 -445 756 l-110 117
-1135 0 -1135 1 -62 -47z m414 -634 c11 -13 27 -52 37 -88 10 -36 23 -78 31
-95 7 -16 20 -50 28 -75 18 -54 94 -257 107 -285 41 -92 87 -211 84 -217 -3
-4 -40 -7 -82 -7 -88 0 -272 -48 -382 -99 -36 -16 -87 -40 -115 -52 -125 -55
-185 -83 -182 -87 2 -2 49 14 103 36 54 21 135 49 179 61 44 12 123 35 175 51
94 28 225 64 287 79 32 8 33 7 72 -64 55 -100 182 -256 345 -424 148 -152 211
-203 377 -306 167 -104 220 -132 294 -156 72 -24 202 -75 290 -115 185 -83
400 -127 461 -95 13 8 27 11 30 7 10 -10 -35 -147 -66 -202 -16 -28 -40 -61
-54 -74 -14 -13 -23 -28 -19 -34 3 -6 1 -7 -4 -4 -6 4 -35 -15 -66 -42 -65
-57 -113 -92 -130 -95 -7 -1 -18 -5 -24 -9 -8 -5 -13 -4 -13 2 0 6 5 12 10 12
6 1 14 2 19 3 15 2 67 43 157 123 90 80 139 154 168 252 19 65 19 68 4 53 -17
-17 -142 -15 -208 4 -30 8 -80 22 -110 31 -46 12 -182 65 -265 103 -47 21
-105 44 -188 72 -89 30 -118 45 -290 150 -154 94 -244 167 -387 314 -159 164
-288 323 -339 416 -40 75 -47 78 -122 54 -24 -7 -111 -33 -194 -56 -355 -100
-461 -140 -537 -202 -48 -39 -68 -47 -68 -25 0 20 75 76 160 118 44 21 82 39
85 39 2 0 52 22 110 50 142 66 344 122 441 121 l73 -1 -30 68 c-40 88 -215
557 -230 615 -12 49 -50 93 -72 84 -8 -3 -29 -31 -48 -63 -45 -79 -62 -94
-106 -94 -28 0 -49 9 -82 35 -24 19 -50 35 -57 35 -7 0 -29 -24 -48 -52 -57
-86 -117 -139 -164 -145 -37 -5 -44 -10 -62 -49 -59 -120 -85 -432 -56 -659
43 -338 135 -673 256 -927 16 -36 30 -71 30 -79 0 -18 -55 97 -86 181 -13 36
-28 74 -34 85 -5 11 -16 46 -25 78 -9 31 -21 55 -26 51 -5 -3 -7 -14 -4 -25 4
-10 4 -19 1 -19 -7 0 -36 69 -35 84 0 6 5 -1 11 -17 10 -27 28 -28 28 -1 0 9
-5 12 -12 8 -6 -4 -8 -3 -5 4 4 5 -4 52 -18 103 -59 221 -105 516 -105 675 0
182 33 388 76 479 14 30 21 35 51 35 27 0 44 10 83 46 27 26 66 71 85 100 44
65 64 68 126 19 71 -57 103 -49 156 39 20 33 41 67 46 74 15 19 52 14 74 -10z
m306 -1035 c-7 -2 -19 -2 -25 0 -7 3 -2 5 12 5 14 0 19 -2 13 -5z m-43 -13
c11 -7 5 -8 -20 -5 l-35 6 30 -14 c17 -8 34 -12 39 -9 5 3 6 0 3 -5 -4 -6 7
-16 23 -23 17 -7 28 -15 26 -17 -3 -3 -26 6 -52 21 -25 14 -53 26 -60 26 -8 0
-14 7 -14 15 0 17 37 20 60 5z m70 0 c-8 -5 -24 -9 -35 -9 -16 1 -16 2 5 9 35
11 48 11 30 0z m-268 -25 c-105 -29 -444 -196 -428 -212 2 -3 32 11 65 31 111
68 360 177 399 175 9 0 -5 -7 -33 -16 -27 -8 -54 -19 -59 -24 -6 -5 -16 -9
-24 -9 -20 0 -261 -122 -316 -159 -42 -29 -66 -33 -66 -12 0 11 108 80 185
119 144 73 264 121 305 121 14 0 1 -7 -28 -14z m327 4 c40 -14 44 -45 4 -33
-16 4 -38 8 -50 8 -11 1 -19 4 -16 9 2 4 -1 7 -8 7 -7 0 -10 2 -7 5 3 3 24 -2
48 -10 57 -20 64 -18 15 5 -44 20 -36 26 14 9z m-24 -96 c-11 -2 -67 -19 -125
-37 -545 -173 -659 -209 -682 -222 -14 -8 -32 -14 -40 -14 -8 0 -23 -7 -34
-15 -17 -14 -10 -15 77 -9 84 5 98 4 106 -10 12 -21 107 -24 278 -8 136 13
209 31 179 44 -15 6 -13 7 6 4 14 -3 32 -1 40 4 10 7 -4 10 -46 10 -78 0 -114
24 -114 76 0 19 -2 34 -4 34 -2 0 -73 -22 -158 -50 -84 -27 -160 -50 -168 -51
-8 0 46 -11 120 -25 129 -23 154 -24 265 -8 22 4 37 4 34 0 -3 -3 -40 -10 -82
-16 -73 -10 -98 -9 -224 16 -16 2 -52 8 -81 11 -29 3 -51 10 -49 16 3 9 326
117 349 117 4 0 8 -15 8 -33 0 -50 29 -70 108 -78 59 -5 72 -3 110 18 23 13
48 23 55 22 6 -1 25 4 40 11 20 10 24 16 15 22 -8 6 -4 7 11 3 15 -5 21 -3 17
3 -7 12 23 32 48 32 22 0 20 -19 -1 -27 -10 -4 -40 -20 -66 -35 -27 -16 -54
-27 -60 -26 -7 1 -46 -14 -87 -34 -41 -20 -82 -38 -90 -41 -35 -12 16 -6 70 8
30 8 56 13 58 11 7 -8 -74 -29 -122 -32 -28 -1 -107 -8 -176 -15 -171 -17
-281 -14 -293 7 -8 13 -22 15 -103 9 -83 -7 -94 -6 -94 9 0 9 12 21 28 26 15
5 40 16 55 25 16 8 34 15 40 15 11 0 411 126 652 205 55 19 111 33 125 33 20
0 21 -1 5 -5z m-22 -34 c-24 -11 -43 -22 -43 -26 0 -3 37 -3 83 0 67 4 74 4
37 -4 -25 -6 -66 -8 -92 -6 l-47 4 6 -44 c5 -39 3 -47 -22 -73 -16 -17 -33
-30 -39 -30 -5 0 5 15 23 34 31 32 33 38 27 79 l-7 44 43 21 c24 12 50 21 58
21 8 0 -4 -9 -27 -20z m100 -6 c-13 -2 -33 -2 -45 0 -13 2 -3 4 22 4 25 0 35
-2 23 -4z m-53 -80 c-8 -3 -31 -18 -50 -33 -57 -44 -68 -44 -20 -1 25 23 54
41 65 40 14 0 16 -2 5 -6z m326 -103 c4 0 4 12 0 28 -4 23 -3 23 10 -7 8 -18
13 -41 11 -50 -3 -10 -6 -7 -7 9 -2 24 -3 24 -10 -5 l-8 -30 -1 27 c0 15 -5
30 -11 33 -5 3 -10 18 -9 33 1 26 1 26 10 -5 5 -18 12 -33 15 -33z m-849 -86
c-3 -3 -12 -4 -19 -1 -8 3 -5 6 6 6 11 1 17 -2 13 -5z m-473 -39 c5 -22 4 -26
-4 -15 -5 8 -10 24 -10 34 0 26 6 18 14 -19z m1371 -67 c-5 -26 -4 -30 5 -18
10 13 11 12 6 -3 -6 -19 38 -115 84 -182 47 -68 70 -115 70 -140 0 -33 -10
-32 -78 8 -31 18 -70 39 -86 47 -52 26 -166 145 -166 171 0 15 21 46 56 84 31
33 47 47 36 30 -11 -16 -34 -43 -51 -59 -38 -36 -39 -61 -3 -103 39 -46 133
-123 150 -123 8 0 -3 13 -25 29 -54 39 -143 129 -143 144 1 12 100 124 100
112 0 -4 -20 -30 -44 -58 -34 -38 -43 -54 -36 -67 17 -32 128 -127 174 -150
50 -24 62 -35 20 -19 -46 17 -35 5 27 -29 43 -24 59 -29 59 -18 0 23 -11 46
-21 41 -18 -12 -169 248 -169 293 0 11 5 24 10 27 7 4 9 -2 5 -18 -5 -17 5
-48 35 -107 47 -93 110 -193 118 -185 3 2 -11 29 -31 59 -64 96 -118 214 -111
241 9 37 17 30 9 -7z m1733 11 c3 -11 1 -11 -8 1 -10 12 -11 11 -6 -9 4 -22 4
-23 -11 -9 -8 9 -12 21 -8 28 9 14 28 8 33 -11z m-2908 -50 c0 -28 -35 -75
-59 -82 -17 -4 -19 -2 -10 20 13 34 48 83 60 83 5 0 9 -9 9 -21z m90 -3 c0
-35 -10 -56 -26 -56 -15 0 -18 21 -8 58 8 30 34 29 34 -2z m100 -20 c0 -13 -7
-26 -15 -30 -11 -4 -15 2 -15 24 0 20 5 30 15 30 9 0 15 -9 15 -24z m2755
-154 c-24 -59 -25 -67 -11 -78 9 -6 16 -20 16 -30 0 -10 5 -36 11 -57 9 -33
12 -37 22 -23 10 14 12 13 14 -10 1 -21 -1 -24 -9 -13 -7 10 -8 7 -3 -11 41
-161 74 -423 76 -597 1 -110 16 -94 18 19 l1 66 38 7 c20 3 44 10 52 15 25 16
3 22 -35 10 -55 -18 -65 -9 -65 55 0 30 3 55 8 55 4 -1 34 -7 67 -15 33 -8 76
-15 95 -15 34 0 36 -3 73 -78 62 -129 75 -229 35 -268 -13 -12 -70 -43 -128
-69 -58 -26 -109 -51 -113 -55 -5 -4 -14 -36 -22 -71 -19 -94 -38 -151 -52
-156 -6 -2 -26 3 -43 12 -18 9 -34 14 -37 11 -3 -3 18 -16 46 -29 28 -14 68
-38 88 -55 21 -16 64 -44 95 -62 32 -17 61 -36 64 -41 3 -5 15 -14 26 -20 19
-10 20 -9 15 11 l-6 22 22 -20 c12 -12 60 -33 107 -47 127 -40 234 -77 245
-85 21 -15 238 -81 414 -125 165 -41 402 -114 441 -134 8 -4 83 -29 165 -56
209 -66 279 -94 531 -216 67 -32 185 -101 263 -154 78 -52 144 -95 146 -95 11
0 75 -43 71 -48 -7 -6 -122 62 -260 155 -182 123 -468 256 -751 348 -88 29
-213 72 -278 94 -123 43 -189 62 -392 112 -141 36 -278 79 -392 125 -45 18
-116 42 -158 53 -42 12 -94 30 -116 40 -56 27 -57 9 -1 -28 26 -17 43 -31 38
-31 -12 0 -74 38 -121 75 -22 17 -62 44 -90 60 -27 16 -73 46 -101 67 -28 21
-54 38 -57 38 -18 0 -107 64 -107 76 0 21 14 17 70 -17 51 -31 70 -31 70 0 0
9 4 21 9 26 5 6 17 46 26 90 9 44 17 80 18 82 2 1 54 26 117 56 63 30 123 64
133 75 34 37 18 134 -41 249 -33 66 -40 73 -67 73 -28 0 -95 13 -137 26 -16 5
-18 -2 -18 -46 0 -51 1 -52 25 -46 61 15 71 16 84 7 22 -14 5 -28 -49 -41
l-50 -12 0 -51 c0 -77 -11 -127 -26 -127 -11 0 -14 22 -14 103 0 201 -39 485
-85 615 -14 39 -25 80 -25 91 0 11 -7 24 -16 29 -15 8 -14 18 12 94 16 47 31
79 32 71 2 -8 -8 -44 -23 -81z m32 3 c-11 -31 -13 -54 -6 -82 5 -21 8 -51 8
-68 -1 -16 -7 2 -13 40 -11 58 -11 77 0 109 8 21 15 53 15 70 2 31 2 31 6 3 3
-16 -2 -48 -10 -72z m-309 -22 c-5 -25 -28 -28 -28 -4 0 12 6 21 16 21 9 0 14
-7 12 -17z m-32 -69 c-9 -8 -16 -25 -16 -36 0 -12 -3 -19 -6 -15 -11 11 7 67
23 67 12 0 12 -2 -1 -16z m396 -146 c16 -84 33 -193 36 -243 l7 -90 50 -11
c28 -7 68 -13 90 -13 74 -2 83 -9 120 -85 35 -73 55 -142 54 -186 -1 -14 -7 4
-14 40 -17 85 -80 209 -108 214 -12 3 -47 7 -77 10 -30 3 -71 10 -91 16 l-37
10 -4 88 c-5 94 -57 385 -70 390 -5 2 -5 8 -2 14 3 5 8 7 11 4 3 -2 18 -74 35
-158z m-2920 -160 c44 -75 108 -170 142 -210 104 -122 241 -227 341 -263 123
-43 191 -73 470 -210 39 -19 133 -53 210 -76 139 -42 183 -60 128 -53 -24 4
-25 3 -8 -5 24 -11 10 -13 -24 -4 -22 5 -22 7 -7 13 12 4 -25 19 -105 43 -68
21 -157 54 -197 73 -40 19 -77 32 -84 28 -6 -4 -8 -3 -5 3 6 9 -153 93 -176
93 -6 -1 22 -19 63 -40 108 -56 80 -49 -45 11 -76 37 -103 54 -93 61 9 7 8 8
-7 6 -11 -2 -20 -8 -20 -15 0 -6 -3 -14 -7 -18 -9 -9 -5 16 5 33 5 6 4 12 0
12 -5 0 -15 -6 -23 -12 -12 -11 -12 -10 -2 3 10 13 2 18 -59 37 -116 37 -250
136 -365 270 -77 91 -304 476 -304 516 0 6 21 -27 46 -74 25 -47 82 -147 126
-222z m-71 -223 c2 -29 2 -29 8 5 5 27 13 -11 35 -155 28 -185 87 -490 160
-824 20 -90 35 -177 34 -195 -1 -26 -2 -24 -9 14 -5 32 -6 20 -4 -45 l3 -90
-12 96 c-7 52 -18 118 -24 145 -81 350 -173 823 -171 867 1 14 4 9 9 -13 7
-34 7 -34 8 -5 0 17 -3 50 -7 75 l-8 45 -3 -40 c-2 -33 -5 -25 -15 40 -8 44
-16 94 -19 110 -4 22 -3 26 4 15 5 -8 10 -28 11 -45z m2104 9 c-34 -27 -55
-36 -55 -24 0 5 5 10 11 10 6 0 17 7 25 15 9 8 21 15 27 15 7 0 3 -8 -8 -16z
m-198 -20 c-3 -3 -12 -4 -19 -1 -8 3 -5 6 6 6 11 1 17 -2 13 -5z m-640 -20
c-3 -3 -12 -4 -19 -1 -8 3 -5 6 6 6 11 1 17 -2 13 -5z m-832 -191 c28 -17 83
-48 122 -69 41 -21 68 -41 62 -45 -7 -4 -4 -9 10 -14 11 -3 26 -3 32 1 7 4 9
3 6 -2 -3 -6 77 -38 179 -73 102 -35 183 -65 181 -68 -5 -5 -380 125 -467 162
-103 43 -280 165 -295 202 -2 8 21 -8 53 -35 63 -55 139 -105 219 -146 87 -44
84 -29 -4 18 -101 55 -155 91 -213 146 l-45 42 55 -44 c30 -24 78 -58 105 -75z
m2592 -495 c-3 -8 -6 -5 -6 6 -1 11 2 17 5 13 3 -3 4 -12 1 -19z m-1110 -234
c-3 -3 -12 -4 -19 -1 -8 3 -5 6 6 6 11 1 17 -2 13 -5z m1458 -32 c-3 -3 -11 0
-18 7 -9 10 -8 11 6 5 10 -3 15 -9 12 -12z m-2374 -75 c-7 -19 -9 -47 -5 -61
5 -21 -1 -32 -35 -62 -58 -52 -172 -115 -315 -173 -123 -50 -240 -101 -285
-124 -14 -6 -28 -25 -32 -41 l-8 -29 67 7 c37 3 139 15 227 26 88 11 274 25
412 32 l253 12 57 -24 c32 -13 90 -38 130 -57 87 -40 135 -42 218 -7 138 58
287 96 392 99 59 2 86 -1 93 -11 7 -7 17 -11 25 -8 35 14 182 -85 281 -188
130 -135 163 -184 445 -642 52 -85 47 -102 -27 -98 -27 1 -150 2 -274 2 -185
0 -244 -4 -333 -21 -181 -34 -389 -118 -601 -241 -51 -30 -70 -37 -76 -28 -10
16 -2 174 14 288 7 45 8 82 3 82 -27 0 -71 -178 -82 -332 -4 -46 -8 -93 -11
-105 -6 -30 -34 -30 -71 0 -93 77 -175 125 -328 192 -71 32 -248 59 -375 58
-199 -2 -570 -59 -604 -93 -6 -6 -16 -10 -24 -10 -11 0 -13 13 -8 63 16 151
29 243 36 252 10 13 24 81 55 260 45 267 89 470 103 471 6 1 33 3 60 4 l47 3
-55 6 c-54 6 -55 6 -52 36 5 37 16 51 46 59 13 3 57 21 97 40 41 19 117 51
169 72 52 21 109 45 125 54 176 96 240 146 229 175 -7 16 15 109 23 101 3 -3
0 -20 -6 -39z m-34 -89 c-3 -7 -5 -2 -5 12 0 14 2 19 5 13 2 -7 2 -19 0 -25z
m-720 -110 c-2 -13 -4 -5 -4 17 -1 22 1 32 4 23 2 -10 2 -28 0 -40z m-30 -125
c-2 -16 -4 -3 -4 27 0 30 2 43 4 28 2 -16 2 -40 0 -55z m20 -5 c-2 -18 -4 -6
-4 27 0 33 2 48 4 33 2 -15 2 -42 0 -60z m-27 -78 c3 37 4 39 7 14 14 -112
-128 -538 -200 -601 -13 -11 -8 0 12 30 18 26 31 52 29 57 -2 5 -20 -16 -40
-47 -21 -31 -38 -51 -38 -44 0 7 11 27 24 44 80 106 181 410 188 564 1 35 2
35 8 -12 l7 -50 3 45z m2176 -81 c18 -11 72 -61 120 -112 61 -65 92 -91 108
-90 15 1 16 0 4 -3 -10 -3 -18 -10 -18 -16 0 -5 7 -7 16 -4 8 3 13 2 9 -3 -5
-8 43 -83 321 -500 80 -120 90 -135 125 -181 14 -19 64 -87 111 -150 137 -185
487 -511 708 -660 90 -60 280 -156 368 -184 30 -10 52 -24 52 -32 0 -8 -5 -14
-10 -14 -6 0 -9 5 -8 10 2 6 -26 21 -62 34 -36 13 -92 37 -125 53 -33 17 -78
38 -100 48 -194 89 -660 501 -833 735 -47 63 -97 131 -111 150 -44 58 -75 104
-327 487 -112 169 -152 219 -246 315 -62 62 -122 119 -133 125 -11 7 -16 12
-11 12 5 1 24 -8 42 -20z m348 -884 c4 -10 -1 -15 -14 -15 -11 0 -20 7 -20 15
0 8 6 15 14 15 8 0 16 -7 20 -15z m1531 -1046 c15 -6 11 -7 -15 -3 -33 6 -31
3 40 -52 41 -32 111 -91 155 -132 44 -40 109 -94 145 -119 83 -59 130 -103
130 -122 0 -10 -3 -12 -8 -6 -4 6 -23 11 -42 12 -33 2 -33 1 -10 -8 50 -20
167 -41 270 -47 59 -4 105 -11 105 -17 0 -5 -13 -11 -30 -12 l-30 -2 30 9 c23
6 12 8 -47 9 -87 1 -278 35 -320 57 -34 17 -38 39 -5 30 12 -3 33 -9 47 -13
l25 -6 -20 23 c-11 12 -54 46 -95 75 -41 30 -116 91 -166 137 -50 46 -119 103
-152 128 -34 25 -61 51 -62 58 0 14 26 15 55 1z"/>
<path d="M2317 5469 c-31 -30 -34 -35 -12 -20 55 38 80 61 67 61 -7 0 -32 -18
-55 -41z"/>
<path d="M2470 5219 c0 -5 5 -7 10 -4 6 3 10 8 10 11 0 2 -4 4 -10 4 -5 0 -10
-5 -10 -11z"/>
<path d="M3250 5200 c-18 -12 -2 -12 25 0 13 6 15 9 5 9 -8 0 -22 -4 -30 -9z"/>
<path d="M2415 4877 c-27 -44 -28 -47 -17 -47 10 0 48 67 41 74 -2 3 -13 -10
-24 -27z"/>
<path d="M2517 4897 c-11 -29 -9 -53 4 -40 6 6 9 21 7 34 -3 21 -4 22 -11 6z"/>
<path d="M2621 4874 c0 -11 3 -14 6 -6 3 7 2 16 -1 19 -3 4 -6 -2 -5 -13z"/>
<path d="M5372 3444 c10 -10 20 -15 24 -12 3 4 -5 12 -18 18 -22 12 -22 12 -6
-6z"/>
<path d="M3200 3775 c14 -8 30 -14 35 -14 6 0 -1 6 -15 14 -14 8 -29 14 -35
14 -5 0 1 -6 15 -14z"/>
<path d="M2502 4050 c0 -19 2 -27 5 -17 2 9 2 25 0 35 -3 9 -5 1 -5 -18z"/>
<path d="M2536 3829 c9 -95 166 -849 172 -829 2 6 -1 32 -7 58 -43 189 -106
487 -136 642 -19 102 -32 160 -29 129z"/>
<path d="M4405 2610 c-61 -15 -152 -44 -202 -64 -52 -20 -110 -36 -133 -36
-40 0 -112 23 -140 45 -27 20 -159 67 -177 62 -15 -4 -14 -5 3 -6 26 -1 74
-20 174 -69 97 -48 184 -51 270 -11 87 41 293 100 345 98 11 0 -29 -12 -90
-25 -60 -14 -148 -41 -195 -60 -47 -20 -103 -40 -125 -46 -59 -15 -137 -3
-202 30 -147 75 -139 74 -381 63 -204 -10 -364 -24 -629 -54 -62 -7 -115 -15
-117 -18 -7 -7 -70 -324 -102 -509 -14 -85 -32 -173 -40 -196 -13 -40 -26
-120 -39 -253 -5 -53 -4 -63 7 -54 45 36 418 94 618 96 238 2 458 -65 635
-193 39 -27 80 -57 92 -66 12 -9 26 -13 31 -10 5 3 12 49 16 103 7 109 35 258
59 316 11 26 22 37 37 37 16 0 20 -5 17 -17 -16 -57 -40 -340 -31 -354 2 -5
21 3 40 16 128 87 414 207 589 247 119 27 472 42 593 26 69 -9 85 -9 97 3 13
12 9 22 -25 74 -22 33 -40 63 -40 67 0 3 -50 86 -110 183 -177 284 -330 458
-478 544 -103 60 -119 45 -27 -25 58 -45 73 -51 45 -19 l-25 28 27 -19 c28
-19 37 -44 16 -44 -13 0 -67 40 -126 94 -40 37 -48 40 -105 42 -41 1 -100 -8
-172 -26z"/>
<path d="M3430 2609 c-149 -8 -512 -47 -520 -56 -3 -3 27 -3 65 1 39 4 160 15
270 26 110 11 245 20 300 21 55 0 120 4 145 8 39 7 33 8 -40 8 -47 0 -146 -3
-220 -8z"/>
<path d="M2681 2580 c-3 -49 -49 -216 -86 -310 -51 -132 -49 -126 -38 -115 35
33 139 379 130 427 -4 22 -4 22 -6 -2z"/>
<path d="M4000 3407 c0 -40 243 -239 272 -221 6 4 8 3 5 -3 -9 -14 21 -25 39
-15 11 6 5 12 -22 25 -43 21 -157 106 -236 178 -35 31 -58 45 -58 36z m86 -79
l29 -33 -32 29 c-31 28 -38 36 -30 36 2 0 16 -15 33 -32z"/>
<path d="M5501 1555 c0 -11 13 -96 28 -190 16 -93 29 -159 30 -145 0 31 -56
363 -58 335z"/>
<path d="M2551 1416 c-56 -101 -73 -181 -78 -378 -8 -296 25 -502 124 -758 36
-95 134 -280 148 -280 6 0 -14 51 -45 113 -108 217 -162 388 -195 624 -14 95
-16 166 -13 315 6 208 18 272 73 367 14 24 24 46 21 48 -2 2 -18 -21 -35 -51z"/>
<path d="M5581 1090 c0 -8 6 -53 14 -100 43 -241 59 -665 34 -886 -9 -88 -8
-116 6 -102 3 3 11 80 17 171 17 243 -7 617 -56 862 -7 39 -14 63 -15 55z"/>
</g>
</svg>
