<?xml version="1.0" standalone="no"?>
<!DOCTYPE svg PUBLIC "-//W3C//DTD SVG 20010904//EN"
 "http://www.w3.org/TR/2001/REC-SVG-20010904/DTD/svg10.dtd">
<svg version="1.0" xmlns="http://www.w3.org/2000/svg"
 width="1280.000000pt" height="720.000000pt" viewBox="0 0 1280.000000 720.000000"
 preserveAspectRatio="xMidYMid meet">
<metadata>
Created by potrace 1.16, written by Peter Selinger 2001-2019
</metadata>
<g transform="translate(0.000000,720.000000) scale(0.100000,-0.100000)"
fill="#000000" stroke="none">
<path d="M0 3600 l0 -3600 135 0 c100 0 137 3 140 13 2 6 24 88 48 182 25 94
68 229 96 302 48 125 76 225 135 478 30 125 31 168 11 280 -30 163 -21 186
112 297 105 89 119 120 133 299 23 311 39 372 111 429 44 34 58 40 100 40 46
0 152 19 394 70 55 12 151 32 214 45 62 13 115 25 116 27 2 2 -3 32 -11 68
-24 108 -9 199 80 509 43 148 107 456 133 631 22 157 24 597 4 1215 -25 783
-24 932 9 1230 35 303 58 391 157 584 113 220 178 317 292 434 l65 67 -1237 0
-1237 0 0 -3600z"/>
<path d="M2495 7190 c-50 -19 -206 -206 -272 -325 -158 -281 -206 -397 -227
-550 -60 -430 -63 -556 -35 -1430 20 -618 18 -1058 -4 -1215 -29 -195 -92
-488 -152 -701 -77 -272 -86 -355 -53 -472 6 -20 9 -39 7 -41 -2 -3 -49 -14
-104 -25 -55 -11 -154 -32 -220 -46 -252 -54 -366 -75 -411 -75 -39 0 -53 -6
-94 -40 -72 -60 -87 -118 -110 -417 -14 -188 -30 -224 -130 -307 -137 -114
-144 -131 -115 -291 25 -137 24 -140 -62 -495 -14 -58 -52 -177 -84 -264 -33
-88 -79 -235 -104 -328 -41 -157 -42 -168 -24 -168 10 0 19 6 19 13 0 8 4 7
11 -3 7 -11 8 -4 5 25 -4 29 -3 33 3 15 7 -23 8 -23 13 -5 3 11 4 5 2 -12 l-3
-33 571 0 571 0 -7 37 c-46 277 -18 654 66 883 l24 65 -50 25 c-27 13 -67 41
-90 61 -32 29 -38 40 -29 50 10 10 21 4 53 -25 47 -42 131 -86 137 -71 2 6 11
23 21 40 18 29 18 30 -9 75 -35 57 -79 189 -84 255 l-4 50 10 -54 c13 -75 22
-79 15 -6 l-6 60 14 -65 c20 -94 84 -240 105 -240 4 0 26 27 50 60 24 33 47
60 52 60 23 0 15 -26 -24 -82 -107 -151 -157 -302 -187 -569 -15 -126 -8 -478
10 -557 l12 -52 643 0 643 1 -77 152 c-156 307 -214 530 -228 867 -9 227 13
360 80 478 16 29 27 56 23 59 -11 11 -86 -161 -101 -232 -34 -159 -29 -416 11
-645 31 -177 116 -403 219 -581 26 -45 44 -83 42 -86 -7 -7 -82 123 -128 224
-50 109 -114 295 -134 393 -70 333 -54 689 37 860 38 71 49 83 61 71 5 -5 -7
-40 -32 -92 -59 -119 -75 -223 -67 -439 12 -348 64 -548 224 -862 l85 -168
1393 0 1392 0 5 33 c21 121 29 294 24 535 -6 271 -15 365 -61 622 -14 74 -34
198 -46 275 -11 77 -23 150 -27 163 -4 16 -1 22 11 22 19 0 20 -6 47 -185 11
-77 33 -212 49 -300 73 -405 87 -766 43 -1118 l-6 -47 597 0 597 0 75 153 c41
83 78 166 83 182 9 29 9 29 11 5 l2 -25 8 25 c5 14 8 18 9 9 2 -30 -49 -173
-94 -261 l-43 -88 409 0 c225 0 409 2 409 4 0 5 -97 64 -161 98 -60 31 -85 56
-71 70 5 5 18 8 28 5 15 -4 15 -5 -4 -6 -22 -1 -22 -2 -5 -20 10 -10 45 -32
78 -49 33 -16 84 -46 114 -66 l53 -36 2504 0 2504 0 0 1542 0 1541 -172 -6
c-95 -3 -229 -12 -298 -21 -69 -9 -204 -25 -300 -36 -712 -84 -1266 -180
-1730 -301 -85 -22 -274 -81 -420 -131 -592 -201 -815 -257 -1145 -283 -157
-13 -597 -59 -761 -81 -30 -3 -43 -1 -47 9 -4 11 26 20 139 42 79 15 144 29
144 30 0 2 -28 20 -62 41 -35 21 -119 75 -187 122 -72 48 -196 119 -295 167
-240 116 -245 118 -454 189 -103 35 -239 82 -302 104 -120 41 -186 61 -385
113 -159 41 -391 119 -447 149 -9 5 -45 16 -80 25 -71 19 -178 64 -178 76 0 4
19 -3 43 -16 23 -13 77 -33 120 -45 43 -12 110 -35 149 -51 103 -42 254 -91
398 -129 218 -57 415 -117 505 -155 17 -7 95 -34 175 -60 80 -26 159 -53 177
-61 17 -8 34 -14 37 -14 14 0 380 -177 444 -215 24 -14 78 -49 120 -79 42 -29
109 -73 147 -96 117 -70 117 -70 -45 -101 -78 -15 -144 -30 -148 -33 -3 -4 12
-4 33 -2 130 18 599 68 760 81 234 19 481 68 740 149 119 37 398 132 430 146
40 18 284 90 435 129 452 116 989 209 1690 291 96 11 231 27 300 36 69 9 203
18 298 21 169 6 172 6 172 28 0 21 -5 22 -137 28 -397 20 -651 5 -1124 -63
-701 -102 -1070 -198 -1759 -457 -309 -117 -413 -152 -659 -223 -130 -37 -145
-39 -356 -49 -197 -10 -442 -33 -486 -47 -11 -3 -34 13 -65 47 -57 60 -226
197 -303 247 -48 31 -192 102 -383 190 -36 17 -106 45 -155 62 -426 146 -581
195 -728 230 -264 63 -406 102 -460 125 -27 12 -90 34 -140 49 -143 43 -206
66 -270 96 -33 15 -82 37 -108 49 l-48 20 7 108 c4 59 10 118 13 131 5 18 31
34 120 73 63 27 122 56 132 65 43 39 30 180 -27 295 -18 36 -38 70 -46 76 -7
6 -42 13 -77 17 -35 3 -81 11 -102 18 -39 11 -39 11 -39 64 0 29 -11 118 -25
198 -14 80 -25 149 -25 153 0 4 -5 0 -10 -9 -7 -11 -7 -26 0 -43 12 -32 12
-58 0 -30 -14 32 -11 -2 4 -64 19 -74 43 -283 52 -449 7 -143 16 -168 18 -50
l1 73 53 15 c28 8 52 19 52 24 0 8 -22 5 -81 -9 -25 -7 -26 -5 -33 51 -3 31
-4 59 -2 61 3 3 36 -2 75 -11 38 -9 83 -16 100 -16 26 0 33 -7 64 -65 40 -76
70 -196 61 -242 -7 -37 -15 -43 -154 -107 -58 -27 -108 -52 -112 -55 -4 -3
-14 -42 -23 -86 -9 -44 -21 -84 -26 -90 -5 -5 -9 -17 -9 -26 0 -31 -20 -31
-76 1 -31 17 -58 29 -61 26 -3 -3 18 -17 47 -33 29 -15 73 -42 99 -60 25 -17
66 -44 91 -59 25 -15 82 -54 127 -87 49 -35 87 -56 94 -51 8 5 9 3 4 -6 -6
-10 -4 -12 9 -7 11 4 15 3 11 -4 -4 -6 0 -9 10 -7 10 2 20 -3 22 -9 3 -7 1
-13 -5 -13 -15 0 -105 52 -178 103 -121 84 -167 114 -256 168 -49 29 -88 59
-88 66 0 21 26 15 77 -17 26 -17 50 -27 53 -23 15 17 40 95 51 157 10 61 14
68 43 80 138 59 228 110 238 135 14 38 -14 155 -55 232 l-34 63 -69 12 c-38 6
-82 15 -97 19 l-29 8 7 -49 c4 -27 9 -50 10 -52 1 -1 14 2 29 8 45 17 76 13
76 -10 0 -13 -7 -20 -20 -20 -11 0 -37 -7 -57 -15 -34 -15 -36 -17 -31 -58 6
-50 -3 -99 -18 -104 -8 -3 -13 40 -18 134 -9 188 -33 383 -58 473 -11 41 -28
104 -37 138 -10 35 -24 67 -31 72 -14 9 -13 13 24 115 14 39 26 60 26 48 0
-12 -12 -49 -26 -83 -24 -54 -25 -62 -12 -78 8 -9 20 -42 27 -72 6 -30 16 -62
22 -70 9 -12 10 -10 6 8 -3 12 0 36 6 52 8 22 8 38 0 60 -6 17 -7 30 -2 30 5
0 9 -2 9 -4 0 -3 9 -51 20 -108 32 -162 50 -279 50 -330 0 -43 2 -47 32 -57
17 -6 63 -14 102 -17 39 -4 77 -11 84 -17 50 -40 108 -233 97 -323 -7 -58 -21
-75 -80 -99 -22 -9 -49 -20 -60 -25 -139 -60 -134 -57 -139 -92 -3 -18 -8 -72
-12 -121 l-6 -87 79 -36 c132 -61 214 -94 277 -110 34 -9 113 -35 177 -59 120
-45 197 -66 484 -135 180 -43 759 -234 898 -296 151 -67 332 -156 382 -189 77
-49 250 -191 299 -246 25 -27 50 -47 58 -44 35 12 285 36 483 46 211 10 226
12 356 49 227 66 346 105 529 175 96 37 204 78 240 92 117 44 412 143 565 188
300 90 645 161 1084 225 450 65 568 73 939 67 l322 -6 0 2025 0 2024 -3922 0
-3922 0 71 -72 c112 -115 276 -364 324 -493 12 -33 25 -64 29 -70 14 -18 78
-228 97 -315 15 -72 18 -133 18 -410 -1 -342 -11 -477 -43 -546 -43 -92 -44
-83 11 -149 58 -69 94 -141 102 -205 5 -38 3 -34 -12 20 -19 68 -39 102 -110
187 -24 28 -43 54 -43 57 0 7 36 91 51 119 23 42 33 199 33 512 1 355 -3 396
-59 576 -79 254 -244 539 -414 713 l-73 76 -1212 -1 c-666 0 -1220 -4 -1231
-9z m488 -608 c20 -20 37 -42 37 -50 0 -7 9 -37 21 -65 12 -29 24 -61 29 -72
4 -11 12 -31 18 -45 6 -14 22 -77 37 -140 41 -185 66 -237 223 -475 94 -141
246 -308 358 -392 37 -28 64 -56 64 -66 0 -13 5 -17 19 -12 20 6 59 -13 138
-67 156 -109 537 -313 684 -366 236 -87 278 -101 324 -107 28 -4 74 -14 103
-23 61 -18 63 -25 31 -128 -24 -79 -67 -159 -103 -193 -14 -13 -23 -28 -19
-34 3 -6 2 -7 -4 -4 -5 3 -36 -17 -69 -45 -59 -50 -128 -97 -130 -88 0 3 -9
-2 -19 -10 -16 -13 -18 -13 -13 0 3 8 13 14 22 14 9 -1 16 2 16 7 0 5 5 9 11
9 20 0 209 171 236 213 35 55 70 142 79 194 l6 41 -48 15 c-27 8 -71 18 -99
22 -27 4 -90 22 -140 40 -49 18 -126 45 -170 60 -167 57 -514 242 -739 393
-55 36 -84 51 -98 46 -14 -4 -21 0 -25 13 -6 20 -61 68 -70 60 -3 -3 0 -18 5
-34 8 -22 11 -24 12 -8 0 15 5 11 15 -14 18 -41 19 -51 2 -51 -13 0 -50 88
-46 106 2 5 -56 68 -127 139 -95 95 -150 160 -203 241 l-73 111 -46 -8 c-26
-4 -96 -22 -157 -39 -60 -18 -173 -49 -250 -70 -225 -61 -316 -98 -397 -161
-38 -30 -54 -37 -43 -19 3 6 2 10 -4 10 -5 0 -12 -6 -14 -12 -4 -8 -6 -9 -6
-2 -1 18 99 90 164 120 33 14 74 32 90 39 17 7 66 30 110 50 81 38 106 46 275
92 105 28 237 34 251 11 4 -7 11 -10 14 -7 3 4 -12 35 -33 70 -51 86 -87 182
-118 314 -14 61 -43 160 -66 220 -33 90 -49 118 -85 153 -51 51 -56 49 -104
-34 -59 -104 -104 -117 -192 -54 l-56 40 -42 -57 c-62 -86 -127 -142 -166
-143 -38 0 -57 -24 -84 -107 -93 -281 -49 -807 105 -1259 60 -175 71 -203 106
-277 16 -35 30 -70 30 -78 -1 -8 -10 7 -22 33 -11 26 -25 45 -30 42 -10 -6 54
-129 167 -319 84 -142 196 -267 320 -356 63 -46 71 -50 250 -119 61 -24 115
-47 120 -51 34 -25 302 -151 360 -169 39 -12 110 -35 159 -51 49 -16 90 -28
92 -26 1 1 -15 52 -36 112 -21 61 -43 150 -49 200 -7 50 -19 114 -27 143 -12
44 -20 55 -44 64 -32 11 -33 13 -30 71 2 41 44 123 88 169 33 36 102 58 188
60 124 3 252 -36 273 -84 11 -23 10 -32 0 -44 -10 -13 -8 -19 14 -40 15 -14
27 -29 27 -34 0 -5 18 -22 41 -37 38 -25 50 -27 152 -29 128 -2 128 -2 254 98
40 32 73 56 73 54 0 -8 -162 -137 -189 -150 -17 -9 -65 -13 -142 -12 -108 1
-119 3 -157 28 -22 15 -43 36 -47 48 -3 11 -10 20 -15 20 -17 0 -31 39 -22 58
12 23 5 40 -16 37 -9 -1 -11 0 -4 2 24 8 12 21 -40 41 -137 53 -302 46 -372
-16 -36 -32 -90 -127 -97 -171 -6 -41 -5 -44 22 -54 38 -15 56 -63 75 -196 19
-130 63 -270 109 -342 34 -53 43 -79 28 -79 -21 1 -175 69 -158 70 l20 1 -20
9 c-35 15 7 10 45 -6 l35 -14 -35 6 c-27 4 -18 -3 35 -26 38 -16 71 -30 73
-30 2 0 -5 15 -17 33 -11 17 -25 31 -30 30 -5 -1 -49 10 -98 26 -48 16 -119
39 -158 51 -38 11 -107 39 -152 61 -67 33 -85 38 -100 29 -16 -10 -16 -11 5
-7 12 3 20 2 17 -2 -2 -5 15 -14 38 -21 23 -8 47 -17 52 -22 6 -6 4 -7 -5 -4
-425 146 -494 175 -603 248 -72 49 -147 120 -147 139 1 11 4 10 14 -3 15 -20
31 -25 19 -5 -4 6 20 -11 52 -39 70 -59 118 -90 204 -134 35 -17 61 -34 58
-36 -13 -13 -207 105 -269 164 -21 20 -38 32 -38 26 0 -45 324 -241 361 -219
8 5 10 4 5 -3 -4 -7 -1 -12 6 -12 7 0 55 -16 106 -35 51 -19 98 -35 105 -35 6
1 -37 25 -96 56 -59 30 -113 52 -120 49 -7 -4 -3 1 7 9 15 12 16 16 5 16 -8 0
-20 -5 -25 -10 -7 -7 -17 -5 -30 6 -10 8 -14 13 -7 10 6 -4 14 -2 17 3 3 5
-25 18 -63 30 -82 25 -171 82 -264 170 -114 108 -182 202 -304 426 -78 143
-88 166 -73 175 11 7 10 15 -3 43 -10 19 -17 42 -17 50 0 9 -4 18 -8 21 -4 2
-23 52 -42 110 -19 57 -38 102 -42 99 -5 -2 -6 -14 -2 -26 4 -15 3 -19 -4 -12
-13 14 -52 122 -51 143 0 9 8 -8 18 -38 31 -100 33 -28 2 93 -103 399 -118
817 -40 1058 29 90 43 109 82 109 39 1 104 57 166 143 23 31 45 57 50 57 5 0
35 -18 67 -40 33 -22 68 -40 80 -40 25 0 62 39 99 103 44 76 64 79 128 19z
m25 20 c2 -7 -1 -12 -8 -12 -6 0 -9 4 -6 9 4 5 1 12 -4 14 -6 3 -5 4 2 3 6 -1
14 -8 16 -14z m308 -1063 c32 -17 50 -28 39 -25 -50 12 -65 18 -65 26 0 5 -15
7 -32 5 -28 -4 -29 -4 -8 4 l25 8 -30 5 c-19 3 -23 6 -9 7 12 0 48 -13 80 -30z
m-106 11 c11 -7 5 -8 -20 -4 -32 5 -30 3 18 -20 30 -14 59 -23 65 -19 6 4 7 1
2 -7 -6 -10 -4 -12 9 -7 11 5 15 3 10 -5 -5 -8 -1 -9 12 -4 15 6 16 5 7 -5
-10 -10 -25 -6 -74 19 -34 18 -68 32 -75 32 -8 0 -14 7 -14 15 0 17 37 20 60
5z m-205 -29 c-95 -28 -353 -146 -342 -157 3 -3 36 10 74 30 149 74 353 150
337 125 -3 -5 -12 -9 -19 -9 -52 0 -370 -145 -452 -206 -33 -25 -63 -31 -63
-14 0 42 424 251 505 249 11 0 -7 -8 -40 -18z m335 -15 c25 -8 36 -15 25 -15
-11 0 -33 6 -50 14 -39 18 -31 18 25 1z m0 -81 c0 -8 -8 -16 -17 -17 -10 -1 9
-4 42 -8 l60 -7 -78 0 c-51 1 -81 -3 -90 -12 -10 -11 3 -12 73 -9 58 4 76 2
60 -4 -14 -5 -54 -8 -90 -6 l-65 3 0 -57 c0 -32 3 -58 8 -58 4 0 7 4 7 9 0 10
80 65 86 59 6 -7 -95 -78 -111 -78 -8 0 -15 -5 -15 -11 0 -5 -4 -7 -10 -4 -5
3 -10 1 -10 -4 0 -14 6 -14 31 -1 10 6 19 7 19 2 0 -13 -147 -79 -212 -96 -31
-8 -137 -17 -237 -21 -167 -7 -181 -6 -181 9 0 16 -11 17 -87 16 -113 -2 -113
-3 -113 14 0 8 14 17 33 21 17 4 37 11 43 16 7 6 45 19 85 30 41 11 171 51
289 89 294 95 442 139 463 140 9 0 17 -7 17 -15z m60 -135 c0 -5 -22 -19 -50
-31 -27 -12 -55 -27 -61 -35 -13 -16 -39 -19 -39 -3 0 5 4 8 9 5 11 -7 33 19
24 28 -4 4 1 4 11 0 13 -5 17 -4 12 4 -5 8 -1 10 10 5 11 -4 15 -3 11 4 -5 7
1 10 15 7 13 -2 17 -1 9 2 -11 5 -11 8 0 15 19 12 49 11 49 -1z m277 -93 c3 7
0 21 -6 32 -16 30 -12 50 4 21 18 -31 20 -81 3 -77 -7 1 -18 20 -25 42 -18 57
-14 69 4 15 9 -25 18 -40 20 -33z m-477 -41 c0 -8 -111 -37 -123 -33 -7 2 15
11 48 19 70 19 75 19 75 14z m2242 -56 c17 -27 35 -47 39 -44 5 3 6 -3 2 -12
-5 -13 -3 -15 7 -9 8 5 11 4 7 -3 -4 -5 -4 -17 -1 -26 5 -14 9 -14 23 -4 14
11 14 11 4 -3 -7 -8 -10 -26 -7 -40 3 -13 -13 10 -36 51 -49 88 -78 130 -90
130 -5 0 -16 -20 -25 -45 -10 -24 -39 -81 -66 -126 -39 -67 -49 -94 -55 -148
-8 -76 -62 -189 -169 -352 -80 -123 -124 -171 -246 -270 -86 -69 -103 -79
-158 -89 -79 -14 -214 -4 -262 21 -39 19 -74 61 -108 127 -12 23 -26 42 -31
42 -15 0 -12 -11 11 -50 l21 -35 -22 21 c-11 11 -22 33 -24 49 -2 22 -14 34
-57 57 -49 26 -61 29 -121 24 -77 -5 -115 -22 -152 -67 -45 -54 -58 -87 -53
-138 9 -85 123 -482 161 -563 58 -123 283 -311 441 -368 23 -9 26 -13 15 -20
-8 -6 -19 -10 -25 -10 -5 0 -4 4 4 9 11 7 9 10 -8 16 -11 3 -26 3 -32 -1 -8
-4 -9 -3 -5 4 8 14 -3 15 -22 4 -22 -14 153 -85 283 -115 18 -4 18 -5 -2 -6
-64 -3 -337 113 -422 181 -18 14 -26 16 -32 6 -4 -7 -6 -15 -4 -18 5 -7 55
-33 136 -68 l67 -30 6 -48 c3 -27 5 -65 5 -84 -1 -39 45 -146 85 -199 30 -40
122 -111 144 -111 9 0 -4 13 -29 29 -101 65 -145 128 -160 232 -22 145 -22
162 -8 156 31 -13 176 -55 207 -61 27 -5 32 -2 32 14 0 10 -8 24 -17 29 -20
12 -13 14 11 5 10 -4 16 -18 16 -35 0 -29 -1 -29 -42 -23 -24 4 -81 19 -126
34 l-84 27 5 -36 c21 -153 28 -184 51 -218 30 -48 79 -93 131 -120 59 -31 188
-81 229 -89 20 -3 36 -10 36 -15 0 -19 5 -25 40 -50 56 -41 208 -208 258 -284
25 -38 81 -124 125 -190 44 -66 102 -156 129 -200 52 -84 155 -231 275 -394
130 -176 503 -526 713 -668 73 -49 288 -155 365 -179 22 -7 33 -13 24 -13 -50
-2 -356 147 -454 221 -226 170 -543 472 -658 629 -123 166 -223 310 -278 399
-29 47 -73 117 -99 155 -26 39 -81 122 -123 186 -52 80 -112 154 -189 233 -62
64 -118 116 -124 116 -6 0 35 -46 91 -102 56 -57 127 -137 157 -178 55 -73
254 -388 266 -419 3 -9 23 -43 44 -76 21 -33 38 -65 38 -72 0 -25 -38 -34 -98
-23 -34 6 -153 9 -287 6 -289 -4 -342 -14 -600 -113 -88 -34 -274 -127 -326
-164 -44 -31 -52 -14 -44 102 4 57 13 139 19 182 13 79 8 95 -18 55 -25 -41
-50 -169 -71 -371 -8 -68 -24 -80 -63 -48 -60 48 -237 161 -271 172 -20 6 -40
15 -46 19 -47 34 -260 73 -400 72 -199 -2 -522 -49 -596 -88 -17 -8 -30 -10
-34 -4 -7 11 12 210 25 260 26 99 52 226 90 426 22 122 49 250 58 285 l17 64
70 7 c39 3 138 13 220 22 217 23 425 36 540 34 79 -1 64 -3 -75 -9 -174 -8
-425 -28 -635 -52 l-110 -13 -12 -37 c-13 -39 -71 -324 -98 -482 -8 -49 -22
-117 -31 -150 -23 -90 -41 -191 -48 -279 -6 -66 -5 -77 6 -68 45 37 406 92
613 94 95 0 238 -17 310 -38 124 -37 315 -139 404 -216 20 -18 37 -26 43 -20
5 5 13 51 19 103 17 167 48 311 74 338 8 7 20 11 28 8 12 -4 12 -17 2 -84 -16
-100 -29 -283 -20 -283 4 0 32 15 63 33 168 98 380 183 555 224 100 23 137 26
342 29 137 3 253 0 289 -7 95 -17 97 -6 17 131 -272 463 -413 640 -601 750
-97 57 -99 68 -3 15 35 -19 65 -35 66 -35 2 0 3 9 4 21 1 14 -3 19 -13 15 -8
-3 -14 -1 -14 4 0 6 -7 10 -15 10 -8 0 -48 13 -89 30 -48 19 -86 28 -103 24
-35 -6 -110 49 -163 118 -45 60 -84 158 -81 206 0 20 -1 54 -5 74 -6 40 -36
64 -110 88 -21 7 -56 23 -76 36 l-37 23 -56 -19 c-67 -23 -250 -50 -338 -50
-35 0 -85 6 -112 14 -70 20 -102 27 -87 20 18 -9 17 -244 -2 -244 -17 0 -27
111 -14 150 7 23 8 23 4 -5 -2 -16 0 -55 4 -85 6 -46 7 -38 9 56 1 76 -3 114
-11 122 -10 10 -10 15 1 22 10 5 29 1 55 -12 56 -29 174 -34 315 -14 126 17
247 52 255 73 4 10 -1 12 -18 7 -15 -3 -27 1 -36 13 -12 15 -12 16 0 6 8 -7
20 -13 27 -13 7 0 -19 31 -57 69 -39 37 -70 77 -70 87 0 12 12 1 34 -31 50
-74 222 -198 278 -201 24 -1 20 3 -28 32 -108 65 -249 190 -303 269 -23 33
-61 139 -107 295 -7 24 -7 24 -16 5 -7 -16 -7 -15 -3 7 5 28 -41 237 -56 253
-5 5 -9 31 -9 59 0 99 67 185 160 205 85 18 122 14 200 -25 58 -30 75 -43 87
-72 21 -52 73 -112 113 -132 45 -22 180 -34 249 -20 43 8 69 23 140 79 144
115 201 183 325 391 42 69 55 99 49 114 -6 18 -8 15 -19 -19 -7 -22 -13 -35
-13 -29 -1 17 38 167 45 173 4 3 4 -4 1 -16 -3 -13 -1 -23 4 -23 5 0 9 -8 9
-17 0 -14 -2 -15 -9 -5 -7 11 -10 10 -15 -3 -3 -9 -6 -24 -5 -33 0 -14 2 -13
10 3 7 16 8 14 4 -10 l-5 -30 17 30 c9 17 22 65 29 108 10 60 22 95 53 145 22
37 50 91 63 119 30 68 49 69 90 3z m-1725 -72 c-3 -8 -6 -5 -6 6 -1 11 2 17 5
13 3 -3 4 -12 1 -19z m1723 0 c10 -21 10 -21 -3 -5 -18 22 -28 22 -20 0 4 -11
3 -14 -5 -9 -17 10 -15 36 3 36 8 0 19 -10 25 -22z m-1744 -15 c-2 -16 -1 -22
1 -14 3 7 23 -22 45 -65 22 -44 57 -106 77 -139 21 -33 41 -69 46 -80 24 -56
4 -79 -42 -47 -15 10 -50 29 -77 41 -62 27 -196 159 -196 192 0 24 91 129 111
129 20 0 7 -28 -37 -78 l-45 -52 21 -27 c36 -46 112 -108 175 -142 33 -18 66
-38 73 -43 23 -19 23 -1 1 36 -22 38 -39 44 -19 7 6 -12 9 -21 6 -21 -8 0
-105 165 -132 225 -17 36 -24 65 -20 80 9 34 16 32 12 -2z m-1190 -54 c-15
-23 -22 -39 -15 -37 7 2 24 24 37 49 20 35 23 38 17 15 -3 -17 -15 -43 -27
-58 -16 -23 -23 -26 -34 -17 -8 6 -11 16 -8 23 18 33 49 74 53 71 2 -3 -8 -23
-23 -46z m124 14 c0 -16 -5 -35 -10 -43 -7 -10 -8 -3 -5 25 l5 40 -14 -40
c-16 -43 -20 -37 -10 14 8 39 34 42 34 4z m100 -18 c0 -16 -6 -25 -15 -25 -9
0 -15 9 -15 25 0 16 6 25 15 25 9 0 15 -9 15 -25z m2818 -40 l1 -20 -9 20 c-5
11 -8 31 -8 45 l0 25 8 -25 c4 -14 8 -34 8 -45z m-32 -131 c-11 -32 -12 -53
-5 -76 5 -18 8 -49 8 -68 -2 -33 -2 -33 -6 -5 -2 17 -8 46 -13 66 -8 28 -6 47
5 79 8 23 16 59 17 79 l1 36 4 -33 c3 -19 -2 -53 -11 -78z m-299 24 c-3 -7 -5
-2 -5 12 0 14 2 19 5 13 2 -7 2 -19 0 -25z m-2636 -577 c10 17 14 -1 34 -161
24 -181 79 -484 131 -720 56 -253 70 -343 59 -395 -6 -33 -9 -37 -15 -20 -5
11 -9 39 -9 61 -1 46 -24 168 -76 405 -33 145 -44 218 -25 159 l8 -25 0 25 c0
14 -4 39 -8 55 l-8 30 -2 -30 c-2 -22 -6 -12 -16 35 -20 102 -62 356 -74 455
-6 50 -13 101 -15 115 -2 14 -2 19 2 11 4 -11 7 -11 14 0z m1261 -36 c-2 -14
-6 -25 -8 -25 -2 0 -4 11 -4 25 0 14 4 25 9 25 4 0 6 -11 3 -25z m855 -10 c0
-8 -4 -12 -9 -9 -5 3 -20 -2 -34 -11 -14 -9 -28 -14 -31 -11 -5 5 55 46 68 46
3 0 6 -7 6 -15z m-210 -21 c-3 -3 -12 -4 -19 -1 -8 3 -5 6 6 6 11 1 17 -2 13
-5z m-647 -8 c0 -2 -7 -7 -16 -10 -8 -3 -12 -2 -9 4 6 10 25 14 25 6z m-30
-546 c-12 -8 -12 -10 -1 -10 8 0 12 -3 8 -6 -9 -9 -28 6 -22 17 4 5 12 9 18 9
7 0 6 -4 -3 -10z m177 -46 c-3 -3 -12 -4 -19 -1 -8 3 -5 6 6 6 11 1 17 -2 13
-5z m168 -154 c10 -11 16 -20 13 -20 -3 0 -13 9 -23 20 -10 11 -16 20 -13 20
3 0 13 -9 23 -20z m-588 -295 c-13 -38 -14 -47 -2 -58 11 -10 5 -19 -33 -54
-25 -24 -49 -43 -53 -43 -4 0 -36 -17 -71 -39 -35 -21 -118 -60 -183 -86 -66
-26 -138 -55 -160 -65 -22 -10 -70 -32 -107 -49 -58 -26 -68 -33 -68 -55 0
-23 4 -26 33 -26 17 0 59 4 92 10 156 24 380 42 580 45 l220 3 -210 -8 c-198
-7 -456 -29 -590 -50 -33 -6 -77 -10 -98 -10 -38 0 -38 0 -35 36 3 36 5 37 93
76 50 21 135 57 190 79 125 51 155 65 230 107 108 61 133 82 128 101 -3 11 0
22 5 25 6 4 8 -3 4 -16 -4 -15 -2 -19 7 -14 7 5 11 18 9 29 -3 25 22 120 30
113 2 -3 -3 -25 -11 -51z m-785 -329 c-12 -25 -36 -176 -29 -183 3 -2 10 19
15 49 5 29 10 43 11 31 3 -60 -80 -337 -134 -443 -35 -71 -72 -120 -91 -120
-20 0 -17 17 10 53 72 96 143 285 176 467 12 63 25 129 31 146 5 17 10 46 11
65 1 33 1 33 5 -5 3 -22 0 -49 -5 -60z m19 -10 c-6 -12 -12 -32 -14 -46 -4
-21 -5 -20 -6 7 0 17 4 35 9 38 6 3 11 27 12 53 1 46 1 46 5 8 3 -22 0 -49 -6
-60z m1983 -119 c53 -53 96 -79 65 -40 -9 11 -3 10 19 -6 34 -24 40 -37 20
-44 -13 -4 -68 38 -141 107 -27 26 -45 35 -60 31 -12 -3 -76 -16 -142 -30
-123 -26 -192 -47 -280 -85 -75 -32 -179 -26 -266 17 -35 17 -88 41 -117 54
-35 15 -48 25 -40 31 10 6 10 8 -1 8 -8 0 -12 2 -9 5 6 6 107 -34 194 -75 49
-24 75 -30 128 -30 36 0 74 4 84 9 9 4 31 16 49 25 17 9 39 16 50 16 11 0 2
-9 -22 -20 -22 -11 -31 -18 -20 -14 11 3 35 11 54 16 23 7 30 12 21 18 -8 5
-2 11 21 18 62 20 180 44 186 38 4 -3 -4 -6 -17 -6 -13 0 -21 -3 -18 -6 4 -3
28 -2 55 2 45 7 46 8 18 14 -18 4 -1 6 41 5 l70 -2 58 -56z m504 -915 c2 -7
-3 -12 -12 -12 -9 0 -16 7 -16 16 0 17 22 14 28 -4z m1509 -1059 c-14 -4 -3
-16 46 -56 35 -29 111 -94 168 -145 57 -51 127 -108 154 -127 28 -18 65 -49
84 -68 l34 -36 -35 3 c-19 2 -48 11 -64 19 -38 21 -12 22 27 1 17 -8 33 -14
35 -11 5 5 -40 44 -146 126 -41 32 -112 92 -157 133 -44 41 -102 90 -127 109
-50 37 -59 60 -23 58 17 -1 18 -2 4 -6z m56 -10 c-7 -2 -19 -2 -25 0 -7 3 -2
5 12 5 14 0 19 -2 13 -5z m452 -449 c39 -9 115 -20 170 -24 l100 -8 -100 3
c-106 3 -270 36 -301 61 -16 12 -13 12 21 0 22 -9 72 -23 110 -32z"/>
<path d="M3115 5832 c-28 -3 -159 -36 -249 -62 -21 -6 -77 -30 -125 -52 -47
-22 -107 -48 -133 -59 -82 -32 -182 -86 -202 -108 -11 -12 -15 -21 -9 -21 5 0
18 9 27 19 20 22 136 80 211 106 28 9 113 34 190 55 277 76 414 114 412 116
-6 4 -96 9 -122 6z"/>
<path d="M3710 5265 c0 -5 5 -17 10 -25 5 -8 10 -10 10 -5 0 6 -5 17 -10 25
-5 8 -10 11 -10 5z"/>
<path d="M2376 5034 c-4 -9 -4 -19 -1 -22 2 -3 7 3 11 12 4 9 4 19 1 22 -2 3
-7 -3 -11 -12z"/>
<path d="M3210 3879 c0 -5 5 -7 10 -4 6 3 10 8 10 11 0 2 -4 4 -10 4 -5 0 -10
-5 -10 -11z"/>
<path d="M3364 3814 c59 -30 111 -53 113 -50 6 6 -198 106 -213 106 -5 -1 40
-26 100 -56z"/>
<path d="M2597 5329 c-26 -18 -46 -34 -43 -36 4 -4 106 56 106 63 0 10 -18 2
-63 -27z"/>
<path d="M3270 5418 c-19 -5 -150 -46 -290 -90 -140 -45 -302 -96 -360 -114
-153 -48 -201 -66 -195 -72 3 -3 48 -5 100 -3 81 2 95 0 95 -13 0 -13 15 -16
95 -16 52 0 95 3 95 8 0 4 46 7 103 8 83 1 113 5 162 25 l60 24 -59 3 c-79 4
-116 29 -116 79 0 24 -4 34 -12 31 -7 -3 -85 -27 -173 -54 -113 -35 -151 -50
-130 -52 17 -1 82 -11 146 -22 113 -19 159 -18 278 5 24 5 24 5 4 -4 -11 -5
-54 -14 -95 -20 -60 -8 -92 -7 -183 9 -60 11 -127 20 -147 20 -47 0 -52 25 -7
35 17 4 94 27 172 51 78 24 145 44 149 44 5 0 8 -15 8 -34 0 -48 37 -73 115
-77 71 -3 106 6 98 27 -3 8 6 23 22 36 25 20 27 25 21 73 l-6 52 58 26 c58 26
55 33 -8 15z"/>
<path d="M3368 5283 c7 -3 16 -2 19 1 4 3 -2 6 -13 5 -11 0 -14 -3 -6 -6z"/>
<path d="M3606 4969 c-25 -28 -46 -60 -46 -71 0 -35 127 -148 218 -195 46 -24
86 -43 90 -43 12 0 -50 39 -108 68 -53 26 -190 148 -190 170 0 5 21 33 46 61
26 29 44 54 42 57 -3 3 -26 -18 -52 -47z"/>
<path d="M3700 4977 c-1 -20 109 -221 117 -213 3 3 -15 41 -41 85 -25 44 -46
84 -46 89 0 11 -29 50 -30 39z"/>
<path d="M2711 4954 c0 -11 3 -14 6 -6 3 7 2 16 -1 19 -3 4 -6 -2 -5 -13z"/>
<path d="M2586 4155 c8 -113 80 -550 83 -503 1 9 -10 82 -24 161 -14 79 -34
204 -45 278 -11 76 -17 104 -14 64z"/>
<path d="M2691 3527 c-1 -10 10 -69 24 -130 42 -181 66 -307 74 -382 7 -61 8
-64 10 -23 0 26 -8 93 -19 150 -29 150 -89 406 -89 385z"/>
<path d="M2724 2518 c-37 -144 -95 -275 -160 -365 -9 -13 -12 -23 -7 -23 17 0
82 112 117 203 45 119 79 232 74 252 -2 9 -13 -21 -24 -67z"/>
<path d="M3870 2678 c14 -7 63 -30 110 -52 71 -33 98 -41 160 -44 55 -3 84 1
110 13 19 9 24 13 10 9 -14 -4 -58 -9 -99 -11 -66 -4 -79 -2 -135 25 -67 33
-163 72 -174 71 -4 0 4 -5 18 -11z"/>
<path d="M4442 2673 c-35 -8 -62 -17 -59 -19 2 -2 39 4 83 15 43 10 70 19 59
19 -11 0 -48 -7 -83 -15z"/>
<path d="M4867 2589 c7 -7 15 -10 18 -7 3 3 -2 9 -12 12 -14 6 -15 5 -6 -5z"/>
<path d="M5591 1463 c15 -98 36 -230 48 -293 43 -234 52 -336 58 -602 5 -241
-3 -414 -24 -535 -3 -19 -1 -33 4 -33 21 0 38 215 37 465 0 274 -14 426 -64
700 -16 88 -39 228 -51 310 -12 83 -25 153 -28 158 -4 4 5 -73 20 -170z"/>
<path d="M1555 1300 c8 -41 60 -158 81 -181 14 -15 13 -22 -10 -68 -25 -49
-27 -50 -54 -39 -15 7 -56 31 -91 55 -35 24 -65 42 -68 40 -7 -8 71 -65 125
-92 l51 -26 -26 -67 c-82 -217 -110 -545 -72 -839 l11 -83 30 0 c27 0 30 2 24
26 -40 158 -32 576 15 789 32 147 83 268 155 366 24 32 40 59 34 59 -5 0 -28
-27 -52 -60 -23 -33 -45 -60 -50 -60 -13 0 -40 48 -75 133 -20 49 -31 68 -28
47z"/>
<path d="M7030 263 c-12 -32 -45 -104 -74 -160 -29 -57 -47 -103 -41 -103 15
0 119 208 135 269 17 64 5 61 -20 -6z"/>
</g>
</svg>
