<?xml version="1.0" standalone="no"?>
<!DOCTYPE svg PUBLIC "-//W3C//DTD SVG 20010904//EN"
 "http://www.w3.org/TR/2001/REC-SVG-20010904/DTD/svg10.dtd">
<svg version="1.0" xmlns="http://www.w3.org/2000/svg"
 width="1280.000000pt" height="720.000000pt" viewBox="0 0 1280.000000 720.000000"
 preserveAspectRatio="xMidYMid meet">
<metadata>
Created by potrace 1.16, written by Peter Selinger 2001-2019
</metadata>
<g transform="translate(0.000000,720.000000) scale(0.100000,-0.100000)"
fill="#000000" stroke="none">
<path d="M0 3600 l0 -3600 2770 0 c2754 0 2770 0 2770 20 0 11 -7 55 -15 97
-8 43 -27 170 -41 283 -15 113 -29 228 -33 255 -4 29 -19 72 -37 100 -66 109
-171 409 -232 667 -64 266 -72 335 -72 584 0 292 20 489 65 649 8 28 21 106
30 175 16 128 20 154 54 370 19 121 74 447 106 620 8 47 18 101 21 120 3 19
15 87 28 150 16 80 20 123 14 141 -6 18 -4 40 6 70 18 51 20 73 6 97 -5 9 -17
35 -26 57 -9 22 -22 54 -29 70 -7 17 -31 89 -54 160 -65 208 -72 227 -97 279
-13 28 -24 55 -24 62 0 7 -25 13 -67 17 -38 3 -115 19 -173 36 -190 55 -314
132 -387 239 -35 49 -40 53 -68 47 -67 -14 -288 -17 -387 -5 -127 15 -273 60
-330 103 -42 31 -62 64 -126 204 -14 30 -22 62 -19 79 3 25 4 24 6 -8 0 -20 5
-39 10 -42 5 -4 7 13 5 36 -3 37 -2 39 5 13 4 -16 25 -65 45 -107 80 -165 190
-216 514 -238 168 -12 256 -8 267 10 8 13 162 90 180 90 30 0 14 -29 -28 -49
-61 -30 -72 -25 -14 5 27 14 47 28 44 30 -9 9 -168 -76 -161 -87 3 -6 0 -9 -7
-8 -8 1 -35 -1 -61 -5 -70 -12 -368 11 -468 36 -152 37 -217 85 -269 198 -18
39 -35 69 -38 66 -8 -7 58 -147 81 -175 88 -102 323 -160 594 -147 70 3 143 8
162 11 33 5 37 3 60 -36 24 -40 105 -116 165 -154 120 -77 302 -130 488 -141
73 -4 117 -3 117 3 0 5 -14 8 -30 5 -45 -6 -177 15 -298 49 -213 60 -347 133
-418 229 -19 25 -39 51 -46 59 -10 12 -9 14 5 8 9 -3 19 -2 22 3 4 6 11 10 18
10 6 0 3 -6 -7 -13 -16 -12 -15 -15 13 -54 41 -57 132 -124 226 -166 164 -73
439 -133 508 -110 43 15 119 26 92 13 l-20 -9 20 0 c11 0 45 9 75 19 50 18 37
20 -30 5 -14 -3 20 10 76 29 55 19 116 43 135 55 39 24 69 27 69 7 0 -7 -25
-24 -55 -36 -44 -18 -53 -25 -44 -36 17 -20 -47 -56 -86 -48 -20 3 -25 2 -17
-4 29 -20 -23 -23 -100 -6 -56 12 -82 14 -90 6 -17 -17 1 -32 35 -31 30 2 31
2 5 6 -16 2 -28 8 -28 13 0 5 15 4 32 -1 18 -5 46 -10 63 -10 23 -1 20 -3 -15
-9 -25 -4 -85 -5 -134 -2 -80 5 -89 4 -83 -11 4 -10 4 -17 1 -17 -2 0 -9 10
-14 23 -5 14 -9 16 -9 6 -1 -8 10 -37 23 -65 27 -58 40 -94 97 -273 23 -74 59
-175 80 -224 45 -104 44 -102 23 -167 -11 -35 -13 -53 -5 -67 7 -14 3 -52 -15
-142 -13 -67 -26 -137 -29 -154 -3 -18 -12 -70 -20 -117 -77 -427 -123 -710
-170 -1054 -9 -65 -20 -126 -25 -135 -32 -62 -60 -349 -60 -622 0 -237 17
-377 74 -599 8 -30 21 -82 30 -115 20 -78 100 -326 114 -351 6 -10 20 -43 32
-73 12 -29 35 -75 52 -102 19 -32 33 -71 39 -112 4 -34 19 -150 33 -257 43
-328 57 -400 79 -400 15 0 18 5 13 23 -3 12 -15 92 -27 177 -11 85 -25 184
-30 220 -6 36 -14 90 -19 120 -4 30 -11 67 -15 83 -10 39 17 36 48 -5 30 -40
67 -113 67 -130 -1 -7 -16 16 -34 52 -19 36 -44 74 -56 85 l-23 20 8 -25 c8
-26 11 -44 49 -325 15 -104 31 -214 37 -242 l10 -53 326 0 325 0 -21 33 c-11
17 -31 52 -43 77 -13 25 -34 62 -46 83 -13 20 -21 43 -19 50 3 7 6 5 6 -5 1
-9 6 -20 12 -24 8 -4 9 1 4 17 -5 16 3 10 24 -18 17 -24 31 -47 31 -52 0 -5 7
-14 15 -21 8 -6 31 -41 52 -76 l37 -64 3248 0 3248 0 0 3600 0 3600 -1495 0
c-822 0 -1495 -3 -1495 -6 0 -8 118 -361 130 -389 46 -107 130 -434 135 -520
1 -33 8 -87 15 -120 8 -41 10 -100 6 -185 -9 -163 -52 -478 -76 -560 -23 -76
-53 -236 -70 -370 -6 -52 -25 -156 -42 -230 -26 -113 -32 -159 -33 -280 -2
-131 -14 -257 -61 -655 -21 -177 -50 -334 -79 -430 -14 -44 -25 -81 -25 -83 0
-4 48 31 155 111 l90 68 42 98 c40 94 127 246 227 396 25 38 46 73 46 78 0 13
123 150 197 221 47 43 68 57 83 53 13 -3 37 6 68 28 150 106 410 243 564 298
11 4 15 13 11 26 -4 15 -1 21 11 21 9 0 16 -5 16 -11 0 -5 -4 -7 -10 -4 -5 3
-10 1 -10 -4 0 -15 -3 -16 148 34 76 25 160 48 187 51 28 4 55 10 60 15 18 14
216 22 260 11 112 -29 164 -62 165 -104 0 -27 -23 -26 -47 3 -33 39 -103 60
-218 66 -93 5 -107 3 -195 -27 -247 -83 -350 -121 -515 -193 -106 -45 -463
-259 -563 -336 -95 -73 -172 -169 -284 -351 -153 -249 -189 -316 -202 -375 -5
-19 -23 -42 -49 -62 -23 -18 -70 -54 -104 -80 -34 -27 -80 -61 -103 -77 -40
-27 -76 -74 -112 -146 -10 -19 -28 -50 -40 -69 -48 -76 -70 -308 -45 -491 20
-145 7 -178 -37 -94 -19 36 -21 56 -21 239 0 169 3 209 19 260 23 73 47 120
81 160 32 39 33 24 0 -19 -35 -46 -71 -133 -85 -204 -8 -39 -11 -121 -8 -229
4 -138 8 -175 23 -206 29 -57 35 -26 18 93 -25 185 -1 436 51 512 12 18 38 63
59 100 32 58 88 116 123 129 6 2 56 40 112 84 92 73 103 85 116 130 24 80 211
398 313 534 68 91 161 180 224 214 28 14 90 54 169 107 55 37 267 160 276 160
3 0 24 9 47 19 137 62 255 106 482 183 149 50 151 50 250 45 112 -6 186 -27
228 -65 30 -29 36 -19 9 16 -42 55 -206 85 -337 62 -27 -5 -77 -14 -110 -20
-65 -12 -256 -71 -320 -100 -22 -10 -60 -25 -85 -35 -54 -21 -313 -146 -320
-154 -8 -10 -89 -61 -96 -61 -4 0 -31 -18 -60 -40 -29 -22 -57 -40 -62 -40 -5
0 -17 -9 -28 -21 -22 -25 -73 -53 -81 -45 -3 3 -21 -8 -40 -24 -44 -39 -173
-185 -173 -197 0 -5 -21 -40 -46 -78 -100 -151 -189 -305 -229 -398 -41 -94
-45 -100 -116 -154 -41 -31 -73 -60 -71 -65 1 -5 -1 -7 -5 -5 -5 3 -27 -8 -51
-24 -44 -30 -62 -36 -62 -20 0 6 11 45 25 88 30 97 58 247 79 428 50 432 59
523 61 655 1 121 7 167 33 280 17 74 36 178 42 230 17 134 47 294 69 370 25
84 68 399 77 560 4 85 2 144 -6 185 -7 33 -14 87 -15 120 -5 88 -84 395 -130
500 -7 17 -21 57 -30 90 -10 33 -23 74 -30 90 -7 17 -27 76 -45 133 -19 56
-38 102 -43 102 -9 0 0 -53 13 -80 6 -11 136 -409 176 -540 3 -8 14 -59 24
-115 63 -333 66 -466 15 -780 -8 -49 -19 -121 -24 -160 -33 -251 -86 -522
-160 -814 -28 -112 -32 -162 -13 -160 40 6 41 28 -8 -401 -46 -394 -60 -498
-80 -585 -10 -44 -25 -113 -34 -154 -15 -67 -22 -80 -81 -146 -63 -70 -83
-102 -48 -74 16 13 17 12 4 -3 -7 -10 -17 -18 -22 -18 -23 0 -3 36 59 109 61
71 70 86 81 143 7 34 21 99 31 143 21 89 35 197 79 585 49 428 47 390 23 390
-35 0 -34 41 4 192 73 291 118 518 155 793 5 39 16 111 24 160 51 314 48 453
-15 780 -22 111 -37 166 -73 270 -51 150 -66 193 -92 280 -15 50 -30 95 -35
100 -4 6 -10 27 -14 48 l-7 37 -511 0 -510 0 6 -97 c21 -298 63 -475 181 -758
7 -16 16 -41 20 -55 4 -14 31 -73 60 -131 37 -73 51 -110 44 -120 -5 -8 -9
-38 -9 -66 0 -29 -7 -94 -16 -144 -12 -74 -13 -93 -3 -100 10 -6 7 -25 -14
-86 -50 -150 -119 -394 -162 -578 -15 -60 -33 -137 -40 -170 -8 -33 -19 -92
-25 -131 -5 -39 -14 -82 -20 -95 l-11 -24 6 25 c3 14 10 57 15 95 6 39 17 97
25 130 51 218 87 367 100 410 8 28 24 84 35 125 12 41 37 121 56 178 19 57 31
108 27 115 -4 7 -9 4 -15 -9 -6 -13 -6 -10 -2 11 18 90 26 150 33 240 l8 99
-54 112 c-29 62 -53 115 -53 120 0 6 -49 137 -70 189 -62 147 -94 293 -124
575 -2 19 -2 -12 0 -70 9 -227 64 -437 193 -735 l56 -130 -2 -130 c-2 -165
-18 -262 -81 -505 -28 -107 -68 -276 -88 -375 -19 -99 -46 -232 -59 -295 -12
-63 -21 -128 -19 -144 2 -16 1 -26 -3 -22 -3 3 -7 16 -8 29 -2 12 -6 21 -11
20 -5 0 -56 -10 -114 -21 -58 -12 -125 -23 -150 -26 -41 -5 -42 -4 -10 4 19 5
87 18 150 30 63 12 122 26 130 31 10 7 4 8 -20 5 l-35 -6 30 11 c17 7 31 13
32 14 3 2 48 221 88 423 13 67 47 211 76 320 60 228 76 321 85 487 6 119 6
120 -25 188 -17 38 -31 73 -31 78 0 4 -11 32 -25 61 -60 128 -128 359 -155
528 -10 61 -30 295 -30 346 l0 24 -437 -1 c-241 0 -431 -3 -423 -6 22 -8 75
-32 149 -66 100 -46 195 -138 356 -342 125 -159 144 -186 195 -273 20 -34 39
-59 43 -55 4 3 0 17 -9 31 -24 37 -10 37 18 0 55 -72 98 -185 98 -255 0 -20
-12 -68 -26 -107 -29 -79 -30 -112 -14 -301 5 -66 10 -199 10 -295 0 -96 4
-272 10 -390 5 -118 11 -249 12 -290 l3 -74 -50 -14 c-55 -15 -165 -57 -207
-78 -36 -19 -36 -9 0 10 19 11 22 15 10 16 -10 0 -27 -9 -38 -20 -10 -10 -22
-15 -25 -10 -13 21 217 113 269 108 l31 -3 -3 70 c-1 39 -7 167 -12 285 -6
118 -10 294 -10 390 0 96 -5 229 -10 295 -16 184 -14 222 14 305 14 41 25 91
25 110 0 34 -37 159 -38 131 -1 -8 -7 -11 -18 -7 -14 6 -13 2 5 -16 19 -21 21
-32 16 -84 -3 -32 -10 -84 -17 -114 -6 -30 -11 -118 -11 -195 1 -294 25 -974
37 -1068 8 -54 10 -94 7 -90 -17 19 -32 239 -42 613 -15 527 -15 673 -1 740 7
30 14 79 17 109 4 52 3 56 -37 102 -23 27 -49 61 -57 76 -34 62 -145 217 -267
373 -163 208 -210 246 -394 320 -74 29 -135 57 -137 62 -2 4 -352 8 -778 8
l-774 0 -7 -27 c-4 -16 -8 -53 -8 -84 0 -50 8 -72 65 -184 64 -126 151 -244
208 -281 58 -39 210 -112 266 -128 129 -38 214 -46 406 -41 102 3 211 10 244
16 32 5 60 8 63 6 11 -12 -141 -27 -308 -32 -196 -5 -280 4 -419 45 -74 22
-223 95 -278 137 -47 35 -51 22 -5 -15 50 -39 204 -116 284 -141 84 -27 236
-51 324 -51 77 0 89 -5 99 -36 4 -12 30 -48 58 -80 28 -33 64 -78 79 -102 26
-41 154 -187 209 -239 14 -13 44 -33 67 -44 23 -11 47 -27 53 -35 7 -7 22 -15
34 -15 15 -1 16 -3 5 -6 -9 -2 -22 -14 -28 -26 l-12 -22 5 22 c4 25 -22 53
-76 78 -34 15 -96 72 -163 150 -14 17 -38 44 -54 60 -15 17 -39 49 -54 72 -14
23 -47 65 -72 93 -25 28 -52 66 -59 85 l-15 35 -73 0 c-90 0 -241 24 -328 51
-36 11 -112 43 -168 70 -87 42 -115 62 -170 120 -58 61 -162 222 -162 251 0 5
-5 6 -12 2 -6 -4 -8 -3 -5 3 4 6 -5 36 -19 68 -22 48 -25 67 -22 123 3 37 8
75 13 85 7 16 -144 17 -3084 17 l-3091 0 0 -3600z m6165 3331 c-28 -12 -248
-56 -370 -75 -205 -32 -241 -37 -310 -46 -87 -11 -325 -63 -325 -71 0 -4 62 7
138 23 75 16 187 36 247 43 268 34 568 86 635 111 10 3 12 2 5 -5 -23 -21
-345 -80 -640 -115 -60 -8 -139 -20 -175 -29 -36 -8 -94 -21 -130 -28 -69 -13
-102 -34 -127 -83 -11 -21 -12 -34 -5 -50 6 -11 17 -41 26 -65 35 -92 177
-235 282 -282 27 -12 69 -32 94 -44 84 -42 287 -75 456 -75 88 0 125 6 261 41
87 23 176 45 198 50 22 4 60 15 84 23 53 19 51 19 51 2 0 -23 -60 -54 -146
-75 -43 -10 -129 -32 -190 -48 l-111 -29 89 -90 c49 -49 116 -121 149 -160 71
-86 110 -117 212 -173 95 -52 158 -60 311 -41 105 13 258 64 349 114 25 14 52
26 59 26 7 0 -15 -15 -49 -32 -34 -18 -59 -36 -56 -42 3 -5 1 -6 -6 -2 -6 4
-53 -8 -104 -27 -106 -40 -259 -63 -361 -55 -51 4 -84 15 -147 47 -98 50 -145
87 -205 161 -25 30 -92 103 -150 161 -57 59 -104 111 -104 118 0 6 10 11 23
11 12 0 63 11 112 25 50 14 119 32 155 40 67 16 160 55 160 67 0 4 -19 0 -42
-8 -24 -8 -61 -19 -83 -24 -22 -4 -111 -26 -198 -49 -135 -35 -172 -41 -261
-41 -169 0 -396 38 -476 80 -19 10 -62 31 -95 45 -105 48 -285 250 -285 320 0
9 -4 14 -8 11 -4 -2 -9 7 -10 21 -4 46 -12 38 -12 -11 0 -25 7 -62 14 -81 17
-39 31 -47 21 -12 -3 13 2 9 13 -12 28 -50 151 -183 202 -218 154 -106 405
-173 643 -173 l102 0 107 -107 c59 -60 124 -132 146 -160 39 -53 131 -133 191
-165 l31 -17 1 -113 c1 -62 3 -131 3 -153 1 -22 -2 -80 -6 -130 -23 -264 -39
-537 -34 -588 l6 -58 -53 -23 c-53 -23 -77 -24 -77 -1 0 7 -19 51 -43 97 -23
45 -53 108 -66 138 -23 53 -133 287 -152 323 -111 208 -135 240 -276 379 -94
92 -132 123 -179 143 -32 14 -72 32 -89 40 -74 36 -244 105 -257 105 -8 0 -18
4 -23 8 -6 5 -59 28 -120 51 -60 24 -137 54 -170 68 -86 38 -263 82 -406 103
-52 7 -78 6 -116 -5 -27 -8 -68 -17 -91 -20 -179 -22 -626 -143 -707 -191 -22
-13 -35 -24 -30 -24 15 0 83 25 91 33 4 4 16 7 27 7 21 0 79 16 203 56 103 32
270 72 403 96 168 29 194 31 253 18 63 -14 133 -29 168 -36 57 -11 132 -36
250 -84 69 -28 161 -65 205 -81 44 -17 163 -65 265 -107 l185 -77 117 -113
c64 -63 135 -139 157 -170 35 -49 204 -378 255 -497 10 -22 33 -70 52 -107 18
-37 42 -90 53 -118 17 -44 17 -52 5 -57 -20 -8 -26 1 -40 55 -16 62 -9 67 9 6
7 -26 19 -50 25 -52 13 -4 -32 117 -49 133 -18 16 -1 -137 17 -156 9 -10 32
-19 52 -22 30 -4 46 2 89 31 52 35 83 37 83 6 0 -11 6 -15 20 -11 10 3 24 -1
31 -9 6 -8 17 -14 25 -14 10 0 9 13 -6 56 -33 95 -52 223 -53 349 -1 131 7
705 9 705 1 0 23 -9 49 -21 42 -19 61 -20 159 -16 162 7 333 37 321 57 -3 5 0
12 6 16 8 4 9 3 5 -4 -10 -16 2 -15 58 4 27 9 43 20 37 23 -6 4 9 17 34 29 54
26 60 21 8 -7 -21 -11 -31 -20 -23 -21 8 0 31 10 50 21 19 12 29 15 22 7 -10
-13 -63 -37 -182 -83 -35 -14 -78 -23 -220 -45 -97 -15 -245 -10 -285 11 l-30
15 -5 -285 c-2 -158 -4 -340 -3 -406 0 -127 22 -262 55 -353 11 -29 17 -56 14
-60 -4 -3 -21 0 -39 6 -19 7 -41 12 -50 12 -9 0 -17 6 -17 14 0 28 -18 26 -61
-6 -37 -27 -52 -32 -94 -30 -28 1 -56 9 -65 17 -17 17 -40 161 -28 173 16 16
-229 520 -302 621 -58 81 -249 269 -295 290 -175 81 -260 118 -397 170 -86 32
-171 66 -190 74 -82 37 -216 86 -253 93 -64 13 -96 20 -186 41 -37 8 -86 13
-110 10 -146 -16 -421 -76 -563 -122 -39 -12 -100 -30 -136 -40 -36 -10 -90
-26 -121 -36 -67 -23 -79 -23 -79 -4 0 8 6 15 14 15 7 0 19 7 26 15 7 8 38 22
69 31 31 8 121 35 201 59 80 24 217 58 305 74 88 17 187 37 220 45 64 16 110
13 255 -18 145 -31 217 -54 418 -135 111 -44 207 -81 212 -81 5 0 48 -18 95
-40 47 -22 89 -40 91 -40 3 0 38 -16 78 -35 40 -19 79 -35 85 -35 20 0 259
-239 301 -300 31 -46 80 -131 118 -207 5 -10 40 -83 77 -163 37 -80 91 -194
120 -255 30 -60 56 -120 60 -132 8 -28 18 -28 71 -4 l41 19 -4 48 c-4 44 14
351 35 589 4 50 7 108 6 130 0 22 -2 89 -3 148 l-1 108 -31 17 c-60 32 -152
112 -191 165 -22 28 -87 100 -146 160 l-107 107 -97 0 c-96 0 -208 15 -358 47
-74 16 -232 86 -300 132 -37 26 -156 155 -175 191 -6 11 -13 18 -16 15 -3 -3
-14 4 -25 16 -15 17 -19 36 -19 93 0 85 15 124 58 152 35 22 269 75 412 93
204 26 591 94 604 107 2 2 11 4 20 3 12 0 10 -3 -4 -8z m-452 -138 c-7 -2 -19
-2 -25 0 -7 3 -2 5 12 5 14 0 19 -2 13 -5z m1717 -347 c-30 -16 -91 -25 -183
-27 -37 -1 -70 -5 -72 -10 -3 -4 24 -40 59 -81 62 -70 117 -143 154 -200 22
-37 29 -35 25 5 -4 32 -4 32 11 -7 21 -56 76 -108 159 -149 91 -45 166 -67
287 -83 52 -6 81 -12 64 -13 -17 0 -51 -3 -75 -5 -37 -3 -39 -2 -14 5 24 6 20
7 -20 5 -27 -2 -59 -6 -70 -10 -11 -3 -6 0 10 8 21 11 24 15 12 16 -10 0 -27
-5 -39 -11 -14 -8 -32 -7 -64 2 -33 10 -40 15 -27 20 10 3 28 0 40 -8 14 -9
31 -12 45 -7 19 6 9 11 -53 29 -94 27 -176 73 -223 125 -20 22 -42 40 -48 40
-7 0 -21 12 -30 28 -36 57 -92 130 -154 200 -88 101 -87 108 26 111 81 2 150
11 170 22 8 5 20 8 25 8 6 0 -1 -6 -15 -13z m60 -1 c0 -8 -8 -15 -17 -14 -11
0 -13 3 -5 6 6 2 10 9 6 14 -3 5 0 9 5 9 6 0 11 -7 11 -15z m1137 -290 c0 -8
-4 -15 -9 -15 -4 0 -8 7 -8 15 0 8 4 15 8 15 5 0 9 -7 9 -15z m403 -150 c0
-25 -3 -45 -7 -45 -5 0 -7 19 -6 42 2 50 2 48 8 48 3 0 5 -20 5 -45z m-986
-140 c4 -12 -3 -15 -37 -14 l-42 2 35 7 35 7 -35 5 -35 5 36 1 c25 1 39 -3 43
-13z m-169 -15 c36 -8 34 -9 -20 -5 -70 5 -63 -1 15 -14 43 -7 48 -9 21 -10
-19 0 -68 8 -108 19 -60 17 -77 19 -95 9 -23 -12 -23 -13 12 -27 19 -8 51 -16
70 -18 l35 -4 -40 15 c-30 11 -33 13 -10 9 91 -17 146 -24 200 -24 33 0 85 -3
115 -7 l55 -7 -45 -7 c-25 -4 -81 -7 -125 -6 l-80 1 85 7 c76 6 73 6 -33 4
-115 -3 -227 13 -251 36 -27 25 -33 6 -40 -128 -4 -76 -14 -190 -22 -253 -9
-73 -14 -215 -14 -390 0 -151 -3 -285 -6 -297 -8 -31 -44 -31 -44 -1 0 20 -3
19 -35 -12 -19 -19 -35 -29 -35 -23 0 6 14 23 31 37 20 17 25 26 15 26 -19 0
-19 8 -1 85 8 33 15 79 15 103 0 32 4 42 16 42 15 0 16 -12 9 -102 -3 -57 -10
-107 -15 -112 -7 -7 -1 -27 18 -56 15 -23 22 67 22 305 0 179 5 321 14 395 8
63 18 177 22 253 6 114 10 140 23 145 9 3 22 11 29 18 14 14 126 10 197 -6z
m68 13 c-13 -2 -33 -2 -45 0 -13 2 -3 4 22 4 25 0 35 -2 23 -4z m-341 -75 c2
-20 1 -35 -3 -33 -3 3 -9 -35 -13 -83 -4 -48 -13 -172 -21 -277 -15 -195 -57
-517 -75 -569 -6 -16 -8 -31 -5 -34 9 -9 -16 -42 -33 -42 -13 0 -12 3 6 16 21
15 22 34 1 34 -6 0 -7 -5 -3 -12 4 -6 3 -8 -3 -5 -6 4 -27 -2 -47 -12 -38 -20
-34 -37 7 -27 12 3 6 -1 -13 -9 -19 -9 -44 -20 -55 -26 -17 -8 -16 -9 7 -4 14
3 34 8 45 11 15 4 15 4 3 -5 -30 -19 -261 -82 -288 -78 -20 3 -17 4 13 6 48 2
31 16 -30 25 -29 5 -34 4 -20 -3 19 -9 19 -10 -2 -10 -14 -1 -23 5 -23 14 0 9
9 15 23 15 13 0 62 11 110 25 68 20 92 23 108 15 22 -12 63 -4 54 11 -4 5 -13
9 -21 9 -8 0 -12 -4 -9 -10 3 -6 -1 -7 -10 -3 -22 8 -5 19 50 34 22 6 52 20
66 30 15 10 32 19 38 19 6 0 15 8 20 18 15 27 68 430 76 567 3 66 10 156 15
200 5 44 12 118 16 165 7 87 10 92 16 28z m596 20 c-3 -7 -20 -14 -39 -15
l-34 -1 35 7 35 8 -35 5 -35 5 38 1 c27 2 37 -2 35 -10z m-90 -5 c-10 -2 -26
-2 -35 0 -10 3 -2 5 17 5 19 0 27 -2 18 -5z m-491 -25 c-3 -8 -6 -5 -6 6 -1
11 2 17 5 13 3 -3 4 -12 1 -19z m1331 -283 c-3 -3 -9 2 -12 12 -6 14 -5 15 5
6 7 -7 10 -15 7 -18z m-10 -30 c-3 -3 -9 2 -12 12 -6 14 -5 15 5 6 7 -7 10
-15 7 -18z m-4353 -45 c-3 -5 -12 -10 -18 -10 -7 0 -6 4 3 10 19 12 23 12 15
0z m792 -695 c13 -33 35 -82 48 -110 13 -27 31 -70 41 -95 9 -25 22 -50 29
-55 10 -8 10 -13 0 -22 -10 -9 -14 -6 -18 16 -3 16 -24 67 -46 115 -23 47 -41
88 -41 91 0 2 -29 67 -64 143 -35 77 -67 150 -70 163 -7 28 83 -157 121 -246z
m6703 18 c12 -32 24 -85 26 -118 l3 -60 -9 63 c-5 34 -20 86 -35 115 -28 57
-27 43 3 -43 11 -30 22 -84 25 -120 3 -39 2 -55 -3 -40 -4 14 -9 43 -9 65 -1
22 -11 65 -22 95 -31 85 -34 100 -16 100 10 0 24 -22 37 -57z m-5508 -95 c10
-6 9 -8 -3 -8 -17 0 -30 48 -28 105 1 17 5 3 10 -29 5 -33 14 -63 21 -68z
m896 71 c4 -11 2 -11 -8 -2 -7 6 -20 9 -29 6 -14 -4 -14 -3 -1 6 18 13 32 10
38 -10z m2383 -12 c-10 -9 -11 -8 -5 6 3 10 9 15 12 12 3 -3 0 -11 -7 -18z
m-1221 2 c-25 -5 -61 -11 -80 -14 -32 -4 -33 -3 -13 8 12 7 48 13 80 14 l58 1
-45 -9z m-123 -25 c-3 -3 -12 -4 -19 -1 -8 3 -5 6 6 6 11 1 17 -2 13 -5z
m3610 -146 c-3 -8 -6 -5 -6 6 -1 11 2 17 5 13 3 -3 4 -12 1 -19z m-6269 -10
c-2 -7 -39 -20 -84 -29 -102 -21 -135 -39 -204 -108 l-56 -56 -31 -170 c-18
-93 -39 -210 -47 -260 -9 -49 -27 -151 -41 -225 -46 -249 -97 -573 -131 -830
-19 -150 -30 -213 -59 -340 -28 -123 -45 -309 -45 -488 0 -207 26 -400 80
-612 39 -153 59 -210 128 -360 30 -66 86 -155 153 -245 71 -95 120 -183 118
-212 0 -12 -3 -9 -8 8 -11 35 -32 72 -38 66 -2 -3 3 -19 11 -36 9 -16 16 -34
16 -38 -1 -4 -10 10 -22 32 -12 22 -56 90 -98 150 -78 112 -101 148 -83 130
16 -17 139 -189 152 -213 7 -13 15 -21 18 -19 8 8 -15 44 -97 157 -82 113
-119 179 -170 305 -18 44 -36 89 -41 100 -10 22 -60 212 -78 290 -63 284 -66
737 -5 990 13 55 33 163 44 240 64 444 98 664 126 815 33 175 63 349 74 425
15 97 60 318 72 347 10 28 73 91 121 123 15 9 48 23 74 31 44 13 45 14 10 10
-47 -6 -163 -60 -197 -91 -30 -28 -44 -23 -64 26 -12 28 -12 36 -2 36 7 0 11
-7 9 -16 -2 -9 2 -25 10 -35 14 -19 15 -19 47 7 17 15 36 27 41 27 6 0 34 11
62 25 56 26 155 51 164 41 4 -3 -4 -6 -17 -6 -13 0 -21 -3 -17 -6 3 -3 25 -3
49 2 39 7 40 8 18 15 -23 7 -23 7 8 8 20 1 31 -3 30 -11z m5254 -10 c8 -7 18
-23 21 -36 12 -52 -109 -142 -191 -142 -137 0 -6 172 144 189 5 0 17 -5 26
-11z m973 -118 c-8 -39 -150 -230 -213 -288 -26 -24 -74 -66 -107 -94 -33 -28
-73 -72 -90 -97 -16 -25 -40 -57 -51 -71 -155 -181 -181 -215 -302 -396 -69
-103 -115 -185 -146 -260 -70 -166 -104 -230 -139 -257 -84 -63 -136 -95 -165
-102 -61 -13 -35 21 83 110 63 47 115 93 115 101 0 8 4 22 9 32 19 38 51 110
51 115 0 8 64 150 99 217 15 30 34 55 42 55 8 0 35 42 62 98 67 139 103 184
341 421 226 226 348 361 374 414 14 28 17 31 23 15 6 -15 8 -14 8 6 1 13 4 22
7 18 3 -3 3 -20 -1 -37z m-3275 -130 c0 -25 -42 -119 -103 -227 -25 -46 -49
-93 -53 -105 -4 -13 -10 -25 -14 -28 -11 -7 -91 -140 -84 -140 3 0 -5 -15 -18
-32 -13 -18 -28 -42 -34 -53 -14 -26 -64 -33 -64 -10 0 16 40 94 89 175 12 19
28 50 37 69 8 18 31 56 50 83 19 28 34 56 34 64 0 7 14 33 30 57 17 25 30 48
30 51 0 4 16 31 36 61 38 56 64 71 64 35z m330 -11 c0 -23 -46 -98 -62 -102
-10 -3 -21 -13 -25 -24 -8 -23 -139 -215 -212 -312 -31 -40 -66 -87 -78 -104
-30 -42 -74 -76 -97 -77 -16 0 -18 5 -13 36 3 20 19 52 34 71 15 19 33 42 38
52 6 9 51 70 100 136 50 66 98 132 107 148 26 40 176 184 193 184 8 0 15 -4
15 -8z m-588 -106 c-86 -128 -182 -294 -182 -314 0 -10 -14 -45 -32 -76 -51
-95 -69 -134 -66 -145 5 -14 102 137 161 252 27 52 56 106 65 120 43 67 129
247 125 260 -4 13 -3 13 5 1 12 -17 4 -41 -47 -136 -45 -82 -117 -218 -158
-295 -16 -30 -53 -92 -83 -137 -58 -88 -87 -107 -76 -51 6 32 11 41 65 140 17
32 31 66 31 76 0 11 11 36 25 56 14 20 25 39 25 41 0 21 193 318 198 305 2 -5
-23 -49 -56 -97z m-140 62 c-2 -11 -12 -37 -23 -58 -10 -21 -19 -42 -19 -48 0
-10 -6 -25 -99 -229 -48 -104 -91 -169 -115 -170 -17 0 3 72 48 170 25 54 46
105 46 112 0 7 18 47 40 88 22 41 49 94 60 118 16 35 24 43 42 40 17 -2 22 -9
20 -23z m958 -48 c0 -15 -43 -82 -80 -122 -15 -16 -56 -68 -91 -115 -34 -47
-70 -92 -79 -102 -10 -9 -34 -37 -55 -62 -25 -31 -45 -46 -61 -46 -33 0 -30
21 9 69 167 209 327 390 345 391 6 0 12 -6 12 -13z m-3404 -28 c-3 -17 -15
-43 -25 -58 -11 -15 -23 -39 -26 -54 -4 -15 -13 -27 -19 -27 -7 0 -19 -11 -26
-25 -7 -14 -17 -25 -22 -25 -4 0 -8 -7 -8 -15 0 -8 -4 -15 -9 -15 -5 0 -23
-21 -40 -47 -17 -27 -61 -88 -96 -138 -36 -49 -73 -105 -81 -124 -9 -19 -26
-49 -38 -65 -13 -17 -26 -39 -29 -48 -12 -34 -57 -13 -57 26 0 10 27 64 60
118 33 55 58 104 54 109 -3 5 1 9 9 9 8 0 27 19 42 42 15 23 54 76 87 117 32
42 73 96 91 120 18 24 47 59 65 79 17 19 32 38 32 41 0 4 10 7 21 8 19 2 21
-2 15 -28z m224 -20 c0 -16 -57 -114 -76 -130 -8 -7 -27 -33 -41 -58 -15 -25
-35 -54 -45 -64 -22 -22 -88 -124 -88 -137 0 -5 -6 -13 -13 -17 -8 -4 -30 -32
-50 -61 -20 -29 -50 -70 -67 -92 -16 -21 -41 -61 -54 -89 -13 -29 -30 -59 -39
-69 -8 -9 -17 -26 -20 -37 -4 -16 -5 -15 -6 6 0 15 6 32 14 39 8 7 28 40 44
74 16 33 45 79 65 100 20 22 36 44 36 50 0 5 18 31 40 57 22 26 40 50 40 53 0
11 64 106 71 106 5 0 9 5 9 10 0 6 7 18 16 28 14 16 30 38 119 171 20 29 34
55 32 57 -5 5 -211 -258 -233 -297 -40 -72 -141 -218 -151 -219 -6 0 -15 -10
-18 -22 -4 -13 -17 -36 -29 -53 -36 -48 -75 -142 -70 -167 l5 -23 -11 24 c-8
19 -5 35 17 85 26 56 85 154 102 166 10 7 141 207 141 215 0 3 19 30 43 60 23
29 76 97 117 149 67 87 100 115 100 85z m240 0 c0 -23 -23 -89 -32 -89 -4 0
-8 -7 -8 -15 0 -8 -4 -15 -9 -15 -9 0 -91 -144 -91 -160 0 -11 -92 -171 -147
-254 -21 -33 -41 -67 -45 -78 -16 -41 -88 -136 -107 -141 -17 -4 -22 1 -27 29
-4 24 -2 40 9 52 8 9 18 28 22 41 4 14 15 32 25 40 10 9 28 36 41 61 13 25 28
51 33 59 6 7 11 19 12 27 1 7 18 33 37 56 35 44 117 166 117 174 0 3 19 31 42
62 65 87 85 118 93 141 7 22 35 30 35 10z m25 -251 c-20 -40 -58 -111 -86
-158 -27 -47 -61 -110 -75 -140 -60 -128 -100 -200 -111 -200 -22 0 -14 28 37
136 28 58 50 106 50 108 0 2 41 74 90 160 50 86 90 160 90 164 0 4 5 13 12 20
9 9 14 9 20 -2 5 -10 -4 -41 -27 -88z m3371 -570 c-3 -35 -8 -94 -12 -133 -7
-77 -17 -105 -39 -105 -8 0 -15 1 -15 3 0 2 -5 29 -11 61 -7 37 -7 62 -1 69 6
7 16 40 22 75 7 34 15 60 18 58 6 -7 -18 -128 -29 -141 -4 -6 -5 -30 -2 -55 5
-36 8 -41 15 -25 6 14 7 12 2 -10 -5 -27 -4 -28 9 -15 9 9 18 44 21 85 13 149
19 195 23 195 3 0 3 -28 -1 -62z m-1436 -8 l-55 -7 50 -3 50 -3 -70 -8 c-38
-5 -137 -20 -220 -34 -269 -43 -481 -62 -1045 -90 -377 -18 -543 -31 -730 -56
-173 -23 -187 -23 -187 -5 0 14 16 16 322 52 66 8 199 18 295 24 96 5 299 17
450 25 457 26 664 45 975 94 66 11 143 19 170 18 l50 0 -55 -7z m460 -260
c-42 -13 -116 -49 -103 -49 6 -1 33 8 59 19 26 11 48 19 51 17 2 -2 -14 -11
-34 -20 -90 -38 -283 -117 -289 -117 -3 0 -36 -14 -72 -31 -37 -18 -76 -36
-87 -41 -84 -38 -348 -284 -423 -394 -148 -220 -210 -439 -199 -712 5 -136 15
-194 54 -314 3 -12 0 -18 -10 -18 -20 0 -51 97 -66 205 -29 203 1 470 68 630
84 197 192 345 358 491 90 78 293 217 333 228 17 5 21 4 11 -2 -9 -7 -10 -11
-2 -17 7 -4 17 -3 24 2 7 5 32 17 57 26 57 20 77 28 175 70 44 19 89 35 100
35 16 0 14 -2 -5 -8z m950 -66 c0 -22 33 -103 47 -117 4 -5 12 -27 19 -50 6
-23 14 -49 18 -58 5 -11 1 -19 -9 -23 -36 -13 -90 84 -100 179 -3 33 -8 71
-11 85 -3 18 -2 21 5 10 4 -8 11 -46 15 -84 4 -38 14 -83 23 -100 19 -38 59
-87 65 -80 6 5 -21 82 -54 154 -25 54 -48 151 -28 120 5 -8 10 -25 10 -36z
m1030 -109 c0 -16 -67 -125 -76 -125 -4 0 0 10 8 23 43 68 60 99 55 103 -2 3
-26 -30 -53 -73 -26 -43 -63 -99 -81 -125 -18 -26 -33 -50 -33 -53 0 -2 -15
-28 -34 -58 -41 -63 -176 -337 -176 -356 0 -32 34 19 90 133 64 133 106 205
163 283 36 49 48 81 26 67 -6 -3 -3 5 6 20 20 31 30 35 15 6 -6 -11 -7 -20 -2
-20 10 0 62 74 62 89 0 5 7 11 15 15 13 5 14 2 4 -17 -12 -22 -51 -79 -118
-172 -55 -76 -103 -159 -161 -280 -30 -60 -63 -122 -75 -136 -12 -14 -36 -81
-55 -150 -18 -68 -39 -135 -47 -149 -7 -14 -13 -30 -13 -37 0 -7 -6 -27 -14
-45 -8 -18 -22 -53 -31 -78 -10 -25 -50 -110 -90 -190 -117 -234 -164 -318
-250 -444 -30 -44 -52 -82 -49 -85 3 -3 9 1 14 9 8 12 10 10 10 -8 0 -19 -3
-21 -20 -12 -17 9 -24 3 -58 -42 -39 -52 -141 -159 -274 -287 -37 -36 -64 -69
-61 -74 3 -6 1 -7 -5 -3 -6 3 -13 2 -16 -3 -4 -5 2 -12 11 -15 13 -3 12 -4 -3
-3 -12 1 -63 -28 -120 -68 -54 -39 -143 -97 -196 -129 l-98 -58 -25 -80 c-14
-43 -25 -86 -25 -94 0 -7 -7 -14 -15 -14 -9 0 -15 9 -14 23 0 21 1 21 8 2 7
-17 9 -16 16 13 4 18 4 36 1 39 -3 4 -6 -2 -6 -12 0 -10 -2 -16 -5 -13 -3 3 2
36 10 74 8 38 17 79 20 90 3 14 15 23 32 27 16 3 44 17 63 31 19 15 84 59 145
99 141 93 393 341 526 517 155 204 289 442 450 791 56 123 129 315 129 341 0
15 -32 37 -54 38 -10 0 -34 14 -53 30 -19 17 -38 28 -44 25 -5 -4 -9 3 -9 14
0 11 -4 23 -10 26 -13 8 -13 45 0 45 14 0 50 -21 80 -46 14 -12 39 -25 56 -29
23 -4 33 -13 37 -31 2 -13 0 -24 -4 -24 -5 0 -9 9 -9 19 0 19 -18 31 -49 31
-10 0 -26 9 -37 21 -10 12 -31 27 -46 35 l-27 14 11 -31 c6 -17 20 -34 32 -39
11 -4 30 -17 40 -29 11 -11 28 -21 39 -21 11 0 28 -7 38 -16 17 -15 18 -14 25
12 10 45 142 309 204 409 152 247 200 309 200 260z m-830 -303 c0 -15 86 -95
117 -108 40 -17 47 -28 28 -44 -13 -11 -14 -10 -9 3 4 11 -4 20 -28 30 -35 16
-57 34 -101 86 -15 19 -31 31 -34 27 -8 -8 22 -67 48 -95 11 -11 19 -25 19
-30 0 -6 11 -13 25 -17 14 -3 25 -10 25 -14 0 -5 -13 -3 -30 3 -16 6 -30 15
-30 20 0 4 -9 17 -20 29 -23 25 -50 80 -50 102 0 9 8 16 20 16 11 0 20 -3 20
-8z m120 -156 c0 -3 -4 -8 -10 -11 -5 -3 -10 -1 -10 4 0 6 5 11 10 11 6 0 10
-2 10 -4z m-2260 -1041 c0 -8 -7 -15 -15 -15 -8 0 -15 7 -15 15 0 8 7 15 15
15 8 0 15 -7 15 -15z m-2368 -595 c98 -144 148 -234 147 -264 -1 -18 -2 -18
-8 4 -14 43 -41 91 -131 226 -89 132 -132 208 -144 254 -4 14 6 -2 22 -35 16
-33 67 -116 114 -185z m4429 197 c-13 -13 -26 -3 -16 12 3 6 11 8 17 5 6 -4 6
-10 -1 -17z m-61 -72 c0 -8 -7 -15 -15 -15 -16 0 -20 12 -8 23 11 12 23 8 23
-8z m-246 -239 c-3 -9 -12 -16 -20 -16 -11 0 -10 4 4 18 20 22 25 21 16 -2z"/>
<path d="M5110 6698 c-11 -18 -20 -40 -20 -48 1 -8 8 -1 17 15 8 17 22 38 31
48 10 11 11 17 3 17 -6 0 -20 -15 -31 -32z"/>
<path d="M7778 5853 c7 -3 16 -2 19 1 4 3 -2 6 -13 5 -11 0 -14 -3 -6 -6z"/>
<path d="M7818 5793 c12 -2 30 -2 40 0 9 3 -1 5 -23 4 -22 0 -30 -2 -17 -4z"/>
<path d="M7550 4964 c0 -21 -7 -66 -15 -99 -18 -76 -18 -80 -1 -66 14 12 34
186 22 198 -3 4 -6 -11 -6 -33z"/>
<path d="M7345 4740 c3 -5 13 -10 21 -10 8 0 12 5 9 10 -3 6 -13 10 -21 10 -8
0 -12 -4 -9 -10z"/>
<path d="M7182 4696 l-72 -22 32 -12 c27 -10 44 -8 110 10 l79 21 -32 14 c-37
15 -26 16 -117 -11z m63 -14 c-3 -3 -11 0 -18 7 -9 10 -8 11 6 5 10 -3 15 -9
12 -12z m48 11 c-7 -2 -19 -2 -25 0 -7 3 -2 5 12 5 14 0 19 -2 13 -5z m-79
-12 c4 -5 -3 -7 -14 -4 -23 6 -26 13 -6 13 8 0 17 -4 20 -9z m-34 -11 c8 -5
11 -10 5 -10 -5 0 -17 5 -25 10 -8 5 -10 10 -5 10 6 0 17 -5 25 -10z"/>
<path d="M11023 4506 c-72 -23 -150 -105 -136 -143 3 -8 22 -13 48 -13 33 0
56 9 104 41 72 48 84 66 68 100 -15 29 -30 32 -84 15z m65 -8 c21 -21 13 -44
-25 -75 -56 -45 -100 -65 -136 -61 -26 2 -31 7 -29 23 4 26 74 85 126 107 50
21 49 21 64 6z"/>
<path d="M11030 4482 c-55 -26 -118 -75 -123 -94 -6 -20 9 -25 16 -5 4 10 6
10 6 0 2 -21 34 -15 82 15 57 37 81 65 73 86 -8 20 -10 20 -54 -2z"/>
<path d="M12039 4378 c-29 -54 -148 -187 -354 -393 -238 -238 -295 -305 -340
-405 -40 -86 -63 -125 -75 -125 -5 0 -10 -4 -10 -8 1 -4 -8 -16 -18 -25 -11
-9 -29 -42 -42 -72 -12 -30 -36 -83 -51 -118 -16 -34 -29 -69 -29 -77 0 -7 -4
-16 -9 -19 -4 -3 -18 -32 -31 -65 -21 -56 -28 -64 -131 -141 -61 -45 -108 -84
-106 -86 15 -15 171 90 213 144 11 15 40 72 63 127 23 55 46 109 51 120 5 11
12 30 15 42 3 12 22 45 41 72 36 53 42 67 22 55 -7 -4 -8 -3 -4 5 4 6 11 9 15
6 5 -2 41 44 80 103 105 155 121 176 265 342 11 14 34 44 50 68 16 23 75 84
132 135 120 108 289 316 271 334 -3 2 -11 -6 -18 -19z"/>
<path d="M8738 4211 c-65 -104 -81 -133 -95 -170 -7 -19 -20 -42 -29 -52 -15
-16 -46 -70 -96 -166 -12 -24 -26 -43 -30 -43 -4 0 -8 -6 -8 -14 0 -8 -10 -31
-21 -51 -22 -36 -21 -52 3 -42 13 4 69 94 113 180 11 21 30 49 42 64 13 14 23
31 23 37 0 6 34 74 75 151 65 121 87 175 71 175 -2 0 -24 -31 -48 -69z"/>
<path d="M9028 4176 c-42 -41 -84 -87 -95 -102 -10 -16 -62 -87 -115 -159 -53
-71 -110 -148 -127 -170 -29 -39 -50 -95 -36 -95 13 0 60 42 90 80 107 140
253 346 277 392 11 20 27 40 36 43 17 5 67 85 53 85 -4 0 -42 -33 -83 -74z"/>
<path d="M8346 4183 c-13 -27 -39 -77 -58 -113 -18 -36 -39 -85 -47 -109 -7
-25 -28 -75 -47 -111 -19 -37 -37 -82 -41 -101 l-6 -34 25 30 c33 41 128 228
128 254 0 5 11 29 25 52 14 24 25 51 25 59 0 8 7 29 16 45 30 57 35 75 19 75
-8 0 -26 -21 -39 -47z"/>
<path d="M9258 4072 c-47 -53 -104 -119 -125 -147 -22 -27 -65 -79 -96 -115
-31 -36 -57 -68 -57 -72 0 -22 32 -3 65 38 21 25 45 53 55 62 9 10 49 60 89
112 40 52 93 121 118 153 72 93 45 75 -49 -31z"/>
<path d="M5933 4153 c-7 -3 -13 -8 -13 -13 0 -5 -12 -22 -27 -38 -16 -17 -43
-50 -61 -74 -18 -23 -58 -77 -90 -118 -32 -41 -68 -91 -81 -110 -13 -19 -29
-39 -35 -45 -12 -11 -88 -136 -120 -198 -18 -34 -19 -39 -4 -53 15 -15 18 -13
40 25 54 99 76 134 131 213 117 168 142 201 195 257 17 19 32 40 32 48 0 7 12
31 26 53 26 40 29 60 7 53z"/>
<path d="M6392 4093 c-6 -15 -25 -46 -41 -68 -16 -22 -51 -73 -78 -113 -26
-40 -70 -105 -98 -144 -27 -39 -71 -109 -96 -156 -26 -48 -52 -88 -58 -90 -6
-2 -23 -28 -37 -58 -25 -52 -26 -84 -5 -84 11 0 87 107 98 137 4 10 25 46 47
79 44 66 86 139 124 213 13 25 28 54 34 64 5 10 19 37 31 60 12 23 36 61 53
84 29 38 50 90 41 100 -3 2 -10 -9 -15 -24z"/>
<path d="M6428 3892 c-15 -31 -39 -77 -53 -102 -15 -25 -44 -74 -65 -110 -20
-36 -47 -87 -59 -115 -12 -27 -35 -75 -51 -106 -17 -31 -30 -63 -30 -70 0 -18
58 85 96 171 24 55 91 178 124 230 17 27 61 111 70 136 18 47 -5 23 -32 -34z"/>
<path d="M8175 3264 c-229 -39 -491 -64 -935 -89 -558 -31 -621 -35 -712 -45
-162 -18 -332 -41 -337 -46 -7 -7 18 -5 169 15 187 25 353 38 730 56 639 32
763 44 1220 118 14 2 8 4 -15 4 -22 0 -76 -6 -120 -13z"/>
<path d="M8600 2934 c-78 -32 -107 -40 -117 -32 -24 20 -258 -148 -393 -281
-204 -203 -306 -390 -356 -656 -23 -123 -15 -375 15 -490 12 -43 26 -84 33
-90 8 -7 9 -5 3 10 -52 135 -71 398 -41 560 58 305 197 533 464 756 103 86
160 116 369 200 70 28 135 55 143 60 39 23 -22 4 -120 -37z"/>
<path d="M10410 2139 c-17 -65 -71 -220 -85 -249 -7 -14 -27 -56 -44 -95 -111
-245 -272 -544 -370 -685 -170 -243 -427 -509 -606 -627 -61 -40 -123 -82
-138 -94 -16 -12 -45 -28 -65 -35 -34 -11 -38 -16 -49 -71 -18 -86 -14 -96 10
-25 14 39 31 67 44 75 160 88 320 203 433 311 167 160 290 291 285 303 -2 7
-1 12 3 10 17 -5 111 122 211 286 58 96 222 420 245 482 10 28 24 64 32 82 8
17 14 36 14 43 0 6 7 24 15 40 17 33 87 282 80 288 -2 2 -9 -16 -15 -39z"/>
<path d="M6181 7169 c-31 -88 -9 -166 97 -354 45 -80 122 -176 122 -152 0 7
-14 26 -31 43 -17 16 -52 67 -78 114 -103 186 -120 239 -104 321 13 62 10 74
-6 28z"/>
<path d="M7795 7185 c17 -7 82 -35 145 -61 96 -39 127 -57 188 -111 90 -81
248 -279 388 -486 106 -159 155 -213 68 -76 -90 143 -119 185 -179 259 -34 41
-90 113 -127 160 -36 47 -87 105 -114 128 -27 24 -61 55 -75 68 -42 39 -259
134 -304 133 -15 0 -13 -3 10 -14z"/>
<path d="M8733 7150 c0 -30 2 -43 4 -27 2 15 2 39 0 55 -2 15 -4 2 -4 -28z"/>
<path d="M8600 6445 c0 -13 49 -74 54 -66 9 13 -24 71 -40 71 -8 0 -14 -2 -14
-5z"/>
<path d="M5635 5143 c-44 -19 -66 -32 -50 -29 36 6 67 -7 40 -17 -10 -4 -14
-3 -10 4 7 11 -12 7 -101 -21 l-57 -17 43 -7 c23 -4 45 -4 48 -1 3 3 -6 5 -19
6 -22 1 -21 2 6 10 17 5 37 6 46 4 14 -5 79 21 79 31 0 3 -10 8 -21 12 -19 7
-15 11 27 26 27 10 53 23 59 27 16 15 -6 8 -90 -28z"/>
<path d="M8575 4760 c-90 -32 -108 -40 -102 -46 3 -3 34 6 69 20 34 13 79 29
98 34 28 8 30 10 10 10 -14 0 -47 -8 -75 -18z"/>
<path d="M10530 4373 c0 -13 -3 -14 -8 -6 -6 9 -11 7 -20 -7 -17 -28 1 -25 35
5 22 19 24 24 11 25 -11 0 -18 -7 -18 -17z"/>
<path d="M6151 203 c0 -5 18 -37 39 -73 22 -36 47 -80 57 -98 9 -17 23 -32 30
-32 13 0 1 24 -45 95 -75 118 -83 128 -81 108z"/>
</g>
</svg>
