<?xml version="1.0" standalone="no"?>
<!DOCTYPE svg PUBLIC "-//W3C//DTD SVG 20010904//EN"
 "http://www.w3.org/TR/2001/REC-SVG-20010904/DTD/svg10.dtd">
<svg version="1.0" xmlns="http://www.w3.org/2000/svg"
 width="1280.000000pt" height="720.000000pt" viewBox="0 0 1280.000000 720.000000"
 preserveAspectRatio="xMidYMid meet">
<metadata>
Created by potrace 1.16, written by Peter Selinger 2001-2019
</metadata>
<g transform="translate(0.000000,720.000000) scale(0.100000,-0.100000)"
fill="#000000" stroke="none">
<path d="M0 5185 c0 -1400 3 -2015 10 -2015 6 0 23 6 38 14 43 22 348 122 457
150 182 46 700 115 766 102 16 -3 91 1 167 9 158 17 481 35 627 35 55 0 138 7
184 15 46 8 170 19 275 25 105 5 273 17 374 26 100 8 188 13 195 11 6 -3 -10
-6 -38 -7 l-50 -2 53 -8 c48 -7 85 0 360 72 169 44 323 83 342 88 74 19 127
49 153 89 l26 39 -39 143 c-21 79 -64 214 -96 299 -50 135 -57 164 -56 222 l1
67 -55 50 c-31 27 -121 93 -201 146 -175 118 -297 231 -386 360 -157 226 -173
318 -82 481 20 36 39 63 42 60 3 -3 -8 -27 -24 -53 -69 -113 -82 -206 -39
-291 37 -74 47 -91 114 -189 86 -125 210 -241 385 -358 192 -128 257 -186 257
-228 0 -57 50 -205 135 -402 38 -90 98 -313 93 -351 -2 -22 -8 -29 -25 -29
-12 0 -32 -10 -45 -21 -22 -21 -87 -48 -95 -40 -2 2 15 11 39 20 23 10 53 29
65 43 19 20 26 23 38 13 44 -37 -13 188 -111 438 -38 94 -70 170 -72 168 -2
-2 19 -67 47 -144 27 -76 66 -199 85 -273 l35 -133 -25 -43 c-14 -24 -26 -43
-27 -43 -15 0 -117 -50 -103 -50 11 0 17 -2 14 -5 -5 -6 -503 -135 -515 -134
-4 0 1 4 12 9 l20 9 -20 -1 c-11 0 -31 -4 -45 -8 l-25 -8 25 -2 c25 -2 -143
-50 -170 -49 -8 1 -4 4 10 8 l25 8 -31 7 c-16 4 -79 2 -140 -4 -125 -11 -215
-11 -124 1 38 4 26 5 -40 2 -287 -12 -466 -25 -541 -38 -46 -8 -129 -15 -184
-15 -146 0 -469 -18 -627 -35 -76 -8 -151 -12 -167 -9 -65 13 -585 -56 -761
-101 -126 -32 -281 -82 -407 -131 -88 -33 -103 -42 -103 -61 0 -13 1 -23 3
-23 1 0 49 16 107 35 128 44 245 77 375 105 55 12 107 24 115 27 19 7 84 14
79 8 -3 -2 -70 -18 -149 -35 -172 -38 -280 -67 -420 -115 -58 -19 -106 -35
-107 -35 -2 0 -3 -108 -3 -240 l0 -240 28 0 c50 0 267 39 383 69 107 28 171
47 406 122 116 37 151 45 103 25 -42 -17 -318 -105 -445 -140 -121 -35 -260
-63 -376 -78 -67 -8 -96 -16 -96 -25 0 -17 -9 -18 184 22 92 20 215 45 273 56
58 12 128 31 155 45 47 22 140 47 278 74 31 6 55 15 52 20 -3 5 -13 7 -23 4
-14 -5 -15 -4 -2 5 9 6 18 7 24 1 6 -6 19 -10 30 -10 15 0 17 3 8 8 -8 6 -1 9
20 9 110 3 235 15 337 33 64 11 157 22 206 25 50 4 156 13 237 22 81 8 152 13
159 11 13 -4 -251 -32 -406 -43 -44 -3 -134 -15 -200 -26 -66 -11 -149 -21
-185 -21 -36 0 -108 -11 -160 -24 -52 -13 -146 -35 -209 -48 -62 -14 -129 -35
-148 -46 -31 -18 -90 -32 -481 -112 l-152 -31 0 -375 0 -376 28 25 c15 14 52
41 82 59 30 19 145 93 255 166 110 72 226 148 259 168 32 21 86 59 121 85 76
59 127 84 236 116 152 46 390 105 422 105 18 0 75 9 127 20 52 12 199 38 325
60 127 22 267 51 311 64 121 36 154 41 154 23 0 -10 -27 -21 -92 -37 -51 -13
-102 -29 -113 -36 -11 -7 -83 -22 -160 -34 -77 -11 -211 -34 -298 -50 -88 -17
-196 -34 -240 -40 -81 -9 -461 -121 -529 -156 -18 -9 -80 -50 -138 -91 -233
-165 -714 -473 -738 -473 -9 0 -12 -60 -12 -235 l0 -235 23 0 c27 0 209 37
257 52 178 55 301 113 370 173 19 17 56 48 83 69 26 21 44 42 41 48 -4 6 -3 8
3 5 10 -7 52 33 71 68 9 15 11 16 12 4 0 -37 -165 -187 -289 -262 -36 -21 -56
-37 -43 -34 35 8 26 -1 -25 -24 -126 -57 -389 -129 -474 -129 l-29 0 0 -645 0
-645 6400 0 6400 0 0 3600 0 3600 -6400 0 -6400 0 0 -2015z m3090 511 c0 -8
-4 -18 -10 -21 -6 -4 -7 1 -4 12 9 30 -22 -13 -63 -85 -37 -66 -63 -147 -63
-197 0 -35 54 -162 102 -242 55 -91 157 -211 237 -280 42 -36 139 -106 216
-157 178 -119 236 -168 234 -204 l-2 -27 -4 27 c-5 30 -82 92 -263 211 -255
167 -402 333 -495 558 -39 95 -41 117 -20 200 16 59 32 95 83 176 27 43 52 56
52 29z m53 -33 c18 -9 70 -30 116 -45 102 -35 253 -99 247 -105 -2 -2 -37 10
-76 27 -40 16 -75 29 -76 27 -2 -2 45 -25 104 -51 59 -26 113 -55 120 -66 17
-27 55 -45 215 -101 132 -47 295 -90 334 -88 10 0 -27 14 -82 30 -391 116
-431 131 -457 167 -7 11 -26 26 -43 35 -45 24 -29 20 55 -13 41 -16 67 -29 57
-30 -10 0 -27 5 -39 11 -34 18 -32 1 3 -21 35 -21 158 -62 392 -129 130 -37
167 -51 138 -51 -7 0 -10 -4 -7 -9 11 -17 -211 38 -358 90 -159 55 -211 80
-226 109 -6 10 -34 27 -62 38 -48 18 -142 59 -208 91 -25 11 -25 11 5 7 l30
-5 -30 14 c-36 17 -69 21 -45 5 8 -5 12 -10 9 -10 -15 0 -109 32 -144 50 -34
17 -36 20 -15 20 20 0 22 2 10 10 -25 16 -1 11 33 -7z m1159 -512 c49 -54 63
-85 44 -100 -13 -11 -181 163 -171 179 10 17 79 -26 127 -79z m71 -189 c4 -41
15 -69 44 -111 21 -31 40 -60 42 -66 7 -18 -46 49 -68 85 -12 21 -21 28 -21
18 0 -9 16 -37 35 -62 19 -25 67 -110 106 -188 39 -79 104 -197 144 -263 84
-139 291 -548 330 -650 14 -39 35 -77 45 -85 17 -13 110 -246 110 -275 -1 -19
-18 21 -55 130 -21 63 -46 118 -59 130 -12 11 -32 47 -45 80 -40 103 -260 534
-336 660 -40 66 -103 183 -140 260 -38 77 -82 157 -98 178 -55 71 -90 214 -53
214 9 0 15 -18 19 -55z m174 -337 c36 -66 94 -163 128 -215 71 -110 289 -531
347 -670 125 -300 180 -465 200 -610 17 -117 7 -304 -20 -386 -26 -79 -77
-189 -109 -236 -19 -28 -22 -40 -14 -55 39 -69 76 -325 65 -442 l-7 -63 24 12
c67 35 222 146 244 173 77 100 96 131 106 172 14 56 39 82 38 39 0 -24 -2 -26
-8 -10 -7 18 -8 18 -14 -5 -10 -36 -8 -58 4 -34 8 16 8 15 4 -8 -5 -26 -4 -27
15 -15 11 7 20 17 20 21 0 5 13 19 29 33 16 13 51 56 77 95 46 66 49 75 52
144 7 130 -38 259 -119 343 -23 24 -39 49 -36 57 7 17 -45 58 -97 75 -23 7
-74 11 -132 9 -97 -4 -127 9 -57 24 66 15 193 3 241 -22 49 -25 124 -96 120
-114 -1 -7 13 -34 30 -62 18 -27 44 -87 59 -133 23 -73 25 -95 21 -190 -4 -82
-9 -116 -25 -147 -26 -50 -135 -155 -189 -183 -28 -14 -51 -39 -78 -81 -57
-93 -160 -170 -281 -211 l-50 -17 -31 -89 c-33 -97 -82 -199 -122 -254 -22
-30 -117 -135 -211 -233 -14 -15 -34 -30 -43 -33 -10 -3 -18 -11 -18 -19 0
-19 -176 -86 -330 -125 -41 -10 -113 -32 -160 -48 -161 -56 -357 -65 -571 -27
-46 8 -119 15 -162 15 -43 0 -156 7 -250 16 -136 13 -175 14 -192 4 -19 -12
-19 -11 -3 5 15 17 26 17 195 1 98 -9 212 -16 253 -16 41 0 113 -7 159 -15
241 -43 491 -23 633 51 15 8 36 14 46 14 66 0 338 99 378 138 16 15 45 39 64
54 19 15 31 30 27 34 -4 4 -15 0 -25 -9 -10 -9 -43 -31 -73 -47 -30 -17 -44
-28 -31 -25 39 11 23 -4 -31 -29 -64 -29 -219 -78 -226 -71 -2 3 1 5 8 5 7 0
10 4 6 9 -3 6 16 24 42 42 58 39 101 77 115 103 8 15 7 18 -3 14 -53 -20 -55
-14 -4 12 33 17 80 48 105 67 66 53 77 61 57 36 -10 -12 -36 -34 -58 -49 -22
-15 -37 -29 -34 -32 7 -7 83 48 106 76 10 14 19 20 19 14 0 -15 -77 -79 -132
-110 -27 -15 -48 -33 -48 -40 0 -6 -36 -39 -81 -72 -44 -33 -75 -60 -69 -60
20 0 194 61 205 71 7 7 0 8 -20 4 l-30 -6 31 14 c17 8 60 33 96 56 36 22 69
41 74 41 12 0 142 134 176 180 44 61 104 185 128 263 l23 75 72 27 c98 35 198
113 256 199 29 43 57 73 76 81 39 17 159 129 191 180 22 35 26 54 30 145 2 58
0 121 -6 140 -7 27 -8 12 -4 -61 7 -134 -17 -194 -119 -301 -21 -23 -39 -43
-39 -46 0 -10 -46 -41 -62 -42 -16 0 -28 -13 -91 -100 -40 -55 -209 -174 -276
-195 l-24 -7 6 69 c8 79 -7 257 -26 322 -11 38 -12 23 -12 -140 0 -195 -8
-249 -53 -374 -40 -113 -90 -200 -155 -271 -79 -86 -256 -234 -280 -234 -4 0
30 30 75 66 196 158 280 260 341 419 8 22 19 49 23 60 4 11 8 29 9 40 1 11 7
34 14 50 28 64 25 333 -4 475 -5 22 -4 22 4 5 9 -20 10 -20 10 1 1 34 -11 36
-34 8 -23 -29 -46 -26 -38 4 2 9 16 31 30 47 l25 30 -27 -47 c-15 -27 -23 -48
-18 -48 6 0 15 10 22 23 6 12 20 36 31 52 54 82 111 209 136 300 19 71 19 281
-1 385 -19 100 -103 355 -150 455 -18 39 -38 86 -45 105 -29 76 -288 571 -347
662 -60 92 -183 316 -196 355 -10 28 5 3 80 -132z m-1402 -1065 c-3 -5 -12 -7
-20 -3 -21 7 -19 13 6 13 11 0 18 -4 14 -10z m-90 -48 l-20 -5 20 -8 c17 -6
16 -8 -9 -8 -24 -1 -27 1 -16 14 7 8 20 14 29 14 11 -1 10 -3 -4 -7z m-299
-11 c5 -5 18 -11 29 -13 11 -2 -36 -7 -105 -11 -69 -4 -174 -15 -234 -23 -59
-8 -110 -13 -113 -10 -3 3 22 8 56 12 35 4 58 11 55 16 -6 10 -25 8 -119 -11
-27 -6 -207 -15 -400 -21 -192 -5 -381 -14 -420 -20 -310 -42 -439 -60 -495
-69 -36 -6 -153 -23 -260 -36 -183 -24 -355 -57 -391 -76 -8 -4 -20 -4 -27 0
-19 11 214 59 418 86 102 13 217 29 255 35 67 12 339 50 495 70 41 5 233 14
425 20 193 6 368 14 390 19 113 25 159 32 198 28 35 -3 32 -4 -18 -5 -42 -1
-56 -5 -48 -13 7 -7 54 -7 159 2 90 8 140 15 128 20 -13 5 -15 8 -3 8 8 1 19
-3 25 -8z m2393 -295 c49 -257 30 -452 -59 -597 -21 -34 -25 -50 -17 -58 8 -8
8 -14 -2 -23 -10 -11 -11 -10 -6 5 10 25 -12 21 -27 -5 -7 -13 -12 -26 -13
-30 0 -15 -15 -20 -15 -5 0 8 22 51 49 94 28 43 62 114 77 158 25 72 28 94 28
210 -1 145 -27 308 -69 424 -14 38 -25 75 -25 82 1 33 61 -162 79 -255z
m-3839 117 c0 5 -5 18 -11 29 -8 15 -8 19 0 14 16 -10 50 -79 67 -135 17 -56
18 -195 2 -242 -6 -19 -19 -45 -30 -58 -22 -29 -24 -19 -2 15 9 13 14 27 12
30 -3 3 -15 -10 -27 -28 -30 -47 -26 -25 5 28 25 42 26 51 22 142 -5 97 -21
149 -74 232 -12 19 -10 17 10 -5 14 -16 26 -26 26 -22z m139 -8 c45 -74 53
-164 22 -246 -25 -65 -65 -109 -83 -91 -9 9 -6 18 15 39 58 62 74 168 37 245
-23 48 -24 52 -10 43 6 -3 10 -2 10 3 0 14 -39 59 -40 47 0 -6 6 -17 13 -25
10 -12 9 -12 -5 -1 -21 16 -24 41 -5 41 7 0 28 -25 46 -55z m3728 -72 c27
-109 41 -329 26 -398 -7 -29 -9 1 -7 105 2 99 0 132 -6 105 -7 -31 -7 -23 -4
35 3 52 1 69 -6 55 -7 -15 -8 -8 -4 25 4 34 3 41 -5 30 -8 -11 -9 -7 -4 19 3
20 2 32 -3 29 -5 -4 -9 6 -9 20 0 15 -4 40 -9 57 -4 16 -4 27 -1 23 4 -4 19
-51 32 -105z m-2717 -50 c0 -71 -22 -136 -54 -162 -12 -10 -15 -23 -10 -47 4
-23 2 -34 -6 -34 -6 0 -2 -11 10 -27 22 -29 21 -54 -7 -125 -15 -38 -51 -56
-40 -20 31 94 32 101 10 129 -19 26 -25 28 -94 28 -41 0 -126 -3 -189 -6 -63
-4 -88 -3 -55 1 l60 7 -50 1 c-27 1 -129 -7 -225 -18 -96 -11 -269 -22 -385
-24 l-210 -5 199 9 c109 5 265 16 347 25 299 32 634 56 484 35 -47 -7 -45 -8
24 -7 69 0 76 -2 98 -27 27 -31 29 -62 8 -113 -18 -42 -18 -46 -5 -38 5 3 16
29 24 56 14 46 14 54 -1 82 -10 18 -16 35 -15 39 2 10 -36 21 -47 13 -5 -3
-12 -1 -16 5 -8 13 31 13 56 0 21 -12 26 2 6 18 -8 7 -26 8 -52 2 -22 -5 -41
-7 -44 -5 -5 6 17 13 49 17 13 2 29 12 35 23 5 11 21 36 35 55 20 28 26 50 29
107 2 54 7 73 17 73 11 0 14 -16 14 -67z m-2160 33 c0 -2 -7 -6 -15 -10 -8 -3
-15 -1 -15 4 0 6 7 10 15 10 8 0 15 -2 15 -4z m3515 -118 c-2 -64 -1 -71 4
-28 l6 55 7 -75 c13 -158 106 -357 287 -614 80 -114 111 -166 86 -146 -17 14
-18 13 -11 -5 4 -11 5 -17 2 -15 -9 10 -156 222 -156 226 0 2 -15 25 -34 51
-94 132 -190 359 -203 483 -5 51 2 150 12 150 1 0 2 -37 0 -82z m1452 -113 c0
-8 -4 -15 -9 -15 -4 0 -8 7 -8 15 0 8 4 15 8 15 5 0 9 -7 9 -15z m151 -109
c82 -77 118 -163 128 -307 7 -89 7 -87 -44 -239 -17 -51 -33 -75 -26 -39 3 20
2 19 -10 -6 -9 -16 -15 -23 -16 -14 0 8 9 34 20 57 11 22 20 53 20 67 0 14 7
40 16 58 13 25 16 50 12 122 -3 49 -2 74 2 55 l7 -35 2 31 c1 35 -18 98 -51
162 -22 43 -110 132 -131 132 -6 0 14 -23 45 -50 55 -49 119 -152 118 -189 -1
-9 -14 12 -30 46 -39 85 -69 122 -145 178 -64 47 -80 63 -50 51 8 -3 15 -1 15
4 0 6 -4 10 -10 10 -5 0 -10 5 -10 11 0 13 71 -41 138 -105z m-4133 44 c2 -10
-7 -16 -24 -17 l-26 -1 25 14 25 15 -25 -7 c-14 -3 -29 -10 -34 -15 -6 -5 -17
-9 -25 -9 -9 0 0 9 19 20 40 22 62 22 65 0z m1929 -50 c5 -40 44 -179 82 -297
5 -15 4 -16 -6 -3 -9 12 -10 8 -4 -20 9 -49 27 -76 19 -30 -4 29 -2 27 14 -15
41 -110 112 -378 110 -417 -1 -16 -4 -13 -9 12 -6 29 -8 31 -9 10 -2 -14 -18
34 -37 105 -19 72 -61 214 -94 318 -95 294 -116 387 -86 387 9 0 16 -17 20
-50z m-2000 4 c9 -3 16 -12 16 -20 0 -15 -19 -16 -65 -3 -25 7 -22 7 13 3 28
-3 41 -1 37 6 -10 16 -173 6 -241 -16 -17 -5 -17 -4 -2 6 32 20 207 38 242 24z
m73 -20 c-3 -3 -12 -4 -19 -1 -8 3 -5 6 6 6 11 1 17 -2 13 -5z m-217 -14 c-8
-5 -22 -9 -30 -9 -10 0 -8 3 5 9 27 12 43 12 25 0z m4112 -82 c-8 -8 -9 -4 -5
13 4 13 8 18 11 10 2 -7 -1 -18 -6 -23z m-21 -51 c-10 -9 -11 -8 -5 6 3 10 9
15 12 12 3 -3 0 -11 -7 -18z m-1787 -627 l5 -75 -14 90 c-15 100 -17 149 -5
95 5 -19 11 -69 14 -110z m-1964 80 c1 14 12 -11 25 -59 26 -92 24 -141 -6
-141 -10 0 -21 -5 -24 -10 -4 -6 -24 -19 -46 -31 -24 -12 -37 -24 -33 -31 4
-6 3 -8 -4 -4 -6 3 -31 -6 -55 -22 -25 -15 -115 -57 -200 -92 -86 -36 -154
-66 -152 -68 2 -3 73 23 157 56 84 33 189 72 233 87 123 40 138 47 123 56 -7
5 -8 9 -3 9 6 0 17 -4 25 -10 17 -10 7 -15 -135 -62 -49 -16 -160 -57 -245
-91 -143 -56 -161 -66 -227 -126 -43 -38 -73 -74 -73 -85 0 -11 -12 -40 -27
-65 -34 -60 -163 -202 -199 -221 -34 -17 -182 -123 -272 -194 -35 -27 -65 -60
-69 -74 -7 -30 17 -64 83 -115 l49 -38 85 6 c126 9 258 33 302 56 22 11 45 18
51 16 27 -10 161 75 273 172 22 20 66 58 97 84 32 27 54 53 51 59 -4 6 -10 5
-15 -3 -7 -11 -9 -10 -9 4 0 9 7 17 15 17 8 0 15 -5 15 -11 0 -6 13 0 29 13
15 13 60 49 98 80 57 46 74 66 87 104 9 26 16 57 16 68 1 23 22 56 37 56 5 0
14 -19 20 -42 7 -24 15 -52 18 -63 6 -16 5 -17 -4 -5 -9 13 -11 13 -11 -2 0
-10 7 -18 15 -18 8 0 15 -7 15 -15 0 -8 -4 -15 -9 -15 -5 0 -33 -19 -62 -43
-30 -23 -66 -49 -81 -57 -25 -14 -154 -125 -331 -287 -76 -69 -141 -113 -190
-129 -12 -4 -37 -18 -55 -32 -25 -19 -35 -22 -46 -13 -14 12 -133 -11 -225
-43 -55 -20 -108 -19 -194 2 -65 17 -137 61 -137 84 0 7 13 -1 29 -16 16 -16
34 -25 40 -21 7 3 10 1 9 -6 -2 -8 22 -19 62 -30 75 -21 121 -23 170 -8 92 27
264 69 268 64 3 -3 -3 -5 -14 -5 -16 0 -16 -2 -4 -10 11 -7 22 -2 40 15 15 14
32 25 38 25 29 0 119 60 195 130 202 183 310 276 339 292 17 9 47 30 67 46 20
16 47 34 59 41 13 7 21 15 19 18 -3 2 -19 -3 -36 -11 -43 -23 -52 -20 -46 12
4 21 2 20 -7 -6 -7 -22 -34 -52 -77 -86 -36 -29 -98 -82 -137 -117 -80 -72
-167 -147 -234 -201 -51 -41 -161 -99 -196 -103 -12 -1 -38 -9 -56 -18 -40
-19 -182 -44 -298 -52 -83 -7 -86 -6 -130 24 -72 48 -95 77 -95 121 0 21 -3
36 -6 34 -4 -2 -5 6 -1 18 3 14 2 19 -6 14 -17 -10 -15 -71 3 -105 8 -16 28
-40 44 -54 16 -13 27 -27 25 -30 -3 -3 -26 17 -50 45 -42 47 -45 53 -42 101 2
42 6 52 20 51 10 -1 37 15 60 36 24 20 97 75 163 123 144 103 273 220 309 282
15 25 29 45 32 45 7 0 -15 -40 -43 -77 -13 -18 -19 -33 -13 -33 12 0 70 88 70
107 0 20 -30 15 -64 -10 -43 -33 -126 -80 -131 -75 -2 2 20 19 50 36 30 18 55
37 55 43 0 5 6 9 14 9 7 0 19 6 25 14 7 8 19 13 27 12 9 -1 30 11 47 28 18 17
54 50 79 73 26 23 43 43 37 45 -7 2 8 12 32 23 24 10 72 31 107 47 35 15 68
28 73 28 15 0 150 70 184 95 23 17 118 71 143 81 1 1 -11 50 -28 109 -30 108
-40 165 -15 90 11 -33 14 -36 15 -15z m57 8 c-3 12 -3 22 -1 22 6 0 18 -34 42
-118 11 -40 16 -70 11 -67 -5 4 -9 2 -9 -4 0 -5 19 -14 43 -19 24 -6 32 -10
19 -11 -29 -1 -123 -41 -118 -50 2 -3 -11 -6 -29 -7 -19 0 -32 3 -29 8 3 4 15
8 28 8 12 0 27 5 33 11 6 6 28 17 49 25 l39 15 -42 -6 c-25 -3 -43 -1 -43 5 0
5 6 7 14 4 8 -3 16 -2 19 3 4 7 -20 104 -48 188 -5 15 -2 13 10 -5 16 -24 16
-24 12 -2z m948 -69 c29 -8 29 -8 -5 -5 -58 6 -247 -13 -375 -39 -209 -42
-287 -53 -390 -58 l-100 -5 85 9 c131 14 222 28 381 59 125 25 287 47 354 47
11 1 34 -3 50 -8z m-135 -39 c-91 -9 -200 -23 -243 -29 -43 -7 -81 -11 -83 -8
-10 10 346 54 436 54 30 1 -19 -7 -110 -17z m1136 -205 c4 -71 13 -147 21
-169 17 -49 16 -56 -1 -56 -14 0 -18 8 -32 63 -3 14 -2 18 4 9 9 -14 5 120 -8
233 -6 54 -7 36 -5 -75 l4 -145 -9 110 c-5 61 -6 144 -3 185 l7 75 7 -50 c4
-27 11 -108 15 -180z m-1096 185 l-35 -7 35 -3 c28 -1 21 -5 -35 -16 -81 -16
-202 -28 -475 -49 -107 -8 -211 -17 -230 -19 -29 -5 -31 -4 -10 3 14 5 41 10
60 11 33 2 33 3 10 10 -16 6 -6 7 30 3 88 -8 631 39 616 54 -2 2 -99 -6 -216
-18 -123 -12 -215 -18 -220 -13 -5 5 11 8 38 7 31 -1 39 0 24 5 -13 4 24 8 85
9 59 2 151 9 203 16 52 8 109 14 125 14 29 0 29 0 -5 -7z m-623 -56 c-3 -3
-12 -4 -19 -1 -8 3 -5 6 6 6 11 1 17 -2 13 -5z m-823 -281 c-3 -16 -14 -35
-25 -41 -15 -10 -17 -9 -13 3 4 8 10 15 14 15 5 0 11 14 15 31 9 39 17 32 9
-8z m1619 -25 c56 -53 58 -102 8 -179 -16 -24 -40 -62 -54 -84 -13 -23 -61
-85 -107 -138 -73 -88 -81 -101 -78 -134 3 -40 -19 -60 -28 -25 -6 19 -6 19
-28 -2 -80 -75 -176 -156 -186 -156 -29 0 3 41 98 125 56 49 117 113 136 140
19 28 59 79 91 115 71 82 156 226 153 259 -2 13 -14 32 -28 42 -23 17 -29 18
-90 3 -293 -68 -687 -187 -780 -234 -22 -11 -47 -20 -57 -20 -63 1 408 158
672 224 227 57 227 57 260 38 22 -13 31 -27 33 -49 4 -44 -69 -169 -174 -296
-46 -55 -84 -105 -84 -111 0 -12 4 -8 98 105 81 97 182 262 182 296 0 27 -61
93 -85 93 -71 0 -725 -195 -830 -247 -27 -14 -28 -14 -15 0 21 21 470 169 630
208 74 17 144 35 155 40 39 15 83 10 108 -13z m-923 -258 c-8 -5 -22 -9 -30
-9 -10 0 -8 3 5 9 27 12 43 12 25 0z m2966 -99 c-11 -17 -135 -100 -195 -131
-35 -17 -104 -38 -172 -51 -103 -20 -140 -22 -379 -21 -290 3 -772 20 -780 29
-3 3 54 2 125 -1 183 -10 843 -24 885 -19 105 12 231 38 275 56 59 24 235 137
235 151 0 5 3 7 6 3 3 -3 3 -10 0 -16z m-1583 -205 c-91 -43 -293 -193 -293
-218 0 -5 15 3 34 20 18 16 85 60 147 97 63 38 127 79 142 92 16 13 33 23 38
23 21 0 -62 -61 -179 -130 -131 -78 -195 -137 -309 -286 -34 -43 -85 -102
-115 -131 -54 -52 -241 -183 -262 -183 -7 0 -39 -23 -71 -51 -80 -68 -158
-119 -181 -119 -35 0 -64 -12 -64 -26 0 -40 -229 21 -272 73 -6 7 9 2 33 -12
82 -47 229 -82 229 -55 0 6 10 15 23 19 14 6 -6 7 -55 4 -106 -8 -151 10 -197
77 -32 47 -33 53 -29 118 6 88 50 177 133 271 56 64 78 107 51 98 -18 -6 -121
-155 -165 -239 -51 -99 -55 -159 -15 -233 14 -28 19 -43 10 -36 -8 7 -23 32
-32 57 -35 93 -6 187 114 364 44 65 69 91 102 108 25 13 52 30 61 38 22 20 34
18 18 -3 -12 -14 -12 -16 1 -11 9 3 -24 -35 -73 -85 -183 -190 -240 -335 -168
-433 54 -74 64 -79 160 -79 76 0 93 4 152 32 36 18 96 59 133 92 38 33 78 63
90 67 23 7 157 98 225 153 25 20 80 81 123 136 100 126 225 254 305 312 81 58
163 103 188 103 11 0 -3 -11 -32 -24z m-973 -129 c0 -15 -20 -37 -34 -37 -5 0
-1 9 9 20 22 25 9 26 -19 3 -21 -18 -21 -18 -2 5 21 24 46 29 46 9z m-1512
-184 c-10 -2 -28 -2 -40 0 -13 2 -5 4 17 4 22 1 32 -1 23 -4z"/>
<path d="M3129 5646 c13 -16 99 -42 108 -32 3 3 -2 6 -13 6 -11 0 -37 9 -59
20 -46 24 -51 24 -36 6z"/>
<path d="M3328 5573 c7 -3 16 -2 19 1 4 3 -2 6 -13 5 -11 0 -14 -3 -6 -6z"/>
<path d="M4180 5228 c0 -6 160 -168 165 -168 14 0 -34 65 -76 104 -39 37 -89
73 -89 64z"/>
<path d="M4351 4969 c0 -19 5 -43 10 -54 6 -13 7 -4 3 30 -8 60 -14 72 -13 24z"/>
<path d="M5275 3061 c-18 -5 8 -6 62 -3 116 6 170 -8 226 -60 23 -22 36 -36
28 -32 -9 4 -12 2 -9 -7 3 -8 11 -13 17 -11 7 1 10 -2 7 -7 -3 -5 2 -15 10
-22 24 -20 64 -85 92 -149 14 -32 21 -43 17 -25 -8 44 -66 154 -88 170 -10 7
-14 14 -7 17 18 6 -58 87 -104 110 -31 17 -62 22 -131 24 -49 2 -103 -1 -120
-5z"/>
<path d="M5082 2390 c0 -14 2 -19 5 -12 2 6 2 18 0 25 -3 6 -5 1 -5 -13z"/>
<path d="M5511 2264 c0 -11 3 -14 6 -6 3 7 2 16 -1 19 -3 4 -6 -2 -5 -13z"/>
<path d="M4604 1395 c-10 -8 -14 -15 -8 -15 5 0 19 7 30 15 10 8 14 15 8 15
-5 0 -19 -7 -30 -15z"/>
<path d="M1315 3305 c42 -104 47 -132 43 -228 -2 -54 -1 -90 3 -80 4 10 8 57
8 104 1 86 -24 189 -51 214 -8 7 -9 5 -3 -10z"/>
<path d="M1440 3298 c0 -3 7 -23 16 -44 26 -61 16 -150 -24 -214 -35 -55 -38
-81 -5 -33 49 71 66 170 42 244 -11 31 -29 61 -29 47z"/>
<path d="M2440 3185 c-4 -58 -11 -80 -38 -120 -43 -65 -41 -81 3 -19 39 55 48
86 43 159 -3 47 -3 45 -8 -20z"/>
<path d="M2108 2943 c17 -2 47 -2 65 0 17 2 3 4 -33 4 -36 0 -50 -2 -32 -4z"/>
<path d="M3821 3001 c-1 -39 58 -202 106 -291 40 -74 229 -367 255 -395 25
-27 -12 39 -66 118 -151 220 -243 392 -275 517 -11 41 -20 64 -20 51z"/>
<path d="M5314 2945 c11 -8 22 -12 25 -9 6 6 -19 24 -34 24 -5 -1 -1 -7 9 -15z"/>
<path d="M5532 2550 c-1 -36 -9 -78 -17 -94 -8 -15 -15 -39 -15 -53 0 -13 -5
-33 -11 -44 -6 -11 -8 -25 -6 -32 2 -7 10 8 17 33 7 25 19 63 27 85 9 25 13
66 10 105 l-3 65 -2 -65z"/>
<path d="M3191 2904 c-1 -26 40 -188 68 -264 28 -80 25 -49 -5 45 -14 44 -34
116 -44 160 -10 44 -19 70 -19 59z"/>
<path d="M3311 2495 c-1 -6 14 -62 33 -125 18 -63 39 -142 47 -174 7 -33 15
-54 17 -48 2 6 -11 64 -28 129 -32 122 -68 236 -69 218z"/>
<path d="M1411 2140 c0 -8 8 -42 19 -75 11 -33 17 -44 13 -25 -8 47 -31 119
-32 100z"/>
<path d="M1460 1545 c-1 -5 -1 -21 -1 -35 1 -14 -3 -37 -8 -50 -8 -20 -9 -16
-4 20 3 25 3 42 -1 39 -6 -6 -16 -119 -10 -119 1 0 12 6 25 13 20 10 24 19 23
52 -1 38 -21 102 -24 80z m17 -77 c-3 -8 -6 -5 -6 6 -1 11 2 17 5 13 3 -3 4
-12 1 -19z"/>
<path d="M608 1360 c-37 -37 -125 -108 -195 -158 -136 -97 -221 -167 -213
-175 3 -3 32 18 65 46 34 29 117 91 186 139 117 82 229 183 229 207 0 14 5 18
-72 -59z"/>
<path d="M1471 2150 c-1 -8 8 -42 19 -75 10 -33 19 -53 19 -45 1 8 -8 42 -19
75 -10 33 -19 53 -19 45z"/>
<path d="M3421 1683 c-1 -12 4 -25 9 -28 12 -7 12 2 0 30 -8 19 -9 19 -9 -2z"/>
<path d="M2239 1193 c0 -5 -2 -15 -4 -24 -1 -9 1 -23 6 -30 6 -10 9 -2 9 24 0
20 -2 37 -5 37 -3 0 -5 -3 -6 -7z"/>
<path d="M2125 1089 c-77 -68 -115 -109 -102 -109 4 0 94 80 167 147 80 75 28
44 -65 -38z"/>
<path d="M2604 847 c-28 -28 -75 -83 -104 -122 -30 -38 -72 -87 -94 -108 -55
-51 -190 -149 -245 -177 -24 -12 -72 -46 -107 -75 -64 -54 -104 -80 -159 -102
-27 -10 -28 -12 -7 -12 31 -1 102 41 178 105 34 29 81 62 105 74 55 28 190
126 245 177 22 21 64 70 94 108 29 39 76 94 104 122 27 29 48 55 45 58 -3 2
-28 -19 -55 -48z"/>
<path d="M1800 832 c-14 -10 -26 -23 -28 -30 -1 -7 13 -1 33 14 49 37 45 49
-5 16z"/>
<path d="M3752 4475 c0 -21 25 -107 27 -90 0 6 -6 33 -13 60 -8 28 -14 41 -14
30z"/>
<path d="M3532 3631 c-117 -30 -209 -57 -204 -59 9 -3 443 107 451 114 11 11
-52 -3 -247 -55z"/>
<path d="M3160 3535 c-25 -7 -38 -13 -30 -14 8 0 38 6 65 13 28 8 41 14 30 14
-11 0 -40 -6 -65 -13z"/>
<path d="M2918 3533 c17 -2 47 -2 65 0 17 2 3 4 -33 4 -36 0 -50 -2 -32 -4z"/>
<path d="M2219 2691 c-37 -10 -82 -24 -100 -30 -19 -7 -137 -30 -264 -51 -126
-22 -273 -48 -325 -60 -52 -11 -109 -20 -127 -20 -31 0 -270 -59 -419 -104
-101 -30 -145 -52 -227 -115 -35 -27 -91 -66 -123 -87 -33 -20 -149 -96 -259
-168 -110 -73 -225 -147 -255 -166 -62 -39 -126 -90 -111 -90 18 0 549 344
732 474 58 42 123 83 144 92 102 42 457 146 532 154 44 6 152 23 240 40 87 16
218 38 291 50 74 11 146 27 160 34 15 7 61 21 102 31 76 18 121 35 90 34 -8
-1 -45 -9 -81 -18z"/>
<path d="M480 1431 c-38 -22 -236 -81 -335 -100 -155 -29 -154 -29 -119 -30
81 -3 409 86 474 129 19 12 1 13 -20 1z"/>
</g>
</svg>
