<?xml version="1.0" standalone="no"?>
<!DOCTYPE svg PUBLIC "-//W3C//DTD SVG 20010904//EN"
 "http://www.w3.org/TR/2001/REC-SVG-20010904/DTD/svg10.dtd">
<svg version="1.0" xmlns="http://www.w3.org/2000/svg"
 width="1280.000000pt" height="720.000000pt" viewBox="0 0 1280.000000 720.000000"
 preserveAspectRatio="xMidYMid meet">
<metadata>
Created by potrace 1.16, written by Peter Selinger 2001-2019
</metadata>
<g transform="translate(0.000000,720.000000) scale(0.100000,-0.100000)"
fill="#000000" stroke="none">
<path d="M0 3600 l0 -3600 2765 0 2765 0 0 33 c0 115 -52 523 -71 558 -16 30
-41 152 -40 193 1 30 -9 56 -39 105 -109 182 -186 444 -227 775 -22 178 -25
699 -5 881 23 212 62 453 86 538 14 45 32 134 41 197 9 63 37 229 61 369 24
139 43 281 43 315 -1 39 5 75 16 101 26 59 44 150 46 235 2 65 3 69 8 30 6
-45 6 -45 15 -15 5 17 8 35 6 40 -1 6 -13 51 -26 100 -23 90 -53 168 -113 298
-17 37 -31 70 -31 72 0 3 -11 23 -25 45 -30 47 -31 60 -7 59 9 0 12 -3 7 -5
-6 -2 13 -54 43 -117 65 -134 107 -240 128 -322 8 -33 20 -77 25 -98 11 -40
29 -42 29 -2 0 31 44 58 174 106 56 21 92 38 81 38 -41 1 -167 -46 -227 -86
-15 -9 -30 -15 -32 -12 -3 3 -17 45 -31 95 -29 98 -186 437 -196 422 -4 -6
-14 13 -24 41 -12 37 -23 52 -38 56 -12 2 -48 9 -80 15 -86 17 -252 75 -316
111 -68 38 -236 171 -257 204 -9 13 -25 26 -37 28 -12 2 -7 4 11 3 17 -1 32 1
32 4 0 3 19 11 43 17 59 16 101 33 95 38 -3 3 -29 -3 -59 -13 -74 -26 -118
-36 -99 -22 23 15 0 12 -47 -7 -24 -10 -43 -23 -43 -30 0 -16 35 -26 63 -18
20 5 20 5 3 -6 -14 -9 -28 -9 -54 -1 -26 8 -38 8 -43 1 -3 -6 -46 -15 -95 -21
-161 -17 -357 21 -474 93 -62 38 -166 155 -197 221 -34 74 -33 146 2 199 14
22 38 45 53 50 28 11 231 56 492 110 80 16 179 41 220 56 63 22 90 26 175 25
59 0 121 -7 150 -16 54 -17 41 -16 -85 4 -80 14 -153 6 -244 -26 -39 -13 -122
-34 -185 -46 -84 -16 -109 -23 -91 -28 22 -6 19 -8 -20 -15 -37 -6 -42 -9 -25
-17 17 -7 16 -8 -5 -3 -14 2 -32 5 -40 6 -8 0 5 7 30 14 58 17 20 19 -44 2
l-50 -13 56 -12 c59 -14 121 -7 96 10 -9 6 -6 7 10 3 14 -4 34 1 55 13 17 11
46 22 62 26 17 4 77 22 135 41 148 47 190 50 270 21 36 -13 160 -58 275 -100
116 -43 275 -100 354 -127 133 -46 366 -148 357 -156 -2 -2 -52 19 -111 47
-59 28 -191 80 -294 116 -102 36 -262 92 -356 125 -93 33 -174 64 -180 69 -5
4 -35 15 -65 24 -68 20 -110 15 -250 -30 -58 -18 -118 -36 -135 -40 -16 -4
-37 -12 -45 -19 -34 -28 -285 -84 -445 -100 -38 -4 -75 -12 -82 -17 -14 -11
-5 -41 10 -31 25 15 139 32 218 33 47 0 108 7 135 15 61 18 81 18 34 -1 l-35
-14 33 6 c53 9 36 -2 -35 -24 -46 -14 -108 -22 -189 -26 -132 -5 -174 -17
-174 -50 0 -12 15 -50 33 -86 22 -46 37 -64 49 -62 9 1 19 -2 23 -8 3 -6 0 -7
-9 -4 -28 11 -17 -8 26 -45 156 -134 369 -192 571 -157 71 12 107 26 189 71
109 59 113 61 102 43 -5 -8 -2 -9 9 -5 24 9 21 0 -4 -14 -15 -8 -19 -8 -15 0
9 14 0 14 -25 0 -11 -5 -17 -14 -14 -19 3 -4 -3 -6 -12 -4 -10 2 -29 -5 -43
-16 -18 -14 -21 -20 -9 -20 21 0 120 34 147 51 16 10 24 11 33 2 16 -16 -37
-48 -114 -69 -50 -15 -56 -19 -45 -32 27 -33 256 -196 313 -222 141 -66 420
-120 473 -91 11 6 90 26 176 46 86 19 174 44 196 55 45 23 60 25 60 9 0 -19
-55 -66 -107 -92 -56 -29 -189 -70 -206 -64 -7 2 6 7 28 12 30 6 36 9 21 14
-13 5 -1 12 45 26 90 26 50 30 -54 5 -93 -21 -114 -24 -82 -10 40 17 -22 11
-65 -6 -36 -14 -54 -15 -138 -6 -114 13 -227 42 -332 83 -77 31 -225 132 -307
212 -24 23 -43 37 -43 31 0 -28 222 -202 304 -238 147 -65 264 -94 461 -112
135 -12 139 -13 43 -9 -60 3 -108 3 -108 1 0 -14 39 -103 99 -226 57 -118 102
-234 137 -358 3 -10 12 -8 34 8 35 25 174 74 235 83 28 5 34 4 20 -3 l-20 -9
20 -1 c11 -1 -25 -18 -80 -38 -136 -50 -189 -81 -193 -112 -2 -14 -12 -34 -22
-45 -16 -17 -19 -36 -18 -120 1 -62 -7 -144 -20 -215 -11 -63 -23 -142 -27
-175 -13 -117 -76 -553 -110 -755 -19 -113 -44 -277 -55 -365 -11 -87 -30
-202 -41 -255 -33 -154 -37 -418 -10 -655 27 -234 52 -383 86 -500 78 -273
202 -548 291 -645 13 -14 26 -41 29 -60 5 -34 5 -34 -5 -6 -5 16 -20 41 -33
55 -64 70 -140 217 -207 401 -102 278 -131 409 -171 755 -27 237 -23 502 10
655 12 52 28 151 36 220 9 69 36 251 61 405 38 234 44 287 35 320 -10 40 -10
40 -6 -15 2 -39 1 -49 -6 -35 -7 14 -8 4 -5 -35 4 -46 3 -50 -5 -25 -7 22 -3
76 17 212 15 101 28 182 29 180 1 -1 5 -20 8 -42 5 -30 4 -36 -4 -25 -8 11 -9
2 -5 -35 3 -36 2 -44 -5 -30 -7 14 -8 5 -5 -35 3 -36 1 -48 -4 -35 -7 17 -9
15 -8 -10 0 -31 15 -90 17 -67 3 38 63 483 81 592 31 201 32 208 22 226 -9 16
-10 16 -15 -2 -3 -10 -9 -37 -13 -59 -4 -22 -16 -60 -27 -85 -13 -30 -19 -65
-18 -106 0 -34 -19 -176 -43 -315 -24 -140 -52 -306 -61 -369 -9 -63 -27 -152
-41 -197 -24 -85 -63 -326 -86 -538 -20 -182 -17 -703 5 -881 42 -340 120
-597 236 -779 24 -38 31 -59 30 -95 -1 -46 23 -167 41 -200 14 -27 47 -258 61
-438 l13 -152 32 0 c37 0 37 -29 3 244 -11 93 -18 179 -15 191 8 32 -48 213
-74 239 -5 5 -10 17 -9 25 0 11 2 12 6 3 2 -6 8 -10 12 -7 9 5 105 -114 98
-121 -4 -5 -35 29 -70 76 -20 28 -21 30 20 -85 14 -38 25 -85 25 -105 0 -37
37 -399 44 -437 l4 -23 310 0 c262 0 310 2 310 14 0 8 -13 24 -29 35 -15 11
-34 35 -42 53 -7 18 -28 58 -46 88 -18 30 -33 61 -33 69 0 15 31 -37 76 -127
15 -29 39 -62 55 -73 16 -11 30 -30 30 -42 1 -17 3 -14 8 8 6 26 1 37 -33 78
-56 65 -116 148 -116 160 0 6 17 -13 38 -41 20 -27 58 -75 85 -105 41 -47 46
-58 41 -86 l-6 -31 1330 0 c1258 0 1330 1 1335 18 3 9 28 75 55 147 27 72 52
144 56 160 11 45 28 59 168 137 71 40 154 95 185 122 34 30 51 41 44 28 -19
-35 -98 -92 -229 -165 -113 -63 -162 -103 -162 -131 0 -6 -25 -79 -55 -161
-30 -83 -55 -151 -55 -152 0 -2 17 -3 38 -3 l38 0 46 132 c26 73 49 148 53
166 5 24 21 43 63 75 101 77 109 75 14 -2 -52 -43 -79 -77 -68 -88 3 -3 38 19
78 49 40 30 116 86 168 125 119 89 270 244 383 393 149 197 211 269 222 260
12 -10 94 148 141 270 15 41 80 163 145 270 136 227 359 633 359 652 -1 7 -8
0 -17 -17 -9 -17 -18 -25 -21 -17 -2 6 -9 9 -15 5 -23 -14 66 131 140 229 42
57 92 123 111 148 60 80 192 210 214 210 25 0 81 58 107 109 10 20 35 87 55
150 35 108 46 128 190 345 85 127 182 267 217 311 98 126 305 326 380 367 117
66 159 129 169 253 l7 80 1 -67 c3 -126 -51 -216 -166 -273 -60 -30 -283 -245
-378 -365 -32 -41 -132 -184 -220 -317 -159 -238 -162 -245 -203 -371 -40
-126 -93 -222 -124 -222 -42 0 -195 -150 -276 -269 -22 -33 -67 -92 -99 -133
-64 -79 -118 -166 -109 -174 3 -3 12 7 21 23 9 16 16 22 16 13 1 -10 4 -9 11
5 6 15 7 11 3 -15 -8 -44 -208 -411 -365 -673 -66 -108 -134 -234 -151 -279
-103 -269 -273 -534 -454 -709 -100 -95 -148 -131 -180 -135 -15 -1 -38 -14
-53 -27 -27 -26 -287 -214 -302 -219 -8 -3 -98 -242 -99 -260 0 -5 848 -8
1885 -8 l1885 0 0 3600 0 3600 -1460 0 c-1161 0 -1460 -3 -1460 -12 0 -7 7
-35 15 -63 9 -27 38 -158 66 -290 28 -132 73 -332 101 -445 67 -277 75 -340
60 -503 -24 -261 -129 -778 -241 -1183 -14 -51 -22 -132 -31 -295 -14 -272
-45 -580 -65 -634 -8 -22 -14 -57 -15 -77 0 -59 -28 -258 -45 -321 -8 -32 -22
-65 -30 -74 -32 -31 -16 -28 38 9 15 11 27 17 27 14 0 -2 -20 -19 -44 -37 -28
-19 -44 -38 -43 -50 1 -11 6 -19 12 -19 5 0 64 55 130 122 109 112 251 237
186 165 -28 -31 -22 -34 17 -11 l27 16 -24 -21 c-13 -12 -31 -19 -38 -17 -9 4
-44 -24 -90 -72 l-75 -77 -3 -105 c-4 -110 -15 -157 -40 -166 -46 -18 -61 84
-25 164 26 57 34 54 10 -4 -24 -54 -26 -126 -6 -143 27 -23 45 25 51 137 l6
103 -68 -55 c-123 -100 -131 -106 -146 -106 -10 0 -24 -22 -38 -57 -33 -87
-38 -267 -11 -399 24 -114 36 -204 23 -164 l-9 25 -2 -25 c-1 -27 -14 7 -46
120 -54 194 -26 436 62 538 59 69 118 285 129 467 7 122 23 234 61 424 28 143
55 357 47 377 -7 19 -23 17 -23 -3 0 -9 -2 -14 -5 -11 -3 3 17 95 44 204 73
290 113 507 147 797 8 72 24 176 34 232 52 280 64 436 41 542 -17 77 -18 78
-25 39 -4 -21 -9 -36 -12 -33 -6 5 -30 141 -44 249 -12 94 -91 523 -118 643
l-18 80 -486 3 -486 2 -4 -112 c-7 -211 29 -475 88 -640 33 -92 110 -257 129
-279 9 -9 13 -24 9 -33 -6 -16 -8 -16 -25 0 -18 16 -19 16 -19 0 0 -29 77
-111 132 -141 36 -20 72 -30 127 -35 73 -7 74 -7 20 -9 -86 -2 -153 24 -221
87 -41 38 -61 65 -69 94 -12 47 -3 62 18 31 9 -13 20 -23 25 -23 5 0 0 13 -11
29 -51 72 -140 302 -169 441 -35 161 -45 259 -43 428 1 134 -1 162 -13 162
-21 0 -30 -120 -23 -318 6 -190 18 -252 87 -467 84 -265 105 -445 70 -627 -44
-235 -53 -275 -91 -402 -22 -72 -53 -196 -69 -276 -15 -80 -35 -179 -43 -220
-8 -41 -16 -66 -16 -56 -1 10 6 55 15 100 44 230 67 333 103 452 38 128 47
168 91 402 35 183 14 363 -71 627 -78 243 -84 286 -84 553 l0 232 -375 0 -375
0 70 -35 c72 -36 125 -83 125 -111 0 -26 80 -139 201 -284 112 -134 196 -254
239 -340 12 -25 30 -53 39 -64 13 -15 16 -38 14 -120 -2 -102 -32 -347 -43
-356 -10 -8 6 -812 18 -850 5 -19 12 -80 15 -135 3 -68 2 -86 -3 -55 -5 25 -9
70 -9 100 -1 30 -6 71 -12 90 -7 22 -15 190 -21 440 -14 579 -14 570 -5 570 5
0 5 -37 2 -82 -11 -124 9 -85 29 57 9 66 18 163 19 215 1 92 0 97 -33 150 -18
30 -56 92 -84 138 -28 45 -104 146 -169 225 -133 160 -196 249 -204 288 -7 38
-45 71 -136 118 -71 38 -83 41 -155 40 l-77 0 80 -24 c43 -13 86 -32 95 -42 8
-10 22 -17 31 -15 24 4 113 -81 147 -141 16 -28 62 -92 101 -142 126 -160 235
-342 257 -431 6 -25 8 -26 14 -9 5 13 -1 36 -17 64 -16 29 -19 40 -9 32 23
-20 20 -3 -7 33 -26 34 -55 87 -40 71 33 -34 181 -248 178 -258 -2 -7 -9 -50
-15 -97 -6 -47 -16 -101 -21 -120 -12 -42 6 -1150 20 -1249 5 -35 15 -67 21
-71 7 -4 15 -29 17 -54 5 -42 3 -48 -16 -53 -17 -4 -19 -8 -10 -19 6 -8 8 -26
4 -45 -11 -47 17 -32 31 17 9 33 19 43 65 67 41 22 48 24 29 8 -14 -12 -35
-24 -48 -27 -16 -4 -26 -19 -36 -53 -10 -35 -18 -47 -36 -49 -21 -3 -22 -1
-15 37 4 27 3 41 -4 41 -6 0 -11 6 -11 14 0 12 -13 9 -60 -10 -67 -27 -90 -30
-90 -11 0 7 38 26 83 43 56 20 84 26 84 18 0 -7 -7 -10 -16 -7 -13 5 -13 3 -4
-7 17 -19 43 -4 43 25 0 14 -1 25 -3 25 -2 0 -50 -16 -107 -35 -92 -31 -107
-34 -137 -23 -18 7 -33 17 -33 23 0 7 52 25 116 41 64 16 120 31 124 34 5 3 4
34 -1 70 -14 103 -32 1241 -20 1253 6 6 11 27 12 47 0 19 6 67 13 105 l12 70
-50 67 c-52 70 -69 82 -42 30 8 -16 13 -32 10 -34 -3 -3 4 -39 16 -79 11 -40
19 -87 19 -104 -2 -27 -3 -26 -10 10 -6 33 -7 29 -5 -25 3 -61 3 -62 -5 -20
-51 257 -107 371 -322 651 -43 56 -87 119 -97 139 -27 53 -119 134 -136 120
-9 -9 -15 -6 -24 9 -14 27 -49 44 -143 70 -76 21 -93 21 -893 21 l-816 0 7
-47 c9 -65 72 -195 134 -280 28 -40 102 -120 164 -178 151 -144 217 -176 461
-225 128 -26 344 -20 506 14 127 27 127 27 105 17 l-20 -10 20 -1 c59 -4 -151
-50 -297 -65 l-67 -7 77 -91 c141 -165 367 -367 468 -417 22 -10 33 -19 26
-20 -41 -1 -176 99 -324 239 -103 98 -258 272 -258 290 0 5 37 13 83 18 81 10
80 11 -43 6 -215 -7 -413 30 -576 108 -117 55 -352 303 -406 428 -11 25 -28
64 -38 86 -10 22 -21 61 -25 88 -10 65 -29 61 -23 -5 11 -127 123 -314 283
-473 78 -78 213 -155 337 -194 77 -23 263 -51 343 -51 39 0 55 -4 55 -13 0 -7
21 -42 47 -77 26 -36 47 -72 48 -81 1 -9 17 -36 37 -60 19 -24 53 -75 73 -114
56 -103 108 -176 154 -218 40 -36 41 -38 41 -104 0 -38 -13 -169 -29 -293 -40
-309 -55 -479 -48 -570 l5 -77 -40 -23 c-21 -12 -42 -19 -45 -16 -4 3 0 6 7 6
10 0 11 3 4 10 -7 7 -21 6 -44 -3 -19 -9 -28 -17 -21 -21 6 -4 16 -4 21 -1 6
4 23 0 38 -8 26 -12 31 -12 53 6 13 11 23 24 21 29 -1 5 5 8 15 6 15 -3 19 13
29 117 16 151 34 451 33 519 -1 28 -4 38 -5 21 -13 -106 -37 -383 -44 -505
l-9 -145 5 155 c2 85 10 218 18 295 8 77 18 176 22 220 7 73 9 77 15 40 6 -32
7 -27 6 27 -1 37 2 63 6 59 10 -10 -17 -495 -37 -689 -7 -68 -17 -127 -22
-130 -6 -4 -27 -17 -47 -30 -44 -28 -47 -35 -9 -26 34 8 59 30 80 69 27 52 51
342 58 715 6 313 5 343 -9 325 -15 -19 -15 -18 -8 17 7 28 5 40 -5 49 -8 6
-14 17 -14 23 1 19 50 -44 50 -64 0 -11 11 -22 28 -28 22 -9 23 -11 7 -12
l-20 -1 20 -9 c11 -5 29 -9 40 -9 l20 0 -20 10 c-17 8 -17 9 5 4 14 -2 34 -5
45 -6 14 -1 11 -4 -10 -10 -21 -5 -8 -7 40 -4 48 2 58 1 30 -3 l-40 -7 55 -8
c30 -4 87 -6 125 -5 l70 2 -80 7 c-74 6 -71 6 30 4 61 -1 121 1 135 5 l25 8
-25 2 c-24 2 -24 2 4 11 17 4 32 6 35 4 2 -3 -2 -5 -10 -5 -12 0 -12 -2 0 -9
29 -18 -70 -35 -204 -35 -116 0 -227 15 -286 39 -14 5 -17 -27 -23 -317 -8
-349 -33 -654 -59 -703 -21 -43 -46 -61 -91 -69 -32 -6 -38 -5 -33 8 3 8 1 16
-6 19 -11 3 -162 -52 -200 -74 -24 -13 -212 -69 -229 -68 -7 1 -2 5 12 9 l25
8 -25 2 c-29 2 149 61 197 65 17 2 48 8 68 15 33 11 35 13 18 25 -10 8 -31 11
-48 9 -16 -3 6 10 50 28 44 18 101 45 128 60 26 15 47 23 47 19 0 -4 -11 -14
-25 -21 -16 -9 -22 -17 -16 -23 7 -7 19 -4 34 6 23 15 24 20 19 91 -5 89 9
261 49 566 16 124 29 252 29 285 0 60 -1 62 -55 120 -30 33 -85 111 -122 175
-53 92 -86 134 -160 207 -104 103 -127 140 -31 51 34 -31 64 -56 66 -54 2 2
-15 28 -37 57 -23 30 -47 66 -54 82 -10 24 -17 27 -59 27 -74 0 -262 29 -336
51 -110 34 -262 112 -323 167 -64 58 -225 261 -246 310 -7 17 -14 32 -16 32
-1 0 -27 -7 -57 -15 -30 -8 -62 -14 -70 -14 -8 1 14 9 50 19 107 30 47 22
-119 -15 -217 -48 -397 -74 -526 -77 -92 -1 -79 -3 75 -9 161 -6 195 -4 260
11 41 10 126 28 188 39 62 11 117 23 122 26 6 4 10 2 10 -3 0 -5 -44 -17 -97
-27 -54 -9 -143 -27 -198 -40 -90 -20 -117 -22 -270 -18 -170 5 -219 -1 -365
-43 -14 -4 -22 -3 -18 1 4 4 29 14 55 21 l48 13 -46 0 c-25 1 -52 -5 -61 -11
-22 -19 -48 -60 -48 -78 0 -12 2 -12 9 -1 7 11 10 11 15 0 3 -8 5 -5 2 7 -2
12 2 21 9 21 10 0 11 -7 4 -24 -5 -13 -11 -74 -13 -136 l-5 -112 9 95 c15 152
17 160 52 172 20 7 26 13 18 18 -9 6 -6 10 9 15 27 8 386 2 363 -6 -12 -5 -6
-8 18 -12 19 -2 15 -3 -10 -1 -25 2 -119 6 -210 8 -165 4 -165 4 -45 -5 66 -5
163 -13 215 -18 l95 -9 -95 4 c-52 2 -143 7 -203 10 -114 7 -159 -3 -177 -36
-5 -9 -12 -61 -16 -116 -8 -118 -1 -138 77 -211 104 -97 256 -186 374 -219 94
-26 343 -30 536 -9 88 10 162 16 164 13 10 -10 -309 -38 -436 -38 -241 0 -371
38 -547 162 -77 53 -152 126 -168 162 -18 43 -17 20 2 -37 15 -45 83 -127 105
-127 8 0 7 6 -2 18 -13 15 -12 16 3 3 10 -7 15 -18 11 -24 -4 -6 0 -8 11 -4
10 4 15 3 11 -3 -7 -12 32 -33 47 -24 6 4 8 3 4 -4 -9 -15 124 -91 209 -118
136 -43 355 -58 388 -25 6 6 20 11 30 11 23 0 351 -327 362 -359 3 -12 10 -19
15 -16 5 3 12 0 16 -6 4 -8 3 -9 -4 -5 -7 4 -12 3 -12 -2 0 -12 81 -122 103
-141 9 -7 16 -25 16 -40 -1 -21 -2 -22 -6 -5 -2 12 -23 42 -47 67 -24 26 -57
74 -75 107 -23 42 -81 110 -196 228 -158 162 -164 167 -187 153 -57 -35 -259
-22 -413 26 -96 30 -301 149 -347 202 -17 20 -36 36 -41 36 -5 0 -15 11 -22
25 -9 15 -14 19 -15 10 0 -22 49 -92 61 -85 5 4 9 -1 9 -9 0 -27 -15 -18 -46
27 -50 71 -69 140 -69 247 1 85 4 102 32 162 29 63 34 67 70 72 21 4 74 13
118 21 44 8 123 15 175 15 112 0 293 27 515 76 88 19 165 37 172 39 9 3 7 19
-7 61 -11 31 -20 74 -20 96 l0 38 -3080 0 -3080 0 0 -3600z m7710 2861 c0 -13
-29 -41 -42 -41 -6 0 0 9 13 20 13 10 19 19 14 20 -6 0 -17 -6 -25 -12 -12
-11 -12 -10 -1 5 14 18 41 23 41 8z m-2449 -88 c13 -16 12 -17 -3 -4 -10 7
-18 15 -18 17 0 8 8 3 21 -13z m1389 -56 c0 -7 -25 -28 -55 -46 -30 -18 -55
-35 -55 -37 0 -3 12 -2 28 1 25 5 25 5 4 -4 -12 -6 -30 -7 -39 -4 -11 4 -14 3
-9 -5 5 -8 2 -10 -8 -6 -9 3 -16 1 -16 -6 0 -6 -5 -8 -11 -5 -6 4 15 23 48 42
90 54 105 64 100 69 -3 3 -38 -15 -80 -40 -115 -70 -174 -94 -277 -111 -106
-17 -156 -19 -164 -7 -2 4 10 6 27 4 18 -2 77 4 132 13 107 17 177 45 285 113
68 44 90 51 90 29z m-1094 -55 c-21 -2 -42 0 -47 5 -4 4 13 6 39 3 l47 -5 -39
-3z m1022 -53 c-26 -15 -235 -67 -300 -75 -32 -3 -58 -11 -58 -16 0 -26 75
-156 138 -240 101 -134 142 -173 209 -199 132 -50 418 -19 598 66 61 29 85 33
35 5 -39 -21 -36 -26 7 -9 21 8 25 7 17 -1 -7 -7 -70 -31 -140 -56 -71 -24
-124 -44 -118 -44 22 0 217 41 256 55 46 16 114 61 122 81 7 18 36 19 36 1 0
-21 -62 -74 -110 -95 -95 -40 -569 -135 -554 -111 2 4 0 9 -6 11 -6 1 18 3 52
4 80 0 198 25 172 35 -25 10 -56 11 -51 2 3 -5 -5 -9 -16 -9 -12 -1 -33 -5
-47 -9 -14 -4 -36 -9 -50 -11 -20 -3 -19 -2 5 6 17 6 37 13 45 15 8 2 35 10
59 18 l45 14 -33 6 c-17 4 -55 2 -83 -4 -67 -15 -166 -6 -246 22 -73 25 -109
58 -210 192 -36 48 -68 83 -72 78 -3 -6 -12 0 -19 12 -13 20 -13 21 2 8 23
-18 22 -12 -13 57 -16 34 -30 67 -31 74 0 8 -2 9 -5 2 -3 -6 4 -34 15 -62 14
-36 16 -50 7 -48 -15 2 -156 127 -156 138 0 4 23 8 50 8 72 0 230 26 340 55
51 14 96 28 99 30 2 3 9 5 15 5 6 0 3 -5 -6 -11z m1050 -257 c88 -74 120 -92
159 -91 20 0 23 2 11 7 -9 4 63 7 160 8 142 0 186 4 221 17 24 10 46 15 48 13
2 -2 -20 -12 -49 -22 -37 -13 -100 -20 -213 -25 l-160 -7 170 2 c147 2 177 5
225 24 34 13 48 16 35 6 -42 -31 -99 -39 -285 -39 -215 1 -219 2 -330 95 -72
60 -96 71 -68 31 8 -12 17 -19 19 -16 3 2 5 -4 6 -13 0 -9 5 -31 11 -48 21
-67 -45 -18 -109 81 -22 33 -29 47 -17 31 94 -119 113 -139 116 -125 3 17 -42
102 -49 94 -3 -2 -30 21 -60 52 l-54 57 57 -47 c31 -26 59 -43 63 -38 6 10
-142 158 -154 154 -3 -1 -11 10 -18 23 -7 15 31 -14 89 -68 55 -51 134 -121
176 -156z m2405 237 c3 -2 7 -40 10 -84 4 -54 3 -67 -3 -40 -6 31 -8 21 -6
-48 0 -48 -2 -87 -6 -87 -5 0 -8 35 -9 78 0 42 -4 102 -8 133 -5 43 -4 56 6
55 7 -1 14 -4 16 -7z m-1376 -21 c-3 -8 -6 -5 -6 6 -1 11 2 17 5 13 3 -3 4
-12 1 -19z m-3846 -124 c24 -8 81 -24 126 -34 107 -25 377 -121 479 -170 45
-21 123 -51 175 -66 52 -14 102 -31 113 -36 41 -22 168 -155 198 -207 18 -31
55 -92 84 -136 145 -224 320 -581 357 -731 18 -76 23 -84 44 -84 13 0 31 4 41
8 9 5 31 15 47 23 l30 15 6 395 c3 217 8 400 12 405 3 6 2 28 -4 48 -9 32 -8
40 7 50 12 9 15 22 12 44 -2 18 -1 32 4 32 5 0 8 -23 7 -50 -2 -38 -6 -50 -16
-46 -10 4 -12 -1 -6 -22 4 -15 6 -34 5 -42 -1 -8 -5 -197 -9 -420 l-8 -404
-25 -12 c-67 -32 -81 -37 -107 -38 -27 -1 -29 2 -45 76 -9 43 -40 131 -68 195
-59 135 -217 429 -296 551 -30 45 -63 101 -75 124 -12 24 -36 60 -53 81 -42
53 -154 147 -174 147 -11 0 -6 -7 14 -19 17 -10 63 -50 102 -89 70 -69 73 -75
260 -449 104 -208 206 -418 227 -468 21 -49 43 -96 48 -103 5 -7 7 -15 4 -19
-4 -3 -17 18 -29 47 -13 29 -104 218 -204 419 -99 201 -193 393 -209 426 -33
69 -188 230 -232 241 -25 7 -26 8 -8 16 14 6 10 7 -15 3 -21 -3 -30 -2 -22 3
9 6 -10 15 -53 27 -37 10 -103 35 -147 57 -102 49 -363 142 -471 168 -102 24
-207 58 -186 59 9 1 36 -6 60 -15z m4291 -30 c53 -47 97 -65 188 -75 l75 -8
-75 3 c-89 3 -169 34 -204 78 l-23 30 -1 -54 c-3 -115 -25 -269 -55 -387 -17
-70 -33 -117 -37 -107 -3 10 -22 -41 -44 -121 -40 -144 -59 -194 -51 -133 l5
35 -14 -35 c-23 -56 -18 -29 20 112 45 169 112 376 124 383 4 3 -7 -37 -25
-87 -43 -121 -108 -355 -103 -370 3 -7 24 59 48 146 32 115 46 153 52 140 6
-13 7 -7 3 16 -3 22 -2 30 4 22 17 -28 60 237 63 391 0 31 3 57 6 57 2 0 22
-16 44 -36z m-4905 -20 c-3 -3 -12 -4 -19 -1 -8 3 -5 6 6 6 11 1 17 -2 13 -5z
m5813 -83 c0 -10 -7 -21 -15 -25 -15 -5 -22 24 -8 37 12 13 23 7 23 -12z
m-536 -13 c-26 -6 -25 -7 8 -5 27 2 35 0 28 -7 -13 -13 -211 -15 -254 -3 -54
15 -10 23 121 23 71 -1 114 -4 97 -8z m-4144 -50 c10 -6 7 -7 -10 -2 -14 3
-32 11 -40 16 -10 6 -7 7 10 2 14 -3 32 -11 40 -16z m2507 -24 c-3 -3 -12 -4
-19 -1 -8 3 -5 6 6 6 11 1 17 -2 13 -5z m-220 -66 c-2 -13 -4 -3 -4 22 0 25 2
35 4 23 2 -13 2 -33 0 -45z m466 45 c-7 -2 -21 -2 -30 0 -10 3 -4 5 12 5 17 0
24 -2 18 -5z m-2373 -149 c0 -2 -9 0 -20 6 -11 6 -20 13 -20 16 0 2 9 0 20 -6
11 -6 20 -13 20 -16z m815 -6 c24 -11 35 -38 15 -38 -6 0 -15 -10 -20 -22 -7
-20 -9 -20 -9 -4 -1 10 7 25 17 32 16 11 15 13 -10 23 -16 6 -28 13 -28 16 0
7 6 6 35 -7z m308 -15 c-7 -2 -19 -2 -25 0 -7 3 -2 5 12 5 14 0 19 -2 13 -5z
m-63 -13 c-14 -4 -54 -8 -90 -7 l-65 1 70 6 c103 10 115 10 85 0z m-107 -33
c31 -13 36 -37 8 -37 -10 0 -35 7 -55 15 -32 14 -37 14 -42 1 -3 -9 -4 -179
-1 -378 3 -307 7 -384 26 -498 25 -161 25 -150 6 -150 -18 0 -31 24 -39 70 -3
19 -3 28 0 20 4 -8 13 -30 20 -49 8 -19 16 -32 19 -29 3 2 -5 65 -17 139 -18
114 -21 189 -25 504 -2 231 0 375 6 385 9 12 14 12 46 -3 20 -9 43 -17 53 -17
9 1 -5 12 -33 26 -48 23 -29 24 28 1z m-2677 -92 c70 -21 277 -55 332 -55 26
0 52 -4 58 -8 11 -7 -156 -9 -221 -2 l-30 2 30 9 c24 7 21 7 -17 4 -26 -3 -62
-2 -80 2 -33 7 -33 7 -8 15 18 6 14 6 -15 3 -30 -3 -36 -2 -25 6 12 9 10 10
-8 6 -13 -3 -21 -3 -17 1 4 4 -13 12 -37 18 -24 7 -36 12 -27 13 8 1 38 -6 65
-14z m4945 -186 c-22 -74 -58 -192 -80 -264 -23 -71 -41 -143 -41 -160 0 -16
-7 -52 -15 -79 -20 -66 -19 -69 13 -62 26 5 26 5 4 -6 -38 -19 -47 1 -28 65 9
30 16 68 16 84 0 16 18 87 41 158 70 225 119 393 120 412 1 15 2 15 6 2 2 -9
-14 -77 -36 -150z m-4593 104 c-16 -2 -40 -2 -55 0 -16 2 -3 4 27 4 30 0 43
-2 28 -4z m4515 -233 c3 -11 1 -18 -4 -14 -5 3 -9 12 -9 20 0 20 7 17 13 -6z
m-8 -40 c3 -5 1 -10 -4 -10 -6 0 -11 5 -11 10 0 6 2 10 4 10 3 0 8 -4 11 -10z
m-3405 -80 c22 -7 21 -8 -12 -9 -21 -1 -38 4 -38 9 0 11 14 11 50 0z m67 -6
c-3 -3 -12 -4 -19 -1 -8 3 -5 6 6 6 11 1 17 -2 13 -5z m6409 -282 c74 -10 133
-32 156 -60 20 -23 64 -130 72 -172 3 -19 -4 -6 -17 30 -52 144 -89 177 -212
191 -41 4 -79 10 -84 13 -5 3 -81 2 -169 -3 -138 -8 -166 -13 -208 -34 -27
-13 -76 -28 -109 -32 -80 -10 -244 -64 -358 -119 -156 -75 -250 -137 -422
-275 -44 -36 -106 -81 -137 -102 -31 -20 -55 -39 -51 -42 3 -3 16 1 29 10 13
8 24 14 24 12 0 -2 -29 -35 -64 -72 -118 -124 -241 -329 -284 -467 -22 -71
-25 -99 -22 -170 2 -41 4 -36 21 45 42 204 125 363 284 545 201 229 419 378
710 485 55 20 134 49 175 65 169 63 440 114 592 111 142 -4 197 -18 225 -59
22 -33 66 -152 59 -160 -3 -2 -12 21 -21 50 -26 83 -63 130 -112 144 -73 21
-246 19 -378 -5 -150 -27 -295 -63 -366 -91 -30 -12 -92 -35 -139 -52 -112
-39 -325 -146 -410 -206 -245 -170 -491 -461 -566 -668 -31 -84 -56 -212 -49
-245 8 -37 -12 -47 -25 -13 -30 78 3 242 80 393 38 76 129 210 191 282 44 51
51 69 27 69 -5 0 -6 -4 -3 -10 3 -5 1 -10 -4 -10 -23 0 -9 27 22 42 30 15 108
71 257 188 127 99 262 180 400 239 90 38 251 88 310 96 30 4 80 18 110 32 83
39 276 49 466 25z m-5356 -68 c0 -35 -19 -45 -28 -13 -3 11 -2 11 7 -1 8 -12
11 -8 11 18 0 17 2 32 5 32 3 0 5 -16 5 -36z m705 8 c-3 -3 -11 0 -18 7 -9 10
-8 11 6 5 10 -3 15 -9 12 -12z m-686 -175 c6 -6 11 -19 11 -30 0 -13 -6 -18
-22 -15 -16 2 -27 15 -38 43 l-15 40 -29 -26 c-42 -40 -100 -46 -145 -16 -20
14 -51 28 -69 32 -17 3 -34 10 -37 15 -3 4 5 6 17 3 22 -4 22 -4 -2 12 -18 12
-19 14 -5 9 11 -3 31 -9 45 -12 l25 -6 -25 -8 c-22 -7 -21 -7 7 -5 18 2 30 0
28 -3 -5 -8 24 -34 48 -43 29 -11 73 3 107 34 39 36 46 36 53 2 7 -32 32 -71
41 -62 3 3 0 19 -8 35 -8 16 -17 47 -20 69 -5 38 -5 37 8 -9 8 -27 19 -53 25
-59z m91 38 c0 -9 -9 -15 -22 -14 -21 1 -21 2 -3 7 l20 5 -20 8 c-19 7 -19 8
3 8 13 1 22 -5 22 -14z m-283 -31 c-3 -3 -12 -4 -19 -1 -8 3 -5 6 6 6 11 1 17
-2 13 -5z m4806 -48 c37 -37 -24 -124 -109 -155 -61 -23 -96 -26 -125 -11 -28
15 -24 35 17 80 73 80 180 123 217 86z m941 -83 c-7 -75 -33 -145 -67 -182
-12 -13 -51 -43 -88 -67 -81 -54 -242 -200 -332 -302 -86 -98 -205 -265 -291
-409 -52 -86 -71 -110 -83 -106 -13 5 -15 2 -10 -11 4 -9 3 -15 -2 -12 -12 8
-83 -132 -120 -237 -49 -141 -81 -186 -171 -241 -91 -56 -225 -215 -302 -356
-16 -30 -49 -89 -74 -130 -25 -41 -43 -83 -40 -93 2 -9 1 -15 -4 -12 -4 3 -24
-27 -44 -65 -35 -65 -54 -92 -39 -53 4 11 3 14 -5 9 -16 -10 -15 -7 9 43 11
24 18 45 16 48 -10 9 -69 -116 -118 -246 -58 -156 -72 -185 -109 -228 -31 -35
-229 -423 -265 -519 -27 -72 -65 -148 -70 -142 -13 13 281 621 324 671 40 47
65 97 117 237 50 135 78 195 102 223 21 23 32 21 32 -5 0 -14 18 12 47 67 25
50 61 112 80 139 18 26 33 54 33 61 0 8 27 55 61 105 70 105 198 239 250 263
36 17 91 76 122 132 9 17 33 75 53 130 47 130 104 237 124 232 10 -2 28 22 53
68 50 91 162 258 244 362 76 99 261 283 344 344 33 24 79 58 102 74 46 34 93
97 101 135 3 14 8 51 11 83 4 31 8 57 11 57 3 0 2 -30 -2 -67z m-3274 -62 c0
-9 -8 -28 -91 -215 -24 -55 -90 -174 -147 -265 -57 -91 -112 -182 -122 -201
-25 -50 -54 -73 -79 -65 -28 9 -28 55 1 109 32 59 159 255 210 323 23 32 50
72 58 88 37 72 146 234 158 235 6 0 12 -4 12 -9z m260 -42 c0 8 3 11 6 8 22
-22 -372 -658 -417 -672 -83 -27 -27 101 145 335 218 295 251 337 258 327 5
-9 8 -8 8 2z m-484 -41 c-6 -35 -43 -109 -185 -378 -129 -243 -167 -296 -201
-275 -17 11 -11 40 20 96 16 30 49 90 72 133 24 43 48 86 53 95 6 9 29 50 53
92 23 42 49 82 57 89 8 7 15 16 15 21 0 5 21 42 48 82 64 97 80 108 68 45z
m730 -27 c-4 -5 -2 -11 4 -13 17 -6 -262 -396 -351 -490 -53 -57 -89 -71 -89
-36 0 15 34 64 93 134 100 120 239 290 300 367 34 41 59 64 43 38z m-996 -94
c-25 -88 -48 -142 -130 -310 -66 -137 -96 -177 -120 -162 -23 14 -5 63 95 261
58 115 105 212 105 216 0 4 10 23 21 43 16 27 24 33 34 25 11 -9 10 -23 -5
-73z m-1940 -14 c-1 -75 -94 -261 -222 -443 -45 -63 -110 -161 -145 -217 -63
-101 -96 -130 -115 -102 -15 23 0 100 33 167 17 34 63 106 103 160 91 122 292
424 301 452 3 11 15 20 26 20 15 0 19 -7 19 -37z m-495 -3 c18 -29 -60 -169
-243 -440 -164 -243 -186 -265 -226 -224 -23 23 -20 52 15 119 49 95 279 406
376 508 44 46 66 57 78 37z m199 -32 c-5 -7 -26 -36 -49 -65 -60 -78 -95 -127
-172 -248 -38 -60 -104 -162 -146 -226 -72 -107 -90 -149 -68 -149 25 0 169
216 343 514 77 131 118 193 118 179 0 -9 -124 -223 -175 -303 -12 -19 -62 -98
-110 -175 -49 -77 -104 -159 -122 -182 -60 -75 -100 -44 -50 40 93 159 357
549 405 600 27 29 38 35 26 15z m-714 -108 c-10 -52 -18 -86 -19 -74 -2 35 27
180 34 172 1 -2 -6 -46 -15 -98z m1100 9 c0 -6 -8 -23 -19 -37 -10 -15 -61
-110 -113 -212 -103 -199 -188 -351 -188 -335 0 6 19 44 41 85 22 41 84 156
136 255 52 99 104 195 115 213 11 17 15 32 10 32 -8 0 -47 -70 -185 -330 -22
-41 -59 -110 -83 -152 -24 -43 -45 -88 -45 -100 -2 -22 -2 -22 -6 -1 -4 22 21
78 87 193 20 36 65 119 100 185 85 161 119 215 136 215 8 0 14 -5 14 -11z
m-1123 -181 c-3 -7 -5 -2 -5 12 0 14 2 19 5 13 2 -7 2 -19 0 -25z m-10 -55
c-3 -10 -5 -4 -5 12 0 17 2 24 5 18 2 -7 2 -21 0 -30z m-10 -60 c-3 -10 -5 -4
-5 12 0 17 2 24 5 18 2 -7 2 -21 0 -30z m4662 -140 c0 -10 -3 -13 -5 -7 -3 6
-24 -8 -48 -30 -24 -23 -57 -51 -72 -64 -96 -76 -123 -101 -116 -105 4 -2 2
-3 -4 -1 -6 1 -25 -6 -43 -17 -56 -34 -33 -11 59 57 50 37 90 71 90 76 0 5 10
12 23 17 12 5 38 27 57 49 38 43 60 53 59 25z m-1624 -262 c-19 -8 -18 -9 5
-13 25 -4 -97 -28 -240 -48 -115 -15 -458 -38 -840 -55 -404 -18 -535 -27
-842 -60 -229 -25 -353 -31 -361 -17 -3 4 36 7 86 6 l92 -1 -85 7 -85 6 65 2
c36 1 124 9 195 17 455 54 496 57 1040 85 415 21 710 43 865 64 116 16 131 17
105 7z m-3102 -56 c5 -29 4 -36 -4 -25 -8 11 -9 4 -7 -27 2 -23 0 -39 -3 -37
-4 2 -10 -29 -14 -69 -4 -39 -11 -81 -16 -92 -7 -16 -8 -14 -5 10 3 17 13 87
22 158 9 70 18 126 19 125 1 -2 5 -21 8 -43z m4427 42 c0 -2 -12 -14 -27 -28
l-28 -24 24 28 c23 25 31 32 31 24z m-1355 -97 l-40 -7 40 -3 40 -2 -50 -8
c-206 -34 -736 -62 -1065 -58 l-235 3 300 5 300 5 -295 6 c-289 6 -287 6 110
5 223 -1 356 1 295 4 l-110 5 152 7 c83 4 189 6 235 4 60 -3 68 -2 28 3 l-55
6 84 7 c46 4 115 6 155 4 39 -2 51 -1 26 2 l-45 6 50 6 c28 4 66 7 85 7 l35 0
-40 -7z m764 -126 c2 -2 -9 -4 -26 -4 -17 0 -75 -9 -128 -20 -353 -73 -747
-293 -976 -545 -215 -237 -300 -455 -286 -733 7 -137 30 -230 87 -343 40 -81
45 -105 10 -46 -23 37 -27 25 -5 -17 12 -22 12 -26 1 -17 -20 17 -61 114 -91
216 -48 162 -45 381 7 545 112 351 456 678 909 865 83 34 276 95 297 94 10 -1
7 -4 -8 -9 l-25 -8 25 0 c14 0 39 4 55 8 l30 8 -30 2 -30 2 30 8 c27 7 144 2
154 -6z m705 -219 c5 -22 17 -64 27 -93 21 -58 12 -99 -18 -88 -8 3 -19 6 -24
6 -16 0 -59 107 -59 146 0 49 16 76 43 72 17 -2 24 -13 31 -43z m196 -351 c41
-38 50 -53 50 -81 0 -69 -79 -66 -127 6 -22 32 -31 99 -16 114 16 17 48 3 93
-39z m237 -255 c60 -23 103 -105 71 -137 -24 -24 -60 -13 -104 32 -48 48 -61
100 -26 109 28 8 30 7 59 -4z m236 -66 c-34 -63 -63 -103 -63 -88 0 3 8 18 19
33 10 15 30 48 45 75 15 26 29 47 31 47 3 0 -12 -30 -32 -67z m-57 -108 c9 -8
-2 -35 -46 -114 -32 -58 -65 -106 -73 -107 -13 -2 -12 7 7 50 13 28 31 75 40
103 9 28 24 57 32 64 8 7 12 20 9 33 -6 21 -6 21 6 1 7 -11 18 -24 25 -30z
m-197 -336 c-12 -17 -35 -54 -50 -83 -30 -54 -40 -57 -13 -3 21 41 73 117 80
117 3 0 -5 -14 -17 -31z m-306 -471 c-80 -223 -303 -538 -480 -676 -44 -34
-66 -29 -39 10 9 12 16 18 16 12 0 -5 -5 -15 -12 -22 -7 -7 -8 -12 -2 -12 16
0 171 156 237 239 32 41 82 108 109 149 50 74 158 273 158 291 0 12 29 81 35
81 2 0 -7 -33 -22 -72z m-53 -188 c-6 -11 -13 -20 -16 -20 -2 0 0 9 6 20 6 11
13 20 16 20 2 0 0 -9 -6 -20z m-4526 -275 l17 -30 -20 24 c-12 13 -21 28 -21
34 0 12 0 11 24 -28z m14 10 c-3 -3 -9 2 -12 12 -6 14 -5 15 5 6 7 -7 10 -15
7 -18z m190 -259 c37 -52 43 -70 8 -29 -23 28 -50 73 -43 73 2 0 18 -20 35
-44z m-42 -84 c-5 -5 -26 59 -25 77 0 9 7 -4 14 -29 8 -24 13 -46 11 -48z m94
39 c0 -9 -7 -3 -15 13 -19 36 -19 47 0 22 8 -11 15 -27 15 -35z m3640 -85 c0
-2 -17 -16 -37 -31 l-38 -26 35 30 c34 31 40 35 40 27z m-80 -59 c0 -2 -12
-14 -27 -28 l-28 -24 24 28 c23 25 31 32 31 24z m-2983 -157 c7 -24 11 -46 8
-48 -2 -2 -8 11 -14 29 -6 23 -10 27 -11 14 l-1 -20 -9 20 c-13 30 -12 57 2
53 7 -3 18 -24 25 -48z"/>
<path d="M6142 6074 c29 -26 61 -56 70 -68 22 -26 23 -10 3 39 -9 20 -13 46
-10 58 5 17 4 19 -4 7 -7 -10 -11 -11 -11 -2 0 8 -17 12 -50 12 l-51 0 53 -46z"/>
<path d="M7339 5754 c-30 -32 -99 -67 -162 -83 -103 -25 -200 -40 -230 -36
l-32 5 27 -11 c21 -8 51 -6 135 11 172 34 246 65 281 118 19 30 11 28 -19 -4z"/>
<path d="M7115 5715 c-16 -8 -68 -24 -114 -36 -46 -13 -79 -25 -73 -27 6 -2
49 8 95 22 93 28 160 55 137 55 -8 0 -28 -7 -45 -14z"/>
<path d="M10023 6145 c0 -27 2 -38 4 -22 2 15 2 37 0 50 -2 12 -4 0 -4 -28z"/>
<path d="M8972 5530 c0 -14 2 -19 5 -12 2 6 2 18 0 25 -3 6 -5 1 -5 -13z"/>
<path d="M9290 5890 c45 -9 167 -13 159 -6 -2 2 -49 6 -104 9 -67 3 -85 2 -55
-3z"/>
<path d="M4083 5453 c9 -2 23 -2 30 0 6 3 -1 5 -18 5 -16 0 -22 -2 -12 -5z"/>
<path d="M4198 5433 c12 -2 30 -2 40 0 9 3 -1 5 -23 4 -22 0 -30 -2 -17 -4z"/>
<path d="M10071 3424 c0 -11 3 -14 6 -6 3 7 2 16 -1 19 -3 4 -6 -2 -5 -13z"/>
<path d="M11072 4470 c-55 -28 -122 -88 -122 -109 0 -21 32 -33 71 -28 70 9
131 47 156 96 39 77 -2 92 -105 41z m108 3 c0 -54 -103 -133 -172 -133 -60 0
-43 45 37 100 70 47 135 63 135 33z"/>
<path d="M11100 4459 c-43 -19 -120 -84 -120 -101 0 -14 54 -8 95 11 43 19 95
73 95 97 0 19 -16 17 -70 -7z"/>
<path d="M10480 2186 c-15 -39 -12 -46 6 -13 9 16 13 31 10 34 -3 3 -10 -6
-16 -21z"/>
<path d="M8811 4298 c-59 -101 -146 -237 -227 -355 -157 -228 -196 -308 -163
-328 15 -10 46 21 81 84 17 31 69 116 116 190 76 121 128 221 206 395 14 32
25 61 22 63 -2 2 -18 -20 -35 -49z"/>
<path d="M9089 4278 c-7 -12 -45 -67 -86 -120 -99 -130 -127 -170 -233 -327
-85 -126 -102 -162 -81 -175 10 -6 61 31 61 44 0 5 57 94 126 197 119 176 241
389 230 400 -2 3 -10 -6 -17 -19z"/>
<path d="M8565 4194 c-77 -121 -173 -284 -229 -388 -24 -44 -53 -98 -66 -119
-12 -20 -20 -44 -16 -52 14 -38 50 11 167 229 133 246 212 403 208 414 -2 6
-31 -31 -64 -84z"/>
<path d="M9307 4165 c-26 -36 -77 -101 -112 -143 -208 -249 -255 -308 -255
-320 0 -22 33 3 88 65 58 68 332 442 332 455 0 15 -6 9 -53 -57z"/>
<path d="M8241 3964 c-66 -135 -121 -252 -121 -261 0 -8 7 -13 17 -11 40 8
270 518 234 518 -5 0 -63 -111 -130 -246z"/>
<path d="M6395 4140 c-9 -27 -212 -334 -289 -435 -111 -146 -176 -285 -152
-324 14 -21 38 5 106 113 39 61 111 170 161 241 101 147 151 239 117 219 -7
-4 -8 -3 -4 5 4 6 11 9 16 6 13 -8 62 102 68 153 5 44 -11 59 -23 22z"/>
<path d="M5867 4082 c-63 -65 -116 -134 -239 -302 -164 -226 -192 -286 -145
-314 16 -9 24 -5 51 27 43 48 235 333 316 466 94 157 102 213 17 123z"/>
<path d="M8271 3279 c-133 -17 -449 -40 -826 -59 -445 -23 -604 -34 -795 -56
-269 -31 -344 -42 -310 -43 19 0 91 6 160 14 213 25 470 44 835 60 550 24 860
50 1030 85 l40 8 -35 0 c-19 0 -64 -4 -99 -9z"/>
<path d="M8173 3163 c15 -2 39 -2 55 0 15 2 2 4 -28 4 -30 0 -43 -2 -27 -4z"/>
<path d="M7923 3143 c20 -2 54 -2 75 0 20 2 3 4 -38 4 -41 0 -58 -2 -37 -4z"/>
<path d="M9033 3063 c9 -2 23 -2 30 0 6 3 -1 5 -18 5 -16 0 -22 -2 -12 -5z"/>
<path d="M8765 2996 c-287 -102 -528 -249 -715 -436 -153 -152 -249 -303 -303
-475 -47 -148 -48 -375 -4 -525 29 -96 56 -164 63 -158 2 3 -7 31 -20 64 -51
126 -60 179 -60 349 0 131 4 174 21 235 58 209 218 438 421 601 180 145 428
281 640 350 64 21 108 38 97 38 -11 0 -74 -19 -140 -43z"/>
<path d="M9802 2868 c-30 -30 10 -175 52 -191 30 -12 37 17 17 79 -11 32 -23
72 -28 88 -9 33 -23 42 -41 24z"/>
<path d="M9967 2523 c-17 -17 -5 -70 23 -105 35 -42 64 -55 85 -38 27 22 16
54 -33 103 -46 46 -62 54 -75 40z"/>
<path d="M10233 2233 c-22 -8 -14 -41 18 -78 39 -44 64 -58 89 -50 28 9 25 41
-6 79 -39 47 -71 62 -101 49z"/>
<path d="M10431 2047 c-11 -14 -81 -183 -80 -195 0 -4 21 34 46 83 25 50 52
98 61 108 13 15 13 17 0 17 -9 0 -21 -6 -27 -13z"/>
<path d="M6191 224 c0 -11 3 -14 6 -6 3 7 2 16 -1 19 -3 4 -6 -2 -5 -13z"/>
<path d="M9861 7118 c27 -120 105 -545 123 -673 9 -60 20 -130 24 -155 l8 -45
7 40 c4 22 3 55 -2 73 -5 17 -7 32 -3 32 4 0 19 -60 33 -132 24 -117 26 -145
19 -233 -9 -111 -22 -201 -50 -350 -10 -56 -26 -160 -34 -232 -33 -282 -79
-531 -145 -792 -35 -135 -37 -155 -25 -179 16 -33 0 -191 -40 -392 -43 -218
-46 -242 -61 -415 -11 -136 -21 -194 -49 -290 -19 -66 -40 -133 -47 -150 -7
-16 -11 -34 -10 -38 1 -5 -3 -6 -8 -3 -14 9 -47 -38 -70 -99 -51 -136 -43
-364 18 -515 l10 -25 0 28 c1 15 -8 69 -20 120 -28 125 -23 313 10 400 13 32
30 61 39 64 10 4 31 18 47 33 23 20 31 35 33 70 2 27 11 53 22 65 24 26 45
126 64 304 8 77 20 149 25 159 15 28 48 364 61 621 9 163 17 244 31 295 52
187 91 352 138 576 67 318 88 446 103 607 15 163 7 226 -61 503 -27 113 -66
284 -86 380 -56 273 -96 430 -110 430 -10 0 -8 -20 6 -82z m-84 -3255 c-3 -10
-5 -2 -5 17 0 19 2 27 5 18 2 -10 2 -26 0 -35z m-10 -55 c-3 -8 -6 -5 -6 6 -1
11 2 17 5 13 3 -3 4 -12 1 -19z"/>
<path d="M5310 6860 c-20 -6 -21 -8 -5 -8 11 0 34 4 50 8 27 7 27 8 5 8 -14 0
-36 -4 -50 -8z"/>
<path d="M5123 6724 c-15 -53 -8 -206 10 -244 12 -25 16 -28 12 -10 -26 118
-28 142 -16 206 12 68 8 99 -6 48z"/>
<path d="M5140 6685 c-14 -76 -8 -143 21 -222 28 -73 35 -62 8 13 -18 51 -20
73 -14 167 3 59 4 107 2 107 -3 0 -10 -29 -17 -65z"/>
<path d="M7470 6475 c-30 -7 -68 -14 -84 -14 -16 -1 -26 -4 -23 -7 7 -8 149
13 181 26 20 9 20 9 1 8 -11 0 -45 -6 -75 -13z"/>
<path d="M8601 6375 c0 -5 6 -32 13 -60 8 -27 14 -41 14 -30 0 21 -25 107 -27
90z"/>
<path d="M3840 5935 c-135 -29 -157 -40 -182 -88 -44 -87 -16 -177 92 -297
104 -115 212 -169 384 -190 103 -13 251 -4 271 16 7 8 19 14 26 14 7 0 10 3 6
6 -3 3 -38 0 -79 -6 -189 -31 -441 48 -574 179 -53 51 -104 153 -104 205 0 35
42 46 195 53 72 3 143 12 159 18 25 11 14 12 -70 8 -108 -4 -229 -20 -256 -34
-10 -6 -19 -5 -23 1 -4 6 -11 8 -17 4 -5 -3 -3 7 6 23 14 28 20 30 88 37 40 3
127 16 192 28 l119 22 -49 13 c-61 16 -58 16 -184 -12z m155 5 c25 -11 -1 -11
-35 0 -20 6 -21 8 -5 8 11 0 29 -3 40 -8z m-45 -10 c20 -6 21 -8 5 -8 -11 0
-29 3 -40 8 -25 11 1 11 35 0z m-41 -16 c10 -9 -35 -3 -49 6 -11 8 -7 9 15 4
17 -4 32 -8 34 -10z m-73 -12 c-10 -2 -22 0 -28 6 -6 6 0 7 19 4 21 -5 23 -7
9 -10z m-173 -107 c4 -8 2 -17 -3 -20 -6 -4 -10 3 -10 14 0 25 6 27 13 6z m23
-123 c3 -14 9 -20 16 -16 7 4 8 3 4 -4 -4 -7 -2 -12 4 -12 6 0 9 -4 5 -9 -3
-6 2 -14 11 -19 9 -5 12 -12 7 -15 -15 -9 -63 74 -62 108 1 19 3 23 6 10 2
-11 6 -30 9 -43z m298 -244 c50 -22 80 -36 66 -32 -14 3 -35 7 -47 8 -11 0
-19 4 -17 7 6 11 -27 20 -50 14 -14 -4 -17 -3 -8 3 9 6 -2 15 -35 31 -27 12
-59 31 -73 42 -16 13 -7 11 24 -7 27 -15 90 -45 140 -66z"/>
<path d="M4710 5480 c-8 -5 -10 -10 -5 -10 6 0 17 5 25 10 8 5 11 10 5 10 -5
0 -17 -5 -25 -10z"/>
<path d="M5736 5168 c-22 -11 -93 -31 -158 -45 -65 -15 -116 -28 -114 -31 3
-2 39 3 80 13 80 17 138 13 101 -8 -11 -6 -37 -16 -60 -23 -24 -8 -32 -13 -19
-13 30 -1 174 73 204 104 28 29 20 30 -34 3z m-62 -47 c4 -5 -3 -7 -14 -4 -23
6 -26 13 -6 13 8 0 17 -4 20 -9z"/>
<path d="M5242 5035 c0 -5 6 -26 13 -45 7 -19 14 -28 14 -20 0 8 -6 29 -14 45
-7 17 -13 26 -13 20z"/>
<path d="M8640 4779 c-19 -6 -71 -20 -114 -31 -78 -21 -79 -21 -52 -35 29 -15
47 -11 184 39 79 29 66 50 -18 27z m-65 -39 c3 -6 -1 -7 -9 -4 -18 7 -21 14
-7 14 6 0 13 -4 16 -10z m-35 -10 c8 -5 11 -10 5 -10 -5 0 -17 5 -25 10 -8 5
-10 10 -5 10 6 0 17 -5 25 -10z m-30 -10 c8 -5 11 -10 5 -10 -5 0 -17 5 -25
10 -8 5 -10 10 -5 10 6 0 17 -5 25 -10z"/>
<path d="M7325 4766 l-30 -13 26 -13 c22 -10 32 -9 65 9 21 12 29 19 17 16
-12 -3 -24 -1 -28 5 -8 13 -13 12 -50 -4z m37 -19 c-16 -7 -26 -7 -34 1 -8 8
-5 9 12 5 16 -4 21 -3 16 5 -5 8 -1 10 10 5 16 -6 15 -8 -4 -16z"/>
<path d="M8592 4688 c-29 -12 -51 -23 -49 -25 3 -2 33 7 68 21 35 14 57 25 49
25 -8 0 -39 -10 -68 -21z"/>
<path d="M7130 4660 c-47 -15 -78 -28 -70 -28 8 0 53 12 100 28 47 15 78 28
70 28 -8 0 -53 -13 -100 -28z"/>
<path d="M5452 4260 c0 -14 2 -19 5 -12 2 6 2 18 0 25 -3 6 -5 1 -5 -13z"/>
<path d="M9919 1043 c-23 -32 -64 -83 -89 -113 -26 -30 -61 -76 -79 -102 -42
-62 -95 -125 -194 -225 -84 -87 -92 -104 -23 -51 82 64 132 111 204 191 91
102 242 321 242 352 0 17 -23 -2 -61 -52z m-48 -107 c-52 -76 -116 -156 -193
-237 -56 -59 -38 -33 43 61 35 41 93 114 127 163 35 48 65 87 68 87 3 0 -18
-33 -45 -74z"/>
</g>
</svg>
