<?xml version="1.0" standalone="no"?>
<!DOCTYPE svg PUBLIC "-//W3C//DTD SVG 20010904//EN"
 "http://www.w3.org/TR/2001/REC-SVG-20010904/DTD/svg10.dtd">
<svg version="1.0" xmlns="http://www.w3.org/2000/svg"
 width="1280.000000pt" height="720.000000pt" viewBox="0 0 1280.000000 720.000000"
 preserveAspectRatio="xMidYMid meet">
<metadata>
Created by potrace 1.16, written by Peter Selinger 2001-2019
</metadata>
<g transform="translate(0.000000,720.000000) scale(0.100000,-0.100000)"
fill="#000000" stroke="none">
<path d="M0 3600 l0 -3600 2770 0 2770 0 0 20 c0 12 -7 53 -14 93 -8 40 -27
166 -41 282 -35 292 -39 310 -68 352 -14 21 -33 58 -43 83 -9 25 -21 50 -26
56 -15 21 -78 213 -138 424 -30 106 -58 234 -82 370 -18 101 -18 602 0 725 18
128 33 206 43 233 5 13 21 106 34 205 14 100 28 196 31 212 3 17 14 84 24 150
22 141 84 507 105 615 8 41 16 91 19 110 3 19 16 88 30 154 16 81 21 128 16
148 -8 27 0 72 20 109 5 9 5 20 1 25 -4 5 -17 36 -30 69 -13 33 -29 74 -36 90
-7 17 -32 91 -55 165 -23 74 -61 183 -83 242 l-42 108 -40 0 c-51 0 -161 24
-239 50 -168 58 -288 140 -351 240 l-26 42 -52 -9 c-91 -14 -384 -8 -462 10
-93 22 -179 52 -221 77 -42 26 -95 100 -119 165 -10 28 -24 59 -32 70 -15 23
-18 85 -3 85 6 0 13 -8 16 -17 15 -51 83 -181 109 -211 84 -98 248 -141 551
-145 127 -2 155 1 170 14 26 22 160 89 179 89 26 0 16 -24 -21 -48 -24 -16
-44 -21 -62 -18 -15 3 -34 1 -42 -5 -12 -9 -11 -10 8 -6 13 3 20 1 16 -5 -3
-5 -16 -7 -28 -4 -13 3 -33 -2 -47 -12 -20 -14 -46 -17 -172 -15 -288 4 -471
48 -554 135 -29 30 -105 177 -116 223 -3 13 -5 10 -6 -11 0 -16 3 -34 8 -40 5
-5 19 -34 32 -64 38 -93 90 -154 161 -189 123 -60 209 -75 428 -73 224 2 280
4 280 14 0 4 -10 9 -22 11 -21 4 -20 4 2 4 14 -1 35 5 48 11 12 7 22 8 22 3 0
-5 -9 -13 -20 -16 -11 -3 -20 -10 -20 -15 0 -14 110 -122 157 -153 89 -61 333
-140 486 -159 73 -9 98 -8 154 6 36 9 68 14 71 11 3 -3 -3 -5 -13 -5 -10 0
-16 -3 -12 -6 3 -3 21 -3 39 1 27 6 29 9 14 14 -13 5 4 14 60 30 44 12 105 36
138 52 32 17 63 28 70 25 6 -2 3 -5 -6 -5 -9 -1 -20 -6 -24 -12 -4 -8 0 -9 15
-4 38 12 22 -4 -28 -26 -31 -15 -47 -28 -46 -38 1 -9 0 -10 -2 -3 -3 9 -14 12
-31 8 -20 -5 -23 -4 -12 4 13 9 13 10 0 9 -8 0 -24 -4 -35 -9 l-20 -9 20 -1
c11 -1 -11 -12 -50 -25 -38 -13 -60 -24 -47 -24 12 -1 47 8 78 18 61 22 101
18 68 -6 -10 -7 -25 -13 -33 -13 -10 1 -7 6 9 15 31 17 24 19 -19 4 -23 -8
-29 -14 -20 -19 27 -17 -77 -34 -198 -32 -68 1 -123 -1 -123 -3 0 -2 21 -48
46 -102 25 -54 62 -134 81 -178 19 -44 53 -117 74 -162 21 -46 39 -89 39 -97
0 -8 5 -18 10 -21 6 -4 8 -11 4 -16 -3 -6 -21 25 -39 68 -55 135 -188 424
-192 420 -2 -2 5 -28 16 -58 10 -30 38 -115 62 -188 65 -207 113 -317 136
-313 10 2 14 -1 8 -5 -29 -23 -57 -108 -45 -138 7 -18 3 -59 -16 -147 -13 -68
-27 -139 -30 -158 -3 -19 -11 -69 -19 -110 -21 -108 -83 -474 -105 -615 -10
-66 -21 -133 -24 -150 -3 -16 -18 -115 -32 -219 -14 -104 -29 -196 -34 -205
-9 -18 -23 -94 -42 -226 -18 -122 -18 -624 0 -725 31 -179 54 -274 117 -490
56 -189 125 -363 171 -430 26 -39 40 -113 69 -350 8 -74 25 -197 37 -272 19
-122 24 -138 41 -138 15 0 18 5 13 23 -3 12 -15 92 -27 177 -30 231 -53 381
-64 421 -5 19 -3 26 9 26 9 0 22 -7 30 -16 23 -27 77 -132 74 -143 -2 -5 -16
16 -32 48 -43 90 -84 128 -65 62 5 -18 9 -46 9 -62 0 -16 4 -43 10 -60 5 -17
19 -110 30 -206 12 -96 26 -196 32 -222 l10 -48 325 0 325 0 -21 33 c-11 17
-31 52 -43 77 -13 25 -34 62 -46 83 -13 20 -21 43 -19 50 3 7 6 5 6 -5 1 -9 6
-20 12 -24 8 -4 9 1 4 17 -5 17 1 12 22 -16 34 -47 92 -137 119 -182 l18 -33
3248 0 3248 0 0 3600 0 3600 -1495 0 c-822 0 -1495 -3 -1495 -6 0 -7 117 -356
130 -389 44 -110 127 -425 134 -514 3 -35 11 -91 17 -125 7 -38 9 -106 5 -181
-9 -176 -54 -499 -80 -585 -28 -90 -41 -155 -66 -343 -19 -144 -56 -332 -68
-351 -3 -6 -7 -81 -8 -166 -1 -85 -9 -218 -18 -295 -10 -77 -28 -232 -41 -345
-29 -245 -44 -327 -79 -439 -14 -47 -24 -86 -23 -87 1 -2 54 35 116 82 l114
84 57 118 c60 124 164 303 209 362 14 19 35 53 46 75 23 47 124 165 211 248
59 56 79 67 86 48 2 -6 28 8 58 29 52 36 200 127 300 183 25 14 101 49 170 77
69 28 139 58 155 65 17 7 62 23 100 36 39 12 75 25 80 29 6 4 44 13 85 20 41
6 86 17 99 23 13 7 75 12 145 12 96 0 131 -4 171 -19 78 -30 105 -53 105 -87
0 -36 -22 -38 -44 -3 -28 42 -98 66 -212 72 -80 3 -114 1 -160 -13 -33 -10
-63 -21 -69 -25 -5 -4 -23 -10 -40 -14 -38 -9 -219 -73 -262 -92 -18 -8 -50
-21 -72 -29 -129 -45 -316 -145 -500 -266 -57 -38 -105 -69 -108 -69 -3 0 -27
-17 -54 -37 -26 -21 -60 -46 -74 -56 -32 -23 -148 -178 -214 -286 -28 -47 -58
-92 -66 -101 -8 -9 -15 -20 -15 -24 0 -4 -8 -20 -19 -34 -33 -49 -88 -159
-102 -208 -10 -33 -28 -61 -59 -91 -24 -24 -48 -43 -53 -43 -5 0 -33 -19 -62
-42 -30 -24 -72 -55 -93 -69 -33 -23 -102 -107 -102 -126 0 -3 -17 -33 -37
-66 -20 -33 -42 -85 -50 -116 -21 -92 -26 -283 -10 -401 15 -111 13 -130 -9
-130 -31 0 -47 71 -52 227 -5 160 8 292 33 340 8 16 15 33 15 40 0 6 16 32 35
57 35 47 37 60 3 29 -10 -9 -21 -13 -25 -9 -10 10 15 47 73 108 57 60 61 72
103 283 32 160 36 194 76 545 43 383 53 456 54 423 1 -17 -8 -110 -19 -205
-12 -95 -30 -254 -41 -352 -29 -267 -42 -342 -106 -626 -3 -14 -33 -53 -67
-88 -58 -60 -91 -107 -49 -70 11 10 25 18 31 18 7 0 12 5 12 12 0 6 3 8 6 5 4
-4 -12 -35 -35 -70 -77 -119 -85 -154 -86 -382 0 -171 3 -206 18 -239 28 -63
36 -30 20 84 -17 121 -11 309 12 408 27 115 171 332 221 332 6 0 19 9 29 20
10 11 41 35 69 54 66 44 126 103 126 123 0 24 82 191 132 268 24 39 70 111
102 160 81 128 165 235 211 267 75 53 217 148 221 148 2 0 25 15 51 34 46 32
259 156 269 156 3 0 24 9 47 19 138 62 253 106 482 183 l150 50 105 -5 c121
-6 191 -29 227 -73 22 -28 23 -28 23 -7 0 31 -59 68 -140 89 -69 18 -208 15
-272 -5 -18 -5 -64 -16 -103 -24 -77 -16 -115 -28 -285 -95 -176 -69 -370
-165 -447 -219 -17 -13 -35 -23 -40 -23 -7 -1 -41 -24 -172 -122 -30 -23 -46
-29 -49 -20 -2 8 -18 0 -45 -25 -55 -49 -187 -201 -187 -214 0 -10 -45 -82
-142 -227 -15 -23 -28 -45 -28 -49 0 -3 -10 -22 -22 -42 -13 -20 -46 -84 -73
-143 l-51 -107 -114 -85 c-102 -76 -140 -98 -140 -81 0 10 39 145 44 153 11
18 37 182 61 382 13 113 31 268 41 345 9 77 17 210 19 295 1 85 5 162 8 170
14 32 49 212 67 347 25 183 45 288 66 344 9 24 18 60 21 79 2 19 15 112 28
205 31 219 41 401 26 481 -6 34 -14 90 -17 125 -8 92 -85 386 -129 494 -6 17
-36 102 -65 190 -29 88 -58 175 -64 193 -10 29 -26 44 -26 24 0 -5 42 -136 94
-293 105 -320 126 -404 160 -639 26 -181 24 -266 -9 -500 -9 -63 -23 -158 -30
-210 -46 -325 -106 -628 -170 -860 -17 -62 -20 -144 -5 -135 6 3 10 1 10 -4 0
-6 -7 -11 -15 -11 -20 0 -20 77 0 150 44 158 106 446 132 610 23 149 32 208
68 460 33 233 34 320 9 495 -37 260 -50 309 -176 690 -27 83 -53 159 -58 170
-5 11 -12 35 -15 53 l-7 32 -510 0 -511 0 7 -102 c18 -264 72 -504 155 -693 5
-11 15 -36 22 -55 18 -50 65 -153 104 -232 19 -38 31 -68 26 -68 -13 0 -108
211 -173 384 -67 179 -101 304 -122 446 -10 71 -14 84 -15 49 -3 -148 95 -487
220 -757 16 -34 32 -76 36 -92 3 -17 9 -30 14 -30 5 0 8 -21 7 -47 -1 -48 -1
-48 -5 -8 -8 76 -21 56 -28 -42 -12 -164 -33 -280 -90 -488 -34 -126 -82 -346
-111 -510 -8 -44 -21 -107 -29 -140 -19 -79 -25 -144 -15 -150 11 -7 17 14 31
105 9 64 103 466 129 555 38 129 75 251 96 313 14 40 22 78 18 84 -5 8 -10 5
-16 -8 -6 -14 -7 -12 -3 9 24 120 35 201 35 255 0 53 3 62 18 61 10 0 12 -3 5
-6 -8 -3 -13 -25 -13 -59 0 -30 -7 -95 -16 -145 -12 -74 -13 -93 -3 -100 10
-6 7 -25 -14 -86 -14 -43 -36 -112 -48 -153 -11 -41 -32 -113 -45 -160 -39
-135 -122 -480 -129 -535 -11 -90 -27 -145 -40 -145 -17 0 -24 20 -18 53 6 29
-2 32 -47 16 -23 -8 -22 -8 8 -5 18 1 29 0 25 -4 -16 -14 -291 -65 -300 -57
-2 3 29 10 69 16 91 15 190 39 163 40 -19 1 -101 -12 -155 -24 l-25 -6 25 12
c14 6 52 15 85 20 33 5 80 14 105 20 l46 10 17 67 c9 37 23 103 31 147 34 189
68 344 106 492 71 268 73 282 94 493 l14 145 -38 85 c-156 347 -223 608 -224
880 0 93 -3 133 -7 100 l-6 -55 -1 53 -2 52 -437 -1 c-241 0 -431 -3 -423 -6
17 -6 79 -33 160 -70 30 -14 61 -34 68 -45 8 -10 20 -17 28 -14 8 3 13 1 11
-3 -1 -5 19 -27 45 -50 25 -23 98 -108 161 -189 62 -81 121 -153 130 -161 10
-7 17 -19 17 -26 0 -7 7 -18 15 -25 8 -7 29 -37 46 -66 17 -30 35 -54 41 -54
6 0 5 6 -2 15 -11 13 -10 14 1 10 22 -8 87 -107 103 -156 30 -91 30 -148 0
-235 l-27 -79 12 -190 c6 -104 11 -255 11 -335 0 -198 20 -668 30 -706 l8 -32
-112 -37 c-61 -21 -129 -46 -151 -57 -27 -13 -34 -14 -21 -3 11 8 25 15 30 15
6 0 4 4 -4 10 -11 7 -4 13 32 29 84 36 141 52 172 49 l31 -3 -2 50 c-13 257
-23 558 -23 685 0 85 -5 237 -11 337 -12 188 -9 221 32 322 15 37 0 149 -23
170 -12 12 -16 24 -11 37 6 16 5 17 -9 6 -14 -11 -19 -9 -35 15 -29 42 -37 61
-15 36 11 -12 22 -20 25 -17 3 3 4 -1 4 -8 -1 -7 3 -14 8 -15 16 -3 5 29 -20
58 -13 17 -26 24 -32 18 -5 -5 -34 28 -71 84 -132 196 -297 392 -418 499 -50
44 -263 138 -309 137 -23 0 -17 -3 152 -74 61 -26 126 -59 145 -73 111 -89
280 -293 443 -537 51 -77 102 -149 114 -159 17 -16 21 -31 21 -88 0 -38 -7
-101 -16 -141 -14 -58 -15 -102 -10 -227 3 -85 10 -321 16 -525 8 -329 18
-486 36 -565 3 -16 2 -21 -4 -15 -18 20 -34 235 -43 590 -5 198 -12 430 -15
515 -5 125 -4 169 10 227 9 40 16 101 16 136 0 55 -3 67 -25 87 -14 13 -46 58
-72 99 -60 97 -127 191 -217 305 -39 50 -90 117 -114 148 -48 66 -158 157
-223 185 -24 11 -87 38 -139 59 -52 21 -96 42 -98 46 -2 4 -352 8 -777 8
l-774 0 -12 -54 c-16 -74 -7 -111 63 -245 101 -196 164 -264 319 -341 219
-110 383 -127 829 -87 16 1 26 -4 28 -14 2 -13 -10 -19 -61 -28 -35 -6 -90
-11 -123 -11 -93 0 -94 -7 -24 -86 34 -38 77 -91 96 -119 19 -27 45 -63 59
-80 l25 -30 0 30 c1 29 1 29 15 -9 41 -115 240 -213 480 -235 l100 -10 -105 4
c-58 3 -111 1 -119 -4 -15 -10 -16 -10 104 -31 47 -8 45 -9 -20 -5 -80 5 -76
-1 10 -15 l60 -9 -60 4 c-33 2 -80 11 -105 20 -25 9 -58 14 -75 11 -39 -6 -8
7 55 24 l45 12 -97 28 c-53 15 -124 44 -157 64 -58 35 -121 96 -121 117 0 6
-4 8 -9 4 -12 -7 -51 34 -96 100 -18 28 -61 81 -94 118 -34 37 -61 74 -61 82
0 16 27 21 145 29 91 7 125 14 125 28 0 6 -10 8 -22 4 -48 -14 -269 -26 -398
-22 -170 6 -293 36 -439 108 -154 76 -222 148 -314 333 -82 164 -86 183 -62
295 5 22 3 21 -9 -5 -9 -16 -15 -57 -16 -89 0 -53 7 -74 61 -185 101 -207 177
-287 354 -372 144 -69 252 -96 423 -105 l123 -7 13 -31 c7 -17 37 -58 66 -91
29 -33 63 -76 75 -95 38 -59 106 -130 117 -123 7 4 8 1 3 -6 -10 -17 85 -114
145 -148 63 -37 80 -53 80 -77 0 -16 2 -18 9 -7 7 11 13 12 23 3 8 -6 25 -9
39 -6 19 3 20 3 5 -4 -15 -7 -11 -10 24 -21 24 -7 68 -15 99 -17 54 -4 53 -3
-17 10 -41 8 -77 18 -80 22 -4 4 4 4 18 1 49 -12 167 -26 275 -33 l110 -8 -90
-9 c-136 -14 -362 18 -386 56 -12 18 -17 -9 -23 -143 -4 -74 -14 -186 -22
-248 -9 -73 -14 -207 -14 -381 0 -298 -3 -331 -31 -331 -13 0 -19 7 -19 22 0
21 -2 20 -33 -10 -29 -28 -38 -31 -67 -25 -28 5 -31 8 -15 13 11 4 25 4 31 -1
7 -6 18 -1 30 12 10 12 31 27 45 35 25 12 26 12 21 -12 -6 -30 14 -32 22 -1 3
12 6 144 6 294 0 185 5 309 15 388 9 64 16 181 18 261 l2 146 -35 29 c-19 16
-38 29 -44 29 -28 0 -216 194 -271 280 -13 19 -46 61 -74 93 -28 32 -58 73
-65 91 l-14 33 -118 7 c-183 11 -324 49 -485 132 -102 53 -199 156 -264 282
-21 39 -42 72 -47 72 -5 0 -7 4 -4 9 3 5 -6 34 -20 66 -22 48 -25 67 -22 123
3 37 8 75 13 85 7 16 -144 17 -3084 17 l-3091 0 0 -3600z m6164 3330 c-25 -10
-206 -48 -284 -60 -472 -71 -485 -74 -619 -103 -68 -15 -106 -28 -109 -37 -4
-12 -2 -13 9 -4 8 6 43 17 79 23 36 7 92 19 125 26 33 8 103 19 155 25 52 6
118 15 145 20 28 5 97 16 155 25 112 16 230 39 319 61 30 7 50 9 45 4 -20 -19
-257 -62 -654 -119 -80 -11 -161 -24 -180 -29 -19 -6 -67 -15 -107 -22 -58
-11 -78 -19 -102 -44 -29 -30 -39 -66 -28 -96 3 -8 10 -30 16 -47 15 -48 61
-111 137 -187 52 -52 89 -77 154 -108 47 -22 97 -46 111 -53 24 -13 83 -26
266 -56 99 -17 309 -7 393 19 36 11 101 29 145 40 135 35 189 50 208 57 28 12
20 -20 -10 -41 -25 -16 -138 -50 -338 -100 -32 -9 -63 -18 -67 -20 -5 -3 36
-51 91 -107 55 -56 113 -120 129 -143 42 -57 124 -124 217 -175 l80 -44 120 1
c66 0 147 6 180 13 71 16 187 60 266 101 31 17 63 30 70 30 23 0 -112 -66
-211 -103 -109 -40 -253 -62 -360 -55 -117 9 -294 114 -372 222 -16 23 -74 87
-129 143 -56 57 -99 108 -97 115 3 7 36 20 74 30 259 64 364 98 364 119 0 4
-19 0 -42 -8 -23 -8 -62 -18 -87 -24 -43 -8 -113 -27 -241 -64 -76 -22 -293
-31 -383 -16 -247 41 -242 40 -402 117 -120 57 -283 240 -286 321 0 16 -1 16
-9 -2 -9 -21 -6 37 5 100 5 27 5 28 -7 10 -14 -22 -17 -135 -5 -178 5 -18 4
-26 -2 -23 -14 9 -24 108 -16 157 5 28 18 54 41 77 29 30 46 37 141 58 146 32
193 41 293 54 207 27 587 94 599 106 2 2 11 4 20 3 11 0 10 -3 -5 -9z m-981
-515 c77 -95 138 -143 252 -199 60 -30 128 -59 150 -65 89 -24 293 -51 389
-51 l102 0 117 -122 c65 -68 150 -158 190 -200 42 -44 93 -86 120 -99 l47 -23
1 -115 c1 -64 3 -134 3 -156 1 -22 -4 -103 -10 -180 -23 -252 -36 -506 -29
-551 l6 -44 -46 -20 c-64 -27 -83 -26 -91 8 -4 15 -20 51 -35 80 -16 30 -42
84 -58 120 -16 37 -56 126 -91 197 -140 293 -181 358 -324 504 -115 117 -126
126 -231 177 -112 54 -288 128 -425 179 -41 15 -93 36 -116 46 -127 56 -239
91 -399 123 -101 21 -156 22 -225 8 -30 -7 -127 -26 -215 -42 -88 -17 -225
-51 -305 -75 -80 -25 -151 -45 -158 -45 -19 0 -124 -51 -118 -57 3 -3 31 3 63
12 85 25 145 42 168 48 11 3 65 19 120 35 121 37 194 54 351 83 168 30 196 32
256 19 60 -14 131 -29 168 -36 74 -14 200 -60 410 -148 46 -20 89 -36 95 -36
5 0 21 -6 35 -13 14 -7 48 -21 75 -31 28 -10 77 -31 110 -46 33 -15 92 -42
132 -60 62 -28 88 -49 195 -159 68 -69 134 -142 146 -161 37 -61 171 -330 234
-470 33 -74 64 -140 69 -146 5 -7 20 -40 34 -73 20 -53 22 -63 9 -68 -20 -8
-26 1 -40 55 -16 62 -9 67 9 6 7 -26 19 -50 25 -52 10 -3 -17 78 -40 121 -18
34 -25 1 -15 -66 12 -74 26 -93 75 -100 30 -4 46 1 89 30 53 35 83 38 83 8 0
-10 7 -15 18 -14 9 1 28 -3 42 -8 31 -13 34 -10 21 14 -20 35 -52 178 -62 283
-7 74 -7 166 2 315 6 116 8 269 5 340 -4 72 -4 134 -1 137 4 3 25 -2 48 -13
95 -43 417 -6 572 65 17 8 23 15 15 15 -13 1 -13 2 0 11 8 5 20 10 25 10 6 0
3 -5 -5 -10 -32 -21 13 -10 47 11 19 12 36 19 39 16 8 -8 -132 -73 -206 -96
-164 -50 -445 -66 -502 -29 l-26 17 1 -197 c1 -108 0 -298 -2 -422 -3 -205 -2
-232 18 -305 12 -44 24 -91 27 -105 3 -14 9 -29 15 -34 5 -6 9 -19 9 -29 0
-15 -5 -18 -22 -13 -13 4 -38 9 -55 13 -18 3 -33 12 -33 19 0 25 -18 23 -61
-8 -35 -26 -53 -32 -88 -30 -70 3 -84 18 -97 103 -6 41 -8 79 -3 85 13 16
-198 465 -284 604 -11 19 -75 91 -142 159 -119 123 -121 124 -245 183 -112 54
-181 82 -360 150 -30 12 -73 29 -95 39 -144 63 -273 109 -345 123 -14 3 -47
10 -75 15 -161 35 -160 35 -262 17 -212 -38 -339 -67 -446 -99 -62 -19 -141
-42 -177 -52 -116 -32 -165 -48 -175 -56 -14 -13 -25 -11 -25 5 0 23 75 65
157 86 43 12 128 36 188 55 61 19 182 48 270 65 88 16 185 35 215 42 91 19
144 13 360 -39 58 -13 114 -29 125 -34 50 -22 179 -73 265 -105 52 -20 109
-41 125 -48 17 -7 41 -18 55 -24 14 -5 46 -19 72 -31 26 -12 50 -21 53 -21 3
0 56 -24 118 -54 108 -52 117 -59 233 -177 128 -131 184 -212 269 -394 112
-237 140 -297 185 -390 27 -55 50 -109 52 -120 4 -23 41 -25 85 -3 25 12 28
18 25 57 -4 49 12 330 32 546 6 77 11 158 10 180 0 22 -2 90 -3 152 l-1 112
-46 20 c-29 13 -73 49 -120 98 -41 43 -126 133 -191 201 l-117 122 -97 0 c-92
0 -291 26 -389 52 -25 6 -92 34 -150 61 -79 38 -120 65 -167 110 -64 61 -146
160 -149 181 -1 6 -5 20 -9 31 -3 11 4 2 16 -20 12 -22 40 -62 62 -90z m3444
-260 c0 -8 -4 -15 -9 -15 -4 0 -8 7 -8 15 0 8 4 15 8 15 5 0 9 -7 9 -15z
m-898 -260 c13 5 13 4 4 -6 -10 -10 -21 -10 -53 1 -22 7 -40 17 -40 22 0 4 17
1 37 -7 20 -9 44 -13 52 -10z m124 -22 c-7 -2 -21 -2 -30 0 -10 3 -4 5 12 5
17 0 24 -2 18 -5z m190 0 c-7 -2 -19 -2 -25 0 -7 3 -2 5 12 5 14 0 19 -2 13
-5z m-76 -10 c-20 -2 -52 -2 -70 0 -17 2 0 4 38 4 39 0 53 -2 32 -4z m76 -10
c-7 -2 -19 -2 -25 0 -7 3 -2 5 12 5 14 0 19 -2 13 -5z m-437 -29 c-7 -17 -29
-249 -46 -479 -12 -162 -53 -459 -74 -539 l-13 -50 -72 -24 c-40 -13 -70 -26
-67 -29 3 -3 19 0 37 6 18 6 34 9 37 7 8 -8 -232 -79 -278 -82 -25 -1 -34 -1
-20 2 14 2 54 12 90 21 49 12 60 18 45 24 -20 8 -20 8 -1 8 14 1 17 4 9 12 -7
7 -21 7 -44 1 -19 -6 -26 -11 -17 -11 9 -1 20 -5 23 -11 4 -7 -3 -7 -20 0 -32
12 -48 13 -41 1 3 -4 -6 -6 -21 -3 -18 3 -24 1 -19 -7 4 -6 2 -11 -4 -11 -7 0
-10 5 -8 12 2 6 40 22 84 35 61 17 85 21 103 13 26 -12 65 -4 56 11 -4 5 -13
9 -21 9 -8 0 -12 -4 -9 -10 4 -6 -1 -7 -11 -3 -14 5 -13 8 7 18 32 16 90 29
69 16 -27 -18 14 -24 54 -7 25 10 36 21 36 36 0 12 4 29 10 39 14 27 58 346
70 516 6 83 18 221 26 307 8 87 14 161 13 165 -3 16 1 23 12 23 6 0 8 -7 5
-16z m594 -4 c-13 -9 -13 -10 0 -10 13 0 13 -1 0 -10 -8 -5 -26 -9 -40 -9 -23
1 -23 2 5 9 19 5 2 7 -50 5 l-80 -4 70 10 c39 5 75 11 80 13 20 8 30 6 15 -4z
m-921 -73 c-2 -1 -13 -9 -24 -17 -19 -14 -19 -14 -6 3 7 9 18 17 24 17 6 0 8
-1 6 -3z m-339 -68 c0 -5 -4 -8 -9 -5 -5 4 -12 0 -14 -6 -3 -8 -6 -6 -6 5 -1
9 6 17 14 17 8 0 15 -5 15 -11z m2012 -147 c-7 -5 -10 -17 -7 -28 6 -17 6 -18
-5 -1 -12 19 -6 37 13 37 9 0 8 -3 -1 -8z m-25 -54 c-3 -8 -6 -5 -6 6 -1 11 2
17 5 13 3 -3 4 -12 1 -19z m-1362 -565 c-5 -81 -11 -111 -23 -120 -37 -29 -38
-20 -13 97 6 25 10 64 11 88 0 32 4 42 16 42 14 0 15 -13 9 -107z m-125 -123
c-24 -19 -40 -25 -40 -15 0 5 51 34 60 34 3 0 -6 -8 -20 -19z m4644 -58 c23
-72 29 -118 21 -168 -3 -25 -8 -44 -11 -42 -2 2 -8 36 -14 76 -5 39 -16 88
-24 109 -27 77 -28 79 -12 53 18 -29 35 -85 47 -155 7 -46 8 -44 4 18 -3 45
-13 88 -30 124 -15 34 -19 51 -11 43 8 -6 22 -33 30 -58z m-5511 -85 c9 -6 8
-7 -3 -5 -17 5 -28 39 -28 88 0 26 3 21 9 -20 5 -30 15 -58 22 -63z m1850 45
c-10 -11 -22 -17 -27 -14 -5 3 -1 11 9 19 27 19 38 16 18 -5z m-3004 -125 c0
-9 -2 -8 -6 1 -2 6 -10 9 -15 6 -7 -4 -8 -2 -4 5 9 13 26 5 25 -12z m425 -41
c-3 -7 -24 -17 -47 -20 -108 -17 -153 -37 -220 -97 -65 -59 -66 -60 -86 -147
-11 -48 -27 -130 -36 -182 -8 -52 -20 -117 -25 -145 -5 -27 -16 -90 -25 -140
-8 -49 -28 -162 -44 -250 -16 -88 -38 -225 -50 -305 -35 -243 -49 -340 -67
-465 -9 -66 -29 -177 -45 -246 -54 -243 -62 -615 -20 -879 57 -353 159 -616
322 -831 63 -83 91 -126 114 -176 32 -69 8 -88 -26 -21 -12 23 -40 68 -63 101
-22 33 -53 78 -69 101 l-28 41 31 -35 c38 -43 91 -120 130 -192 16 -29 30 -47
30 -40 0 27 -74 151 -140 232 -36 44 -140 213 -140 228 0 4 -6 18 -13 32 -7
14 -21 48 -31 75 -10 28 -22 59 -27 70 -9 22 -60 209 -78 290 -65 295 -65 712
-1 1008 26 123 36 185 75 457 42 294 59 404 95 610 22 124 47 261 55 305 55
313 80 429 99 458 30 44 108 107 153 122 21 8 29 14 19 15 -25 0 -158 -63
-175 -84 -23 -27 -47 -19 -63 22 -12 30 -12 39 -2 39 7 0 10 -7 6 -15 -3 -9
-1 -13 5 -9 7 5 9 0 6 -12 -7 -28 16 -36 40 -13 43 39 257 116 274 98 4 -3 -4
-6 -17 -6 -13 0 -21 -3 -17 -6 3 -3 25 -3 49 2 39 7 40 8 18 15 -23 7 -23 7 7
8 24 1 31 -3 27 -13z m5260 -12 c29 -28 20 -68 -25 -109 -52 -46 -96 -65 -154
-65 -47 0 -50 3 -46 55 2 23 97 115 119 115 8 0 -4 -14 -27 -31 -24 -17 -40
-33 -38 -36 3 -3 21 7 40 21 51 39 95 52 114 33 23 -22 9 -48 -49 -92 -44 -34
-59 -40 -100 -40 -26 0 -48 -4 -48 -9 0 -5 24 -6 54 -4 127 10 234 166 112
162 -19 -1 -33 3 -30 7 9 15 62 10 78 -7z m972 -104 c-15 -77 -200 -301 -333
-403 -22 -18 -52 -48 -65 -69 -12 -20 -61 -82 -108 -138 -114 -136 -136 -166
-226 -300 -43 -63 -90 -131 -105 -150 -14 -19 -41 -71 -59 -115 -17 -44 -41
-102 -52 -130 -11 -27 -24 -54 -29 -59 -5 -6 -9 -17 -9 -26 0 -42 -194 -191
-245 -189 l-20 1 20 5 c11 3 32 14 47 24 14 11 29 19 33 19 9 0 81 58 116 93
31 31 60 91 121 247 23 58 54 121 69 141 31 39 37 55 17 43 -8 -4 -10 -3 -5 2
5 5 12 9 17 9 5 0 41 47 80 105 84 125 109 157 220 290 47 56 95 116 106 134
12 17 55 60 95 95 94 82 137 128 209 222 70 91 100 139 100 159 -1 8 -7 2 -14
-15 -27 -60 -167 -217 -377 -427 -245 -243 -287 -295 -349 -430 -25 -53 -48
-97 -52 -98 -9 0 -4 25 8 41 6 8 28 50 48 93 56 118 99 170 341 411 241 241
349 362 367 413 16 42 43 44 34 2z m-3276 -141 c0 -22 -64 -164 -85 -189 -7
-8 -16 -26 -20 -40 -4 -14 -15 -36 -25 -50 -10 -14 -21 -36 -25 -50 -4 -14
-11 -27 -15 -30 -13 -9 -70 -107 -70 -120 0 -8 -9 -23 -19 -34 -11 -12 -28
-37 -38 -56 -14 -24 -28 -36 -46 -38 -32 -4 -35 14 -10 61 9 18 17 38 17 45 1
7 6 16 12 20 13 8 57 81 80 132 9 19 27 49 40 66 13 18 35 56 48 85 74 158
156 262 156 198z m330 -11 c0 -18 -49 -104 -73 -128 -13 -14 -33 -39 -43 -56
-11 -17 -31 -46 -46 -65 -15 -19 -49 -65 -77 -104 -142 -200 -200 -265 -234
-265 -17 0 -19 5 -14 36 3 20 21 56 39 80 18 24 78 105 133 180 111 151 183
237 235 280 19 16 38 34 42 40 8 13 38 14 38 2z m-582 -95 c-72 -105 -188
-306 -188 -327 0 -9 -13 -40 -28 -69 -80 -149 -81 -150 -59 -141 8 3 24 24 37
47 13 23 34 57 48 75 13 19 48 82 78 140 30 59 58 114 63 122 42 63 119 224
115 238 -5 15 -4 15 6 -1 9 -14 3 -33 -36 -105 -25 -48 -80 -152 -122 -232
-42 -80 -90 -165 -107 -190 -17 -25 -37 -57 -45 -72 -14 -29 -42 -44 -60 -33
-7 4 -4 18 6 38 9 18 22 41 27 52 6 11 23 44 39 72 15 29 28 61 28 71 0 11 11
36 25 56 14 20 25 39 25 41 0 8 85 152 100 170 10 11 19 25 21 30 10 25 74
113 77 105 2 -5 -21 -44 -50 -87z m-146 52 c-2 -11 -12 -37 -23 -58 -10 -21
-19 -42 -19 -48 0 -10 -6 -25 -99 -229 -48 -104 -91 -169 -115 -170 -17 0 3
72 48 170 25 54 46 105 46 112 0 7 19 49 42 93 22 44 50 97 60 118 15 29 24
38 41 35 16 -2 21 -9 19 -23z m958 -48 c0 -15 -43 -82 -80 -122 -15 -16 -56
-68 -91 -115 -107 -145 -168 -210 -195 -210 -38 0 -30 32 24 92 27 29 70 80
96 113 84 105 221 254 234 255 6 0 12 -6 12 -13z m-3400 -22 c0 -19 -80 -155
-91 -155 -4 0 -10 -8 -13 -18 -4 -10 -16 -29 -29 -42 -22 -24 -31 -36 -142
-195 -60 -86 -104 -157 -127 -207 -18 -39 -78 -48 -78 -12 0 19 45 108 82 162
16 23 30 51 31 62 1 11 6 20 12 20 6 0 35 35 65 77 64 90 201 265 233 299 25
27 57 32 57 9z m220 -26 c0 -16 -57 -114 -74 -128 -8 -6 -19 -25 -26 -41 -7
-16 -20 -32 -30 -35 -9 -3 -25 -23 -35 -45 -10 -22 -21 -40 -24 -40 -4 0 -22
-26 -40 -57 -19 -32 -37 -60 -41 -63 -4 -3 -22 -27 -41 -55 -19 -27 -46 -66
-61 -86 -15 -19 -34 -51 -43 -70 -22 -51 -60 -93 -78 -86 -25 10 -2 62 74 173
38 54 93 135 123 179 46 69 138 199 163 230 4 6 31 38 58 72 47 59 75 78 75
52z m240 -11 c0 -13 -10 -39 -23 -59 -86 -138 -127 -210 -127 -223 0 -7 -16
-39 -36 -72 -20 -32 -40 -69 -45 -82 -5 -13 -29 -52 -54 -86 -24 -35 -48 -72
-52 -82 -18 -45 -89 -143 -104 -143 -29 -1 -40 57 -15 78 8 7 17 24 21 38 3
14 17 40 30 57 13 17 41 63 62 103 21 39 65 109 99 155 34 46 67 96 75 110 8
15 42 67 77 117 34 50 62 95 62 101 0 5 7 10 15 10 9 0 15 -9 15 -22z m80
-126 c0 -11 -88 -182 -151 -292 -30 -52 -62 -113 -73 -135 -34 -75 -71 -144
-74 -141 -6 6 109 239 164 333 31 53 68 120 81 150 13 29 29 55 34 58 5 4 9
11 9 17 0 21 -30 -15 -49 -58 -11 -24 -55 -105 -98 -181 -44 -76 -87 -158 -97
-183 -10 -25 -25 -56 -33 -70 -9 -13 -20 -38 -24 -55 -5 -22 -7 -24 -8 -9 -1
26 100 243 156 334 22 36 55 94 73 130 49 93 61 110 76 110 8 0 14 -3 14 -8z
m4757 -524 c-1 -12 -9 -29 -17 -38 -17 -18 -170 -363 -170 -384 0 -13 -161
-146 -178 -146 -5 0 -17 -9 -27 -20 -10 -11 -23 -20 -28 -20 -6 0 0 11 13 25
13 14 28 25 32 25 17 0 178 132 178 146 0 7 14 43 30 79 17 36 30 68 30 71 0
13 130 284 136 284 2 0 3 -10 1 -22z m-5557 -77 c0 -11 -5 -23 -11 -27 -8 -4
-9 0 -4 15 3 12 2 21 -4 21 -5 0 -12 -12 -14 -27 -4 -26 -4 -26 -6 5 -1 26 3
32 19 32 13 0 20 -7 20 -19z m4121 -93 c-6 -29 -14 -86 -18 -128 -5 -70 -15
-100 -33 -100 -11 0 -30 50 -31 80 0 35 33 198 38 183 2 -6 -3 -44 -12 -85
-19 -83 -20 -105 -5 -142 14 -38 30 -23 30 27 0 23 5 71 12 107 6 36 12 79 12
97 1 20 5 28 10 23 6 -6 5 -30 -3 -62z m-1476 1 c-90 -13 -98 -19 -20 -14 l70
4 -80 -15 c-385 -67 -732 -99 -1430 -129 -167 -8 -420 -30 -564 -50 -129 -18
-161 -19 -161 -2 0 9 65 20 228 40 225 27 292 32 837 62 411 23 634 42 869 76
116 16 212 32 215 34 2 3 25 4 50 4 46 -1 46 -2 -14 -10z m500 -259 c-14 -6
-15 -9 -5 -10 18 -1 -30 -26 -117 -60 -34 -13 -59 -28 -57 -32 3 -5 10 -6 15
-3 5 4 9 1 9 -4 0 -15 -27 -14 -32 1 -4 12 -29 3 -165 -58 -18 -8 -51 -21 -73
-29 -80 -28 -240 -154 -365 -287 -163 -173 -256 -358 -301 -593 -23 -124 -15
-367 16 -475 34 -122 34 -120 18 -120 -17 0 -51 107 -68 210 -14 94 -12 306 4
394 38 196 86 316 199 490 48 74 227 252 329 329 42 31 81 57 86 57 5 0 15 7
22 15 17 20 99 65 119 64 10 0 7 -4 -8 -10 -46 -18 -223 -143 -305 -214 -143
-126 -244 -249 -319 -390 -33 -61 -77 -179 -77 -203 1 -9 14 17 29 58 58 156
131 274 246 397 132 142 276 253 382 294 52 20 60 26 50 39 -9 12 -9 13 3 3
18 -16 31 -17 28 -1 -3 10 42 31 223 107 19 8 50 20 69 27 40 14 76 17 45 4z
m945 -67 c14 -64 37 -118 53 -121 9 -2 13 -10 10 -22 -3 -10 2 -33 11 -51 21
-41 20 -59 -1 -59 -26 1 -71 66 -89 126 -16 55 -25 172 -12 151 4 -6 7 -28 6
-47 -2 -46 10 -97 33 -140 21 -40 58 -85 64 -79 5 6 -27 102 -37 109 -11 9
-45 103 -51 144 -8 48 3 40 13 -11z m1030 -108 c0 -13 -101 -178 -123 -200
-12 -12 21 45 75 129 21 33 38 64 38 69 0 14 -2 12 -61 -78 -150 -231 -246
-403 -315 -570 -18 -44 -33 -76 -34 -70 -1 37 163 383 216 452 13 17 24 35 24
38 0 4 35 60 78 126 71 110 102 141 102 104z m5 -73 c-6 -4 -31 -38 -58 -77
-26 -38 -63 -90 -82 -115 -45 -59 -47 -63 -134 -237 -41 -81 -85 -160 -97
-175 -12 -15 -25 -42 -29 -60 -9 -46 -54 -199 -65 -223 -5 -11 -21 -54 -35
-95 -14 -41 -30 -79 -35 -84 -6 -6 -10 -17 -10 -26 0 -9 -32 -79 -71 -155
-137 -268 -211 -396 -289 -497 -23 -30 -25 -38 -9 -38 5 0 7 5 4 10 -3 6 -1
10 4 10 6 0 11 -7 11 -16 0 -11 -6 -15 -20 -11 -16 4 -30 -7 -62 -51 -23 -32
-92 -106 -152 -166 -61 -60 -109 -114 -108 -120 2 -6 0 -8 -4 -3 -10 10 -75
-53 -67 -66 3 -6 1 -7 -5 -3 -6 3 -13 2 -16 -3 -4 -5 2 -12 11 -15 14 -3 13
-4 -3 -3 -12 1 -63 -28 -119 -68 -54 -39 -117 -81 -141 -95 -167 -99 -151 -84
-179 -171 -14 -44 -25 -87 -25 -95 0 -7 -7 -14 -15 -14 -9 0 -15 9 -14 23 0
21 1 21 8 2 7 -17 9 -16 16 13 4 18 4 36 1 39 -3 4 -6 -2 -6 -12 0 -10 -2 -16
-5 -13 -3 3 2 36 10 74 8 38 18 79 20 92 3 12 13 22 23 22 9 0 32 10 51 23
244 159 286 192 407 312 131 131 230 241 290 322 84 113 120 165 145 213 14
27 31 56 38 63 26 32 166 302 232 447 39 85 77 169 85 186 9 17 29 69 44 115
31 90 40 97 15 11 -43 -142 -280 -643 -359 -757 -12 -16 -32 -51 -46 -77 -41
-78 -152 -229 -248 -338 -181 -206 -328 -337 -503 -447 -28 -17 -59 -39 -69
-48 -10 -9 -36 -23 -57 -30 -36 -12 -39 -17 -50 -72 -18 -87 -14 -96 11 -24
12 36 29 67 37 69 8 3 34 19 59 36 25 17 60 39 78 49 18 9 76 49 130 87 120
86 467 423 458 446 -3 8 -2 13 2 10 13 -8 150 178 198 269 15 28 35 62 45 76
21 31 188 358 208 409 7 19 25 69 40 110 15 41 30 80 33 86 4 6 23 66 42 134
19 68 43 135 54 150 11 15 52 92 91 171 66 135 92 177 214 344 26 36 47 70 47
75 0 9 22 20 30 13 2 -2 0 -7 -5 -11z m-782 -289 c17 -18 35 -33 41 -33 15 0
66 -52 66 -67 0 -16 -18 -16 -76 -2 -25 7 -44 17 -44 25 0 8 -6 14 -12 14 -17
0 -57 63 -64 100 -5 24 -3 29 17 32 17 2 27 -3 32 -17 4 -11 22 -35 40 -52z
m217 -183 c0 -5 16 -16 35 -24 19 -8 35 -19 35 -24 0 -6 16 -13 35 -16 20 -4
35 -13 35 -21 0 -55 -52 -61 -110 -12 -22 17 -40 37 -40 43 0 7 -7 14 -15 18
-23 8 -19 46 5 46 11 0 20 -4 20 -10z m-4879 -1364 c8 5 9 3 4 -5 -8 -15 14
-63 26 -55 4 2 11 -1 15 -7 4 -8 3 -9 -4 -5 -23 14 -11 -9 56 -106 37 -55 72
-107 77 -116 6 -10 22 -38 36 -62 15 -25 29 -61 32 -80 l6 -35 -12 35 c-12 38
-47 97 -148 246 -70 105 -119 195 -118 216 0 7 4 3 10 -10 5 -14 13 -20 20
-16z m4469 -61 c0 -8 -7 -15 -15 -15 -16 0 -20 12 -8 23 11 12 23 8 23 -8z
m-3620 -675 l2 25 8 -25 c4 -14 8 -34 8 -45 0 -16 -2 -15 -8 5 -7 21 -8 22
-10 5 l-1 -20 -9 20 c-5 11 -8 29 -8 40 0 16 2 15 8 -5 l8 -25 2 25z"/>
<path d="M5115 6710 c-3 -5 -2 -10 4 -10 5 0 13 5 16 10 3 6 2 10 -4 10 -5 0
-13 -4 -16 -10z"/>
<path d="M3660 5799 c0 -5 5 -7 10 -4 6 3 10 8 10 11 0 2 -4 4 -10 4 -5 0 -10
-5 -10 -11z"/>
<path d="M7345 4740 c3 -5 13 -10 21 -10 8 0 12 5 9 10 -3 6 -13 10 -21 10 -8
0 -12 -4 -9 -10z"/>
<path d="M7255 4710 c3 -5 16 -10 28 -11 20 -1 20 -2 -3 -9 -30 -10 -5 -12 29
-3 22 6 22 6 -9 19 -38 17 -53 18 -45 4z"/>
<path d="M7550 4973 c-1 -21 -5 -56 -9 -78 -25 -116 -25 -111 -8 -95 10 10 17
46 22 113 4 53 4 97 1 97 -3 0 -6 -17 -6 -37z"/>
<path d="M5708 4503 c6 -2 18 -2 25 0 6 3 1 5 -13 5 -14 0 -19 -2 -12 -5z"/>
<path d="M11018 4480 c-21 -11 -55 -37 -78 -59 -42 -40 -51 -41 -23 -2 12 17
12 22 2 19 -7 -2 -19 -18 -25 -34 l-12 -30 40 -3 c63 -3 179 76 165 113 -8 21
-24 20 -69 -4z"/>
<path d="M8746 4224 c-22 -32 -58 -95 -81 -139 -22 -44 -53 -98 -67 -120 -14
-22 -32 -52 -39 -66 -41 -78 -64 -115 -78 -127 -9 -8 -10 -11 -3 -7 18 9 15 0
-13 -41 -29 -43 -31 -57 -8 -52 10 2 31 26 47 55 16 29 33 50 38 47 4 -3 8 2
8 12 0 23 37 96 66 129 13 16 24 36 24 45 0 9 4 20 9 25 5 6 39 67 76 138 73
141 85 198 21 101z"/>
<path d="M9025 4173 c-43 -43 -85 -89 -94 -103 -9 -14 -60 -83 -113 -155 -53
-71 -110 -148 -127 -170 -31 -42 -50 -95 -34 -95 24 0 96 86 224 265 28 39 62
85 77 104 15 19 35 48 46 65 10 17 29 42 42 55 28 27 76 111 65 111 -5 0 -43
-35 -86 -77z"/>
<path d="M8346 4183 c-13 -27 -39 -77 -58 -113 -18 -36 -39 -84 -46 -108 -7
-23 -31 -79 -52 -124 -46 -95 -54 -136 -17 -91 33 39 127 227 127 252 0 5 11
29 25 52 14 24 25 51 25 59 0 8 7 29 16 45 30 57 35 75 19 75 -8 0 -26 -21
-39 -47z"/>
<path d="M9259 4072 c-48 -53 -108 -124 -134 -157 -27 -33 -70 -84 -97 -113
-50 -56 -58 -72 -34 -72 17 0 83 74 195 220 44 58 99 129 122 158 69 87 39 67
-52 -36z"/>
<path d="M5920 4135 c0 -8 -4 -15 -8 -15 -8 0 -128 -151 -217 -274 -28 -38
-60 -79 -72 -91 -13 -12 -23 -28 -23 -34 0 -7 -17 -38 -37 -69 -58 -87 -78
-131 -66 -143 15 -15 37 -2 51 29 22 47 65 118 125 204 111 159 121 173 138
185 9 7 22 26 29 43 7 16 16 30 20 30 7 0 90 134 90 145 0 3 -7 5 -15 5 -8 0
-15 -7 -15 -15z"/>
<path d="M6114 4058 c-27 -35 -52 -67 -57 -73 -22 -27 -116 -159 -163 -230
-30 -44 -85 -125 -124 -180 -67 -97 -98 -155 -81 -155 13 0 57 61 74 101 8 20
29 51 46 71 17 20 31 39 31 44 0 4 17 28 38 53 20 25 46 63 57 84 11 22 29 49
41 60 11 12 26 37 33 55 8 17 19 32 26 32 8 0 24 18 37 39 13 22 40 65 61 96
21 32 36 59 34 61 -2 2 -26 -24 -53 -58z"/>
<path d="M6400 4112 c0 -13 -207 -326 -255 -387 -18 -22 -42 -60 -53 -86 -11
-25 -36 -68 -55 -96 -49 -73 -78 -138 -71 -157 3 -9 9 -16 13 -16 7 1 51 68
92 141 15 26 45 73 68 105 22 31 41 63 41 69 0 7 13 30 28 51 15 21 36 59 46
84 9 25 28 62 42 82 13 21 24 42 24 47 0 5 18 33 40 62 40 54 58 94 46 106 -3
4 -6 1 -6 -5z"/>
<path d="M8045 3244 c-187 -27 -431 -48 -820 -69 -550 -30 -613 -35 -835 -62
-124 -15 -217 -29 -208 -31 10 -2 89 6 175 17 183 23 355 38 538 46 309 14
692 37 837 50 145 14 500 61 523 70 25 9 -64 1 -210 -21z"/>
<path d="M8658 2958 c-81 -34 -146 -64 -143 -66 4 -4 302 114 314 125 19 15
-47 -8 -171 -59z"/>
<path d="M7743 2013 c-26 -110 -26 -406 0 -513 10 -41 25 -88 33 -105 17 -35
15 -25 -18 90 -14 51 -21 114 -25 230 -4 138 -2 174 16 264 26 122 21 148 -6
34z"/>
<path d="M9960 2539 c0 -20 54 -99 68 -99 6 0 12 -7 12 -15 0 -8 16 -19 38
-24 61 -18 68 -14 37 19 -16 17 -34 30 -40 30 -14 0 -70 59 -78 83 -7 19 -37
24 -37 6z"/>
<path d="M10236 2295 c4 -8 8 -15 10 -15 2 0 4 7 4 15 0 8 -4 15 -10 15 -5 0
-7 -7 -4 -15z"/>
<path d="M10260 2273 c0 -23 72 -83 100 -83 25 0 38 29 19 41 -8 5 -24 9 -36
9 -13 0 -23 4 -23 10 0 5 -13 16 -30 25 -28 14 -30 14 -30 -2z"/>
<path d="M8743 7030 c0 -36 2 -50 4 -32 2 17 2 47 0 65 -2 17 -4 3 -4 -33z"/>
<path d="M7755 5860 c11 -5 27 -9 35 -9 9 0 8 4 -5 9 -11 5 -27 9 -35 9 -9 0
-8 -4 5 -9z"/>
<path d="M7918 5783 c23 -2 59 -2 80 0 20 2 1 4 -43 4 -44 0 -61 -2 -37 -4z"/>
<path d="M4637 5471 c-37 -24 -43 -31 -26 -31 8 0 30 11 49 25 38 28 20 33
-23 6z"/>
<path d="M4570 5365 c0 -21 48 -80 103 -126 97 -81 259 -153 402 -178 116 -20
336 -31 405 -20 35 5 66 11 67 13 3 3 -89 7 -147 6 -227 -3 -260 1 -467 69
-166 54 -263 113 -329 199 -19 25 -34 41 -34 37z m858 -322 c-10 -2 -26 -2
-35 0 -10 3 -2 5 17 5 19 0 27 -2 18 -5z"/>
<path d="M5655 5149 c-22 -10 -29 -16 -15 -13 28 7 80 33 65 33 -5 0 -28 -9
-50 -20z"/>
<path d="M5505 5100 l-20 -9 20 0 c11 0 29 4 40 9 l20 9 -20 0 c-11 0 -29 -4
-40 -9z"/>
<path d="M5221 5025 c1 -17 38 -91 38 -75 0 8 -8 31 -19 50 -11 19 -19 31 -19
25z"/>
<path d="M8575 4760 c-87 -31 -108 -40 -103 -45 2 -3 49 11 104 30 54 19 88
35 74 34 -14 0 -47 -9 -75 -19z"/>
<path d="M10516 4374 c-16 -16 -12 -39 5 -28 5 3 6 10 3 16 -4 6 -2 8 4 4 6
-3 13 -2 16 3 11 17 -12 21 -28 5z"/>
<path d="M6151 203 c0 -5 18 -37 39 -73 22 -36 47 -80 57 -98 9 -17 23 -32 30
-32 13 0 1 24 -45 95 -75 118 -83 128 -81 108z"/>
</g>
</svg>
