<?xml version="1.0" standalone="no"?>
<!DOCTYPE svg PUBLIC "-//W3C//DTD SVG 20010904//EN"
 "http://www.w3.org/TR/2001/REC-SVG-20010904/DTD/svg10.dtd">
<svg version="1.0" xmlns="http://www.w3.org/2000/svg"
 width="1280.000000pt" height="720.000000pt" viewBox="0 0 1280.000000 720.000000"
 preserveAspectRatio="xMidYMid meet">
<metadata>
Created by potrace 1.16, written by Peter Selinger 2001-2019
</metadata>
<g transform="translate(0.000000,720.000000) scale(0.100000,-0.100000)"
fill="#000000" stroke="none">
<path d="M0 3600 l0 -3600 2770 0 2770 0 0 29 c0 15 -4 41 -10 57 -9 26 -44
279 -71 519 -6 50 -16 99 -22 111 -32 58 -116 233 -126 264 -76 228 -143 475
-165 610 -10 58 -22 127 -27 153 -14 75 -11 459 6 614 15 142 26 209 51 298 7
28 25 136 39 240 30 225 51 359 99 635 20 113 43 246 51 295 9 50 29 156 45
237 23 117 26 153 18 175 -9 23 -7 37 9 74 18 41 19 47 5 79 -9 19 -22 51 -30
70 -8 19 -18 44 -23 55 -12 28 -62 178 -84 250 -9 33 -36 108 -59 167 l-41
108 -48 0 c-27 0 -74 7 -105 16 -112 31 -247 77 -262 89 -8 6 -22 14 -30 17
-42 15 -140 101 -174 152 l-38 57 -56 -8 c-100 -14 -380 -8 -457 10 -99 23
-184 54 -227 82 -43 29 -90 94 -108 150 -7 22 -21 55 -32 72 -12 21 -18 44
-15 65 l4 33 1 -37 c1 -20 6 -39 11 -43 6 -3 8 10 5 32 -3 31 -2 33 5 13 4
-14 26 -61 49 -105 89 -176 204 -223 592 -239 117 -5 150 -4 170 8 39 23 163
86 169 86 9 0 -14 -19 -44 -35 l-30 -17 29 7 c38 8 81 41 64 48 -8 3 -6 6 5 6
9 1 17 -3 17 -9 0 -14 -56 -53 -82 -57 -12 -2 -27 -8 -35 -14 -7 -6 -20 -9
-28 -5 -9 3 -32 -3 -53 -15 -34 -18 -48 -19 -182 -14 -175 8 -315 27 -394 54
-112 39 -159 81 -206 185 -37 81 -49 83 -17 2 51 -131 132 -194 307 -237 69
-18 118 -22 255 -23 94 0 197 2 230 6 l60 8 45 -62 c106 -146 357 -258 610
-272 58 -3 134 -8 170 -10 36 -3 54 -3 40 0 -14 3 -32 7 -40 11 -8 3 -56 7
-106 9 -96 3 -188 23 -343 74 -171 57 -266 116 -328 204 -25 36 -47 56 -63 59
-20 3 -19 4 8 6 18 0 43 6 55 12 22 10 22 10 -1 -10 l-22 -19 33 -44 c68 -89
181 -155 366 -213 194 -60 310 -75 400 -49 34 9 64 14 67 12 3 -3 -11 -9 -31
-12 -19 -4 -35 -11 -35 -16 0 -13 122 -23 150 -11 22 8 22 10 5 11 -15 1 -11
5 14 15 42 19 66 19 26 0 -16 -7 -23 -14 -15 -14 12 -1 11 -4 -3 -12 -32 -19
-141 -29 -230 -21 -85 8 -87 7 -81 -13 6 -20 6 -20 -10 0 -21 27 -19 9 5 -40
17 -36 19 -37 14 -10 -9 54 218 -439 230 -498 3 -18 -9 4 -28 48 -68 160 -190
425 -194 422 -2 -2 5 -28 16 -58 10 -30 27 -81 37 -114 9 -33 23 -74 31 -92 7
-17 13 -36 13 -43 0 -14 77 -208 92 -230 7 -11 8 -8 5 12 -2 15 0 25 4 22 13
-8 3 -82 -17 -133 -14 -35 -15 -47 -5 -63 9 -15 6 -48 -18 -171 -17 -84 -37
-192 -45 -242 -9 -49 -32 -182 -52 -295 -47 -273 -69 -408 -99 -635 -15 -104
-31 -208 -36 -230 -30 -118 -41 -183 -54 -309 -17 -156 -20 -535 -5 -617 5
-30 17 -97 26 -149 23 -138 73 -324 139 -524 43 -133 110 -283 140 -316 8 -9
19 -52 25 -96 6 -43 15 -106 20 -139 5 -33 19 -139 31 -235 11 -96 25 -185 30
-198 5 -13 9 -37 9 -53 0 -20 5 -29 16 -29 18 0 18 6 -17 280 -18 147 -25 189
-47 303 -5 27 -6 50 -1 53 5 3 6 11 2 17 -3 7 4 3 16 -8 13 -11 41 -51 62 -90
21 -38 39 -64 39 -57 0 25 -62 129 -181 304 -42 61 -99 174 -99 197 0 8 3 11
8 7 7 -8 8 -13 11 -42 0 -8 5 -13 10 -10 5 3 8 -2 7 -10 0 -9 7 -18 17 -19 19
-3 22 6 8 20 -19 21 -82 156 -116 250 -93 262 -145 558 -145 830 0 165 24 406
50 510 11 44 29 143 40 220 11 77 27 185 35 240 8 55 19 134 25 175 17 117 68
421 96 570 14 74 32 177 40 227 24 155 66 357 79 384 14 27 75 86 119 114 14
9 47 23 73 31 45 13 45 14 10 10 -58 -7 -180 -69 -210 -108 -21 -27 -25 -29
-21 -10 7 23 58 72 75 72 6 0 34 11 62 25 49 23 175 55 216 55 10 0 18 -6 18
-14 0 -9 -16 -17 -46 -21 -118 -16 -160 -35 -230 -104 -65 -62 -69 -70 -80
-131 -7 -36 -19 -101 -27 -145 -9 -44 -21 -118 -29 -165 -7 -47 -25 -146 -39
-220 -28 -149 -79 -453 -96 -570 -6 -41 -17 -120 -25 -175 -8 -55 -24 -163
-35 -240 -11 -77 -29 -176 -40 -220 -26 -104 -50 -345 -50 -510 0 -317 78
-700 192 -944 48 -101 110 -199 124 -194 7 2 15 0 19 -6 4 -7 0 -8 -12 -4 -17
6 -17 5 -3 -14 88 -123 110 -156 138 -209 17 -34 32 -67 32 -73 0 -7 -18 22
-40 64 -42 80 -61 109 -125 191 -22 28 -46 60 -53 70 -12 17 -12 17 -8 1 4
-10 2 -15 -4 -12 -23 14 -5 -20 63 -122 104 -154 146 -226 153 -262 9 -42 -19
-43 -36 -1 -18 43 -68 120 -78 120 -5 0 -5 -20 0 -47 5 -27 13 -70 18 -98 10
-50 43 -307 55 -422 l7 -63 330 0 330 0 -21 33 c-11 17 -31 52 -43 77 -13 25
-34 62 -46 83 -13 20 -21 43 -19 50 3 7 6 5 6 -5 1 -9 6 -20 12 -24 8 -4 9 1
4 17 -5 17 1 12 22 -16 34 -47 92 -137 119 -182 l18 -33 3248 0 3248 0 0 3600
0 3600 -1495 0 c-822 0 -1495 -3 -1495 -7 0 -5 29 -91 64 -193 35 -102 66
-192 69 -200 3 -8 14 -42 25 -75 34 -97 102 -373 102 -410 0 -19 7 -77 16
-127 12 -69 15 -123 10 -208 -9 -161 -53 -482 -76 -560 -25 -83 -56 -248 -70
-370 -6 -52 -19 -133 -30 -180 -11 -47 -26 -116 -35 -153 -9 -42 -15 -117 -15
-198 0 -130 -41 -548 -80 -811 -12 -75 -34 -181 -50 -235 -16 -53 -28 -98 -27
-100 2 -1 48 31 103 71 54 41 108 81 119 89 11 8 26 32 34 53 22 64 93 200
174 334 29 48 35 65 26 74 -9 8 -10 8 -5 -1 4 -7 2 -13 -3 -13 -6 0 -11 7 -11
15 0 8 7 15 15 15 8 0 15 -5 15 -12 0 -15 59 53 60 68 0 6 7 17 15 24 8 7 12
16 10 21 -6 9 113 147 200 232 37 35 68 57 80 56 34 -2 39 0 94 41 29 22 57
40 63 40 5 0 24 11 41 23 57 43 210 124 312 167 55 23 119 51 142 61 65 30
273 96 323 103 25 4 75 14 113 23 163 38 387 -18 387 -97 0 -29 -27 -31 -45
-4 -31 48 -96 67 -230 68 -119 1 -180 -12 -300 -63 -11 -5 -63 -23 -115 -41
-52 -17 -103 -36 -113 -41 -9 -5 -47 -21 -85 -35 -136 -51 -346 -168 -524
-291 -26 -18 -51 -33 -54 -33 -3 0 -28 -17 -55 -37 -26 -21 -60 -46 -74 -56
-32 -23 -157 -190 -219 -294 -26 -43 -67 -109 -91 -148 -55 -86 -115 -209
-115 -235 0 -21 -87 -110 -107 -110 -7 0 -18 -9 -25 -20 -7 -11 -17 -20 -21
-20 -5 0 -22 -10 -37 -23 -16 -12 -47 -35 -70 -52 -35 -25 -100 -104 -100
-121 0 -3 -17 -34 -39 -70 -25 -42 -43 -87 -52 -131 -15 -81 -16 -358 -2 -426
18 -83 -9 -120 -40 -54 -50 104 -39 438 18 561 23 48 95 157 95 143 0 -4 -20
-40 -45 -79 -25 -40 -52 -95 -60 -123 -42 -147 -41 -416 2 -498 21 -41 34 -17
23 43 -26 143 -19 394 15 494 39 114 170 296 213 296 5 0 19 11 32 25 13 14
29 25 37 25 7 0 13 4 13 10 0 5 12 16 28 24 41 22 112 94 112 115 0 16 72 169
102 216 38 60 81 128 118 190 58 96 174 250 205 272 14 10 48 35 74 56 27 20
52 37 55 37 3 0 28 15 54 33 26 17 57 38 67 44 11 7 58 37 105 66 90 57 176
103 250 135 145 63 349 142 364 142 4 0 22 6 39 14 18 8 70 27 117 42 77 26
97 29 210 28 95 -1 132 -5 155 -18 17 -9 35 -16 42 -16 6 0 20 -11 31 -25 22
-28 32 -32 32 -11 0 43 -139 96 -253 96 -39 0 -98 -6 -131 -14 -34 -8 -88 -20
-121 -26 -69 -14 -221 -63 -280 -90 -22 -10 -85 -37 -140 -60 -55 -23 -129
-58 -165 -78 -95 -52 -261 -152 -290 -174 -88 -67 -105 -78 -120 -76 -33 6
-198 -168 -245 -257 -14 -25 -40 -66 -58 -90 -17 -24 -45 -67 -62 -96 -16 -28
-45 -77 -62 -108 -47 -81 -113 -218 -113 -234 0 -8 -48 -50 -107 -94 -127 -94
-150 -109 -158 -101 -4 3 7 53 24 110 38 129 53 221 96 606 22 195 35 355 35
439 0 82 6 157 15 200 9 37 24 106 35 153 11 47 24 128 30 180 14 122 45 287
70 370 23 78 67 399 76 560 4 83 2 142 -9 210 -9 52 -18 120 -22 150 -9 82
-80 348 -120 445 -6 17 -40 117 -76 223 -35 105 -67 192 -71 192 -13 0 -10
-14 21 -107 170 -510 193 -598 229 -868 21 -153 18 -240 -13 -460 -9 -66 -23
-163 -30 -215 -28 -198 -64 -409 -90 -528 -14 -67 -23 -127 -19 -134 4 -6 3
-8 -3 -5 -6 4 -17 -23 -27 -66 -9 -40 -23 -97 -31 -127 -8 -30 -15 -75 -14
-100 1 -44 1 -44 9 -12 11 45 18 50 26 16 11 -42 -72 -816 -102 -959 -41 -195
-56 -271 -57 -283 0 -8 -30 -45 -66 -84 -67 -71 -90 -105 -55 -79 18 14 18 14
2 -4 -10 -10 -21 -16 -25 -12 -10 11 14 47 68 104 60 63 64 72 88 189 11 54
27 131 35 169 15 70 105 829 106 893 0 6 -9 12 -20 12 -17 0 -20 7 -20 48 0
26 7 75 16 107 59 222 99 407 129 600 13 83 26 164 29 180 3 17 10 66 16 110
6 44 18 127 26 185 30 211 33 304 12 455 -30 223 -56 336 -127 555 -37 113
-76 232 -86 265 -10 33 -21 65 -25 70 -4 6 -10 27 -14 48 l-7 37 -511 0 -510
0 7 -97 c19 -275 70 -504 155 -700 15 -33 26 -64 41 -103 6 -19 36 -83 65
-141 36 -73 49 -110 43 -120 -5 -8 -9 -38 -9 -66 0 -29 -7 -94 -16 -144 -12
-71 -13 -94 -3 -99 9 -6 3 -37 -24 -121 -20 -63 -49 -159 -66 -214 -35 -117
-113 -433 -136 -555 -9 -47 -21 -109 -26 -137 -7 -33 -16 -53 -24 -53 -17 0
-26 27 -21 57 4 20 2 22 -27 16 -43 -8 -47 -13 -11 -14 23 0 18 -3 -21 -14
-101 -26 -195 -39 -207 -27 -8 8 -6 10 9 6 11 -3 57 2 102 10 46 9 86 16 90
17 3 0 -3 4 -13 8 -11 4 -36 2 -55 -4 -51 -17 -130 -28 -111 -15 8 5 28 10 43
10 15 0 44 7 63 15 20 8 40 13 45 10 4 -3 28 0 53 6 52 13 40 -24 112 339 25
124 68 313 96 420 59 227 64 256 81 452 11 122 11 152 0 173 -51 96 -182 460
-206 570 -29 133 -57 377 -57 491 l0 24 -437 0 c-434 -1 -438 -1 -393 -19 102
-41 178 -80 202 -102 14 -13 48 -43 75 -66 28 -23 88 -91 134 -150 45 -59 104
-133 131 -164 26 -30 48 -59 48 -63 0 -5 13 -25 28 -45 15 -20 47 -69 71 -109
37 -63 61 -83 61 -51 0 6 -5 7 -12 3 -6 -4 -8 -3 -4 4 3 6 -7 25 -24 43 -28
31 -34 49 -12 35 21 -13 80 -113 95 -161 35 -109 31 -179 -16 -282 -5 -12 -7
-63 -4 -120 3 -54 11 -267 16 -473 10 -362 15 -489 27 -632 7 -75 5 -77 -76
-92 -28 -5 -31 -4 -15 4 34 17 -37 4 -76 -15 -19 -8 -24 -13 -11 -10 12 3 32
7 45 10 19 5 19 4 -3 -6 -91 -43 -109 -49 -76 -24 30 23 1 18 -36 -6 -28 -17
-29 -20 -8 -14 21 6 20 4 -7 -14 -18 -11 -33 -25 -33 -31 0 -5 -7 -10 -16 -10
-11 0 -14 5 -10 16 3 9 6 20 6 25 0 12 132 74 202 94 32 9 67 14 77 10 11 -3
22 -2 25 3 3 5 1 74 -4 153 -6 79 -15 317 -21 529 -5 212 -13 432 -16 488 -3
64 -1 112 5 125 45 93 49 165 15 271 -14 45 -17 48 -29 31 -12 -16 -12 -21 1
-35 20 -23 20 -145 -1 -228 -13 -52 -15 -94 -10 -211 3 -80 10 -317 15 -526 9
-338 19 -495 37 -575 3 -16 2 -21 -4 -15 -19 20 -34 237 -43 600 -5 204 -12
436 -15 516 -5 117 -3 159 10 211 9 35 16 96 16 134 0 63 -3 73 -26 95 -14 13
-52 67 -85 119 -32 52 -87 132 -121 177 -35 45 -103 134 -152 197 -108 142
-202 221 -308 261 -75 28 -140 56 -192 81 -24 12 -157 14 -791 14 -687 0 -763
-2 -769 -16 -3 -9 -9 -39 -12 -67 -6 -53 11 -113 54 -194 61 -114 78 -144 115
-191 58 -77 108 -116 217 -171 177 -89 295 -112 560 -106 102 2 210 9 240 15
37 7 56 7 58 0 2 -6 9 -7 15 -3 8 4 7 1 -1 -9 -15 -19 -114 -38 -198 -38 -90
0 -94 -8 -34 -76 29 -32 77 -93 108 -134 30 -41 57 -69 60 -62 8 24 30 12 36
-20 17 -86 206 -196 391 -227 37 -6 42 -9 19 -10 -47 -2 -99 -22 -82 -32 7 -5
22 -8 33 -8 l20 0 -20 9 c-20 10 -18 10 107 -11 49 -7 47 -8 -22 -4 -50 2 -65
1 -45 -5 17 -4 47 -8 67 -9 20 0 39 -5 42 -9 7 -12 -108 5 -166 23 -54 17 -68
19 -68 6 0 -18 129 -44 245 -50 l120 -6 -95 -6 c-80 -5 -77 -6 25 -2 66 2 140
5 165 8 25 2 11 -2 -30 -10 -90 -16 -213 -18 -295 -5 -79 13 -175 42 -175 52
0 5 -4 7 -9 4 -4 -3 -11 -67 -15 -143 -4 -76 -14 -190 -22 -253 -11 -82 -15
-192 -14 -386 0 -150 -2 -284 -6 -298 -8 -33 -43 -36 -45 -3 -1 12 -1 26 0 31
1 5 -5 6 -13 3 -22 -9 -24 11 -9 88 7 39 13 88 13 111 0 31 4 41 16 41 14 0
15 -13 8 -111 -10 -155 -6 -200 17 -166 5 9 9 132 8 295 0 200 4 313 15 395 8
63 18 176 22 252 7 148 13 170 38 148 9 -7 20 -10 23 -6 4 4 2 11 -6 15 -10 7
-9 10 3 14 24 9 19 24 -9 31 -14 4 -23 11 -20 16 4 6 16 3 30 -6 15 -10 32
-13 45 -9 17 5 3 13 -64 36 -130 43 -210 99 -246 170 -11 20 -16 40 -12 44 4
5 1 5 -6 1 -8 -5 -10 -17 -7 -29 7 -27 3 -22 -76 83 -31 41 -80 101 -108 133
-28 32 -51 64 -51 71 0 18 32 26 101 26 55 0 158 15 167 25 12 11 -6 13 -53 4
-28 -5 -133 -12 -235 -14 -265 -6 -381 16 -570 108 -159 77 -235 162 -342 385
-43 90 -52 149 -36 232 l7 35 -15 -34 c-19 -43 -14 -141 9 -193 10 -21 15 -38
12 -38 -3 0 -15 19 -25 43 -21 46 -26 131 -11 185 l10 32 -3090 0 -3089 0 0
-3600z m6188 3335 c-7 -7 -241 -56 -313 -65 -298 -39 -702 -113 -720 -132 -7
-8 -4 -9 9 -4 10 3 55 13 100 21 44 7 88 16 96 19 8 3 107 19 220 36 336 48
423 63 572 99 21 5 36 5 33 1 -2 -4 -19 -10 -37 -13 -18 -4 -64 -13 -103 -22
-82 -18 -185 -35 -465 -76 -113 -16 -218 -33 -235 -38 -16 -5 -62 -14 -101
-21 -56 -9 -78 -18 -102 -41 -32 -31 -45 -73 -32 -98 5 -9 16 -36 25 -61 19
-53 109 -162 181 -219 56 -44 213 -121 285 -139 86 -21 262 -42 353 -41 87 0
139 7 236 28 92 20 105 24 115 31 6 4 37 12 70 19 60 13 148 37 173 47 6 3 12
-1 12 -10 0 -24 -55 -53 -135 -71 -57 -13 -168 -43 -298 -81 -16 -5 -15 -8 10
-27 16 -12 74 -71 129 -132 157 -173 198 -210 292 -262 l87 -48 120 0 c66 1
145 7 175 14 75 18 230 76 284 106 25 14 51 25 58 25 19 -1 -75 -49 -172 -87
-129 -51 -209 -67 -345 -67 l-120 -1 -84 43 c-101 52 -148 89 -213 167 -27 33
-99 110 -158 171 -98 100 -106 111 -82 111 15 0 63 10 107 22 44 13 123 34
175 47 89 22 160 51 160 65 0 3 -26 -2 -57 -12 -32 -9 -87 -24 -123 -33 -36
-10 -81 -22 -100 -27 -178 -51 -323 -61 -516 -34 -143 20 -189 33 -309 86 -91
39 -108 52 -193 135 -61 62 -100 110 -116 145 -14 28 -31 56 -38 60 -10 7 -10
9 2 9 12 0 12 2 2 9 -19 12 -4 79 24 108 12 12 19 25 14 28 -15 9 -49 -45 -56
-91 -6 -43 -1 -102 12 -141 6 -15 5 -16 -7 -5 -17 16 -19 156 -1 197 18 43 67
72 152 89 41 8 111 22 155 30 77 16 348 58 485 77 36 5 115 19 175 33 115 25
142 29 133 21z m71 -92 c24 -45 73 -117 110 -160 60 -70 79 -84 177 -135 177
-92 301 -122 511 -127 72 -1 73 -1 86 -34 8 -18 38 -59 67 -92 29 -33 61 -73
71 -89 19 -31 81 -104 169 -199 30 -32 79 -73 109 -91 64 -37 82 -60 62 -78
-12 -11 -13 -10 -8 4 7 19 -9 34 -73 70 -54 31 -223 209 -269 284 -10 16 -42
55 -70 87 -28 32 -58 74 -66 93 -14 34 -15 34 -82 35 -129 3 -242 20 -338 51
-78 26 -241 103 -282 134 -49 37 -136 150 -178 232 -21 39 -42 72 -46 72 -5 0
-6 7 -2 15 7 20 2 26 52 -72z m-1015 -488 c79 -80 104 -98 196 -143 144 -70
345 -112 533 -112 l103 0 106 -107 c59 -60 124 -131 146 -158 48 -62 125 -131
174 -156 20 -10 39 -23 43 -28 8 -13 10 -435 2 -448 -11 -17 -39 -486 -32
-539 l6 -52 -57 -27 c-55 -26 -58 -26 -71 -9 -7 10 -13 24 -13 32 0 8 -14 39
-30 69 -17 30 -43 85 -59 121 -16 37 -56 126 -91 197 -141 297 -180 357 -329
508 -93 94 -140 135 -181 154 -121 57 -395 173 -410 173 -9 0 -20 4 -25 9 -6
5 -37 18 -70 30 -33 12 -73 28 -90 35 -16 8 -41 18 -55 24 -14 5 -43 17 -65
26 -51 20 -270 73 -355 85 -48 7 -82 6 -130 -4 -36 -8 -139 -28 -228 -46 -90
-17 -228 -51 -305 -75 -78 -24 -149 -44 -158 -44 -21 0 -139 -59 -139 -70 0
-5 21 0 48 10 26 11 72 26 102 34 30 8 116 33 190 54 156 46 234 65 391 94
169 31 193 32 277 13 42 -10 114 -26 160 -36 45 -10 139 -42 210 -70 70 -28
165 -66 212 -84 47 -19 128 -51 180 -73 52 -21 138 -56 190 -78 90 -37 102
-45 214 -154 65 -63 138 -142 161 -175 39 -55 188 -349 263 -520 17 -38 47
-101 66 -138 39 -75 47 -121 20 -115 -11 2 -22 22 -30 53 -15 62 -10 73 7 13
14 -48 29 -72 29 -45 0 29 -50 133 -58 119 -12 -18 11 -139 28 -157 9 -8 34
-16 56 -17 31 -1 50 7 91 35 39 29 53 34 61 25 6 -7 10 -17 9 -23 -1 -5 9 -12
23 -13 14 -2 29 -8 35 -13 5 -5 15 -9 21 -9 10 0 8 14 -6 54 -37 108 -52 216
-53 371 -1 137 9 677 12 682 0 1 20 -7 44 -17 53 -25 177 -26 315 -5 128 21
179 35 163 44 -10 6 -9 10 4 14 9 4 13 3 10 -3 -8 -13 12 -11 55 5 19 7 28 14
20 14 -13 1 -13 2 0 11 8 5 20 10 25 10 6 0 3 -5 -5 -10 -35 -23 16 -9 55 15
22 13 33 25 24 25 -8 0 -21 -6 -29 -12 -12 -11 -12 -10 -1 5 15 19 55 24 49 5
-12 -36 -191 -102 -353 -129 -144 -25 -306 -23 -346 2 l-25 17 -4 -262 c-8
-554 -3 -626 52 -779 11 -32 18 -61 14 -64 -4 -4 -21 -1 -39 5 -19 7 -41 12
-50 12 -10 0 -19 11 -23 26 -4 14 -9 22 -13 17 -3 -4 -23 -21 -44 -37 -71 -52
-177 -30 -177 37 0 17 -5 50 -10 72 -5 22 -5 44 0 50 11 13 -29 106 -171 393
l-110 223 -134 138 c-81 83 -152 146 -177 159 -75 37 -240 109 -313 137 -194
75 -253 98 -290 115 -77 36 -201 78 -280 95 -44 9 -110 23 -146 32 -76 17
-103 16 -289 -20 -191 -37 -261 -54 -343 -81 -40 -13 -126 -38 -192 -56 -66
-18 -132 -38 -146 -46 -27 -13 -39 -10 -39 11 0 14 91 61 135 70 17 4 95 27
175 51 80 24 217 57 305 74 88 17 189 37 225 45 48 10 82 11 130 4 84 -12 316
-67 355 -84 17 -7 52 -21 80 -30 27 -9 54 -20 60 -25 12 -9 166 -70 178 -70 5
0 23 -6 40 -14 18 -8 82 -35 142 -61 102 -44 174 -76 251 -111 17 -8 87 -72
156 -142 133 -135 187 -213 273 -397 116 -245 140 -297 186 -390 27 -55 49
-108 49 -117 0 -25 15 -30 55 -19 52 14 67 33 59 78 -6 41 23 520 33 536 8 13
6 425 -2 438 -4 5 -23 18 -43 28 -49 25 -126 94 -174 156 -22 27 -87 98 -146
158 l-106 107 -98 0 c-96 0 -207 15 -358 47 -106 22 -264 102 -340 170 -64 58
-138 150 -158 196 -21 49 -12 44 15 -8 14 -27 67 -90 117 -140z m289 -112 c-7
-2 -21 -2 -30 0 -10 3 -4 5 12 5 17 0 24 -2 18 -5z m680 -50 c-7 -2 -21 -2
-30 0 -10 3 -4 5 12 5 17 0 24 -2 18 -5z m2414 -38 c0 -8 -4 -15 -9 -15 -4 0
-8 7 -8 15 0 8 4 15 8 15 5 0 9 -7 9 -15z m103 -30 c0 -8 -8 -15 -17 -14 -11
0 -13 3 -5 6 6 2 10 9 6 14 -3 5 0 9 5 9 6 0 11 -7 11 -15z m-815 -245 l-50
-7 50 -2 c28 -2 44 -5 37 -8 -8 -3 -44 -2 -80 3 -61 7 -64 8 -32 15 19 3 55 6
80 6 l45 0 -50 -7z m-255 -4 c0 -3 -4 -8 -10 -11 -5 -3 -10 -1 -10 4 0 6 5 11
10 11 6 0 10 -2 10 -4z m373 -3 c-13 -2 -33 -2 -45 0 -13 2 -3 4 22 4 25 0 35
-2 23 -4z m0 -20 c-13 -2 -33 -2 -45 0 -13 2 -3 4 22 4 25 0 35 -2 23 -4z
m-447 -191 c-8 -92 -18 -214 -21 -272 -4 -58 -11 -139 -16 -180 -5 -41 -14
-110 -19 -153 -11 -92 -27 -184 -44 -252 l-13 -49 -72 -24 c-40 -13 -70 -26
-67 -29 3 -3 19 0 37 6 18 6 34 9 37 7 8 -8 -232 -79 -278 -82 -25 -1 -34 -1
-20 2 14 2 53 11 88 20 56 15 61 18 45 30 -17 13 -17 14 2 8 15 -5 17 -4 9 5
-8 9 -21 10 -45 3 -19 -6 -26 -11 -17 -11 9 -1 20 -5 23 -11 4 -7 -3 -7 -20 0
-32 12 -48 13 -41 1 3 -4 -6 -6 -21 -3 -18 3 -24 1 -19 -7 4 -6 2 -11 -4 -11
-7 0 -10 5 -8 12 2 6 40 22 84 35 61 17 85 21 103 13 26 -12 65 -4 56 11 -4 5
-13 9 -21 9 -8 0 -12 -4 -9 -10 4 -6 -1 -7 -11 -3 -14 5 -13 8 7 18 32 16 90
29 69 16 -26 -18 14 -24 52 -8 25 11 37 23 41 43 4 16 13 61 21 99 8 39 20
108 25 155 6 47 15 119 20 160 5 41 12 120 15 175 9 156 39 471 44 457 2 -7
-3 -88 -12 -180z m602 151 c-10 -2 -28 -2 -40 0 -13 2 -5 4 17 4 22 1 32 -1
23 -4z m-75 -10 c-7 -2 -21 -2 -30 0 -10 3 -4 5 12 5 17 0 24 -2 18 -5z
m-1023 -198 c0 -8 -7 -15 -15 -15 -16 0 -20 12 -8 23 11 12 23 8 23 -8z
m-1357 -415 c-28 -12 -30 -24 -3 -15 37 12 20 -4 -29 -26 -31 -15 -47 -28 -46
-38 1 -9 0 -10 -2 -3 -6 16 -4 16 -108 -17 -60 -20 -80 -30 -61 -30 16 -1 27
-4 23 -7 -3 -3 -25 -3 -49 1 l-43 8 40 12 c25 8 33 14 20 15 -11 1 26 17 81
35 56 19 117 43 135 54 19 12 41 21 49 20 9 0 5 -4 -7 -9z m-109 -117 c-10 -7
-25 -13 -33 -12 -10 0 -7 4 7 10 13 5 21 13 17 19 -4 6 1 7 11 3 16 -6 15 -7
-2 -20z m1836 -268 c0 -2 -13 -11 -30 -20 -38 -19 -40 -11 -2 9 31 17 32 18
32 11z m4615 -49 c26 -62 37 -129 29 -186 l-7 -55 -23 114 c-12 62 -27 118
-33 124 -16 16 -13 37 5 37 8 0 21 -15 29 -34z m-4560 -16 c-16 -16 -31 -28
-33 -25 -7 7 39 55 52 55 5 0 -3 -13 -19 -30z m-942 -92 c9 -5 7 -8 -4 -8 -17
0 -30 48 -28 100 1 14 5 0 10 -30 5 -30 15 -58 22 -62z m897 73 c0 -5 -12 -6
-27 -3 -24 5 -25 6 -8 12 21 8 35 4 35 -9z m2381 -14 c-10 -9 -11 -8 -5 6 3
10 9 15 12 12 3 -3 0 -11 -7 -18z m-1394 -53 c-3 -3 -12 -4 -19 -1 -8 3 -5 6
6 6 11 1 17 -2 13 -5z m-3043 -72 c3 -5 -1 -9 -9 -9 -8 0 -12 4 -9 9 3 4 7 8
9 8 2 0 6 -4 9 -8z m9 -47 c-3 -9 -8 -14 -10 -11 -3 3 -2 9 2 15 9 16 15 13 8
-4z m5676 -15 c15 0 28 -45 20 -66 -9 -26 -84 -89 -122 -103 -16 -6 -48 -11
-73 -11 -46 0 -49 4 -45 55 2 23 98 115 120 115 8 0 -4 -14 -27 -31 -24 -17
-41 -34 -38 -37 3 -2 22 8 41 23 20 15 48 31 63 35 l27 8 -25 2 -25 2 25 8
c14 4 31 6 38 4 8 -2 17 -4 21 -4z m-5646 -57 c-3 -7 -6 -13 -8 -13 -2 0 -5 6
-8 13 -3 8 1 14 8 14 7 0 11 -6 8 -14z m6622 -63 c-7 -32 -131 -203 -201 -276
-21 -23 -70 -67 -109 -99 -38 -33 -85 -81 -102 -109 -18 -27 -36 -52 -40 -55
-12 -9 -154 -180 -187 -226 -100 -135 -235 -349 -255 -400 -13 -33 -31 -78
-41 -100 -9 -22 -25 -62 -36 -89 -18 -47 -114 -156 -138 -156 -6 0 -31 -14
-55 -30 -24 -17 -53 -30 -63 -30 -37 0 -14 34 54 81 99 67 158 118 158 135 0
8 9 34 21 57 11 23 31 71 45 106 13 36 28 69 33 75 5 6 14 27 20 46 6 19 26
62 45 95 28 48 34 54 33 32 -1 -15 -6 -27 -10 -27 -9 0 -76 -141 -117 -245
-13 -33 -32 -73 -42 -90 -10 -16 -18 -40 -18 -52 0 -23 -55 -73 -157 -141 -34
-23 -65 -46 -68 -52 -12 -19 17 -10 60 20 24 17 47 30 52 30 5 0 31 22 59 48
54 51 79 97 145 268 22 55 53 118 69 140 31 41 38 60 18 48 -7 -4 -8 -3 -4 5
4 6 11 9 16 6 4 -3 29 28 55 68 25 39 59 90 76 112 16 22 37 51 47 65 18 26
160 198 178 215 5 6 23 29 39 53 15 24 60 71 99 104 91 79 133 123 216 228 70
90 95 128 87 137 -3 2 -11 -6 -18 -19 -28 -53 -156 -196 -354 -393 -116 -115
-232 -238 -258 -272 -44 -57 -137 -229 -137 -253 0 -5 -4 -10 -9 -10 -11 0 -9
19 4 40 5 8 26 50 47 93 55 114 108 177 348 417 218 219 331 344 361 402 14
28 17 30 22 13 4 -17 5 -16 6 4 0 13 4 22 7 18 3 -3 3 -20 -1 -37z m-3275
-129 c0 -24 -66 -180 -86 -202 -8 -8 -14 -20 -14 -25 0 -5 -11 -25 -24 -44
-13 -19 -27 -46 -31 -59 -4 -14 -16 -33 -26 -44 -10 -11 -26 -36 -35 -56 -9
-20 -22 -42 -28 -50 -6 -7 -25 -39 -42 -70 -23 -44 -36 -57 -57 -59 -32 -4
-35 14 -10 61 9 18 17 38 17 45 1 7 9 23 19 35 31 38 77 111 77 123 0 6 16 32
35 59 19 27 37 62 40 77 4 15 10 28 15 28 4 0 10 8 12 18 3 11 29 56 58 100
50 79 80 102 80 63z m-258 -118 c-86 -128 -182 -294 -182 -314 0 -10 -14 -45
-32 -76 -55 -101 -67 -128 -57 -131 11 -4 48 38 49 54 0 6 13 29 30 52 16 22
54 89 85 149 30 59 84 162 119 227 35 66 62 127 59 135 -4 14 -3 14 5 2 13
-18 3 -43 -67 -171 -28 -52 -79 -147 -112 -210 -33 -63 -79 -145 -102 -182
-39 -63 -79 -99 -93 -85 -6 6 14 59 38 102 45 78 68 127 68 143 0 11 11 36 25
56 14 20 25 39 25 41 0 8 85 152 100 170 10 11 19 25 21 30 9 25 74 113 77
105 2 -5 -23 -49 -56 -97z m578 81 c0 -11 -32 -65 -51 -86 -28 -31 -122 -158
-156 -210 -15 -24 -53 -76 -83 -117 -30 -40 -65 -87 -77 -104 -31 -42 -74 -76
-97 -77 -16 0 -18 5 -13 36 3 20 19 52 34 71 15 20 35 46 43 58 56 85 188 259
227 300 16 17 40 45 52 63 12 17 29 32 36 32 8 0 22 13 31 29 14 24 21 28 36
20 10 -5 18 -12 18 -15z m-720 -12 c0 -15 -9 -44 -20 -65 -11 -20 -20 -42 -20
-48 0 -10 -6 -25 -99 -229 -48 -104 -91 -169 -115 -170 -17 0 3 72 48 170 25
54 46 105 46 112 0 7 18 47 40 88 22 41 49 94 60 117 28 57 60 71 60 25z m911
-91 c-17 -22 -27 -42 -22 -45 8 -5 43 41 63 84 5 11 7 10 7 -5 0 -21 -18 -46
-127 -182 -204 -253 -213 -263 -238 -263 -45 0 -38 13 94 177 87 107 245 283
250 278 3 -2 -10 -22 -27 -44z m-3351 12 c0 -20 -66 -129 -107 -175 -18 -20
-44 -56 -59 -80 -16 -24 -33 -47 -39 -53 -14 -12 -145 -204 -154 -225 -3 -8
-21 -41 -40 -72 -34 -59 -65 -76 -78 -42 -8 21 32 118 73 176 18 25 34 55 36
65 2 10 8 20 15 23 11 5 73 86 183 240 25 35 64 83 88 106 23 24 42 48 42 53
0 5 9 7 20 4 11 -3 20 -12 20 -20z m220 -24 c0 -19 -61 -120 -76 -126 -8 -3
-14 -12 -14 -20 0 -8 -14 -28 -30 -43 -17 -16 -37 -44 -45 -64 -9 -20 -19 -36
-23 -36 -4 0 -27 -34 -51 -75 -24 -41 -47 -75 -52 -75 -5 0 -18 -18 -29 -40
-12 -23 -27 -43 -35 -47 -8 -3 -15 -9 -15 -14 0 -4 -17 -33 -39 -63 -21 -31
-44 -76 -50 -100 -12 -48 -33 -71 -56 -62 -22 8 -10 71 22 112 12 17 23 35 24
40 0 5 18 34 39 64 21 30 72 105 114 165 150 219 182 264 236 329 51 61 80 81
80 55z m240 -8 c0 -27 -26 -85 -45 -101 -9 -8 -28 -37 -42 -64 -14 -28 -34
-63 -44 -78 -11 -15 -18 -30 -17 -35 2 -7 -7 -25 -40 -78 -7 -11 -22 -40 -33
-63 -11 -24 -44 -79 -72 -122 -29 -43 -70 -107 -92 -143 -43 -71 -70 -85 -81
-41 -4 17 1 40 15 69 11 23 21 47 21 53 0 6 6 15 13 19 15 10 59 76 84 125 10
21 49 83 88 139 38 56 74 110 80 120 5 9 38 58 73 108 34 49 62 95 62 101 0 5
7 10 15 10 8 0 15 -8 15 -19z m80 -129 c0 -12 -101 -207 -151 -292 -25 -41
-55 -97 -68 -125 -34 -75 -75 -154 -79 -151 -6 6 107 235 162 329 31 53 68
121 82 152 14 30 30 57 35 60 5 4 9 11 9 17 0 6 -9 3 -20 -7 -11 -10 -20 -23
-20 -29 0 -6 -42 -85 -93 -176 -51 -91 -101 -185 -111 -210 -9 -25 -25 -56
-33 -70 -9 -13 -20 -38 -24 -55 -5 -22 -7 -24 -8 -9 -1 27 96 230 189 393 38
69 70 126 70 128 0 2 7 15 16 28 15 24 44 34 44 17z m3316 -684 c-3 -35 -8
-94 -12 -133 -3 -38 -10 -78 -15 -87 -14 -27 -35 -22 -49 13 -10 24 -10 41 0
87 24 109 38 157 39 136 1 -12 -3 -34 -8 -50 -27 -87 -34 -144 -22 -171 19
-41 38 -11 45 72 13 149 19 195 23 195 3 0 3 -28 -1 -62z m-1426 -11 c0 -10
-61 -22 -217 -46 -375 -55 -549 -70 -1178 -101 -286 -14 -457 -27 -634 -51
-134 -18 -253 -25 -151 -9 l45 7 -40 2 c-22 2 -35 4 -30 6 29 12 445 56 600
65 956 53 1137 69 1460 124 107 19 145 19 145 3z m455 -257 c-14 -6 -15 -9 -5
-10 18 -1 -30 -26 -117 -60 -34 -13 -59 -28 -57 -32 3 -5 10 -6 15 -3 5 4 9 1
9 -4 0 -6 -7 -11 -15 -11 -8 0 -15 5 -15 11 0 15 -33 3 -175 -61 -22 -10 -57
-24 -78 -31 -99 -35 -374 -281 -466 -419 -98 -145 -154 -284 -187 -455 -13
-71 -15 -123 -11 -245 6 -172 23 -258 64 -328 15 -25 22 -42 15 -38 -7 4 -21
24 -32 44 -10 20 -19 32 -20 25 0 -7 9 -29 21 -50 15 -26 16 -33 5 -24 -46 38
-86 235 -86 420 0 129 14 229 51 356 30 106 46 140 124 274 95 165 295 357
505 487 75 46 100 57 100 44 0 -6 -5 -10 -12 -10 -6 0 -41 -19 -77 -42 -240
-154 -423 -333 -527 -515 -47 -83 -104 -221 -104 -250 1 -10 14 17 30 59 67
180 168 329 324 475 112 105 227 186 303 213 35 12 60 26 57 31 -3 5 2 6 11 3
10 -4 15 -2 13 6 -3 12 34 29 223 109 19 8 50 20 69 27 40 14 76 17 45 4z
m939 -36 c3 -9 6 -24 6 -34 0 -25 39 -110 50 -110 6 0 10 -12 10 -27 0 -16 7
-41 15 -57 19 -37 19 -56 -1 -56 -41 0 -93 104 -103 210 -5 41 -6 78 -4 83 7
12 21 8 27 -9z m1036 -139 c0 -8 -16 -40 -36 -70 -37 -55 -54 -73 -34 -34 7
11 10 23 7 25 -5 5 -95 -126 -113 -166 -4 -8 -17 -28 -28 -45 -52 -72 -206
-397 -206 -434 0 -17 16 12 115 204 89 174 124 234 163 282 31 40 43 71 21 57
-8 -5 -8 -1 0 14 6 12 16 24 23 28 7 4 8 3 4 -4 -4 -7 -3 -12 2 -12 10 0 55
56 65 80 5 13 6 13 6 -1 1 -9 -29 -58 -66 -108 -89 -122 -130 -191 -204 -341
-34 -69 -71 -135 -82 -147 -11 -12 -26 -44 -33 -70 -49 -180 -92 -315 -125
-388 -34 -76 -181 -370 -205 -410 -13 -22 -34 -58 -45 -79 -31 -57 -135 -211
-197 -291 -30 -38 -118 -132 -196 -207 -78 -76 -139 -144 -138 -150 2 -7 1
-10 -3 -6 -4 4 -37 -17 -74 -46 -36 -29 -130 -93 -209 -142 l-143 -89 -24 -78
c-14 -43 -25 -85 -25 -93 0 -7 -7 -14 -15 -14 -9 0 -15 9 -14 23 0 21 1 21 8
2 7 -17 9 -16 16 13 4 18 4 36 1 39 -3 4 -6 -2 -6 -12 0 -10 -2 -16 -5 -13 -3
3 2 36 10 74 8 38 18 79 20 91 3 14 13 23 24 23 10 0 33 11 52 25 19 13 48 32
64 41 140 79 314 227 464 394 69 78 100 115 174 205 56 69 157 230 152 242 -7
18 -13 40 -7 29 2 -4 9 -2 14 5 6 10 7 6 3 -11 -12 -44 10 -10 91 140 70 129
118 227 201 410 14 30 33 73 44 96 10 23 19 46 19 52 0 6 6 26 14 44 8 18 24
65 36 103 12 39 27 84 33 100 19 49 151 306 188 365 19 31 39 63 44 72 6 9 37
57 70 107 56 85 85 111 85 76z m7 -67 c-3 -8 -6 -5 -6 6 -1 11 2 17 5 13 3 -3
4 -12 1 -19z m-789 -292 c18 -20 38 -36 44 -36 16 0 68 -51 68 -67 0 -16 -18
-16 -76 -2 -25 7 -44 17 -44 25 0 8 -6 14 -12 14 -17 0 -57 63 -64 100 -5 24
-3 29 17 32 16 2 26 -3 29 -14 3 -9 20 -32 38 -52z m222 -187 c0 -5 16 -15 35
-23 19 -8 35 -19 35 -24 0 -6 16 -13 35 -16 20 -4 35 -13 35 -21 0 -57 -56
-62 -112 -10 -21 20 -38 39 -38 44 0 5 -7 11 -15 15 -15 5 -21 37 -9 49 8 8
34 -3 34 -14z m-340 -1350 c0 -5 -7 -9 -15 -9 -15 0 -20 12 -9 23 8 8 24 -1
24 -14z m-70 -74 c0 -8 -7 -15 -15 -15 -16 0 -20 12 -8 23 11 12 23 8 23 -8z
m-4330 -132 c16 -24 34 -52 40 -63 21 -39 2 -19 -40 43 -24 34 -54 78 -68 97
l-24 35 32 -35 c17 -19 44 -54 60 -77z m80 -133 c11 -22 19 -40 16 -40 -4 0
-46 68 -46 76 0 13 12 -1 30 -36z m630 -410 l2 25 8 -25 c4 -14 8 -34 8 -45 0
-16 -2 -15 -8 5 -7 21 -8 22 -10 5 l-1 -20 -9 20 c-5 11 -8 29 -8 40 0 16 2
15 8 -5 l8 -25 2 25z"/>
<path d="M7345 4740 c3 -5 13 -10 21 -10 8 0 12 5 9 10 -3 6 -13 10 -21 10 -8
0 -12 -4 -9 -10z"/>
<path d="M7255 4710 c3 -5 16 -10 28 -11 20 -1 20 -2 -3 -9 -30 -10 -5 -12 29
-3 22 6 22 6 -9 19 -38 17 -53 18 -45 4z"/>
<path d="M5687 5164 c-4 -4 -50 -22 -104 -40 -54 -18 -90 -33 -81 -34 10 0 53
13 97 29 82 30 124 50 105 51 -6 0 -14 -3 -17 -6z"/>
<path d="M12040 4774 c0 -5 5 -15 11 -21 5 -5 19 -50 29 -99 12 -59 19 -77 19
-54 1 47 -26 151 -44 170 -8 8 -15 10 -15 4z"/>
<path d="M11078 4504 c12 -8 22 -24 22 -34 0 -19 -53 -66 -107 -94 -34 -17
-88 -22 -97 -7 -3 4 5 6 19 4 36 -7 89 14 134 54 41 35 50 56 31 68 -17 10
-94 -30 -138 -72 -44 -41 -53 -43 -26 -5 9 13 11 22 4 22 -14 0 -39 -60 -33
-77 7 -18 77 -16 116 3 51 26 104 72 110 95 6 22 -23 59 -45 59 -7 0 -2 -7 10
-16z"/>
<path d="M8734 4204 c-80 -126 -94 -150 -94 -166 0 -8 -12 -30 -26 -49 -14
-19 -34 -50 -43 -69 -20 -42 -69 -119 -88 -138 -7 -8 -11 -17 -8 -22 3 -5 -4
-25 -16 -45 -12 -20 -19 -38 -16 -42 14 -13 38 10 67 64 48 90 98 172 115 189
8 8 15 21 15 29 0 7 18 42 39 77 50 83 114 223 109 239 -2 7 -27 -23 -54 -67z"/>
<path d="M9074 4215 c-9 -14 -22 -25 -29 -25 -8 0 -24 -15 -37 -32 -12 -18
-36 -47 -53 -64 -29 -30 -65 -77 -179 -234 -30 -41 -68 -93 -84 -115 -31 -41
-51 -95 -36 -95 14 1 63 44 87 77 12 17 47 64 77 104 30 41 68 93 83 117 32
50 128 178 154 207 19 20 53 72 53 80 0 14 -22 2 -36 -20z"/>
<path d="M8374 4229 c-7 -8 -19 -30 -28 -49 -9 -19 -33 -66 -54 -105 -20 -38
-43 -89 -50 -113 -7 -23 -31 -79 -52 -124 -46 -95 -54 -136 -17 -91 33 39 127
227 127 252 0 5 11 29 25 52 14 24 25 51 25 59 0 8 9 33 21 54 22 41 24 92 3
65z"/>
<path d="M9213 4022 c-32 -37 -77 -89 -98 -117 -22 -27 -61 -75 -87 -104 -51
-58 -57 -71 -34 -71 22 0 301 346 287 355 -5 3 -36 -25 -68 -63z"/>
<path d="M5888 4101 c-27 -26 -48 -51 -48 -55 0 -4 -19 -32 -42 -63 -24 -30
-71 -94 -106 -142 -35 -47 -70 -90 -78 -94 -8 -4 -14 -15 -14 -22 0 -8 -15
-36 -34 -62 -41 -58 -80 -148 -71 -162 14 -24 28 -8 94 114 23 42 142 218 156
230 6 6 23 29 39 53 15 24 41 60 59 80 31 35 107 153 107 166 0 14 -18 2 -62
-43z"/>
<path d="M6109 4054 c-57 -71 -112 -148 -235 -332 -42 -61 -81 -115 -88 -120
-6 -4 -17 -18 -24 -32 -26 -51 -64 -115 -77 -130 -18 -20 -30 -80 -16 -80 16
0 38 40 52 92 6 26 15 45 20 42 5 -3 9 0 9 7 0 7 11 27 25 45 14 18 25 40 25
48 0 9 6 13 14 10 10 -4 20 6 30 31 9 21 29 51 46 68 16 17 30 35 30 39 0 11
53 92 63 96 4 2 13 18 21 36 7 17 27 46 45 63 17 17 31 39 31 47 0 9 4 16 10
16 10 0 84 110 77 116 -2 2 -28 -26 -58 -62z"/>
<path d="M6401 4113 c-1 -7 -65 -108 -143 -223 -151 -223 -181 -270 -172 -270
7 0 -59 -94 -69 -98 -16 -8 -58 -113 -52 -132 8 -25 23 -26 32 -2 4 9 24 42
45 73 21 31 38 60 38 64 0 4 17 31 37 59 20 28 49 74 64 101 14 28 38 72 53
98 14 26 26 53 26 58 0 6 13 29 29 52 15 23 31 52 35 64 4 12 20 36 35 52 33
35 55 84 48 103 -4 10 -6 10 -6 1z"/>
<path d="M8245 3274 c-323 -55 -494 -70 -1460 -124 -179 -10 -553 -52 -522
-58 10 -2 71 3 135 12 157 20 321 33 597 46 377 18 702 40 840 55 188 22 477
65 500 75 28 12 5 11 -90 -6z"/>
<path d="M8657 2957 c-82 -34 -144 -63 -139 -65 6 -2 30 6 54 16 24 11 90 39
148 62 112 46 121 50 99 49 -8 0 -81 -28 -162 -62z"/>
<path d="M7751 2043 c-29 -130 -33 -179 -29 -325 5 -135 30 -309 44 -295 3 2
-3 33 -11 68 -10 38 -18 130 -22 224 -4 139 -2 174 16 264 22 102 23 157 2 64z"/>
<path d="M9765 2968 c2 -18 7 -54 9 -81 6 -49 31 -105 66 -146 27 -32 34 -22
15 22 -8 20 -15 44 -15 53 0 9 -6 22 -14 28 -17 14 -46 89 -46 121 0 13 -4 26
-9 30 -6 3 -8 -8 -6 -27z"/>
<path d="M10780 2825 c-12 -20 -20 -38 -17 -41 2 -3 15 11 27 31 12 20 20 38
17 41 -2 3 -15 -11 -27 -31z"/>
<path d="M10725 2680 c3 -5 8 -10 11 -10 2 0 4 5 4 10 0 6 -5 10 -11 10 -5 0
-7 -4 -4 -10z"/>
<path d="M10381 2047 c-89 -276 -383 -841 -538 -1032 -205 -253 -355 -404
-508 -512 -55 -38 -113 -78 -130 -87 -16 -9 -45 -28 -64 -41 -19 -14 -42 -25
-52 -25 -19 0 -32 -35 -43 -115 -5 -34 -3 -31 17 23 13 38 31 68 44 75 164 91
318 203 442 320 172 162 282 279 276 295 -3 7 -1 11 4 8 15 -9 129 153 242
344 40 67 171 328 219 435 43 95 128 370 118 380 -2 2 -14 -28 -27 -68z m-581
-1122 c-7 -9 -15 -13 -17 -11 -6 6 20 36 26 30 2 -2 -2 -10 -9 -19z"/>
<path d="M9960 2539 c0 -20 54 -99 68 -99 6 0 12 -7 12 -15 0 -8 16 -19 38
-24 61 -18 68 -14 37 19 -16 17 -34 30 -41 30 -16 0 -72 58 -80 83 -6 19 -34
24 -34 6z"/>
<path d="M10230 2307 c0 -9 4 -18 9 -21 5 -4 8 1 7 9 -3 21 -16 31 -16 12z"/>
<path d="M10260 2268 c0 -19 76 -78 100 -78 11 0 23 7 27 16 7 18 -12 34 -39
34 -10 0 -27 9 -38 20 -22 22 -50 27 -50 8z"/>
<path d="M7800 7183 c19 -8 46 -21 60 -28 14 -7 59 -24 100 -39 41 -15 91 -39
110 -54 66 -52 152 -137 188 -187 20 -27 70 -93 112 -145 78 -97 122 -158 204
-289 44 -68 48 -72 61 -55 8 11 14 24 14 29 0 6 -6 2 -13 -8 -12 -16 -16 -13
-47 35 -86 138 -130 201 -204 293 -45 55 -97 123 -117 150 -31 43 -102 115
-183 185 -23 20 -171 92 -236 114 -59 21 -96 20 -49 -1z"/>
<path d="M8731 7178 c-2 -43 18 -276 30 -353 29 -183 78 -342 186 -599 l59
-139 -13 -146 c-17 -195 -22 -224 -81 -451 -28 -107 -75 -319 -105 -470 -70
-348 -69 -347 -58 -354 12 -8 17 10 31 99 13 84 15 90 84 375 53 217 89 343
142 498 14 40 21 78 17 85 -5 8 -10 4 -15 -13 -9 -28 -4 3 13 100 6 30 14 100
18 155 l8 100 -33 65 c-33 66 -81 182 -149 364 -67 179 -93 310 -123 621 -5
50 -10 78 -11 63z m298 -1151 c0 -21 -1 -21 -9 -2 -12 28 -12 37 0 30 6 -3 10
-16 9 -28z m1 -47 c0 -11 -4 -20 -9 -20 -5 0 -7 9 -4 20 3 11 7 20 9 20 2 0 4
-9 4 -20z m-78 -448 c-7 -5 -10 -17 -7 -28 6 -17 6 -18 -5 -1 -12 19 -6 37 13
37 9 0 8 -3 -1 -8z m-25 -54 c-3 -8 -6 -5 -6 6 -1 11 2 17 5 13 3 -3 4 -12 1
-19z"/>
<path d="M7730 5885 c-33 -19 -12 -19 31 0 24 10 28 14 14 14 -11 0 -31 -6
-45 -14z"/>
<path d="M7725 5815 c22 -8 65 -17 95 -20 l55 -4 -48 9 c-27 5 -62 13 -79 19
-17 6 -38 11 -47 11 -9 -1 2 -7 24 -15z"/>
<path d="M4555 5430 c-8 -13 5 -13 25 0 13 8 13 10 -2 10 -9 0 -20 -4 -23 -10z"/>
<path d="M7551 4980 c0 -19 -7 -68 -15 -108 -10 -53 -11 -72 -2 -69 12 4 29
144 23 187 -3 18 -4 15 -6 -10z"/>
<path d="M8638 4773 c6 -2 18 -2 25 0 6 3 1 5 -13 5 -14 0 -19 -2 -12 -5z"/>
<path d="M8399 4668 c-12 -23 -12 -23 10 -4 23 21 26 26 11 26 -5 0 -15 -10
-21 -22z"/>
<path d="M9832 4575 c0 -16 2 -22 5 -12 2 9 2 23 0 30 -3 6 -5 -1 -5 -18z"/>
<path d="M5770 4520 c-34 -7 -34 -7 -5 -8 17 0 39 3 50 8 24 10 4 10 -45 0z"/>
<path d="M10530 4380 c0 -5 -5 -9 -11 -7 -6 1 -14 -4 -16 -10 -7 -20 22 -15
42 7 16 18 16 20 2 20 -10 0 -17 -4 -17 -10z"/>
<path d="M6151 203 c0 -5 18 -37 39 -73 22 -36 47 -80 57 -98 9 -17 23 -32 30
-32 13 0 1 24 -45 95 -75 118 -83 128 -81 108z"/>
</g>
</svg>
