<?xml version="1.0" standalone="no"?>
<!DOCTYPE svg PUBLIC "-//W3C//DTD SVG 20010904//EN"
 "http://www.w3.org/TR/2001/REC-SVG-20010904/DTD/svg10.dtd">
<svg version="1.0" xmlns="http://www.w3.org/2000/svg"
 width="1280.000000pt" height="720.000000pt" viewBox="0 0 1280.000000 720.000000"
 preserveAspectRatio="xMidYMid meet">
<metadata>
Created by potrace 1.16, written by Peter Selinger 2001-2019
</metadata>
<g transform="translate(0.000000,720.000000) scale(0.100000,-0.100000)"
fill="#000000" stroke="none">
<path d="M0 3600 l0 -3600 2770 0 2770 0 0 28 c0 15 -7 54 -14 87 -8 33 -22
125 -31 205 -34 287 -52 391 -72 418 -31 42 -87 175 -132 309 -137 411 -171
586 -178 919 -6 261 10 464 52 644 13 58 33 175 45 260 11 85 23 169 26 185 3
17 14 84 24 150 32 210 142 833 165 938 11 49 13 73 5 87 -8 15 -7 34 6 74
l17 54 -46 119 c-46 117 -108 301 -122 358 -6 27 -43 116 -66 157 -5 10 -9 25
-9 33 0 11 -12 15 -52 15 -59 0 -250 53 -343 95 -82 37 -174 104 -210 155 -66
92 -53 84 -130 70 -96 -18 -364 -7 -465 19 -180 46 -249 92 -294 196 -15 33
-33 73 -41 89 -9 16 -13 31 -11 34 3 2 23 -35 46 -84 61 -132 125 -180 295
-224 107 -27 363 -38 470 -20 71 12 77 12 90 -6 8 -10 14 -14 15 -9 0 19 -15
33 -40 38 -21 3 -19 5 8 6 18 0 43 6 55 12 22 10 22 10 -1 -10 l-22 -19 33
-44 c72 -94 199 -165 400 -224 138 -40 284 -60 337 -46 201 55 273 78 324 103
32 16 63 28 70 25 6 -2 3 -5 -6 -5 -9 -1 -20 -6 -24 -12 -4 -8 0 -9 15 -4 11
3 21 4 21 1 0 -7 -106 -56 -122 -56 -10 0 -10 -2 1 -9 11 -7 11 -10 0 -15 -8
-3 -5 -4 6 -3 11 2 19 9 18 15 -2 7 2 12 7 12 6 0 10 -6 10 -13 0 -12 -66 -48
-86 -46 -5 0 0 4 10 8 11 4 20 15 22 24 3 21 9 21 -72 -5 -38 -12 -94 -22
-124 -23 -57 -2 -169 -21 -178 -29 -4 -5 89 -218 193 -441 54 -115 64 -144 54
-150 -5 -4 -9 0 -9 8 0 9 -49 123 -109 256 -60 132 -112 250 -116 261 -4 12
-9 19 -12 16 -3 -2 9 -40 25 -83 17 -43 47 -130 67 -193 20 -63 56 -165 81
-226 24 -61 44 -118 44 -126 0 -8 -7 -35 -16 -61 -12 -34 -13 -51 -5 -66 9
-15 8 -38 -4 -88 -23 -105 -133 -728 -165 -938 -10 -66 -21 -133 -24 -150 -3
-16 -17 -111 -31 -210 -13 -99 -33 -214 -44 -255 -59 -230 -67 -725 -17 -995
28 -153 41 -205 80 -338 71 -240 150 -443 198 -507 20 -28 23 -43 68 -385 45
-334 51 -365 73 -365 13 0 17 5 13 18 -3 9 -16 105 -30 212 -30 234 -44 322
-57 373 -6 22 -8 41 -6 43 11 12 35 -122 73 -416 14 -107 27 -203 30 -212 5
-17 29 -18 331 -18 l325 0 -23 38 c-63 105 -109 195 -105 206 2 6 5 3 5 -6 1
-9 6 -20 12 -24 8 -4 9 1 4 17 -5 17 1 12 22 -16 34 -47 92 -137 119 -182 l18
-33 3248 0 3248 0 0 3600 0 3600 -1495 0 c-822 0 -1495 -3 -1495 -6 0 -7 117
-356 130 -389 48 -119 126 -421 134 -524 4 -41 12 -95 17 -120 15 -63 4 -265
-26 -481 -14 -96 -26 -188 -28 -205 -2 -16 -9 -43 -16 -60 -19 -44 -49 -193
-66 -330 -18 -136 -52 -317 -68 -355 -5 -14 -11 -99 -12 -190 -2 -91 -10 -221
-19 -290 -8 -69 -25 -210 -36 -315 -23 -206 -57 -397 -90 -496 -11 -34 -20
-64 -20 -65 0 -5 52 32 156 109 86 64 93 72 115 130 33 89 167 328 228 407 15
19 35 52 44 72 10 21 49 74 87 120 44 52 66 84 59 89 -14 8 -3 29 14 29 8 0 8
-3 -2 -9 -9 -6 -10 -11 -2 -15 6 -4 35 16 66 45 40 38 60 50 75 46 14 -3 42 9
85 39 35 24 67 44 70 44 3 0 27 16 54 35 26 19 51 35 54 35 3 0 36 18 74 39
142 81 505 221 638 246 39 7 97 19 130 25 158 32 364 -26 365 -102 0 -26 -23
-27 -44 0 -37 47 -99 65 -231 66 -107 1 -129 -2 -200 -27 -44 -15 -89 -32
-100 -37 -11 -4 -63 -23 -115 -40 -225 -75 -435 -178 -660 -326 -58 -38 -110
-71 -116 -74 -6 -3 -33 -21 -59 -40 -101 -73 -178 -165 -283 -337 -26 -44 -58
-92 -70 -107 -11 -15 -24 -37 -28 -49 -3 -12 -12 -29 -19 -37 -23 -27 -95
-178 -95 -199 0 -21 -84 -111 -102 -111 -5 0 -33 -19 -63 -42 -29 -24 -72 -56
-94 -71 -33 -23 -111 -122 -111 -142 0 -2 -14 -26 -31 -54 -17 -27 -37 -76
-45 -108 -22 -95 -27 -285 -11 -403 15 -112 14 -133 -11 -128 -23 5 -48 97
-57 209 -7 107 15 307 40 356 8 15 15 32 15 38 0 5 16 33 36 62 37 54 39 90 3
57 -24 -22 -25 -41 -2 -23 16 13 17 12 4 -3 -14 -19 -31 -15 -31 5 0 7 29 42
64 78 55 58 65 75 79 130 41 165 60 270 83 469 14 118 38 323 54 455 15 132
28 226 29 209 1 -18 -10 -128 -24 -245 -80 -682 -72 -631 -132 -888 -14 -62
-24 -82 -60 -120 -31 -33 -40 -48 -32 -57 12 -14 2 -38 -36 -89 -59 -80 -94
-290 -77 -461 10 -103 35 -185 51 -168 5 5 2 55 -6 114 -9 70 -12 144 -9 220
10 189 18 217 113 384 38 66 105 136 130 136 6 0 18 9 28 20 10 11 43 36 72
56 69 46 123 100 123 123 0 25 119 260 148 289 7 8 20 28 29 45 48 93 209 316
248 344 14 10 47 34 73 54 26 20 54 39 62 43 8 3 49 29 90 56 155 101 293 181
385 221 28 12 74 32 103 45 29 13 55 24 58 24 3 0 20 6 37 14 18 8 41 16 52
19 25 6 133 45 160 56 11 5 58 22 105 38 75 25 99 28 206 28 132 -1 182 -14
237 -64 33 -30 36 -14 4 21 -49 53 -219 83 -332 59 -22 -5 -76 -16 -120 -25
-171 -34 -481 -157 -682 -270 -67 -37 -272 -172 -313 -205 -14 -11 -29 -21
-35 -20 -5 0 -2 4 7 10 9 5 15 15 12 22 -3 8 -25 -7 -58 -38 -68 -64 -196
-213 -196 -227 0 -6 -18 -38 -41 -71 -99 -145 -239 -398 -254 -459 -5 -19 -35
-48 -98 -95 -195 -144 -192 -143 -157 -34 33 99 67 290 90 496 11 105 28 246
36 315 9 69 17 199 18 290 1 91 5 170 9 176 12 20 55 235 67 334 14 126 47
300 70 375 23 74 67 399 76 560 4 74 2 140 -4 171 -6 27 -14 81 -17 119 -10
114 -81 388 -134 520 -5 11 -32 92 -61 180 -29 88 -58 175 -64 193 -6 17 -15
32 -19 32 -9 0 0 -54 13 -80 12 -22 144 -432 169 -520 62 -225 100 -571 76
-690 -3 -14 -12 -79 -21 -145 -64 -483 -113 -750 -189 -1034 -26 -97 -33 -187
-15 -176 6 3 10 1 10 -4 0 -6 -7 -11 -15 -11 -23 0 -19 81 10 191 73 273 127
569 189 1034 9 66 18 130 21 142 12 54 5 256 -14 373 -43 272 -42 266 -186
707 l-70 213 -509 0 -509 0 7 -102 c9 -129 30 -283 52 -379 17 -75 92 -296
117 -346 8 -15 20 -46 27 -68 7 -22 34 -84 61 -137 47 -95 48 -98 43 -170 -3
-40 -12 -115 -20 -167 -12 -75 -13 -95 -3 -102 10 -6 7 -25 -13 -86 -78 -231
-187 -641 -218 -823 -23 -139 -32 -170 -45 -170 -16 0 -26 25 -19 45 7 18 8
18 -36 5 -19 -6 -75 -17 -125 -25 -49 -9 -103 -18 -120 -21 -16 -4 -27 -3 -24
0 4 4 56 15 116 25 120 21 193 39 193 47 0 3 -15 3 -32 0 l-33 -5 31 10 c31
11 32 14 62 153 17 77 45 213 62 301 17 88 47 219 67 290 62 225 79 323 88
500 6 109 5 124 -14 160 -12 21 -21 43 -21 48 0 5 -6 23 -14 40 -137 305 -214
637 -203 882 3 61 2 74 -3 40 l-7 -50 -1 53 -2 52 -437 -1 c-241 0 -431 -3
-423 -6 86 -31 214 -97 248 -127 111 -98 274 -290 395 -465 22 -31 43 -55 49
-53 5 1 7 -2 3 -8 -8 -13 64 -132 76 -125 14 9 11 27 -3 19 -7 -4 -10 -4 -6 1
4 4 -6 25 -23 46 -17 22 -26 39 -21 39 12 0 51 -51 80 -105 25 -45 52 -145 52
-188 0 -29 -24 -115 -43 -155 -8 -16 -7 -75 1 -215 7 -106 12 -258 12 -339 0
-81 5 -259 11 -395 15 -338 16 -345 3 -350 -6 -2 -11 2 -12 9 -1 7 -9 58 -17
113 -10 63 -19 244 -26 490 -5 215 -12 454 -16 533 -3 97 -1 157 7 186 6 24
15 80 19 126 l7 83 -36 42 c-20 23 -63 86 -97 141 -34 54 -83 126 -110 159
-27 33 -91 116 -143 184 -128 169 -193 219 -370 290 -74 30 -136 58 -138 63
-2 4 -352 8 -778 8 -612 0 -774 -3 -774 -12 0 -10 -3 -10 -9 0 -13 21 -31 -41
-31 -106 0 -110 156 -382 271 -473 42 -33 241 -129 304 -147 82 -23 223 -42
306 -42 86 0 87 0 92 -28 3 -15 28 -52 54 -83 27 -31 81 -98 120 -150 88 -116
175 -203 244 -243 64 -38 81 -62 57 -79 -12 -10 -20 -48 -32 -167 -9 -85 -16
-183 -16 -217 0 -146 -65 -610 -97 -693 -3 -8 -5 -24 -4 -35 1 -13 -1 -16 -6
-8 -6 9 -44 0 -143 -33 -125 -42 -254 -69 -222 -46 7 5 25 7 40 5 20 -3 23 -2
12 5 -8 6 -33 13 -55 16 -29 5 -34 4 -20 -3 19 -9 19 -10 -2 -10 -14 -1 -23 5
-23 14 0 9 9 15 23 15 13 0 62 11 110 25 68 20 92 23 108 15 22 -12 63 -4 54
11 -4 5 -13 9 -21 9 -8 0 -12 -4 -9 -10 4 -6 -1 -7 -11 -3 -14 5 -13 8 7 19
13 7 30 13 38 14 7 0 36 11 65 25 39 20 45 21 26 6 -22 -17 -23 -21 -8 -26 23
-9 35 0 41 32 3 16 13 62 22 103 21 99 65 475 65 553 0 120 32 381 48 393 13
9 10 15 -19 35 -19 14 -46 31 -61 39 -41 20 -148 132 -229 240 -40 52 -91 116
-115 143 -23 26 -45 61 -49 77 l-7 30 -81 0 c-205 0 -472 82 -614 188 -49 36
-136 148 -178 230 -21 39 -42 72 -47 72 -5 0 -7 4 -4 9 3 5 -6 34 -20 66 -22
48 -25 67 -22 123 3 37 8 75 13 85 7 16 -144 17 -3084 17 l-3091 0 0 -3600z
m6196 3501 c-1 -65 2 -76 59 -187 105 -207 165 -272 330 -355 134 -67 255 -98
415 -105 112 -5 354 7 420 21 l25 6 -25 -11 c-39 -17 -284 -32 -420 -26 -196
9 -361 60 -538 168 -80 49 -231 284 -272 425 -10 34 -7 133 4 133 1 0 2 -31 2
-69z m-31 -170 c-23 -10 -248 -57 -310 -65 -42 -6 -318 -48 -420 -64 -149 -24
-271 -56 -302 -79 -50 -37 -68 -145 -37 -228 5 -15 4 -17 -4 -10 -18 16 -26
124 -13 170 26 98 80 116 571 190 91 14 183 28 205 31 56 7 289 55 294 60 2 2
11 4 20 3 12 0 10 -3 -4 -8z m21 -20 c-3 -4 -34 -14 -68 -21 -35 -7 -88 -18
-118 -25 -30 -8 -82 -16 -115 -20 -32 -4 -62 -8 -65 -10 -6 -4 -28 -7 -270
-40 -63 -8 -144 -21 -180 -29 -36 -8 -94 -20 -130 -27 -48 -9 -73 -20 -97 -41
-33 -32 -46 -71 -33 -97 5 -9 17 -38 27 -66 13 -38 39 -72 113 -146 85 -87
106 -101 200 -146 58 -28 126 -55 151 -62 90 -21 264 -41 358 -40 114 0 195
14 366 62 50 14 115 32 145 40 30 8 63 18 73 22 12 5 17 2 17 -8 0 -27 -61
-54 -205 -91 -170 -44 -229 -59 -234 -62 -1 -2 34 -40 79 -86 45 -46 113 -120
151 -164 80 -95 105 -115 214 -175 l80 -44 120 1 c66 0 145 6 175 13 75 18
227 74 283 105 25 14 52 26 59 26 19 -1 -75 -49 -172 -87 -127 -51 -209 -66
-345 -67 l-120 -1 -84 43 c-110 57 -137 78 -220 176 -38 44 -108 121 -156 169
-48 48 -85 90 -82 93 6 7 225 66 323 89 39 9 83 26 99 40 l30 23 -60 -17 c-33
-10 -82 -24 -110 -30 -27 -6 -79 -20 -115 -30 -36 -11 -83 -24 -105 -31 -72
-20 -279 -24 -404 -6 -127 18 -223 41 -261 61 -14 8 -56 28 -95 46 -53 24 -90
52 -151 113 -45 45 -91 97 -103 116 -13 21 -21 28 -21 18 0 -22 82 -121 155
-186 67 -59 231 -144 320 -166 103 -25 205 -38 342 -43 l132 -5 113 -114 c61
-62 117 -122 122 -132 31 -53 150 -160 203 -181 l31 -13 4 -144 c3 -149 2
-170 -27 -564 -9 -129 -14 -259 -11 -288 l6 -53 -52 -23 c-29 -13 -58 -22 -63
-20 -6 3 -21 31 -33 63 -13 33 -30 65 -38 71 -7 7 -14 18 -14 26 0 7 -20 55
-43 106 -216 461 -242 504 -406 671 -130 132 -130 132 -306 212 -58 27 -201
85 -370 151 -66 26 -138 54 -160 64 -129 55 -368 112 -468 112 -73 0 -441 -76
-568 -117 -59 -18 -135 -41 -170 -50 -65 -17 -169 -63 -169 -76 0 -4 26 4 58
17 31 13 67 24 79 24 12 0 32 4 45 9 98 40 340 104 523 137 192 36 216 38 277
24 82 -19 140 -31 173 -36 43 -8 228 -72 305 -106 36 -16 135 -57 220 -90 85
-33 187 -74 225 -92 39 -19 88 -39 110 -46 30 -9 73 -46 171 -144 72 -72 147
-156 166 -186 36 -55 206 -397 253 -509 13 -32 34 -75 45 -94 12 -20 30 -59
40 -87 15 -42 16 -52 5 -56 -20 -8 -35 4 -35 29 -1 12 -7 36 -15 52 -14 29
-15 28 -9 -25 7 -66 23 -86 72 -93 31 -3 47 3 97 35 l60 40 10 -25 c5 -13 15
-22 21 -20 6 2 24 -3 39 -11 34 -18 40 -15 26 12 -23 42 -53 182 -63 291 -7
84 -7 172 1 316 7 111 9 258 6 327 -7 128 -3 155 18 141 56 -36 187 -43 345
-18 131 21 174 33 166 47 -4 7 -3 8 4 4 15 -9 63 4 56 15 -3 5 7 14 21 19 34
13 44 13 25 -1 -12 -8 -11 -10 5 -7 11 2 20 9 20 15 0 16 36 42 58 43 26 0 16
-22 -20 -42 -158 -93 -556 -150 -662 -96 l-33 17 6 -132 c4 -72 2 -222 -5
-332 -8 -144 -8 -232 -1 -315 10 -111 44 -265 63 -284 12 -13 12 -46 0 -46 -5
0 -22 5 -38 12 -15 6 -36 10 -45 9 -10 -1 -18 4 -18 13 0 28 -17 26 -61 -6
-37 -27 -52 -32 -94 -30 -28 1 -56 9 -65 17 -8 9 -20 49 -26 90 -10 72 -10 74
8 58 10 -9 24 -37 32 -62 7 -25 18 -47 24 -49 13 -4 -21 85 -53 138 -11 19
-29 55 -40 80 -46 108 -220 460 -253 510 -51 78 -265 294 -315 318 -102 51
-253 115 -387 166 -80 30 -175 68 -212 85 -78 35 -229 87 -273 95 -33 5 -91
17 -173 36 -61 14 -85 12 -277 -24 -146 -26 -293 -62 -392 -95 -54 -18 -106
-33 -210 -60 -23 -6 -54 -18 -69 -26 -29 -15 -44 -12 -44 9 0 16 92 60 155 75
28 7 106 30 175 51 146 46 511 122 587 122 28 0 78 -6 110 -12 89 -17 266 -61
288 -70 127 -55 257 -106 390 -155 11 -4 55 -22 97 -41 43 -19 80 -34 83 -34
6 0 96 -41 182 -82 24 -12 94 -74 166 -147 132 -134 186 -212 272 -396 23 -49
64 -135 89 -190 26 -55 56 -117 67 -138 10 -22 19 -45 19 -52 0 -7 6 -18 14
-24 8 -6 24 -39 36 -72 22 -59 23 -60 54 -53 17 4 41 13 53 21 19 13 21 21 17
61 -3 26 2 153 11 282 29 396 30 421 25 564 l-5 139 -30 10 c-48 15 -170 124
-201 179 -5 10 -61 70 -122 132 l-113 114 -127 5 c-226 8 -365 38 -512 110
-91 45 -117 64 -195 142 -83 82 -136 160 -134 197 0 7 5 2 10 -11 5 -13 12
-22 14 -19 7 6 -16 71 -27 79 -19 12 5 84 37 115 26 24 48 33 106 43 41 7 88
17 104 22 17 5 80 15 140 24 124 17 224 32 305 46 30 5 75 11 100 14 58 8 233
45 298 64 2 1 1 -3 -2 -8z m3655 -28 c-8 -15 -10 -15 -11 -2 0 17 10 32 18 25
2 -3 -1 -13 -7 -23z m-2390 -427 c-6 -7 -44 -18 -84 -24 -88 -14 -203 -21
-185 -11 7 3 54 9 103 12 50 3 108 12 130 20 22 8 42 15 44 16 2 0 -2 -5 -8
-13z m-169 -185 c91 -120 102 -131 111 -119 6 9 7 6 4 -9 -3 -13 -1 -26 4 -29
5 -3 9 7 9 23 1 25 2 24 15 -12 29 -82 163 -170 320 -209 49 -12 241 -36 292
-36 7 0 10 -7 7 -15 -4 -9 -18 -15 -33 -14 l-26 1 25 8 c16 5 -5 7 -55 5 -67
-2 -72 -1 -30 5 40 6 35 7 -30 4 -44 -2 -91 -7 -105 -10 -14 -4 -22 -4 -19 0
3 4 26 11 50 16 l44 9 -49 -3 c-27 -2 -43 0 -36 4 7 5 -2 10 -24 14 -71 14
-159 46 -216 81 -55 33 -120 95 -120 114 0 5 -6 8 -13 7 -12 -1 -107 105 -107
120 0 4 -29 40 -65 81 -36 41 -65 79 -65 85 0 11 64 -58 112 -121z m-1749 -28
c-7 -2 -19 -2 -25 0 -7 3 -2 5 12 5 14 0 19 -2 13 -5z m3094 -88 c0 -8 -4 -15
-9 -15 -4 0 -8 7 -8 15 0 8 4 15 8 15 5 0 9 -7 9 -15z m-899 -260 c13 5 14 3
5 -6 -13 -13 -63 -4 -63 12 0 6 7 6 21 -1 11 -7 28 -9 37 -5z m23 -24 c-11 -7
-3 -12 30 -21 64 -16 70 -21 19 -14 -25 3 -49 10 -54 15 -13 12 -46 11 -46 -1
0 -5 5 -10 12 -10 6 0 9 -3 5 -6 -3 -3 -16 1 -28 9 l-22 16 29 6 c16 4 34 8
39 10 20 7 30 4 16 -4z m163 -28 c27 -8 0 -23 -39 -22 -30 2 -30 2 5 9 l35 7
-30 3 c-16 1 -41 6 -55 11 -18 6 -13 7 20 3 25 -3 53 -8 64 -11z m-229 -13
c22 -11 46 -20 54 -20 8 0 12 -3 8 -6 -8 -8 -80 16 -89 30 -12 18 -16 -11 -27
-199 -7 -99 -16 -198 -22 -220 -6 -24 -10 -157 -9 -328 1 -318 -3 -357 -30
-357 -11 0 -20 9 -22 21 -3 21 -4 20 -36 -9 -23 -22 -32 -26 -30 -14 2 9 22
27 44 39 l41 23 -5 -25 c-6 -33 14 -32 22 0 4 14 6 157 6 318 -1 173 3 308 9
332 6 22 15 119 21 215 11 163 16 220 23 220 2 0 20 -9 42 -20z m160 -21 c33
-5 92 -9 130 -9 39 -1 88 -5 110 -9 39 -7 39 -8 -29 -16 -73 -8 -221 -1 -271
14 -29 9 -29 9 -5 11 21 1 19 4 -15 16 -28 9 -31 12 -10 8 17 -3 57 -10 90
-15z m-228 -26 c-3 -10 -5 -4 -5 12 0 17 2 24 5 18 2 -7 2 -21 0 -30z m581 25
c-3 -7 -20 -14 -39 -15 l-34 -1 35 8 c28 7 21 8 -30 5 -45 -2 -56 -1 -35 5 50
13 107 12 103 -2z m-4428 -43 c0 -8 -7 -15 -15 -15 -8 0 -15 7 -15 15 0 8 7
15 15 15 8 0 15 -7 15 -15z m-113 -42 c-3 -10 -5 -2 -5 17 0 19 2 27 5 18 2
-10 2 -26 0 -35z m61 -75 c83 -182 211 -236 602 -252 117 -5 150 -4 170 8 53
31 187 96 198 96 40 0 -24 -60 -72 -67 -11 -2 -25 -8 -33 -14 -7 -6 -20 -9
-28 -5 -9 3 -32 -3 -53 -15 -34 -18 -48 -19 -182 -14 -294 13 -443 50 -529
129 -38 36 -121 199 -120 236 1 23 2 23 9 -5 4 -16 21 -60 38 -97z m3222 31
c0 -5 -4 -8 -9 -5 -5 4 -12 0 -14 -6 -3 -8 -6 -6 -6 5 -1 9 6 17 14 17 8 0 15
-5 15 -11z m150 -74 c0 -8 -7 -15 -15 -15 -16 0 -20 12 -8 23 11 12 23 8 23
-8z m-1515 -530 c-16 -7 -23 -14 -15 -14 12 -1 12 -3 -2 -11 -30 -18 -160 -30
-223 -20 -60 9 -60 9 20 5 54 -2 70 -1 50 5 -21 6 -13 7 30 4 33 -3 74 -1 90
5 29 9 29 9 5 11 -23 1 -22 2 10 14 47 18 73 19 35 1z m1990 -173 c-6 -88 -10
-104 -27 -113 -28 -15 -33 -5 -19 43 7 23 15 74 18 115 3 40 10 73 14 73 5 0
10 12 11 28 1 22 2 21 6 -8 2 -19 1 -81 -3 -138z m-2068 152 c-3 -3 -12 -4
-19 -1 -8 3 -5 6 6 6 11 1 17 -2 13 -5z m6383 -260 c0 -2 -9 -4 -20 -4 -11 0
-20 4 -20 9 0 5 9 7 20 4 11 -3 20 -7 20 -9z m209 -83 c11 -36 21 -93 24 -126
2 -33 1 -49 -1 -35 -5 24 -5 24 -11 -5 -5 -23 -10 -9 -22 66 -9 53 -24 111
-33 129 -20 41 -21 50 -1 24 17 -23 20 -11 3 19 -10 20 -10 21 5 8 10 -7 26
-43 36 -80z m-3439 69 l-25 -8 25 -1 c15 -1 -7 -12 -57 -29 -103 -34 -115 -47
-38 -38 32 4 63 12 68 19 6 9 7 8 5 -3 -4 -14 -28 -21 -113 -34 -27 -4 -35 -2
-25 4 13 9 13 10 0 10 -11 1 -10 4 4 15 17 13 17 15 4 15 -9 0 -20 -4 -23 -10
-3 -5 -11 -10 -18 -10 -8 0 -8 3 0 11 14 14 173 69 198 68 16 -1 16 -2 -5 -9z
m17 -66 c-3 -3 -12 -4 -19 -1 -8 3 -5 6 6 6 11 1 17 -2 13 -5z m-245 -20 c-12
-8 -22 -20 -22 -25 0 -6 12 -1 26 10 15 12 32 21 38 21 6 0 -4 -9 -21 -20 -18
-11 -33 -24 -33 -30 0 -5 -7 -10 -16 -10 -11 0 -14 6 -9 23 7 23 32 47 49 47
6 0 0 -7 -12 -16z m-1856 -29 c0 -18 -3 -32 -8 -29 -10 6 -11 64 0 64 4 0 7
-16 8 -35z m-1156 -76 c7 -11 9 -23 6 -27 -3 -3 -6 0 -6 7 0 7 -5 9 -12 5 -7
-5 -8 -3 -3 6 4 7 2 16 -6 21 -10 6 -10 9 -2 9 7 0 17 -9 23 -21z m30 -89 c0
13 1 13 10 0 5 -8 10 -19 10 -25 0 -5 -5 -3 -10 5 -9 13 -10 13 -10 0 -1 -13
-2 -13 -9 0 -5 8 -11 26 -15 40 -5 21 -3 20 9 -5 8 -16 14 -23 15 -15z m404
25 c-4 -8 -14 -15 -23 -15 -10 0 -53 -9 -95 -20 -64 -16 -88 -29 -139 -71 -34
-28 -67 -61 -73 -73 -12 -20 -56 -244 -89 -451 -9 -55 -23 -129 -30 -165 -21
-99 -82 -461 -99 -585 -23 -166 -35 -249 -52 -375 -9 -63 -29 -171 -44 -240
-75 -334 -63 -772 32 -1130 68 -258 141 -409 301 -625 33 -44 68 -98 78 -120
36 -77 15 -106 -22 -33 -19 38 -65 108 -140 213 l-21 30 27 -30 c51 -58 76
-93 120 -171 25 -43 45 -71 45 -63 0 22 -88 165 -137 225 -22 27 -46 60 -53
72 -6 13 -14 21 -17 19 -2 -3 0 -15 7 -26 6 -12 8 -21 6 -21 -3 0 -12 12 -20
28 -9 15 -15 20 -16 12 0 -9 16 -38 35 -65 19 -28 47 -68 61 -90 14 -22 38
-58 53 -80 49 -72 91 -154 90 -177 -1 -22 -1 -22 -8 2 -5 14 -16 40 -25 58
-20 39 -132 210 -151 232 -28 31 -105 186 -104 210 1 27 4 22 13 -23 4 -15 10
-25 15 -23 5 3 8 -2 7 -10 0 -9 7 -18 17 -19 9 -2 17 -2 17 0 0 2 -16 31 -35
65 -19 34 -35 65 -35 68 0 4 -6 19 -14 33 -37 72 -110 311 -140 464 -58 294
-59 699 -1 955 26 114 48 241 70 408 8 59 21 159 30 222 18 129 79 491 100
590 7 36 21 110 30 165 20 125 75 424 81 447 13 44 129 133 201 154 46 13 46
14 9 9 -44 -5 -155 -57 -196 -91 -29 -25 -44 -21 -58 17 -8 19 -7 26 3 26 7 0
10 -8 8 -18 -7 -24 15 -34 35 -16 47 42 261 121 279 103 4 -3 -4 -6 -17 -6
-13 0 -21 -3 -17 -6 3 -3 25 -3 49 2 39 7 40 8 18 15 -23 7 -23 7 7 8 25 1 31
-2 27 -14z m5263 -15 c28 -33 23 -51 -28 -100 -50 -48 -100 -70 -162 -70 -27
0 -37 5 -42 20 -6 20 21 90 35 90 5 0 6 9 3 19 -4 17 0 20 26 19 18 -1 37 4
43 10 7 7 16 12 22 12 5 0 1 -7 -10 -16 -21 -17 -22 -18 49 8 20 7 32 7 42 -2
23 -19 18 -38 -17 -72 -65 -60 -156 -86 -178 -50 -10 15 -10 15 -8 -3 7 -47
122 -23 191 39 59 55 44 116 -26 102 -23 -4 -28 -3 -17 4 24 16 59 11 77 -10z
m969 -101 c-14 -73 -206 -306 -331 -401 -24 -18 -54 -49 -67 -70 -12 -20 -61
-82 -108 -138 -119 -142 -136 -165 -255 -342 -92 -137 -165 -269 -165 -299 0
-6 -13 -37 -30 -71 -16 -33 -30 -65 -30 -72 0 -40 -194 -186 -247 -186 -31 0
-5 37 58 80 94 65 159 120 159 136 0 7 14 44 31 81 17 38 40 91 50 118 37 100
104 220 120 219 12 -1 30 27 59 92 61 135 109 194 359 445 228 227 332 343
362 401 15 28 17 30 22 13 4 -18 5 -17 6 3 0 12 4 22 7 22 4 0 4 -14 0 -31z
m-3279 -151 c-6 -39 -64 -161 -111 -238 -19 -30 -37 -66 -41 -78 -3 -13 -14
-33 -25 -44 -10 -11 -27 -37 -36 -57 -9 -20 -22 -42 -28 -50 -6 -7 -25 -39
-42 -70 -23 -44 -36 -57 -57 -59 -34 -4 -36 18 -6 67 11 18 18 36 15 38 -3 3
17 38 44 78 28 39 50 76 50 81 0 5 18 35 40 68 22 32 40 65 40 73 0 7 30 61
66 118 68 108 102 135 91 73z m333 1 c0 -22 -45 -98 -61 -102 -9 -3 -24 -20
-33 -38 -14 -29 -179 -264 -270 -385 -40 -53 -87 -93 -110 -94 -16 0 -18 5
-13 36 3 20 19 52 34 71 15 19 33 42 38 52 6 9 51 70 100 136 50 66 98 132
107 147 9 15 48 56 85 92 37 36 74 72 81 79 15 15 42 19 42 6z m-582 -96 c-59
-86 -148 -237 -148 -251 0 -9 -93 -194 -109 -217 -4 -5 -12 -22 -19 -37 -9
-23 -9 -28 2 -28 7 0 28 27 45 60 18 32 36 62 41 65 5 3 32 51 61 108 28 56
60 114 70 129 11 14 19 29 19 32 0 4 25 52 54 107 31 57 53 107 50 117 -5 15
-4 15 6 -1 12 -18 12 -18 -172 -362 -36 -66 -77 -138 -92 -160 -15 -22 -34
-54 -42 -71 -15 -31 -58 -63 -70 -51 -6 6 14 59 38 102 25 42 118 230 118 236
0 11 81 152 100 174 10 11 19 25 21 30 10 25 74 113 77 105 2 -5 -21 -44 -50
-87z m-146 52 c-2 -11 -12 -37 -23 -58 -10 -21 -19 -42 -19 -48 0 -10 -27 -73
-81 -187 -17 -38 -27 -72 -24 -83 4 -13 2 -19 -9 -19 -8 0 -18 -9 -21 -21 -8
-23 -65 -89 -79 -89 -17 0 2 66 48 168 25 56 46 108 46 115 0 6 19 48 42 92
22 44 50 97 60 118 15 29 24 38 41 35 16 -2 21 -9 19 -23z m958 -48 c0 -24
-237 -332 -326 -424 -59 -61 -89 -28 -36 40 128 166 331 396 350 397 6 0 12
-6 12 -13z m-3400 -22 c0 -18 -63 -124 -98 -165 -17 -20 -47 -60 -67 -90 -20
-30 -40 -57 -44 -60 -13 -9 -71 -98 -71 -109 0 -6 -4 -11 -10 -11 -5 0 -10 -5
-10 -11 0 -6 -13 -27 -30 -46 -16 -18 -30 -38 -30 -44 0 -6 -13 -29 -28 -52
-16 -23 -31 -50 -35 -59 -8 -22 -30 -23 -48 -2 -18 22 0 68 72 182 52 81 89
132 237 329 18 24 37 43 42 43 6 0 9 4 8 10 -2 5 15 32 37 58 27 33 46 47 58
44 9 -2 17 -10 17 -17z m220 -26 c0 -16 -59 -117 -74 -126 -7 -5 -18 -23 -25
-40 -8 -18 -20 -33 -28 -33 -8 0 -23 -20 -34 -45 -11 -25 -24 -45 -29 -45 -4
0 -23 -26 -40 -57 -18 -32 -36 -60 -39 -63 -18 -14 -70 -94 -65 -102 3 -4 1
-8 -4 -8 -13 0 -82 -96 -82 -114 0 -8 -4 -16 -8 -18 -5 -1 -15 -16 -23 -32 -8
-16 -21 -32 -29 -34 -13 -4 -12 -2 1 14 9 10 20 29 23 42 4 12 11 22 16 22 4
0 10 10 14 23 3 12 24 46 46 75 22 29 40 55 40 59 0 3 17 26 37 52 21 25 49
66 62 91 13 25 31 52 40 60 10 8 24 30 31 48 7 17 16 32 21 32 15 0 49 43 49
62 0 10 4 18 10 18 10 0 84 110 77 116 -8 8 -119 -138 -262 -346 -47 -69 -108
-156 -136 -195 -39 -56 -109 -184 -109 -201 0 -10 29 -2 33 9 3 7 6 5 6 -5 1
-13 -7 -18 -24 -18 -14 0 -25 5 -25 11 0 26 58 139 107 209 29 41 91 131 138
200 114 166 150 216 210 289 47 57 75 76 75 50z m205 -39 c-9 -18 -14 -34 -11
-37 3 -3 15 14 26 38 11 24 20 39 20 32 0 -15 -16 -51 -40 -88 -35 -55 -102
-178 -104 -191 -1 -6 -8 -19 -15 -27 -7 -9 -14 -23 -15 -31 -1 -8 -10 -23 -19
-33 -9 -10 -24 -36 -33 -58 -9 -22 -36 -67 -60 -101 -24 -33 -47 -70 -51 -80
-19 -47 -89 -143 -105 -143 -29 -1 -34 45 -9 94 11 23 21 45 21 49 0 4 15 26
34 49 18 23 44 62 57 87 14 25 56 91 94 148 39 57 78 117 89 135 10 18 39 59
63 92 25 33 49 71 54 84 5 13 12 21 15 18 3 -3 -2 -19 -11 -37z m55 -167 c-15
-32 -61 -116 -102 -188 -41 -71 -82 -150 -92 -175 -9 -25 -25 -56 -33 -70 -9
-13 -20 -38 -24 -55 -5 -22 -7 -24 -8 -9 -1 27 96 230 189 393 38 69 70 127
70 131 0 5 21 30 26 30 1 0 -10 -26 -26 -57z m14 -30 c-21 -43 -58 -111 -81
-151 -24 -40 -59 -105 -79 -145 -74 -148 -89 -176 -91 -173 -6 6 97 216 156
318 33 59 75 136 92 172 18 37 34 64 37 62 2 -3 -13 -40 -34 -83z m3362 -585
c-3 -35 -8 -94 -12 -133 -3 -38 -10 -78 -15 -87 -10 -19 -39 -25 -39 -7 0 5 4
8 9 5 17 -11 29 20 35 89 14 154 19 195 23 195 3 0 3 -28 -1 -62z m-52 -63
c-9 -39 -17 -86 -18 -107 0 -20 -5 -34 -9 -31 -10 6 -7 23 19 153 10 47 20 78
21 70 2 -9 -4 -47 -13 -85z m-1364 52 c0 -9 -27 -17 -82 -25 -46 -6 -157 -22
-248 -36 -268 -40 -457 -55 -1080 -86 -282 -14 -453 -28 -630 -51 -162 -21
-238 -24 -115 -3 l80 13 -80 -4 c-44 -3 -75 -3 -70 0 25 11 447 56 605 65 96
5 297 16 445 24 463 26 730 52 985 96 133 22 190 24 190 7z m1137 -139 c-3 -8
-6 -5 -6 6 -1 11 2 17 5 13 3 -3 4 -12 1 -19z m-657 -111 c0 -11 -26 -25 -85
-48 -28 -10 -196 -79 -220 -89 -11 -5 -46 -20 -78 -34 -32 -14 -62 -26 -67
-26 -17 0 -131 -72 -193 -122 -89 -73 -252 -241 -296 -307 -98 -146 -154 -284
-187 -456 -13 -70 -15 -124 -11 -245 5 -145 14 -198 54 -322 3 -12 0 -18 -11
-18 -10 0 -22 21 -35 68 -67 223 -50 553 38 767 63 152 151 284 270 405 94 95
257 230 277 230 4 0 17 9 28 19 26 24 93 61 109 61 7 0 3 -5 -8 -11 -62 -34
-229 -154 -301 -217 -218 -189 -344 -387 -411 -639 -20 -79 -26 -128 -30 -253
-2 -85 0 -180 5 -210 6 -40 7 -9 4 110 -5 186 8 280 58 432 59 176 136 300
277 445 156 160 280 252 381 282 38 11 42 14 31 29 -11 14 -11 15 1 5 27 -25
36 -8 15 27 -8 13 -7 13 8 1 14 -11 23 -10 62 8 25 11 48 21 51 21 3 0 20 7
37 15 62 28 202 84 215 84 6 1 12 -5 12 -12z m890 -110 c9 -87 25 -130 66
-180 28 -33 41 -19 19 22 -8 17 -15 39 -15 51 0 12 -4 19 -9 16 -10 -7 -46 90
-56 149 -9 53 3 40 14 -16 12 -59 33 -112 49 -122 6 -4 12 -17 12 -27 0 -11 8
-35 17 -55 15 -31 15 -37 3 -45 -21 -14 -22 -13 -53 27 -33 44 -53 113 -61
207 -8 97 3 76 14 -27z m1050 -69 c0 -7 -7 -25 -14 -40 -8 -16 -11 -28 -5 -28
21 0 6 -36 -44 -103 -101 -136 -143 -202 -205 -328 -34 -69 -75 -146 -91 -170
-16 -25 -42 -94 -60 -159 -18 -63 -36 -124 -41 -135 -5 -11 -21 -54 -35 -95
-14 -41 -30 -79 -35 -84 -6 -6 -10 -16 -10 -23 0 -15 -110 -242 -164 -338 -71
-128 -107 -188 -136 -231 -96 -141 -91 -131 -74 -144 10 -9 12 -16 4 -24 -7
-7 -14 -6 -22 3 -10 11 -10 13 0 7 6 -4 12 -3 12 3 0 29 -23 12 -78 -57 -34
-43 -95 -109 -137 -147 -42 -39 -106 -100 -143 -137 -62 -64 -204 -172 -298
-228 -165 -98 -151 -85 -176 -161 -16 -52 -24 -65 -29 -52 -7 17 -8 17 -8 -1
-1 -11 -3 -17 -6 -14 -3 3 2 36 10 74 8 38 18 79 20 91 3 14 13 23 24 23 17 0
58 26 255 160 191 130 529 507 637 710 13 25 34 59 47 77 13 17 78 141 146
275 123 246 198 421 236 558 27 92 184 414 224 459 9 10 16 21 16 25 0 4 10
22 23 39 12 18 29 43 37 57 74 125 120 179 120 138z m19 -74 c-15 -18 -22 -13
-13 10 3 9 10 13 16 10 5 -3 4 -12 -3 -20z m-801 -288 c18 -20 38 -36 44 -36
17 0 68 -51 68 -68 0 -11 -10 -13 -46 -7 -61 9 -74 14 -74 31 0 8 -6 14 -12
14 -17 1 -57 65 -65 101 -4 23 -2 28 18 31 16 2 26 -3 29 -14 3 -9 20 -32 38
-52z m225 -187 c12 -6 31 -22 42 -35 12 -14 34 -25 55 -27 31 -3 35 -7 36 -33
1 -28 -2 -30 -35 -32 -29 -1 -44 5 -74 34 -21 19 -35 39 -32 43 2 5 -4 11 -15
14 -12 3 -20 14 -20 26 0 24 11 26 43 10z m-2413 -954 c0 -8 -7 -15 -15 -15
-8 0 -15 7 -15 15 0 8 7 15 15 15 8 0 15 -7 15 -15z m2080 -350 c0 -8 -4 -15
-10 -15 -5 0 -7 7 -4 15 4 8 8 15 10 15 2 0 4 -7 4 -15z m-4352 -444 c18 -33
32 -66 32 -73 0 -7 -16 16 -35 51 -19 35 -41 71 -50 81 -21 23 -19 37 3 17 10
-9 32 -43 50 -76z m652 -356 l1 20 9 -20 c5 -11 8 -29 8 -40 0 -16 -2 -15 -8
5 -7 21 -8 22 -10 5 l-1 -20 -9 20 c-5 11 -8 29 -8 40 0 16 2 15 8 -5 7 -21 8
-22 10 -5z m2801 -60 c7 19 8 19 8 -2 1 -14 -5 -23 -14 -23 -9 0 -15 9 -14 23
1 20 2 20 7 2 l5 -20 8 20z"/>
<path d="M7250 5725 c-16 -9 -19 -14 -9 -15 8 0 24 7 35 15 24 18 7 19 -26 0z"/>
<path d="M7168 5683 c7 -3 16 -2 19 1 4 3 -2 6 -13 5 -11 0 -14 -3 -6 -6z"/>
<path d="M7845 5789 c51 -7 222 -12 214 -5 -2 2 -62 5 -134 8 -79 3 -110 2
-80 -3z"/>
<path d="M4610 5455 c-36 -19 -60 -34 -54 -35 13 0 134 58 134 65 0 9 -15 4
-80 -30z"/>
<path d="M7550 4969 c-1 -43 -9 -92 -25 -154 -7 -27 -7 -29 7 -17 12 9 18 40
23 108 4 52 5 98 1 101 -3 4 -6 -14 -6 -38z"/>
<path d="M12065 4730 c4 -14 13 -56 20 -95 l15 -70 -4 60 c-2 33 -11 76 -20
95 -11 24 -14 27 -11 10z"/>
<path d="M8550 4753 c-25 -9 -40 -18 -35 -20 6 -2 35 5 65 16 30 11 46 20 35
19 -11 0 -40 -7 -65 -15z"/>
<path d="M11035 4489 c-43 -24 -101 -65 -117 -84 -10 -11 -18 -15 -18 -10 0 6
19 27 42 47 24 21 39 37 33 38 -5 0 -27 -15 -49 -33 -31 -26 -37 -37 -32 -55
13 -41 89 -22 159 39 28 25 37 39 32 52 -8 19 -21 21 -50 6z"/>
<path d="M10920 4469 c0 -5 5 -7 10 -4 6 3 10 8 10 11 0 2 -4 4 -10 4 -5 0
-10 -5 -10 -11z"/>
<path d="M12025 4358 c-51 -77 -106 -138 -335 -367 -247 -248 -291 -299 -344
-411 -59 -121 -61 -125 -76 -125 -8 -1 -14 -6 -13 -13 2 -7 -2 -12 -8 -12 -9
0 -99 -178 -99 -195 0 -4 -12 -32 -26 -63 -15 -31 -34 -78 -44 -104 -18 -52
-63 -96 -167 -166 -97 -65 -99 -84 -4 -30 77 45 171 128 171 153 0 5 7 24 16
40 9 17 35 78 59 137 23 58 64 138 91 178 27 40 54 79 60 88 6 10 32 49 58 87
56 84 85 122 196 255 47 56 95 117 107 134 11 18 63 69 115 114 51 45 98 88
103 95 96 115 181 234 173 242 -3 3 -18 -14 -33 -37z"/>
<path d="M8719 4180 c-36 -58 -70 -118 -76 -135 -6 -16 -27 -54 -47 -84 -20
-29 -36 -57 -36 -62 0 -6 -18 -34 -40 -64 -22 -30 -40 -61 -40 -69 0 -8 -10
-31 -21 -51 -12 -20 -19 -38 -16 -42 14 -13 38 10 67 64 48 90 98 172 115 189
8 8 15 23 15 32 1 9 16 42 35 72 53 84 117 218 113 238 -2 11 -27 -21 -69 -88z"/>
<path d="M9028 4176 c-42 -41 -84 -87 -95 -102 -10 -16 -62 -87 -115 -159 -53
-71 -110 -148 -127 -170 -31 -42 -50 -95 -34 -95 13 0 72 58 108 105 68 90
238 331 258 367 12 21 29 40 37 43 16 5 64 85 51 85 -4 0 -42 -33 -83 -74z"/>
<path d="M8346 4183 c-13 -27 -39 -77 -58 -113 -18 -36 -39 -85 -47 -110 -7
-25 -23 -65 -36 -90 -63 -123 -75 -178 -25 -115 16 20 32 45 35 56 4 10 13 19
20 19 9 0 12 6 9 15 -3 8 8 44 25 80 17 36 31 69 31 74 0 5 11 29 25 52 14 24
25 51 25 59 0 8 7 29 16 45 30 57 35 75 19 75 -8 0 -26 -21 -39 -47z"/>
<path d="M9254 4067 c-85 -94 -179 -208 -246 -294 -30 -39 -36 -57 -15 -50 6
2 11 10 9 16 -1 7 2 10 7 7 5 -3 25 14 45 38 19 24 44 54 55 67 11 13 53 66
93 117 40 52 91 116 112 143 67 86 34 61 -60 -44z"/>
<path d="M5919 4138 c-1 -7 -1 -17 0 -21 1 -5 -3 -6 -8 -3 -11 7 -51 -40 -51
-59 0 -7 -6 -15 -13 -18 -32 -12 -334 -439 -353 -499 -3 -12 0 -26 8 -34 13
-13 20 -5 56 55 23 39 42 74 42 79 0 5 11 19 25 32 14 13 25 29 25 36 0 7 3
14 8 16 4 2 23 29 42 61 19 31 37 57 41 57 4 0 18 19 32 43 14 23 43 62 65 87
21 25 47 61 57 80 10 19 21 37 24 40 7 6 31 48 31 55 0 11 -30 4 -31 -7z"/>
<path d="M6339 4007 c-41 -53 -259 -385 -259 -395 0 -6 -17 -32 -39 -59 -46
-59 -83 -140 -75 -165 7 -23 23 -23 31 0 3 9 21 38 40 63 18 26 33 51 33 56 0
6 22 41 48 79 27 38 59 89 71 114 12 25 33 65 47 90 15 25 27 50 28 55 1 6 13
29 26 50 14 22 26 45 28 50 3 6 16 27 30 48 31 47 25 57 -9 14z"/>
<path d="M8210 3269 c-280 -46 -523 -69 -980 -94 -569 -32 -640 -37 -775 -55
-148 -20 -119 -19 140 4 88 8 264 20 390 26 612 29 806 45 1080 85 244 37 335
53 295 53 -19 0 -87 -9 -150 -19z"/>
<path d="M8845 3030 c-3 -6 1 -7 9 -4 18 7 21 14 7 14 -6 0 -13 -4 -16 -10z"/>
<path d="M8655 2955 c-82 -35 -145 -64 -140 -65 6 0 60 21 120 46 61 25 129
52 153 61 42 15 53 23 30 23 -7 -1 -80 -30 -163 -65z"/>
<path d="M7741 1524 c-1 -28 28 -127 41 -139 8 -7 9 -4 3 10 -4 11 -16 49 -26
85 -10 36 -18 56 -18 44z"/>
<path d="M10700 2697 c-125 -196 -260 -457 -289 -558 -23 -79 -47 -152 -61
-184 -5 -11 -18 -40 -28 -65 -11 -25 -34 -79 -52 -120 -42 -97 -216 -436 -244
-475 -11 -16 -32 -50 -45 -75 -73 -137 -295 -407 -474 -576 -46 -44 -119 -104
-163 -134 -197 -134 -238 -160 -255 -160 -19 0 -32 -35 -43 -115 -5 -34 -2
-30 17 24 13 36 30 67 38 69 8 3 34 19 59 36 25 17 60 39 78 49 72 39 234 162
295 225 36 37 97 96 137 132 111 101 290 331 375 485 15 28 43 77 61 110 42
75 154 303 182 370 48 116 132 374 132 407 0 5 13 28 28 51 16 23 59 104 96
179 38 75 74 142 82 149 8 6 14 16 14 21 0 5 11 24 25 42 16 21 23 40 19 52
-4 14 -3 15 4 6 7 -10 22 4 62 58 39 53 50 74 41 83 -6 6 -11 7 -11 2 0 -6
-10 -21 -21 -35 l-21 -25 17 29 c49 81 57 97 53 101 -3 3 -51 -68 -108 -158z
m33 3 c-3 -11 -9 -20 -15 -20 -5 0 -4 9 2 20 6 11 12 20 14 20 2 0 2 -9 -1
-20z"/>
<path d="M9960 2539 c0 -18 54 -98 66 -99 7 0 14 -8 16 -18 3 -10 11 -19 19
-19 8 -1 30 -4 49 -8 l35 -8 -29 32 c-17 17 -35 31 -42 31 -16 0 -72 58 -80
83 -6 19 -34 24 -34 6z"/>
<path d="M10230 2300 c0 -5 9 -14 21 -20 11 -7 18 -14 16 -17 -8 -7 69 -73 85
-73 9 0 21 7 29 16 10 13 10 17 -2 25 -8 5 -25 9 -38 9 -14 0 -38 14 -58 35
-34 35 -53 44 -53 25z"/>
<path d="M7795 7185 c17 -7 77 -33 135 -56 158 -64 228 -122 374 -313 50 -65
112 -146 139 -180 26 -33 71 -99 99 -146 29 -47 68 -102 87 -123 32 -35 34
-42 32 -103 -1 -36 -7 -88 -14 -117 -14 -62 -14 -203 1 -732 10 -386 24 -584
44 -615 6 -10 7 6 3 45 -10 104 -25 504 -25 660 0 83 -5 241 -12 352 -9 150
-9 208 -1 225 47 95 51 172 15 272 -18 51 -50 81 -37 35 3 -13 -21 19 -55 71
-139 213 -299 420 -415 534 -76 76 -104 96 -182 133 -108 50 -170 73 -198 72
-15 0 -13 -3 10 -14z"/>
<path d="M8742 7050 c-4 -106 39 -379 74 -473 8 -23 21 -64 29 -91 13 -46 35
-102 55 -138 6 -10 10 -23 10 -29 0 -11 30 -85 73 -178 18 -39 19 -55 13 -165
-10 -180 -28 -277 -89 -501 -20 -71 -50 -202 -67 -290 -17 -88 -44 -221 -60
-295 -33 -158 -41 -218 -30 -225 10 -6 22 38 39 144 27 175 137 592 217 829
14 40 22 78 18 84 -5 8 -10 5 -16 -8 -6 -13 -6 -10 -2 11 18 89 26 150 33 240
8 97 8 101 -20 155 -32 63 -61 129 -83 186 -139 368 -161 456 -189 754 -3 29
-4 28 -5 -10z m287 -1042 c-1 -55 -5 -50 -11 15 -2 20 0 37 4 37 4 0 7 -24 7
-52z m-82 -495 c1 -22 -1 -24 -8 -10 -6 9 -7 22 -4 27 9 14 10 13 12 -17z
m-47 -158 c0 -8 -4 -15 -10 -15 -5 0 -7 7 -4 15 4 8 8 15 10 15 2 0 4 -7 4
-15z"/>
<path d="M4580 5346 c0 -55 270 -246 312 -220 7 4 8 3 4 -4 -4 -7 -5 -12 -2
-12 3 0 45 -12 93 -26 49 -15 119 -29 158 -33 59 -5 70 -9 73 -26 2 -11 8 -24
14 -30 6 -7 7 0 3 17 -6 23 -3 29 16 37 20 8 16 10 -26 11 -54 1 -116 14 -235
50 -184 56 -302 119 -370 198 -22 26 -40 43 -40 38z"/>
<path d="M5660 5153 c-19 -9 -82 -31 -140 -49 -58 -18 -98 -33 -89 -34 25 0
169 45 229 73 30 14 51 25 45 25 -5 0 -26 -7 -45 -15z"/>
<path d="M7372 4756 c-18 -6 -30 -15 -26 -19 11 -10 36 -9 30 2 -4 5 4 7 16 3
14 -3 19 -1 14 6 -5 8 -2 10 8 6 9 -3 16 -7 16 -9 0 -1 -27 -12 -59 -24 -45
-16 -65 -19 -83 -11 -17 7 -42 4 -101 -13 l-77 -23 34 -12 c30 -11 45 -10 108
9 40 12 101 33 136 47 56 22 61 26 45 38 -21 16 -19 16 -61 0z m-127 -74 c-3
-3 -11 0 -18 7 -9 10 -8 11 6 5 10 -3 15 -9 12 -12z m48 11 c-7 -2 -19 -2 -25
0 -7 3 -2 5 12 5 14 0 19 -2 13 -5z m-79 -12 c4 -5 -4 -7 -16 -3 -13 3 -19 1
-15 -5 5 -7 -1 -9 -15 -5 -21 5 -21 6 -2 13 27 11 42 11 48 0z"/>
<path d="M10530 4374 c0 -14 3 -14 15 -4 8 7 15 14 15 16 0 2 -7 4 -15 4 -8 0
-15 -7 -15 -16z"/>
<path d="M6150 204 c0 -17 117 -203 128 -204 11 0 -1 26 -46 95 -75 117 -82
127 -82 109z"/>
</g>
</svg>
