<?xml version="1.0" standalone="no"?>
<!DOCTYPE svg PUBLIC "-//W3C//DTD SVG 20010904//EN"
 "http://www.w3.org/TR/2001/REC-SVG-20010904/DTD/svg10.dtd">
<svg version="1.0" xmlns="http://www.w3.org/2000/svg"
 width="1280.000000pt" height="720.000000pt" viewBox="0 0 1280.000000 720.000000"
 preserveAspectRatio="xMidYMid meet">
<metadata>
Created by potrace 1.16, written by Peter Selinger 2001-2019
</metadata>
<g transform="translate(0.000000,720.000000) scale(0.100000,-0.100000)"
fill="#000000" stroke="none">
<path d="M0 3600 l0 -3600 2770 0 2770 0 0 28 c0 15 -7 54 -14 87 -8 33 -21
123 -31 200 -40 340 -49 382 -102 485 -65 129 -82 171 -136 350 -115 376 -147
568 -147 880 0 226 19 430 54 574 13 56 34 173 45 261 12 88 26 187 31 220 6
33 31 182 56 330 25 149 53 317 64 375 10 58 22 123 25 145 3 22 16 92 29 155
16 77 20 123 15 138 -6 16 -4 42 7 78 15 52 14 57 -6 112 -12 31 -28 71 -35
87 -16 34 -99 285 -110 330 -3 16 -17 52 -30 80 -32 66 -48 112 -37 100 12
-13 82 -179 82 -194 0 -15 84 -266 101 -305 9 -20 15 -23 21 -14 6 9 7 5 3 -9
-4 -13 2 -41 14 -69 25 -56 26 -67 5 -127 -11 -33 -13 -51 -5 -65 7 -13 3 -51
-14 -138 -14 -65 -27 -137 -30 -159 -3 -22 -15 -87 -25 -145 -11 -58 -39 -226
-64 -375 -25 -148 -50 -297 -56 -330 -5 -33 -19 -132 -31 -220 -11 -88 -32
-205 -45 -261 -35 -145 -54 -349 -54 -579 0 -267 24 -434 100 -715 38 -138
104 -337 124 -375 9 -16 16 -35 16 -41 0 -6 21 -49 46 -95 50 -91 46 -71 99
-469 40 -297 46 -330 68 -330 15 0 18 5 13 25 -3 13 -17 109 -31 212 -27 210
-43 309 -57 367 -5 21 -7 40 -5 43 10 9 39 -156 67 -377 12 -91 26 -189 31
-217 l10 -53 326 0 325 0 -23 38 c-63 105 -109 195 -105 206 2 6 5 3 5 -6 1
-9 6 -20 12 -24 8 -4 9 1 4 17 -5 17 1 12 22 -16 34 -47 92 -137 119 -182 l18
-33 3248 0 3248 0 0 3600 0 3600 -1495 0 c-951 0 -1495 -4 -1495 -10 0 -9 33
-106 50 -145 5 -11 23 -65 40 -120 17 -55 35 -109 40 -120 46 -108 129 -431
135 -523 3 -36 10 -93 16 -126 14 -79 5 -251 -27 -474 -13 -95 -24 -187 -24
-205 0 -18 -7 -42 -14 -53 -18 -25 -60 -231 -76 -369 -6 -55 -15 -118 -20
-140 -5 -22 -19 -83 -31 -135 -18 -73 -23 -130 -25 -250 -1 -85 -9 -212 -18
-281 -9 -69 -25 -211 -36 -315 -29 -270 -87 -541 -126 -584 -7 -8 -42 -46 -76
-84 -64 -69 -87 -104 -52 -76 18 14 18 14 5 -2 -7 -10 -17 -15 -22 -12 -5 3
-9 1 -9 -5 0 -27 22 -18 50 20 16 23 30 38 30 32 0 -5 -14 -30 -31 -53 -68
-94 -90 -169 -104 -366 -9 -125 28 -326 55 -298 4 5 1 54 -7 109 -16 115 -11
311 13 413 8 38 34 97 64 148 28 47 50 89 50 93 0 12 90 91 102 91 5 0 34 20
65 45 30 25 58 45 61 45 19 0 102 90 102 110 0 31 56 138 168 320 137 223 220
331 307 396 39 30 75 54 78 54 4 0 30 16 57 35 27 19 52 35 55 35 3 0 26 15
52 34 46 32 259 156 269 156 3 0 24 8 47 19 113 50 343 141 358 141 6 0 25 6
42 14 18 8 73 27 122 43 76 24 107 28 200 28 128 0 193 -19 238 -68 24 -28 27
-29 27 -11 0 69 -207 124 -355 94 -33 -6 -91 -18 -130 -25 -65 -13 -237 -68
-309 -99 -17 -7 -76 -33 -131 -56 -84 -35 -221 -105 -286 -145 -9 -5 -39 -23
-65 -39 -56 -33 -117 -76 -175 -123 -42 -34 -59 -40 -59 -23 0 6 4 9 9 8 8 -3
11 2 11 18 0 12 -103 -89 -171 -166 -36 -41 -76 -95 -88 -120 -13 -25 -35 -61
-50 -80 -64 -84 -211 -349 -231 -416 -11 -35 -26 -52 -104 -110 -124 -94 -156
-115 -156 -104 0 6 13 18 28 28 15 9 69 48 120 87 82 62 93 74 108 120 19 56
71 156 152 289 41 68 50 91 41 100 -9 8 -10 8 -5 -1 4 -7 2 -13 -3 -13 -6 0
-11 7 -11 15 0 8 7 15 15 15 8 0 15 -6 15 -12 0 -19 47 40 72 92 26 52 128
172 208 245 30 28 56 53 58 58 2 4 11 7 20 7 15 -1 15 -2 -1 -11 -9 -6 -15
-15 -12 -20 4 -5 18 0 33 12 66 51 135 99 144 99 5 0 24 11 41 24 56 42 212
125 313 167 55 23 117 49 139 59 69 30 287 99 350 110 33 5 80 14 105 20 56
12 152 12 205 0 112 -24 165 -59 165 -106 0 -32 -23 -31 -44 2 -33 49 -97 68
-231 68 -118 1 -183 -13 -300 -63 -11 -5 -63 -24 -115 -41 -52 -18 -118 -43
-147 -56 -28 -13 -55 -24 -58 -24 -37 0 -298 -142 -464 -251 -57 -38 -106 -69
-109 -69 -3 0 -38 -24 -77 -54 -86 -65 -169 -172 -305 -391 -112 -182 -165
-282 -174 -328 -4 -24 -18 -44 -43 -64 -55 -43 -134 -100 -178 -129 -45 -30
-105 -84 -105 -95 0 -5 -24 -50 -54 -101 -30 -51 -59 -115 -64 -143 -20 -96
-24 -294 -9 -400 16 -107 14 -128 -12 -123 -29 6 -54 127 -54 263 0 148 17
258 49 332 18 41 22 58 13 63 -20 13 3 54 71 127 72 77 62 50 114 313 14 69
37 224 51 345 13 121 34 298 45 393 25 215 25 212 0 212 -17 0 -20 7 -20 48 0
27 9 82 20 123 42 154 103 439 126 584 12 83 25 164 28 180 3 17 10 64 16 105
5 41 17 120 25 174 30 194 34 328 14 471 -26 182 -49 307 -60 327 -5 10 -9 25
-9 33 0 18 -38 141 -80 260 -16 44 -41 121 -55 170 -15 50 -31 95 -35 100 -4
6 -10 27 -14 48 l-7 37 -511 0 -511 0 7 -92 c11 -151 26 -267 47 -364 30 -142
147 -456 228 -614 28 -53 37 -81 30 -91 -5 -8 -9 -38 -9 -66 0 -29 -7 -94 -16
-144 -12 -71 -13 -94 -3 -99 9 -6 3 -37 -24 -121 -20 -63 -48 -153 -62 -201
-40 -134 -131 -504 -145 -588 -20 -128 -31 -170 -45 -170 -16 0 -26 25 -18 46
5 13 2 15 -13 10 -35 -11 -208 -44 -259 -50 -67 -7 -21 5 135 34 63 12 122 26
130 31 10 7 4 8 -20 5 l-35 -5 32 11 c37 12 27 -20 104 362 28 137 54 257 60
267 5 10 9 27 9 39 0 12 12 62 26 113 49 170 70 289 80 459 6 105 5 120 -14
160 -11 23 -30 70 -42 103 -12 33 -28 74 -35 90 -22 45 -91 251 -110 325 -27
104 -64 406 -65 523 l0 27 -432 0 -433 -1 70 -33 c39 -18 88 -41 110 -52 75
-35 184 -144 330 -329 61 -77 128 -167 150 -200 23 -34 46 -60 51 -58 14 5 74
-70 98 -122 11 -22 23 -48 28 -58 4 -9 11 -44 15 -78 6 -57 -8 -126 -40 -196
-5 -12 -7 -63 -4 -120 3 -54 11 -271 17 -483 5 -212 15 -452 20 -534 6 -83 7
-153 3 -156 -5 -4 -54 -21 -110 -39 -109 -34 -145 -56 -71 -45 24 4 51 11 60
15 9 5 34 8 55 8 l38 -2 -40 -7 c-22 -4 -63 -12 -91 -18 -28 -6 -60 -9 -71 -6
-12 3 -24 1 -27 -5 -4 -6 -13 -11 -19 -11 -7 0 -3 7 7 15 11 8 15 15 9 15 -7
0 -18 -7 -27 -15 -9 -9 -17 -11 -21 -5 -13 22 228 116 271 106 12 -3 25 -2 28
2 3 5 1 74 -4 153 -6 79 -15 317 -21 529 -5 212 -13 432 -16 488 -3 64 -1 112
5 125 29 60 44 132 39 184 -3 30 -10 60 -15 66 -5 7 -12 25 -16 40 -6 23 -9
27 -21 17 -12 -10 -21 -1 -51 47 -89 141 -133 204 -209 298 -44 56 -101 128
-126 160 -82 108 -185 190 -300 242 -57 25 -108 50 -113 54 -6 5 -26 9 -45 9
-34 0 -32 -2 34 -31 106 -48 132 -59 139 -59 6 0 57 -20 79 -31 34 -17 176
-165 251 -262 50 -65 112 -146 139 -180 26 -34 70 -99 98 -145 28 -46 68 -103
90 -128 38 -44 39 -46 33 -107 -3 -34 -12 -94 -21 -134 -12 -55 -14 -103 -9
-215 3 -79 10 -314 15 -523 9 -334 18 -486 36 -575 4 -18 3 -21 -4 -10 -19 32
-33 230 -42 585 -5 204 -12 440 -15 526 -5 109 -3 167 5 192 7 19 16 75 21
123 l9 88 -38 41 c-21 22 -58 75 -82 116 -24 40 -70 108 -101 149 -32 41 -103
135 -159 208 -121 160 -218 243 -326 280 -65 23 -123 47 -187 78 -24 12 -158
14 -792 14 l-764 0 -7 -27 c-5 -16 -8 -55 -8 -88 0 -54 7 -72 64 -180 107
-203 162 -262 321 -344 175 -89 295 -112 556 -106 99 3 205 9 234 15 44 8 57
8 69 -4 13 -13 11 -16 -14 -26 -16 -6 -71 -13 -124 -17 -146 -9 -144 -5 -56
-107 41 -48 75 -91 75 -94 0 -4 17 -26 39 -50 21 -23 36 -42 34 -42 -3 0 0 -7
7 -15 7 -8 8 -15 3 -15 -4 0 -29 27 -53 61 -25 33 -78 99 -117 147 -40 47 -73
91 -73 98 0 13 32 19 163 29 43 3 84 8 92 12 24 9 17 26 -7 19 -47 -13 -327
-27 -423 -22 -181 11 -289 41 -444 125 -136 73 -198 143 -291 327 -64 128 -65
130 -64 209 0 47 -2 71 -7 60 -4 -11 -8 -45 -8 -76 -1 -48 7 -74 48 -162 101
-216 180 -306 338 -385 118 -59 191 -85 288 -101 105 -18 123 -20 207 -20 l78
-1 13 -33 c8 -18 40 -61 71 -97 32 -36 63 -77 71 -91 8 -14 29 -42 47 -61 18
-19 51 -56 73 -83 55 -67 98 -105 157 -140 63 -37 80 -61 56 -79 -17 -12 -38
-186 -53 -441 -13 -219 -72 -612 -97 -642 -5 -7 -7 -17 -3 -23 4 -7 19 1 41
20 40 35 54 38 54 10 0 -27 16 -25 24 3 3 12 6 144 6 294 0 176 5 312 14 385
8 62 18 172 21 243 7 144 11 168 28 162 7 -2 18 2 25 10 7 7 22 13 32 13 24 0
90 29 67 30 -10 0 -27 -5 -38 -10 -20 -11 -99 6 -99 21 0 9 15 6 53 -10 16 -6
35 -8 43 -3 10 6 -2 12 -38 21 -132 34 -256 118 -279 189 -7 20 -17 40 -23 44
-7 5 -5 8 5 8 10 0 19 -11 22 -30 21 -102 224 -209 437 -231 168 -18 191 -22
181 -38 -7 -11 -23 -12 -87 -3 l-79 11 80 -4 c53 -3 71 -1 55 4 -32 11 -113
12 -165 2 l-40 -8 60 -7 c74 -9 90 -14 49 -15 -29 -1 -111 12 -159 25 -17 4
-18 3 -4 -5 10 -6 52 -17 95 -25 44 -8 66 -14 49 -15 -28 0 -118 18 -172 34
-15 5 -23 3 -23 -4 0 -6 5 -11 12 -11 6 0 8 -3 5 -6 -4 -4 -14 -1 -23 7 -15
12 -17 12 -13 0 7 -19 70 -40 138 -46 59 -5 50 -1 -37 16 -30 6 -52 13 -49 15
2 3 26 -1 53 -7 27 -6 103 -15 169 -19 l120 -7 -105 -3 -105 -4 100 -7 c98 -6
97 -6 -25 -3 -129 3 -241 24 -272 51 -9 8 -18 11 -21 6 -2 -4 -8 -69 -11 -143
-4 -74 -14 -186 -22 -248 -9 -73 -14 -207 -14 -381 0 -298 -3 -331 -31 -331
-13 0 -19 7 -19 22 0 20 -3 19 -35 -12 -28 -27 -39 -32 -52 -24 -11 7 -50 -2
-147 -34 -72 -24 -153 -45 -181 -47 -27 -2 -39 -2 -25 1 14 2 53 11 88 20 56
15 61 18 45 30 -17 13 -17 14 2 8 15 -5 17 -4 9 5 -8 9 -21 10 -45 3 -19 -6
-26 -11 -17 -11 9 -1 20 -5 23 -11 4 -7 -3 -7 -20 0 -32 12 -48 13 -41 1 3 -4
-6 -6 -21 -3 -18 3 -24 1 -19 -7 4 -6 2 -11 -4 -11 -7 0 -10 5 -8 12 2 6 40
22 84 35 61 17 85 21 103 13 26 -12 65 -4 56 11 -4 5 -13 9 -21 9 -8 0 -12 -4
-9 -10 4 -6 -1 -7 -11 -3 -14 5 -13 8 7 19 13 7 31 13 39 14 8 0 38 11 65 25
41 20 46 21 26 5 -20 -17 -21 -21 -6 -26 23 -9 31 2 48 76 20 79 64 419 72
550 12 201 38 459 46 454 4 -2 10 0 13 5 7 10 -15 30 -74 64 -51 30 -88 63
-145 132 -22 27 -55 64 -73 83 -18 19 -39 47 -47 61 -8 14 -39 55 -70 89 -30
35 -62 79 -70 98 l-14 34 -73 1 c-40 0 -86 2 -103 4 -86 11 -176 30 -230 47
-79 26 -238 102 -281 134 -48 37 -137 150 -172 219 -54 106 -38 101 -192 66
-74 -16 -184 -37 -245 -46 -60 -9 -135 -20 -165 -26 -30 -5 -93 -14 -140 -19
-47 -5 -116 -17 -155 -25 -38 -8 -96 -20 -128 -26 -90 -17 -153 -86 -127 -138
4 -9 16 -37 26 -64 21 -53 115 -164 186 -221 26 -20 78 -50 115 -67 37 -16 79
-36 93 -43 14 -8 59 -21 100 -29 254 -52 423 -49 638 12 78 23 149 41 157 41
9 0 41 9 72 20 68 24 63 23 63 6 0 -22 -60 -54 -136 -71 -96 -22 -287 -77
-296 -84 -4 -4 36 -49 88 -101 53 -52 109 -114 125 -136 43 -63 121 -128 217
-181 l87 -48 110 0 c61 0 142 7 180 14 74 15 222 69 293 108 24 14 48 23 54
21 5 -2 -13 -14 -41 -28 -48 -22 -65 -40 -39 -40 6 0 8 -3 5 -6 -4 -4 -13 -2
-20 4 -10 9 -31 4 -84 -18 -104 -44 -210 -64 -343 -64 l-115 -1 -88 45 c-96
49 -180 118 -226 183 -16 23 -72 85 -125 138 -98 98 -109 122 -63 132 100 21
339 88 370 103 56 27 45 35 -18 13 -30 -10 -61 -19 -70 -19 -8 0 -79 -18 -157
-41 -117 -33 -165 -41 -260 -46 -160 -8 -397 24 -493 67 -22 10 -69 31 -105
47 -106 48 -244 187 -285 288 -12 30 -25 52 -28 49 -16 -16 5 84 23 108 11 16
16 28 11 28 -6 0 -18 -12 -28 -27 -19 -29 -25 -134 -10 -188 7 -24 6 -28 -4
-17 -18 17 -18 158 0 200 8 18 28 40 45 49 29 15 30 15 17 0 -8 -10 -9 -17 -3
-17 6 0 14 4 17 10 3 6 16 10 28 11 21 1 20 1 -3 8 -36 10 156 52 395 86 223
32 475 76 585 102 14 3 22 3 19 -1 -8 -8 -218 -52 -349 -72 -52 -8 -138 -22
-190 -30 -52 -8 -129 -19 -171 -25 -94 -12 -237 -48 -194 -48 17 -1 54 6 84
14 30 8 97 19 150 25 53 6 119 15 146 20 28 5 100 17 160 25 93 14 375 72 382
79 1 1 -9 24 -23 51 -22 43 -25 60 -21 120 2 39 7 78 11 88 8 16 -143 17
-3083 17 l-3091 0 0 -3600z m5244 2755 c80 -80 104 -98 196 -142 58 -28 125
-57 150 -63 96 -26 280 -50 381 -50 l106 0 106 -107 c58 -60 119 -126 135
-148 41 -58 150 -154 194 -172 l37 -15 3 -141 c3 -142 0 -219 -21 -482 -15
-191 -21 -435 -10 -435 5 0 11 -11 15 -24 4 -15 11 -23 19 -19 8 2 24 -2 37
-11 33 -23 38 -20 26 17 -62 195 -75 333 -59 605 7 108 9 254 6 324 -4 70 -4
131 -1 137 4 6 24 2 53 -11 41 -18 60 -20 157 -15 162 8 240 22 356 62 101 34
181 74 149 75 -8 0 -21 -6 -29 -12 -12 -11 -12 -10 -1 5 15 20 55 24 49 5 -6
-18 -72 -53 -137 -74 -31 -9 -60 -20 -66 -24 -12 -9 -100 -25 -216 -41 -114
-16 -248 -8 -284 15 l-27 18 6 -134 c4 -73 2 -222 -5 -330 -16 -269 -1 -432
55 -587 9 -24 16 -47 16 -52 0 -13 -28 -11 -53 3 -12 7 -32 11 -44 9 -16 -2
-21 2 -18 11 3 8 0 22 -8 31 -12 17 -15 17 -60 -2 -42 -18 -48 -18 -62 -5 -8
9 -15 21 -15 28 0 7 -17 46 -38 87 -21 41 -44 90 -52 109 -7 19 -38 85 -68
145 -30 61 -62 130 -72 155 -18 46 -87 167 -145 255 -51 78 -272 287 -325 309
-25 10 -72 31 -105 46 -65 30 -192 82 -380 156 -66 26 -138 54 -160 64 -89 38
-185 65 -332 95 -133 26 -143 26 -478 -41 -44 -9 -118 -27 -165 -42 -47 -14
-89 -26 -95 -28 -148 -35 -305 -97 -305 -121 0 -7 -4 -13 -10 -13 -5 0 -9 6
-7 13 4 23 86 66 166 87 45 11 91 25 103 30 42 16 232 68 313 84 321 64 348
67 453 46 88 -17 265 -61 287 -70 127 -55 257 -106 390 -155 11 -4 55 -22 97
-41 43 -19 80 -34 83 -34 4 0 34 -13 68 -29 34 -16 80 -36 102 -46 54 -24 266
-233 322 -318 51 -78 102 -176 192 -367 35 -74 85 -180 111 -235 26 -55 54
-115 60 -133 12 -30 16 -32 44 -27 66 14 67 17 72 170 2 77 9 203 15 280 21
271 24 341 19 479 l-5 139 -33 11 c-39 13 -153 113 -194 170 -16 23 -77 89
-135 149 l-106 107 -99 0 c-97 0 -296 27 -393 54 -27 7 -95 35 -150 62 -86 42
-112 60 -190 139 -54 53 -100 109 -113 137 -30 65 -27 74 5 13 14 -27 67 -90
117 -140z m3383 -200 c0 -8 -4 -15 -9 -15 -4 0 -8 7 -8 15 0 8 4 15 8 15 5 0
9 -7 9 -15z m103 -30 c0 -8 -8 -15 -17 -14 -11 0 -13 3 -5 6 6 2 10 9 6 14 -3
5 0 9 5 9 6 0 11 -7 11 -15z m-4085 -115 c51 -13 132 -30 170 -36 45 -8 199
-61 300 -104 50 -21 169 -70 265 -108 354 -141 319 -122 468 -267 73 -71 144
-148 157 -170 34 -55 208 -408 257 -519 22 -50 45 -98 52 -106 18 -21 46 -96
46 -121 0 -14 -5 -19 -16 -17 -17 3 -44 86 -41 120 1 9 -1 17 -5 17 -11 1 -11
0 -3 -74 8 -72 22 -90 75 -100 30 -5 43 0 84 30 27 19 52 33 54 30 3 -3 3 -6
1 -8 -2 -2 -22 -16 -44 -32 -33 -25 -49 -30 -89 -28 -30 1 -55 7 -65 17 -17
18 -42 161 -29 174 4 4 -9 43 -28 87 -45 101 -227 468 -257 517 -42 68 -267
287 -322 312 -163 77 -259 117 -440 185 -44 16 -110 43 -147 59 -77 35 -229
88 -273 96 -16 2 -52 9 -80 15 -163 36 -156 36 -297 11 -175 -30 -293 -58
-463 -110 -77 -23 -160 -46 -185 -51 -25 -5 -62 -18 -82 -28 -21 -10 -38 -15
-38 -10 0 10 104 49 131 49 10 0 27 4 37 9 9 5 35 14 57 20 22 6 85 24 140 40
154 46 453 108 530 110 22 0 58 -4 80 -9z m2972 -227 c-3 -10 -5 -4 -5 12 0
17 2 24 5 18 2 -7 2 -21 0 -30z m583 28 c0 -15 -10 -18 -70 -24 l-55 -6 60 13
c57 12 58 13 25 18 l-35 5 38 1 c20 1 37 -2 37 -7z m-87 -8 c-7 -2 -19 -2 -25
0 -7 3 -2 5 12 5 14 0 19 -2 13 -5z m-4343 -38 c0 -8 -7 -15 -15 -15 -8 0 -15
7 -15 15 0 8 7 15 15 15 8 0 15 -7 15 -15z m-95 -79 c8 -12 23 -47 35 -79 51
-135 183 -210 422 -238 93 -11 304 -7 388 6 33 5 37 3 65 -40 56 -87 258 -228
302 -211 8 3 12 2 9 -2 -5 -9 95 -44 175 -61 63 -14 279 -25 279 -15 0 5 -39
10 -87 12 -90 2 -139 12 -287 57 -186 55 -304 124 -371 215 -19 26 -35 52 -35
57 0 12 50 36 58 28 3 -3 1 -5 -4 -5 -5 0 -17 -7 -28 -15 -18 -13 -17 -16 14
-55 44 -55 131 -120 213 -158 160 -74 460 -139 525 -114 15 6 45 14 67 16 31
4 34 4 15 -3 l-25 -9 25 0 c14 0 34 3 45 8 l20 9 -20 1 c-11 1 25 16 80 35 55
18 117 43 137 55 21 12 43 19 50 17 8 -4 7 -6 -4 -6 -9 -1 -20 -6 -24 -12 -4
-8 0 -9 15 -4 38 12 22 -4 -28 -27 -27 -12 -47 -26 -45 -30 3 -4 -1 -6 -8 -3
-7 3 -53 -8 -103 -24 -52 -17 -79 -30 -64 -30 15 -1 46 6 69 14 50 18 61 19
40 4 -12 -8 -11 -9 5 -6 11 2 19 8 18 15 -2 7 4 9 14 5 28 -11 -16 -35 -52
-28 -20 4 -26 3 -16 -3 34 -24 -115 -45 -236 -34 -46 4 -83 4 -83 0 0 -4 -12
-3 -27 2 -16 4 -55 11 -88 14 -33 3 -105 19 -160 36 -193 59 -309 131 -382
238 l-37 54 -46 -9 c-68 -12 -366 -9 -445 5 -71 13 -169 44 -215 67 -52 27
-118 103 -135 157 -10 29 -26 67 -36 84 -11 17 -18 47 -17 65 l1 34 4 -34 c3
-19 11 -43 18 -55z m48 -46 c85 -180 227 -235 618 -242 111 -2 150 0 162 10
25 21 167 92 183 92 25 0 15 -24 -19 -46 -19 -13 -44 -20 -61 -18 -16 2 -37
-2 -45 -7 -13 -8 -12 -9 7 -6 13 3 20 1 16 -5 -3 -5 -16 -7 -28 -4 -13 3 -33
-2 -47 -12 -46 -33 -407 -14 -554 30 -148 43 -187 79 -260 239 -14 31 -25 67
-24 80 1 21 2 20 9 -6 4 -16 23 -64 43 -105z m824 -246 c-3 -3 -12 -4 -19 -1
-8 3 -5 6 6 6 11 1 17 -2 13 -5z m3018 -488 c-5 -74 -11 -104 -23 -113 -36
-29 -39 -12 -17 82 8 33 15 79 15 102 0 34 3 41 16 36 13 -5 14 -20 9 -107z
m-2240 -68 c43 -95 88 -196 101 -224 35 -77 64 -153 63 -167 0 -7 -6 4 -14 24
-7 19 -24 60 -38 90 -36 77 -197 441 -197 445 0 16 17 -18 85 -168z m6765
-125 c11 -36 20 -77 19 -92 0 -14 -7 2 -14 36 -8 34 -19 70 -25 80 -10 16 -11
15 -5 -7 24 -102 36 -173 32 -192 -4 -20 -4 -20 -6 4 -2 46 -31 169 -47 204
-9 18 -13 38 -9 44 13 20 34 -10 55 -77z m-5543 10 c-3 -10 -5 -2 -5 17 0 19
2 27 5 18 2 -10 2 -26 0 -35z m12 -102 c-8 -13 -9 -11 -4 7 4 15 1 24 -9 28
-9 3 -16 10 -16 16 0 5 5 6 10 3 6 -3 10 0 11 7 0 7 5 0 9 -16 6 -18 5 -35 -1
-45z m-76 9 c-3 -11 -7 -20 -9 -20 -2 0 -4 9 -4 20 0 11 4 20 9 20 5 0 7 -9 4
-20z m-1054 -90 c11 -24 11 -24 -3 -6 -9 11 -16 24 -16 30 0 12 5 7 19 -24z
m415 -14 c-3 -9 -33 -19 -76 -26 -97 -17 -123 -29 -195 -94 -60 -55 -61 -57
-82 -147 -12 -50 -34 -172 -51 -272 -16 -100 -34 -202 -39 -227 -24 -112 -82
-450 -101 -590 -6 -47 -15 -112 -20 -145 -5 -33 -17 -112 -26 -175 -22 -163
-41 -268 -63 -357 -20 -83 -41 -332 -41 -498 0 -170 34 -413 82 -595 66 -249
138 -403 273 -585 83 -111 134 -210 118 -226 -8 -8 -17 0 -34 32 -21 43 -116
186 -148 223 -9 11 -10 16 -4 12 16 -9 125 -162 152 -213 11 -21 20 -32 21
-25 0 21 -27 68 -93 159 -34 47 -69 96 -78 109 -22 33 -33 43 -26 21 4 -11 3
-16 -3 -12 -19 12 -10 -12 23 -59 162 -237 224 -356 185 -356 -8 0 -27 27 -43
60 -16 33 -37 68 -47 77 -10 9 -18 21 -18 26 0 22 44 -32 76 -93 18 -36 33
-59 34 -52 0 22 -40 93 -136 237 -92 138 -144 236 -143 265 0 8 6 -1 14 -20 7
-19 17 -34 23 -33 6 2 9 -3 6 -10 -3 -8 2 -14 11 -14 8 0 15 1 15 2 0 0 -22
44 -48 96 -27 51 -56 117 -66 144 -10 28 -21 59 -26 70 -5 11 -11 29 -13 40
-3 11 -17 61 -30 110 -53 191 -87 432 -87 610 0 162 20 414 40 495 23 95 45
213 65 360 8 63 20 142 25 175 5 33 14 98 20 145 19 141 77 480 101 590 5 25
18 104 30 175 26 167 67 372 81 408 14 35 101 115 153 138 22 10 34 19 26 19
-23 0 -144 -60 -171 -85 -30 -28 -42 -23 -63 26 -11 28 -12 36 -2 36 8 0 11
-7 7 -15 -3 -9 -1 -13 5 -9 7 5 9 0 6 -12 -7 -28 16 -36 40 -13 47 43 234 108
319 111 20 1 26 -3 22 -13z m5273 -25 c21 -27 15 -43 -34 -89 -57 -54 -97 -72
-157 -72 -33 0 -45 4 -48 18 -8 29 11 81 34 93 12 7 29 20 38 30 18 22 108 50
135 42 11 -3 25 -13 32 -22z m952 -87 c1 11 4 17 7 13 14 -14 -19 -72 -104
-184 -80 -106 -132 -159 -240 -246 -19 -15 -50 -50 -68 -79 -18 -28 -37 -54
-42 -57 -9 -7 -123 -144 -169 -204 -27 -35 -128 -181 -231 -333 -12 -19 -32
-60 -43 -91 -11 -32 -29 -76 -38 -98 -10 -22 -26 -62 -37 -88 -28 -70 -87
-129 -185 -185 -113 -64 -122 -24 -13 53 122 86 150 113 164 158 6 23 16 47
20 52 5 6 19 39 33 75 32 82 88 205 115 249 19 32 20 32 19 7 -1 -14 -5 -26
-9 -26 -14 0 -111 -211 -166 -360 -19 -50 -72 -104 -169 -168 -62 -42 -83 -62
-64 -62 11 0 110 59 129 78 8 7 29 24 47 38 36 27 66 83 127 239 47 120 67
161 91 182 19 18 23 38 5 27 -7 -4 -8 -3 -4 5 4 6 11 9 15 6 5 -2 40 44 80
103 39 59 86 126 104 149 41 53 158 195 172 208 6 6 24 30 40 54 16 24 74 82
127 129 91 79 162 160 247 283 19 27 32 52 29 54 -3 3 -18 -14 -33 -37 -51
-76 -134 -168 -349 -382 -116 -116 -232 -238 -257 -272 -41 -53 -129 -221
-129 -245 0 -5 -4 -9 -9 -9 -11 0 -9 19 4 40 5 8 26 49 45 90 53 113 102 172
344 414 235 236 338 350 364 404 14 28 17 31 23 15 7 -17 8 -17 8 1z m-3269
-143 c0 -22 -65 -179 -84 -201 -20 -23 -76 -128 -76 -142 -1 -7 -14 -29 -30
-48 -17 -19 -30 -39 -30 -45 0 -6 -8 -21 -17 -35 -10 -13 -32 -49 -49 -79 -23
-44 -36 -57 -57 -59 -33 -4 -35 14 -8 67 11 20 22 43 25 51 4 8 20 35 36 60
17 25 37 60 46 79 8 18 31 56 50 83 19 28 34 56 34 64 0 13 48 97 107 185 27
42 53 51 53 20z m330 -12 c0 -23 -46 -98 -62 -102 -10 -3 -22 -16 -27 -29 -5
-12 -26 -45 -45 -73 -20 -27 -58 -82 -84 -120 -26 -39 -68 -97 -93 -129 -24
-32 -54 -72 -66 -89 -31 -42 -74 -76 -97 -77 -16 0 -18 5 -13 36 3 20 19 52
34 71 15 20 35 46 43 58 30 46 115 161 157 213 24 30 43 58 43 63 0 15 179
186 195 186 8 0 15 -4 15 -8z m-582 -96 c-59 -86 -148 -237 -148 -251 0 -6
-23 -53 -50 -106 -28 -53 -55 -106 -60 -116 -6 -11 -15 -29 -21 -41 -6 -12 -9
-23 -7 -24 8 -9 28 13 53 60 15 28 35 59 45 70 9 11 38 63 65 115 26 52 56
107 66 122 11 14 19 29 19 33 0 3 22 47 49 96 27 49 52 102 54 117 3 23 4 22
6 -8 0 -20 -3 -40 -8 -45 -9 -11 -47 -80 -141 -260 -35 -66 -82 -149 -105
-185 -22 -36 -47 -77 -54 -92 -15 -29 -43 -44 -61 -33 -7 4 -4 18 6 38 9 18
22 41 27 52 44 84 117 231 117 236 0 11 81 152 100 174 10 11 19 25 21 30 10
25 74 113 77 105 2 -5 -21 -44 -50 -87z m-146 52 c-2 -11 -12 -37 -23 -58 -10
-21 -19 -42 -19 -48 0 -10 -26 -72 -80 -185 -17 -37 -26 -70 -23 -83 3 -14 1
-21 -8 -21 -8 -1 -27 -24 -44 -52 -36 -62 -70 -75 -62 -25 3 18 26 78 51 135
25 56 46 108 46 115 0 6 19 48 42 92 22 44 50 97 60 118 15 29 24 38 41 35 16
-2 21 -9 19 -23z m958 -48 c0 -15 -43 -82 -80 -122 -15 -16 -56 -68 -90 -115
-35 -47 -68 -89 -74 -95 -6 -5 -33 -36 -59 -67 -49 -58 -73 -71 -83 -43 -6 15
11 48 38 76 8 8 44 52 82 99 104 130 240 279 254 280 6 0 12 -6 12 -13z
m-3406 -34 c-4 -16 -15 -40 -25 -55 -11 -14 -19 -30 -19 -35 0 -5 -18 -29 -40
-54 -22 -24 -40 -50 -40 -56 0 -7 -4 -13 -9 -13 -5 0 -19 -17 -32 -37 -12 -21
-27 -42 -34 -48 -17 -15 -155 -220 -155 -231 0 -6 -12 -26 -26 -45 -14 -19
-30 -44 -35 -56 -10 -26 -31 -30 -49 -8 -15 18 10 82 71 184 21 35 36 68 33
72 -3 5 1 9 9 9 8 0 30 24 50 53 57 82 169 226 247 317 33 39 63 41 54 3z
m462 -31 c-3 -20 -13 -43 -22 -51 -15 -15 -15 -14 0 16 25 49 19 63 -7 18 -13
-22 -47 -73 -75 -113 -29 -39 -52 -74 -52 -77 0 -3 -28 -46 -62 -96 -35 -49
-70 -102 -78 -117 -64 -113 -87 -150 -107 -169 -13 -12 -23 -30 -23 -40 0 -10
-7 -29 -16 -41 -9 -13 -13 -31 -9 -42 8 -25 24 -26 32 -2 3 9 16 31 29 49 13
17 34 51 47 75 13 23 53 89 88 146 60 98 79 132 125 226 42 87 63 122 78 135
23 19 20 -2 -3 -23 -11 -10 -22 -28 -25 -41 -4 -14 -17 -41 -31 -61 -14 -20
-25 -44 -26 -53 0 -9 -14 -36 -29 -61 -16 -25 -41 -65 -55 -90 -14 -25 -34
-58 -44 -75 -10 -16 -35 -57 -55 -90 -82 -137 -102 -164 -117 -165 -29 0 -40
58 -15 79 8 7 17 27 20 45 4 19 13 36 20 39 11 5 41 52 106 169 8 14 43 67 78
117 34 50 62 93 62 96 0 3 29 46 65 96 36 49 67 100 71 113 3 12 12 23 21 23
12 0 14 -8 9 -35z m-267 1 c-7 -10 -32 -40 -54 -68 -102 -125 -298 -419 -283
-424 6 -2 14 3 19 10 4 8 22 34 41 58 18 24 45 65 60 90 14 25 35 54 45 66 11
11 25 34 32 52 7 18 21 35 30 38 10 3 25 20 35 38 30 56 106 163 105 147 0 -8
-18 -40 -39 -70 -22 -30 -47 -70 -57 -87 -9 -18 -24 -35 -33 -38 -10 -3 -25
-23 -35 -45 -10 -22 -21 -40 -24 -40 -4 0 -22 -26 -40 -57 -19 -32 -37 -60
-41 -63 -3 -3 -21 -27 -40 -55 -19 -27 -37 -52 -40 -55 -9 -6 -59 -84 -83
-130 -23 -42 -48 -72 -55 -65 -3 3 2 13 10 22 29 35 107 172 100 177 -12 7
-35 -10 -38 -28 -1 -8 -11 -28 -22 -43 -31 -45 -83 -155 -77 -161 3 -4 10 0
15 8 8 13 10 12 10 -2 0 -11 -8 -18 -20 -18 -24 0 -25 15 -5 54 9 16 17 37 18
45 1 9 17 37 35 63 17 26 32 51 32 56 0 5 9 17 20 27 10 9 59 77 107 149 48
72 105 156 127 186 47 64 145 180 153 180 3 0 -1 -8 -8 -17z m286 -200 c-19
-38 -39 -75 -45 -83 -24 -37 -128 -229 -143 -265 -10 -22 -25 -53 -34 -69 -9
-16 -20 -43 -24 -60 -5 -23 -7 -25 -8 -9 -1 32 81 203 188 391 95 166 129 215
66 95z m47 40 c-17 -37 -73 -149 -82 -163 -34 -53 -113 -199 -150 -277 -24
-51 -46 -91 -47 -89 -7 6 104 232 160 328 30 51 69 121 86 156 17 34 33 62 36
62 2 0 1 -8 -3 -17z m3334 -645 c-3 -35 -8 -94 -12 -133 -7 -80 -18 -108 -42
-103 -25 5 -27 66 -6 178 10 52 19 89 22 82 2 -6 -4 -46 -12 -88 -18 -85 -21
-150 -7 -158 17 -11 29 20 35 89 14 154 19 195 23 195 3 0 3 -28 -1 -62z
m-1426 -13 c0 -8 -6 -15 -12 -15 -7 0 -137 -18 -288 -39 -311 -45 -523 -63
-990 -86 -387 -18 -546 -30 -740 -56 -163 -21 -223 -23 -110 -3 l75 13 -75 -5
c-41 -3 -73 -3 -70 -1 11 11 435 57 610 67 889 48 1030 59 1330 104 58 9 125
13 151 10 28 -4 54 -2 65 5 15 9 10 10 -26 6 -37 -3 -39 -3 -15 4 51 15 95 13
95 -4z m468 -257 c-5 -15 -18 -22 -173 -83 -49 -20 -99 -40 -110 -45 -76 -34
-124 -54 -158 -66 -66 -23 -195 -122 -318 -244 -195 -194 -288 -361 -339 -609
-34 -167 -24 -409 21 -545 14 -40 17 -62 10 -69 -11 -11 -52 71 -50 101 0 9 7
1 15 -18 9 -22 12 -25 9 -10 -3 14 -8 43 -12 65 -7 40 -7 40 -13 10 -10 -52
-30 111 -30 248 0 125 15 227 51 352 30 106 46 140 124 274 96 166 292 355
507 489 37 23 73 42 80 42 7 0 -21 -21 -62 -46 -177 -110 -372 -284 -469 -417
-75 -103 -172 -304 -171 -355 1 -9 15 21 33 68 68 178 142 287 296 440 126
124 242 209 329 240 54 20 61 25 50 39 -10 13 -10 14 2 4 27 -25 36 -8 15 27
-8 13 -7 13 8 1 14 -11 23 -10 59 6 24 11 81 35 128 54 47 18 96 39 110 46 31
16 63 17 58 1z m948 -111 c7 -16 14 -37 14 -47 0 -10 7 -20 15 -24 8 -3 15
-16 15 -28 1 -13 7 -34 15 -48 20 -34 18 -47 -4 -53 -24 -6 -62 45 -85 117
-17 51 -32 207 -16 171 8 -18 9 -18 10 5 2 17 5 11 12 -20 5 -25 16 -58 24
-73z m1014 -62 c0 -8 -20 -46 -45 -84 -25 -38 -45 -74 -45 -79 0 -6 -7 -12
-15 -16 -9 -3 0 18 22 52 58 91 76 123 71 127 -4 4 -118 -167 -175 -263 -79
-132 -192 -357 -207 -412 l-7 -25 21 25 c12 14 54 92 95 174 41 81 80 155 87
163 7 8 17 23 23 33 15 27 44 68 101 145 28 39 53 77 57 85 4 13 6 12 6 -1 1
-9 -24 -51 -54 -93 -31 -42 -52 -82 -49 -88 4 -6 3 -8 -3 -5 -16 10 -78 -88
-157 -248 -38 -77 -78 -150 -88 -161 -11 -12 -35 -78 -54 -145 -20 -68 -42
-138 -50 -156 -8 -17 -14 -36 -14 -42 0 -6 -4 -19 -9 -29 -5 -9 -19 -44 -31
-77 -19 -50 -119 -260 -150 -315 -5 -8 -15 -27 -22 -41 -55 -111 -142 -252
-230 -372 -155 -212 -468 -499 -669 -617 -143 -82 -137 -77 -161 -151 -16 -52
-24 -65 -29 -52 -7 17 -8 17 -8 -1 -1 -11 -3 -17 -6 -14 -3 3 2 36 10 74 8 38
17 79 20 90 3 14 15 23 32 27 16 3 44 17 63 31 19 15 73 52 120 83 160 106
277 211 420 379 41 48 82 95 90 103 14 16 35 44 113 151 38 52 107 164 107
174 0 4 -4 5 -9 1 -5 -3 -13 0 -17 6 -4 8 -3 9 4 5 7 -4 12 -1 12 6 0 11 2 11
9 0 10 -17 25 8 131 213 128 246 216 445 251 565 55 189 199 472 354 695 22
33 44 68 48 78 8 21 37 23 37 2z m7 -67 c-3 -8 -6 -5 -6 6 -1 11 2 17 5 13 3
-3 4 -12 1 -19z m-784 -297 c15 -13 36 -29 48 -35 63 -32 41 -83 -26 -62 -19
6 -35 17 -35 23 0 7 -6 13 -12 13 -17 1 -57 65 -65 101 -4 23 -2 28 18 31 18
2 27 -4 35 -22 6 -14 23 -36 37 -49z m252 -205 c19 -8 35 -19 35 -24 0 -6 16
-13 35 -16 22 -4 35 -13 35 -22 0 -14 -2 -14 -16 0 -8 9 -26 16 -39 16 -12 0
-25 6 -28 14 -3 7 -19 18 -36 24 -26 9 -29 9 -23 -7 10 -24 86 -91 104 -91 8
0 20 6 27 13 10 10 11 9 6 -5 -5 -11 -17 -18 -34 -18 -33 1 -107 67 -116 103
-8 31 0 33 50 13z m-445 -1401 c0 -8 -7 -15 -15 -15 -16 0 -20 12 -8 23 11 12
23 8 23 -8z m-3620 -680 l1 20 9 -20 c5 -11 8 -29 8 -40 0 -16 -2 -15 -8 5 -7
21 -8 22 -10 5 l-1 -20 -9 20 c-5 11 -8 29 -8 40 0 16 2 15 8 -5 7 -21 8 -22
10 -5z m2801 -60 c7 19 8 19 8 -2 1 -14 -5 -23 -14 -23 -9 0 -15 9 -14 23 1
20 2 20 7 2 l5 -20 8 20z"/>
<path d="M6311 4676 c-1 -15 22 -90 31 -100 15 -18 7 28 -12 69 -10 22 -19 36
-19 31z"/>
<path d="M5687 5164 c-4 -4 -50 -22 -104 -40 -54 -18 -90 -33 -81 -34 10 0 53
13 97 29 82 30 124 50 105 51 -6 0 -14 -3 -17 -6z"/>
<path d="M5365 5061 c-15 -25 8 -33 79 -26 90 9 129 23 61 21 -28 0 -69 3 -91
7 -28 6 -44 5 -49 -2z m63 -18 c-10 -2 -26 -2 -35 0 -10 3 -2 5 17 5 19 0 27
-2 18 -5z"/>
<path d="M4635 5465 c-22 -13 -36 -25 -32 -25 11 0 87 39 87 45 0 10 -16 4
-55 -20z"/>
<path d="M7550 4968 c0 -18 -7 -60 -15 -93 -19 -80 -19 -94 -1 -75 14 15 34
200 22 200 -3 0 -6 -15 -6 -32z"/>
<path d="M12040 4778 c0 -9 5 -20 10 -23 13 -8 13 5 0 25 -8 13 -10 13 -10 -2z"/>
<path d="M5790 4520 c-18 -12 -2 -12 25 0 13 6 15 9 5 9 -8 0 -22 -4 -30 -9z"/>
<path d="M5715 4510 c-27 -7 -28 -8 -5 -8 14 0 34 3 45 8 25 11 2 11 -40 0z"/>
<path d="M11023 4505 c-73 -22 -150 -104 -135 -143 4 -11 19 -13 58 -10 41 4
63 12 102 43 65 49 79 78 52 105 -23 23 -21 23 -77 5z m67 -10 c18 -22 4 -48
-49 -88 -71 -54 -156 -65 -144 -18 7 27 85 91 132 107 46 17 46 17 61 -1z"/>
<path d="M11025 4481 c-22 -10 -46 -25 -54 -34 -7 -10 -20 -17 -27 -17 -7 0
-20 -13 -29 -30 -15 -30 -15 -30 10 -30 59 0 174 81 162 113 -8 21 -12 21 -62
-2z"/>
<path d="M8734 4205 c-60 -93 -94 -155 -94 -170 0 -6 -12 -27 -26 -46 -14 -19
-34 -50 -43 -69 -22 -47 -72 -124 -82 -128 -5 -2 -9 -12 -9 -22 0 -10 -10 -35
-21 -55 -12 -20 -19 -38 -16 -42 14 -13 38 10 67 64 49 92 84 150 101 170 9
10 20 28 24 41 3 12 22 48 40 80 52 87 116 224 113 241 -2 9 -26 -20 -54 -64z"/>
<path d="M9016 4165 c-47 -47 -86 -90 -86 -94 0 -5 -21 -35 -47 -68 -27 -33
-73 -95 -103 -137 -30 -43 -69 -96 -87 -119 -32 -42 -53 -97 -37 -97 14 1 63
44 87 77 12 17 47 64 77 104 30 41 68 94 84 119 16 25 46 65 65 90 20 25 45
63 56 83 11 20 26 39 35 42 16 5 64 85 50 85 -4 0 -47 -38 -94 -85z"/>
<path d="M8346 4183 c-13 -27 -39 -77 -58 -113 -18 -36 -39 -85 -47 -110 -7
-25 -23 -65 -36 -90 -33 -65 -55 -116 -55 -129 0 -26 22 -8 48 39 15 27 32 50
39 50 7 0 10 7 7 15 -3 8 8 44 25 80 17 36 31 69 31 74 0 5 11 29 25 52 14 24
25 51 25 59 0 8 7 29 16 45 30 57 35 75 19 75 -8 0 -26 -21 -39 -47z"/>
<path d="M9259 4072 c-48 -53 -117 -135 -155 -182 -37 -47 -71 -87 -74 -90
-35 -30 -60 -94 -29 -74 5 3 6 10 3 16 -4 6 -2 8 3 5 6 -4 28 15 49 41 21 26
41 49 45 52 4 3 43 52 88 110 44 58 99 129 122 158 69 87 39 67 -52 -36z"/>
<path d="M5920 4137 c0 -7 -8 -20 -17 -28 -28 -25 -163 -196 -235 -299 -18
-25 -40 -51 -50 -58 -10 -7 -18 -18 -18 -24 0 -6 -17 -38 -37 -72 -38 -61 -73
-132 -73 -146 0 -4 7 -10 15 -14 15 -5 20 2 80 112 28 50 145 225 160 237 7 6
22 27 34 48 13 20 26 37 31 37 5 0 11 8 14 18 3 9 22 35 41 56 19 22 35 44 35
49 0 5 8 21 18 35 28 41 34 62 17 62 -8 0 -15 -6 -15 -13z"/>
<path d="M8110 3254 c-176 -28 -375 -49 -625 -64 -151 -10 -241 -15 -700 -41
-104 -5 -253 -19 -330 -29 -148 -20 -122 -19 145 4 91 9 314 22 495 31 441 21
678 40 930 76 116 16 217 31 225 33 37 9 -63 2 -140 -10z"/>
<path d="M8668 2962 c-86 -37 -155 -68 -153 -70 4 -4 326 125 334 134 15 14
-44 -6 -181 -64z"/>
<path d="M7752 2043 c-6 -26 -16 -72 -22 -101 -11 -60 -12 -294 -1 -362 4 -25
6 32 3 125 -3 146 -1 185 17 274 12 57 20 105 18 108 -3 2 -10 -18 -15 -44z"/>
<path d="M7770 1410 c0 -8 5 -22 10 -30 9 -13 10 -13 10 0 0 8 -5 22 -10 30
-9 13 -10 13 -10 0z"/>
<path d="M9768 2985 c-7 -11 -4 -50 7 -110 12 -62 60 -145 84 -145 14 0 14 9
-4 40 -8 14 -14 35 -15 48 0 13 -4 20 -10 17 -5 -3 -12 7 -16 22 -4 15 -11 33
-16 39 -5 7 -12 31 -16 55 -4 24 -10 40 -14 34z"/>
<path d="M10400 2109 c-20 -76 -66 -200 -111 -299 -61 -133 -220 -447 -255
-500 -45 -70 -54 -91 -47 -104 3 -6 3 -8 -2 -4 -4 4 -22 -14 -40 -40 -67 -101
-126 -181 -155 -213 -8 -8 -49 -55 -90 -103 -143 -168 -260 -273 -420 -379
-47 -31 -101 -68 -120 -83 -19 -14 -47 -28 -62 -31 -29 -6 -40 -30 -52 -118
-5 -34 -3 -31 17 23 17 47 29 66 52 78 16 8 44 26 62 40 17 13 35 24 38 24 4
0 53 30 108 67 151 102 518 456 501 484 -4 7 -3 9 3 6 6 -4 25 12 43 34 26 33
30 43 19 51 -11 8 -10 9 3 4 28 -8 150 187 292 469 81 160 98 200 153 350 38
103 87 275 80 282 -3 3 -11 -15 -17 -38z m-600 -1184 c-7 -9 -15 -13 -17 -11
-6 6 20 36 26 30 2 -2 -2 -10 -9 -19z"/>
<path d="M9960 2539 c0 -19 54 -98 68 -99 6 0 12 -6 12 -14 0 -14 67 -33 78
-22 7 8 -28 46 -43 46 -14 0 -70 59 -78 83 -7 19 -37 24 -37 6z"/>
<path d="M8731 7175 c-3 -93 35 -414 64 -525 27 -105 134 -396 187 -509 19
-39 20 -55 14 -165 -7 -124 -20 -234 -36 -296 -5 -19 -22 -87 -39 -150 -16
-63 -34 -135 -40 -160 -15 -60 -128 -615 -134 -662 -6 -39 7 -62 17 -31 3 10
12 61 21 113 32 192 144 622 221 848 14 40 22 78 18 84 -5 8 -10 5 -16 -8 -6
-13 -6 -10 -2 11 18 89 26 150 33 240 8 97 8 101 -19 155 -49 96 -92 202 -160
392 -56 156 -84 278 -100 428 -6 58 -14 141 -19 185 -5 44 -9 67 -10 50z m299
-1172 c0 -26 -2 -44 -4 -42 -8 9 -13 98 -5 93 5 -3 9 -26 9 -51z m-78 -471
c-7 -5 -10 -17 -7 -28 6 -17 6 -18 -5 -1 -12 19 -6 37 13 37 9 0 8 -3 -1 -8z
m-25 -54 c-3 -8 -6 -5 -6 6 -1 11 2 17 5 13 3 -3 4 -12 1 -19z m3 -32 c0 -3
-4 -8 -10 -11 -5 -3 -10 -1 -10 4 0 6 5 11 10 11 6 0 10 -2 10 -4z"/>
<path d="M9780 7190 c0 -5 38 -126 86 -267 121 -367 128 -392 168 -668 26
-177 23 -293 -10 -506 -9 -57 -22 -147 -29 -199 -46 -322 -101 -604 -165 -839
-20 -75 -27 -167 -12 -157 4 2 14 1 22 -4 15 -10 16 -1 -50 -560 -34 -289 -52
-402 -91 -573 -19 -84 -3 -61 25 35 38 134 62 262 80 433 9 83 26 227 37 320
12 94 23 242 24 330 2 104 8 183 19 225 27 112 44 202 56 295 16 130 59 343
75 376 8 15 15 39 15 53 0 14 11 103 24 198 32 223 41 395 27 474 -6 33 -13
90 -16 126 -6 96 -75 360 -134 513 -4 11 -36 107 -71 213 -36 105 -68 192 -72
192 -4 0 -8 -4 -8 -10z"/>
<path d="M5223 6753 c9 -2 23 -2 30 0 6 3 -1 5 -18 5 -16 0 -22 -2 -12 -5z"/>
<path d="M8560 6518 c-1 -18 78 -129 85 -119 4 7 0 22 -8 34 -23 34 -76 93
-77 85z"/>
<path d="M7775 5880 l-20 -9 20 0 c11 0 38 4 60 8 l40 9 -40 0 c-22 0 -49 -3
-60 -8z"/>
<path d="M8551 4751 c-46 -16 -89 -35 -95 -42 -8 -9 -6 -10 9 -4 11 5 63 23
115 42 52 18 86 33 75 33 -11 0 -58 -13 -104 -29z"/>
<path d="M7371 4756 c-24 -8 -31 -15 -22 -20 7 -4 26 -2 42 4 16 7 32 10 35 8
2 -3 -23 -15 -56 -27 -45 -17 -64 -19 -79 -11 -25 13 -44 13 -36 0 3 -5 16
-10 28 -11 20 -1 20 -2 -3 -9 -14 -4 -18 -8 -9 -9 15 -1 81 20 153 48 28 11
28 12 10 26 -22 17 -20 17 -63 1z"/>
<path d="M6150 204 c0 -17 117 -203 128 -204 11 0 -1 26 -46 95 -75 117 -82
127 -82 109z"/>
</g>
</svg>
