<?xml version="1.0" standalone="no"?>
<!DOCTYPE svg PUBLIC "-//W3C//DTD SVG 20010904//EN"
 "http://www.w3.org/TR/2001/REC-SVG-20010904/DTD/svg10.dtd">
<svg version="1.0" xmlns="http://www.w3.org/2000/svg"
 width="1280.000000pt" height="720.000000pt" viewBox="0 0 1280.000000 720.000000"
 preserveAspectRatio="xMidYMid meet">
<metadata>
Created by potrace 1.16, written by Peter Selinger 2001-2019
</metadata>
<g transform="translate(0.000000,720.000000) scale(0.100000,-0.100000)"
fill="#000000" stroke="none">
<path d="M0 3600 l0 -3600 2770 0 c2358 0 2770 2 2770 14 0 8 -7 49 -14 92 -8
44 -29 192 -46 329 l-31 250 -59 120 c-64 130 -73 152 -127 325 -119 382 -153
582 -153 896 0 211 20 436 50 559 18 71 38 195 70 425 16 115 48 308 95 580
26 146 50 290 55 320 5 30 20 111 34 179 15 74 21 132 17 144 -5 12 -1 45 8
78 12 45 12 63 4 81 -45 89 -153 395 -153 430 0 7 -19 58 -42 115 l-43 103
-45 0 c-48 0 -198 37 -295 72 -123 45 -233 128 -290 218 -24 39 -29 42 -58 36
-18 -4 -92 -10 -165 -13 -249 -10 -470 37 -573 124 -16 14 -43 55 -60 92 -16
36 -39 83 -50 103 -23 45 -26 98 -4 98 8 0 15 -9 15 -20 0 -34 79 -185 113
-216 54 -51 109 -82 172 -98 91 -23 233 -38 385 -39 112 -2 141 1 156 14 27
22 161 89 179 89 31 0 14 -29 -31 -50 -25 -12 -47 -20 -50 -17 -3 2 8 9 23 15
31 11 74 41 58 41 -5 0 -39 -16 -75 -35 -36 -19 -55 -33 -43 -30 13 2 26 0 29
-5 3 -5 11 -7 17 -3 7 3 5 0 -3 -8 -24 -21 -23 -38 5 -74 61 -80 210 -166 370
-212 177 -51 324 -73 361 -54 11 5 39 12 64 15 30 4 38 3 25 -3 l-20 -9 20 0
c11 0 29 4 40 9 l20 9 -20 1 c-11 1 25 16 80 35 55 18 117 43 137 55 21 12 45
20 55 17 14 -4 13 -5 -4 -6 -12 0 -25 -6 -29 -12 -4 -8 0 -9 15 -4 38 12 22
-4 -28 -27 -27 -12 -47 -26 -45 -30 3 -4 -1 -6 -8 -3 -7 3 -53 -8 -103 -24
-91 -30 -90 -44 1 -16 58 18 64 18 44 4 -12 -8 -11 -9 5 -6 11 2 19 8 18 15
-2 7 4 9 14 5 11 -4 14 -3 9 5 -5 8 -2 10 8 6 22 -8 20 -11 -14 -29 -18 -9
-41 -13 -57 -9 -20 4 -24 3 -14 -4 27 -19 -67 -35 -196 -34 -68 0 -123 -1
-123 -3 0 -2 20 -46 44 -97 24 -51 60 -131 80 -178 21 -47 46 -101 56 -120 23
-44 70 -169 69 -184 0 -6 -6 5 -14 26 -12 34 -106 244 -177 400 -18 38 -33 66
-36 64 -2 -2 6 -26 17 -51 12 -26 21 -54 21 -62 0 -23 86 -276 126 -368 l38
-88 -16 -57 c-9 -36 -12 -63 -6 -73 5 -10 -1 -63 -18 -144 -14 -70 -29 -153
-34 -183 -5 -30 -29 -174 -55 -320 -25 -146 -52 -305 -60 -355 -8 -49 -19
-119 -25 -155 -6 -36 -22 -146 -36 -245 -14 -99 -34 -214 -44 -255 -62 -247
-67 -720 -9 -1025 36 -196 156 -579 219 -704 21 -42 47 -94 58 -116 15 -29 29
-109 51 -290 43 -345 61 -445 79 -445 12 0 13 11 8 63 -15 136 -66 504 -75
534 -7 23 -6 35 3 42 17 14 37 -8 81 -90 19 -35 35 -58 35 -50 0 18 -56 120
-99 181 -114 162 -188 296 -178 322 3 8 6 6 6 -4 1 -10 6 -18 12 -18 5 0 8 -3
6 -7 -8 -13 12 -55 23 -48 6 3 7 -1 4 -10 -4 -9 -2 -15 4 -13 12 4 140 -170
182 -249 21 -37 25 -49 11 -33 -11 14 -21 29 -21 33 0 12 -153 227 -158 223
-5 -6 23 -54 63 -106 65 -86 155 -245 155 -275 0 -26 -27 -16 -40 15 -18 44
-68 120 -79 120 -6 0 -6 -12 0 -32 9 -31 60 -398 75 -535 l7 -63 329 0 329 0
-18 31 c-22 37 -71 123 -97 170 -18 32 -18 33 -1 19 17 -14 18 -13 12 5 -5 12
4 7 23 -15 16 -19 30 -40 30 -46 0 -6 6 -17 14 -23 8 -7 32 -41 53 -76 l38
-65 3248 0 3247 0 0 3600 0 3600 -1495 0 c-822 0 -1495 -3 -1495 -6 0 -7 118
-361 130 -389 48 -115 129 -426 135 -520 3 -38 10 -95 16 -125 14 -68 5 -252
-21 -440 -10 -74 -22 -162 -26 -195 -4 -33 -15 -84 -25 -114 -22 -64 -53 -224
-73 -384 -9 -64 -29 -175 -45 -245 -27 -113 -30 -144 -30 -277 1 -82 -2 -161
-5 -175 -3 -14 -20 -149 -36 -300 -40 -360 -51 -427 -96 -573 -13 -43 -24 -80
-24 -83 0 -5 28 14 132 91 37 28 79 58 92 67 13 10 30 35 36 55 23 75 110 235
215 396 22 33 52 83 68 110 31 57 124 165 214 251 47 43 68 57 83 53 13 -3 37
6 68 28 26 19 83 55 127 81 44 26 105 62 135 80 48 29 266 127 330 149 3 1 19
7 35 14 62 26 212 72 270 82 33 6 74 16 90 21 17 5 71 12 122 15 78 5 103 3
165 -17 73 -23 128 -61 128 -88 0 -9 -12 1 -27 20 -49 62 -219 97 -338 68 -22
-5 -68 -14 -103 -20 -89 -15 -313 -89 -437 -145 -149 -67 -198 -92 -283 -142
-53 -32 -102 -60 -109 -63 -13 -6 -107 -72 -166 -117 -26 -20 -45 -29 -51 -23
-6 6 -25 -5 -50 -28 -54 -48 -186 -200 -186 -213 0 -6 -26 -50 -57 -99 -131
-200 -212 -346 -234 -419 -7 -23 -23 -50 -36 -59 -13 -10 -54 -39 -91 -67 -98
-72 -125 -91 -144 -98 -14 -5 -15 -2 -6 23 5 16 8 35 6 42 -2 6 -12 -16 -21
-49 -12 -41 -27 -70 -45 -85 -36 -30 -51 -54 -29 -45 21 8 13 -13 -29 -78 -65
-100 -84 -166 -99 -350 -7 -88 8 -229 31 -284 25 -60 33 -22 17 84 -17 117
-11 314 12 414 20 82 123 260 175 301 21 17 41 30 45 30 9 0 109 78 171 134
32 29 54 57 54 70 1 51 199 385 343 579 51 68 185 187 212 187 4 0 30 16 56
35 27 19 52 35 55 35 4 0 27 15 53 34 43 31 257 156 267 156 3 0 29 11 57 24
86 39 274 112 432 167 145 50 154 52 265 53 139 1 208 -17 257 -70 18 -19 26
-34 19 -34 -7 0 -22 13 -34 30 -17 22 -40 35 -93 51 -106 32 -226 23 -379 -29
-110 -38 -263 -94 -305 -112 -11 -5 -60 -25 -110 -46 -109 -45 -283 -142 -423
-235 -56 -38 -105 -69 -109 -69 -3 0 -39 -24 -78 -54 -49 -37 -95 -85 -143
-148 -124 -166 -331 -517 -332 -564 0 -23 -75 -96 -164 -159 -144 -101 -147
-105 -201 -200 -86 -151 -93 -176 -101 -359 -4 -81 -1 -154 9 -221 8 -55 12
-106 10 -113 -10 -24 -36 -7 -49 31 -61 176 -22 538 68 634 21 23 13 34 -10
11 -9 -9 -13 -8 -17 5 -7 16 22 54 82 110 59 55 104 262 158 727 57 501 63
546 64 514 1 -18 -10 -130 -24 -250 -14 -121 -35 -300 -46 -399 -11 -99 -32
-231 -45 -293 -13 -63 -24 -126 -23 -140 l0 -27 10 25 c36 89 60 232 99 580
16 151 33 286 36 300 3 14 6 94 5 178 0 137 3 166 29 274 16 67 37 176 45 242
21 160 51 320 74 392 11 33 22 84 26 114 3 30 15 116 25 190 26 188 35 372 21
440 -6 30 -13 87 -16 126 -2 39 -25 147 -49 240 -40 150 -53 191 -85 269 -7
16 -68 198 -126 376 -5 16 -13 29 -18 29 -9 0 0 -54 14 -80 19 -35 171 -523
190 -610 27 -126 70 -435 65 -463 -3 -12 -8 -62 -11 -112 -3 -49 -13 -135 -21
-190 -9 -55 -22 -143 -29 -195 -42 -290 -87 -533 -128 -690 -23 -88 -57 -242
-59 -275 -2 -20 1 -29 10 -27 6 1 12 -2 12 -8 0 -15 -27 -12 -33 3 -2 7 -1 35
3 62 8 48 17 85 55 235 47 184 88 408 130 700 7 52 20 140 29 195 8 55 18 141
21 190 3 50 8 100 11 112 10 49 -60 472 -96 583 -10 30 -30 96 -46 145 -15 50
-31 97 -35 105 -4 8 -29 84 -56 168 l-48 152 -507 0 -508 0 0 -32 c0 -59 20
-251 36 -348 19 -110 80 -319 123 -415 33 -73 41 -94 41 -100 0 -7 40 -96 80
-177 26 -52 28 -65 24 -130 -3 -40 -12 -115 -20 -167 -13 -76 -13 -95 -3 -102
11 -6 8 -24 -13 -86 -76 -222 -205 -718 -227 -879 -6 -39 -15 -82 -21 -95
l-10 -24 4 25 c3 14 10 57 16 95 28 176 187 787 236 903 16 40 9 84 -7 47 -7
-16 -8 -14 -4 8 24 123 34 201 34 252 -1 48 -3 54 -9 30 -7 -27 -8 -26 -9 15
0 31 2 41 9 30 5 -8 12 -11 16 -7 4 3 -8 37 -26 74 -45 95 -114 266 -165 409
-46 129 -71 229 -90 364 -8 55 -13 71 -14 45 -1 -40 18 -167 39 -260 23 -106
128 -395 192 -534 19 -39 20 -55 14 -165 -9 -163 -25 -255 -86 -489 -28 -109
-64 -267 -80 -350 -16 -84 -41 -206 -55 -271 -14 -66 -26 -144 -27 -174 -1
-39 -4 -49 -9 -33 -5 11 -6 28 -2 37 5 12 2 15 -13 11 -75 -23 -292 -60 -305
-52 -5 4 -9 1 -9 -4 0 -6 -7 -11 -16 -11 -11 0 -14 6 -9 23 7 23 32 47 49 47
6 0 0 -7 -12 -16 -26 -18 -28 -30 -4 -31 46 -2 287 43 312 59 10 6 4 7 -20 4
l-35 -6 30 11 c17 7 31 12 32 13 4 3 52 235 83 393 16 83 52 241 80 350 60
230 77 325 86 483 l6 115 -57 140 c-151 373 -199 573 -199 835 0 90 -3 124 -7
90 l-6 -55 -1 53 -2 52 -437 -1 c-241 0 -431 -3 -423 -6 17 -6 78 -33 158 -69
29 -13 57 -24 62 -24 6 0 9 -5 8 -11 -2 -5 22 -29 52 -52 30 -24 103 -103 162
-177 59 -74 122 -153 140 -175 19 -22 51 -68 73 -102 22 -34 47 -62 56 -63 31
0 108 -124 125 -200 12 -50 15 -131 7 -142 -6 -7 -14 -31 -18 -53 -4 -22 -11
-46 -17 -53 -7 -8 -7 -80 0 -235 7 -122 14 -339 17 -482 3 -143 10 -330 15
-415 7 -112 7 -157 -2 -165 -8 -7 -9 -5 -5 7 3 9 2 85 -4 170 -9 156 -33 899
-33 1043 0 52 7 99 19 135 22 65 24 153 5 201 -8 19 -15 39 -15 44 0 6 -4 10
-10 10 -13 0 -14 -26 -2 -43 14 -18 9 -135 -9 -216 -13 -53 -15 -101 -10 -210
3 -77 10 -316 15 -531 6 -214 16 -433 24 -487 7 -53 11 -101 9 -107 -2 -6 -18
-12 -35 -12 l-32 -1 30 -8 c23 -6 25 -8 8 -9 -12 0 -62 -17 -110 -37 -48 -20
-95 -38 -103 -41 -45 -15 23 20 85 44 38 14 64 28 58 30 -6 2 -40 -7 -74 -21
-35 -14 -56 -20 -47 -12 14 10 159 62 204 72 7 1 6 33 -3 100 -7 55 -18 275
-24 489 -5 215 -12 454 -15 531 -5 109 -3 157 9 210 9 38 17 97 18 132 2 55
-1 66 -23 90 -27 28 -138 188 -139 200 0 4 -23 37 -52 74 -29 38 -99 129 -156
204 -109 142 -198 225 -281 261 -25 11 -88 38 -140 59 -52 21 -96 42 -98 46
-2 4 -352 8 -778 8 -612 0 -774 -3 -774 -12 0 -10 -3 -10 -9 0 -13 21 -31 -41
-31 -107 0 -48 9 -73 61 -181 69 -139 146 -243 224 -300 54 -40 209 -113 284
-135 79 -24 223 -45 301 -45 83 0 90 -3 107 -42 7 -16 30 -47 51 -70 21 -24
63 -74 92 -113 30 -38 56 -72 59 -75 3 -3 29 -32 56 -65 65 -78 89 -100 153
-136 60 -35 72 -54 61 -89 -9 -25 -9 -25 -5 2 4 31 -6 41 -74 81 -56 33 -82
57 -145 132 -27 33 -53 62 -56 65 -3 3 -29 37 -59 75 -29 39 -70 89 -91 112
-21 23 -45 58 -53 77 l-15 36 -78 0 c-82 0 -227 22 -303 45 -255 79 -388 182
-488 377 -22 43 -43 74 -47 70 -5 -4 -5 -2 -2 4 4 7 -5 37 -19 69 -22 48 -25
67 -22 123 3 37 8 75 13 85 7 16 -144 17 -3084 17 l-3091 0 0 -3600z m6196
3502 c-1 -63 3 -76 56 -184 101 -204 168 -277 322 -354 193 -95 298 -115 566
-109 102 2 210 9 240 16 52 11 65 7 60 -18 -3 -14 -104 -32 -182 -33 -42 0
-79 -4 -82 -8 -3 -5 25 -45 62 -90 37 -45 85 -104 106 -132 29 -39 41 -48 48
-38 6 9 8 6 6 -11 -2 -13 2 -26 8 -28 7 -2 10 6 7 24 -3 21 0 19 11 -11 47
-125 226 -209 505 -237 93 -9 118 -15 114 -25 -3 -9 -19 -13 -42 -13 l-36 2
35 6 c33 7 33 7 -22 15 -32 4 -84 4 -115 0 l-58 -8 54 -10 c30 -6 56 -17 59
-24 6 -18 -40 -15 -129 8 -42 10 -87 16 -100 14 -21 -5 -22 -4 -6 6 10 6 32 9
50 5 24 -5 28 -4 17 4 -12 8 -8 12 19 17 32 7 28 8 -50 29 -126 33 -207 74
-259 131 -24 27 -50 51 -56 54 -13 6 -104 115 -104 125 0 3 -31 43 -70 87 -38
45 -70 87 -70 93 0 19 24 25 100 25 76 0 170 18 170 33 0 5 -10 6 -22 3 -41
-12 -261 -27 -363 -24 -180 3 -313 33 -455 101 -122 58 -156 83 -219 158 -57
68 -159 256 -182 336 -9 34 -6 133 5 133 1 0 2 -30 2 -68z m-31 -171 c-50 -21
-373 -79 -615 -111 -47 -7 -140 -23 -208 -37 -68 -14 -125 -23 -128 -21 -6 6
235 55 336 68 217 28 586 94 599 106 2 2 11 4 20 3 12 0 10 -3 -4 -8z m20 -20
c-11 -10 -174 -47 -270 -61 -33 -5 -103 -16 -155 -25 -52 -8 -147 -22 -210
-31 -63 -8 -173 -26 -245 -40 -113 -23 -134 -30 -162 -56 -33 -32 -46 -71 -33
-97 5 -9 16 -36 25 -60 37 -100 176 -236 295 -288 30 -13 71 -32 90 -42 74
-37 284 -71 445 -71 87 0 125 6 261 41 87 23 179 45 204 50 25 5 62 16 83 24
46 18 47 18 47 1 0 -24 -60 -53 -165 -80 -151 -38 -269 -70 -274 -73 -3 -2 41
-49 96 -106 56 -56 119 -124 141 -152 50 -65 108 -111 207 -166 l80 -44 115 0
c63 0 142 6 175 14 80 18 231 73 288 105 25 14 52 26 59 26 21 -1 -111 -65
-202 -98 -127 -45 -193 -57 -321 -57 l-116 0 -84 44 c-99 52 -158 98 -211 166
-22 28 -85 96 -140 152 -55 56 -98 107 -96 114 4 11 54 26 273 83 94 25 165
54 165 68 0 5 -9 4 -21 -2 -11 -6 -48 -17 -82 -25 -34 -7 -133 -32 -220 -54
-135 -35 -172 -41 -261 -41 -179 0 -385 36 -488 86 -29 14 -73 35 -98 47 -49
23 -195 162 -229 217 -11 19 -21 28 -21 19 0 -28 121 -167 191 -221 50 -38
213 -113 284 -131 100 -26 203 -39 341 -44 l132 -5 113 -118 c63 -65 140 -148
172 -184 33 -36 79 -78 103 -93 92 -57 84 -35 86 -253 0 -107 -4 -238 -10
-290 -15 -126 -34 -483 -27 -512 7 -31 -2 -42 -55 -65 -46 -20 -70 -20 -70 0
0 7 -20 53 -44 102 -25 50 -81 169 -126 265 -86 185 -95 203 -143 290 -58 105
-106 166 -224 282 -111 110 -124 120 -218 161 -176 78 -341 147 -353 147 -6 0
-26 7 -44 15 -150 67 -314 127 -409 150 -147 35 -262 54 -296 47 -196 -34
-453 -90 -553 -121 -69 -22 -141 -42 -160 -46 -39 -8 -163 -65 -156 -73 3 -2
24 3 48 11 24 9 129 40 233 71 190 55 270 74 504 117 l124 23 121 -24 c135
-26 282 -71 419 -130 51 -21 146 -59 212 -85 121 -47 325 -133 380 -161 17 -8
78 -63 137 -122 138 -138 157 -161 164 -189 4 -13 10 -23 15 -23 9 0 112 -206
208 -415 28 -60 64 -135 80 -166 17 -31 37 -75 45 -98 12 -37 12 -43 -1 -48
-20 -8 -28 4 -41 57 -15 60 -7 64 10 4 7 -26 19 -49 25 -51 15 -5 -30 113 -52
137 -8 9 -15 19 -15 22 0 23 -233 502 -274 563 -67 102 -264 298 -331 329
-143 67 -202 93 -328 142 -76 30 -140 54 -144 54 -3 0 -35 14 -70 30 -34 17
-69 30 -76 30 -7 0 -17 4 -22 9 -19 18 -221 78 -341 101 l-121 24 -124 -23
c-208 -39 -310 -61 -399 -88 -128 -38 -352 -104 -377 -110 -16 -4 -23 -1 -23
9 0 19 91 63 180 86 41 11 122 34 179 51 83 26 343 82 524 113 45 8 370 -54
432 -83 44 -20 175 -72 265 -106 52 -19 103 -39 112 -44 10 -5 22 -9 27 -9 6
0 49 -18 96 -40 47 -22 89 -40 93 -40 4 0 34 -13 67 -29 33 -16 76 -36 95 -44
35 -16 260 -236 297 -292 34 -50 133 -224 133 -234 0 -5 31 -73 69 -152 80
-169 101 -215 101 -224 0 -3 11 -23 25 -43 14 -20 32 -58 41 -85 15 -45 18
-48 43 -42 54 14 76 30 74 55 -4 46 17 424 29 520 6 52 10 181 10 285 -2 213
6 191 -86 248 -24 15 -70 57 -103 93 -32 36 -109 119 -172 184 l-113 118 -127
5 c-219 8 -360 38 -501 106 -126 61 -153 81 -230 168 -83 94 -111 147 -103
192 4 23 2 32 -5 27 -7 -4 -9 9 -7 41 3 41 2 44 -6 23 -11 -26 -7 -110 6 -145
6 -15 5 -17 -4 -9 -19 17 -25 109 -11 159 14 52 68 106 103 104 20 -1 20 -2 2
-6 -29 -7 -85 -52 -85 -67 0 -7 15 1 34 19 30 28 48 34 172 59 77 14 189 33
249 41 61 8 153 22 205 30 52 9 122 20 155 25 70 10 258 50 264 56 2 2 7 4 10
4 3 0 1 -4 -4 -9z m2442 -756 c0 -8 -4 -15 -9 -15 -4 0 -8 7 -8 15 0 8 4 15 8
15 5 0 9 -7 9 -15z m-949 -248 c6 -5 16 -6 20 -3 5 3 9 -2 9 -10 0 -10 -6 -13
-16 -8 -9 3 -24 9 -33 11 -10 3 -18 9 -18 13 0 10 20 8 38 -3z m265 -44 c-13
-2 -33 -2 -45 0 -13 2 -3 4 22 4 25 0 35 -2 23 -4z m-258 -33 c22 -11 46 -20
55 -20 8 1 2 7 -15 16 -32 15 -27 15 55 -6 19 -5 105 -14 190 -21 85 -6 156
-12 158 -14 8 -7 -203 -16 -250 -10 -99 12 -163 27 -195 45 -18 11 -34 16 -36
12 -3 -4 -8 -68 -11 -142 -4 -74 -14 -182 -22 -239 -9 -70 -14 -197 -14 -381
0 -153 -3 -292 -6 -309 -8 -36 -41 -44 -46 -10 -3 19 -5 18 -35 -11 -23 -22
-38 -30 -52 -25 -11 3 -82 -14 -165 -40 -81 -25 -161 -44 -179 -44 -30 2 -30
2 8 9 l40 7 -33 8 c-38 9 -49 22 -25 29 10 2 51 14 91 26 41 12 76 19 80 16 3
-3 -2 -6 -12 -6 -9 0 -14 -4 -11 -10 3 -5 15 -10 26 -10 13 0 18 4 13 12 -4 7
-3 8 5 4 15 -10 53 3 46 15 -4 5 -13 9 -21 9 -8 0 -12 -4 -9 -10 4 -6 -1 -7
-11 -3 -14 5 -13 8 7 19 13 7 30 13 38 14 7 0 36 11 64 25 27 14 45 19 39 12
-7 -8 -9 -17 -5 -21 4 -4 -1 -4 -11 0 -13 5 -17 4 -12 -4 5 -8 1 -10 -11 -5
-15 5 -16 3 -6 -7 9 -10 18 -11 36 -3 27 13 49 94 72 268 8 61 19 144 25 185
6 41 15 147 20 235 10 180 32 409 38 384 1 -9 -4 -83 -13 -164 -8 -81 -15
-180 -15 -219 -1 -109 -50 -497 -79 -616 l-17 -74 -75 -25 c-41 -13 -69 -26
-64 -28 6 -2 37 5 68 16 39 14 59 16 63 9 5 -8 11 -6 18 3 13 18 57 49 68 49
5 0 8 -9 8 -20 0 -27 16 -25 24 3 3 12 6 148 6 303 0 186 5 315 14 385 8 57
17 163 21 234 6 115 11 165 19 165 1 0 19 -9 41 -20z m513 -22 c-3 -7 -18 -14
-34 -15 l-29 -2 30 9 c21 6 8 7 -45 5 -58 -2 -65 -1 -30 5 77 12 112 11 108
-2z m-900 -70 c-13 -37 -218 -110 -375 -134 -130 -19 -274 -16 -320 7 l-31 17
1 -182 c1 -99 0 -287 -2 -416 -4 -215 -2 -243 18 -328 12 -52 28 -110 36 -129
8 -20 15 -39 15 -44 0 -14 -34 -11 -55 5 -10 7 -27 11 -37 8 -12 -3 -18 1 -18
11 0 29 -17 27 -61 -5 -36 -27 -53 -32 -93 -32 -66 1 -96 33 -96 104 0 26 -3
57 -6 67 -5 15 -4 15 5 3 6 -8 11 -38 11 -66 0 -60 26 -92 81 -99 27 -3 45 3
86 32 51 35 83 39 83 9 0 -9 7 -12 18 -9 10 2 24 -3 31 -11 8 -9 19 -16 27
-16 10 0 9 12 -6 54 -46 135 -54 208 -49 451 2 127 3 314 2 418 -1 103 2 187
6 187 4 0 26 -9 49 -20 79 -38 325 -19 492 39 47 16 78 30 70 30 -13 1 -13 2
0 11 20 13 39 12 20 -1 -12 -8 -11 -10 5 -7 11 2 20 9 20 15 0 16 36 42 58 43
11 0 17 -5 15 -12z m1650 -243 c-3 -3 -9 2 -12 12 -6 14 -5 15 5 6 7 -7 10
-15 7 -18z m-1383 -592 c-6 -102 -9 -112 -28 -117 -12 -3 -22 -4 -24 -2 -1 1
4 37 12 80 8 43 15 98 15 122 0 28 4 43 10 39 6 -4 11 8 12 27 l1 33 5 -35 c2
-19 1 -85 -3 -147z m4525 -107 c0 -8 -4 -16 -10 -18 -5 -2 -1 -29 10 -66 21
-66 23 -115 10 -167 -6 -20 -7 -9 -3 31 4 42 0 79 -11 119 -22 74 -31 66 -11
-11 8 -32 15 -70 14 -84 0 -14 -7 6 -14 43 -8 37 -21 82 -29 99 -20 39 -20 48
-1 22 17 -23 20 -11 3 19 -10 19 -9 21 4 9 10 -8 19 -9 22 -3 3 5 0 12 -6 14
-8 3 -6 6 5 6 9 1 17 -5 17 -13z m-5542 -84 c-4 -28 0 -41 15 -54 11 -10 15
-18 8 -18 -28 0 -38 26 -33 81 3 29 7 48 10 41 2 -7 2 -30 0 -50z m2127 28
c-27 -12 -43 -12 -25 0 8 5 22 9 30 9 10 0 8 -3 -5 -9z m-6 -24 c-2 -3 -29 -7
-59 -9 -30 -3 -64 -8 -75 -11 -11 -4 -8 0 7 7 25 11 137 23 127 13z m-162 -32
c-3 -3 -12 -4 -19 -1 -8 3 -5 6 6 6 11 1 17 -2 13 -5z m-3086 -151 c-12 -20
-14 -14 -5 12 4 9 9 14 11 11 3 -2 0 -13 -6 -23z m6696 -5 c-3 -7 -5 -2 -5 12
0 14 2 19 5 13 2 -7 2 -19 0 -25z m-6270 -2 c0 -9 -17 -16 -47 -20 -91 -12
-148 -36 -214 -88 -49 -39 -70 -63 -80 -93 -13 -37 -57 -262 -71 -365 -3 -25
-19 -115 -35 -200 -33 -175 -94 -542 -109 -652 -34 -253 -64 -446 -81 -528
-48 -217 -54 -276 -54 -545 0 -225 3 -277 22 -385 69 -391 169 -635 353 -871
67 -86 118 -199 89 -199 -5 0 -7 7 -4 15 8 19 -42 106 -121 215 -61 83 -155
233 -155 248 0 4 -6 18 -13 32 -7 14 -21 48 -31 75 -10 28 -22 59 -27 70 -14
31 -65 231 -82 320 -39 202 -42 233 -41 485 1 263 7 325 54 540 17 82 47 275
81 528 15 110 76 477 109 652 16 85 32 175 35 200 8 61 55 316 66 362 9 34 40
71 109 127 14 11 20 20 15 21 -16 0 -87 -40 -112 -63 -13 -11 -23 -16 -23 -10
0 17 32 40 110 77 75 35 176 63 187 52 4 -3 -4 -6 -17 -6 -13 0 -21 -3 -17 -6
3 -3 25 -3 49 2 39 7 40 8 18 15 -24 7 -24 7 6 8 20 1 31 -4 31 -13z m5257
-12 c29 -28 20 -68 -24 -108 -51 -46 -104 -68 -155 -64 -43 3 -52 18 -41 64
13 48 121 122 183 123 12 1 29 -6 37 -15z m-5659 -25 c-5 -14 -4 -19 4 -15 7
5 8 1 4 -10 -3 -10 -2 -15 3 -12 5 3 9 -8 10 -25 1 -31 1 -31 -17 11 -10 23
-16 49 -13 57 9 23 16 18 9 -6z m85 -8 c0 -6 -5 -13 -12 -17 -6 -4 -8 -3 -4 4
3 5 0 13 -6 15 -8 3 -6 6 5 6 9 1 17 -3 17 -8z m6545 -81 c-16 -71 -218 -307
-347 -405 -27 -20 -48 -40 -48 -45 0 -11 -41 -73 -64 -96 -20 -19 -116 -135
-163 -197 -18 -23 -81 -114 -140 -202 -87 -128 -119 -187 -164 -297 -55 -132
-94 -208 -107 -208 -4 0 -20 -13 -37 -28 -37 -34 -136 -92 -159 -92 -9 0 -16
5 -16 12 0 14 30 48 41 48 22 0 189 140 189 158 0 7 12 39 26 70 28 62 26 58
79 182 47 110 84 172 98 167 7 -2 32 39 60 96 60 126 72 140 239 319 76 80
134 149 129 152 -5 4 -12 0 -14 -6 -3 -8 -6 -6 -6 5 -1 19 25 24 31 5 10 -29
325 315 344 374 7 22 7 22 15 3 7 -18 8 -18 8 4 1 13 4 22 7 18 3 -3 3 -20 -1
-37z m-3271 -127 c-9 -39 -73 -185 -89 -203 -15 -18 -75 -132 -75 -143 0 -4
-9 -17 -20 -29 -10 -11 -27 -37 -36 -57 -9 -20 -22 -42 -28 -50 -6 -7 -25 -39
-42 -70 -23 -44 -36 -57 -57 -59 -34 -4 -36 17 -7 64 13 20 17 35 10 39 -6 3
1 15 15 28 25 21 46 56 80 126 9 18 32 56 51 83 19 28 34 57 34 64 0 8 23 51
51 97 74 118 89 137 105 137 11 0 13 -7 8 -27z m326 -10 c0 -14 -44 -103 -51
-103 -4 0 -21 -19 -37 -42 -64 -95 -221 -312 -287 -398 -37 -47 -77 -80 -100
-80 -26 0 -13 63 22 107 15 19 33 42 38 51 29 46 208 283 241 320 74 83 113
122 123 122 5 0 11 6 14 13 4 12 37 20 37 10z m-582 -100 c-62 -89 -148 -237
-148 -253 0 -10 -48 -107 -101 -205 -37 -68 -39 -74 -29 -80 11 -7 84 111 173
280 20 39 43 81 51 95 59 98 124 234 120 248 -5 15 -4 15 6 -1 9 -14 0 -38
-51 -135 -34 -64 -72 -135 -84 -157 -13 -22 -40 -74 -62 -115 -21 -41 -53 -96
-71 -122 -17 -26 -32 -51 -32 -55 0 -13 -54 -63 -68 -63 -16 0 -15 21 3 44 8
11 15 25 15 32 0 7 19 45 43 86 24 40 54 100 68 133 27 68 93 190 119 220 10
11 19 25 21 30 10 25 74 113 77 105 2 -5 -21 -44 -50 -87z m-148 59 c0 -15 -9
-44 -20 -65 -11 -20 -20 -42 -20 -48 0 -10 -26 -71 -80 -185 -17 -37 -26 -70
-23 -83 4 -15 1 -21 -10 -21 -9 0 -19 -9 -22 -21 -8 -23 -65 -89 -79 -89 -17
0 3 71 48 170 25 54 46 105 46 112 0 7 18 47 40 88 22 41 49 94 60 117 28 57
60 71 60 25z m960 -55 c0 -17 -138 -203 -238 -323 -9 -11 -37 -44 -60 -72 -31
-36 -51 -52 -68 -52 -45 0 -38 14 95 177 102 126 245 282 259 283 6 0 12 -6
12 -13z m-3400 -21 c0 -18 -62 -122 -97 -164 -15 -18 -45 -59 -66 -90 -22 -31
-42 -59 -46 -62 -13 -9 -71 -98 -71 -109 0 -6 -4 -11 -10 -11 -5 0 -10 -6 -10
-13 0 -8 -10 -22 -21 -33 -12 -10 -27 -30 -33 -44 -26 -58 -82 -140 -95 -137
-8 1 -19 10 -25 19 -12 20 16 84 88 197 40 62 78 114 224 308 18 24 37 43 42
43 6 0 9 4 8 9 -2 6 15 30 36 55 38 45 76 60 76 32z m444 -88 c-9 -18 -30 -48
-45 -66 -16 -18 -29 -42 -29 -53 0 -11 -7 -22 -15 -25 -8 -4 -15 -12 -15 -18
0 -20 -67 -146 -128 -241 -6 -11 -16 -29 -21 -40 -6 -11 -24 -40 -40 -65 -17
-25 -31 -49 -31 -53 0 -5 -21 -38 -46 -73 -53 -75 -77 -81 -82 -21 -2 26 1 39
12 43 9 3 18 21 22 40 3 19 11 38 18 42 15 9 49 59 82 119 15 26 54 89 88 138
33 50 67 102 76 117 8 15 43 68 78 117 34 50 62 94 62 100 0 5 6 11 13 14 19
6 20 -38 1 -75z m-251 50 c-5 -7 -26 -34 -47 -60 -20 -25 -33 -49 -28 -52 11
-7 24 7 68 77 19 29 34 46 34 40 0 -16 -63 -114 -84 -133 -10 -7 -32 -38 -50
-69 -18 -31 -44 -68 -57 -83 -13 -14 -33 -43 -44 -65 -11 -21 -30 -49 -43 -63
-13 -13 -31 -38 -39 -55 -9 -16 -33 -50 -53 -75 -21 -25 -41 -56 -45 -70 -4
-14 -15 -32 -24 -40 -9 -8 -16 -19 -17 -25 0 -5 -7 -25 -15 -42 -9 -24 -20
-33 -36 -33 -27 0 -28 3 -6 66 15 43 84 153 177 281 17 23 62 89 99 147 62 94
199 266 214 266 3 0 1 -6 -4 -12z m288 -195 c-16 -32 -62 -116 -103 -188 -41
-71 -82 -148 -91 -170 -10 -22 -25 -53 -34 -69 -9 -16 -20 -43 -24 -60 -5 -23
-7 -25 -8 -9 -1 25 72 186 133 293 24 41 67 117 95 168 59 103 77 123 32 35z
m41 30 c-31 -69 -73 -151 -123 -234 -32 -54 -79 -143 -105 -198 -26 -55 -49
-99 -51 -97 -7 6 101 228 155 319 29 49 68 119 87 158 20 38 37 69 40 69 2 0
1 -8 -3 -17z m3334 -645 c-3 -35 -8 -94 -12 -133 -7 -76 -17 -105 -38 -105
-16 0 -36 43 -36 78 1 33 48 205 49 177 1 -11 -8 -49 -19 -85 -11 -36 -20 -79
-20 -97 0 -34 14 -52 24 -31 3 7 3 2 0 -12 -6 -22 -5 -23 9 -10 9 9 18 43 21
85 13 149 19 195 23 195 3 0 3 -28 -1 -62z m-1417 -2 c-2 -2 -33 -6 -69 -9
-41 -3 -54 -2 -35 3 31 8 112 13 104 6z m-144 -15 c-23 -21 -535 -79 -845 -95
-58 -3 -152 -8 -210 -11 -58 -3 -127 -8 -155 -10 -27 -3 -140 -10 -250 -16
-110 -6 -227 -14 -260 -19 l-60 -9 75 4 c41 2 206 11 365 19 582 31 683 37
830 52 143 14 326 39 520 70 50 7 99 13 110 13 50 -3 -424 -73 -635 -93 -168
-17 -371 -29 -745 -46 -268 -12 -409 -23 -598 -46 -70 -9 -133 -14 -139 -12
-7 3 41 12 107 21 117 16 118 16 35 12 -47 -3 -80 -2 -75 0 23 9 293 35 470
45 105 5 215 12 245 15 30 2 102 7 160 10 58 3 150 7 205 10 220 12 490 38
665 64 102 16 187 29 190 30 2 0 0 -3 -5 -8z m-1957 -178 c-10 -2 -26 -2 -35
0 -10 3 -2 5 17 5 19 0 27 -2 18 -5z m-83 -11 l-30 -5 30 -7 30 -8 -32 -1
c-23 -1 -33 4 -33 14 0 11 10 15 33 14 l32 -2 -30 -5z m2645 -52 c-13 -9 -13
-10 0 -10 23 -1 -24 -25 -135 -69 -55 -22 -122 -49 -150 -61 -27 -12 -59 -25
-70 -30 -11 -4 -41 -18 -66 -29 -25 -12 -49 -21 -53 -21 -28 0 -197 -137 -312
-254 -170 -173 -266 -351 -314 -587 -19 -90 -21 -126 -17 -264 4 -121 11 -178
27 -235 34 -121 34 -120 18 -120 -14 0 -38 62 -58 150 -21 90 -24 337 -6 445
25 145 87 322 149 420 66 105 106 155 197 246 98 97 247 219 269 219 5 0 14 7
22 16 11 14 120 74 133 74 3 0 2 -8 -1 -17 -5 -12 -2 -15 8 -10 8 3 91 37 184
76 161 66 209 83 175 61z m930 -77 c11 -54 33 -107 48 -116 6 -4 12 -18 12
-30 1 -12 7 -33 15 -47 19 -34 18 -48 -2 -52 -40 -8 -87 80 -98 182 -3 36 -9
74 -11 85 -4 16 -3 17 4 5 5 -8 13 -46 17 -85 8 -74 29 -128 64 -159 28 -26
36 -15 17 23 -9 16 -16 39 -16 51 0 12 -4 19 -9 16 -9 -6 -46 88 -55 143 -8
46 4 32 14 -16z m1030 -108 c0 -15 -68 -125 -78 -125 -2 0 4 12 13 27 37 55
57 94 53 98 -5 5 -98 -138 -98 -150 0 -4 7 -2 16 6 10 8 8 0 -6 -24 -12 -20
-27 -40 -32 -43 -6 -4 -2 5 7 20 10 15 15 29 12 32 -3 3 -12 -5 -20 -18 -8
-12 -30 -48 -49 -78 -121 -193 -268 -510 -192 -412 8 9 44 76 80 147 80 158
123 230 190 321 29 38 62 85 74 104 17 28 20 30 15 10 -4 -14 -22 -45 -41 -70
-92 -126 -150 -220 -218 -354 -77 -152 -99 -186 -123 -186 -9 0 -12 8 -7 28 8
34 148 319 188 381 17 25 39 62 51 82 11 19 47 76 80 127 56 86 85 112 85 77z
m-774 -369 c16 -14 33 -26 38 -26 17 0 56 -43 56 -61 0 -15 -6 -18 -32 -13
-69 11 -78 15 -78 29 0 8 -6 15 -12 15 -17 1 -57 65 -65 101 -4 23 -2 28 18
31 18 2 27 -4 35 -23 7 -14 25 -38 40 -53z m214 -177 c0 -5 16 -15 35 -23 19
-8 35 -19 35 -24 0 -6 16 -13 35 -16 22 -4 35 -13 35 -22 0 -14 -2 -14 -16 0
-8 9 -24 16 -35 16 -10 0 -28 9 -39 20 -21 21 -50 27 -50 10 0 -17 81 -85 109
-91 26 -7 26 -7 -4 -8 -22 0 -41 10 -72 40 -24 22 -43 44 -43 48 0 5 -7 11
-15 15 -15 5 -21 37 -9 49 8 8 34 -3 34 -14z m141 -200 c-16 -45 -12 -71 4
-29 7 19 14 31 14 27 1 -11 -48 -188 -59 -212 -11 -24 -37 -97 -51 -142 -5
-18 -14 -35 -19 -38 -6 -4 -10 -13 -10 -22 0 -13 -94 -210 -130 -273 -5 -8
-15 -27 -22 -41 -36 -73 -125 -223 -173 -292 -59 -84 -61 -87 -44 -87 5 0 7 5
4 10 -3 6 -1 10 4 10 6 0 11 -7 11 -16 0 -11 -6 -15 -20 -11 -16 4 -29 -6 -59
-46 -42 -57 -128 -146 -296 -308 -102 -97 -260 -213 -417 -303 -46 -27 -49
-32 -73 -110 -14 -45 -25 -87 -25 -94 0 -7 -7 -12 -15 -12 -9 0 -15 9 -14 23
0 19 1 20 8 3 5 -13 15 9 36 79 21 72 34 99 49 106 30 13 198 121 287 186 42
30 110 88 150 130 41 42 93 91 116 110 23 19 41 40 39 46 -1 7 -1 8 2 4 7 -13
132 126 127 141 -3 7 -1 11 3 8 8 -5 45 42 140 174 18 25 44 67 57 93 14 26
40 71 58 100 34 55 173 334 200 402 78 198 115 311 104 321 -3 4 -9 -7 -13
-22 -4 -16 -16 -49 -27 -74 -11 -25 -42 -97 -69 -160 -54 -125 -197 -408 -243
-480 -16 -25 -41 -66 -55 -92 -44 -81 -157 -235 -246 -334 -35 -38 -76 -86
-91 -105 -45 -56 -234 -228 -294 -267 -31 -21 -98 -65 -149 -99 -50 -35 -100
-63 -111 -63 -22 0 -22 1 -44 -103 -9 -43 -19 -77 -21 -74 -2 2 3 35 11 73 8
38 18 79 20 91 3 15 14 23 33 25 22 2 26 7 24 26 -2 15 2 22 12 22 9 0 16 -5
16 -11 0 -5 -4 -7 -10 -4 -5 3 -10 1 -10 -4 0 -16 0 -16 85 42 43 28 103 68
134 89 60 39 249 211 294 267 15 19 56 67 91 105 90 100 198 246 250 339 17
31 51 88 74 129 46 76 192 366 229 453 12 28 35 82 52 120 16 39 40 103 52
143 13 39 25 70 27 67 2 -2 -1 -18 -7 -36z m26 19 c-3 -8 -6 -5 -6 6 -1 11 2
17 5 13 3 -3 4 -12 1 -19z m-17 -203 c0 -8 -4 -15 -8 -15 -5 0 -9 7 -9 15 0 8
4 15 9 15 4 0 8 -7 8 -15z m-560 -1040 c0 -8 -7 -15 -15 -15 -16 0 -20 12 -8
23 11 12 23 8 23 -8z m-3605 -691 c3 -20 4 -39 0 -42 -9 -10 -24 12 -31 46 -5
25 -3 32 9 32 9 0 17 -14 22 -36z"/>
<path d="M7780 5880 c-20 -6 -21 -8 -5 -8 11 -1 38 3 60 7 l40 9 -35 0 c-19 0
-46 -4 -60 -8z"/>
<path d="M7810 5845 c30 -8 66 -14 80 -14 14 1 -2 7 -35 15 -78 17 -116 16
-45 -1z"/>
<path d="M5110 6538 c0 -9 5 -20 10 -23 13 -8 13 5 0 25 -8 13 -10 13 -10 -2z"/>
<path d="M7780 5800 c19 -5 85 -12 145 -14 109 -5 109 -5 20 3 -49 4 -115 11
-145 14 -45 5 -49 5 -20 -3z"/>
<path d="M7356 4751 c-13 -5 -16 -10 -8 -15 15 -9 63 4 56 15 -6 11 -21 11
-48 0z"/>
<path d="M7166 4691 l-59 -17 39 -12 c35 -11 48 -10 114 12 41 14 59 23 39 20
-22 -4 -39 -1 -43 5 -9 14 -18 13 -90 -8z m84 -1 c8 -5 11 -10 5 -10 -5 0 -17
5 -25 10 -8 5 -10 10 -5 10 6 0 17 -5 25 -10z m-65 -20 c13 -6 15 -9 5 -9 -8
0 -22 4 -30 9 -18 12 -2 12 25 0z"/>
<path d="M7250 5725 c-16 -9 -19 -14 -9 -15 8 0 24 7 35 15 24 18 7 19 -26 0z"/>
<path d="M7550 4979 c0 -34 -15 -135 -26 -171 -4 -13 -1 -16 9 -12 11 4 17 32
22 105 4 55 4 103 1 106 -3 4 -6 -9 -6 -28z"/>
<path d="M5663 4497 c-17 -7 -35 -16 -40 -21 -5 -5 0 -6 12 -1 11 4 40 13 65
20 30 9 37 13 20 13 -14 0 -39 -5 -57 -11z"/>
<path d="M11005 4500 c-63 -28 -115 -82 -115 -119 0 -30 2 -31 40 -31 71 0
180 73 180 120 0 52 -35 62 -105 30z m83 -2 c23 -23 12 -46 -43 -88 -44 -34
-65 -43 -103 -46 -47 -3 -47 -3 -7 4 72 14 162 83 149 115 -3 10 -10 17 -15
17 -17 0 -88 -40 -96 -54 -4 -7 -17 -15 -28 -17 -11 -3 -25 -15 -32 -29 -7
-14 -13 -19 -13 -11 0 18 29 51 45 51 7 0 15 6 18 14 6 14 79 53 103 55 5 1
15 -4 22 -11z"/>
<path d="M12029 4363 c-43 -69 -130 -165 -349 -383 -233 -233 -289 -300 -335
-400 -41 -90 -63 -125 -77 -125 -7 -1 -12 -6 -11 -13 2 -7 -1 -12 -7 -12 -5 0
-17 -15 -27 -32 -28 -55 -153 -347 -153 -361 0 -15 -75 -80 -157 -136 -97 -66
-98 -88 -1 -28 134 82 171 135 258 366 13 35 39 86 57 113 19 27 31 54 27 60
-4 6 -3 8 3 5 5 -3 42 42 82 101 39 59 86 126 104 149 48 62 146 181 165 201
10 9 31 36 46 59 16 24 61 72 101 108 102 91 140 130 200 205 66 83 109 149
103 156 -3 3 -16 -12 -29 -33z"/>
<path d="M8720 4183 c-36 -58 -71 -122 -78 -141 -7 -20 -19 -43 -28 -53 -16
-17 -62 -98 -88 -154 -8 -17 -24 -39 -35 -49 -11 -10 -18 -22 -16 -27 3 -4 -4
-24 -16 -44 -12 -20 -19 -38 -16 -42 13 -13 36 8 62 59 15 29 33 60 40 68 7 8
22 33 33 55 11 22 29 51 41 64 12 13 21 30 21 36 0 7 16 39 35 71 77 130 136
265 117 264 -4 0 -36 -48 -72 -107z"/>
<path d="M9049 4197 c-80 -80 -111 -118 -225 -272 -56 -77 -116 -158 -133
-180 -29 -39 -50 -95 -36 -95 13 0 60 42 90 80 66 86 223 303 287 398 16 23
33 42 37 42 9 0 44 71 38 77 -3 2 -29 -20 -58 -50z"/>
<path d="M8374 4229 c-7 -8 -19 -30 -28 -49 -9 -19 -33 -66 -54 -105 -20 -38
-43 -89 -50 -113 -7 -23 -31 -79 -52 -124 -49 -101 -54 -138 -10 -83 16 20 32
45 35 56 4 10 13 19 20 19 9 0 12 6 9 15 -3 8 8 44 25 80 17 36 31 69 31 74 0
5 11 29 25 52 14 24 25 51 25 59 0 8 9 33 21 54 22 41 24 92 3 65z"/>
<path d="M9254 4067 c-51 -56 -111 -127 -135 -157 -23 -30 -64 -80 -91 -109
-26 -30 -48 -59 -48 -63 0 -22 33 -2 72 44 23 28 51 61 60 72 10 12 50 63 90
114 40 52 91 116 112 143 67 86 35 62 -60 -44z"/>
<path d="M5920 4141 c0 -5 -13 -23 -30 -41 -16 -18 -30 -38 -30 -46 0 -8 -4
-14 -10 -14 -5 0 -24 -19 -42 -43 -147 -195 -182 -244 -229 -318 -83 -130 -94
-155 -79 -174 11 -14 19 -7 56 52 24 37 44 73 44 79 0 6 11 21 25 34 14 13 25
29 25 36 0 7 4 14 8 16 4 2 20 24 35 50 15 26 34 54 43 62 8 9 32 40 52 70 20
30 50 70 65 88 25 29 97 144 97 154 0 2 -7 4 -15 4 -8 0 -15 -4 -15 -9z"/>
<path d="M6401 4110 c-1 -8 -18 -38 -39 -65 -20 -28 -52 -73 -70 -100 -40 -62
-200 -314 -238 -375 -15 -25 -34 -48 -41 -53 -7 -4 -15 -23 -19 -42 -3 -18
-12 -36 -20 -39 -16 -6 -19 -52 -5 -60 9 -6 101 114 101 130 0 4 22 41 49 83
26 42 59 96 72 119 44 81 56 101 71 124 8 13 19 34 23 48 4 14 13 32 20 40 7
8 15 28 19 44 4 15 20 39 35 52 31 26 56 76 48 96 -4 10 -6 9 -6 -2z"/>
<path d="M6012 3932 c-27 -38 -73 -106 -102 -152 -29 -46 -74 -112 -101 -147
-27 -34 -49 -65 -49 -69 0 -3 -16 -28 -36 -55 -19 -26 -39 -61 -44 -76 -4 -15
-11 -36 -15 -45 -5 -13 -2 -18 11 -18 9 0 14 3 11 6 -4 4 3 20 14 35 11 16 17
29 14 29 -4 0 5 14 19 31 14 17 26 39 26 49 0 9 18 36 39 58 21 22 42 50 46
62 4 12 21 39 39 59 17 20 41 53 51 74 11 22 30 50 43 64 36 39 102 152 92
158 -5 3 -31 -26 -58 -63z"/>
<path d="M8678 2966 c-86 -35 -162 -67 -168 -71 -6 -4 -17 -1 -25 5 -16 14
-11 16 -138 -68 -224 -149 -407 -344 -506 -540 -46 -90 -87 -222 -107 -337
-30 -178 -5 -493 46 -573 13 -19 13 -21 -22 103 -29 103 -36 349 -14 470 47
248 148 443 323 623 121 125 281 252 315 252 8 0 19 5 26 12 7 7 12 8 12 4 0
-5 6 -4 13 2 6 5 98 45 202 87 190 77 229 94 210 94 -5 0 -81 -28 -167 -63z
m-193 -76 c3 -6 -1 -7 -9 -4 -18 7 -21 14 -7 14 6 0 13 -4 16 -10z"/>
<path d="M9960 2539 c0 -21 55 -97 73 -102 10 -3 16 -11 15 -19 -2 -7 2 -12 8
-11 7 1 26 -2 43 -7 17 -5 31 -5 31 -1 0 10 -44 51 -56 51 -15 0 -65 50 -74
76 -10 24 -40 34 -40 13z"/>
<path d="M10230 2307 c0 -9 4 -18 9 -21 5 -4 8 1 7 9 -3 21 -16 31 -16 12z"/>
<path d="M6221 210 c0 -8 4 -24 9 -35 5 -13 9 -14 9 -5 0 8 -4 24 -9 35 -5 13
-9 14 -9 5z"/>
<path d="M7795 7185 c17 -7 82 -35 145 -61 63 -26 124 -56 135 -65 11 -10 43
-37 70 -60 28 -23 74 -74 104 -113 30 -39 86 -111 126 -161 40 -49 111 -149
158 -222 78 -119 116 -168 101 -130 -3 8 -1 18 5 22 6 3 11 10 11 14 0 16 -70
96 -84 96 -12 0 -86 94 -86 110 0 4 -31 43 -68 88 -38 45 -99 123 -138 173
-38 50 -91 110 -119 133 -27 23 -59 51 -71 61 -22 20 -170 92 -238 115 -54 19
-93 19 -51 0z m835 -768 c5 2 7 -4 4 -12 -4 -8 -7 -15 -9 -15 -6 0 -65 97 -65
106 0 5 14 -11 30 -36 17 -25 35 -44 40 -43z"/>
<path d="M8743 7030 c0 -36 2 -50 4 -32 2 17 2 47 0 65 -2 17 -4 3 -4 -33z"/>
<path d="M3661 5741 c-1 -28 82 -207 112 -239 29 -31 114 -79 174 -97 133 -42
405 -58 540 -33 60 11 66 10 76 -7 6 -11 21 -30 34 -43 13 -12 23 -27 23 -31
0 -5 27 -31 60 -57 51 -42 88 -64 192 -115 40 -20 247 -69 291 -69 40 0 49 -4
56 -22 5 -13 16 -39 25 -58 20 -43 14 -8 -7 40 l-15 35 71 -6 c88 -7 192 -2
232 11 30 10 30 10 -5 5 -19 -3 -59 0 -89 7 -49 11 -55 10 -67 -7 -8 -10 -14
-14 -14 -8 0 5 -11 8 -24 6 -44 -9 -190 16 -314 52 -146 42 -250 86 -312 132
-50 37 -133 134 -122 143 4 3 8 12 9 20 3 19 -58 20 -80 2 -25 -21 -99 -24
-263 -13 -254 19 -366 50 -451 124 -34 30 -110 165 -124 222 -6 26 -7 27 -8 6z
m897 -348 c-10 -2 -26 -2 -35 0 -10 3 -2 5 17 5 19 0 27 -2 18 -5z m861 -342
c10 -7 7 -9 -12 -8 -15 1 -27 5 -27 10 0 10 22 9 39 -2z"/>
<path d="M5687 5164 c-4 -4 -50 -22 -104 -40 -54 -18 -91 -33 -82 -34 8 0 47
11 86 24 72 25 136 55 117 56 -6 0 -14 -3 -17 -6z"/>
<path d="M8598 4763 c7 -3 16 -2 19 1 4 3 -2 6 -13 5 -11 0 -14 -3 -6 -6z"/>
<path d="M10530 4379 c0 -5 -4 -8 -9 -4 -13 8 -25 -15 -14 -26 6 -6 18 0 33
16 19 21 21 25 7 25 -9 0 -17 -5 -17 -11z"/>
<path d="M9571 3217 c-29 -32 -26 -38 9 -21 30 16 37 28 21 38 -4 3 -18 -5
-30 -17z"/>
<path d="M6151 203 c0 -5 18 -37 39 -73 22 -36 47 -80 57 -98 9 -17 23 -32 31
-32 12 0 12 4 -2 25 -9 13 -24 37 -34 53 -67 110 -93 145 -91 125z"/>
</g>
</svg>
