<?xml version="1.0" standalone="no"?>
<!DOCTYPE svg PUBLIC "-//W3C//DTD SVG 20010904//EN"
 "http://www.w3.org/TR/2001/REC-SVG-20010904/DTD/svg10.dtd">
<svg version="1.0" xmlns="http://www.w3.org/2000/svg"
 width="1280.000000pt" height="720.000000pt" viewBox="0 0 1280.000000 720.000000"
 preserveAspectRatio="xMidYMid meet">
<metadata>
Created by potrace 1.16, written by Peter Selinger 2001-2019
</metadata>
<g transform="translate(0.000000,720.000000) scale(0.100000,-0.100000)"
fill="#000000" stroke="none">
<path d="M0 5505 c0 -932 3 -1695 6 -1695 15 0 44 22 39 30 -3 6 2 7 12 4 16
-5 16 -4 -1 10 -21 17 -15 20 29 17 18 -1 18 0 3 9 -11 7 -25 7 -44 0 -49 -19
-35 -4 19 20 28 12 81 36 117 52 171 78 360 135 520 158 110 16 499 8 549 -10
29 -11 57 -10 170 4 75 9 161 21 191 26 30 5 136 18 235 30 99 11 216 25 260
31 44 5 152 11 240 13 126 3 186 10 280 31 67 14 180 30 255 35 171 11 280 31
450 79 267 77 507 129 640 138 55 4 91 11 103 21 12 11 21 12 28 5 7 -7 2 -20
-16 -41 -21 -25 -30 -30 -44 -22 -12 6 -42 5 -85 -2 -69 -11 -70 -20 -6 -32
26 -5 31 -4 20 3 -48 34 73 -11 211 -78 92 -44 99 -46 99 -30 0 5 -5 7 -10 4
-5 -3 -10 -1 -10 4 0 6 7 11 16 11 11 0 15 -6 11 -20 -4 -15 4 -25 34 -42 21
-12 37 -23 35 -25 -1 -2 -44 20 -94 48 -51 28 -97 49 -102 47 -6 -2 18 -18 52
-36 116 -60 153 -82 138 -82 -9 0 -25 7 -37 15 -38 26 -216 112 -303 145 -47
18 -98 38 -114 45 -26 10 -57 6 -215 -26 -102 -21 -201 -45 -220 -53 -49 -21
-332 -83 -464 -101 -59 -8 -129 -20 -155 -26 -26 -6 -90 -19 -142 -29 -52 -10
-113 -23 -135 -28 -77 -19 -135 -24 -135 -12 0 6 4 9 9 6 10 -6 125 11 161 23
14 5 69 17 123 26 53 9 95 20 93 23 -2 4 10 7 27 8 101 1 545 88 613 119 31
14 334 79 415 89 24 3 68 10 98 16 30 6 62 8 71 5 10 -3 26 5 40 20 13 14 19
25 13 25 -6 0 -16 -6 -22 -14 -7 -8 -44 -15 -98 -19 -135 -9 -374 -60 -643
-138 -172 -49 -281 -68 -453 -79 -76 -4 -141 -11 -144 -14 -4 -3 1 -6 10 -6 9
0 18 -4 21 -9 4 -5 -9 -4 -28 1 -26 8 -55 6 -137 -13 -79 -17 -142 -23 -259
-25 -85 -2 -191 -8 -235 -13 -44 -6 -125 -16 -180 -21 -55 -6 -161 -19 -235
-30 -372 -51 -405 -54 -441 -40 -58 22 -452 26 -579 6 -57 -10 -106 -18 -107
-20 -1 -1 37 -2 85 -2 53 -1 75 2 57 6 -16 4 13 5 65 4 277 -10 327 -13 350
-23 19 -8 14 -8 -25 -3 -101 14 -557 4 -573 -13 -4 -4 13 -5 38 -1 34 4 39 3
20 -4 -30 -11 73 -3 135 11 62 13 292 10 365 -6 36 -8 49 -12 30 -9 -98 13
-320 16 -399 4 -208 -30 -412 -96 -649 -212 l-62 -31 0 -519 1 -520 52 5 52 6
-52 -11 c-54 -11 -67 -23 -35 -31 16 -4 16 -5 0 -6 -17 -1 -18 -20 -18 -246 0
-135 3 -245 8 -245 4 0 22 9 40 20 19 12 64 32 100 46 66 25 87 34 147 60 17
7 55 22 85 34 29 12 70 32 90 44 19 13 49 28 65 34 17 6 62 22 100 37 241 91
398 136 450 130 30 -4 34 -3 15 3 l-25 8 27 6 c15 3 25 1 22 -3 -8 -14 19 -10
40 6 11 8 27 15 35 15 9 0 -6 -11 -32 -24 -46 -23 -47 -24 -21 -30 14 -4 40
-3 58 3 17 5 102 26 190 47 87 21 154 40 148 42 -8 2 -274 -56 -337 -75 -11
-3 -17 -2 -13 2 4 4 78 24 165 45 132 31 152 38 124 43 -19 4 -43 7 -55 6 -19
-1 -18 -2 4 -8 18 -5 -5 -13 -89 -29 -62 -13 -115 -21 -118 -19 -2 3 27 10 64
17 37 7 62 15 55 18 -7 2 -45 -3 -85 -11 -118 -25 -208 -40 -213 -35 -2 3 29
10 68 17 40 7 127 23 193 37 66 13 179 30 250 39 72 9 191 25 265 37 74 11
167 24 205 29 316 35 370 47 473 110 35 21 67 39 72 39 17 0 92 63 110 93 20
32 27 111 12 133 -5 8 -73 13 -213 15 -144 3 -210 8 -221 16 -11 10 -43 11
-139 3 -136 -10 -340 -34 -434 -50 -89 -15 -384 -86 -430 -104 -22 -8 -56 -15
-75 -15 -27 1 -20 4 28 14 61 13 98 32 87 43 -2 3 -11 -1 -20 -8 -35 -29 -16
-1 34 50 35 36 46 44 32 23 -12 -18 -18 -33 -13 -33 14 0 70 90 77 125 5 23 2
20 -14 -14 -12 -24 -23 -42 -26 -39 -3 2 4 23 15 46 24 50 27 104 5 96 -13 -5
-15 12 -15 119 0 204 -33 312 -135 443 l-47 59 51 -55 c60 -65 68 -57 11 11
-22 26 -40 52 -40 57 0 5 35 15 78 21 89 15 278 58 307 71 60 27 246 53 500
70 83 5 223 15 313 21 90 6 165 9 168 7 4 -5 -73 -11 -486 -39 -210 -14 -385
-36 -460 -59 -36 -11 -96 -28 -135 -38 -38 -10 -69 -23 -69 -28 1 -5 5 -25 8
-44 4 -26 4 -30 -3 -15 l-10 20 0 -20 c0 -11 7 -36 15 -55 l14 -35 -5 34 c-9
57 4 29 32 -70 23 -83 27 -113 27 -249 1 -134 -2 -168 -24 -248 -16 -62 -30
-97 -42 -103 -11 -6 -18 -6 -18 0 0 5 7 12 16 15 11 4 14 13 11 28 -3 12 1 51
10 87 24 95 23 343 -1 431 -23 83 -45 158 -57 190 -9 24 -9 24 6 6 11 -14 15
-16 15 -5 -1 36 -13 39 -105 23 -50 -8 -91 -17 -93 -19 -2 -2 8 -16 22 -32 70
-74 144 -219 133 -260 -3 -12 -5 -10 -6 7 -1 14 -6 32 -11 40 -13 20 -12 7 4
-65 11 -46 14 -53 16 -30 l2 30 8 -30 c4 -16 8 -84 10 -150 1 -117 16 -251 19
-178 0 17 5 34 10 37 11 7 -4 -73 -23 -118 -22 -53 -66 -107 -85 -104 -9 2
-16 -4 -16 -12 0 -9 10 -16 25 -17 l25 -2 -25 8 c-24 7 -23 8 13 15 20 4 42 4
47 1 5 -3 67 7 137 22 70 15 121 29 112 31 -13 2 -71 -9 -219 -44 -19 -4 -21
-3 -10 4 27 18 310 71 490 92 196 23 540 38 540 24 0 -5 -57 -8 -127 -7 -87 1
-117 -1 -93 -7 19 -5 53 -13 75 -19 22 -6 122 -11 221 -11 204 0 194 4 194
-76 0 -75 -30 -118 -120 -171 -165 -96 -165 -97 -30 -106 95 -7 95 0 -1 12
-52 7 -56 9 -23 10 49 1 190 -33 261 -64 57 -26 106 -72 173 -164 57 -79 89
-172 94 -276 3 -64 2 -70 -4 -30 -7 44 -7 41 -5 -25 3 -82 -12 -126 -58 -168
-33 -31 -47 -10 -18 26 12 15 31 47 43 71 42 90 3 276 -82 387 -24 30 -52 61
-62 68 -10 7 -16 15 -13 18 3 3 -13 18 -35 33 -45 31 -50 39 -17 30 15 -5 19
-4 12 3 -15 15 -59 27 -51 13 4 -6 -13 -4 -41 5 -76 25 -165 44 -210 44 -23 0
-53 5 -67 12 -20 8 -31 8 -48 -1 -22 -11 -22 -11 4 -6 47 9 31 -4 -24 -19 -90
-26 -574 -94 -585 -82 -3 2 26 7 64 11 66 6 221 28 313 45 39 7 41 8 13 9 -34
1 -58 -2 -333 -43 -91 -14 -201 -28 -245 -32 -78 -7 -79 -7 -48 -20 27 -12 42
-11 109 6 42 11 87 20 98 19 12 0 -16 -9 -62 -19 -45 -11 -86 -21 -91 -24 -4
-3 -91 -26 -192 -51 -310 -77 -448 -116 -609 -170 -276 -92 -565 -197 -568
-205 -2 -5 -59 -39 -128 -77 l-124 -68 0 -578 c1 -539 2 -578 18 -573 15 5 15
5 0 -8 -17 -12 -18 -48 -18 -500 l0 -486 203 0 c180 1 199 2 177 15 -14 8 -36
14 -49 15 -14 0 -40 16 -63 40 l-40 40 7 77 c6 66 14 92 52 163 25 47 49 90
53 95 18 23 139 276 166 347 16 43 34 78 40 78 13 0 82 88 110 140 10 19 24
42 30 50 19 24 184 359 184 372 0 3 -53 -14 -118 -36 -112 -39 -123 -45 -218
-126 -54 -47 -119 -99 -144 -114 -40 -26 -42 -30 -25 -38 17 -7 16 -8 -5 -4
-16 4 -41 -5 -75 -26 -89 -55 -191 -105 -226 -112 -26 -5 -21 -1 19 15 47 18
51 23 40 37 -11 15 -11 15 3 4 18 -13 53 -6 43 10 -3 5 -13 7 -21 4 -8 -3 -11
-1 -8 4 9 15 -6 11 -45 -11 -28 -16 -30 -18 -10 -14 l25 6 -25 -15 c-28 -17
-53 -21 -30 -5 11 8 8 9 -15 4 -17 -3 31 25 106 63 203 102 348 204 462 325
26 27 50 48 52 45 8 -8 -70 -87 -155 -158 -41 -35 -74 -67 -73 -71 2 -5 -4 -6
-12 -3 -11 5 -13 2 -9 -10 3 -9 8 -16 11 -16 3 0 51 39 106 87 70 61 116 92
151 104 28 10 42 18 31 19 -11 1 11 13 49 27 39 15 65 28 59 30 -6 2 -35 -6
-64 -17 -30 -12 -49 -17 -44 -12 18 17 108 46 144 47 19 0 36 6 38 13 3 7 -4
12 -19 12 -19 0 -20 -2 -8 -10 11 -8 9 -9 -11 -5 -15 4 -43 0 -64 -9 -45 -19
-46 -19 -42 -4 1 7 -3 12 -10 11 -7 -2 -10 4 -6 13 5 13 7 13 14 2 6 -9 9 -6
9 10 0 13 4 21 9 18 5 -3 7 -14 4 -25 -5 -18 -3 -18 62 -3 44 11 60 18 49 22
-18 7 8 21 221 120 56 27 66 35 50 40 -13 5 -5 7 23 6 26 0 46 5 51 13 6 8 16
11 30 6 17 -5 40 5 94 41 76 49 227 196 227 220 0 8 4 14 8 14 5 0 17 19 28
42 14 33 19 65 19 133 0 104 -13 139 -79 210 -23 25 -40 45 -36 45 10 0 77
-73 90 -98 6 -13 14 -21 17 -19 14 15 -69 116 -107 130 -11 4 -10 6 4 6 26 1
87 -65 116 -125 35 -74 40 -202 10 -275 -23 -54 -59 -107 -44 -64 6 16 4 18
-6 8 -8 -7 -15 -29 -17 -49 l-2 -37 27 26 c28 27 67 37 60 15 -2 -6 -15 -18
-29 -26 l-24 -14 25 21 c14 11 20 21 13 21 -11 0 -80 -52 -133 -102 -46 -43
-62 -52 -69 -39 -5 8 -13 5 -26 -9 -10 -11 -22 -20 -27 -20 -4 0 -33 -16 -62
-36 -30 -19 -62 -35 -73 -34 -28 3 -63 -11 -56 -23 3 -5 1 -7 -5 -3 -6 3 -41
-9 -79 -28 -37 -18 -75 -35 -82 -38 -12 -3 -12 -6 2 -11 9 -3 23 0 31 8 8 8
21 15 28 15 7 0 27 7 43 16 17 9 47 17 68 19 33 3 79 28 167 88 8 6 6 1 -5
-11 -36 -37 -136 -91 -169 -90 -29 1 -65 -15 -156 -69 -19 -12 -61 -29 -92
-39 -31 -9 -55 -21 -52 -26 6 -10 72 -2 88 12 7 5 30 16 52 24 21 7 64 26 94
40 30 15 77 36 104 47 26 11 82 45 123 77 105 81 119 89 166 96 36 6 39 9 23
18 -14 8 -21 7 -28 -3 -8 -12 -9 -12 -6 0 2 8 15 21 29 30 23 15 23 15 9 -3
-14 -18 -13 -19 3 -13 10 4 24 7 30 7 7 0 6 5 -3 11 -12 9 -12 10 4 5 10 -4
89 11 175 33 86 21 251 58 366 81 208 41 333 72 453 112 167 56 -19 29 -332
-48 -252 -62 -304 -72 -261 -54 l20 9 -20 0 c-11 -1 -38 -7 -60 -15 l-40 -13
40 4 c32 3 35 3 15 -4 -97 -34 -199 -59 -220 -55 -20 5 -22 3 -10 -5 12 -8 7
-10 -20 -6 -28 4 -31 3 -15 -5 16 -8 13 -9 -15 -4 -27 4 -32 3 -20 -6 12 -8 8
-9 -14 -4 -22 5 -27 4 -21 -6 6 -9 4 -11 -4 -5 -7 4 -9 11 -4 15 16 15 311
103 488 145 99 24 214 53 256 64 121 32 244 51 340 51 73 0 90 3 99 17 10 16
10 16 8 -2 -3 -18 -13 -20 -113 -26 -61 -3 -86 -6 -55 -7 40 -2 51 -5 40 -12
-13 -9 -13 -10 0 -11 40 -2 -314 -95 -510 -134 -205 -41 -511 -113 -520 -122
-6 -6 1 -5 175 31 66 14 181 36 255 50 74 14 186 34 248 46 114 21 316 76 384
104 50 21 104 20 155 -4 24 -10 45 -15 48 -11 6 11 -12 26 -50 39 -23 8 -25
11 -10 12 17 2 16 3 -5 10 l-25 8 24 1 c13 1 34 12 47 26 l22 24 -28 14 c-24
13 -32 12 -68 -4 -23 -11 -44 -24 -47 -29 -3 -6 -11 -10 -16 -10 -13 0 10 23
38 38 12 7 28 25 36 41 12 25 13 36 2 73 -27 89 -44 154 -49 183 -6 34 17 -32
39 -110 8 -30 14 -40 14 -26 1 13 -6 49 -15 80 -17 60 -58 151 -50 113 2 -12
0 -20 -5 -16 -14 8 -11 44 4 44 28 0 96 -236 81 -282 -10 -32 5 -19 26 22 74
144 -64 435 -236 500 -32 12 -92 25 -134 29 -73 8 -73 8 -20 10 30 1 66 4 80
6 22 5 23 4 5 -5 -16 -8 -13 -9 16 -5 109 16 245 -109 310 -285 18 -51 24 -85
24 -156 0 -81 -3 -95 -26 -130 -28 -42 -25 -74 7 -74 26 0 26 -27 0 -55 -32
-35 -32 -39 -1 -53 26 -12 33 -37 12 -45 -6 -2 -34 4 -60 14 -58 23 -93 24
-142 4 -66 -28 -271 -84 -387 -105 -62 -12 -174 -32 -248 -46 -224 -41 -378
-75 -464 -100 -45 -13 -88 -24 -96 -24 -9 0 -31 -13 -50 -29 -90 -74 -174
-130 -202 -136 -20 -5 -26 -10 -18 -15 21 -13 -123 -91 -247 -134 -35 -13 -68
-27 -73 -32 -5 -5 -30 -61 -55 -124 -26 -63 -57 -137 -70 -165 -24 -52 -138
-232 -158 -250 -7 -5 -29 -29 -49 -52 -32 -36 -37 -48 -31 -73 4 -23 1 -36
-15 -53 -52 -55 -231 -456 -232 -518 0 -27 103 -129 130 -129 34 -1 109 -36
116 -55 5 -13 35 -15 200 -15 107 0 194 4 194 9 0 5 7 12 16 15 14 5 15 4 5
-8 -11 -13 59 -15 562 -16 l574 -1 5 44 c7 56 37 121 159 335 55 95 99 175 99
177 0 13 145 234 227 345 18 25 40 59 50 75 29 51 91 209 86 220 -2 5 -19 20
-38 32 l-34 21 -78 -24 c-43 -14 -143 -36 -223 -49 -80 -14 -212 -39 -293 -57
l-149 -31 -68 -141 c-38 -78 -86 -159 -106 -181 -30 -33 -33 -35 -18 -10 9 17
24 35 32 41 9 7 12 16 7 24 -5 8 -4 11 2 7 10 -6 43 55 109 201 23 49 35 65
59 72 l30 10 -32 -3 c-22 -2 -30 0 -24 7 5 6 12 29 16 51 4 22 3 35 -2 29 -4
-7 -9 31 -10 85 -1 72 -8 117 -29 181 -29 95 -90 222 -127 266 -26 32 -43 69
-27 59 6 -3 10 -1 10 4 0 6 -4 11 -10 11 -5 0 -10 6 -10 13 0 6 11 0 24 -15
16 -17 22 -35 19 -48 -3 -12 0 -20 6 -20 7 0 9 5 6 10 -3 6 -2 10 4 10 17 0
120 -222 142 -305 15 -59 19 -97 15 -164 -3 -57 -2 -74 3 -51 8 32 8 32 5 -10
-2 -25 -7 -58 -11 -74 -5 -27 -4 -29 18 -22 55 16 472 116 561 135 53 12 117
21 141 21 95 0 215 56 235 110 7 18 10 19 27 6 18 -13 18 -16 4 -33 -9 -10
-18 -25 -22 -34 -3 -9 -34 -26 -69 -39 -77 -28 -74 -26 -58 -46 20 -23 12 -91
-16 -142 -22 -39 -24 -49 -13 -68 9 -19 9 -26 0 -38 -20 -24 -4 -36 27 -20 15
7 50 13 77 13 l50 -2 -60 -7 c-86 -10 -102 -22 -111 -89 -7 -51 -8 -53 -15
-26 -3 17 -7 39 -7 50 0 16 2 15 8 -5 l8 -25 1 27 c1 14 4 33 7 42 12 32 -12
15 -38 -27 -15 -23 -55 -80 -88 -127 -34 -47 -65 -94 -70 -105 -6 -11 -35 -60
-65 -109 -30 -49 -55 -92 -55 -95 0 -4 -11 -22 -23 -41 -13 -19 -43 -71 -67
-115 -24 -44 -64 -116 -89 -160 -53 -92 -86 -163 -79 -170 3 -3 213 -4 466 -3
l462 3 -21 35 c-18 29 -23 32 -33 19 -17 -24 -56 -34 -56 -15 0 20 37 41 42
24 3 -9 6 -9 12 0 10 17 -72 93 -138 128 -30 16 -53 30 -51 32 1 2 26 -8 55
-23 64 -32 132 -94 176 -160 19 -27 34 -44 34 -37 0 21 -54 94 -103 139 -45
42 -100 74 -166 98 -20 8 -29 14 -21 14 22 1 138 -56 174 -85 17 -14 45 -44
62 -65 l32 -39 21 41 c21 40 21 69 0 39 -9 -13 -10 -13 -6 0 2 8 11 15 20 15
9 0 27 18 38 40 57 107 135 201 309 373 l185 184 145 3 c265 4 978 112 1095
165 11 5 38 14 60 20 22 6 49 15 60 20 135 55 175 76 273 138 47 29 86 51 89
49 2 -3 -19 -19 -48 -36 -28 -18 -49 -35 -45 -38 3 -3 14 0 23 8 16 13 17 12
4 -4 -15 -19 -156 -101 -193 -112 -13 -4 -27 -11 -33 -15 -37 -30 -320 -107
-490 -135 -261 -43 -623 -85 -765 -89 -111 -3 -118 -2 -35 3 l100 6 -114 5
-114 5 -177 -175 c-163 -162 -276 -295 -315 -371 -9 -17 -14 -33 -11 -36 2 -3
12 10 22 29 26 52 147 191 284 329 69 69 144 147 168 175 l43 49 -32 -50 c-18
-27 -83 -99 -145 -160 -204 -201 -304 -324 -375 -464 -18 -34 -19 -35 -13 -6
6 28 5 29 -9 11 -13 -18 -13 -23 2 -53 l16 -33 4848 0 4847 0 0 3600 0 3600
-6400 0 -6400 0 0 -1695z m3577 1549 c26 -20 62 -49 78 -64 132 -120 392 -234
670 -294 167 -36 196 -43 203 -51 4 -4 -2 -5 -13 -2 -53 13 -120 29 -229 53
-209 45 -391 119 -550 221 -37 24 -71 42 -73 39 -9 -9 138 -98 251 -151 136
-65 261 -105 430 -139 72 -15 130 -28 131 -29 0 -1 17 -27 37 -57 20 -30 39
-65 43 -78 4 -13 9 -21 12 -18 8 8 -17 66 -43 103 -21 27 -22 32 -7 37 9 4 18
4 21 1 3 -3 0 -5 -6 -5 -6 0 2 -25 18 -57 34 -67 100 -285 100 -332 0 -48 -26
-40 -33 12 -4 23 -9 56 -12 72 -3 17 1 10 10 -15 8 -25 15 -56 16 -70 2 -25 2
-25 6 -1 6 32 -29 160 -37 136 -4 -13 -12 1 -24 45 -41 146 -96 223 -168 234
-148 22 -345 80 -486 142 -92 41 -234 131 -321 203 l-84 70 -121 4 -121 3 122
2 122 2 58 -47 c84 -67 83 -66 83 -57 0 5 -28 32 -62 59 l-62 50 -125 6 -126
5 122 2 121 2 49 -36z m-317 14 c0 -7 -26 -29 -58 -50 -115 -73 -212 -180
-212 -235 0 -15 -6 -23 -16 -23 -14 0 -15 6 -9 38 4 20 8 47 9 59 0 11 3 20 7
18 3 -2 20 15 39 38 82 103 241 205 240 155z m85 -35 c-11 -3 -27 -11 -35 -18
-22 -18 -87 -50 -73 -35 21 23 87 58 108 58 l20 0 -20 -5z m-13 -33 c-18 -11
-35 -20 -39 -20 -4 0 -15 -7 -25 -17 -10 -9 -18 -11 -18 -5 0 12 77 60 100 61
8 0 0 -8 -18 -19z m-94 -58 c2 -6 -26 -25 -62 -43 -114 -55 -134 -93 -135
-251 -1 -69 13 -117 65 -222 70 -142 215 -328 302 -388 137 -93 173 -114 266
-154 55 -25 151 -58 211 -74 61 -16 103 -29 94 -29 -39 -2 -213 50 -311 92
-98 42 -133 62 -270 155 -47 33 -107 98 -190 208 -112 147 -177 300 -180 423
l-2 76 -7 -65 c-5 -47 -5 -35 -2 40 3 92 7 108 29 137 14 18 35 38 47 44 12 7
3 -7 -20 -30 -39 -39 -43 -47 -41 -89 l1 -47 4 42 c4 45 40 90 93 118 35 18
40 29 8 19 -31 -9 -18 3 34 31 45 25 59 27 66 7z m-238 -270 c0 -5 -7 -9 -15
-9 -8 0 -15 4 -15 9 0 4 7 8 15 8 8 0 15 -4 15 -8z m21 -118 c5 -6 16 -36 25
-65 19 -64 118 -265 145 -295 20 -21 25 -44 11 -44 -12 0 -58 51 -75 85 -9 17
-16 24 -17 17 -1 -31 80 -132 105 -132 6 0 43 -28 81 -62 130 -117 216 -174
345 -229 79 -34 129 -64 129 -80 0 -5 -18 4 -40 20 -22 16 -66 39 -97 51 -121
48 -219 113 -347 228 -38 34 -75 62 -81 62 -22 0 -84 77 -105 130 -12 30 -26
59 -31 65 -13 13 -11 53 3 57 9 3 8 13 -4 39 -9 19 -21 52 -28 74 -7 21 -23
63 -36 92 -13 30 -24 61 -24 71 1 9 8 -3 17 -28 8 -25 19 -50 24 -56z m1745
-6 c4 -13 16 -36 28 -53 56 -79 118 -201 71 -139 -19 25 -19 11 0 -26 17 -32
31 -41 20 -12 -4 11 -3 13 3 7 22 -23 253 -378 307 -470 31 -55 76 -127 100
-160 76 -107 102 -148 153 -245 49 -92 106 -229 99 -237 -2 -2 -19 34 -36 79
-44 111 -99 211 -188 340 -40 60 -89 134 -108 165 -19 32 -35 51 -35 42 0 -9
51 -93 113 -186 109 -163 209 -346 222 -408 3 -17 -5 -5 -18 25 -69 160 -128
262 -237 413 -19 27 -51 77 -70 112 -55 98 -86 148 -199 321 -111 167 -117
178 -158 253 -31 56 -48 75 -39 44 16 -57 16 -68 1 -38 -8 17 -13 39 -10 50 2
11 0 27 -5 35 -9 13 -10 13 -10 0 -1 -12 -3 -11 -11 3 -5 9 -8 21 -5 26 3 4
-1 17 -9 27 -8 10 -15 27 -15 37 0 25 27 21 36 -5z m-37 -48 c3 -3 13 -25 22
-50 10 -25 20 -54 25 -64 5 -13 4 -17 -4 -13 -6 4 -18 31 -27 60 -10 28 -21
56 -26 62 -5 5 -9 16 -8 25 0 13 1 13 6 0 3 -8 9 -17 12 -20z m-790 -741 c24
6 46 10 48 7 3 -3 -15 -10 -38 -17 -36 -9 -55 -9 -101 3 -51 13 -58 13 -58 0
0 -9 -3 -13 -6 -9 -4 3 -4 13 -1 21 5 12 13 12 59 -1 43 -13 61 -14 97 -4z
m-78 -76 c12 -21 41 -58 63 -82 37 -40 38 -42 10 -23 -17 12 -39 33 -48 48
-10 14 -20 23 -23 21 -10 -10 31 -59 74 -88 23 -16 43 -35 43 -42 1 -7 7 -25
16 -42 14 -29 13 -7 -1 28 -4 10 -3 17 5 17 6 0 8 -5 4 -12 -4 -6 -3 -8 3 -5
6 4 35 -4 64 -18 30 -13 74 -27 99 -30 43 -5 42 -4 -15 13 -33 10 -69 24 -80
31 l-20 13 20 -8 c107 -38 153 -45 265 -41 91 3 125 8 163 25 71 32 158 92
150 105 -3 6 -1 7 5 3 6 -4 31 13 57 39 24 25 42 39 39 30 -3 -8 -1 -15 5 -15
6 0 11 8 12 18 0 10 3 12 6 5 11 -29 -108 -138 -202 -186 -84 -42 -151 -57
-254 -57 -102 0 -187 16 -264 49 -26 11 -47 18 -47 15 0 -3 13 -36 29 -72 33
-77 48 -126 32 -102 -17 24 -13 -8 5 -45 l14 -30 -5 28 c-11 55 4 24 39 -80
55 -168 65 -224 67 -383 1 -115 -2 -153 -15 -185 -19 -45 -53 -85 -73 -85 -21
0 -16 17 22 71 l35 51 0 147 c0 196 -16 263 -137 568 -51 130 -61 147 -104
183 -53 44 -102 121 -93 144 8 22 9 21 35 -21z m189 -168 c0 -9 -60 18 -72 32
-9 11 -1 10 30 -6 23 -12 42 -23 42 -26z m1580 -559 c0 -108 -20 -158 -85
-212 -34 -27 -49 -34 -67 -29 -16 5 -20 4 -13 -3 6 -5 19 -12 30 -15 11 -2 4
-4 -16 -4 -20 0 -42 -3 -50 -7 -8 -4 -6 -1 4 7 18 15 18 16 0 27 -16 9 -15 10
7 5 24 -6 24 -5 6 9 -25 20 -13 20 25 1 29 -15 30 -15 77 30 28 25 54 61 61
82 13 38 11 186 -3 248 -5 20 -2 17 8 -10 10 -25 16 -74 16 -129z m41 73 c21
-30 269 -522 269 -535 0 -3 6 -20 14 -37 41 -92 119 -359 146 -502 42 -222 45
-253 44 -415 -1 -148 -4 -174 -28 -255 -45 -150 -102 -261 -214 -425 -36 -52
-50 -80 -46 -95 4 -15 3 -16 -4 -6 -8 11 -15 5 -36 -25 -42 -65 -68 -152 -62
-209 8 -66 47 -235 55 -235 8 0 25 40 50 115 26 77 27 171 2 260 -23 83 -20
100 4 23 23 -73 31 -199 15 -251 -32 -105 -55 -157 -70 -155 -16 3 -44 102
-61 215 -9 60 -9 80 6 125 22 70 56 139 72 145 7 3 13 10 13 17 0 6 23 45 52
86 255 370 294 583 198 1090 -16 86 -83 326 -87 313 -2 -6 12 -67 30 -134 56
-201 93 -459 85 -597 -7 -115 -67 -298 -143 -432 -14 -25 -21 -46 -15 -48 17
-6 11 -32 -7 -32 -14 0 -15 2 -4 9 8 5 9 11 3 15 -5 3 -27 -22 -48 -56 -22
-34 -46 -71 -54 -83 -113 -167 -167 -265 -146 -265 25 0 26 -15 4 -56 -28 -52
-26 -132 6 -265 33 -136 50 -306 43 -436 -3 -57 -4 -103 -2 -101 2 2 8 37 14
78 15 101 15 103 26 120 5 8 11 65 13 125 3 107 5 112 47 195 54 106 69 184
60 304 -7 84 -8 88 -22 65 -10 -16 -12 -17 -7 -4 4 11 8 34 10 50 2 17 1 21
-2 10 -11 -39 -19 -33 -20 13 -1 38 0 42 7 22 8 -23 8 -22 5 8 -4 52 10 23 22
-43 35 -191 24 -295 -44 -432 -42 -85 -44 -91 -44 -180 0 -50 -4 -103 -10
-118 -12 -32 -19 -64 -31 -140 -23 -152 -68 -274 -154 -425 -36 -62 -74 -133
-85 -157 -28 -64 -123 -185 -193 -247 -63 -54 -236 -156 -266 -156 -9 1 -2 7
14 15 l30 14 -30 -5 c-16 -3 -36 -7 -43 -10 -7 -2 -10 1 -7 6 3 6 13 10 20 10
23 0 125 53 125 65 0 6 22 28 48 48 69 52 154 145 146 158 -4 8 -9 7 -15 -2
-5 -8 -9 -9 -9 -4 0 6 33 44 74 87 116 120 175 219 230 383 37 110 63 265 46
275 -8 5 -10 18 -5 41 8 36 8 92 1 209 -4 64 -3 68 4 25 4 -27 9 -76 9 -107 1
-31 6 -60 11 -63 6 -3 10 -16 9 -28 -1 -20 -2 -20 -8 3 -7 22 -8 19 -13 -20
-3 -25 -1 -50 4 -57 17 -21 -10 -171 -55 -303 -35 -106 -102 -230 -164 -304
-31 -38 -58 -78 -58 -89 -2 -17 0 -17 17 6 10 14 28 36 39 49 l20 23 -12 -25
c-21 -43 -62 -92 -68 -81 -4 6 -20 -6 -36 -26 -17 -21 -59 -66 -95 -101 -36
-35 -64 -68 -63 -73 2 -5 0 -8 -5 -8 -24 4 -42 -3 -42 -16 0 -8 -18 -24 -40
-35 -38 -20 -49 -30 -32 -30 19 0 152 87 210 138 45 39 60 58 53 66 -7 8 -3
20 15 39 14 15 28 27 31 27 4 0 -6 -13 -21 -29 -15 -16 -24 -31 -18 -34 12 -8
106 118 133 178 12 27 42 83 66 124 68 115 109 199 132 275 22 72 28 119 10
81 -8 -17 -9 -16 -4 5 27 116 12 371 -31 550 -34 137 -35 222 -5 273 l23 37
-21 0 c-12 0 -21 5 -21 12 0 13 63 128 94 173 12 16 26 37 31 46 6 10 25 38
43 64 17 25 32 48 32 51 0 2 15 26 34 52 102 146 185 362 194 504 8 147 -29
397 -93 628 -57 203 -77 253 -190 484 -52 108 -95 197 -95 200 0 3 -16 32 -35
65 -36 62 -42 76 -25 66 13 -8 13 1 -1 26 -5 11 -15 17 -22 13 -7 -4 -9 -4 -5
1 4 4 1 23 -7 42 -8 20 -15 41 -15 47 1 6 7 -4 15 -22 8 -18 24 -47 36 -63z
m-31 -192 c-12 -39 -83 -127 -104 -127 -6 0 6 13 26 30 52 43 78 102 80 186
l2 69 4 -60 c2 -33 -2 -77 -8 -98z m-1503 -15 c0 -39 -1 -41 -12 -19 -20 39
-45 118 -34 112 5 -4 9 0 9 7 2 34 38 -62 37 -100z m1023 14 c118 -24 186 -46
169 -57 -12 -7 -12 -9 0 -9 8 0 12 -2 10 -4 -2 -2 -29 2 -59 10 -30 9 -66 17
-79 20 -13 3 -40 9 -60 13 l-36 9 30 2 30 2 -30 8 c-16 4 -52 7 -80 7 l-50 0
50 -6 c28 -3 -38 -6 -145 -6 -107 0 -166 3 -130 6 l65 6 -60 1 c-33 0 -80 -3
-105 -7 l-45 -8 40 -3 c28 -2 33 -4 15 -7 -82 -14 -171 -34 -210 -49 -76 -27
-101 -33 -95 -23 7 11 -3 11 -30 -1 l-20 -9 20 -1 c16 -1 15 -4 -10 -17 -47
-24 -74 -53 -68 -72 5 -13 4 -14 -8 -3 -11 10 -11 16 -1 33 7 11 10 24 7 29
-6 10 18 25 95 57 59 24 95 31 45 8 -39 -18 -11 -18 35 0 24 9 29 14 15 15
-34 2 33 26 126 45 181 37 414 41 569 11z m236 -71 c24 -12 25 -15 9 -15 -17
0 -17 -2 -5 -10 13 -9 13 -10 -1 -10 -8 0 -24 7 -35 16 -18 15 -18 15 4 9 12
-4 22 -4 22 0 0 3 -10 10 -22 15 -13 5 -18 9 -12 9 7 1 25 -6 40 -14z m-1152
-98 c3 -16 10 -35 17 -43 10 -12 9 -13 -5 -8 -9 3 -16 13 -16 21 0 10 -7 13
-22 8 -13 -3 -18 -3 -12 2 16 12 24 42 14 48 -6 4 -10 11 -10 18 0 22 29 -17
34 -46z m1316 18 c7 -8 17 -15 23 -15 12 0 86 -60 149 -121 44 -43 138 -172
138 -190 0 -4 6 -14 13 -21 13 -14 38 -78 36 -94 0 -5 -7 5 -14 21 -17 37 -19
20 -4 -24 9 -25 14 -30 21 -19 8 11 9 10 6 -1 -8 -30 -25 -20 -38 21 -8 24
-21 54 -30 68 -9 14 -21 34 -28 45 -6 11 -25 43 -42 71 -31 53 -171 194 -192
194 -6 0 -8 3 -5 6 4 4 18 -1 32 -10 14 -9 25 -13 25 -8 0 9 -96 72 -108 72
-4 -1 4 -10 17 -20 30 -26 20 -25 -21 0 -23 14 -27 20 -15 20 10 0 15 5 12 10
-10 16 11 12 25 -5z m-87 -12 c-7 -2 -19 -2 -25 0 -7 3 -2 5 12 5 14 0 19 -2
13 -5z m-1136 -92 c7 -11 27 -27 45 -35 33 -16 159 -125 146 -126 -4 0 -19 12
-33 26 -26 26 -47 29 -23 3 36 -38 36 -49 1 -14 -22 22 -59 51 -82 65 -22 14
-39 30 -38 35 2 13 -34 55 -47 55 -6 0 -5 -5 2 -12 7 -7 12 -16 12 -22 0 -5
-6 -1 -14 9 -8 11 -12 23 -10 27 9 14 29 8 41 -11z m813 14 c0 -2 -14 -20 -31
-40 -17 -19 -27 -35 -21 -35 6 0 22 14 36 31 14 17 26 27 26 22 0 -11 -54 -63
-96 -91 -38 -26 -88 -46 -79 -32 8 13 3 13 -36 -5 -31 -15 -32 -16 -6 -10 19
4 26 2 22 -5 -3 -5 -13 -10 -21 -10 -8 0 -25 -7 -37 -14 -29 -20 -133 -46
-172 -45 -27 2 -26 3 10 9 l40 7 -40 3 c-35 3 -37 3 -10 7 17 2 52 11 79 19
65 18 72 10 10 -10 -47 -16 -47 -16 -9 -10 21 3 55 14 75 25 22 13 26 17 11
13 -16 -4 -21 -3 -17 5 4 6 13 11 19 11 16 0 121 54 161 83 17 12 42 34 54 49
23 27 32 34 32 23z m-1130 -73 c0 -5 -7 -9 -15 -9 -8 0 -12 4 -9 9 3 4 9 8 15
8 5 0 9 -4 9 -8z m-155 -122 c-28 -12 -37 -12 -30 0 3 6 16 10 28 9 21 0 21
-1 2 -9z m-55 -15 c-16 -19 -5 -19 54 1 26 9 49 14 51 12 5 -4 -162 -58 -240
-77 -62 -16 -223 -49 -295 -62 -146 -25 -179 -29 -275 -33 l-100 -4 90 8 c94
8 198 24 275 40 l45 9 -53 -3 c-32 -2 -48 0 -40 5 7 5 26 9 41 9 52 0 334 64
412 93 22 8 42 15 44 16 2 0 -2 -6 -9 -14z m-560 -125 c-144 -20 -150 -21 -90
-6 30 8 75 14 100 14 45 -1 45 -1 -10 -8z m-540 -40 c8 -5 11 -10 5 -10 -5 0
-17 5 -25 10 -8 5 -10 10 -5 10 6 0 17 -5 25 -10z m131 -140 c11 -19 18 -51
18 -70 -1 -26 -3 -29 -6 -10 -6 41 -34 110 -44 110 -12 0 -11 -7 2 -32 16 -30
46 -146 52 -203 7 -58 -1 -33 -28 90 -9 44 -23 90 -31 102 -8 12 -14 30 -14
38 0 28 31 12 51 -25z m-1803 13 c-53 -2 -143 -2 -200 0 -57 1 -13 3 97 3 110
0 156 -2 103 -3z m165 -10 c-13 -2 -33 -2 -45 0 -13 2 -3 4 22 4 25 0 35 -2
23 -4z m270 -10 c-7 -2 -19 -2 -25 0 -7 3 -2 5 12 5 14 0 19 -2 13 -5z m-233
-17 c-66 -11 -71 -13 -44 -19 21 -5 55 -1 105 13 40 11 87 19 104 19 27 -2 27
-2 5 -6 -14 -2 -72 -15 -129 -29 -57 -14 -106 -23 -109 -20 -3 4 3 6 14 6 14
1 11 5 -11 14 l-30 13 25 6 c41 10 73 14 110 14 19 0 1 -5 -40 -11z m-80 -36
c0 -5 -12 -11 -27 -12 -19 -1 -13 -3 17 -8 l45 -7 -52 -1 c-59 -2 -71 18 -18
29 17 4 31 7 33 8 1 0 2 -3 2 -9z m1726 -141 c18 -97 30 -439 18 -487 -6 -21
-8 24 -6 125 2 87 -1 192 -6 233 -7 54 -8 17 -4 -135 3 -115 2 -208 -1 -205
-3 3 -8 120 -11 260 -3 140 -8 266 -12 280 -4 14 -4 22 0 19 3 -3 13 -44 22
-90z m3081 -316 c-1 -54 -3 -10 -3 97 0 107 2 151 3 98 2 -54 2 -142 0 -195z
m20 0 c-1 -54 -3 -10 -3 97 0 107 2 151 3 98 2 -54 2 -142 0 -195z m-1937 167
c2 28 4 30 7 10 2 -14 11 -44 20 -68 9 -23 13 -45 10 -48 -2 -3 -12 14 -21 38
-11 28 -14 33 -10 13 3 -16 21 -66 40 -109 19 -44 32 -81 30 -84 -11 -11 -96
220 -95 256 1 24 2 23 9 -8 l7 -35 3 35z m200 -440 c80 -162 162 -296 247
-405 l64 -80 -60 65 c-33 36 -60 60 -61 54 0 -6 32 -44 71 -85 56 -58 72 -70
79 -59 8 13 10 12 10 -2 0 -32 -29 -19 -84 37 -93 95 -208 276 -307 484 -33
69 -64 134 -69 143 -15 27 -12 34 5 12 22 -29 18 -13 -15 61 -44 97 -36 94 13
-5 22 -47 71 -146 107 -220z m-2813 148 c-3 -7 -5 -2 -5 12 0 14 2 19 5 13 2
-7 2 -19 0 -25z m1440 -70 c-3 -7 -5 -2 -5 12 0 14 2 19 5 13 2 -7 2 -19 0
-25z m838 -109 c4 -11 4 -23 1 -26 -3 -4 -6 1 -6 10 0 9 -4 18 -9 21 -4 3 -6
-7 -3 -22 6 -34 -3 -26 -12 11 -8 33 19 39 29 6z m-979 -56 c11 -26 13 -42 6
-57 -6 -12 -13 -38 -17 -59 -8 -49 -60 -101 -149 -150 -38 -21 -70 -36 -72
-34 -2 2 26 20 64 41 109 60 152 109 152 174 0 15 5 33 11 39 8 8 6 19 -5 42
l-16 31 -193 3 -192 2 198 3 198 2 15 -37z m-1432 -34 c-3 -5 -22 -18 -42 -28
-56 -28 -207 -108 -228 -120 -24 -14 -177 -75 -269 -108 -191 -68 -648 -183
-664 -168 -2 3 1 5 8 5 7 0 10 3 7 8 -2 4 13 6 35 4 24 -3 39 0 39 7 0 6 -15
11 -32 12 -20 0 1 8 52 19 128 27 294 72 495 134 27 8 51 13 53 11 3 -2 -16
-10 -42 -17 -25 -7 -46 -15 -46 -18 0 -3 -10 -6 -23 -8 -12 -1 -57 -12 -100
-26 -43 -14 -102 -30 -132 -37 -30 -7 -52 -16 -49 -21 7 -11 24 -7 129 23 159
46 302 92 340 108 22 10 66 28 98 41 86 34 313 153 300 157 -6 2 -26 -5 -44
-16 -19 -12 -45 -21 -59 -21 -15 0 -30 -4 -35 -9 -32 -28 -376 -146 -485 -166
-47 -9 -143 -31 -215 -50 -72 -19 -179 -48 -240 -64 -60 -16 -119 -32 -130
-36 -14 -6 -17 -5 -10 3 6 6 96 33 200 61 105 27 215 56 245 64 30 8 98 22
150 32 104 19 165 39 370 120 76 30 148 55 160 55 13 0 19 4 14 12 -4 6 -3 8
3 5 6 -4 37 8 69 26 41 23 63 31 71 24 7 -5 10 -13 7 -18z m2453 -47 c6 -31
21 -93 32 -137 20 -77 27 -136 11 -85 l-8 25 0 -25 c0 -14 4 -36 8 -50 l8 -25
2 25 c3 30 28 -61 28 -100 0 -23 -1 -22 -9 5 -7 27 -8 26 -4 -10 7 -75 27
-200 32 -205 3 -3 3 15 0 40 -4 25 -9 68 -13 95 -4 28 -4 47 0 44 6 -6 10 -29
40 -259 25 -183 47 -525 43 -635 -3 -66 -2 -81 3 -45 5 44 7 48 8 19 1 -20 5
-64 8 -98 6 -51 4 -61 -8 -61 -18 0 -19 12 -48 414 -11 153 -18 309 -16 345 2
36 1 48 -2 26 -5 -36 -6 -33 -17 40 -35 235 -47 305 -61 360 -8 33 -12 78 -9
100 3 27 2 33 -4 20 -7 -17 -10 -11 -20 30 -6 28 -18 75 -26 105 -8 30 -14 64
-14 75 1 14 4 11 10 -10 8 -29 8 -29 6 7 -4 52 6 37 20 -30z m-2520 -28 c-3
-3 -12 -4 -19 -1 -8 3 -5 6 6 6 11 1 17 -2 13 -5z m-417 -132 c0 -4 -12 -8
-27 -9 -24 -1 -25 -1 -8 7 26 11 35 12 35 2z m4955 -48 c-25 -9 -77 -46 -72
-50 3 -3 17 2 31 11 14 10 26 15 26 13 0 -5 -88 -64 -130 -87 -23 -13 -24 -13
-11 2 18 23 8 21 -31 -4 -23 -14 -26 -19 -10 -14 12 3 22 4 22 1 0 -15 -180
-87 -279 -111 -126 -30 -344 -12 -533 45 -47 14 -50 24 -5 16 l32 -6 -35 15
c-48 21 -9 13 110 -21 86 -24 112 -27 285 -29 105 -1 181 0 170 3 -13 3 7 14
60 33 79 28 185 77 195 89 3 4 25 17 50 31 25 13 47 26 50 29 14 15 75 48 80
43 3 -3 1 -7 -5 -9z m20 -14 c-3 -5 -12 -10 -18 -10 -7 0 -6 4 3 10 19 12 23
12 15 0z m-3907 -155 c-7 -7 -208 -45 -233 -44 -11 0 30 11 90 24 114 23 152
29 143 20z m-1815 -12 c-7 -2 -19 -2 -25 0 -7 3 -2 5 12 5 14 0 19 -2 13 -5z
m1445 -155 c-7 -19 -58 -32 -71 -19 -9 9 -8 14 3 21 22 14 72 12 68 -2z m-115
-35 c-7 -2 -21 -2 -30 0 -10 3 -4 5 12 5 17 0 24 -2 18 -5z m-54 -47 c-2 -2
-56 -6 -119 -8 -63 -3 -95 -2 -70 2 48 7 196 13 189 6z m0 -20 c-2 -2 -56 -6
-119 -9 -63 -2 -95 -1 -70 3 47 7 196 13 189 6z m-1069 -110 c0 -3 -4 -8 -10
-11 -5 -3 -10 -1 -10 4 0 6 5 11 10 11 6 0 10 -2 10 -4z m5419 -91 c0 -11 -6
-2 -14 20 -8 22 -14 45 -14 50 1 18 28 -49 28 -70z m-2721 -277 c23 -18 41
-40 41 -48 1 -9 -2 -11 -7 -5 -4 6 -16 11 -28 12 -12 1 -36 17 -55 35 -32 31
-26 28 39 -18 41 -30 32 -9 -10 24 -23 18 -37 32 -31 32 6 0 29 -15 51 -32z
m2759 -60 c-3 -8 -6 -5 -6 6 -1 11 2 17 5 13 3 -3 4 -12 1 -19z m-2687 -68
c15 24 50 -96 50 -173 0 -59 -5 -83 -29 -132 -16 -33 -41 -69 -55 -79 -22 -16
-26 -25 -21 -50 4 -26 3 -27 -5 -11 -8 16 -9 12 -5 -18 7 -42 92 -233 101
-225 3 3 -15 47 -40 98 -26 51 -46 100 -46 109 0 9 19 -27 43 -79 84 -186 157
-261 362 -371 108 -58 199 -72 424 -68 102 3 168 2 146 -2 l-40 -6 35 -1 c19
0 53 3 75 7 l40 9 -35 2 c-28 2 -30 4 -10 7 131 22 293 66 502 134 101 34 98
33 98 15 0 -18 -119 -60 -340 -120 -207 -56 -233 -59 -465 -59 l-220 -1 160
-6 160 -6 -152 -2 c-237 -3 -345 26 -521 143 -67 43 -158 137 -191 195 -56 97
-93 189 -95 232 -1 42 3 51 36 85 58 60 78 114 76 208 l-1 80 -7 -85 c-7 -96
-28 -145 -84 -199 -19 -19 -32 -39 -29 -45 3 -6 3 -8 -2 -4 -9 9 -35 -9 -35
-24 0 -6 8 -4 18 3 15 13 16 12 3 -3 -13 -18 -31 -16 -31 3 0 6 25 35 56 65
30 30 64 74 74 97 27 57 26 160 0 227 -11 28 -20 54 -19 58 0 4 3 1 6 -7 4
-10 7 -10 13 -1z m-1210 -110 c4 0 6 10 3 23 -4 18 -1 16 14 -8 18 -29 58
-109 75 -150 31 -78 50 -296 30 -347 -4 -10 -7 33 -6 95 1 112 1 112 -6 27
l-6 -85 -2 80 c-2 92 -21 176 -57 253 -14 29 -25 56 -25 60 0 4 -9 18 -20 32
-11 14 -19 34 -18 45 1 17 1 17 5 -2 2 -13 8 -23 13 -23z m3887 -32 c-3 -8 -6
-5 -6 6 -1 11 2 17 5 13 3 -3 4 -12 1 -19z m-5020 -223 c0 -8 -5 -11 -10 -8
-7 4 -8 -1 -3 -13 4 -10 4 -15 0 -11 -4 4 -14 1 -22 -6 -12 -9 -10 -3 3 21 21
34 32 41 32 17z m6 -55 c-12 -5 -29 -20 -38 -34 -14 -21 -45 -43 -45 -32 0 13
73 76 87 75 14 0 14 -2 -4 -9z m4550 -223 c-15 -12 -41 -29 -58 -37 -16 -8
-33 -16 -37 -18 -5 -2 -8 -1 -8 2 0 3 17 14 38 25 21 11 44 27 51 35 8 9 20
16 28 16 9 0 3 -9 -14 -23z m-3379 -66 c-4 -14 -8 -33 -9 -41 -4 -30 -58 -124
-136 -237 -43 -63 -79 -116 -79 -118 0 -12 -73 -135 -78 -131 -3 3 11 32 31
65 21 32 37 64 37 69 0 6 37 64 81 128 89 128 129 200 129 232 0 12 5 24 10
27 6 3 11 23 11 43 1 25 3 30 6 13 3 -12 1 -35 -3 -50z m3389 46 c-36 -29 -80
-57 -90 -57 -13 1 41 40 54 40 7 0 18 9 25 20 7 11 19 20 26 20 8 0 1 -10 -15
-23z m-106 -63 c2 -6 -10 -17 -28 -24 -26 -11 -32 -11 -39 1 -6 9 -2 18 13 26
25 14 49 13 54 -3z m-3002 -32 c-8 -8 -79 -32 -83 -27 -2 2 6 6 17 10 12 3 19
9 17 13 -2 4 9 7 25 8 16 1 27 -1 24 -4z m-609 -47 c23 -55 44 -170 44 -240 0
-55 -13 -125 -36 -198 -4 -13 -2 -17 5 -13 7 5 8 1 4 -9 -3 -11 -8 -13 -12 -6
-4 6 -15 -13 -26 -42 -50 -143 -206 -338 -349 -436 -60 -42 -200 -116 -191
-101 3 6 30 22 58 37 125 63 220 140 322 263 100 120 156 228 201 390 18 62
15 189 -6 278 -19 83 -23 54 -5 -39 30 -158 -1 -285 -122 -506 -28 -51 -190
-226 -266 -288 -57 -46 -203 -133 -192 -114 4 5 25 19 48 30 103 52 350 288
404 385 120 217 150 346 115 504 -10 47 -22 94 -26 105 -5 13 -2 11 8 -5 17
-28 22 -10 6 21 -6 10 -8 19 -5 19 3 0 13 -16 21 -35z m1467 -70 c33 -16 29
-15 -56 6 -22 5 -73 6 -122 1 -47 -4 -85 -5 -85 0 0 9 109 16 178 11 29 -2 67
-10 85 -18z m-43 -9 c30 -8 64 -18 74 -22 14 -5 17 -4 12 5 -6 8 2 7 23 -3 17
-9 31 -19 31 -22 0 -2 -9 0 -21 6 -11 7 -23 9 -26 7 -3 -3 10 -13 29 -23 18
-9 44 -25 57 -35 13 -11 28 -19 34 -19 5 0 -7 14 -28 30 -21 17 -33 30 -26 30
22 0 136 -107 165 -155 27 -46 30 -60 34 -161 2 -61 0 -118 -4 -127 -6 -9 -9
32 -9 106 0 99 -3 128 -18 155 -10 19 -21 32 -23 29 -3 -3 2 -20 12 -39 12
-22 19 -63 22 -129 4 -82 1 -101 -16 -136 -12 -22 -19 -43 -17 -45 3 -3 -2 -5
-10 -5 -8 0 -15 4 -15 9 0 4 4 8 9 8 4 0 16 21 26 46 13 36 16 65 12 132 -5
88 -19 129 -63 183 -52 65 -201 152 -295 173 -35 8 -55 14 -44 15 12 1 45 -5
75 -13z m-1229 -137 c-60 -91 -78 -125 -67 -129 11 -4 9 -12 -11 -35 -24 -28
-25 -28 -10 -3 9 15 13 29 8 32 -8 5 -53 -69 -89 -146 -9 -21 -24 -37 -32 -37
-10 0 -11 2 -2 6 6 2 12 8 12 12 0 17 139 250 215 358 80 116 63 75 -24 -58z
m2789 30 c0 -5 -4 -8 -9 -5 -5 4 -12 0 -14 -6 -3 -8 -6 -6 -6 5 -1 9 6 17 14
17 8 0 15 -5 15 -11z m-1854 -34 c-6 -18 -26 -11 -26 8 0 7 4 6 10 -3 8 -13
10 -12 10 4 0 11 3 17 6 13 4 -3 4 -13 0 -22z m917 -90 c-3 -9 -8 -14 -10 -11
-3 3 -2 9 2 15 9 16 15 13 8 -4z m-353 -359 c-14 -14 -22 -2 -14 18 5 14 9 15
15 4 4 -7 4 -17 -1 -22z m-535 -116 c40 -11 59 -19 45 -20 -21 -1 -18 -4 15
-15 61 -20 38 -17 -80 9 -154 35 -205 25 -359 -72 -22 -13 -48 -33 -59 -42
-18 -18 -47 -17 -47 1 0 4 10 13 23 19 21 11 21 10 3 -4 -34 -28 4 -17 40 10
38 29 39 42 2 24 -22 -11 -22 -11 2 9 45 38 166 93 221 101 61 8 94 5 194 -20z"/>
<path d="M4576 6450 c4 -19 11 -44 15 -55 6 -14 7 -9 3 15 -4 19 -11 44 -15
55 -6 14 -7 9 -3 -15z"/>
<path d="M3159 7024 c-111 -81 -190 -181 -188 -239 1 -16 2 -15 8 5 23 76 106
169 211 238 36 23 57 42 49 42 -9 0 -45 -21 -80 -46z"/>
<path d="M3185 6928 c-16 -11 -21 -17 -10 -13 11 4 28 10 38 12 9 3 17 9 17
14 0 13 -11 10 -45 -13z"/>
<path d="M3078 6353 c-10 -19 19 -96 33 -88 4 3 17 -11 28 -32 19 -37 61 -84
61 -68 0 5 -8 18 -19 29 -10 12 -37 54 -59 94 -22 41 -42 70 -44 65z"/>
<path d="M4741 6555 c0 -5 6 -21 13 -34 8 -14 11 -32 8 -40 -3 -8 -1 -12 5 -8
10 6 52 -49 66 -87 4 -10 10 -16 13 -13 6 5 -10 34 -83 155 -13 20 -23 33 -22
27z"/>
<path d="M4890 6293 c0 -6 42 -73 94 -150 52 -76 116 -173 141 -216 26 -43 49
-76 52 -74 7 7 -46 93 -175 287 -115 171 -112 168 -112 153z"/>
<path d="M3830 5693 c1 -14 30 -48 30 -34 0 7 -7 19 -15 27 -8 9 -15 12 -15 7z"/>
<path d="M4719 5624 c-41 -44 -128 -105 -198 -137 -59 -27 -80 -32 -191 -37
l-125 -7 106 -1 c147 -3 223 21 344 109 56 41 101 86 93 94 -2 3 -15 -7 -29
-21z"/>
<path d="M4011 5444 c-1 -6 10 -36 23 -65 14 -30 25 -47 25 -39 0 18 -47 120
-48 104z"/>
<path d="M4091 5244 c-1 -6 12 -51 28 -100 45 -137 53 -195 49 -356 l-3 -146
-32 -40 c-39 -48 -43 -65 -9 -33 50 47 58 82 57 240 -1 106 -7 168 -21 226
-20 84 -68 228 -69 209z"/>
<path d="M5680 4976 c0 -2 52 -109 116 -238 64 -128 137 -285 161 -348 24 -63
41 -101 38 -85 -15 71 -84 232 -191 446 -99 199 -124 244 -124 225z"/>
<path d="M5410 1215 c-13 -14 -21 -27 -18 -30 2 -3 15 6 28 20 13 14 21 27 18
30 -2 3 -15 -6 -28 -20z"/>
<path d="M4101 4900 c0 -8 6 -28 14 -45 7 -16 14 -23 14 -15 0 8 -6 29 -14 45
-7 17 -14 23 -14 15z"/>
<path d="M4883 4843 c26 -2 67 -2 90 0 23 2 2 3 -48 3 -49 0 -68 -1 -42 -3z"/>
<path d="M4565 4810 c-22 -5 -51 -13 -65 -19 l-25 -12 25 6 c14 3 50 10 80 16
30 6 57 13 59 15 6 6 -28 3 -74 -6z"/>
<path d="M5190 4810 c19 -5 53 -13 75 -19 65 -17 65 -11 0 10 -33 10 -71 18
-85 18 -20 -1 -18 -3 10 -9z"/>
<path d="M4300 4715 c-16 -9 -19 -14 -9 -15 8 0 24 7 35 15 24 18 7 19 -26 0z"/>
<path d="M5711 4533 c59 -61 83 -93 157 -213 14 -23 22 -29 22 -17 0 9 -4 17
-9 17 -5 0 -14 14 -20 31 -21 60 -177 249 -205 249 -6 0 19 -30 55 -67z"/>
<path d="M4360 4537 c0 -6 88 -67 95 -67 4 0 -12 16 -35 35 -36 30 -60 43 -60
32z"/>
<path d="M5031 4490 c-24 -17 -39 -30 -32 -30 13 0 91 47 91 55 0 11 -17 3
-59 -25z"/>
<path d="M3735 4360 c-43 -17 -268 -69 -308 -71 -13 0 -17 -3 -8 -6 16 -6 190
29 306 63 44 12 69 23 55 23 -14 0 -34 -4 -45 -9z"/>
<path d="M4160 3432 c-1 -41 262 -513 277 -498 3 3 -13 32 -36 65 -22 34 -41
64 -41 67 0 3 -9 19 -20 34 -12 16 -56 100 -100 187 -44 87 -80 152 -80 145z"/>
<path d="M1254 3165 c-24 -18 -7 -19 26 0 16 9 19 14 9 15 -8 0 -24 -7 -35
-15z"/>
<path d="M268 2803 c-38 -9 -68 -20 -68 -24 0 -12 5 -12 87 8 40 10 73 21 73
26 0 9 -12 8 -92 -10z"/>
<path d="M3745 3090 c3 -19 12 -57 20 -85 11 -37 14 -41 10 -15 -3 19 -12 58
-20 85 -11 37 -14 41 -10 15z"/>
<path d="M3812 2805 c0 -16 2 -22 5 -12 2 9 2 23 0 30 -3 6 -5 -1 -5 -18z"/>
<path d="M3863 2505 c0 -22 2 -30 4 -17 2 12 2 30 0 40 -3 9 -5 -1 -4 -23z"/>
<path d="M3882 2345 c0 -22 8 -146 17 -275 10 -129 19 -211 20 -182 1 49 -25
434 -33 477 -2 11 -4 2 -4 -20z"/>
<path d="M3933 1685 c0 -22 2 -30 4 -17 2 12 2 30 0 40 -3 9 -5 -1 -4 -23z"/>
<path d="M5655 2840 c-16 -11 -24 -20 -17 -20 8 0 25 9 39 20 33 26 17 26 -22
0z"/>
<path d="M5537 2774 c-3 -4 -46 -21 -94 -40 -48 -18 -81 -33 -72 -34 9 0 52
14 95 31 77 31 109 49 88 49 -6 0 -13 -3 -17 -6z"/>
<path d="M4811 2726 c2 -2 42 -14 89 -26 95 -23 333 -38 387 -24 23 6 -19 9
-130 10 -132 0 -178 4 -248 22 -87 22 -106 26 -98 18z"/>
<path d="M1455 2570 c-4 -7 3 -8 22 -4 38 9 42 14 10 14 -14 0 -29 -5 -32 -10z"/>
<path d="M3051 1854 c-1 -7 6 -27 14 -45 8 -19 14 -27 14 -19 0 18 -27 79 -28
64z"/>
<path d="M3090 1172 c0 -7 35 -48 78 -90 115 -116 275 -204 393 -216 53 -6 53
-6 -13 9 -96 22 -221 83 -293 142 -49 41 -129 119 -147 144 -10 13 -18 18 -18
11z"/>
<path d="M4600 1030 c-25 -14 -315 -100 -425 -125 -55 -13 -90 -24 -78 -24 50
-2 503 127 528 150 12 12 -5 11 -25 -1z"/>
<path d="M1850 1758 c0 -6 30 -78 55 -133 8 -16 21 -55 29 -85 8 -30 15 -46
15 -35 1 23 -15 88 -29 123 -30 70 -70 145 -70 130z"/>
<path d="M5124 1134 c-18 -14 -18 -14 6 -3 31 14 36 19 24 19 -6 0 -19 -7 -30
-16z"/>
<path d="M3200 875 c0 -3 18 -23 40 -44 22 -21 40 -32 40 -25 0 7 -18 27 -40
44 -22 17 -40 29 -40 25z"/>
<path d="M2524 290 c-50 -7 -98 -26 -162 -63 -60 -35 -26 -29 39 7 84 46 167
60 246 41 32 -8 67 -14 78 -14 11 1 -16 9 -60 20 -44 10 -82 18 -85 17 -3 0
-28 -4 -56 -8z"/>
<path d="M4000 4398 c110 -49 141 -60 145 -56 6 6 -139 68 -157 67 -7 0 -2 -5
12 -11z"/>
<path d="M425 4036 c-55 -19 -147 -54 -205 -78 -58 -25 -114 -48 -124 -52 -19
-6 -19 -7 0 -21 17 -12 18 -14 2 -20 -9 -4 -22 -3 -29 1 -8 4 -9 3 -5 -4 10
-17 16 -16 98 22 108 49 181 77 296 112 94 28 101 32 71 38 -18 3 -34 4 -37 1
-3 -3 3 -5 13 -5 10 0 16 -2 13 -5 -3 -4 -19 -3 -34 1 -28 8 -27 9 26 25 30
10 46 18 35 18 -11 0 -65 -15 -120 -33z m40 -16 c23 -10 16 -12 -55 -14 -44
-2 -44 -2 -15 10 35 15 43 16 70 4z m-82 -31 c7 0 3 -4 -8 -9 -11 -4 -31 -6
-45 -3 -18 3 -21 2 -12 -5 21 -14 -45 -35 -67 -21 -13 8 -11 9 8 3 15 -4 21
-2 17 4 -4 6 3 8 16 5 17 -3 19 -2 9 5 -10 7 -7 12 15 20 16 6 35 9 42 6 8 -2
19 -4 25 -5z m-145 -48 c11 -6 10 -10 -4 -15 -9 -3 -19 -4 -22 -1 -3 3 1 5 9
5 11 0 11 2 -1 10 -8 5 -10 10 -5 10 6 0 16 -4 23 -9z m-43 -29 c-3 -3 -11 0
-18 7 -9 10 -8 11 6 5 10 -3 15 -9 12 -12z m-30 -1 c3 -5 2 -12 -3 -15 -5 -3
-9 1 -9 9 0 17 3 19 12 6z m-38 -16 c0 -8 -4 -12 -9 -9 -5 3 -6 10 -3 15 9 13
12 11 12 -6z"/>
<path d="M428 4013 c7 -3 16 -2 19 1 4 3 -2 6 -13 5 -11 0 -14 -3 -6 -6z"/>
<path d="M623 4063 c9 -2 23 -2 30 0 6 3 -1 5 -18 5 -16 0 -22 -2 -12 -5z"/>
<path d="M1290 3876 c0 -2 14 -30 31 -62 21 -39 29 -49 25 -29 -10 39 -56 115
-56 91z"/>
<path d="M1451 3871 c-1 -7 7 -41 16 -75 24 -85 24 -334 0 -430 -10 -38 -16
-71 -13 -73 2 -2 12 29 22 69 27 106 25 365 -4 458 -11 36 -21 59 -21 51z"/>
<path d="M1384 3500 c0 -74 1 -105 3 -67 2 37 2 97 0 135 -2 37 -3 6 -3 -68z"/>
<path d="M1890 3229 c-80 -9 -167 -22 -195 -28 l-50 -10 45 4 c25 2 124 13
220 24 96 11 200 22 230 24 38 2 30 3 -25 4 -44 0 -145 -8 -225 -18z"/>
<path d="M1358 3123 c6 -2 18 -2 25 0 6 3 1 5 -13 5 -14 0 -19 -2 -12 -5z"/>
<path d="M2345 2854 c-6 -2 -37 -8 -70 -13 -48 -7 -52 -9 -20 -9 22 0 63 6 90
13 28 7 41 13 30 13 -11 0 -25 -2 -30 -4z"/>
<path d="M2695 2840 c33 -11 65 -19 70 -19 17 1 -89 37 -110 38 -11 0 7 -9 40
-19z"/>
<path d="M2630 2808 c134 -52 260 -252 260 -414 0 -56 -10 -87 -47 -143 -13
-19 -23 -38 -23 -43 0 -12 25 -4 25 8 0 5 13 35 29 67 26 53 28 64 23 135 -9
124 -73 260 -159 337 -40 37 -116 75 -146 74 -9 0 8 -10 38 -21z"/>
<path d="M2871 2743 c108 -113 144 -179 173 -318 3 -15 4 -13 5 6 2 41 -36
151 -67 198 -41 60 -131 161 -145 161 -6 0 9 -21 34 -47z"/>
<path d="M1515 2724 c65 -18 89 -17 46 1 -18 8 -47 15 -65 14 -27 -1 -24 -3
19 -15z"/>
<path d="M1363 2713 c9 -2 25 -2 35 0 9 3 1 5 -18 5 -19 0 -27 -2 -17 -5z"/>
<path d="M956 2604 c-43 -13 -81 -26 -84 -29 -15 -14 12 -14 77 2 39 9 67 19
62 22 -5 3 16 6 48 7 54 1 51 0 -54 -26 -125 -31 -202 -56 -398 -129 -76 -29
-142 -49 -147 -46 -5 3 -17 1 -27 -4 -10 -6 -65 -29 -123 -52 -203 -80 -235
-94 -248 -106 -7 -7 -24 -16 -38 -19 -19 -5 -24 -13 -24 -36 l0 -30 57 32 c31
18 81 45 112 62 31 17 63 36 71 43 8 7 99 42 201 78 102 36 208 74 235 85 61
26 316 105 408 128 73 18 71 26 -9 37 -27 4 -66 -2 -119 -19z"/>
<path d="M695 2516 c-157 -59 -239 -95 -233 -102 5 -4 68 17 168 56 30 12 82
31 115 42 96 32 115 40 115 49 0 15 -21 10 -165 -45z"/>
<path d="M2822 2300 c0 -14 2 -19 5 -12 2 6 2 18 0 25 -3 6 -5 1 -5 -13z"/>
<path d="M1625 2270 c16 -60 17 -176 2 -215 -28 -76 -28 -80 -5 -40 20 34 23
54 23 140 0 66 -4 107 -13 120 -13 19 -13 19 -7 -5z"/>
<path d="M3027 2246 c-10 -24 -27 -52 -38 -62 -10 -9 -19 -22 -19 -28 0 -16
45 35 65 73 9 18 15 39 13 47 -2 8 -11 -6 -21 -30z"/>
<path d="M2485 2103 c-69 -14 -487 -122 -474 -122 9 -1 108 22 220 50 112 28
236 57 274 64 41 8 56 13 35 13 -19 -1 -44 -3 -55 -5z"/>
<path d="M1790 1925 c-86 -31 -65 -31 30 0 41 13 66 24 55 24 -11 0 -49 -11
-85 -24z"/>
<path d="M1525 1884 c-43 -50 -67 -74 -77 -74 -5 0 -6 -5 -3 -11 8 -11 106 75
117 103 11 28 -4 20 -37 -18z"/>
<path d="M1575 1820 l-20 -9 20 0 c11 0 29 4 40 9 l20 9 -20 0 c-11 0 -29 -4
-40 -9z"/>
<path d="M1770 1725 c0 -3 20 -44 44 -92 51 -99 85 -201 97 -283 l8 -55 -4 60
c-4 74 -32 161 -91 283 -39 80 -54 105 -54 87z"/>
<path d="M1110 1554 c-52 -24 -113 -52 -135 -61 -22 -10 -44 -19 -49 -21 -5
-3 -6 0 -3 5 4 6 -40 -8 -97 -31 -57 -23 -100 -42 -96 -44 4 -1 37 8 73 22 37
14 69 21 72 16 7 -12 -33 -104 -114 -265 -78 -155 -132 -241 -179 -286 -39
-37 -59 -73 -97 -176 -21 -56 -75 -162 -193 -383 -30 -56 -41 -92 -47 -141 -6
-65 -5 -68 25 -103 18 -20 44 -39 59 -42 39 -9 81 -28 81 -36 0 -5 30 -8 66
-8 41 0 63 4 59 10 -10 16 -76 47 -117 54 -28 5 -48 19 -82 59 -43 50 -55 49
-27 -3 l14 -25 -22 20 c-18 16 -21 26 -16 60 10 58 34 144 55 190 74 164 165
344 182 362 14 15 19 30 15 44 -7 27 12 66 48 99 37 33 159 219 195 294 41 90
109 252 116 280 3 15 11 23 19 20 20 -8 111 25 205 73 144 75 138 85 -10 17z
m-589 -805 c-5 -13 -10 -19 -10 -12 -1 15 10 45 15 40 3 -2 0 -15 -5 -28z"/>
<path d="M950 1562 c-68 -33 -65 -31 -57 -38 6 -6 56 8 116 33 27 11 31 17 20
24 -18 11 -15 12 -79 -19z"/>
<path d="M2860 1349 c-41 -42 -142 -79 -217 -79 -24 0 -88 -9 -141 -21 -138
-29 -513 -120 -537 -130 -37 -14 4 -9 118 15 62 14 171 34 242 46 72 11 176
34 232 50 l102 30 35 -23 c19 -12 36 -29 39 -38 5 -17 -70 -214 -96 -251 -9
-13 -29 -41 -45 -63 -141 -198 -220 -327 -405 -668 -46 -85 -71 -143 -75 -172
-6 -60 9 -57 31 6 10 28 40 88 67 132 26 45 58 100 70 122 12 22 50 89 83 148
34 59 76 132 92 162 17 30 36 60 43 67 7 7 12 16 12 20 0 4 30 51 68 104 37
53 74 106 82 117 8 12 27 37 42 55 24 28 26 35 16 52 -10 16 -8 28 11 67 13
26 27 65 31 86 6 32 4 40 -15 55 -18 14 -20 20 -9 30 7 6 18 12 24 12 33 0
112 45 126 72 9 17 14 31 12 32 -2 0 -19 -15 -38 -35z"/>
<path d="M363 1186 c-18 -13 -30 -25 -27 -28 3 -3 -3 -5 -13 -4 -10 0 -17 -5
-15 -12 1 -8 -2 -11 -8 -7 -12 7 -91 -35 -85 -45 2 -3 -6 -6 -18 -6 -12 1 -21
-4 -20 -10 1 -7 -6 -10 -20 -7 l-22 5 23 -17 c22 -16 25 -15 90 26 149 93 160
101 155 115 -3 8 -6 14 -7 14 0 -1 -16 -11 -33 -24z"/>
<path d="M5143 1026 c-220 -113 -461 -171 -978 -235 -132 -17 -253 -32 -270
-34 -25 -3 -23 -4 10 -5 36 -2 217 18 440 49 343 46 493 81 688 158 109 43
258 124 222 120 -6 -1 -56 -25 -112 -53z"/>
<path d="M3115 140 c-9 -18 -14 -34 -11 -37 2 -3 12 9 21 27 9 18 14 34 11 37
-2 3 -12 -9 -21 -27z"/>
<path d="M2975 50 c-3 -6 1 -7 9 -4 18 7 21 14 7 14 -6 0 -13 -4 -16 -10z"/>
</g>
</svg>
