<?xml version="1.0" standalone="no"?>
<!DOCTYPE svg PUBLIC "-//W3C//DTD SVG 20010904//EN"
 "http://www.w3.org/TR/2001/REC-SVG-20010904/DTD/svg10.dtd">
<svg version="1.0" xmlns="http://www.w3.org/2000/svg"
 width="1280.000000pt" height="720.000000pt" viewBox="0 0 1280.000000 720.000000"
 preserveAspectRatio="xMidYMid meet">
<metadata>
Created by potrace 1.16, written by Peter Selinger 2001-2019
</metadata>
<g transform="translate(0.000000,720.000000) scale(0.100000,-0.100000)"
fill="#000000" stroke="none">
<path d="M0 6035 c0 -1103 1 -1165 18 -1165 17 0 272 42 717 118 127 22 289
46 360 53 148 14 368 15 399 1 47 -21 136 -42 182 -42 27 0 105 -7 174 -15 69
-9 276 -20 460 -25 350 -10 692 -25 870 -37 58 -4 267 -7 465 -8 198 0 509 -5
690 -9 283 -7 352 -6 485 8 85 10 170 15 190 11 25 -4 31 -3 20 4 -13 9 -13
11 3 11 18 0 23 -15 7 -25 -44 -27 -455 -56 -635 -45 l-120 8 125 -3 c153 -3
406 11 520 29 119 19 57 19 -113 0 -113 -13 -201 -15 -432 -10 -738 15 -761
15 -711 5 28 -6 103 -9 167 -7 64 2 115 0 112 -4 -6 -11 -226 -10 -297 2 -34
5 -185 14 -336 20 -151 6 -363 15 -470 20 -107 5 -348 14 -535 20 -187 5 -378
14 -424 20 -46 6 -131 15 -190 20 -58 5 -131 16 -161 26 -113 34 -214 36 -505
8 -74 -7 -538 -83 -544 -89 -2 -3 7 -5 20 -6 l24 -1 -25 -8 c-21 -7 -22 -8 -5
-10 l20 -1 -20 -9 c-36 -16 7 -10 102 13 76 19 91 25 80 36 -10 11 -8 11 9 0
18 -10 36 -10 105 4 127 26 324 56 409 63 110 8 340 -19 377 -44 26 -19 54
-21 333 -32 383 -14 1132 -48 1225 -55 153 -12 717 -35 1010 -41 171 -4 318
-11 327 -15 9 -5 74 -8 145 -7 l128 1 -133 7 c-73 4 -134 9 -136 11 -3 2 71 4
162 5 183 1 310 21 440 70 89 34 116 40 67 15 -22 -10 -33 -20 -25 -20 13 -1
13 -2 0 -11 -8 -5 -19 -10 -25 -10 -5 0 -3 5 5 10 13 9 13 10 0 9 -8 0 -24 -4
-35 -9 l-20 -9 20 -1 20 -1 -20 -10 c-16 -8 -14 -8 11 -5 71 11 224 96 224
125 0 11 27 52 61 92 88 105 133 203 118 254 -1 6 1 39 5 75 13 116 -23 477
-75 749 -11 57 -18 105 -16 108 6 6 43 -191 67 -358 28 -194 44 -452 33 -516
-6 -32 -6 -57 0 -68 19 -35 -45 -164 -129 -262 -32 -36 -54 -71 -54 -85 0 -14
-9 -27 -23 -34 -12 -6 -45 -23 -73 -37 -51 -26 -192 -75 -333 -116 -107 -32
-79 -37 36 -6 212 56 394 140 409 188 4 11 26 41 49 66 63 68 112 150 129 217
28 109 -7 551 -71 883 -39 202 -38 201 -17 200 11 0 28 -5 39 -10 15 -7 11 -7
-14 -3 -39 7 -39 31 2 -187 39 -201 66 -430 77 -639 8 -157 7 -194 -7 -248
-24 -96 -88 -193 -209 -315 -48 -48 -189 -108 -371 -157 -122 -34 -145 -36
-137 -16 4 11 96 43 238 83 15 4 16 7 5 14 -12 7 -12 9 0 9 8 0 12 2 9 5 -3 3
-29 0 -58 -7 -45 -10 -50 -13 -29 -18 17 -5 -1 -11 -66 -24 -114 -22 -372 -33
-423 -18 -21 6 -165 13 -332 16 -277 6 -849 29 -1005 41 -90 7 -828 41 -1230
56 -284 11 -312 13 -339 32 -36 26 -256 51 -366 43 -196 -16 -651 -105 -990
-195 -41 -11 -108 -28 -148 -37 l-72 -17 0 -834 0 -833 23 5 c34 8 257 56 302
66 22 4 112 30 200 57 88 28 201 62 250 77 173 52 271 88 382 142 80 39 118
53 134 48 16 -5 19 -4 14 6 -6 9 -4 11 8 6 8 -3 18 0 20 8 8 19 -4 27 -20 13
-7 -6 -16 -9 -19 -6 -5 6 61 48 74 48 4 0 -1 -5 -10 -11 -27 -15 -21 -29 7
-16 14 7 25 19 26 27 0 11 2 12 6 2 7 -18 -61 -77 -127 -110 l-55 -27 35 -7
c34 -7 34 -7 -5 -4 -28 2 -59 -5 -101 -25 -64 -29 -353 -128 -444 -152 -30 -8
-115 -33 -189 -56 -122 -37 -297 -80 -453 -111 l-58 -11 0 -434 0 -434 163 82
c326 164 430 211 792 357 403 162 388 157 550 211 138 46 309 90 345 88 20 -1
18 -3 -10 -9 l-35 -7 35 -2 c31 -2 27 -4 -25 -16 -33 -7 -105 -30 -160 -50
-55 -21 -111 -41 -125 -46 -14 -4 -70 -25 -125 -47 -55 -22 -175 -69 -267
-105 -92 -36 -182 -72 -200 -80 -51 -23 -277 -117 -282 -117 -3 0 -52 -22
-111 -50 -59 -27 -109 -50 -112 -50 -3 0 -101 -47 -219 -105 l-214 -104 0
-826 0 -826 78 42 c127 69 246 153 399 282 80 67 157 131 172 141 30 23 137
114 196 167 22 20 69 61 105 90 36 29 67 57 68 61 6 13 32 9 32 -5 0 -12 -199
-198 -250 -234 -11 -8 -17 -20 -14 -26 4 -7 4 -9 -1 -5 -4 4 -15 3 -24 -4 -24
-16 88 91 138 134 25 21 40 38 33 38 -9 0 -96 -69 -112 -89 -8 -10 -133 -116
-161 -137 -15 -10 -91 -73 -170 -140 -192 -160 -237 -191 -441 -303 -46 -24
-68 -49 -31 -33 152 65 386 222 543 366 74 67 119 98 254 171 77 41 143 75
147 75 19 0 16 -20 -7 -51 -33 -44 -127 -203 -207 -349 -16 -30 -45 -81 -63
-113 -20 -33 -31 -64 -27 -73 5 -14 9 -13 25 7 21 25 -38 -89 -79 -153 -12
-21 -23 -40 -23 -43 0 -2 -19 -35 -42 -72 -23 -38 -46 -77 -53 -88 -72 -129
-95 -162 -80 -114 5 16 4 19 -6 14 -7 -5 3 18 21 51 54 98 142 244 147 244 5
0 7 4 -47 -88 -23 -40 -40 -75 -38 -78 5 -5 158 248 158 261 0 3 -5 3 -11 -1
-8 -4 -7 0 1 15 6 12 15 19 21 16 11 -8 12 5 0 24 -7 11 -13 7 -25 -18 -9 -17
-41 -69 -70 -114 -47 -74 -196 -337 -196 -348 0 -2 17 -5 38 -6 38 -2 39 -2
83 80 24 45 49 91 56 102 7 11 15 27 20 35 4 8 19 35 33 60 15 25 50 90 80
145 29 55 56 105 60 110 4 6 33 62 65 125 31 63 60 122 65 130 49 89 133 269
134 287 1 19 21 33 120 83 110 56 263 138 311 167 11 7 27 15 35 19 8 4 58 36
111 70 109 72 144 83 364 114 77 11 165 24 195 29 30 6 91 15 135 22 44 6 127
24 185 39 58 15 166 42 240 60 74 18 175 45 223 61 48 16 122 38 165 50 42 11
83 25 90 32 8 6 32 13 55 16 30 4 43 11 45 24 3 16 -1 17 -35 12 -54 -10 -192
-52 -300 -91 -51 -19 -125 -41 -165 -49 -40 -9 -109 -26 -153 -39 -140 -42
-286 -76 -394 -91 -109 -16 -208 -32 -369 -60 -51 -10 -96 -14 -99 -11 -3 3
-11 2 -17 -4 -20 -16 -176 -78 -176 -70 0 5 26 18 58 30 73 27 119 51 139 73
9 9 23 17 32 17 10 0 5 -8 -14 -20 -36 -24 -26 -24 74 -6 117 22 255 44 372
61 59 8 167 31 240 50 74 19 181 47 239 61 58 14 155 43 215 63 159 55 274 89
323 96 40 6 42 6 42 -19 0 -20 -6 -27 -27 -31 -16 -3 -41 -10 -58 -16 -61 -21
-112 -37 -175 -55 -36 -9 -69 -20 -75 -24 -17 -10 -115 -38 -255 -70 -74 -18
-182 -45 -240 -60 -58 -15 -141 -33 -185 -39 -44 -7 -105 -16 -135 -22 -30 -5
-118 -18 -195 -29 -215 -30 -240 -39 -353 -113 -55 -37 -102 -67 -105 -67 -2
0 -44 -23 -93 -51 -49 -29 -155 -85 -236 -126 -110 -55 -146 -78 -145 -92 1
-16 -20 -70 -44 -114 -5 -10 -57 -111 -114 -225 -106 -211 -163 -318 -240
-452 -23 -41 -55 -97 -70 -125 -15 -27 -41 -74 -57 -102 l-29 -53 758 0 c732
0 759 1 768 19 6 10 20 38 32 62 12 24 33 61 47 82 14 21 26 40 26 42 0 9 79
122 94 134 9 7 25 11 37 8 29 -8 238 91 218 104 -9 6 -18 3 -26 -7 -6 -8 -14
-11 -17 -6 -8 13 20 35 81 66 29 14 51 32 49 39 -1 6 -1 9 1 5 3 -5 9 -8 14
-8 6 0 7 5 3 12 -4 6 -3 8 4 4 15 -9 62 11 58 26 -1 7 -1 10 1 6 3 -5 9 -8 14
-8 6 0 8 4 5 8 -3 5 0 9 7 9 11 0 593 282 667 323 19 11 69 36 110 56 41 19
84 43 94 52 13 12 18 13 15 3 -3 -7 -74 -49 -159 -93 -102 -52 -154 -84 -152
-94 2 -8 -2 -14 -8 -14 -6 0 -8 5 -5 10 8 13 -11 13 -37 -1 -16 -8 -18 -13 -8
-19 9 -6 -4 -17 -41 -35 -30 -15 -80 -45 -111 -67 -32 -21 -58 -35 -58 -30 0
13 56 49 160 102 23 12 40 24 37 26 -2 3 -77 -30 -166 -72 -135 -65 -158 -79
-144 -89 27 -20 -32 -54 -472 -273 -54 -27 -103 -45 -123 -45 -26 1 -39 -7
-67 -42 -19 -23 -35 -45 -35 -48 0 -3 -13 -25 -29 -49 -15 -24 -43 -70 -61
-103 -18 -33 -36 -64 -41 -69 -16 -17 -10 -26 19 -26 23 0 33 10 70 78 46 84
53 96 95 159 19 29 35 43 50 43 12 0 72 27 134 59 70 37 114 54 117 47 3 -7 7
-8 13 -1 13 17 143 100 218 140 39 21 90 52 115 70 25 18 81 51 125 75 94 50
117 65 110 71 -2 3 4 5 13 6 10 1 41 16 70 35 127 82 205 130 291 178 l92 53
46 -32 c25 -18 47 -30 50 -27 3 3 -13 17 -36 33 -22 15 -40 34 -41 40 0 14 51
43 77 43 10 0 24 4 32 9 22 14 -6 44 -36 38 -12 -2 -20 0 -17 4 8 13 48 11 62
-3 25 -25 13 -45 -30 -56 -24 -6 -51 -17 -61 -24 -17 -13 -16 -15 20 -38 40
-26 56 -60 29 -60 -9 0 -34 13 -57 29 l-40 30 -122 -73 c-67 -40 -176 -106
-242 -147 -66 -41 -156 -94 -200 -118 -44 -24 -100 -58 -125 -76 -25 -18 -81
-51 -124 -75 -43 -23 -114 -66 -157 -96 -43 -29 -79 -49 -81 -44 -2 5 -52 -16
-111 -46 -60 -30 -117 -54 -127 -54 -25 0 -86 -89 -169 -247 l-12 -23 593 1
593 0 52 107 c29 59 71 147 94 197 23 50 66 142 96 205 71 149 92 201 115 280
17 61 17 62 12 17 -5 -43 -16 -78 -44 -142 -45 -105 -128 -281 -231 -494 -43
-90 -79 -165 -79 -167 0 -2 6 -4 14 -4 9 0 34 39 60 92 68 142 146 309 146
313 0 2 21 48 46 102 25 54 54 116 64 138 37 79 70 167 70 183 0 9 -9 -1 -19
-23 -25 -53 -26 -43 -1 28 11 31 20 66 20 77 0 11 7 20 15 20 21 0 19 -33 -9
-120 -31 -96 -43 -124 -143 -339 -19 -41 -53 -114 -74 -163 -21 -49 -63 -138
-93 -198 l-54 -110 833 0 833 0 67 153 c37 83 80 189 96 234 64 189 106 232
363 368 64 33 169 75 188 75 4 0 8 -7 8 -15 0 -8 -4 -15 -8 -15 -5 0 -60 -34
-123 -75 -63 -41 -128 -84 -145 -95 -16 -11 -35 -20 -40 -20 -14 0 -67 -59
-90 -100 -11 -19 -37 -82 -58 -140 -37 -103 -89 -233 -127 -317 -10 -24 -19
-45 -19 -48 0 -3 1739 -5 3865 -5 l3865 0 0 3600 0 3600 -2975 0 c-2373 0
-2975 -3 -2975 -12 0 -9 -3 -8 -10 2 -19 31 -22 -1 -3 -42 11 -24 24 -54 28
-68 4 -14 12 -30 16 -36 5 -7 34 -81 64 -165 69 -198 134 -379 178 -499 20
-52 63 -171 97 -265 34 -93 66 -179 71 -190 23 -54 79 -212 79 -222 0 -7 -5
-13 -11 -13 -5 0 -7 4 -4 10 8 14 -35 131 -46 124 -5 -3 -9 -12 -9 -20 0 -8 4
-12 10 -9 6 3 7 -1 4 -9 -3 -8 1 -37 10 -63 9 -26 36 -129 61 -228 62 -240
122 -441 175 -585 137 -368 183 -569 201 -890 19 -324 -9 -473 -136 -735 -35
-71 -89 -163 -120 -204 -32 -40 -78 -115 -102 -165 -25 -50 -53 -102 -62 -116
-50 -73 -122 -265 -151 -405 -64 -299 -249 -708 -404 -894 -69 -82 -166 -184
-166 -173 0 5 39 52 86 103 110 121 190 240 263 392 104 216 163 371 201 533
42 180 54 219 100 323 57 127 174 348 200 376 64 69 187 301 234 440 14 44 34
136 43 205 26 202 -3 571 -62 795 -19 72 -94 303 -130 400 -15 39 -35 97 -46
130 -10 33 -28 87 -39 120 -22 71 -45 154 -99 368 -23 87 -52 195 -66 238 -27
86 -30 103 -15 79 20 -32 21 18 2 67 -11 26 -37 94 -57 151 -34 92 -39 100
-51 85 -13 -16 -13 -15 -3 8 9 23 3 48 -49 185 -33 87 -79 215 -103 283 -23
68 -45 119 -47 113 -3 -11 90 -289 125 -372 8 -19 19 -67 23 -106 6 -46 24
-106 50 -170 23 -54 53 -135 66 -179 24 -77 128 -472 144 -545 14 -66 74 -284
90 -325 4 -11 21 -56 38 -100 46 -120 118 -347 146 -460 38 -151 57 -310 63
-515 6 -210 -7 -322 -57 -470 -34 -103 -161 -359 -199 -403 -16 -18 -51 -73
-79 -123 -28 -50 -66 -115 -84 -145 -19 -30 -44 -74 -56 -99 -60 -130 -82
-181 -82 -193 0 -16 -54 -232 -76 -302 -18 -57 -22 -67 -59 -150 -15 -33 -34
-78 -43 -100 -28 -72 -163 -329 -199 -380 -56 -80 -147 -178 -228 -246 -47
-40 -71 -67 -65 -73 6 -6 26 6 54 32 53 49 73 56 30 11 -40 -43 -150 -123
-264 -194 -99 -61 -327 -173 -395 -195 -22 -7 -68 -26 -102 -42 -65 -31 -118
-34 -118 -8 0 20 54 54 138 86 40 15 76 31 82 35 5 5 15 9 22 9 23 0 236 102
347 166 207 120 381 273 491 432 112 161 281 536 328 727 10 39 22 84 27 100
5 17 12 48 16 70 16 93 174 402 291 570 49 71 65 98 129 225 121 242 150 375
141 660 -10 343 -49 528 -202 950 -29 80 -64 186 -78 235 -28 94 -126 472
-134 515 -16 83 -87 315 -116 383 -45 101 -59 146 -67 210 -5 40 -18 97 -30
127 -13 30 -60 165 -106 300 -46 135 -88 254 -94 265 -5 11 -23 54 -39 95 -29
71 -30 73 -30 37 -1 -21 3 -36 8 -33 4 3 2 -23 -6 -57 -7 -34 -20 -96 -29
-137 -19 -87 -62 -230 -76 -247 -5 -6 -6 -22 -3 -35 5 -20 -10 -39 -102 -129
-134 -130 -236 -201 -323 -223 -14 -4 4 7 39 24 89 42 174 106 262 197 59 61
84 96 114 163 22 46 39 99 39 117 0 18 3 27 7 21 4 -7 10 5 14 28 4 21 11 52
16 68 17 54 8 72 -10 21 -47 -129 -153 -262 -274 -343 -20 -14 -35 -27 -32
-30 14 -15 183 131 228 198 17 25 17 25 3 -5 -18 -37 -134 -151 -197 -193 -70
-47 -281 -141 -229 -102 12 9 7 10 -20 6 l-35 -6 40 15 c56 22 171 81 225 117
75 51 168 147 163 169 -3 10 0 19 6 19 5 0 8 -8 5 -17 -9 -27 21 11 61 79 57
97 67 139 73 301 l4 147 -1111 0 c-625 0 -1111 -4 -1111 -9 0 -13 39 -58 40
-45 0 5 -5 15 -12 22 -6 6 -10 14 -7 16 5 5 27 -28 164 -239 127 -196 388
-442 557 -525 27 -13 46 -25 44 -28 -8 -7 -141 68 -208 118 -104 79 -260 232
-330 325 -35 47 -95 135 -132 195 -38 61 -71 109 -73 106 -10 -10 137 -239
222 -346 61 -77 212 -221 305 -291 65 -49 193 -120 240 -132 13 -3 22 -9 19
-12 -9 -8 -126 41 -183 77 -58 36 -119 83 -190 145 -26 24 -53 40 -59 36 -5
-3 -7 -2 -4 4 4 6 -5 21 -20 34 -83 77 -213 255 -333 456 l-55 92 -2277 1
-2278 0 0 -1165z m6691 559 c-72 -150 -251 -311 -416 -374 -49 -19 -24 0 41
31 58 27 168 99 161 105 -1 1 -40 -8 -86 -22 -46 -13 -95 -24 -110 -23 -14 0
4 7 41 15 77 17 138 39 78 28 -106 -18 -202 -42 -175 -44 l30 -2 -35 -8 c-19
-5 -98 -16 -175 -25 -144 -17 -307 -14 -336 7 -11 8 -10 9 4 4 10 -3 68 -8
130 -10 l112 -5 -110 10 c-60 5 -119 14 -130 19 -18 9 -17 10 5 6 179 -32 478
2 775 88 11 4 7 0 -9 -7 -23 -12 -25 -15 -11 -20 37 -15 177 157 230 280 11
24 21 41 23 38 3 -2 -14 -43 -37 -91z m-1201 -237 c36 -9 74 -19 85 -21 11 -3
2 -4 -20 -2 -57 5 -155 35 -155 48 0 7 4 7 13 1 6 -6 41 -17 77 -26z m757 -3
c-3 -3 -12 -4 -19 -1 -8 3 -5 6 6 6 11 1 17 -2 13 -5z m-850 -56 c-3 -7 -5 -2
-5 12 0 14 2 19 5 13 2 -7 2 -19 0 -25z m120 26 c-3 -3 -12 -4 -19 -1 -8 3 -5
6 6 6 11 1 17 -2 13 -5z m61 -11 c-10 -2 -26 -2 -35 0 -10 3 -2 5 17 5 19 0
27 -2 18 -5z m1592 -128 c0 -5 -5 -3 -10 5 -5 8 -10 20 -10 25 0 6 5 3 10 -5
5 -8 10 -19 10 -25z m34 -91 c3 -8 2 -12 -4 -9 -6 3 -10 10 -10 16 0 14 7 11
14 -7z m237 -1178 c-16 -34 -46 -80 -65 -102 -19 -23 -32 -45 -28 -49 4 -5 2
-5 -4 -2 -6 4 -20 -3 -30 -14 -10 -12 -28 -25 -39 -31 -11 -5 -1 7 22 27 51
44 133 151 133 173 0 10 -9 2 -21 -18 -42 -69 -95 -124 -174 -183 -44 -33 -79
-64 -77 -69 1 -5 -2 -7 -8 -3 -6 4 -22 0 -35 -9 -39 -25 -185 -82 -262 -101
-40 -10 -70 -22 -68 -25 3 -4 -8 -5 -23 -3 -24 3 -25 2 -7 -7 15 -7 11 -8 -20
-5 -30 4 -35 3 -20 -4 15 -8 9 -9 -25 -6 -25 2 -36 2 -25 -1 33 -10 39 -22 8
-18 -27 4 -27 4 -4 -6 30 -13 45 -9 286 90 105 43 200 81 213 85 12 3 20 11
17 16 -3 5 2 6 11 2 11 -4 15 -3 11 4 -5 7 1 9 15 6 17 -3 19 -2 10 5 -11 7
-11 10 3 15 9 4 13 3 10 -3 -7 -12 -3 -12 20 -4 12 5 13 9 5 14 -8 5 -7 9 5
13 9 4 13 3 10 -3 -3 -6 1 -10 9 -10 19 0 30 17 14 23 -7 2 1 11 19 20 18 10
53 31 78 48 33 23 50 28 57 21 12 -12 -6 -42 -25 -42 -5 0 -2 9 8 20 10 11 13
20 8 20 -6 0 -16 -7 -23 -15 -7 -8 -16 -15 -21 -15 -7 0 -76 -43 -88 -56 -15
-14 22 0 53 21 39 26 51 31 42 16 -11 -18 -136 -82 -228 -117 -89 -34 -238
-96 -323 -135 -36 -16 -84 -32 -253 -83 -67 -20 -340 -69 -355 -63 -7 2 28 10
77 17 49 8 84 16 77 18 -7 2 -47 -1 -88 -8 -41 -6 -76 -10 -79 -8 -2 3 67 17
154 31 86 15 168 29 182 32 22 5 22 4 5 -4 -24 -12 1 -13 29 -2 46 18 -32 20
-139 5 -133 -20 -384 -15 -455 9 -27 9 -37 16 -25 17 l20 1 -20 9 c-11 5 -27
9 -35 9 -13 1 -13 0 0 -10 11 -8 9 -9 -10 -4 -43 12 -125 51 -185 90 -41 26
-61 33 -68 26 -8 -8 -6 -11 8 -11 10 0 16 -3 12 -6 -3 -3 -15 -3 -27 1 -19 6
-20 8 -5 19 15 11 13 15 -22 41 -21 16 -59 49 -85 74 -38 35 -48 40 -48 25 0
-16 -2 -17 -10 -4 -6 10 -6 16 1 18 5 2 -6 25 -25 50 -18 26 -41 62 -50 80
-16 31 -18 32 -89 34 l-72 2 75 6 75 6 -60 5 c-41 4 -23 5 55 5 86 1 101 -1
60 -6 -61 -8 -52 -11 30 -12 l55 -1 -52 -4 c-29 -2 -53 -6 -53 -9 0 -2 12 -23
27 -47 99 -151 324 -314 518 -374 49 -15 93 -18 250 -18 210 1 294 13 555 81
149 40 234 75 329 136 54 36 61 43 45 50 -14 6 -11 7 8 3 23 -4 38 5 95 59 37
35 85 92 106 127 21 35 36 53 32 39 -5 -17 -4 -22 3 -15 14 14 27 59 14 51 -6
-4 -8 2 -4 16 5 21 5 21 14 -2 7 -18 2 -38 -21 -84z m-5693 47 c-16 -2 -40 -2
-55 0 -16 2 -3 4 27 4 30 0 43 -2 28 -4z m-1105 -20 c-7 -2 -19 -2 -25 0 -7 3
-2 5 12 5 14 0 19 -2 13 -5z m-49 -12 c3 -4 -6 -6 -19 -3 -14 2 -25 6 -25 8 0
8 39 4 44 -5z m5176 -12 c26 -6 20 -7 -22 -2 -32 3 -87 6 -123 7 -35 0 -57 4
-47 8 20 7 140 0 192 -13z m-62 -16 c-21 -2 -57 -2 -80 0 -24 2 -7 4 37 4 44
0 63 -2 43 -4z m-1583 -23 c-3 -6 -42 -9 -88 -8 l-82 2 85 6 c47 3 86 7 88 8
2 1 0 -2 -3 -8z m123 -17 c-21 -2 -57 -2 -80 0 -24 2 -7 4 37 4 44 0 63 -2 43
-4z m779 1 c-3 -3 -12 -4 -19 -1 -8 3 -5 6 6 6 11 1 17 -2 13 -5z m-599 -11
c-21 -2 -57 -2 -80 0 -24 2 -7 4 37 4 44 0 63 -2 43 -4z m-1083 -143 c52 -68
107 -184 129 -271 25 -103 21 -245 -10 -347 -14 -46 -27 -82 -30 -80 -2 3 1
19 7 37 6 18 9 34 6 37 -3 3 -10 -12 -17 -33 -7 -21 -17 -42 -23 -48 -7 -7 -8
-4 -2 10 4 11 17 45 28 75 17 45 21 77 21 175 0 181 -7 244 -34 299 -13 28
-26 44 -28 38 -2 -7 -25 18 -52 55 -26 38 -64 84 -84 103 -32 30 -34 35 -19
41 22 8 49 -15 108 -91z m2245 -86 c23 -8 28 -13 15 -13 -17 -1 -18 -3 -5 -12
13 -9 13 -10 -2 -5 -9 2 -36 10 -60 17 -24 6 -37 14 -29 17 11 4 11 6 0 14
-17 11 31 0 81 -18z m963 -31 c-7 -2 -19 -2 -25 0 -7 3 -2 5 12 5 14 0 19 -2
13 -5z m-58 -14 c-14 -6 -8 -8 25 -4 l45 5 -50 -15 c-113 -33 -265 -48 -435
-42 -91 2 -176 10 -190 16 l-25 12 25 -6 c45 -11 364 -16 425 -7 44 6 12 8
-120 5 -127 -3 -206 1 -270 11 l-90 15 75 -7 c130 -12 428 -5 505 11 82 18
109 20 80 6z m-3082 -26 c26 -51 28 -79 3 -33 -14 25 -25 48 -26 53 0 15 10 6
23 -20z m-1775 -215 c50 -153 64 -435 27 -538 -22 -64 -39 -89 -30 -45 5 23 0
19 -20 -20 -15 -27 -32 -56 -37 -63 -6 -7 -8 -15 -5 -19 3 -3 16 11 28 31 12
20 24 35 26 32 8 -8 -61 -97 -119 -152 -59 -57 -96 -84 -115 -84 -23 0 -14 25
15 42 42 26 135 118 170 169 17 26 43 80 57 120 24 67 26 64 10 -11 -4 -18 0
-15 11 10 12 25 18 67 19 145 l2 110 -7 -85 c-7 -74 -7 -68 -5 50 1 79 -1 116
-5 90 -6 -37 -7 -40 -8 -13 -3 47 -39 218 -51 241 -6 12 -11 27 -10 34 0 7 7
0 15 -17 l15 -30 -5 33 c-8 49 -1 39 22 -30z m1786 -161 c-8 -68 -8 -70 -15
-32 -6 37 -6 38 -8 8 0 -17 -5 -34 -9 -37 -6 -3 2 73 18 164 0 3 5 -3 11 -13
7 -12 8 -43 3 -90z m-1864 43 c4 63 30 -72 30 -157 0 -74 -5 -106 -26 -165
-57 -158 -201 -355 -236 -320 -7 7 0 19 24 41 42 37 120 150 154 226 15 31 28
54 31 52 2 -3 -8 -28 -22 -57 -14 -29 -24 -55 -21 -58 7 -6 66 121 66 140 0 9
-3 8 -11 -2 -8 -11 -8 -9 -2 10 10 31 11 221 1 275 -5 27 -5 32 1 15 l9 -25 2
25z m3789 -81 c1 13 4 21 8 17 4 -4 10 -60 13 -126 3 -65 2 -116 -2 -112 -4 4
-9 52 -11 107 -1 55 -3 8 -3 -105 0 -153 2 -182 7 -115 6 78 6 73 3 -35 -5
-190 -52 -575 -119 -980 -46 -283 -46 -280 -56 -255 -4 11 -7 34 -7 50 1 29 1
29 7 -5 7 -33 7 -32 15 23 4 32 5 61 2 65 -3 3 -6 -8 -7 -24 0 -16 -3 -24 -5
-19 -2 6 9 96 26 200 31 195 78 535 102 730 7 62 13 217 13 358 0 136 3 238 7
225 l6 -23 1 24z m-1949 -58 c-1 -28 -71 -182 -101 -220 -24 -31 -25 -17 0 17
28 41 71 132 71 150 0 9 -16 -16 -36 -57 -19 -40 -37 -71 -40 -69 -2 3 9 29
25 59 16 30 34 73 41 96 9 28 17 40 26 36 8 -3 14 -8 14 -12z m20 -106 c-10
-27 -58 -105 -64 -105 -4 0 18 44 52 106 17 31 24 31 12 -1z m-55 -54 c-20
-33 -38 -61 -41 -61 -6 0 23 57 49 97 36 53 30 30 -8 -36z m-93 -58 c-24 -33
-72 -80 -72 -70 0 8 80 97 87 97 2 0 -5 -12 -15 -27z m38 -62 c-67 -81 -202
-191 -234 -191 -6 0 16 18 49 39 33 22 79 58 103 81 40 38 54 59 32 45 -5 -3
-10 -3 -10 2 0 11 56 73 66 73 4 0 -5 -13 -21 -30 -16 -16 -26 -32 -23 -35 3
-4 21 12 39 34 19 22 36 38 38 36 2 -2 -15 -27 -39 -54z m-56 7 c-28 -33 -45
-50 -84 -83 l-35 -30 35 39 c59 66 134 132 84 74z m-124 -88 c-35 -33 -79 -67
-97 -75 -39 -19 -42 -27 -8 -21 14 3 23 1 20 -4 -3 -4 1 -11 7 -13 9 -4 10 -6
1 -6 -6 -1 -15 3 -18 9 -3 5 -27 -6 -54 -25 -53 -38 -71 -43 -71 -20 0 8 5 15
11 15 5 0 7 -4 4 -10 -3 -5 8 -2 24 8 34 19 43 39 11 22 -45 -24 -15 0 58 48
43 28 98 69 123 91 24 22 46 40 49 40 3 0 -24 -27 -60 -59z m80 13 c0 -5 -13
-17 -28 -27 l-27 -19 24 26 c26 28 31 32 31 20z m-64 -52 c-7 -11 -76 -52 -76
-46 0 4 70 53 78 54 2 1 1 -3 -2 -8z m-281 -213 c81 -13 109 -33 154 -113 49
-86 51 -175 5 -175 -10 0 -14 14 -14 50 0 56 -32 130 -72 167 -14 13 -48 27
-79 33 -99 19 -367 29 -511 18 -76 -5 -148 -8 -160 -6 -13 2 36 8 107 12 72 4
135 9 140 11 28 10 -153 1 -325 -15 -192 -19 -193 -19 -70 -15 109 3 116 2 50
-5 -141 -16 -445 -30 -625 -28 -156 1 -140 2 124 9 167 5 311 10 320 12 9 3
-128 3 -304 2 l-320 -3 280 8 c154 5 393 18 530 29 138 11 273 23 300 25 82 6
395 -4 470 -16z m-1586 -72 c-2 -2 -29 -6 -59 -9 -34 -3 -47 -2 -35 3 19 8
103 14 94 6z m4231 -160 c0 -2 -7 -6 -15 -10 -8 -3 -15 -1 -15 4 0 6 7 10 15
10 8 0 15 -2 15 -4z m280 -265 c171 -104 361 -159 585 -170 l150 -8 -125 -3
-125 -4 125 -6 125 -6 -108 -2 c-156 -3 -263 15 -432 74 -202 70 -379 195
-475 334 -22 33 -23 34 -2 16 21 -18 31 -11 13 10 -4 5 35 -34 88 -87 62 -62
126 -114 181 -148z m-2794 194 c-3 -8 -1 -15 3 -15 5 0 12 6 14 13 4 8 6 7 6
-3 1 -18 -18 -40 -33 -40 -6 0 -4 5 4 10 29 19 -72 -2 -405 -85 -291 -73 -632
-169 -644 -181 -11 -11 35 0 232 55 263 73 777 203 789 199 5 -2 -123 -36
-284 -76 -161 -41 -429 -112 -594 -158 -166 -46 -310 -84 -320 -83 -11 0 10 8
46 16 58 14 62 17 45 29 -10 8 -28 14 -39 14 -20 0 -20 0 0 -16 10 -8 14 -13
9 -10 -6 2 -58 -9 -115 -25 -58 -16 -109 -27 -115 -25 -5 3 -1 5 10 6 19 1 19
2 1 9 -12 5 30 20 135 49 85 23 170 44 189 47 23 3 18 0 -14 -8 -49 -13 -49
-13 -22 -25 31 -14 58 -16 37 -3 -14 9 40 29 234 86 138 41 754 195 781 195
13 0 29 9 36 20 15 24 23 26 14 5z m-10 -73 c-10 -16 -45 -22 -39 -6 3 8 9 12
13 9 5 -3 12 0 15 6 4 5 9 8 12 5 3 -2 2 -9 -1 -14z m134 -103 c41 -11 91 -30
110 -42 47 -29 109 -85 121 -111 6 -12 -6 -2 -28 21 -21 23 -60 56 -87 73 -51
31 -87 41 -52 15 25 -19 9 -19 -24 0 -22 13 -23 14 -5 15 l20 1 -20 9 c-11 5
-29 9 -40 9 l-20 0 20 -9 c29 -12 11 -12 -41 1 -25 7 -44 17 -44 25 0 18 2 18
90 -7z m205 -155 c16 -21 41 -60 57 -88 15 -28 28 -44 28 -36 0 8 -11 34 -25
58 -30 52 -24 56 9 4 30 -48 56 -162 56 -247 0 -214 -110 -431 -277 -546 -45
-31 -53 -34 -53 -19 0 6 6 10 14 10 8 0 18 5 22 11 4 8 -1 9 -17 4 l-24 -7 25
17 c14 10 58 50 98 89 54 52 82 90 106 141 39 80 65 156 67 188 1 17 3 16 9
-8 11 -44 1 159 -11 230 -15 87 -62 166 -138 237 -59 55 -61 58 -20 30 25 -17
58 -47 74 -68z m-1745 -54 c12 -3 -107 -39 -130 -38 -20 0 -21 1 -5 5 69 16
95 25 91 32 -4 6 24 7 44 1z m103 -564 c3 4 -2 19 -12 33 -25 36 -33 51 -28
51 15 0 98 -150 96 -174 0 -6 -7 3 -14 19 -19 40 -19 18 0 -35 8 -23 15 -50
15 -59 -1 -9 -12 18 -26 59 -13 41 -33 83 -42 95 -27 30 -52 73 -52 87 0 7 13
-8 28 -35 16 -26 31 -44 35 -41z m3510 -81 c88 -67 263 -293 344 -445 38 -72
99 -238 90 -247 -3 -2 -8 8 -11 24 -5 19 -10 23 -15 14 -6 -9 -14 4 -26 40
-10 30 -26 71 -36 91 -11 21 -19 41 -19 45 1 13 43 -69 62 -122 15 -40 17 -43
13 -16 -6 39 -93 227 -101 218 -3 -3 2 -19 11 -36 27 -53 8 -34 -31 32 -82
135 -228 316 -309 380 -27 22 -42 38 -32 34 9 -3 17 -2 17 3 0 5 -8 11 -17 13
-15 4 -15 5 -2 6 9 0 37 -15 62 -34z m-3424 -122 c17 -110 14 -219 -8 -288
-31 -95 -45 -130 -64 -156 -17 -24 -17 -24 -6 -1 16 36 3 38 -15 3 -19 -36
-20 -45 -4 -35 7 4 8 3 4 -5 -4 -6 -12 -9 -17 -6 -5 4 -9 1 -9 -6 0 -7 -3 -9
-7 -6 -7 7 26 78 42 89 5 4 13 4 17 2 4 -3 8 -1 8 4 0 6 -7 12 -15 16 -13 5
-11 13 12 48 25 39 28 51 27 133 -1 81 0 84 7 35 5 -40 7 -20 5 70 -2 77 0
112 5 90 6 -26 7 -21 4 22 -3 31 -8 65 -11 75 -4 14 -4 15 4 3 6 -8 15 -47 21
-87z m1708 -127 c102 -46 198 -162 230 -276 16 -59 15 -204 -2 -255 -8 -25
-13 -32 -14 -20 -1 12 -11 -2 -22 -33 -31 -79 -32 -58 -3 28 23 65 26 87 22
170 -3 84 -8 105 -36 163 -61 124 -178 213 -297 227 l-60 7 55 3 55 3 -55 7
-55 7 60 -1 c42 -2 79 -11 122 -30z m2130 -448 c-3 -8 -6 -5 -6 6 -1 11 2 17
5 13 3 -3 4 -12 1 -19z m-4017 8 c0 -6 -221 -129 -400 -224 -47 -24 -103 -54
-125 -67 -104 -58 -238 -126 -225 -112 8 8 51 34 95 57 242 129 490 264 595
324 43 25 60 31 60 22z m334 -37 c47 -17 90 -37 97 -45 6 -8 -17 -1 -52 16
-35 16 -71 30 -79 30 -8 -1 14 -13 49 -27 43 -18 85 -46 127 -86 75 -69 85
-65 17 7 -27 28 -39 43 -28 36 23 -17 70 -66 102 -107 25 -31 123 -222 123
-238 0 -5 -5 -3 -10 5 -15 24 -12 -4 5 -41 l16 -34 -6 30 c-10 55 14 2 30 -66
16 -69 19 -110 4 -69 -7 20 -8 17 -4 -15 3 -22 6 -80 7 -130 l2 -90 7 100 6
100 -2 -120 c-2 -83 -8 -131 -18 -155 -12 -26 -17 -30 -18 -15 -1 17 -2 16 -9
-5 -15 -45 -10 1 6 63 12 46 14 96 11 214 -2 84 -7 157 -12 161 -4 4 -5 -13
-2 -38 5 -43 5 -43 -5 -10 -5 19 -24 69 -41 110 -77 187 -172 315 -268 362
-61 29 -142 58 -164 58 -8 0 -15 7 -15 15 0 22 29 18 124 -16z m1741 -172
c-15 -36 -34 -72 -42 -79 -15 -12 -15 -10 -4 10 7 13 10 26 7 29 -2 3 -16 -17
-30 -44 -22 -44 -32 -53 -87 -77 -34 -15 -59 -29 -56 -32 3 -3 14 -1 25 5 12
6 27 11 34 11 14 -1 -48 -30 -63 -30 -5 0 -9 6 -9 13 0 7 27 25 59 41 47 22
66 38 90 78 17 27 31 53 31 58 0 5 5 12 11 16 8 4 9 -1 5 -17 -3 -13 7 2 21
33 36 76 40 67 8 -15z m2934 46 c-17 -22 -43 -43 -47 -38 -5 4 41 53 52 54 5
1 2 -7 -5 -16z m-2217 -194 c164 -34 318 -114 439 -227 105 -99 237 -268 221
-284 -15 -15 -27 -4 -69 59 -46 70 -176 208 -245 260 -71 54 -177 109 -268
141 -66 23 -91 26 -205 26 -120 0 -137 -3 -220 -32 -97 -34 -129 -37 -43 -3
29 11 48 20 41 20 -20 1 -122 -39 -129 -51 -5 -7 -1 -9 9 -5 10 3 17 2 17 -3
0 -6 -5 -10 -11 -10 -21 0 -125 -74 -188 -134 -35 -34 -59 -52 -53 -40 6 11
37 42 69 69 32 27 62 52 68 57 5 5 5 8 -2 8 -6 0 -37 -21 -70 -47 -32 -26 -51
-39 -43 -29 19 24 116 98 160 122 19 10 42 24 50 31 20 15 129 52 205 68 75
17 197 18 267 4z m-1496 -424 c-36 -19 -56 -19 -30 0 10 8 28 14 39 15 16 0
14 -3 -9 -15z m-2169 -107 c-3 -8 -6 -5 -6 6 -1 11 2 17 5 13 3 -3 4 -12 1
-19z"/>
<path d="M6438 6363 c7 -3 16 -2 19 1 4 3 -2 6 -13 5 -11 0 -14 -3 -6 -6z"/>
<path d="M6040 6295 c-60 -8 -79 -13 -50 -13 25 0 83 5 130 12 107 17 47 17
-80 1z"/>
<path d="M5446 4888 c59 -97 144 -202 144 -177 -1 8 -18 32 -39 53 -21 21 -52
61 -67 87 -16 27 -33 49 -37 49 -5 0 -5 -6 -1 -12z"/>
<path d="M5600 4700 c0 -35 284 -218 340 -219 8 0 -5 9 -30 21 -88 40 -232
134 -287 187 -13 12 -23 17 -23 11z"/>
<path d="M6535 4463 c-76 -17 -377 -23 -475 -11 -44 6 -49 5 -25 -3 57 -20
321 -23 441 -5 84 12 118 14 142 5 17 -6 39 -9 49 -6 10 2 -1 8 -27 13 -44 8
-44 8 -15 15 26 6 27 7 5 7 -14 0 -56 -7 -95 -15z"/>
<path d="M6475 4405 l-60 -14 53 6 c29 3 65 9 80 13 44 13 -5 10 -73 -5z"/>
<path d="M3295 4728 c32 -34 66 -76 76 -93 11 -16 19 -24 19 -16 0 26 -121
171 -143 171 -5 0 17 -28 48 -62z"/>
<path d="M3458 4430 c9 -60 9 -254 -1 -305 -6 -35 -5 -33 9 10 13 39 15 77 11
170 -2 66 -9 131 -15 145 -9 21 -10 17 -4 -20z"/>
<path d="M5540 4620 c34 -11 60 -11 35 0 -11 5 -29 8 -40 8 -16 0 -15 -2 5 -8z"/>
<path d="M6395 4560 l-30 -8 30 0 c17 0 44 4 60 8 l30 8 -30 0 c-16 0 -43 -4
-60 -8z"/>
<path d="M1625 4320 c3 -14 11 -54 16 -90 6 -36 13 -67 16 -70 11 -11 -10 125
-24 154 -11 25 -13 26 -8 6z"/>
<path d="M1529 3614 c-19 -19 -58 -54 -87 -76 -29 -22 -50 -43 -48 -46 7 -6
101 67 145 112 19 20 32 38 30 41 -3 2 -21 -11 -40 -31z"/>
<path d="M3413 4220 c0 -25 2 -35 4 -22 2 12 2 32 0 45 -2 12 -4 2 -4 -23z"/>
<path d="M1565 4065 c0 -74 3 -126 7 -117 4 9 7 62 7 117 0 55 -3 108 -7 117
-4 10 -7 -43 -7 -117z"/>
<path d="M1456 3736 c-14 -24 -49 -69 -77 -100 -28 -31 -46 -56 -41 -56 25 0
163 182 149 196 -2 3 -16 -15 -31 -40z"/>
<path d="M5341 3680 c-4 -102 -57 -513 -106 -823 -14 -87 -25 -166 -24 -175 2
-31 58 310 88 538 40 302 54 439 48 475 -3 23 -4 20 -6 -15z"/>
<path d="M3377 4073 c-4 -3 -7 -13 -7 -22 1 -13 3 -13 11 2 11 19 8 33 -4 20z"/>
<path d="M2441 3477 c3 -4 86 -11 185 -17 215 -12 291 -24 322 -53 41 -37 72
-111 72 -168 0 -46 2 -50 16 -38 22 18 11 79 -26 144 -45 78 -75 101 -150 114
-74 12 -428 27 -419 18z"/>
<path d="M5531 3175 c0 -18 103 -123 173 -175 128 -96 372 -191 521 -205 58
-5 58 -4 -16 10 -104 20 -277 78 -362 121 -96 49 -170 105 -249 188 -37 39
-67 67 -67 61z"/>
<path d="M1856 2855 c10 -8 28 -14 39 -14 18 0 17 1 -5 14 -34 20 -60 20 -34
0z"/>
<path d="M1695 2825 c-44 -13 -74 -24 -68 -24 14 -1 165 39 172 45 10 9 -28 1
-104 -21z"/>
<path d="M3050 2990 c8 -5 24 -10 34 -10 26 0 18 6 -19 14 -22 5 -26 4 -15 -4z"/>
<path d="M3416 2670 c4 -19 10 -80 14 -135 l7 -100 0 85 c1 47 -5 108 -13 135
-7 28 -11 34 -8 15z"/>
<path d="M3406 2349 c-15 -79 -83 -194 -165 -278 -44 -45 -74 -81 -69 -81 26
0 155 151 190 222 41 81 62 142 55 161 -2 6 -7 -4 -11 -24z"/>
<path d="M1692 2190 c7 -10 14 -18 15 -16 6 6 -9 36 -18 36 -5 0 -4 -9 3 -20z"/>
<path d="M5240 2053 c82 -83 167 -191 219 -276 13 -21 26 -36 28 -33 22 21
-283 396 -321 396 -6 0 27 -39 74 -87z"/>
<path d="M1762 1893 c-2 -97 -17 -174 -43 -225 -11 -21 -15 -38 -10 -38 10 0
32 52 50 120 7 25 11 84 9 135 l-4 90 -2 -82z"/>
<path d="M3449 1877 c78 -31 172 -125 213 -213 32 -66 33 -74 33 -192 0 -68 3
-113 7 -100 12 43 8 193 -6 239 -35 114 -113 211 -208 258 -34 17 -68 31 -77
30 -9 0 8 -10 38 -22z"/>
<path d="M1825 1420 c11 -5 29 -8 40 -8 16 0 15 2 -5 8 -34 11 -60 11 -35 0z"/>
<path d="M2130 1239 c0 -4 19 -38 42 -75 23 -38 50 -88 60 -112 11 -24 22 -41
26 -38 7 8 -73 165 -104 203 -13 15 -23 25 -24 22z"/>
<path d="M2306 556 c-4 -21 -5 -40 -2 -43 7 -8 18 42 14 64 -3 11 -7 3 -12
-21z"/>
<path d="M4111 1075 c-35 -8 -66 -17 -70 -21 -3 -4 8 -3 24 1 209 51 381 23
592 -96 94 -54 253 -208 319 -310 25 -38 49 -69 54 -69 21 0 -101 161 -189
249 -113 112 -213 174 -361 223 -115 37 -264 47 -369 23z"/>
<path d="M3845 965 c-39 -32 -24 -32 23 0 20 14 30 25 22 25 -8 0 -28 -11 -45
-25z"/>
<path d="M6800 7094 c0 -61 -2 -133 -5 -160 -5 -49 -5 -49 9 11 8 33 12 79 9
101 -3 23 -1 49 4 58 7 14 21 -11 60 -111 28 -70 61 -159 73 -196 12 -38 24
-66 27 -63 7 7 -31 121 -94 276 -88 218 -83 213 -83 84z"/>
<path d="M6690 6540 c-6 -12 -9 -24 -7 -27 3 -2 11 5 17 17 6 12 9 24 7 27 -3
2 -11 -5 -17 -17z"/>
<path d="M6362 6424 c-46 -24 -78 -44 -72 -44 13 0 151 68 165 81 18 18 -10 7
-93 -37z"/>
<path d="M215 4890 c-121 -21 -207 -38 -191 -39 32 -1 308 41 406 63 124 27 4
14 -215 -24z"/>
<path d="M408 4899 c-56 -13 -352 -59 -382 -59 -21 0 -26 -5 -26 -26 0 -23 3
-25 25 -20 64 15 75 14 25 -3 -93 -32 -45 -23 185 33 121 30 229 56 240 59 15
3 12 5 -10 7 l-30 2 30 8 c27 7 27 8 5 8 -14 0 -42 -4 -62 -9z m-113 -49 c-82
-22 -159 -39 -170 -39 -25 1 273 77 300 77 11 0 -47 -17 -130 -38z"/>
<path d="M4895 4854 c-5 -2 -41 -8 -80 -13 -48 -6 -58 -9 -30 -9 22 -1 69 5
105 12 36 8 54 14 40 14 -14 0 -29 -1 -35 -4z"/>
<path d="M1180 3436 c-87 -44 -243 -103 -405 -151 -49 -15 -162 -49 -250 -77
-88 -27 -178 -53 -200 -57 -47 -10 -269 -58 -304 -66 -13 -3 -21 -8 -18 -11 7
-8 318 61 447 99 511 151 598 180 745 255 55 28 93 51 85 51 -8 0 -53 -19
-100 -43z"/>
<path d="M1665 2881 c-149 -42 -525 -181 -720 -266 -79 -34 -203 -85 -208 -85
-3 0 -34 -13 -69 -29 -35 -16 -85 -39 -113 -51 -62 -28 -355 -168 -375 -179
-8 -5 -52 -29 -97 -52 -46 -24 -83 -49 -83 -55 0 -7 48 13 108 43 59 30 157
77 217 105 61 28 148 68 195 91 47 22 105 48 130 57 58 23 265 107 305 124 85
36 138 58 215 86 47 17 99 38 116 45 39 18 204 81 264 102 25 8 59 21 75 28
17 8 66 25 110 39 108 34 55 31 -70 -3z"/>
<path d="M984 1226 c-27 -24 -47 -46 -44 -49 3 -3 27 15 53 40 63 59 55 67 -9
9z"/>
<path d="M6410 1224 c-109 -75 -294 -171 -440 -229 -151 -60 -214 -87 -232
-103 -45 -38 1 -43 70 -8 26 13 70 31 97 40 162 53 607 308 589 337 -8 14 -14
11 -84 -37z"/>
<path d="M900 1039 c-30 -17 -84 -47 -120 -67 -80 -43 -133 -80 -185 -127 -73
-65 -289 -231 -360 -276 -38 -24 -107 -62 -152 -84 l-83 -40 0 -222 0 -223
173 0 c168 0 172 1 182 23 39 82 143 269 192 344 32 48 61 96 65 107 5 10 17
30 27 45 18 25 27 41 98 171 92 168 178 313 208 349 33 39 25 39 -45 0z"/>
<path d="M3661 905 c-1 -11 -4 -31 -6 -45 l-6 -25 11 25 c6 13 9 33 7 45 -4
19 -4 19 -6 0z"/>
<path d="M5610 801 c-46 -19 -170 -83 -250 -129 -73 -42 -145 -108 -173 -159
-14 -27 -46 -102 -70 -168 -25 -66 -52 -133 -61 -150 -9 -16 -16 -33 -16 -37
0 -6 -55 -131 -67 -150 -2 -5 15 -8 39 -8 39 0 44 3 57 33 7 17 21 50 31 72
33 73 110 273 110 284 0 6 18 49 39 95 41 85 64 110 142 156 24 14 89 55 145
93 55 37 106 67 112 67 6 0 14 5 17 10 9 14 -3 12 -55 -9z"/>
<path d="M2730 632 c-96 -49 -274 -145 -293 -157 -16 -11 -16 -13 -1 -19 22
-8 354 158 341 171 -3 2 -52 -22 -111 -52 -58 -31 -106 -54 -106 -52 0 10 212
117 220 112 4 -3 16 -2 25 1 13 5 14 8 3 15 -18 12 -16 12 -78 -19z m-180
-116 c0 -2 -7 -7 -16 -10 -8 -3 -12 -2 -9 4 6 10 25 14 25 6z m-56 -31 c-10
-8 -23 -15 -28 -15 -6 0 -1 7 10 15 10 8 23 15 28 15 6 0 1 -7 -10 -15z"/>
<path d="M440 114 c-17 -31 -29 -58 -26 -61 5 -5 66 96 66 110 0 16 -10 4 -40
-49z"/>
</g>
</svg>
