<?xml version="1.0" standalone="no"?>
<!DOCTYPE svg PUBLIC "-//W3C//DTD SVG 20010904//EN"
 "http://www.w3.org/TR/2001/REC-SVG-20010904/DTD/svg10.dtd">
<svg version="1.0" xmlns="http://www.w3.org/2000/svg"
 width="1280.000000pt" height="720.000000pt" viewBox="0 0 1280.000000 720.000000"
 preserveAspectRatio="xMidYMid meet">
<metadata>
Created by potrace 1.16, written by Peter Selinger 2001-2019
</metadata>
<g transform="translate(0.000000,720.000000) scale(0.100000,-0.100000)"
fill="#000000" stroke="none">
<path d="M0 6035 c0 -1103 1 -1165 18 -1165 16 0 230 35 722 119 355 61 677
83 755 51 56 -22 137 -40 181 -40 27 0 105 -7 174 -15 69 -8 276 -20 460 -25
353 -10 694 -25 870 -37 58 -4 267 -7 465 -8 198 0 509 -5 690 -10 288 -7 351
-6 493 10 89 10 165 15 167 13 3 -3 -71 -13 -164 -23 -141 -15 -216 -17 -453
-11 -664 15 -755 16 -704 5 28 -6 103 -9 167 -7 64 2 115 0 112 -4 -6 -11
-226 -10 -297 2 -34 5 -185 14 -336 20 -151 6 -363 15 -470 20 -107 5 -348 14
-535 20 -187 5 -378 14 -424 20 -46 6 -131 15 -190 20 -58 5 -131 16 -161 26
-97 29 -201 34 -390 18 -156 -13 -647 -87 -659 -99 -2 -3 7 -5 20 -6 l24 -1
-25 -8 c-21 -7 -22 -8 -5 -10 l20 -1 -20 -9 c-36 -16 7 -10 102 13 76 19 91
25 80 36 -10 11 -8 11 9 0 18 -10 36 -10 105 4 126 26 242 44 359 58 136 15
382 -7 427 -39 25 -17 57 -20 333 -31 409 -16 1138 -49 1225 -56 153 -12 717
-35 1010 -41 171 -4 318 -11 327 -15 9 -5 77 -8 150 -7 l133 1 -138 7 c-75 4
-139 9 -141 11 -3 2 68 4 157 4 115 0 188 6 252 18 93 19 233 63 250 78 15 15
35 10 35 -8 0 -12 -3 -14 -8 -6 -5 8 -13 9 -22 3 -13 -9 -13 -10 0 -10 9 -1 5
-6 -10 -15 -14 -8 -19 -14 -10 -14 8 0 51 19 95 42 61 33 81 48 86 69 4 15 33
58 65 95 69 82 128 200 116 234 -5 13 -5 43 1 68 19 88 -20 487 -74 770 -11
57 -18 105 -16 108 6 5 43 -190 67 -357 27 -189 45 -464 33 -520 -5 -27 -5
-55 0 -70 13 -37 -49 -163 -124 -250 -35 -41 -59 -78 -59 -92 0 -35 -126 -93
-368 -168 -74 -23 -131 -44 -129 -46 6 -6 111 21 202 52 210 71 288 112 315
163 10 20 30 47 45 61 47 42 113 153 129 216 28 109 -7 550 -71 883 -39 202
-38 201 -17 200 11 0 28 -5 39 -10 15 -7 11 -7 -14 -3 -39 7 -39 30 2 -187 39
-202 65 -424 76 -637 9 -171 8 -197 -8 -255 -21 -77 -57 -140 -120 -213 -25
-29 -56 -66 -69 -83 -20 -26 -151 -101 -178 -101 -6 0 -24 -7 -40 -15 -36 -18
-269 -85 -294 -85 -12 0 -17 5 -14 14 3 7 54 28 114 47 60 18 108 34 106 37
-2 2 -48 -6 -103 -18 -117 -26 -383 -39 -441 -22 -21 6 -165 13 -332 16 -277
6 -849 29 -1005 41 -90 7 -828 41 -1230 56 -284 11 -312 13 -339 32 -45 32
-269 53 -406 38 -229 -24 -621 -103 -950 -190 -41 -11 -108 -28 -148 -37 l-72
-17 0 -834 0 -833 23 5 c12 2 86 18 163 35 161 35 247 58 494 136 326 103 365
117 477 171 80 39 118 53 134 48 16 -5 19 -4 14 6 -6 9 -4 11 8 6 8 -3 18 0
20 8 8 19 -4 27 -20 13 -7 -6 -16 -9 -19 -6 -5 6 61 48 74 48 4 0 -1 -5 -10
-11 -27 -15 -21 -29 7 -16 14 7 25 19 26 27 0 11 2 12 6 2 7 -18 -61 -77 -127
-110 -55 -27 -55 -27 -25 -33 26 -6 25 -6 -7 -4 -21 2 -51 -5 -70 -15 -42 -22
-258 -100 -368 -133 -47 -14 -146 -44 -220 -66 -187 -56 -304 -86 -449 -116
-68 -14 -125 -25 -127 -25 -2 0 -4 -195 -4 -434 l0 -435 163 82 c334 168 449
220 817 367 85 33 200 79 255 102 137 55 159 63 245 93 103 36 335 95 368 94
24 -1 23 -3 -8 -9 l-35 -7 35 -2 c31 -2 28 -4 -25 -16 -74 -17 -244 -77 -435
-153 -41 -16 -150 -59 -242 -95 -92 -36 -182 -72 -200 -80 -51 -23 -277 -117
-282 -117 -3 0 -52 -22 -111 -50 -59 -27 -109 -50 -112 -50 -3 0 -101 -47
-219 -105 l-214 -104 0 -826 0 -826 78 42 c127 69 246 153 399 282 80 67 157
131 172 141 30 23 137 114 196 167 22 20 69 61 105 90 36 29 67 57 68 61 6 13
32 9 32 -5 0 -12 -199 -198 -250 -234 -11 -8 -17 -20 -14 -26 4 -7 4 -9 -1 -5
-4 4 -15 3 -24 -4 -24 -16 88 91 138 134 25 21 40 38 33 38 -9 0 -96 -69 -112
-89 -8 -10 -133 -116 -161 -137 -15 -10 -91 -73 -170 -140 -192 -160 -237
-191 -441 -303 -46 -24 -68 -49 -31 -33 152 65 386 222 543 366 74 67 119 98
254 171 77 41 143 75 147 75 19 0 16 -20 -7 -51 -33 -44 -127 -203 -207 -349
-16 -30 -45 -81 -63 -113 -20 -33 -31 -64 -27 -73 5 -14 9 -13 25 7 21 25 -38
-89 -79 -153 -12 -21 -23 -40 -23 -43 0 -2 -19 -35 -42 -72 -23 -38 -46 -77
-53 -88 -72 -129 -95 -162 -80 -114 5 16 4 19 -6 14 -7 -5 3 18 21 51 54 98
142 244 147 244 5 0 7 4 -47 -88 -23 -40 -40 -75 -38 -78 5 -5 158 248 158
261 0 3 -5 3 -11 -1 -8 -4 -7 0 1 15 6 12 15 19 21 16 11 -8 12 5 0 24 -7 11
-13 7 -25 -18 -9 -17 -41 -69 -70 -114 -47 -74 -196 -337 -196 -348 0 -2 17
-5 38 -6 38 -2 39 -2 83 80 24 45 49 91 56 102 7 11 15 27 20 35 4 8 19 35 33
60 15 25 50 90 80 145 29 55 56 105 60 110 4 6 33 62 65 125 31 63 60 122 65
130 44 77 133 268 134 286 1 20 20 34 120 84 110 56 263 138 311 167 11 7 27
15 35 19 8 4 58 35 110 70 106 70 170 89 390 118 63 9 140 20 170 25 30 6 91
15 135 22 44 6 127 24 185 39 58 15 166 42 240 60 74 18 175 45 223 61 48 16
122 38 165 50 42 11 83 25 90 32 8 6 32 13 55 16 29 4 43 11 45 24 3 15 -2 17
-40 11 -24 -4 -128 -35 -233 -69 -104 -34 -237 -74 -295 -89 -58 -14 -166 -42
-240 -61 -74 -20 -198 -45 -275 -56 -77 -11 -147 -21 -155 -24 -21 -6 -219
-37 -253 -40 -15 -1 -37 -7 -50 -13 -59 -29 -167 -69 -167 -62 0 5 19 15 43
22 30 11 42 20 42 34 0 10 11 36 23 57 25 39 36 48 25 20 -4 -11 -3 -14 5 -9
17 10 15 33 -3 40 -13 5 -11 13 12 48 25 39 28 51 27 133 -1 81 0 84 7 35 5
-40 7 -20 5 70 -2 77 0 112 5 90 6 -26 7 -21 4 22 -3 31 -8 65 -11 75 -4 14
-4 15 4 3 15 -23 32 -150 32 -237 0 -73 -17 -150 -50 -228 -35 -81 -41 -95
-51 -101 -7 -4 -7 2 1 16 6 12 9 24 6 27 -3 3 -12 -9 -20 -28 -10 -23 -11 -35
-4 -38 15 -5 80 30 96 51 7 10 20 18 29 18 11 0 9 -5 -8 -21 l-24 -20 30 5
c17 3 75 13 130 21 55 9 107 18 115 20 8 3 78 13 155 24 77 11 201 36 275 56
74 19 182 47 240 61 58 14 155 43 215 63 159 55 274 89 323 96 40 6 42 6 42
-19 0 -20 -6 -27 -27 -31 -16 -3 -41 -10 -58 -16 -61 -21 -112 -37 -175 -55
-36 -9 -69 -20 -75 -24 -17 -10 -115 -38 -255 -70 -74 -18 -182 -45 -240 -60
-58 -15 -141 -33 -185 -39 -44 -7 -105 -16 -135 -22 -30 -5 -118 -18 -195 -29
-214 -31 -242 -40 -353 -114 -55 -36 -102 -66 -105 -66 -2 0 -44 -23 -93 -51
-49 -29 -155 -85 -236 -126 -110 -55 -146 -78 -145 -92 1 -16 -20 -70 -44
-114 -5 -10 -57 -111 -114 -225 -106 -211 -163 -318 -240 -452 -23 -41 -55
-97 -70 -125 -15 -27 -41 -74 -57 -102 l-29 -53 758 0 c732 0 759 1 768 19 6
10 20 38 32 62 12 24 33 61 47 82 14 21 26 40 26 42 0 9 79 122 94 134 9 7 25
11 37 8 29 -8 238 91 218 104 -9 6 -18 3 -26 -7 -6 -8 -14 -11 -17 -6 -8 13
20 35 81 66 29 14 51 32 49 39 -1 6 -1 9 1 5 3 -5 9 -8 14 -8 6 0 7 5 3 12 -4
6 -3 8 4 4 15 -9 62 11 58 26 -1 7 -1 10 1 6 3 -5 9 -8 14 -8 6 0 8 4 5 8 -3
5 0 9 7 9 12 0 538 256 647 314 30 16 89 45 130 65 41 20 84 43 94 52 13 12
18 13 15 4 -3 -8 -74 -50 -159 -94 -99 -52 -154 -85 -152 -94 2 -8 -2 -14 -8
-14 -6 0 -8 5 -5 10 8 13 -11 13 -37 -1 -16 -8 -18 -13 -8 -19 9 -6 -4 -17
-41 -35 -30 -15 -80 -45 -111 -67 -32 -21 -58 -35 -58 -30 0 13 56 49 160 102
23 12 40 23 37 26 -4 4 -53 -18 -294 -133 -18 -8 -30 -19 -27 -24 3 -5 -2 -6
-10 -3 -15 6 -211 -94 -202 -103 3 -3 48 18 102 47 53 29 93 47 90 41 -11 -17
10 -13 28 5 9 8 16 11 16 5 0 -22 -94 -74 -485 -269 -54 -27 -103 -45 -123
-45 -26 1 -39 -7 -67 -42 -19 -23 -35 -45 -35 -48 0 -3 -13 -25 -29 -49 -15
-24 -43 -70 -61 -103 -18 -33 -36 -64 -41 -69 -16 -17 -10 -26 19 -26 23 0 33
10 70 78 46 84 53 96 95 159 19 29 35 43 50 43 12 0 72 27 134 59 70 37 114
54 117 47 3 -7 7 -8 13 -1 13 17 143 100 218 140 39 21 90 52 115 70 25 18 81
51 125 75 94 50 117 65 110 71 -2 3 5 6 17 6 11 1 28 8 37 16 13 12 104 69
179 112 10 6 31 19 47 31 17 11 65 40 108 63 77 42 78 43 105 26 15 -10 37
-27 50 -38 12 -11 22 -15 22 -9 0 7 -18 25 -40 40 -21 15 -39 33 -40 39 0 14
51 43 77 43 10 0 24 4 32 9 22 14 -6 44 -36 38 -12 -2 -20 0 -17 4 8 13 48 11
62 -3 25 -25 13 -45 -30 -56 -24 -6 -51 -17 -61 -24 -17 -13 -16 -15 20 -38
22 -15 39 -35 41 -48 5 -31 -10 -28 -63 12 l-45 35 -87 -51 c-49 -27 -95 -55
-103 -61 -8 -7 -26 -18 -40 -26 -14 -8 -77 -47 -140 -86 -63 -39 -151 -90
-195 -114 -44 -24 -100 -58 -125 -76 -25 -18 -81 -51 -124 -75 -43 -23 -114
-66 -157 -96 -43 -29 -79 -49 -81 -44 -2 5 -52 -16 -111 -46 -60 -30 -117 -54
-127 -54 -25 0 -86 -89 -169 -247 l-12 -23 593 1 593 0 52 107 c29 59 71 147
94 197 23 50 66 142 96 205 71 149 92 201 115 280 17 61 17 62 12 17 -5 -43
-16 -78 -44 -142 -45 -105 -128 -281 -231 -494 -43 -90 -79 -165 -79 -167 0
-2 6 -4 14 -4 9 0 34 39 60 92 68 142 146 309 146 313 0 3 41 93 110 240 38
81 78 191 84 230 6 35 4 33 -12 -15 -17 -51 -41 -102 -42 -90 0 3 9 31 20 63
11 31 20 63 20 72 0 8 7 15 15 15 21 0 19 -28 -9 -112 -31 -95 -44 -125 -143
-337 -19 -41 -53 -114 -74 -163 -21 -49 -63 -138 -93 -198 l-54 -110 833 0
833 0 65 148 c36 81 79 187 96 236 70 197 116 244 368 370 74 37 170 76 188
76 3 0 5 -7 5 -15 0 -8 -4 -15 -8 -15 -5 0 -60 -34 -123 -75 -63 -41 -128 -84
-145 -95 -16 -11 -35 -20 -40 -20 -14 0 -67 -59 -90 -100 -11 -19 -37 -82 -58
-140 -37 -103 -89 -233 -127 -317 -10 -24 -19 -45 -19 -48 0 -3 1739 -5 3865
-5 l3865 0 0 3600 0 3600 -2975 0 c-2373 0 -2975 -3 -2975 -12 0 -9 -3 -8 -10
2 -19 31 -22 -1 -3 -42 11 -24 24 -54 28 -68 4 -14 12 -30 16 -36 5 -7 34 -81
64 -165 69 -198 134 -379 178 -499 20 -52 63 -171 97 -265 34 -93 66 -179 71
-190 23 -54 79 -212 79 -222 0 -7 -5 -13 -11 -13 -5 0 -7 4 -4 10 8 14 -35
131 -46 124 -5 -3 -9 -12 -9 -20 0 -8 4 -12 10 -9 6 3 7 -1 4 -9 -3 -8 1 -37
10 -63 9 -26 36 -129 61 -228 62 -242 122 -443 175 -585 137 -365 182 -565
201 -895 10 -164 9 -208 -5 -319 -9 -71 -28 -163 -42 -205 -40 -119 -147 -329
-209 -410 -32 -40 -79 -117 -106 -170 -26 -53 -55 -107 -64 -121 -45 -74 -120
-258 -130 -320 -48 -303 -249 -766 -419 -969 -69 -82 -166 -184 -166 -173 0 5
39 52 86 103 110 121 190 240 263 392 123 254 202 482 227 652 3 28 28 100 54
160 53 124 192 390 220 420 36 40 93 132 148 240 121 242 152 408 133 720 -19
325 -64 528 -196 880 -14 39 -35 97 -46 130 -10 33 -28 87 -39 120 -22 71 -45
154 -99 368 -23 87 -52 195 -66 238 -27 86 -30 103 -15 79 20 -32 21 18 2 67
-11 26 -37 94 -57 151 -34 92 -39 100 -51 85 -13 -16 -13 -15 -3 8 9 23 3 48
-49 185 -33 87 -79 215 -103 283 -23 68 -45 119 -47 113 -3 -10 62 -204 124
-371 13 -35 24 -80 24 -101 0 -43 16 -96 60 -200 18 -41 43 -111 56 -155 24
-77 128 -473 144 -545 14 -66 74 -284 90 -325 4 -11 21 -56 37 -100 150 -397
200 -631 210 -981 6 -206 -7 -317 -58 -467 -34 -104 -159 -355 -199 -401 -15
-17 -50 -71 -78 -121 -27 -49 -69 -122 -93 -161 -57 -91 -123 -249 -144 -344
-19 -87 -71 -276 -84 -305 -5 -11 -21 -47 -36 -80 -15 -33 -34 -78 -43 -100
-28 -72 -163 -329 -199 -380 -56 -80 -147 -178 -228 -246 -47 -40 -71 -67 -65
-73 6 -6 26 6 54 32 25 23 49 42 53 42 27 -2 -253 -220 -282 -220 -4 0 -26
-14 -50 -30 -50 -35 -290 -151 -350 -170 -22 -7 -67 -26 -101 -41 -76 -36
-117 -39 -112 -7 4 25 37 47 133 84 39 15 74 31 80 35 5 5 15 9 22 9 23 0 236
102 347 166 207 120 381 273 491 432 112 161 281 536 328 727 10 39 22 84 27
100 5 17 12 48 16 70 20 111 159 375 332 632 41 60 150 286 176 365 46 138 59
251 53 452 -10 349 -51 544 -202 956 -29 80 -64 186 -79 235 -30 104 -125 471
-137 530 -18 90 -80 287 -124 395 -30 73 -50 140 -55 185 -5 38 -18 95 -30
125 -13 30 -60 165 -106 300 -46 135 -88 254 -94 265 -5 11 -23 54 -39 95 -29
71 -30 73 -30 37 -1 -21 3 -36 8 -33 4 3 2 -23 -6 -57 -7 -34 -20 -96 -29
-137 -19 -87 -62 -230 -76 -247 -5 -6 -6 -22 -3 -35 5 -20 -10 -39 -102 -129
-134 -130 -236 -201 -323 -223 -14 -4 4 7 39 24 89 42 174 106 262 197 59 61
84 96 114 163 22 46 39 99 39 117 0 18 3 27 7 21 4 -7 10 5 14 28 4 21 11 52
16 68 17 54 8 72 -10 21 -47 -129 -153 -262 -274 -343 -20 -14 -35 -27 -32
-30 14 -15 183 131 228 198 17 25 17 25 3 -5 -18 -37 -134 -151 -197 -193 -70
-47 -281 -141 -229 -102 12 9 7 10 -20 6 l-35 -6 40 15 c56 22 171 81 225 117
75 51 168 147 163 169 -3 10 0 19 6 19 5 0 8 -8 5 -17 -9 -27 21 11 61 79 57
97 67 139 73 301 l4 147 -1111 0 c-625 0 -1111 -4 -1111 -9 0 -13 39 -58 40
-45 0 5 -5 15 -12 22 -6 6 -10 14 -7 16 5 5 27 -28 164 -239 127 -196 388
-442 557 -525 27 -13 46 -25 44 -28 -8 -7 -141 68 -208 118 -104 79 -260 232
-330 325 -35 47 -95 135 -132 195 -38 61 -71 109 -73 106 -10 -10 137 -239
222 -346 61 -77 212 -221 305 -291 65 -49 193 -120 240 -132 13 -3 22 -9 19
-12 -9 -8 -126 41 -183 77 -58 36 -119 83 -190 145 -26 24 -53 40 -59 36 -5
-3 -7 -2 -4 4 4 6 -5 21 -20 34 -83 77 -213 255 -333 456 l-55 92 -2277 1
-2278 0 0 -1165z m6691 559 c-72 -150 -251 -311 -416 -374 -49 -19 -24 0 41
31 58 27 168 99 161 105 -1 1 -40 -8 -86 -22 -46 -13 -95 -24 -110 -23 -14 0
4 7 41 15 77 17 138 39 78 28 -106 -18 -202 -42 -175 -44 l30 -2 -35 -8 c-19
-5 -98 -16 -175 -25 -144 -17 -307 -14 -336 7 -11 8 -10 9 4 4 10 -3 68 -8
130 -10 l112 -5 -110 10 c-60 5 -119 14 -130 19 -18 9 -17 10 5 6 179 -32 478
2 775 88 11 4 7 0 -9 -7 -23 -12 -25 -15 -11 -20 37 -15 177 157 230 280 11
24 21 41 23 38 3 -2 -14 -43 -37 -91z m-1201 -237 c36 -9 74 -19 85 -21 11 -3
2 -4 -20 -2 -57 5 -155 35 -155 48 0 7 4 7 13 1 6 -6 41 -17 77 -26z m757 -3
c-3 -3 -12 -4 -19 -1 -8 3 -5 6 6 6 11 1 17 -2 13 -5z m-850 -56 c-3 -7 -5 -2
-5 12 0 14 2 19 5 13 2 -7 2 -19 0 -25z m120 26 c-3 -3 -12 -4 -19 -1 -8 3 -5
6 6 6 11 1 17 -2 13 -5z m61 -11 c-10 -2 -26 -2 -35 0 -10 3 -2 5 17 5 19 0
27 -2 18 -5z m1592 -128 c0 -5 -5 -3 -10 5 -5 8 -10 20 -10 25 0 6 5 3 10 -5
5 -8 10 -19 10 -25z m271 -1269 c-16 -34 -46 -80 -65 -102 -19 -23 -32 -45
-28 -49 4 -5 2 -5 -4 -2 -6 4 -20 -3 -30 -14 -10 -12 -28 -25 -39 -31 -11 -5
-1 7 22 27 51 44 133 151 133 173 0 10 -9 2 -21 -18 -42 -69 -95 -124 -174
-183 -44 -33 -79 -64 -77 -69 1 -5 -2 -7 -8 -3 -6 4 -22 0 -35 -9 -43 -29
-189 -83 -283 -106 -85 -21 -91 -24 -72 -37 24 -17 16 -20 220 67 80 34 160
66 178 71 18 6 30 14 27 19 -4 6 1 7 11 3 11 -4 15 -3 11 4 -5 7 1 9 15 6 17
-3 19 -2 10 5 -11 7 -11 10 3 15 9 4 13 3 10 -3 -7 -12 -3 -12 20 -4 12 5 13
9 5 14 -8 5 -7 9 5 13 9 4 13 3 10 -3 -3 -6 1 -10 9 -10 19 0 30 17 14 23 -7
2 1 11 19 20 18 10 53 31 78 48 33 23 50 28 57 21 12 -12 -6 -42 -25 -42 -5 0
-2 9 8 20 10 11 13 20 8 20 -6 0 -16 -7 -23 -15 -7 -8 -16 -15 -21 -15 -7 0
-76 -43 -88 -56 -15 -14 22 0 53 21 39 26 51 31 42 16 -11 -18 -136 -82 -228
-117 -96 -37 -253 -102 -323 -134 -36 -17 -89 -34 -253 -84 -67 -20 -340 -69
-355 -63 -7 2 28 10 77 17 49 8 84 16 77 18 -7 2 -47 -1 -88 -8 -41 -6 -76
-10 -79 -8 -2 3 67 17 154 31 86 15 168 29 182 32 22 5 22 4 5 -4 -24 -12 1
-13 29 -2 46 18 -32 20 -139 5 -133 -20 -384 -15 -455 9 -27 9 -37 16 -25 17
l20 1 -20 9 c-11 5 -27 9 -35 9 -13 1 -13 0 0 -10 11 -8 9 -9 -10 -4 -43 12
-125 51 -185 90 -41 26 -61 33 -68 26 -8 -8 -6 -11 8 -11 10 0 16 -3 12 -6 -3
-3 -15 -3 -27 1 -19 6 -20 8 -5 19 15 11 13 15 -22 41 -21 16 -59 49 -85 74
-38 35 -48 40 -48 25 0 -16 -2 -17 -10 -4 -6 10 -6 16 1 18 5 2 -6 25 -25 50
-18 26 -41 62 -50 80 -16 31 -18 32 -89 34 l-72 2 75 6 75 6 -60 5 c-41 4 -23
5 55 5 86 1 101 -1 60 -6 -61 -8 -52 -11 30 -12 l55 -1 -52 -4 c-29 -2 -53 -6
-53 -9 0 -2 12 -23 27 -47 99 -151 324 -314 518 -374 49 -15 93 -18 250 -18
209 1 291 13 555 82 150 39 234 74 329 135 54 36 61 43 45 50 -14 6 -11 7 8 3
23 -4 38 5 95 59 37 35 85 92 106 127 21 35 36 53 32 39 -5 -17 -4 -22 3 -15
14 14 27 59 14 51 -6 -4 -8 2 -4 16 5 21 5 21 14 -2 7 -18 2 -38 -21 -84z
m-5693 47 c-16 -2 -40 -2 -55 0 -16 2 -3 4 27 4 30 0 43 -2 28 -4z m-1105 -20
c-7 -2 -19 -2 -25 0 -7 3 -2 5 12 5 14 0 19 -2 13 -5z m-49 -12 c3 -4 -6 -6
-19 -3 -14 2 -25 6 -25 8 0 8 39 4 44 -5z m4449 2 c-7 -2 -19 -2 -25 0 -7 3
-2 5 12 5 14 0 19 -2 13 -5z m727 -14 c26 -6 20 -7 -22 -2 -32 3 -87 6 -123 7
-35 0 -57 4 -47 8 20 7 140 0 192 -13z m-732 -5 c-26 -26 -452 -55 -633 -44
l-120 8 125 -3 c156 -3 408 11 520 29 102 16 115 18 108 10z m670 -11 c-21 -2
-57 -2 -80 0 -24 2 -7 4 37 4 44 0 63 -2 43 -4z m-1583 -23 c-3 -6 -42 -9 -88
-8 l-82 2 85 6 c47 3 86 7 88 8 2 1 0 -2 -3 -8z m123 -17 c-21 -2 -57 -2 -80
0 -24 2 -7 4 37 4 44 0 63 -2 43 -4z m180 -10 c-21 -2 -57 -2 -80 0 -24 2 -7
4 37 4 44 0 63 -2 43 -4z m-1113 -105 c50 -56 155 -241 143 -253 -2 -3 -17 24
-33 58 -15 34 -30 56 -33 49 -2 -8 -19 9 -39 40 -19 29 -55 74 -80 100 -40 41
-49 68 -23 68 4 0 34 -28 65 -62z m2275 -124 c23 -8 28 -13 15 -13 -17 -1 -18
-3 -5 -12 13 -9 13 -10 -2 -5 -9 2 -36 10 -60 17 -24 6 -37 14 -29 17 11 4 11
6 0 14 -17 11 31 0 81 -18z m963 -31 c-7 -2 -19 -2 -25 0 -7 3 -2 5 12 5 14 0
19 -2 13 -5z m-58 -14 c-14 -6 -8 -8 25 -4 l45 5 -50 -15 c-113 -33 -265 -48
-435 -42 -91 2 -176 10 -190 16 l-25 12 25 -6 c45 -11 364 -16 425 -7 44 6 12
8 -120 5 -127 -3 -206 1 -270 11 l-90 15 75 -7 c130 -12 428 -5 505 11 82 18
109 20 80 6z m-3082 -26 c26 -51 28 -79 3 -33 -14 25 -25 48 -26 53 0 15 10 6
23 -20z m3414 1 c-3 -3 -12 -4 -19 -1 -8 3 -5 6 6 6 11 1 17 -2 13 -5z m-3348
-135 c6 -27 11 -94 11 -147 0 -81 -5 -115 -31 -197 -17 -55 -46 -124 -65 -152
-36 -55 -47 -65 -38 -35 4 11 -1 9 -16 -8 -15 -18 -19 -20 -11 -5 5 11 17 29
25 40 l16 20 -6 -20 c-5 -17 -3 -16 15 5 23 27 51 86 50 104 0 6 -9 -8 -19
-30 -10 -23 -23 -45 -29 -48 -16 -10 -14 9 3 23 7 6 23 44 35 84 12 39 26 82
32 95 12 30 12 195 -1 262 -16 87 11 96 29 9z m-1841 -81 c50 -153 64 -435 27
-538 -22 -64 -39 -89 -30 -45 5 23 0 19 -20 -20 -15 -27 -32 -56 -37 -63 -6
-7 -8 -15 -5 -19 3 -3 16 11 28 31 12 20 24 35 26 32 8 -8 -61 -97 -119 -152
-59 -57 -96 -84 -115 -84 -23 0 -14 25 15 42 42 26 135 118 170 169 17 26 43
80 57 120 24 67 26 64 10 -11 -4 -18 0 -15 11 10 12 25 18 67 19 145 l2 110
-7 -85 c-7 -74 -7 -68 -5 50 1 79 -1 116 -5 90 -6 -37 -7 -40 -8 -13 -3 47
-39 218 -51 241 -6 12 -11 27 -10 34 0 7 7 0 15 -17 l15 -30 -5 33 c-8 49 -1
39 22 -30z m1786 -161 c-8 -68 -8 -70 -15 -32 -5 35 -6 36 -8 10 0 -17 -7 -37
-13 -44 -10 -11 -10 -14 0 -18 18 -7 15 -23 -19 -104 -28 -67 -89 -165 -89
-144 0 4 10 22 23 39 32 43 97 196 84 196 -3 0 -20 -36 -38 -80 -30 -73 -59
-119 -59 -92 0 5 7 15 15 22 8 7 15 18 15 24 0 7 9 30 19 52 11 22 23 54 27
70 4 16 10 34 14 39 5 6 11 37 15 70 4 33 9 69 12 79 5 18 6 18 15 2 6 -11 7
-46 2 -89z m-1864 43 c4 63 30 -72 30 -157 0 -74 -5 -106 -26 -165 -57 -158
-201 -355 -236 -320 -7 7 0 19 24 41 42 37 120 150 154 226 15 31 28 54 31 52
2 -3 -8 -28 -22 -57 -14 -29 -24 -55 -21 -58 7 -6 66 121 66 140 0 9 -3 8 -11
-2 -8 -11 -8 -9 -2 10 10 31 11 221 1 275 -5 27 -5 32 1 15 l9 -25 2 25z
m3789 -81 c1 13 4 21 8 17 4 -4 10 -60 13 -126 3 -65 2 -116 -2 -112 -4 4 -9
52 -11 107 -1 55 -3 8 -3 -105 0 -153 2 -182 7 -115 6 78 6 73 3 -35 -5 -190
-52 -575 -119 -980 -46 -283 -46 -280 -56 -255 -4 11 -7 34 -7 50 1 29 1 29 7
-5 7 -33 7 -32 15 23 4 32 5 61 2 65 -3 3 -6 -7 -6 -23 0 -16 -3 -26 -6 -23
-3 3 9 95 27 204 38 238 33 206 63 434 47 352 51 405 51 653 0 136 3 238 7
225 l6 -23 1 24z m-2077 -276 c-24 -33 -72 -80 -72 -70 0 8 80 97 87 97 2 0
-5 -12 -15 -27z m38 -62 c-67 -81 -202 -191 -234 -191 -6 0 16 18 49 39 33 22
79 58 103 81 40 38 54 59 32 45 -5 -3 -10 -3 -10 2 0 11 56 73 66 73 4 0 -5
-13 -21 -30 -16 -16 -26 -32 -23 -35 3 -4 21 12 39 34 19 22 36 38 38 36 2 -2
-15 -27 -39 -54z m-56 7 c-28 -33 -45 -50 -84 -83 l-35 -30 35 39 c59 66 134
132 84 74z m-124 -88 c-35 -33 -79 -67 -97 -75 -39 -19 -42 -27 -8 -21 14 3
23 1 20 -4 -3 -4 1 -11 7 -13 9 -4 10 -6 1 -6 -6 -1 -15 3 -18 9 -3 5 -27 -6
-54 -25 -53 -38 -71 -43 -71 -20 0 8 5 15 11 15 5 0 7 -4 4 -10 -3 -5 8 -2 24
8 34 19 43 39 11 22 -45 -24 -15 0 58 48 43 28 98 69 123 91 24 22 46 40 49
40 3 0 -24 -27 -60 -59z m80 13 c0 -5 -13 -17 -28 -27 l-27 -19 24 26 c26 28
31 32 31 20z m-64 -52 c-7 -11 -76 -52 -76 -46 0 4 70 53 78 54 2 1 1 -3 -2
-8z m-281 -213 c81 -13 109 -33 154 -113 49 -86 51 -175 5 -175 -10 0 -14 14
-14 50 0 56 -32 130 -72 167 -14 13 -48 27 -79 33 -99 19 -367 29 -511 18 -76
-5 -148 -8 -160 -6 -13 2 36 8 107 12 72 4 135 9 140 11 28 10 -153 1 -325
-15 -192 -19 -193 -19 -70 -15 109 3 116 2 50 -5 -141 -16 -445 -30 -625 -28
-156 1 -140 2 124 9 167 5 311 10 320 12 9 3 -128 3 -304 2 l-320 -3 280 8
c154 5 393 18 530 29 138 11 273 23 300 25 82 6 395 -4 470 -16z m-1586 -72
c-2 -2 -29 -6 -59 -9 -34 -3 -47 -2 -35 3 19 8 103 14 94 6z m4231 -160 c0 -2
-7 -6 -15 -10 -8 -3 -15 -1 -15 4 0 6 7 10 15 10 8 0 15 -2 15 -4z m30 -38 c5
-13 18 -34 27 -48 10 -13 12 -21 6 -16 -28 16 -10 -7 47 -64 32 -33 65 -60 72
-60 7 0 -6 16 -28 35 -23 19 -49 47 -59 62 -12 18 5 7 43 -29 179 -165 436
-263 727 -277 l150 -8 -125 -3 -125 -4 125 -6 125 -6 -108 -2 c-156 -3 -263
15 -432 74 -93 33 -187 78 -260 127 -78 53 -202 172 -209 203 -4 13 -12 24
-19 24 -8 0 -7 4 3 10 22 14 30 12 40 -12z m-2544 -33 c-3 -8 -1 -15 3 -15 5
0 12 6 14 13 4 8 6 7 6 -3 1 -18 -18 -40 -33 -40 -6 0 -4 5 4 11 26 17 -50 1
-390 -83 -287 -71 -646 -171 -659 -184 -11 -11 34 0 232 55 263 73 777 203
789 199 5 -2 -123 -36 -284 -76 -161 -41 -429 -112 -594 -158 -166 -46 -310
-84 -320 -83 -11 0 10 8 46 16 58 14 62 17 45 29 -10 8 -28 14 -39 14 -20 0
-20 0 0 -16 10 -8 14 -13 9 -11 -10 5 -188 -40 -312 -79 -29 -8 -60 -14 -70
-11 -11 3 -8 5 10 6 19 1 26 5 21 13 -4 7 -3 8 4 4 14 -8 64 3 57 14 -2 4 7 5
22 2 16 -3 24 -1 20 5 -4 6 4 9 21 6 21 -2 23 -1 8 5 -13 6 24 20 135 50 85
23 170 44 189 47 23 3 18 0 -14 -8 -49 -13 -49 -13 -22 -25 31 -14 58 -16 37
-3 -14 9 40 29 234 86 135 41 755 195 782 195 12 0 28 9 35 20 15 24 23 26 14
5z m-10 -73 c-10 -16 -45 -22 -39 -6 3 8 9 12 13 9 5 -3 12 0 15 6 4 5 9 8 12
5 3 -2 2 -9 -1 -14z m134 -103 c41 -11 91 -30 110 -42 47 -29 109 -85 121
-111 6 -12 -6 -2 -28 21 -21 23 -60 56 -87 73 -51 31 -87 41 -52 15 25 -19 9
-19 -24 0 -22 13 -23 14 -5 15 l20 1 -20 9 c-11 5 -29 9 -40 9 l-20 0 20 -9
c28 -12 7 -12 -37 1 -22 5 -38 16 -38 24 0 18 -9 19 80 -6z m205 -155 c16 -21
41 -60 57 -88 15 -28 28 -44 28 -36 0 8 -11 34 -25 58 -30 52 -24 56 9 4 30
-48 56 -162 56 -247 0 -214 -110 -431 -277 -546 -45 -31 -53 -34 -53 -19 0 6
6 10 14 10 8 0 18 5 22 11 4 8 -1 9 -17 4 l-24 -7 25 17 c14 10 58 50 98 89
54 52 82 90 106 141 39 80 65 156 67 188 1 17 3 16 9 -8 11 -44 1 159 -11 230
-15 87 -62 166 -138 237 -59 55 -61 58 -20 30 25 -17 58 -47 74 -68z m-1642
-618 c3 4 -2 19 -12 33 -25 36 -33 51 -28 51 15 0 98 -150 96 -174 0 -6 -7 3
-14 19 -19 40 -19 18 0 -35 8 -23 15 -50 15 -59 -1 -9 -12 18 -26 59 -13 41
-33 83 -42 95 -27 30 -52 73 -52 87 0 7 13 -8 28 -35 16 -26 31 -44 35 -41z
m3510 -81 c88 -67 263 -293 344 -445 38 -72 99 -238 90 -247 -3 -2 -8 8 -11
24 -5 19 -10 23 -15 14 -6 -9 -14 4 -26 40 -10 30 -26 71 -36 91 -11 21 -19
41 -19 45 1 13 43 -69 62 -122 15 -40 17 -43 13 -16 -6 39 -93 227 -101 218
-3 -3 2 -19 11 -36 27 -53 8 -34 -31 32 -82 135 -228 316 -309 380 -27 22 -42
38 -32 34 9 -3 17 -2 17 3 0 5 -8 11 -17 13 -15 4 -15 5 -2 6 9 0 37 -15 62
-34z m-1716 -249 c102 -46 198 -162 230 -276 16 -60 16 -193 -1 -255 -20 -76
-66 -182 -83 -197 -15 -12 -15 -10 -4 10 7 13 10 26 7 29 -2 3 -16 -17 -30
-44 -22 -44 -32 -53 -87 -77 -34 -15 -59 -29 -56 -32 3 -3 14 -1 25 5 12 6 27
11 34 11 14 -1 -48 -30 -63 -30 -5 0 -9 6 -9 13 0 7 27 25 59 41 47 22 66 38
90 78 17 27 31 53 31 58 0 5 5 12 11 16 8 4 9 -1 5 -17 -3 -13 7 3 24 36 16
33 29 69 29 80 0 11 -9 -4 -20 -33 -31 -79 -32 -58 -3 28 23 65 26 87 22 170
-3 84 -8 105 -36 163 -61 124 -178 213 -297 227 l-60 7 55 3 55 3 -55 7 -55 7
60 -1 c42 -2 79 -11 122 -30z m2130 -448 c-3 -8 -6 -5 -6 6 -1 11 2 17 5 13 3
-3 4 -12 1 -19z m-4022 3 c-12 -11 -247 -141 -380 -211 -55 -29 -118 -62 -140
-75 -105 -59 -238 -126 -225 -112 8 8 51 34 95 57 232 123 384 205 505 274
123 69 170 91 145 67z m339 -32 c47 -17 90 -37 97 -45 6 -8 -17 -1 -52 16 -35
16 -71 30 -79 30 -8 -1 14 -13 49 -27 43 -18 85 -46 127 -86 75 -69 85 -65 17
7 -27 28 -39 43 -28 36 23 -17 70 -66 102 -107 25 -31 123 -222 123 -238 0 -5
-5 -3 -10 5 -15 24 -12 -4 5 -41 l16 -34 -6 30 c-10 55 14 2 30 -66 16 -69 19
-110 4 -69 -7 20 -8 17 -4 -15 3 -22 6 -80 7 -130 l2 -90 7 100 6 100 -2 -120
c-2 -83 -8 -131 -18 -155 -12 -26 -17 -30 -18 -15 -1 17 -2 16 -9 -5 -15 -45
-10 1 6 63 12 46 14 96 11 214 -2 84 -7 157 -12 161 -4 4 -5 -13 -2 -38 5 -43
5 -43 -5 -10 -5 19 -24 69 -41 110 -77 187 -172 315 -268 362 -61 29 -142 58
-164 58 -8 0 -15 7 -15 15 0 22 29 18 124 -16z m4675 -126 c-17 -22 -43 -43
-47 -38 -5 4 41 53 52 54 5 1 2 -7 -5 -16z m-2217 -194 c164 -34 318 -114 439
-227 105 -99 237 -268 221 -284 -15 -15 -27 -4 -69 59 -46 70 -176 208 -245
260 -71 54 -177 109 -268 141 -66 23 -91 26 -210 26 -112 0 -125 2 -80 9 30 5
96 7 145 4 51 -3 77 -1 60 3 -48 12 -172 11 -244 -2 -40 -8 -57 -14 -42 -16
17 -3 0 -12 -60 -33 -92 -32 -121 -33 -37 0 29 11 48 20 41 20 -20 1 -122 -39
-129 -51 -5 -7 -1 -9 9 -5 10 3 17 2 17 -3 0 -6 -5 -10 -11 -10 -22 0 -146
-90 -192 -139 -26 -28 -49 -51 -51 -51 -2 0 -1 11 2 25 2 14 7 23 10 21 4 -5
54 33 127 96 5 5 5 8 -2 8 -6 0 -37 -21 -70 -47 -32 -26 -51 -39 -43 -29 19
25 115 97 170 129 154 90 358 128 512 96z m-1487 -416 c-11 -3 -24 -9 -29 -14
-14 -13 -26 -11 -20 4 2 7 19 13 37 14 18 1 23 -1 12 -4z m-2178 -115 c-3 -8
-6 -5 -6 6 -1 11 2 17 5 13 3 -3 4 -12 1 -19z"/>
<path d="M6438 6363 c7 -3 16 -2 19 1 4 3 -2 6 -13 5 -11 0 -14 -3 -6 -6z"/>
<path d="M6040 6295 c-60 -8 -79 -13 -50 -13 25 0 83 5 130 12 107 17 47 17
-80 1z"/>
<path d="M5446 4888 c59 -97 144 -202 144 -177 -1 8 -18 32 -39 53 -21 21 -52
61 -67 87 -16 27 -33 49 -37 49 -5 0 -5 -6 -1 -12z"/>
<path d="M5600 4700 c0 -35 284 -218 340 -219 8 0 -5 9 -30 21 -88 40 -232
134 -287 187 -13 12 -23 17 -23 11z"/>
<path d="M6585 4473 c-99 -21 -150 -26 -295 -27 -96 0 -200 2 -230 6 -44 6
-49 5 -25 -3 57 -20 321 -23 441 -5 86 13 118 14 143 5 27 -9 44 -8 93 7 54
16 58 19 42 31 -22 16 -23 16 -169 -14z m142 11 c-3 -3 -12 -4 -19 -1 -8 3 -5
6 6 6 11 1 17 -2 13 -5z m-33 -13 c3 -4 -7 -6 -22 -4 -24 3 -25 2 -7 -7 18 -9
17 -10 -5 -5 -14 2 -34 5 -45 6 -14 1 -10 4 10 9 43 11 63 11 69 1z"/>
<path d="M6475 4405 l-60 -14 53 6 c29 3 65 9 80 13 44 13 -5 10 -73 -5z"/>
<path d="M3250 4794 c0 -13 89 -109 95 -102 3 3 -17 29 -45 59 -27 30 -50 49
-50 43z"/>
<path d="M3363 4646 c12 -18 23 -30 25 -25 4 10 -28 59 -39 59 -4 0 2 -15 14
-34z"/>
<path d="M5540 4620 c34 -11 60 -11 35 0 -11 5 -29 8 -40 8 -16 0 -15 -2 5 -8z"/>
<path d="M6395 4560 l-30 -8 30 0 c17 0 44 4 60 8 l30 8 -30 0 c-16 0 -43 -4
-60 -8z"/>
<path d="M3455 4450 c4 -14 9 -79 12 -146 5 -107 3 -128 -17 -192 -13 -40 -21
-75 -18 -77 3 -3 15 30 28 74 19 69 22 96 18 198 -3 65 -11 129 -17 143 l-12
25 6 -25z"/>
<path d="M1625 4320 c3 -14 11 -54 16 -90 6 -36 13 -67 16 -70 11 -11 -10 125
-24 154 -11 25 -13 26 -8 6z"/>
<path d="M1529 3614 c-19 -19 -58 -54 -87 -76 -29 -22 -50 -43 -48 -46 7 -6
101 67 145 112 19 20 32 38 30 41 -3 2 -21 -11 -40 -31z"/>
<path d="M3413 4220 c0 -25 2 -35 4 -22 2 12 2 32 0 45 -2 12 -4 2 -4 -23z"/>
<path d="M1565 4065 c0 -74 3 -126 7 -117 4 9 7 62 7 117 0 55 -3 108 -7 117
-4 10 -7 -43 -7 -117z"/>
<path d="M1456 3736 c-14 -24 -49 -69 -77 -100 -28 -31 -46 -56 -41 -56 25 0
163 182 149 196 -2 3 -16 -15 -31 -40z"/>
<path d="M5341 3680 c-2 -57 -23 -249 -50 -450 -23 -170 -21 -159 -56 -378
-14 -85 -25 -161 -24 -170 2 -31 58 310 88 538 40 302 54 439 48 475 -3 23 -4
20 -6 -15z"/>
<path d="M2441 3477 c3 -4 86 -11 185 -17 215 -12 291 -24 322 -53 41 -37 72
-111 72 -168 0 -46 2 -50 16 -38 22 18 11 79 -26 144 -45 78 -75 101 -150 114
-74 12 -428 27 -419 18z"/>
<path d="M5525 3181 c16 -32 35 -49 35 -32 0 6 -4 11 -10 11 -5 0 -12 11 -16
25 -3 14 -10 25 -15 25 -5 0 -3 -13 6 -29z"/>
<path d="M5725 2984 c86 -71 365 -177 500 -189 58 -5 58 -4 -16 10 -159 30
-380 116 -464 181 -42 32 -58 30 -20 -2z"/>
<path d="M1856 2855 c10 -8 28 -14 39 -14 18 0 17 1 -5 14 -34 20 -60 20 -34
0z"/>
<path d="M1695 2825 c-44 -13 -74 -24 -68 -24 14 -1 165 39 172 45 10 9 -28 1
-104 -21z"/>
<path d="M3058 2988 c6 -6 18 -8 28 -6 14 3 12 5 -9 10 -19 3 -25 2 -19 -4z"/>
<path d="M3416 2670 c4 -19 10 -80 14 -135 l7 -100 0 85 c1 47 -5 108 -13 135
-7 28 -11 34 -8 15z"/>
<path d="M3406 2349 c-15 -79 -83 -194 -165 -278 -44 -45 -74 -81 -69 -81 26
0 155 151 190 222 41 81 62 142 55 161 -2 6 -7 -4 -11 -24z"/>
<path d="M1692 2190 c7 -10 14 -18 15 -16 6 6 -9 36 -18 36 -5 0 -4 -9 3 -20z"/>
<path d="M5240 2053 c82 -83 167 -191 219 -276 13 -21 26 -36 28 -33 22 21
-283 396 -321 396 -6 0 27 -39 74 -87z"/>
<path d="M3449 1877 c78 -31 172 -125 213 -213 32 -66 33 -74 33 -192 0 -68 3
-113 7 -100 12 43 8 193 -6 239 -35 114 -113 211 -208 258 -34 17 -68 31 -77
30 -9 0 8 -10 38 -22z"/>
<path d="M1825 1420 c11 -5 29 -8 40 -8 16 0 15 2 -5 8 -34 11 -60 11 -35 0z"/>
<path d="M2130 1239 c0 -4 19 -38 42 -75 23 -38 50 -88 60 -112 11 -24 22 -41
26 -38 7 8 -73 165 -104 203 -13 15 -23 25 -24 22z"/>
<path d="M2306 556 c-4 -21 -5 -40 -2 -43 7 -8 18 42 14 64 -3 11 -7 3 -12
-21z"/>
<path d="M4466 1046 c200 -65 398 -221 518 -409 20 -31 41 -57 45 -57 5 0 -13
34 -41 76 -72 110 -226 259 -322 313 -79 45 -222 101 -254 101 -9 -1 15 -11
54 -24z"/>
<path d="M4048 1053 c7 -3 16 -2 19 1 4 3 -2 6 -13 5 -11 0 -14 -3 -6 -6z"/>
<path d="M3845 965 c-39 -32 -24 -32 23 0 20 14 30 25 22 25 -8 0 -28 -11 -45
-25z"/>
<path d="M6800 7094 c0 -61 -2 -133 -5 -160 -5 -49 -5 -49 9 11 8 33 12 79 9
101 -3 23 -1 49 4 58 7 14 21 -11 60 -111 28 -70 61 -159 73 -196 12 -38 24
-66 27 -63 7 7 -31 121 -94 276 -88 218 -83 213 -83 84z"/>
<path d="M6690 6540 c-6 -12 -9 -24 -7 -27 3 -2 11 5 17 17 6 12 9 24 7 27 -3
2 -11 -5 -17 -17z"/>
<path d="M6362 6424 c-46 -24 -78 -44 -72 -44 13 0 151 68 165 81 18 18 -10 7
-93 -37z"/>
<path d="M215 4890 c-121 -21 -207 -38 -191 -39 32 -1 308 41 406 63 124 27 4
14 -215 -24z"/>
<path d="M5099 4910 c-27 -16 -162 -50 -255 -64 -58 -9 -75 -14 -49 -15 22 0
80 8 130 19 49 11 96 18 105 15 9 -3 34 1 56 9 25 9 32 15 19 16 -16 1 -14 4
10 15 17 7 23 14 15 14 -8 0 -22 -4 -31 -9z m-12 -26 c-3 -3 -12 -4 -19 -1 -8
3 -5 6 6 6 11 1 17 -2 13 -5z"/>
<path d="M408 4899 c-56 -13 -352 -59 -382 -59 -21 0 -26 -5 -26 -26 0 -23 3
-25 25 -20 64 15 75 14 25 -3 -93 -32 -45 -23 185 33 121 30 229 56 240 59 15
3 12 5 -10 7 l-30 2 30 8 c27 7 27 8 5 8 -14 0 -42 -4 -62 -9z m-113 -49 c-82
-22 -159 -39 -170 -39 -25 1 273 77 300 77 11 0 -47 -17 -130 -38z"/>
<path d="M1160 3427 c-104 -51 -135 -62 -480 -171 -247 -78 -333 -101 -494
-136 -194 -42 -189 -40 -184 -46 9 -8 297 56 451 101 301 88 364 107 496 151
124 42 366 153 331 153 -8 0 -62 -24 -120 -52z"/>
<path d="M1645 2875 c-132 -37 -518 -180 -700 -260 -75 -33 -203 -85 -208 -85
-3 0 -34 -13 -69 -29 -35 -16 -85 -39 -113 -51 -62 -28 -355 -168 -375 -179
-8 -5 -52 -29 -97 -52 -46 -24 -83 -49 -83 -55 0 -7 48 13 108 43 59 30 157
77 217 105 61 28 148 68 195 91 47 22 105 48 130 57 58 23 265 107 305 124 85
36 138 58 215 86 47 17 103 39 125 49 22 10 85 35 140 55 113 42 171 65 200
77 11 4 56 19 100 33 118 37 49 30 -90 -9z"/>
<path d="M1762 1893 c-2 -97 -17 -174 -43 -225 -11 -21 -15 -38 -10 -38 10 0
32 52 50 120 7 25 11 84 9 135 l-4 90 -2 -82z"/>
<path d="M984 1226 c-27 -24 -47 -46 -44 -49 3 -3 27 15 53 40 63 59 55 67 -9
9z"/>
<path d="M6410 1224 c-118 -82 -295 -172 -475 -243 -72 -29 -148 -62 -169 -74
-80 -45 -43 -66 42 -23 26 13 70 31 97 40 162 53 607 308 589 337 -8 14 -14
11 -84 -37z"/>
<path d="M900 1039 c-30 -17 -84 -47 -120 -67 -80 -43 -133 -80 -185 -127 -73
-65 -289 -231 -360 -276 -38 -24 -107 -62 -152 -84 l-83 -40 0 -222 0 -223
173 0 c168 0 172 1 182 23 39 82 143 269 192 344 32 48 61 96 65 107 5 10 17
30 27 45 18 25 27 41 98 171 92 168 178 313 208 349 33 39 25 39 -45 0z"/>
<path d="M5640 811 c-85 -27 -305 -148 -376 -208 -60 -51 -88 -99 -147 -258
-25 -66 -52 -133 -61 -150 -9 -16 -16 -33 -16 -37 0 -6 -55 -131 -67 -150 -2
-5 15 -8 39 -8 39 0 44 3 57 33 7 17 21 50 31 72 33 73 110 273 110 284 0 6
18 48 39 94 40 84 63 112 116 141 40 22 54 30 170 109 56 37 106 67 112 67 7
0 15 5 18 10 3 6 5 10 3 9 -2 0 -14 -4 -28 -8z"/>
<path d="M2685 585 c-44 -25 -87 -42 -96 -40 -8 3 -50 -14 -93 -37 -63 -34
-74 -44 -59 -50 13 -6 60 13 171 71 143 73 190 102 167 100 -6 0 -46 -20 -90
-44z m-95 -49 c0 -2 -7 -7 -16 -10 -8 -3 -12 -2 -9 4 6 10 25 14 25 6z m-40
-20 c0 -2 -7 -7 -16 -10 -8 -3 -12 -2 -9 4 6 10 25 14 25 6z m-56 -31 c-10 -8
-23 -15 -28 -15 -6 0 -1 7 10 15 10 8 23 15 28 15 6 0 1 -7 -10 -15z"/>
<path d="M440 114 c-17 -31 -29 -58 -26 -61 5 -5 66 96 66 110 0 16 -10 4 -40
-49z"/>
</g>
</svg>
