<?xml version="1.0" standalone="no"?>
<!DOCTYPE svg PUBLIC "-//W3C//DTD SVG 20010904//EN"
 "http://www.w3.org/TR/2001/REC-SVG-20010904/DTD/svg10.dtd">
<svg version="1.0" xmlns="http://www.w3.org/2000/svg"
 width="1280.000000pt" height="720.000000pt" viewBox="0 0 1280.000000 720.000000"
 preserveAspectRatio="xMidYMid meet">
<metadata>
Created by potrace 1.16, written by Peter Selinger 2001-2019
</metadata>
<g transform="translate(0.000000,720.000000) scale(0.100000,-0.100000)"
fill="#000000" stroke="none">
<path d="M0 6601 l0 -598 52 -16 c72 -21 117 -30 453 -82 160 -24 317 -50 350
-55 170 -31 453 -86 640 -125 582 -122 1122 -221 1330 -245 44 -6 170 -32 280
-59 378 -93 514 -117 1040 -186 327 -42 460 -66 425 -76 -25 -7 -24 -7 4 -8
16 -1 27 -4 24 -7 -4 -3 -28 -2 -55 2 -46 8 -47 8 -18 16 20 5 14 6 -22 2 -28
-2 -71 0 -95 5 -23 5 -70 12 -103 17 -54 7 -57 8 -30 15 21 6 12 7 -30 4 -44
-2 -53 -1 -35 6 19 6 12 8 -28 5 -30 -2 -49 0 -42 4 6 4 -17 10 -52 13 -35 4
-115 14 -179 23 -90 13 -123 14 -145 5 -26 -10 -24 -11 24 -7 32 2 48 0 40 -5
-8 -6 3 -9 32 -10 25 -1 35 -4 23 -6 -24 -5 -196 17 -338 44 l-90 16 40 12 40
12 -45 7 c-27 4 -56 3 -73 -3 -18 -7 -26 -7 -22 -1 3 6 14 10 23 11 9 1 -8 7
-38 15 -30 8 -73 12 -95 9 -27 -3 -32 -2 -16 3 20 6 11 11 -50 25 -96 22 -123
20 -39 -3 36 -10 58 -18 50 -19 -21 -1 -281 67 -289 75 -3 4 2 4 12 1 10 -4
37 -9 60 -12 27 -3 15 3 -33 15 -41 11 -111 24 -155 29 -214 26 -751 125
-1330 246 -187 39 -471 94 -640 125 -181 32 -579 90 -593 87 -12 -3 -11 -5 5
-6 48 -2 315 -56 610 -121 172 -39 375 -83 450 -100 76 -16 181 -39 233 -50
646 -141 884 -182 1215 -210 66 -6 134 -15 150 -20 30 -10 30 -10 -5 -5 -19 3
-87 10 -150 15 -326 28 -567 69 -1210 210 -52 11 -158 34 -235 51 -77 16 -268
59 -425 94 -316 70 -424 92 -645 130 -82 14 -174 32 -203 39 l-52 14 0 -1355
c0 -1213 2 -1355 15 -1349 9 3 41 12 73 21 128 34 421 145 602 228 84 38 133
58 136 54 2 -2 -46 -25 -108 -52 -61 -27 -106 -51 -101 -52 13 -5 195 76 269
118 l51 29 399 0 c412 0 637 9 879 35 170 19 457 61 505 75 19 5 95 10 169 10
118 0 140 -3 190 -24 31 -13 76 -31 101 -41 25 -9 58 -32 74 -51 27 -33 28
-37 27 -140 -3 -163 -37 -239 -131 -288 -58 -30 -91 -38 -275 -61 -71 -9 -238
-34 -370 -56 -329 -54 -477 -76 -630 -94 -183 -22 -241 -33 -278 -55 -17 -10
-79 -32 -137 -49 -282 -81 -552 -184 -800 -303 -69 -33 -159 -76 -200 -95 -41
-20 -144 -68 -228 -109 -84 -40 -170 -81 -192 -90 -33 -15 -40 -23 -40 -46 0
-15 2 -28 4 -28 2 0 57 26 123 59 65 32 145 71 178 86 33 15 121 57 195 93
389 187 440 210 565 258 50 19 104 41 120 49 17 7 93 37 170 65 166 61 233 87
260 105 11 6 63 15 115 19 97 7 483 53 510 61 39 11 764 125 774 122 6 -2 44
11 84 30 40 18 79 33 86 33 18 0 49 36 86 99 45 77 60 193 37 287 -10 37 -14
70 -11 73 13 13 100 -46 119 -81 23 -44 35 -48 35 -12 0 36 -53 86 -115 109
-61 22 -75 33 -75 53 0 13 3 12 15 -4 7 -12 41 -31 74 -43 72 -26 111 -67 111
-117 0 -47 -29 -46 -55 3 -23 42 -115 104 -101 67 49 -126 18 -309 -69 -413
-15 -17 -35 -31 -45 -31 -10 0 -51 -15 -91 -34 -40 -19 -77 -32 -84 -30 -10 4
-732 -109 -775 -121 -26 -8 -412 -54 -505 -60 -51 -4 -100 -13 -113 -22 -13
-8 -89 -38 -170 -68 -279 -101 -536 -209 -747 -313 -71 -35 -197 -96 -280
-134 -82 -38 -212 -100 -287 -136 l-137 -67 -1 -1092 0 -1093 89 0 88 0 264
133 c438 222 759 400 767 427 4 12 2 13 -9 4 -24 -19 -151 -85 -145 -75 3 5
32 24 64 41 172 98 371 248 478 363 62 65 139 188 170 267 9 25 20 50 24 55
11 15 57 160 74 230 11 46 15 53 16 30 l2 -30 8 30 c4 17 8 41 8 55 l0 25 -8
-25 -8 -25 -1 28 c-1 18 4 27 14 27 9 0 15 -9 15 -22 0 -43 -58 -286 -81 -337
-12 -28 -20 -54 -17 -56 8 -9 60 73 54 84 -3 5 7 38 23 73 16 34 39 85 51 112
48 106 70 228 70 381 0 158 -16 266 -56 371 -14 37 -23 68 -21 71 3 2 13 -19
23 -47 10 -28 20 -47 22 -41 4 12 -46 142 -61 156 -7 7 -8 4 -3 -10 19 -50 14
-44 -37 51 -99 182 -158 258 -248 315 -49 32 -66 49 -30 29 29 -15 39 -12 17
5 -30 22 -6 18 34 -6 148 -91 330 -417 376 -674 20 -115 17 -351 -6 -440 -11
-43 -19 -60 -20 -45 l-2 25 -8 -25 c-4 -14 -8 -32 -9 -40 -1 -13 0 -13 9 0 16
25 11 5 -20 -79 -34 -94 -100 -222 -139 -271 -54 -68 -132 -203 -114 -195 10
4 54 17 98 30 44 12 186 59 315 105 129 45 346 119 481 165 250 85 300 108
644 293 77 41 154 85 170 97 29 21 65 38 65 31 0 -5 -115 -78 -167 -106 -23
-13 -40 -27 -37 -32 3 -4 10 -6 15 -3 5 4 9 4 9 0 0 -3 -38 -30 -84 -60 -80
-52 -256 -130 -278 -123 -6 2 14 11 44 21 35 11 55 22 55 32 0 10 -6 14 -14
10 -8 -3 -17 -5 -19 -5 -3 0 -2 -5 2 -12 4 -7 3 -8 -4 -4 -6 4 -43 -10 -83
-29 -39 -20 -182 -74 -318 -120 -135 -46 -356 -121 -491 -168 -135 -48 -266
-92 -292 -98 -26 -7 -44 -17 -41 -22 4 -6 1 -7 -6 -3 -20 13 -61 -2 -55 -19 6
-15 -5 -20 -35 -16 -8 2 -10 -2 -5 -10 5 -9 2 -10 -9 -6 -10 3 -17 2 -17 -3 0
-14 12 -12 54 5 20 9 35 19 32 23 -2 4 12 9 32 10 20 1 114 29 207 62 94 34
260 85 370 114 256 68 532 156 648 207 146 64 236 112 230 122 -3 6 -2 7 4 4
15 -9 68 9 65 22 -1 7 3 9 9 6 8 -5 7 -11 -3 -19 -11 -11 -150 -78 -298 -145
-98 -44 -477 -163 -685 -215 -77 -19 -216 -63 -310 -96 -93 -34 -186 -65 -205
-69 -73 -17 -146 -60 -178 -105 -32 -44 -171 -154 -372 -296 -58 -40 -122 -86
-142 -102 -20 -15 -45 -28 -55 -28 -10 -1 -36 -14 -58 -30 -22 -17 -48 -33
-57 -36 -18 -6 -25 -24 -9 -24 4 0 25 14 46 30 26 21 42 27 49 20 17 -17 30
-11 15 7 -13 15 -12 15 7 3 19 -12 31 -7 120 45 118 69 187 115 181 121 -2 3
-46 -22 -98 -54 -121 -75 -189 -114 -189 -108 0 2 35 26 78 52 210 129 380
248 456 318 20 19 32 24 39 17 15 -15 -19 -49 -148 -145 -136 -102 -281 -195
-400 -257 -65 -35 -95 -57 -109 -81 -25 -42 -122 -195 -147 -230 -10 -15 -19
-30 -19 -33 0 -3 549 -5 1219 -5 l1219 0 32 28 c152 128 247 232 233 255 -3 6
-1 7 5 3 7 -4 12 -3 12 3 0 5 -3 11 -7 14 -5 2 -3 3 3 1 11 -2 72 110 103 191
63 167 68 359 12 523 -45 133 -111 220 -171 225 -11 1 -20 5 -20 9 0 4 -7 4
-17 1 -10 -4 -14 -2 -10 4 4 6 0 14 -9 17 -28 11 -27 0 2 -23 17 -14 21 -21
12 -21 -9 0 -27 15 -42 34 -21 28 -38 37 -88 49 -35 9 -54 16 -42 16 11 1 42
-5 67 -13 38 -11 48 -12 57 -1 9 11 1 15 -37 21 -26 5 -52 7 -56 6 -5 -1 -6 2
-3 7 3 5 -1 12 -10 15 -22 9 -24 8 -18 -9 4 -8 2 -15 -4 -15 -6 0 -19 -3 -29
-6 -11 -3 -8 1 7 11 l25 16 -30 -6 c-16 -4 -32 -10 -35 -14 -3 -4 -16 -5 -30
-1 -21 5 -19 7 20 14 34 5 41 9 30 17 -11 7 -6 8 15 3 23 -4 26 -3 15 5 -25
18 -2 12 40 -9 22 -11 47 -20 57 -20 10 -1 36 -7 58 -15 21 -8 41 -12 44 -9
11 11 -23 29 -67 35 l-47 8 45 -3 c25 -1 51 -4 59 -7 10 -3 18 10 27 41 16 58
18 37 2 -30 -7 -32 -19 -55 -31 -62 -15 -7 -18 -7 -12 2 5 8 1 11 -10 8 -29
-5 -28 -25 0 -30 14 -3 25 -1 26 6 0 6 4 1 9 -11 5 -12 21 -24 38 -27 27 -7
107 -79 131 -121 11 -18 11 -18 5 5 -3 14 -34 53 -67 87 -59 60 -87 77 -87 51
0 -6 -3 -9 -6 -6 -3 3 -2 23 2 44 6 31 8 35 14 19 4 -11 2 -23 -4 -27 -7 -5
-4 -8 7 -8 10 0 33 -15 51 -32 19 -18 66 -64 106 -103 114 -111 179 -238 195
-382 13 -109 -27 -239 -114 -368 -32 -48 -48 -81 -44 -94 3 -11 31 -32 71 -52
82 -39 175 -131 217 -212 l30 -57 943 0 943 0 -5 43 c-3 23 -10 85 -16 137 -9
86 -23 172 -36 225 -4 16 -3 17 5 5 6 -8 11 -26 12 -40 1 -23 2 -22 8 5 6 26
8 22 18 -35 7 -36 17 -108 23 -160 6 -52 13 -114 16 -137 l5 -43 60 0 c32 0
59 4 59 9 0 30 -96 479 -116 541 -22 68 -24 90 -22 240 l2 165 7 -170 6 -170
-1 220 c-1 121 1 198 4 170 l4 -50 6 65 c3 36 5 -43 5 -175 0 -239 0 -240 31
-345 17 -58 48 -194 70 -302 l38 -198 647 0 648 0 7 56 c7 61 2 806 -6 801
-64 -35 -97 -30 -46 7 17 11 40 31 52 44 12 12 27 22 33 22 12 0 130 76 141
90 3 4 62 44 132 89 71 46 126 87 123 91 -3 5 0 12 6 16 8 4 9 3 5 -4 -4 -7
-4 -12 0 -12 11 0 105 72 100 77 -3 3 -57 -23 -121 -57 -64 -34 -114 -64 -112
-67 3 -2 23 5 46 17 65 32 48 15 -22 -23 -67 -37 -272 -114 -328 -122 -24 -4
-17 0 21 14 30 10 47 19 37 20 -10 1 -26 -3 -35 -8 -9 -5 -37 -11 -62 -15 -28
-4 -9 4 50 22 52 16 109 36 127 45 18 9 40 17 50 17 19 1 63 22 236 114 59 32
111 56 114 53 18 -19 480 326 640 477 322 305 490 677 568 1259 4 27 9 47 11
44 6 -6 -23 -200 -47 -317 -94 -442 -249 -738 -523 -997 -97 -93 -307 -258
-462 -365 -58 -40 -148 -104 -201 -141 -155 -112 -463 -317 -489 -327 -13 -5
-25 -15 -26 -22 -1 -7 -2 -212 -2 -455 l-1 -443 33 0 32 0 0 193 c0 105 -5
235 -10 287 -5 52 -12 169 -15 260 l-6 165 132 85 c72 47 190 127 262 178 73
51 218 149 322 219 320 213 432 303 562 452 141 161 275 391 341 586 61 180
123 478 139 670 4 57 13 90 29 116 64 102 164 342 164 394 0 25 6 16 14 -20 5
-22 4 -26 -4 -15 -8 13 -10 12 -10 -5 0 -11 4 -26 9 -34 15 -23 51 158 57 291
11 215 -17 500 -96 978 -47 282 -78 418 -126 546 -19 51 -34 96 -34 102 0 5
-8 16 -17 23 -15 12 -16 12 -9 -6 45 -114 79 -214 96 -280 26 -108 71 -380
110 -675 11 -85 27 -195 36 -245 35 -204 29 -357 -21 -550 -84 -326 -233 -612
-404 -780 -28 -27 -51 -54 -51 -59 0 -6 22 11 48 37 49 49 72 58 72 31 0 -20
-54 -233 -80 -313 -32 -103 -99 -232 -224 -440 -123 -204 -242 -359 -342 -448
-71 -62 -297 -252 -366 -307 -26 -21 -46 -41 -43 -44 3 -3 22 8 43 25 20 16
66 49 101 73 204 138 446 364 555 518 124 177 277 464 324 607 29 87 70 279
78 361 4 48 13 79 26 95 20 25 20 22 1 -21 -6 -14 -16 -64 -22 -111 -15 -112
-63 -304 -100 -400 -57 -147 -186 -382 -297 -541 -112 -159 -355 -385 -570
-528 -44 -29 -97 -67 -119 -85 -22 -17 -47 -35 -55 -39 -8 -4 -5 1 8 10 34 25
26 39 -8 14 -87 -62 33 46 269 243 182 151 221 189 308 295 121 147 357 543
412 692 22 61 91 317 91 340 0 8 -21 -6 -48 -33 -91 -90 -101 -46 -11 48 38
40 58 68 53 76 -4 8 -3 10 4 5 24 -15 152 187 233 369 57 129 121 349 140 484
12 89 7 264 -10 342 -5 24 -14 80 -20 124 -33 262 -84 598 -111 738 -32 164
-123 415 -140 387 -3 -5 -21 11 -38 36 -27 38 -35 63 -48 146 -8 55 -13 103
-10 105 2 3 7 -17 11 -44 16 -121 25 -154 55 -194 16 -23 30 -39 30 -34 0 4 7
2 15 -5 20 -16 19 -8 -3 32 -20 35 -44 147 -41 188 1 14 -3 43 -9 65 -19 68
-80 520 -96 715 -9 102 -21 248 -27 325 -6 77 -13 177 -15 222 -2 45 -8 91
-14 102 -5 11 -10 29 -10 40 0 16 -6 21 -25 21 l-25 0 18 -37 c16 -32 20 -71
26 -233 12 -335 38 -630 87 -966 11 -78 17 -155 14 -170 -3 -16 -10 -53 -15
-83 -5 -30 -17 -78 -25 -109 -9 -30 -14 -56 -11 -59 3 -3 12 21 21 53 22 78
23 82 24 61 1 -16 -29 -117 -48 -162 -77 -182 -166 -313 -298 -442 -87 -85
-100 -106 -33 -53 21 17 43 30 50 30 33 0 310 313 310 351 0 7 -26 -23 -58
-67 -32 -43 -96 -117 -141 -164 -46 -47 -70 -69 -54 -50 16 19 49 55 72 80 61
64 144 175 183 244 33 59 58 82 58 53 0 -20 -57 -120 -110 -193 -90 -125 -322
-333 -356 -320 -7 3 -14 1 -16 -4 -10 -29 -311 -168 -341 -157 -7 2 4 8 23 12
30 7 32 9 15 16 -27 10 -54 11 -38 1 7 -4 -4 -8 -25 -8 -20 0 -59 -11 -87 -23
-95 -44 -110 -50 -190 -74 -252 -78 -492 -51 -795 90 -90 42 -193 103 -186
110 3 3 29 -10 58 -29 65 -43 113 -68 130 -68 9 0 9 3 -2 10 -25 16 -2 11 43
-10 169 -78 311 -112 477 -113 152 -2 199 10 417 99 118 48 160 61 174 54 25
-14 49 -13 29 0 -11 8 -7 9 15 4 23 -4 26 -3 15 5 -22 16 1 13 30 -4 14 -8 19
-14 11 -15 -8 0 -12 -3 -8 -6 3 -3 16 -3 28 1 22 7 21 8 -12 26 -19 10 -27 18
-19 19 12 0 12 3 -2 11 -13 7 -26 5 -50 -8 -22 -11 -52 -16 -88 -15 -40 1 -50
-1 -35 -7 19 -9 19 -10 -2 -10 -15 -1 -23 5 -23 15 0 12 11 15 53 14 59 -3
112 17 142 52 22 25 64 52 71 45 3 -3 -12 -14 -32 -26 -35 -21 -36 -23 -18
-36 18 -13 17 -14 -6 -9 -22 5 -23 4 -7 -6 20 -13 60 -4 51 12 -4 7 -2 8 5 4
15 -10 142 55 210 107 172 133 351 438 391 668 5 30 12 67 15 83 3 15 -3 92
-14 170 -49 335 -75 634 -86 956 -5 158 -9 192 -27 233 l-21 47 -51 0 -52 0 4
-106 c3 -59 -1 -132 -8 -166 -9 -47 -9 -63 1 -72 9 -8 10 -6 6 12 -3 14 -1 20
5 16 7 -5 9 3 4 22 -5 22 -4 26 4 14 9 -11 10 -4 6 30 -4 33 -3 38 3 20 8 -22
9 -19 11 20 1 25 1 77 0 115 -1 39 1 67 4 64 4 -3 7 -51 7 -105 1 -82 -4 -113
-25 -178 -15 -43 -33 -88 -41 -100 -20 -27 -19 -13 1 26 11 22 13 33 5 41 -8
8 -11 6 -12 -8 0 -20 -1 -20 -10 0 -7 15 -8 12 -4 -15 3 -19 1 -30 -3 -23 -5
8 -19 -12 -39 -55 -36 -76 -112 -166 -178 -210 -24 -16 -42 -32 -39 -34 2 -3
-7 -13 -21 -22 -14 -9 -25 -12 -25 -7 0 5 -9 7 -21 4 -13 -4 -17 -8 -9 -13 8
-5 7 -9 -5 -13 -10 -4 -14 -3 -9 4 4 8 -1 9 -17 5 -13 -4 -2 5 25 20 33 17 45
29 38 36 -7 7 -21 3 -44 -14 -18 -14 -42 -28 -53 -33 -19 -7 -18 -8 8 -19 27
-12 27 -12 -40 -37 -89 -32 -92 -33 -63 -15 14 9 43 21 65 27 32 9 36 13 22
20 -13 8 -33 1 -80 -25 -34 -20 -55 -36 -47 -36 25 -1 -28 -26 -138 -64 -108
-37 -127 -42 -102 -26 13 9 13 10 0 10 -8 0 -22 -5 -30 -10 -13 -9 -13 -10 0
-10 13 0 13 -1 0 -10 -8 -5 -22 -9 -30 -9 -10 0 -8 3 5 9 l20 9 -20 1 c-19 1
13 14 220 92 44 17 107 46 140 66 167 100 210 128 256 169 27 25 52 43 54 41
6 -5 -74 -74 -118 -103 -18 -12 -25 -21 -18 -28 15 -15 89 33 157 104 69 73
113 158 138 266 16 71 22 236 10 281 l-6 22 -1139 0 c-1080 0 -1138 -1 -1131
-17 60 -147 287 -533 360 -616 31 -35 225 -163 334 -221 141 -74 210 -91 373
-91 77 0 159 4 183 8 35 7 42 6 42 -7 0 -19 0 -19 -185 -19 l-140 0 115 -7
115 -6 -108 -2 c-139 -3 -233 17 -367 77 -102 45 -292 162 -320 196 -8 10 15
-3 52 -29 92 -64 249 -156 267 -156 8 0 -25 23 -74 51 -50 28 -137 84 -194
123 -101 69 -107 75 -193 201 -52 76 -129 209 -186 323 -82 164 -100 192 -119
192 -20 0 -21 -3 -13 -24 20 -55 122 -260 161 -327 l42 -72 -7 -111 c-13 -228
-59 -474 -137 -730 -55 -185 -72 -228 -117 -311 -39 -72 -137 -185 -160 -185
-15 0 -15 2 -2 10 8 5 15 15 15 22 1 7 6 12 12 11 16 -3 86 82 129 158 112
198 229 677 250 1021 l7 105 -41 69 c-41 70 -93 178 -143 294 l-27 65 -3181 3
-3181 2 0 -599z m8651 193 c-31 -61 -52 -88 -86 -114 -10 -8 0 9 22 38 23 28
52 72 64 97 12 25 24 43 26 41 3 -2 -9 -30 -26 -62z m46 -33 c-12 -58 -69
-127 -239 -287 -81 -76 -197 -152 -258 -168 l-25 -7 24 14 c16 10 20 16 11 19
-8 2 9 16 38 30 28 14 49 28 46 31 -3 3 7 4 22 2 36 -4 102 43 82 57 -10 8
-10 9 1 6 8 -3 31 12 52 31 20 20 59 55 87 79 57 48 137 153 147 195 9 36 19
35 12 -2z m-2058 -222 c-23 -213 -79 -464 -155 -687 -16 -49 -23 -86 -19 -110
3 -29 3 -31 -4 -12 -8 24 -9 23 -29 -23 -56 -125 -105 -190 -267 -353 -89 -90
-160 -164 -158 -164 9 0 125 79 166 113 26 22 50 37 54 34 3 -4 0 -7 -8 -7
-11 0 -11 -2 -1 -8 30 -20 -166 -157 -268 -187 -14 -4 -63 -34 -110 -66 -80
-55 -185 -103 -202 -93 -5 3 -8 11 -8 17 0 9 2 9 8 0 11 -18 102 23 200 90 45
31 94 60 109 63 15 4 37 13 50 19 20 11 21 13 7 19 -9 3 -23 1 -31 -5 -7 -7
-16 -9 -19 -6 -3 3 14 19 38 35 45 31 285 273 330 333 124 162 269 626 303
964 9 87 16 137 21 133 2 -2 -1 -47 -7 -99z m134 1 c28 -17 41 -28 27 -24 -37
10 -95 49 -119 80 -33 42 -25 53 9 12 17 -20 54 -51 83 -68z m-96 -67 c-2 -21
-4 -4 -4 37 0 41 2 58 4 38 2 -21 2 -55 0 -75z m-18 -183 c-6 -58 -29 -197
-51 -310 -26 -135 -38 -220 -34 -250 2 -25 1 -65 -3 -90 l-8 -45 -3 40 c-10
146 -5 208 26 375 18 96 41 252 51 345 17 167 18 169 26 105 4 -38 3 -109 -4
-170z m1508 23 c-15 -8 -17 -13 -7 -13 30 -2 -68 -38 -175 -63 -91 -22 -265
-50 -285 -46 -3 1 6 5 20 10 24 8 -8 6 -110 -6 l-35 -5 30 11 c17 6 75 11 130
12 67 0 85 3 55 7 l-45 5 55 7 c30 4 73 10 95 12 30 4 26 2 -15 -8 -80 -20
-24 -19 67 1 62 14 73 19 53 24 -14 4 -32 7 -40 8 -13 1 -13 0 0 -9 8 -5 11
-10 5 -10 -11 0 -44 20 -34 20 4 0 51 16 105 35 53 19 99 33 101 31 2 -2 -33
-17 -78 -33 -81 -30 -82 -30 -48 -37 22 -4 50 -1 75 9 l39 15 -35 -5 c-26 -4
-21 0 23 16 50 18 56 23 45 37 -12 14 -11 14 9 1 l23 -14 -23 -12z m-1613
-713 c10 -58 14 -67 16 -40 2 32 3 30 13 -20 l11 -55 7 35 c5 24 5 18 3 -20
-3 -39 -1 -51 6 -40 5 8 10 35 11 60 1 43 2 43 9 -15 21 -155 146 -374 278
-483 171 -142 367 -200 642 -190 74 3 113 2 85 -1 l-50 -6 80 -14 c76 -14 184
-9 350 14 28 4 28 4 5 -4 -14 -5 -41 -10 -60 -11 -32 -2 -33 -3 -10 -9 24 -7
24 -7 -8 -14 -17 -4 -80 -5 -140 -3 -84 3 -93 2 -42 -4 42 -5 16 -6 -75 -3
-77 2 -151 8 -165 13 -14 5 -65 11 -115 13 -111 7 -217 30 -310 69 -38 16 -75
30 -82 31 -7 0 -10 4 -7 8 2 4 -5 10 -16 14 -41 13 -140 96 -193 162 -80 98
-151 219 -117 198 14 -8 12 3 -9 50 -17 39 -18 39 -30 17 -13 -25 -6 -66 11
-56 7 4 7 9 0 13 -6 4 -7 12 -3 20 6 9 9 8 13 -6 3 -11 0 -27 -7 -36 -11 -15
-13 -14 -23 6 -54 106 -113 393 -110 539 1 81 1 80 9 -37 5 -66 15 -154 23
-195z m-7 138 c-3 -7 -5 -2 -5 12 0 14 2 19 5 13 2 -7 2 -19 0 -25z m-49 -33
c-3 -3 -9 2 -12 12 -6 14 -5 15 5 6 7 -7 10 -15 7 -18z m-39 -35 c0 -10 -3 -8
-9 5 -12 27 -12 43 0 25 5 -8 9 -22 9 -30z m2548 18 c-3 -8 -6 -5 -6 6 -1 11
2 17 5 13 3 -3 4 -12 1 -19z m-2556 -149 c-61 -218 -65 -232 -79 -237 -19 -6
-14 24 18 133 17 55 33 132 36 170 4 39 8 72 11 75 3 3 3 -33 0 -80 l-6 -85
15 45 c8 25 12 53 10 63 -2 9 -1 15 4 12 11 -7 22 43 14 58 -5 9 -4 9 5 1 9
-8 2 -46 -28 -155z m-237 -5 c3 -8 2 -12 -4 -9 -5 3 -13 -2 -19 -12 -43 -82
-446 -399 -561 -442 -19 -7 -43 -17 -54 -23 -47 -25 -184 -58 -240 -58 -130 0
-581 60 -616 82 -10 6 -5 7 15 2 17 -3 44 -8 60 -9 17 -1 48 -7 70 -13 53 -14
399 -52 474 -52 151 0 360 103 606 299 95 76 230 204 246 234 12 21 15 21 23
1z m-2887 -190 c-3 -3 -12 -4 -19 -1 -8 3 -5 6 6 6 11 1 17 -2 13 -5z m25 -31
c38 -12 54 -13 83 -3 20 7 39 10 41 7 3 -3 -10 -8 -28 -12 -29 -7 -31 -9 -12
-15 52 -20 230 -52 385 -70 103 -13 341 -56 607 -111 424 -88 620 -123 942
-169 85 -12 178 -26 205 -30 28 -5 81 -13 118 -19 38 -5 86 -19 108 -30 55
-29 73 -26 24 4 -22 13 -35 25 -30 25 21 2 -76 28 -131 35 -95 12 -169 30
-172 43 -1 7 7 12 18 12 11 0 43 9 72 20 28 11 54 18 56 16 4 -5 -102 -46
-121 -47 -24 -2 51 -20 143 -35 163 -26 159 -25 153 -40 -4 -10 13 -22 52 -39
76 -34 151 -83 202 -133 49 -48 113 -140 113 -162 -1 -8 -10 4 -21 27 -31 64
-130 165 -207 212 -37 22 -73 41 -80 41 -24 0 -19 -19 18 -64 22 -27 40 -42
40 -34 0 8 -5 19 -12 26 -7 7 -9 12 -5 12 8 0 97 -131 122 -180 16 -31 16 -33
2 -21 -20 16 -22 3 -3 -22 10 -13 15 -14 18 -6 3 9 7 7 11 -5 4 -10 3 -15 -3
-11 -6 3 -10 1 -10 -6 0 -7 -29 33 -63 88 -86 135 -155 220 -195 239 -19 9
-64 20 -100 26 -37 5 -89 13 -117 18 -27 4 -120 18 -205 30 -322 46 -518 81
-942 169 -272 56 -503 98 -610 111 -95 11 -220 31 -278 45 -145 34 -292 74
-299 81 -8 8 52 -4 111 -23z m25 21 c-3 -3 -12 -4 -19 -1 -8 3 -5 6 6 6 11 1
17 -2 13 -5z m2633 -57 c0 -12 -50 -64 -107 -111 -40 -34 -24 -9 24 38 26 24
45 47 43 50 -6 6 -85 -67 -99 -91 -8 -14 -10 -15 -11 -3 0 17 118 129 138 130
6 0 12 -6 12 -13z m3051 -6 c6 10 14 1 28 -31 24 -52 26 -70 9 -70 -7 0 -21
17 -30 38 -15 34 -31 79 -20 58 2 -4 8 -2 13 5z m-317 -30 c3 -5 -2 -15 -12
-22 -15 -13 -16 -12 -3 4 33 42 -5 10 -74 -62 -41 -43 -116 -105 -165 -138
-49 -33 -86 -64 -82 -68 4 -5 1 -5 -5 -1 -7 4 -23 2 -35 -4 -26 -12 -36 -19
103 73 48 31 125 96 171 142 84 86 92 92 102 76z m-4691 -26 c56 -9 163 -29
237 -45 195 -42 311 -61 425 -70 55 -5 163 -16 240 -24 77 -9 223 -16 325 -16
102 0 190 -4 196 -8 7 -4 -103 -7 -245 -7 -141 0 -236 3 -211 7 30 4 17 6 -40
4 -47 -2 -71 0 -55 3 33 8 9 11 -210 30 -114 10 -275 37 -430 73 -49 11 -155
31 -235 43 -80 13 -135 23 -122 24 12 1 68 -6 125 -14z m2170 -52 c-6 -16 -5
-17 11 -3 17 14 17 13 0 -16 -38 -62 -177 -166 -251 -189 -39 -11 -27 19 15
39 60 29 159 104 194 146 35 44 40 48 31 23z m2467 4 c0 -1 -24 -25 -52 -52
l-53 -50 50 53 c46 48 55 57 55 49z m-4725 -302 c29 -44 65 -116 81 -160 25
-73 28 -92 28 -215 -1 -99 -5 -146 -17 -175 -10 -26 -16 -33 -17 -20 0 11 -11
-7 -25 -39 -47 -116 -139 -222 -276 -318 -58 -41 -73 -61 -27 -37 36 19 160
122 202 169 20 23 51 63 67 88 16 25 29 42 29 36 0 -31 -98 -147 -189 -223
-85 -70 -245 -171 -272 -171 -29 0 3 35 56 63 126 66 276 191 336 278 22 32
54 93 71 136 30 74 32 85 32 208 1 110 -3 141 -22 199 -30 89 -93 187 -194
301 l-80 90 82 -85 c45 -47 104 -119 131 -160 52 -78 63 -86 29 -20 -24 46
-90 131 -169 215 -53 56 -52 56 17 -10 40 -38 97 -106 127 -150z m1573 198
c-10 -2 -28 -2 -40 0 -13 2 -5 4 17 4 22 1 32 -1 23 -4z m3032 -7 c0 -3 -15
-14 -32 -26 l-33 -22 30 26 c31 27 35 29 35 22z m-3207 -23 c-51 -2 -136 -2
-190 0 -54 1 -12 3 92 3 105 0 149 -2 98 -3z m310 -7 c4 -10 1 -13 -8 -9 -8 3
-12 9 -9 14 7 12 11 11 17 -5z m-844 -32 c4 3 61 -6 127 -19 195 -40 580 -103
712 -116 67 -6 120 -14 118 -17 -14 -13 -418 44 -734 104 -73 14 -139 23 -145
21 -13 -4 50 -17 388 -78 192 -34 318 -50 485 -62 37 -3 35 -4 -15 -5 -89 -2
-227 14 -450 54 -422 74 -505 95 -504 122 0 10 3 12 6 4 2 -6 8 -10 12 -8z
m1280 -43 c16 -11 4 -18 -76 -46 -39 -14 -57 -16 -75 -8 -21 9 -17 12 40 28
34 10 65 22 68 26 7 11 25 11 43 0z m-519 -140 l45 -8 -40 -3 -40 -3 45 -8
c25 -4 56 -7 70 -7 23 0 22 1 -5 8 -16 4 -22 8 -13 9 22 1 146 -25 178 -38 22
-8 22 -10 5 -11 l-20 -1 20 -9 c11 -5 27 -9 35 -9 13 -1 13 0 0 9 -9 6 -10 10
-3 10 14 0 28 -19 19 -27 -3 -3 -40 4 -83 15 -127 34 -200 45 -348 52 l-140 7
125 3 125 4 -125 6 -125 6 115 1 c63 1 135 -2 160 -6z m375 -37 c73 -47 195
-183 195 -218 0 -6 -16 14 -36 43 -48 71 -110 132 -179 176 -30 20 -55 38 -55
41 0 6 5 3 75 -42z m2212 14 c-16 -6 -33 -6 -37 -2 -5 5 7 10 28 10 37 2 37 2
9 -8z m-4191 -453 c-22 -34 -19 -45 4 -16 11 13 20 18 20 12 0 -24 -131 -170
-222 -246 -102 -86 -304 -226 -450 -314 -49 -29 -88 -59 -88 -68 0 -12 -9 -14
-42 -9 -24 3 -57 7 -73 9 -17 1 -41 10 -55 20 -17 12 -45 17 -95 18 -38 0 -79
4 -89 8 -11 4 20 6 70 3 51 -2 102 -10 119 -19 17 -9 41 -17 55 -18 14 -2 43
-6 65 -10 l40 -6 -30 14 c-25 11 -27 14 -12 20 11 4 16 3 12 -3 -3 -6 -1 -10
4 -10 6 0 11 7 11 16 0 11 5 14 16 10 41 -16 460 266 605 407 57 56 123 136
117 142 -3 3 -27 -21 -54 -53 -81 -96 -177 -177 -363 -307 -47 -32 -82 -54
-78 -48 3 5 64 51 134 101 155 110 260 205 333 301 53 70 78 95 46 46z m44
-105 c-16 -31 -23 -18 -8 15 7 15 14 23 16 17 2 -6 -2 -21 -8 -32z m-2415
-307 c-27 -8 -59 -18 -70 -23 -11 -5 -51 -18 -90 -31 -38 -12 -74 -25 -80 -29
-5 -4 -23 -10 -39 -14 -15 -4 -78 -31 -140 -60 -171 -82 -311 -141 -426 -179
-25 -9 -38 -16 -29 -16 8 -1 37 6 63 15 26 9 49 14 52 12 5 -6 -167 -58 -187
-57 -8 0 4 7 26 15 l40 13 -40 -4 c-26 -3 -6 7 60 29 55 18 114 39 130 46 17
7 44 19 62 26 17 8 34 14 37 14 3 0 63 28 133 61 138 66 198 91 368 149 119
41 142 48 165 48 8 0 -7 -7 -35 -15z m-1 -44 c-54 -45 -150 -93 -294 -145 -52
-20 -105 -39 -118 -45 -13 -5 -31 -9 -40 -9 -9 1 19 14 63 30 165 59 192 70
255 101 36 17 87 49 114 70 65 52 81 50 20 -2z m1825 -17 c-34 -27 -163 -102
-174 -102 -5 0 33 27 85 59 94 58 135 78 89 43z m-254 -32 c-28 -7 -29 -8 -5
-10 24 -2 24 -2 -5 -11 -76 -23 -187 -43 -255 -44 -41 -1 -136 -9 -210 -18
-472 -58 -945 -88 -1340 -85 -228 1 -225 2 110 8 400 8 483 13 835 46 302 28
497 50 581 64 106 19 258 51 263 56 2 2 16 3 30 3 25 -1 25 -2 -4 -9z m85
-186 c0 -8 -4 -14 -8 -14 -4 0 -8 9 -8 19 0 11 4 17 8 15 4 -3 8 -12 8 -20z
m234 -211 c20 -59 20 -107 0 -167 -17 -49 -37 -67 -56 -48 -7 7 -5 26 7 63 13
39 16 70 12 124 -9 101 8 113 37 28z m3156 -297 c33 -233 -47 -596 -227 -1036
-51 -124 -72 -173 -123 -285 -10 -22 -25 -56 -33 -75 -50 -114 -64 -144 -107
-230 -53 -107 -142 -247 -189 -300 -31 -35 -127 -222 -171 -335 -13 -33 -28
-64 -33 -70 -4 -5 -3 3 2 18 16 41 12 58 -4 22 -22 -46 -17 -17 6 45 38 101
131 297 200 420 49 89 185 358 227 450 28 61 50 114 136 338 57 148 146 430
185 585 35 139 59 187 54 107 -7 -88 -134 -503 -240 -778 -30 -79 -53 -146
-50 -148 2 -3 12 12 20 33 9 21 32 76 52 123 127 299 194 502 242 730 21 104
26 155 28 305 1 99 -1 167 -5 150 l-6 -30 -5 32 c-3 18 -2 30 3 27 4 -3 8 1 8
8 1 37 19 -27 30 -106z m35 9 l-5 30 18 -35 c49 -96 72 -131 128 -200 97 -118
248 -241 429 -347 253 -150 517 -210 884 -201 129 3 171 1 171 -9 0 -7 -23
-14 -57 -19 -71 -9 -426 2 -473 15 -28 7 -18 8 45 5 l80 -3 -60 9 c-33 5 -78
7 -100 5 -50 -7 -194 29 -323 79 -232 90 -536 317 -668 501 -42 58 -94 161
-94 184 1 9 7 3 16 -14 l14 -30 -5 30z m-3450 -20 c21 -10 59 -20 82 -23 24
-2 46 -9 49 -13 3 -5 16 -9 30 -9 15 0 24 -6 24 -15 0 -17 -40 -20 -68 -6 -9
5 -42 14 -72 21 -64 14 -100 34 -100 56 0 8 3 13 8 11 4 -2 25 -12 47 -22z
m142 -116 c83 -46 163 -112 263 -215 95 -99 193 -227 206 -272 3 -9 -7 2 -22
26 -43 69 -39 41 5 -40 41 -73 50 -83 31 -33 -6 15 -6 24 -1 20 5 -3 18 -29
27 -58 15 -41 18 -82 17 -202 -1 -99 2 -133 6 -100 8 50 8 50 9 10 6 -138
-108 -331 -273 -464 -89 -71 -79 -50 -114 -251 l-18 -105 2 100 c1 55 6 118
11 140 7 37 8 38 15 15 l7 -25 1 27 c2 41 -14 43 -74 9 -85 -48 -78 -36 11 18
77 48 80 51 76 82 -3 22 -7 27 -13 18 -7 -11 -9 -10 -9 4 0 9 7 17 15 17 10 0
15 -10 15 -31 0 -17 4 -29 10 -27 23 8 155 135 192 185 22 31 57 90 76 132 34
71 36 84 40 193 6 172 -18 253 -125 415 -96 145 -295 331 -415 389 -38 18 -51
44 -23 44 8 0 31 -9 52 -21z m335 -216 c146 -151 259 -365 309 -585 33 -153
21 -280 -39 -392 -53 -100 -241 -265 -333 -291 -19 -5 -21 -4 -9 4 13 9 12 11
-5 11 -12 0 -1 10 30 26 78 41 169 109 213 159 22 25 59 82 82 127 38 73 43
90 48 168 7 130 -35 299 -114 452 -40 79 -44 100 -8 43 18 -28 23 -32 18 -15
-9 34 -34 71 -44 65 -4 -2 -37 35 -73 83 -36 48 -84 110 -107 137 -24 28 -13
19 24 -20 36 -38 85 -98 108 -132 23 -34 44 -60 46 -58 9 9 -80 133 -145 203
-81 86 -82 97 -1 15z m2547 -539 c-63 -197 -101 -309 -110 -324 -13 -19 -2 21
17 69 8 18 14 41 13 50 0 9 -7 -3 -16 -27 -8 -24 -17 -41 -19 -39 -2 2 23 84
56 183 32 98 60 168 61 154 1 -22 2 -21 10 9 6 18 12 31 15 28 3 -2 -9 -49
-27 -103z m-2342 -1 c-2 -16 -4 -5 -4 22 0 28 2 40 4 28 2 -13 2 -35 0 -50z
m2220 -295 c-16 -43 -18 -60 -8 -54 30 19 -47 -135 -128 -254 -72 -107 -196
-246 -240 -270 -12 -6 14 23 59 66 44 42 78 79 75 82 -3 3 -34 -21 -68 -54
-34 -33 -71 -66 -82 -74 -11 -7 10 16 46 51 128 123 225 259 299 422 25 53 46
97 48 97 2 0 2 -6 -1 -12z m-2627 -272 c0 -3 -4 -8 -10 -11 -5 -3 -10 -1 -10
4 0 6 5 11 10 11 6 0 10 -2 10 -4z m10 -21 c-8 -8 -46 -36 -84 -62 -68 -47
-81 -63 -55 -72 7 -2 9 1 4 9 -5 9 -4 11 4 6 6 -4 39 7 74 24 34 17 53 23 42
14 -24 -19 -158 -84 -174 -84 -16 0 -62 -31 -57 -39 2 -3 -8 -7 -22 -8 l-26
-1 24 18 c32 25 58 37 93 45 15 3 25 10 22 15 -4 7 -13 7 -24 1 -13 -7 -18 -6
-18 5 0 7 3 12 5 9 3 -3 14 3 24 12 20 18 170 121 178 122 2 1 -2 -6 -10 -14z
m2718 -265 c37 -192 45 -242 32 -215 l-9 20 -1 -20 c-3 -33 -10 -4 -44 170
-18 91 -29 165 -24 165 4 0 8 10 8 22 0 42 8 11 38 -142z m-2749 84 c2 54 7
42 14 -29 4 -39 3 -50 -2 -30 l-9 30 -2 -30 -2 -30 -8 30 c-4 17 -8 46 -7 65
l0 35 7 -40 7 -40 2 39z m4331 -140 c-30 -31 -82 -76 -115 -102 -33 -25 -68
-54 -78 -64 -18 -18 -77 -52 -77 -44 0 2 37 31 83 64 45 33 116 92 157 131 41
38 77 70 80 71 2 0 -20 -25 -50 -56z m59 28 c-15 -19 -130 -127 -164 -152 -11
-8 23 28 75 80 91 91 117 113 89 72z m-4402 -4 c-3 -8 -6 -5 -6 6 -1 11 2 17
5 13 3 -3 4 -12 1 -19z m20 -30 c-2 -13 -4 -5 -4 17 -1 22 1 32 4 23 2 -10 2
-28 0 -40z m-126 -137 c5 -13 12 -21 15 -18 7 6 -22 64 -45 91 -10 12 -11 16
-3 12 15 -9 72 -95 72 -109 0 -4 -4 -5 -10 -2 -12 7 -12 -2 0 -30 l9 -20 1 20
c1 15 4 13 14 -11 22 -49 46 -169 44 -216 -1 -42 -1 -42 -8 12 l-7 55 -1 -57
c-1 -31 3 -59 8 -61 6 -3 5 -4 -2 -3 -8 2 -14 21 -16 47 -7 120 -56 263 -118
346 -13 17 -24 35 -24 39 0 12 62 -70 71 -95z m2833 21 c3 -5 -9 -7 -27 -5
-29 2 -30 2 -7 -6 16 -6 19 -9 8 -10 -9 -1 -37 -10 -62 -21 -25 -10 -46 -17
-46 -14 0 3 19 13 43 24 50 22 32 27 -21 4 -20 -8 -32 -10 -27 -5 26 26 128
50 139 33z m-4481 -87 c-3 -9 -8 -14 -10 -11 -3 3 -2 9 2 15 9 16 15 13 8 -4z
m4578 -40 c60 -20 202 -39 474 -65 127 -12 255 -24 285 -27 l55 -6 -40 -9
c-49 -12 -149 -6 -420 24 -163 18 -200 24 -165 29 25 3 33 7 19 7 -14 1 -48 4
-75 7 -41 4 -44 3 -19 -5 24 -7 21 -8 -20 -4 -60 6 -156 35 -136 42 11 4 11 6
0 13 -20 13 -9 11 42 -6z m955 -72 c-17 -4 -14 -7 13 -19 24 -10 38 -11 53 -3
11 6 22 8 25 6 5 -6 -21 -21 -62 -37 -17 -7 -24 -7 -20 0 10 16 -1 12 -65 -20
-33 -16 -67 -30 -77 -30 -10 0 17 16 61 35 88 38 98 45 68 45 -13 0 -22 6 -22
15 0 9 9 15 23 14 19 -1 20 -2 3 -6z m51 -9 c-3 -3 -12 -4 -19 -1 -8 3 -5 6 6
6 11 1 17 -2 13 -5z m160 -13 c-21 -10 -38 -22 -37 -27 1 -5 -4 -10 -12 -12
-9 -2 -8 0 2 8 12 10 10 11 -10 6 -14 -3 -29 -6 -35 -7 -5 0 -1 -4 10 -9 14
-6 6 -7 -22 -3 -27 3 -43 2 -43 -5 0 -5 10 -8 23 -6 21 4 21 4 -2 -6 -27 -12
-36 -7 -28 15 4 8 17 15 29 16 13 0 50 11 83 23 71 28 96 32 42 7z m-370 -27
c-3 -3 -12 -4 -19 -1 -8 3 -5 6 6 6 11 1 17 -2 13 -5z m98 -50 c-27 -13 -59
-24 -70 -23 -13 0 -7 5 15 12 19 7 44 18 55 25 11 6 27 11 35 11 8 0 -7 -11
-35 -25z m-5403 -26 c-6 -7 -24 -21 -41 -31 -23 -13 -31 -15 -37 -5 -4 7 -4
10 1 6 4 -4 24 4 44 17 40 28 48 31 33 13z m3926 -292 c1 -36 8 -82 17 -102 8
-20 14 -39 11 -41 -8 -8 -34 74 -36 117 -3 52 -2 90 4 90 1 0 4 -29 4 -64z
m41 -104 c6 -11 11 -27 11 -34 -2 -36 -32 52 -35 100 l-4 57 8 -51 c5 -28 13
-60 20 -72z"/>
<path d="M8266 6363 c-26 -13 -46 -26 -43 -29 5 -6 107 43 107 51 0 8 -13 4
-64 -22z"/>
<path d="M6165 5283 c-22 -19 -64 -48 -93 -65 -29 -16 -51 -32 -49 -35 8 -7
110 54 153 91 21 19 37 36 34 39 -3 3 -23 -11 -45 -30z"/>
<path d="M6642 6310 c-7 -69 -29 -204 -48 -301 -19 -96 -34 -184 -33 -195 0
-10 16 58 35 151 36 179 68 409 62 447 -2 13 -9 -33 -16 -102z"/>
<path d="M6562 5695 c0 -16 2 -22 5 -12 2 9 2 23 0 30 -3 6 -5 -1 -5 -18z"/>
<path d="M8128 6293 c7 -3 16 -2 19 1 4 3 -2 6 -13 5 -11 0 -14 -3 -6 -6z"/>
<path d="M6571 5518 c-1 -9 11 -54 25 -99 24 -76 26 -80 40 -61 12 17 12 28 2
67 l-13 47 -11 -27 c-11 -27 -12 -26 -27 31 -8 32 -15 51 -16 42z m50 -115
c-12 -20 -14 -14 -5 12 4 9 9 14 11 11 3 -2 0 -13 -6 -23z m10 -30 c-12 -20
-14 -14 -5 12 4 9 9 14 11 11 3 -2 0 -13 -6 -23z"/>
<path d="M6690 5270 c0 -27 112 -179 178 -241 103 -97 221 -159 376 -194 113
-26 488 -56 421 -34 -16 5 -104 14 -195 19 -198 11 -289 32 -418 96 -119 60
-221 153 -303 277 -32 50 -59 85 -59 77z m873 -467 c-7 -2 -19 -2 -25 0 -7 3
-2 5 12 5 14 0 19 -2 13 -5z"/>
<path d="M7863 4793 c15 -2 37 -2 50 0 12 2 0 4 -28 4 -27 0 -38 -2 -22 -4z"/>
<path d="M6396 5419 c-16 -55 -27 -102 -24 -104 2 -3 17 40 33 95 16 55 26
102 24 104 -2 3 -17 -40 -33 -95z"/>
<path d="M5930 4727 c0 -3 20 -36 45 -74 25 -37 45 -62 45 -55 0 15 -66 118
-81 128 -5 3 -9 3 -9 1z"/>
<path d="M5975 5270 c-3 -5 -2 -10 4 -10 5 0 13 5 16 10 3 6 2 10 -4 10 -5 0
-13 -4 -16 -10z"/>
<path d="M9060 5253 c1 -12 39 -79 40 -70 0 12 -28 77 -34 77 -4 0 -6 -3 -6
-7z"/>
<path d="M6179 5114 c-19 -20 -66 -57 -105 -83 -39 -25 -80 -51 -90 -58 -46
-30 24 2 88 41 65 38 157 120 147 131 -3 2 -21 -12 -40 -31z"/>
<path d="M4011 4757 c-1 -4 9 -38 21 -75 17 -52 22 -92 22 -177 1 -60 -2 -130
-6 -155 -5 -34 -5 -39 3 -21 16 40 22 192 10 268 -9 61 -49 185 -50 160z"/>
<path d="M3645 3874 c-16 -9 -42 -23 -57 -31 -15 -8 -31 -19 -35 -26 -7 -11
103 47 122 64 14 13 4 11 -30 -7z"/>
<path d="M4845 4980 c11 -5 29 -8 40 -8 16 0 15 2 -5 8 -34 11 -60 11 -35 0z"/>
<path d="M6020 4923 c-37 -14 -51 -22 -32 -19 31 5 129 45 107 44 -5 -1 -39
-12 -75 -25z"/>
<path d="M5740 4765 c72 -18 100 -17 35 1 -27 7 -59 13 -70 13 -11 0 5 -7 35
-14z"/>
<path d="M3025 3795 c-60 -13 -101 -24 -89 -24 23 -1 216 38 223 45 8 7 -21 3
-134 -21z"/>
<path d="M3477 3404 c4 -52 1 -85 -11 -120 -22 -65 -4 -84 23 -23 26 55 26
122 2 174 l-19 40 5 -71z"/>
<path d="M6644 3025 c0 -122 -5 -173 -27 -275 -52 -247 -124 -459 -268 -794
-34 -77 -63 -142 -64 -144 -1 -1 -1 17 0 40 1 24 25 102 53 173 97 252 219
647 236 765 3 25 -12 -24 -34 -108 -100 -389 -269 -832 -454 -1192 -199 -387
-284 -562 -291 -595 -3 -16 11 8 33 55 61 132 113 233 130 253 8 9 12 17 8 17
-7 0 101 209 117 225 5 6 4 0 -2 -12 -14 -27 -14 -36 -1 -28 6 4 7 -1 3 -11
-5 -13 -8 -14 -11 -5 -2 7 -24 -24 -49 -69 -24 -45 -43 -84 -40 -86 6 -6 111
154 155 236 86 160 317 696 384 890 99 290 155 615 131 765 -6 38 -9 13 -9
-100z m-368 -1200 c0 -19 -3 -30 -6 -25 -4 6 -12 -1 -18 -15 -17 -37 -14 -55
4 -25 23 37 11 6 -37 -98 -28 -62 -45 -89 -50 -80 -5 7 -9 10 -9 6 0 -3 -3
-14 -7 -24 -4 -12 -3 -15 5 -10 9 6 9 1 0 -19 -8 -18 -14 -22 -20 -13 -4 7 -8
10 -8 6 0 -3 -3 -14 -7 -24 -4 -12 -3 -15 6 -10 7 5 3 -10 -8 -33 -12 -23 -24
-41 -27 -41 -2 0 0 9 6 19 13 25 13 34 0 26 -6 -4 6 27 27 69 20 42 40 71 43
65 4 -5 12 2 18 16 15 32 15 38 1 30 -5 -4 -3 10 7 32 9 21 30 71 47 111 17
39 31 72 32 72 1 0 1 -16 1 -35z"/>
<path d="M6217 1705 c-9 -20 -17 -41 -16 -48 0 -7 9 8 20 32 23 53 20 66 -4
16z"/>
<path d="M6700 3117 c0 -17 50 -106 94 -163 123 -164 402 -372 621 -463 89
-38 226 -77 290 -85 28 -3 4 5 -52 18 -361 86 -761 367 -921 646 -17 30 -32
51 -32 47z"/>
<path d="M8090 2380 l-185 -6 180 -1 c99 0 191 3 205 7 18 6 20 8 5 7 -11 -1
-103 -4 -205 -7z"/>
<path d="M3235 3109 c22 -10 56 -21 75 -24 19 -3 43 -10 52 -16 10 -5 28 -9
40 -9 27 1 -37 24 -92 34 -19 3 -48 13 -64 21 -15 8 -33 15 -40 14 -6 0 7 -9
29 -20z"/>
<path d="M3345 3008 c32 -17 127 -80 155 -102 49 -39 231 -229 261 -273 17
-24 33 -42 36 -39 16 16 -174 229 -276 310 -75 59 -165 116 -184 116 -6 0 -3
-6 8 -12z"/>
<path d="M3881 2435 c0 -5 6 -32 13 -60 8 -27 14 -41 14 -30 0 21 -25 107 -27
90z"/>
<path d="M3897 2060 c-14 -69 -109 -231 -160 -268 -9 -7 -15 -18 -12 -23 4 -5
-1 -9 -9 -9 -8 0 -21 -8 -28 -18 -10 -14 -76 -67 -137 -109 -2 -2 -2 -5 1 -8
14 -15 180 129 243 211 62 79 123 214 112 247 -2 6 -7 -4 -10 -23z"/>
<path d="M3535 1515 c-3 -26 -4 -49 -2 -51 3 -3 8 16 12 41 3 26 4 49 2 51 -3
3 -8 -16 -12 -41z"/>
<path d="M3920 2470 c0 -9 5 -21 10 -26 15 -15 65 -166 85 -258 13 -56 16
-104 13 -166 -5 -76 -11 -99 -44 -166 -49 -100 -126 -183 -239 -257 -93 -62
-91 -70 5 -14 30 18 89 66 130 107 147 146 189 300 141 518 -27 119 -99 308
-101 262z"/>
<path d="M6226 2184 c-21 -63 -36 -117 -34 -120 3 -2 15 29 27 69 13 39 30 91
38 115 9 23 14 45 11 47 -2 3 -21 -47 -42 -111z"/>
<path d="M6098 1842 c-31 -68 -138 -234 -176 -274 -14 -16 -21 -28 -16 -28 18
0 99 108 153 203 11 20 29 52 39 70 17 29 36 87 30 87 -2 0 -15 -26 -30 -58z"/>
<path d="M6211 1500 c0 -14 13 -88 29 -165 16 -77 29 -129 29 -115 0 14 -12
88 -28 165 -16 77 -29 129 -30 115z"/>
<path d="M3420 1129 c3 -25 39 -149 39 -134 1 23 -25 124 -33 133 -3 3 -6 3
-6 1z"/>
<path d="M6310 1076 c19 -8 49 -14 65 -14 29 0 29 1 -5 8 -19 4 -48 10 -65 14
-27 6 -27 5 5 -8z"/>
<path d="M6685 1020 c83 -10 202 -20 265 -23 63 -2 93 -3 65 -1 -27 3 -136 13
-241 24 -105 11 -202 19 -215 19 -13 -1 44 -10 126 -19z"/>
<path d="M8725 7072 c0 -70 -3 -147 -7 -172 l-7 -45 14 50 c14 52 19 247 7
277 -4 10 -7 -40 -7 -110z"/>
<path d="M8920 7186 c0 -8 5 -27 11 -42 5 -16 11 -64 13 -109 2 -44 9 -143 15
-220 6 -77 18 -223 27 -325 18 -214 80 -667 99 -723 7 -21 11 -47 8 -58 -8
-31 16 -138 44 -192 13 -27 26 -47 28 -45 6 6 -7 58 -15 53 -4 -2 -5 8 -3 23
3 19 2 23 -5 13 -19 -27 -26 33 -27 249 -1 128 -7 241 -14 280 -11 56 -23 206
-16 198 6 -7 35 -131 34 -146 -1 -9 -5 -3 -9 13 -7 27 -8 28 -8 5 -1 -14 3
-43 7 -65 l9 -40 2 35 2 35 8 -40 c19 -91 22 -239 6 -324 -14 -79 -14 -88 4
-140 10 -31 24 -85 31 -121 6 -36 27 -105 45 -155 46 -126 77 -262 124 -545
115 -694 126 -994 49 -1268 -17 -62 -34 -111 -36 -108 -3 3 0 21 7 40 6 20 8
46 4 58 -5 17 -14 2 -44 -78 -38 -102 -76 -182 -115 -244 -15 -24 -24 -59 -29
-113 -17 -192 -76 -473 -139 -666 -40 -126 -152 -345 -230 -453 -152 -211
-293 -337 -632 -564 -126 -84 -318 -214 -425 -289 -107 -74 -226 -154 -264
-177 l-68 -43 6 -160 c4 -88 11 -203 16 -255 5 -52 10 -182 10 -287 l0 -193
2675 0 2675 0 0 3600 0 3600 -1940 0 c-1679 0 -1940 -2 -1940 -14z m156 -879
c-2 -7 -5 -3 -5 8 -1 11 -6 27 -12 35 -8 11 -9 8 -5 -15 5 -22 4 -26 -4 -15
-14 21 -13 47 3 53 13 4 31 -47 23 -66z m3 -72 l0 -20 -9 20 c-5 11 -9 29 -9
40 l0 20 9 -20 c5 -11 9 -29 9 -40z m-1350 -5214 c21 -13 -23 -24 -75 -18 -34
3 -33 4 16 7 l55 3 -40 7 -40 7 35 1 c19 1 42 -2 49 -7z m-199 -84 c0 -2 -13
-16 -29 -31 -22 -21 -31 -25 -37 -14 -4 7 -4 10 0 7 4 -4 18 4 31 17 22 22 35
30 35 21z"/>
<path d="M8410 6500 c-8 -5 -10 -10 -5 -10 6 0 17 5 25 10 8 5 11 10 5 10 -5
0 -17 -5 -25 -10z"/>
<path d="M8128 6385 c-3 -4 -48 -21 -99 -40 -52 -19 -89 -34 -82 -35 13 0 180
58 203 71 13 7 13 8 -1 9 -9 0 -18 -2 -21 -5z"/>
<path d="M7215 6286 c57 -27 156 -51 176 -43 8 3 2 6 -13 6 -15 1 -60 12 -100
25 -40 13 -82 26 -93 30 -11 3 3 -4 30 -18z"/>
<path d="M7665 6250 c-27 -7 -28 -8 -5 -8 14 0 34 3 45 8 25 11 2 11 -40 0z"/>
<path d="M9091 6194 c0 -11 3 -14 6 -6 3 7 2 16 -1 19 -3 4 -6 -2 -5 -13z"/>
<path d="M9125 5905 c0 -140 1 -151 9 -88 5 41 5 109 0 160 -9 84 -9 81 -9
-72z"/>
<path d="M12 5980 c21 -13 183 -50 218 -49 14 0 -24 11 -85 24 -60 12 -119 26
-130 30 -18 6 -18 5 -3 -5z"/>
<path d="M9122 5630 c0 -8 4 -26 8 -40 6 -20 8 -21 8 -5 0 11 -3 29 -8 40 -5
12 -8 14 -8 5z"/>
<path d="M8920 5482 c-56 -137 -139 -260 -264 -390 -72 -75 -93 -90 -192 -138
-61 -30 -117 -54 -125 -54 -8 -1 -2 -8 14 -16 26 -14 31 -13 100 23 54 29 100
66 188 153 63 63 136 145 161 181 62 88 158 282 146 294 -2 3 -15 -21 -28 -53z
m-461 -556 c-2 -2 -15 -9 -29 -15 -24 -11 -24 -11 -6 3 16 13 49 24 35 12z
m-65 -25 c3 -5 -1 -11 -9 -15 -8 -3 -17 0 -21 6 -4 7 -3 8 4 4 7 -4 12 -2 12
3 0 13 7 14 14 2z"/>
<path d="M9000 5440 c-12 -23 -19 -44 -16 -47 2 -3 14 14 26 37 12 23 19 44
16 47 -2 3 -14 -14 -26 -37z"/>
<path d="M3065 5410 c11 -5 29 -9 40 -9 l20 0 -20 9 c-11 5 -29 9 -40 9 l-20
0 20 -9z"/>
<path d="M3516 5301 c-29 -11 186 -44 227 -35 28 7 19 10 -68 25 -111 20 -131
21 -159 10z m67 -8 c-7 -2 -19 -2 -25 0 -7 3 -2 5 12 5 14 0 19 -2 13 -5z m60
-10 c-7 -2 -19 -2 -25 0 -7 3 -2 5 12 5 14 0 19 -2 13 -5z m60 -10 c-7 -2 -19
-2 -25 0 -7 3 -2 5 12 5 14 0 19 -2 13 -5z"/>
<path d="M4340 5190 c25 -4 70 -10 100 -13 l55 -6 -65 14 c-36 8 -81 14 -100
13 -32 -1 -31 -1 10 -8z"/>
<path d="M8145 4843 c-33 -14 -88 -38 -122 -53 -264 -121 -539 -114 -841 22
-24 11 -46 17 -48 15 -6 -6 121 -58 206 -85 111 -35 181 -45 310 -45 138 0
213 16 356 73 199 80 206 82 247 70 25 -7 43 -8 55 -1 13 8 14 10 2 11 -13 0
-13 1 0 11 11 8 9 8 -10 3 -29 -9 -58 -10 -80 -2 -8 3 -42 -6 -75 -19z"/>
<path d="M2715 3709 c-42 -13 -333 -55 -500 -74 -241 -26 -467 -35 -872 -35
l-392 0 -98 -48 c-143 -70 -230 -105 -242 -98 -5 4 -83 -22 -173 -57 -159 -63
-262 -99 -382 -132 -32 -9 -56 -18 -54 -20 12 -12 324 91 507 166 99 42 136
48 51 10 -81 -36 -357 -135 -450 -161 -47 -13 -91 -28 -97 -33 -10 -7 -13
-116 -13 -483 l0 -474 23 9 c12 5 102 48 200 95 98 47 180 86 182 86 2 0 87
41 189 90 102 50 188 90 191 90 4 0 32 12 63 26 105 48 421 160 612 215 58 17
119 39 135 49 34 21 95 33 280 55 153 18 301 40 630 94 132 22 299 47 370 56
181 23 216 31 261 56 60 34 80 56 107 117 22 48 26 74 28 160 1 101 1 104 -27
135 -43 47 -55 55 -103 67 -24 6 -61 20 -82 30 -33 17 -58 20 -176 19 -76 0
-151 -5 -168 -10z m369 -41 c-5 -8 -2 -9 9 -5 10 3 17 3 17 -2 0 -10 -168 -61
-201 -61 -13 0 -31 4 -38 9 -12 8 -8 11 15 16 22 4 187 48 202 54 2 0 0 -4 -4
-11z"/>
<path d="M3032 3650 c-12 -5 -53 -16 -90 -24 -41 -9 -55 -15 -37 -15 17 -1 64
10 105 23 41 13 68 24 60 24 -8 1 -25 -3 -38 -8z"/>
<path d="M1636 2672 c5 -4 30 -24 55 -44 47 -38 133 -158 188 -263 17 -33 31
-54 31 -46 0 20 -76 157 -127 228 -41 59 -123 133 -146 133 -7 0 -7 -3 -1 -8z"/>
<path d="M1983 2120 c31 -119 39 -202 34 -355 -3 -88 -8 -173 -11 -190 -3 -16
1 -7 8 20 22 80 20 330 -4 444 -10 51 -22 96 -26 100 -4 3 -4 -5 -1 -19z"/>
<path d="M3152 1472 c-57 -31 -97 -59 -91 -63 8 -4 7 -8 -2 -12 -11 -4 -11 -6
-1 -6 27 -2 187 90 176 101 -3 3 3 5 13 5 10 -1 17 3 16 10 -2 8 4 10 14 6 11
-4 14 -3 9 5 -11 18 -23 14 -134 -46z m58 7 c-25 -17 -136 -72 -127 -63 11 12
120 71 132 73 6 0 3 -4 -5 -10z"/>
<path d="M1966 1454 c-4 -14 -27 -69 -52 -122 -24 -52 -42 -97 -40 -99 5 -5
67 126 91 190 10 26 16 50 13 53 -3 3 -9 -7 -12 -22z"/>
<path d="M1852 1368 c-53 -192 -147 -379 -240 -480 -73 -79 -205 -188 -310
-257 -45 -30 -82 -58 -82 -63 0 -5 14 0 31 12 51 37 42 16 -10 -23 -93 -68
-402 -238 -811 -444 l-225 -113 52 0 c59 0 102 18 283 119 63 35 135 75 160
88 25 14 72 40 106 59 33 19 66 34 72 34 18 0 14 -27 -6 -42 -10 -7 -17 -20
-17 -28 0 -8 -33 -63 -73 -122 l-73 -108 49 0 c38 0 51 4 56 18 3 9 23 43 43
74 21 32 62 95 91 141 31 51 61 87 73 90 12 3 18 10 14 17 -4 7 -21 0 -48 -20
-22 -16 -48 -30 -56 -30 -14 -1 -14 -2 0 -13 15 -11 15 -15 -7 -40 -28 -32
-32 -28 -8 8 9 14 12 25 6 25 -5 0 -17 -16 -26 -35 -16 -33 -31 -50 -21 -22
21 52 59 113 82 129 68 45 98 63 108 63 5 0 26 12 45 26 19 14 82 59 140 99
283 199 411 313 402 355 -3 17 25 38 43 32 8 -4 17 -2 20 3 4 6 -1 10 -9 10
-25 0 -20 12 43 114 33 52 57 97 54 100 -3 2 6 33 20 68 25 65 61 211 55 228
-2 5 -13 -27 -26 -72z m-277 -566 l-48 -47 44 51 c24 29 46 50 49 48 2 -3 -18
-26 -45 -52z m-736 -699 c-31 -51 -69 -97 -69 -83 0 6 -6 8 -12 4 -7 -4 -10
-4 -6 0 3 4 10 8 15 8 12 0 33 19 33 30 0 6 -7 5 -16 -3 -10 -8 -8 0 6 24 23
39 39 52 20 16 -7 -11 -9 -23 -6 -26 3 -3 11 7 18 23 11 25 26 43 36 44 2 0
-7 -17 -19 -37z"/>
<path d="M3634 1129 c1 -19 14 -72 30 -119 38 -114 46 -272 21 -385 -46 -209
-144 -389 -280 -517 -71 -67 -71 -85 0 -27 41 33 38 29 -14 -20 l-64 -61 49 0
c43 1 52 5 69 30 11 16 47 64 81 107 33 43 83 116 109 163 27 47 57 97 68 112
11 14 16 31 13 37 -4 6 0 21 8 33 18 25 21 17 6 -13 -6 -10 -7 -19 -2 -19 14
0 74 138 66 151 -5 8 -3 9 6 4 10 -6 12 -1 8 18 -3 15 -2 24 3 22 12 -8 22 97
14 147 -12 79 -35 149 -47 142 -7 -4 -8 -3 -4 5 9 13 -45 110 -85 155 -16 17
-35 40 -42 50 -13 18 -14 17 -13 -15z m87 -131 c6 -15 15 -25 20 -22 5 3 6 -3
2 -12 -5 -13 -3 -15 7 -9 8 5 11 4 6 -3 -4 -6 -4 -23 0 -38 7 -26 8 -26 20 -9
8 11 14 14 14 8 0 -7 -4 -15 -10 -18 -5 -3 -10 -18 -10 -33 l1 -27 15 30 c8
17 11 21 7 10 -4 -11 -8 -65 -9 -120 l-2 -100 7 92 c8 118 19 130 13 15 -4
-89 -19 -174 -21 -122 -1 16 -12 -5 -29 -54 -15 -44 -33 -82 -39 -84 -7 -2
-13 1 -13 8 0 6 4 9 9 6 5 -3 20 30 35 74 28 86 34 196 16 278 -10 42 -79 196
-86 190 -2 -2 6 -33 17 -68 32 -99 37 -271 11 -380 -11 -47 -18 -99 -15 -117
4 -26 -5 -48 -46 -116 -28 -47 -60 -95 -72 -108 l-20 -24 12 25 c7 14 25 44
40 67 30 43 36 59 20 49 -5 -3 4 25 20 63 53 125 72 231 66 361 -3 76 -12 137
-25 179 -24 74 -19 108 9 64 10 -15 24 -40 30 -55z m96 -285 c-2 -16 -4 -3 -4
27 0 30 2 43 4 28 2 -16 2 -40 0 -55z m-66 -190 c-12 -20 -14 -14 -5 12 4 9 9
14 11 11 3 -2 0 -13 -6 -23z"/>
<path d="M3655 460 c-29 -79 -29 -79 0 -32 14 23 25 52 23 64 -2 16 -9 7 -23
-32z"/>
<path d="M7610 1130 c-25 -10 -74 -30 -110 -44 -36 -14 -60 -25 -53 -26 16 0
160 53 198 73 40 21 21 20 -35 -3z"/>
<path d="M7327 864 c-16 -9 -27 -18 -24 -20 3 -3 20 4 38 15 39 24 28 28 -14
5z"/>
<path d="M1614 729 c-10 -11 -68 -57 -129 -101 -128 -94 -133 -98 -118 -98 13
0 242 169 262 194 21 25 7 29 -15 5z"/>
<path d="M5910 604 c0 -5 9 -36 19 -70 11 -33 41 -168 67 -299 26 -131 50
-233 52 -227 5 15 -73 397 -103 507 -21 79 -35 114 -35 89z"/>
<path d="M5854 313 c3 -23 13 -102 21 -174 8 -72 17 -134 20 -138 4 -3 4 17 1
44 -22 185 -38 300 -43 305 -3 3 -3 -14 1 -37z"/>
<path d="M3637 278 c-27 -56 -103 -162 -164 -231 -18 -20 -33 -39 -33 -42 0
-3 94 -5 210 -5 l210 1 -12 22 c-17 32 -114 132 -170 174 -26 20 -46 39 -43
41 4 5 88 -61 136 -108 15 -14 45 -49 68 -78 22 -30 41 -48 41 -42 0 12 -88
125 -112 145 -7 6 -39 32 -71 58 -33 26 -56 47 -52 47 4 0 39 -26 78 -57 71
-59 167 -168 167 -190 0 -7 12 -13 26 -13 l25 0 -27 50 c-39 72 -108 139 -192
190 -40 23 -71 44 -69 46 2 3 35 -13 72 -33 84 -46 162 -124 201 -198 16 -30
35 -55 42 -55 24 0 -40 101 -103 165 -33 33 -88 76 -123 94 -35 18 -67 42 -71
53 -6 18 -11 13 -34 -34z"/>
<path d="M855 281 c-6 -5 -53 -33 -105 -61 -52 -29 -122 -68 -155 -87 -33 -19
-100 -54 -149 -78 -49 -25 -91 -47 -94 -50 -3 -3 73 -5 169 -5 l174 0 70 106
c39 59 69 110 68 115 -2 5 2 9 9 9 6 0 9 2 6 5 -3 3 -17 0 -32 -6 -17 -8 -22
-15 -15 -20 8 -4 2 -12 -17 -22 -41 -21 -136 -48 -129 -37 4 6 15 10 26 10 11
0 18 4 15 9 -4 5 4 7 16 4 16 -3 19 -2 10 4 -8 7 5 18 47 38 60 28 124 74 106
75 -6 0 -15 -4 -20 -9z"/>
<path d="M750 194 l-25 -15 25 7 c14 3 29 10 35 15 15 14 -7 10 -35 -7z"/>
<path d="M3305 24 c-20 -16 -25 -24 -14 -24 16 0 56 37 48 44 -2 2 -17 -7 -34
-20z"/>
</g>
</svg>
