<?xml version="1.0" standalone="no"?>
<!DOCTYPE svg PUBLIC "-//W3C//DTD SVG 20010904//EN"
 "http://www.w3.org/TR/2001/REC-SVG-20010904/DTD/svg10.dtd">
<svg version="1.0" xmlns="http://www.w3.org/2000/svg"
 width="1280.000000pt" height="720.000000pt" viewBox="0 0 1280.000000 720.000000"
 preserveAspectRatio="xMidYMid meet">
<metadata>
Created by potrace 1.16, written by Peter Selinger 2001-2019
</metadata>
<g transform="translate(0.000000,720.000000) scale(0.100000,-0.100000)"
fill="#000000" stroke="none">
<path d="M0 5740 c0 -1185 2 -1460 13 -1460 7 0 40 7 72 16 208 55 434 105
760 168 379 73 836 123 1388 152 428 22 1977 15 2222 -9 341 -35 561 -49 690
-44 534 22 895 85 998 175 15 14 17 14 17 0 0 -9 -13 -21 -30 -28 -16 -7 -27
-16 -24 -21 3 -5 -2 -6 -10 -3 -8 3 -27 -1 -43 -10 -72 -37 -327 -82 -578
-102 -401 -31 -513 -29 -1020 23 -245 24 -1794 31 -2222 9 -695 -36 -1119 -91
-1731 -222 -245 -53 -241 -52 -322 -74 -41 -11 -99 -25 -127 -31 l-53 -12 0
-42 0 -43 133 34 c72 19 182 45 242 59 61 13 173 38 250 55 347 77 798 140
1295 181 245 20 346 22 1325 26 998 4 1078 3 1361 -16 166 -12 360 -21 430
-21 146 0 446 35 654 76 74 15 158 27 185 27 35 -1 44 2 30 7 -24 10 -19 11
85 15 43 2 88 10 105 19 17 9 37 16 45 16 13 0 13 1 0 11 -12 8 -10 9 8 4 30
-9 70 4 51 16 -8 4 -25 6 -39 3 -34 -7 105 52 285 121 83 32 168 66 190 75 22
10 77 32 122 50 49 19 80 37 76 43 -3 6 -1 7 6 3 7 -4 47 6 89 22 42 17 103
40 135 51 32 12 96 49 142 84 46 34 166 116 267 181 299 195 617 423 778 557
25 21 92 77 150 124 128 106 132 109 103 102 -13 -3 -23 -1 -23 5 0 6 12 8 26
5 23 -4 49 16 195 150 100 91 186 179 210 214 22 33 70 92 105 132 36 40 109
126 162 191 53 66 152 182 220 258 l123 138 -4761 0 -4760 0 0 -1460z m50
-1488 c0 -5 -7 -9 -15 -9 -8 0 -12 4 -9 9 3 4 9 8 15 8 5 0 9 -4 9 -8z"/>
<path d="M9542 7193 c-18 -7 -235 -251 -354 -399 -53 -65 -126 -151 -162 -191
-35 -40 -82 -98 -104 -130 -22 -32 -111 -124 -201 -206 -88 -82 -161 -156
-162 -165 0 -11 -2 -12 -6 -4 -3 8 -32 -10 -80 -50 -185 -155 -249 -206 -408
-326 -143 -108 -355 -259 -416 -297 -32 -19 -212 -139 -243 -161 -17 -12 -51
-35 -76 -50 -25 -15 -79 -53 -121 -84 -58 -44 -105 -68 -200 -103 -124 -46
-227 -86 -284 -111 -16 -8 -88 -37 -160 -65 -358 -140 -377 -148 -360 -154 26
-11 42 -8 25 3 -11 8 -7 9 15 4 24 -4 27 -3 15 6 -12 9 -10 10 10 5 20 -5 22
-4 10 5 -12 8 -8 9 15 4 24 -4 27 -3 15 6 -12 9 -11 10 6 5 29 -8 61 4 42 17
-8 5 -2 7 17 3 24 -4 26 -3 10 4 l-20 10 20 2 c11 1 29 3 40 4 42 4 46 5 39
17 -4 7 -3 8 5 4 6 -4 21 -4 32 -1 17 6 19 9 8 17 -10 6 -6 7 11 3 20 -5 22
-4 10 5 -12 9 -10 10 9 5 15 -5 21 -3 17 3 -4 6 2 8 16 4 14 -3 19 -1 14 6 -4
7 -2 10 7 7 7 -3 27 1 43 10 16 8 35 15 42 15 7 0 10 5 6 12 -4 6 -3 8 3 5 16
-10 74 13 66 26 -3 6 -1 7 5 3 6 -3 52 12 103 34 51 21 95 38 97 36 6 -7 -20
-19 -208 -96 -96 -39 -189 -78 -207 -86 -69 -31 -243 -98 -338 -130 -55 -19
-109 -38 -120 -43 -30 -14 -142 -34 -205 -36 -30 -2 -127 -16 -215 -33 -88
-17 -229 -38 -313 -48 -83 -10 -149 -21 -145 -25 14 -13 197 10 405 50 112 22
219 42 238 45 35 6 35 6 5 -4 -52 -17 -450 -91 -537 -99 l-83 -8 66 -2 c217
-4 866 132 1066 224 17 8 34 15 38 15 7 0 76 29 175 73 25 11 104 43 175 72
72 29 166 69 210 90 44 20 101 47 127 58 44 21 69 47 31 32 -13 -4 -15 -3 -8
4 7 7 22 8 43 2 27 -8 37 -6 60 13 15 13 61 46 102 74 41 28 125 87 185 131
61 44 121 86 135 93 65 34 253 169 451 325 47 38 107 82 132 100 36 25 45 36
41 55 -3 17 -2 19 3 5 8 -16 10 -16 30 -2 14 10 20 22 17 33 -5 13 -4 14 4 3
8 -11 34 4 129 79 197 156 583 494 583 512 0 4 5 8 12 8 9 0 9 -3 0 -12 -14
-14 -16 -32 -3 -24 5 3 0 -22 -10 -56 -11 -34 -18 -68 -17 -76 2 -8 16 30 32
84 l30 99 104 103 c57 57 102 105 99 109 -3 3 -37 -22 -75 -56 -38 -33 -72
-61 -75 -61 -4 0 -23 -18 -43 -40 -20 -22 -40 -40 -44 -40 -4 0 -45 -37 -90
-82 -52 -52 -72 -68 -55 -44 24 33 26 38 9 32 -18 -7 69 89 129 142 15 13 24
28 21 33 -3 5 -1 8 3 7 13 -4 74 59 158 162 38 47 141 165 227 262 87 97 158
179 158 182 0 7 -40 6 -58 -1z m-677 -840 c-23 -47 -250 -249 -442 -395 -8 -6
-11 -3 -9 9 2 10 10 18 18 18 14 0 73 43 133 96 17 15 80 71 140 124 61 54
112 99 114 101 2 2 -1 4 -8 4 -7 0 -38 -23 -69 -52 l-57 -52 45 48 c25 26 57
57 72 67 26 19 27 19 21 2 -4 -13 -3 -15 5 -8 6 6 12 17 14 25 2 12 25 38 35
40 1 0 -5 -12 -12 -27z m-195 -156 c0 -2 -17 -19 -37 -38 l-38 -34 34 38 c33
34 41 42 41 34z m-290 -273 c0 -8 -19 -13 -24 -6 -3 5 1 9 9 9 8 0 15 -2 15
-3z m-372 -288 c-7 -8 -15 -12 -17 -11 -5 6 10 25 20 25 5 0 4 -6 -3 -14z
m-177 -129 c-10 -9 -11 -8 -5 6 3 10 9 15 12 12 3 -3 0 -11 -7 -18z m-46 -17
c-3 -5 -12 -10 -18 -10 -7 0 -6 4 3 10 19 12 23 12 15 0z m15 -15 c-7 -8 -20
-15 -29 -15 -11 0 -8 5 9 14 33 19 35 19 20 1z m-55 -24 c3 -5 0 -13 -6 -17
-8 -5 -9 -3 -4 6 5 8 3 11 -6 8 -8 -3 -14 -10 -14 -15 0 -6 -4 -15 -9 -20 -6
-5 -6 -2 -1 6 6 11 4 13 -11 8 -14 -5 -12 -2 6 13 28 22 36 24 45 11z m-195
-115 c0 -2 -18 -15 -40 -30 -22 -14 -40 -24 -40 -22 0 5 71 56 77 56 2 0 3 -2
3 -4z m-100 -70 c-8 -7 -52 -39 -98 -70 -46 -31 -77 -56 -69 -56 7 0 55 29
105 65 51 35 92 63 92 60 0 -11 -152 -117 -194 -135 -55 -23 -56 -23 -56 -10
0 5 51 43 113 84 113 76 133 87 107 62z"/>
<path d="M7245 5130 c-3 -6 1 -7 9 -4 18 7 21 14 7 14 -6 0 -13 -4 -16 -10z"/>
<path d="M9443 6992 c-100 -114 -205 -236 -234 -272 -29 -36 -106 -118 -173
-182 -66 -65 -118 -119 -116 -122 3 -2 48 36 100 85 52 49 96 89 98 89 2 0 35
27 74 60 40 33 78 60 85 60 32 0 6 -39 -91 -133 l-103 -102 -31 -100 c-60
-195 -77 -335 -77 -630 0 -207 4 -256 23 -357 64 -339 214 -600 440 -766 86
-63 105 -73 122 -62 11 7 4 19 -31 57 -24 26 -55 62 -67 78 -16 20 -22 23 -17
10 5 -16 4 -18 -6 -7 -9 8 -10 15 -3 22 8 8 19 1 36 -22 51 -67 155 -161 218
-197 77 -45 189 -91 222 -91 13 0 29 -4 36 -8 7 -5 -8 -8 -37 -8 -29 1 -44 4
-38 9 7 5 3 7 -11 4 -13 -3 -20 -1 -16 5 4 5 -1 8 -10 6 -33 -6 -11 -23 75
-58 48 -19 86 -36 84 -39 -3 -2 -41 11 -85 29 -45 17 -84 30 -86 27 -4 -4 63
-32 166 -70 13 -5 13 -6 -1 -6 -14 -1 -101 31 -174 64 -16 7 -48 20 -69 29
-55 23 -207 110 -295 170 -143 96 -253 217 -328 356 -34 64 -54 109 -113 265
-17 43 -45 181 -61 294 -16 114 -6 534 16 661 8 52 27 137 40 189 14 52 24 96
22 98 -2 1 -53 -42 -113 -98 -60 -55 -129 -117 -154 -137 -25 -20 -76 -64
-115 -98 -82 -72 -193 -159 -442 -350 -100 -76 -213 -163 -250 -193 -38 -29
-140 -101 -228 -159 -203 -134 -454 -312 -524 -371 -100 -86 -134 -111 -147
-111 -27 0 -13 25 29 53 l42 28 -40 -35 c-22 -20 -34 -36 -27 -36 14 0 125
100 118 107 -2 2 -70 -28 -150 -66 -81 -39 -149 -71 -153 -71 -3 0 -31 -11
-62 -24 -112 -48 -348 -145 -416 -171 -38 -14 -79 -30 -90 -35 -139 -60 -569
-154 -868 -191 -106 -13 -222 -8 -240 10 -7 7 -62 11 -150 11 -77 0 -275 9
-441 21 -283 19 -363 20 -1361 16 -979 -4 -1080 -6 -1325 -26 -497 -41 -949
-104 -1295 -181 -77 -17 -171 -38 -210 -46 -83 -17 -336 -81 -382 -95 l-33
-11 0 -2024 0 -2024 43 20 c65 30 180 81 202 90 11 4 40 17 65 28 25 12 70 32
100 46 205 91 229 105 223 126 -4 15 -1 20 13 20 16 0 16 -2 4 -10 -8 -5 -11
-12 -7 -17 10 -10 55 13 262 135 70 41 431 281 525 349 36 26 196 144 355 263
160 118 300 222 311 230 12 8 61 43 110 77 49 34 134 94 189 133 201 141 327
360 420 730 45 178 58 297 52 500 -5 193 -17 268 -63 408 -43 132 -43 133 -32
126 6 -4 8 2 4 17 -3 13 5 2 18 -26 14 -30 25 -44 28 -35 3 8 5 2 5 -15 0 -16
11 -74 26 -127 14 -54 31 -135 37 -180 12 -96 12 -362 1 -428 l-8 -45 -3 40
-3 40 -8 -45 c-4 -25 -7 -58 -7 -75 1 -29 1 -29 8 5 6 28 8 30 9 10 2 -40 -44
-229 -89 -362 -45 -136 -129 -315 -162 -344 -12 -11 -3 9 21 46 22 36 41 72
41 80 0 8 -26 -28 -59 -80 -32 -52 -56 -98 -54 -102 2 -4 39 20 83 54 43 34
76 66 73 71 -3 5 -9 3 -14 -4 -7 -11 -9 -10 -9 4 0 18 26 24 32 6 6 -18 84 48
110 93 32 58 72 168 100 275 20 79 22 112 23 318 0 255 -13 355 -66 520 -31
96 -35 117 -14 70 21 -46 18 -7 -5 50 -10 28 -19 41 -20 31 0 -30 -11 -12 -15
26 -2 18 -6 44 -10 58 -16 65 31 -44 71 -164 71 -211 94 -353 94 -588 0 -174
-11 -263 -50 -403 -36 -126 -85 -233 -157 -342 -55 -83 -94 -126 -80 -91 3 10
2 20 -3 23 -6 4 -10 -3 -10 -14 0 -12 -5 -20 -11 -19 -6 2 -14 -3 -17 -11 -3
-9 0 -11 9 -7 8 4 1 -4 -14 -18 -28 -26 -54 -36 -42 -16 3 6 2 10 -4 10 -5 0
-14 -8 -20 -17 -5 -10 -12 -15 -15 -12 -3 3 23 31 58 62 41 36 67 52 73 46 6
-6 29 20 66 73 70 104 83 136 36 88 -19 -19 -79 -68 -132 -108 -54 -40 -95
-78 -91 -83 3 -5 2 -9 -3 -8 -19 5 -69 -15 -83 -32 -15 -18 -131 -103 -295
-214 -44 -30 -121 -85 -171 -122 -135 -100 -624 -462 -662 -490 -26 -20 -30
-28 -22 -43 7 -13 6 -19 -5 -24 -8 -3 -17 0 -21 6 -4 7 -3 8 4 4 7 -4 12 -1
12 9 0 24 -11 18 -167 -87 -331 -224 -463 -296 -918 -498 -262 -116 -270 -120
-273 -150 -4 -35 -13 -37 158 37 58 25 119 51 135 58 302 131 344 152 338 176
-4 14 0 19 13 19 16 0 16 -2 4 -10 -28 -17 0 -24 34 -7 27 12 33 20 29 36 -4
16 -1 21 13 21 16 0 16 -2 4 -10 -8 -5 -11 -12 -6 -17 16 -17 391 213 686 422
30 21 71 50 92 64 20 14 60 44 90 67 161 123 540 403 653 480 72 50 161 112
198 138 128 90 386 159 737 195 52 6 127 13 165 18 39 4 327 7 640 8 541 0
578 2 720 23 252 39 390 77 528 146 66 34 123 67 125 74 2 7 -20 0 -51 -17
-133 -72 -484 -148 -837 -181 -70 -6 -310 -10 -610 -8 -354 2 -522 -1 -590
-10 -52 -6 -135 -17 -185 -23 -99 -12 -334 -66 -351 -80 -6 -5 -14 -6 -17 -2
-10 9 -9 25 1 20 4 -3 59 8 122 24 63 16 160 35 215 43 278 39 313 41 810 38
298 -2 535 1 605 8 318 30 641 95 783 158 79 35 329 211 442 312 143 126 226
248 292 426 77 207 88 269 88 523 0 140 3 206 8 175 9 -59 5 -475 -5 -442 -3
14 -6 16 -7 7 -1 -9 -3 -32 -6 -50 -4 -28 -3 -30 5 -14 8 16 9 13 4 -15 -11
-57 -32 -117 -34 -95 l-1 20 -9 -20 c-5 -11 -9 -27 -9 -35 -1 -13 0 -13 9 0
15 22 12 9 -10 -56 -77 -225 -196 -377 -430 -552 -63 -47 -131 -100 -150 -117
-65 -59 -207 -134 -345 -183 -77 -27 -213 -56 -395 -84 -137 -21 -177 -23
-715 -23 -313 -1 -601 -4 -640 -8 -38 -5 -113 -12 -165 -18 -155 -16 -288 -38
-404 -66 -109 -26 -110 -27 -164 -85 -30 -32 -59 -58 -65 -58 -5 0 11 21 36
47 26 26 45 49 43 51 -9 9 -113 -41 -173 -84 -37 -26 -126 -88 -198 -138 -71
-49 -233 -166 -360 -261 -126 -94 -239 -177 -251 -185 -12 -8 -54 -40 -95 -71
-134 -101 -461 -321 -614 -414 -93 -56 -400 -211 -495 -250 -36 -14 -83 -34
-105 -44 -22 -11 -69 -31 -105 -45 -36 -15 -84 -36 -108 -47 -24 -11 -61 -27
-82 -35 -27 -11 -40 -22 -40 -35 0 -19 47 -19 2103 -19 l2102 1 20 29 c88 126
117 151 234 207 63 29 115 52 117 50 2 -2 -50 -29 -115 -61 -90 -45 -123 -67
-142 -94 -13 -20 -41 -56 -61 -80 -21 -24 -38 -45 -38 -48 0 -12 27 -1 35 15
6 10 30 45 55 79 44 59 50 63 205 138 437 210 467 227 591 349 76 74 162 190
151 202 -3 2 -22 -22 -42 -54 -47 -73 -183 -207 -266 -262 -70 -45 -348 -185
-355 -178 -3 2 69 41 158 85 161 80 234 127 322 210 31 29 43 48 39 59 -6 14
-8 14 -22 -3 -22 -27 -120 -104 -133 -104 -5 0 -21 -9 -35 -20 -14 -11 -31
-20 -37 -20 -6 0 4 10 22 21 18 12 31 24 28 27 -3 2 -17 -3 -31 -12 -14 -9
-25 -14 -25 -12 0 2 35 29 78 59 42 30 99 78 126 106 27 27 53 48 58 45 4 -3
13 5 18 18 9 20 10 20 5 -7 -4 -16 -17 -41 -30 -55 -17 -18 -22 -29 -15 -40 9
-14 14 -7 11 13 0 4 3 6 9 5 15 -5 96 110 139 197 55 112 81 211 81 313 0 108
-31 260 -70 339 -32 68 -90 139 -121 148 -20 7 -27 35 -8 35 5 0 8 -4 5 -9 -6
-9 51 -37 59 -29 9 9 -71 62 -92 60 -13 -1 -23 3 -23 8 0 5 8 7 18 4 11 -4 9
1 -8 16 -46 39 -3 16 60 -33 43 -34 59 -52 52 -59 -7 -7 1 -28 27 -67 21 -31
44 -71 51 -89 7 -18 15 -31 17 -28 3 3 -7 31 -21 63 -19 43 -21 52 -7 34 10
-13 28 -54 40 -90 21 -65 28 -105 11 -66 -13 30 -11 -1 5 -75 l15 -65 -4 60
c-4 51 -3 56 6 30 6 -16 11 -95 11 -175 1 -113 -2 -154 -15 -185 -11 -27 -17
-34 -18 -20 l-1 20 -9 -20 c-5 -11 -9 -27 -9 -35 -1 -13 0 -13 9 0 24 35 -5
-49 -42 -120 -66 -131 -172 -256 -296 -351 -61 -46 -177 -106 -510 -264 -119
-57 -124 -61 -175 -129 -28 -39 -53 -74 -55 -78 -2 -5 701 -8 1562 -8 l1566 0
52 37 c106 75 186 144 249 215 106 119 117 135 112 163 -4 19 -1 25 13 25 15
0 16 -2 5 -9 -7 -5 -12 -14 -9 -21 10 -32 169 217 255 400 124 265 165 328
237 365 68 35 201 124 198 132 -2 4 -8 7 -13 6 -5 -2 -9 2 -9 7 0 14 28 12 32
-2 3 -9 13 -7 33 7 15 11 35 25 44 30 45 28 224 182 282 242 107 110 241 308
381 563 49 90 135 262 161 320 8 19 29 65 46 103 17 37 31 69 31 72 0 2 11 28
24 57 13 29 40 91 61 138 57 128 113 247 151 323 19 38 51 107 70 155 49 119
99 212 135 253 l30 34 -30 -47 c-30 -45 -111 -201 -111 -213 0 -8 -35 -85 -92
-205 -72 -150 -128 -269 -128 -274 0 -2 -18 -43 -40 -90 -22 -47 -40 -88 -40
-91 0 -2 -13 -33 -29 -67 -15 -35 -43 -97 -61 -138 -102 -234 -284 -557 -426
-755 -99 -137 -236 -268 -427 -405 -19 -14 -33 -29 -29 -34 3 -5 0 -6 -6 -3
-14 9 -258 -143 -299 -185 -36 -38 -89 -135 -158 -290 -141 -319 -385 -621
-645 -800 -24 -17 -23 -17 56 -17 l81 -1 95 93 c242 237 387 457 508 772 94
245 104 264 159 287 79 34 143 69 226 126 44 30 99 68 122 84 75 51 252 228
322 322 37 50 104 152 148 226 85 143 203 349 203 355 0 2 22 51 49 109 27 57
59 128 72 158 12 29 30 73 42 98 11 25 44 101 74 170 70 161 85 193 145 320
28 58 67 150 88 205 46 125 70 172 127 254 25 36 49 75 53 87 13 32 123 118
205 159 84 42 288 110 406 136 47 10 171 28 275 39 220 24 451 60 649 101 77
17 172 36 212 44 277 55 620 157 903 268 36 14 82 31 103 38 35 12 37 15 37
56 0 24 -3 43 -7 43 -5 0 -42 -14 -83 -31 -326 -133 -744 -256 -1185 -349 -33
-7 -96 -21 -140 -31 -91 -21 -325 -61 -495 -84 -217 -29 -333 -57 -500 -122
-69 -26 -188 -82 -205 -95 -5 -5 -39 -31 -75 -59 -84 -65 -231 -210 -224 -221
3 -4 0 -8 -5 -8 -25 0 -6 27 72 104 137 137 222 200 327 245 30 13 64 27 75
32 114 49 312 104 428 119 230 30 483 73 652 110 50 11 124 27 165 36 150 32
479 116 625 161 148 44 433 148 509 184 22 11 46 19 53 19 11 0 13 237 13
1320 l0 1320 -1587 0 -1588 -1 -182 -207z m57 -2364 c23 -27 40 -48 37 -48 -9
0 -87 84 -87 94 0 5 1 7 3 5 2 -2 23 -25 47 -51z m-4455 -163 c25 -8 32 -13
20 -14 -11 -1 18 -17 65 -35 47 -17 132 -56 189 -84 57 -29 106 -50 108 -48 7
6 -219 118 -284 141 -29 10 -51 21 -48 23 15 15 299 -122 420 -203 107 -72
327 -250 385 -310 57 -61 32 -47 -40 21 -78 75 -212 184 -224 184 -12 0 -9 -2
104 -98 113 -95 201 -179 234 -223 22 -31 72 -186 63 -196 -4 -3 -16 35 -37
114 -33 130 -433 462 -725 604 -156 75 -261 110 -360 118 l-80 6 65 6 c99 9
102 8 145 -6z m4895 -85 c20 -6 21 -8 5 -8 -11 0 -29 3 -40 8 -25 11 1 11 35
0z m-4284 -152 c16 -13 34 -27 41 -33 7 -5 19 -16 27 -22 8 -7 20 -13 26 -13
16 0 12 -20 -6 -27 -9 -3 -24 3 -37 18 -13 13 -15 17 -4 9 9 -7 20 -11 23 -8
5 6 -56 56 -100 80 -19 10 -24 17 -15 18 9 0 29 -10 45 -22z m-5359 -20 c-3
-8 -6 -5 -6 6 -1 11 2 17 5 13 3 -3 4 -12 1 -19z m5354 -6 c24 -22 29 -31 19
-37 -8 -5 -11 -4 -6 3 3 5 -10 20 -29 32 -19 12 -35 24 -35 26 0 12 23 1 51
-24z m119 -92 c0 -5 5 -10 11 -10 5 0 7 5 3 11 -4 8 -1 8 13 1 43 -24 163
-186 163 -222 0 -11 57 -99 71 -110 22 -17 81 -148 100 -220 32 -122 32 -357
1 -520 -22 -114 -50 -224 -35 -135 9 51 9 91 1 135 -7 34 -7 34 7 -5 l15 -40
-5 40 c-3 22 -7 112 -9 200 l-3 160 6 -140 6 -140 8 105 c8 111 -3 259 -26
345 -8 28 -28 79 -46 113 -18 35 -28 61 -23 58 18 -11 70 -133 87 -206 14 -56
18 -118 19 -245 0 -140 1 -158 9 -105 11 91 0 292 -22 375 -22 84 -67 176
-127 258 -24 34 -44 67 -44 75 0 28 -113 192 -132 192 -5 0 3 -17 19 -37 36
-47 52 -77 23 -43 -57 65 -92 100 -100 100 -6 0 -10 5 -10 10 0 6 5 10 10 10
6 0 10 -4 10 -10z m-3221 -343 c69 -71 129 -153 173 -235 37 -70 60 -131 38
-102 -9 12 -10 9 -5 -13 4 -19 2 -26 -5 -22 -5 3 -10 12 -10 19 0 21 -73 153
-121 219 -24 33 -68 84 -97 113 -30 30 -50 54 -45 54 14 0 107 -100 157 -170
25 -35 46 -58 46 -52 0 32 -154 215 -195 232 -15 7 -16 9 -4 9 9 1 40 -23 68
-52z m3536 -235 c9 -45 15 -92 13 -105 -2 -12 -8 7 -13 43 -7 49 -10 58 -13
35 -4 -27 -6 -24 -18 25 -17 72 -16 98 2 40 l14 -45 -5 42 c-3 23 -8 50 -11
60 -4 14 -4 15 4 3 6 -8 17 -52 27 -98z m0 -704 c-4 -18 -11 -37 -15 -42 -5
-5 -4 10 2 33 12 48 23 56 13 9z m-979 -1033 c10 -8 14 -15 7 -15 -6 0 -15 5
-18 10 -3 6 -18 9 -33 9 -21 -1 -22 -2 -7 -6 34 -8 38 -20 5 -15 -16 2 -30 8
-30 11 0 25 47 28 76 6z m122 -88 c132 -107 203 -227 238 -402 77 -385 -155
-769 -625 -1034 -49 -27 -78 -38 -84 -32 -6 6 17 26 68 58 290 181 436 327
552 551 26 51 42 74 39 57 -6 -29 -6 -29 10 5 9 19 18 51 20 70 l4 35 -14 -40
c-19 -53 -19 -44 -1 40 31 147 10 327 -51 448 -9 18 -36 61 -61 97 -42 63 -42
64 -7 25 20 -22 51 -69 69 -105 19 -36 34 -58 35 -50 0 9 -20 49 -44 90 -41
70 -124 160 -216 233 -19 16 -28 25 -20 21 8 -4 48 -34 88 -67z m-2660 -127
c-7 -11 -19 -22 -28 -25 -8 -4 -4 5 9 19 29 31 36 33 19 6z m-198 -48 c0 -13
-12 -22 -22 -16 -10 6 -1 24 13 24 5 0 9 -4 9 -8z"/>
<path d="M4985 4460 c17 -4 39 -8 50 -8 16 0 15 2 -5 8 -14 4 -36 8 -50 8 -22
0 -22 -1 5 -8z"/>
<path d="M5430 4276 c0 -2 19 -16 43 -31 23 -15 66 -46 95 -68 29 -22 55 -38
57 -35 7 6 1 11 -99 82 -69 50 -96 64 -96 52z"/>
<path d="M5795 4090 c3 -5 8 -10 11 -10 2 0 4 5 4 10 0 6 -5 10 -11 10 -5 0
-7 -4 -4 -10z"/>
<path d="M6122 3090 c0 -19 2 -27 5 -17 2 9 2 25 0 35 -3 9 -5 1 -5 -18z"/>
<path d="M2682 3562 c20 -46 62 -122 65 -118 5 5 -55 126 -63 126 -3 0 -4 -3
-2 -8z"/>
<path d="M5425 1395 c4 -16 13 -61 21 -100 11 -48 14 -104 11 -180 -2 -60 -1
-96 3 -80 13 52 11 201 -4 272 -15 71 -43 150 -31 88z"/>
<path d="M5376 823 c-93 -190 -288 -380 -548 -534 -32 -18 -58 -37 -58 -41 0
-9 97 46 210 121 95 62 252 212 324 311 52 70 109 176 104 191 -2 6 -16 -16
-32 -48z"/>
<path d="M8986 6203 c-25 -139 -35 -274 -36 -478 0 -285 37 -485 126 -683 13
-29 24 -54 24 -57 0 -10 79 -136 116 -185 62 -82 165 -175 274 -246 106 -70
299 -174 321 -174 8 0 -38 28 -101 61 -317 168 -470 307 -585 533 -64 126
-108 257 -137 411 -20 105 -23 150 -22 365 0 232 6 301 40 503 4 20 4 37 1 37
-3 0 -12 -39 -21 -87z"/>
<path d="M5928 4613 c6 -2 18 -2 25 0 6 3 1 5 -13 5 -14 0 -19 -2 -12 -5z"/>
<path d="M9562 4551 c-11 -7 -11 -9 0 -14 7 -4 36 -20 63 -37 83 -50 174 -92
186 -84 6 3 -7 14 -31 25 -23 10 -46 16 -51 13 -5 -3 -9 -1 -9 5 0 6 -15 18
-32 27 -18 9 -48 30 -66 45 -35 31 -40 33 -60 20z"/>
<path d="M12655 4400 c-301 -115 -629 -211 -898 -265 -40 -8 -135 -27 -212
-44 -198 -41 -429 -77 -649 -101 -104 -11 -228 -29 -275 -40 -120 -26 -324
-95 -401 -136 -85 -45 -197 -133 -205 -162 -3 -12 -25 -48 -49 -80 -47 -62
-105 -178 -129 -257 -8 -27 -24 -70 -35 -95 -30 -68 -130 -281 -147 -313 -8
-16 -15 -32 -15 -37 0 -4 -18 -48 -41 -97 -38 -82 -59 -130 -78 -178 -9 -22
-32 -74 -82 -185 -104 -231 -302 -577 -420 -736 -74 -98 -248 -271 -332 -329
-160 -111 -226 -151 -295 -181 -89 -38 -104 -56 -150 -171 -17 -43 -52 -132
-77 -197 -26 -66 -61 -144 -78 -175 -16 -31 -36 -68 -44 -83 -21 -42 -163
-239 -217 -304 -28 -33 -90 -98 -139 -146 l-89 -88 2601 0 2601 0 0 2225 c0
1224 -3 2225 -7 2225 -5 -1 -66 -23 -138 -50z m-3485 -2555 c0 -8 -4 -15 -8
-15 -5 0 -9 7 -9 15 0 8 4 15 9 15 4 0 8 -7 8 -15z"/>
<path d="M2780 3364 c0 -6 12 -44 26 -85 51 -149 66 -242 73 -464 l8 -210 1
160 c2 184 -8 286 -43 418 -24 91 -64 202 -65 181z"/>
<path d="M2915 3110 c3 -14 14 -58 25 -98 39 -145 53 -293 47 -497 -5 -208
-22 -295 -87 -460 -17 -44 -34 -87 -37 -95 -4 -10 -3 -12 5 -5 18 17 68 155
98 270 28 106 29 118 29 345 -1 255 -13 353 -60 493 -14 40 -22 61 -20 47z"/>
<path d="M6046 2874 c-4 -20 -5 -38 -3 -40 3 -3 8 11 11 32 4 20 5 38 3 40 -3
3 -8 -11 -11 -32z"/>
<path d="M5986 2694 c-53 -143 -142 -273 -264 -385 -69 -63 -259 -208 -325
-248 -20 -12 -34 -27 -31 -32 6 -11 12 -8 96 57 29 22 87 66 128 96 156 116
272 239 339 361 38 69 93 205 89 218 -2 5 -16 -25 -32 -67z"/>
<path d="M2842 2410 c-20 -101 -71 -265 -113 -369 -40 -98 -47 -139 -9 -54 57
128 146 431 138 470 -2 9 -9 -12 -16 -47z"/>
<path d="M2550 1735 c-14 -16 -3 -20 19 -6 8 5 9 11 3 15 -5 3 -15 -1 -22 -9z"/>
<path d="M2650 1695 c-8 -9 -8 -15 -2 -15 12 0 26 19 19 26 -2 2 -10 -2 -17
-11z"/>
<path d="M5332 1450 c0 -14 2 -19 5 -12 2 6 2 18 0 25 -3 6 -5 1 -5 -13z"/>
<path d="M5368 1170 c-3 -63 -9 -128 -12 -145 -3 -16 1 -6 9 23 11 35 15 85
13 145 l-3 92 -7 -115z"/>
<path d="M5292 867 c-18 -39 -31 -72 -28 -74 6 -6 69 124 65 135 -2 5 -19 -23
-37 -61z"/>
<path d="M5095 681 c-22 -24 -66 -62 -97 -84 -32 -22 -55 -43 -53 -46 15 -14
202 146 194 166 -2 4 -22 -12 -44 -36z"/>
</g>
</svg>
