<?xml version="1.0" standalone="no"?>
<!DOCTYPE svg PUBLIC "-//W3C//DTD SVG 20010904//EN"
 "http://www.w3.org/TR/2001/REC-SVG-20010904/DTD/svg10.dtd">
<svg version="1.0" xmlns="http://www.w3.org/2000/svg"
 width="1280.000000pt" height="720.000000pt" viewBox="0 0 1280.000000 720.000000"
 preserveAspectRatio="xMidYMid meet">
<metadata>
Created by potrace 1.16, written by Peter Selinger 2001-2019
</metadata>
<g transform="translate(0.000000,720.000000) scale(0.100000,-0.100000)"
fill="#000000" stroke="none">
<path d="M0 5740 c0 -1185 2 -1460 13 -1460 7 0 40 7 72 16 270 71 738 170
990 208 649 99 1128 126 2220 126 770 0 967 -5 1265 -35 333 -32 522 -40 693
-27 89 7 223 17 297 23 269 20 518 82 593 147 15 14 17 14 17 0 0 -9 -13 -21
-30 -28 -16 -7 -27 -16 -24 -21 3 -5 -2 -6 -10 -3 -8 3 -27 -1 -43 -10 -64
-33 -324 -82 -503 -95 -74 -6 -208 -16 -297 -23 -171 -13 -360 -5 -693 27
-298 30 -495 35 -1265 35 -832 0 -1145 -10 -1590 -50 -444 -41 -735 -86 -1203
-186 -245 -53 -241 -52 -322 -74 -41 -11 -99 -25 -127 -31 l-53 -12 0 -42 0
-43 133 34 c72 19 182 45 242 59 61 13 173 38 250 55 347 77 798 140 1295 181
245 20 346 22 1325 26 998 4 1078 3 1361 -16 166 -12 360 -21 430 -21 119 0
435 33 573 60 61 11 102 12 56 0 -27 -7 -28 -8 -5 -8 14 -1 52 5 85 13 l60 15
-55 -5 c-67 -5 -58 0 38 19 40 8 88 13 105 10 26 -3 28 -2 12 5 -24 11 -20 12
85 16 43 2 88 10 105 19 17 9 37 16 45 16 13 0 13 1 0 11 -12 8 -10 9 8 4 30
-9 70 4 51 16 -8 4 -25 6 -39 3 -34 -7 105 52 285 121 83 32 168 66 190 75 22
10 77 32 122 50 49 19 80 37 76 43 -3 6 -1 7 6 3 7 -4 47 6 89 22 42 17 103
40 135 51 32 12 96 49 142 84 46 34 166 116 267 181 299 195 617 423 778 557
25 21 92 77 150 124 128 106 132 109 103 102 -13 -3 -23 -1 -23 5 0 6 12 8 26
5 23 -4 49 16 195 150 100 91 186 179 210 214 22 33 70 92 105 132 36 40 109
126 162 191 53 66 152 182 220 258 l123 138 -4761 0 -4760 0 0 -1460z m50
-1488 c0 -5 -7 -9 -15 -9 -8 0 -12 4 -9 9 3 4 9 8 15 8 5 0 9 -4 9 -8z"/>
<path d="M9542 7193 c-18 -7 -235 -251 -354 -399 -53 -65 -126 -151 -162 -191
-35 -40 -82 -98 -104 -130 -22 -32 -111 -124 -201 -206 -88 -82 -161 -156
-162 -165 0 -11 -2 -12 -6 -4 -3 8 -32 -10 -80 -50 -185 -155 -249 -206 -408
-326 -143 -108 -355 -259 -416 -297 -32 -19 -212 -139 -243 -161 -17 -12 -51
-35 -76 -50 -25 -15 -79 -53 -121 -84 -58 -44 -105 -68 -200 -103 -124 -46
-227 -86 -284 -111 -16 -8 -88 -37 -160 -65 -358 -140 -377 -148 -360 -154 26
-11 42 -8 25 3 -11 8 -7 9 15 4 24 -4 27 -3 15 6 -12 9 -10 10 10 5 20 -5 22
-4 10 5 -12 8 -8 9 15 4 24 -4 27 -3 15 6 -12 9 -11 10 6 5 29 -8 61 4 42 17
-8 5 -2 7 17 3 24 -4 26 -3 10 4 l-20 10 20 2 c11 1 29 3 40 4 42 4 46 5 39
17 -4 7 -3 8 5 4 6 -4 21 -4 32 -1 17 6 19 9 8 17 -10 6 -6 7 11 3 20 -5 22
-4 10 5 -12 9 -10 10 9 5 15 -5 21 -3 17 3 -4 6 2 8 16 4 14 -3 19 -1 14 6 -4
7 -2 10 7 7 7 -3 27 1 43 10 16 8 35 15 42 15 7 0 10 5 6 12 -4 6 -3 8 3 5 16
-10 74 13 66 26 -3 6 -1 7 5 3 6 -3 52 12 103 34 51 21 95 38 97 36 6 -7 -20
-19 -208 -96 -96 -39 -189 -78 -207 -86 -69 -31 -243 -98 -338 -130 -55 -19
-109 -38 -120 -43 -33 -15 -188 -41 -210 -36 -11 3 -33 1 -50 -5 -27 -9 -26
-9 15 -5 37 3 31 0 -30 -16 -41 -11 -111 -22 -155 -23 -108 -4 -457 -48 -448
-57 11 -10 173 7 310 31 63 12 118 19 121 16 3 -3 1 -6 -4 -6 -5 0 -61 -9
-124 -21 -62 -11 -150 -24 -194 -28 l-81 -8 66 -2 c218 -4 865 132 1066 224
17 8 34 15 38 15 7 0 76 29 175 73 25 11 104 43 175 72 72 29 166 69 210 90
44 20 101 47 127 58 44 21 69 47 31 32 -13 -4 -15 -3 -8 4 7 7 22 8 43 2 27
-8 37 -6 60 13 15 13 61 46 102 74 41 28 125 87 185 131 61 44 121 86 135 93
65 34 253 169 451 325 47 38 107 82 132 100 36 25 45 36 41 55 -3 17 -2 19 3
5 8 -16 10 -16 30 -2 14 10 20 22 17 33 -5 13 -4 14 4 3 7 -10 29 1 98 54 162
124 614 519 614 537 0 4 5 8 12 8 9 0 9 -3 0 -12 -14 -14 -16 -32 -3 -24 5 3
0 -22 -10 -56 -11 -34 -18 -68 -17 -76 2 -8 16 30 32 84 l30 99 104 103 c57
57 102 105 99 109 -3 3 -37 -22 -75 -56 -38 -33 -72 -61 -75 -61 -4 0 -23 -18
-43 -40 -20 -22 -40 -40 -44 -40 -4 0 -45 -37 -90 -82 -52 -52 -72 -68 -55
-44 24 33 26 38 9 32 -18 -7 69 89 129 142 15 13 24 28 21 33 -3 5 -1 8 3 7
13 -4 74 59 158 162 38 47 141 165 227 262 87 97 158 179 158 182 0 7 -40 6
-58 -1z m-677 -840 c-14 -28 -126 -136 -265 -254 -64 -55 -93 -78 -177 -141
-8 -6 -11 -3 -9 9 2 10 10 18 19 18 8 0 29 13 46 28 17 15 34 27 37 27 4 0 23
15 43 34 27 25 228 205 260 232 2 2 -1 4 -8 4 -7 0 -38 -23 -69 -52 l-57 -52
45 48 c25 26 57 57 72 67 26 19 27 19 21 2 -4 -13 -3 -15 5 -8 6 6 12 17 14
25 2 12 25 38 35 40 1 0 -5 -12 -12 -27z m-195 -156 c0 -2 -17 -19 -37 -38
l-38 -34 34 38 c33 34 41 42 41 34z m-140 -132 c-7 -8 -17 -15 -23 -15 -6 0
-2 7 9 15 25 19 30 19 14 0z m-150 -141 c0 -8 -19 -13 -24 -6 -3 5 1 9 9 9 8
0 15 -2 15 -3z m-372 -288 c-7 -8 -15 -12 -17 -11 -5 6 10 25 20 25 5 0 4 -6
-3 -14z m-177 -129 c-10 -9 -11 -8 -5 6 3 10 9 15 12 12 3 -3 0 -11 -7 -18z
m-46 -17 c-3 -5 -12 -10 -18 -10 -7 0 -6 4 3 10 19 12 23 12 15 0z m15 -15
c-7 -8 -20 -15 -29 -15 -11 0 -8 5 9 14 33 19 35 19 20 1z m-55 -24 c3 -5 0
-13 -6 -17 -8 -5 -9 -3 -4 6 5 8 3 11 -6 8 -8 -3 -14 -10 -14 -15 0 -6 -4 -15
-9 -20 -6 -5 -6 -2 -1 6 6 11 4 13 -11 8 -14 -5 -12 -2 6 13 28 22 36 24 45
11z m-195 -115 c0 -2 -18 -15 -40 -30 -22 -14 -40 -24 -40 -22 0 5 71 56 77
56 2 0 3 -2 3 -4z m-100 -70 c-8 -7 -52 -39 -98 -70 -46 -31 -77 -56 -69 -56
7 0 55 29 105 65 51 35 92 63 92 60 0 -11 -152 -117 -194 -135 -55 -23 -56
-23 -56 -10 0 5 51 43 113 84 113 76 133 87 107 62z"/>
<path d="M7245 5130 c-3 -6 1 -7 9 -4 18 7 21 14 7 14 -6 0 -13 -4 -16 -10z"/>
<path d="M9443 6992 c-100 -114 -205 -236 -234 -272 -29 -36 -106 -118 -173
-182 -66 -65 -118 -119 -116 -122 3 -2 48 36 100 85 52 49 96 89 98 89 2 0 35
27 74 60 40 33 78 60 85 60 32 0 6 -39 -91 -133 l-103 -102 -31 -100 c-60
-195 -77 -335 -77 -630 0 -207 4 -256 23 -357 64 -339 214 -600 440 -766 86
-63 105 -73 122 -62 11 7 4 19 -31 57 -24 26 -55 62 -67 78 -16 20 -22 23 -17
10 5 -16 4 -18 -6 -7 -9 8 -10 15 -3 22 8 8 19 1 36 -22 51 -67 155 -161 218
-197 77 -45 189 -91 222 -91 13 0 29 -4 36 -8 7 -5 -8 -8 -37 -8 -29 1 -44 4
-38 9 7 5 3 7 -11 4 -13 -3 -20 -1 -16 5 4 5 -1 8 -10 6 -33 -6 -11 -24 76
-58 48 -19 88 -41 88 -47 0 -7 -6 -13 -13 -13 -13 0 -107 35 -172 65 -16 7
-48 20 -69 29 -55 23 -207 110 -295 170 -143 96 -253 217 -328 356 -34 64 -54
109 -113 265 -10 25 -25 87 -47 195 -15 70 -18 136 -18 365 1 301 11 398 61
586 13 50 23 94 21 96 -2 1 -53 -42 -113 -98 -60 -55 -129 -117 -154 -138 -25
-20 -91 -75 -145 -122 -55 -47 -138 -115 -185 -151 -147 -111 -407 -311 -477
-367 -38 -29 -140 -101 -228 -159 -203 -134 -454 -312 -524 -371 -100 -86
-134 -111 -147 -111 -27 0 -13 25 29 53 l42 28 -40 -35 c-22 -20 -34 -36 -27
-36 14 0 125 100 118 107 -2 2 -70 -28 -150 -66 -81 -39 -149 -71 -153 -71 -3
0 -31 -11 -62 -24 -112 -48 -348 -145 -416 -171 -38 -14 -79 -30 -90 -35 -41
-17 -183 -60 -285 -84 -377 -92 -780 -140 -823 -97 -7 7 -60 11 -150 11 -77 0
-275 9 -441 21 -283 19 -363 20 -1361 16 -979 -4 -1080 -6 -1325 -26 -497 -41
-949 -104 -1295 -181 -77 -17 -171 -38 -210 -46 -83 -17 -336 -81 -382 -95
l-33 -11 0 -2024 0 -2024 48 22 c72 33 143 64 187 83 22 10 58 26 80 36 22 10
65 29 95 42 193 86 228 106 223 127 -4 15 -1 20 13 20 16 0 16 -2 4 -10 -8 -5
-11 -12 -7 -17 10 -10 55 13 262 135 70 41 431 281 525 349 36 26 196 144 355
263 160 118 300 222 311 230 12 8 61 43 110 77 49 34 134 94 189 133 201 141
327 360 420 730 45 178 58 297 52 500 -6 209 -26 321 -91 498 -9 24 -11 40 -5
36 7 -4 9 2 5 17 -3 13 5 2 18 -26 14 -30 25 -44 28 -35 3 8 5 2 5 -15 1 -16
13 -75 27 -130 14 -55 30 -136 36 -180 12 -93 12 -360 1 -425 l-8 -45 -3 40
-3 40 -8 -45 c-4 -25 -7 -58 -7 -75 1 -29 1 -29 8 5 6 28 8 30 9 10 2 -40 -44
-229 -89 -362 -45 -136 -129 -315 -162 -344 -12 -11 -3 9 21 46 22 36 41 72
41 80 0 8 -26 -28 -59 -80 -32 -52 -56 -98 -54 -102 2 -4 39 20 83 54 43 34
76 66 73 71 -3 5 -9 3 -14 -4 -7 -11 -9 -10 -9 4 0 18 26 24 32 6 6 -18 84 48
110 93 32 58 72 168 100 275 20 79 22 112 23 318 0 255 -13 355 -66 520 -31
96 -35 117 -14 70 21 -46 18 -7 -5 50 -11 29 -20 42 -20 30 l-1 -20 -9 20
c-12 28 -12 43 1 25 8 -12 9 -11 6 5 -2 11 -7 19 -13 18 -5 -1 -10 13 -10 30
l-1 30 15 -29 c25 -46 100 -279 116 -358 37 -176 48 -450 25 -611 -25 -183
-96 -371 -196 -522 -55 -83 -94 -126 -80 -91 3 10 2 20 -3 23 -6 4 -10 -3 -10
-14 0 -12 -5 -20 -11 -19 -6 2 -14 -3 -17 -11 -3 -9 0 -11 9 -7 8 4 1 -4 -14
-18 -28 -26 -54 -36 -42 -16 3 6 2 10 -4 10 -5 0 -14 -8 -20 -17 -5 -10 -12
-15 -15 -12 -3 3 23 31 58 62 41 36 67 52 73 46 6 -6 29 20 66 73 70 104 83
136 36 88 -19 -19 -79 -68 -132 -108 -54 -40 -95 -78 -91 -83 3 -5 2 -9 -3 -8
-19 5 -69 -15 -83 -32 -15 -18 -131 -103 -295 -214 -44 -30 -121 -85 -171
-122 -135 -100 -624 -462 -662 -490 -26 -20 -30 -28 -22 -43 7 -13 6 -19 -5
-24 -8 -3 -17 0 -21 6 -4 7 -3 8 4 4 7 -4 12 -1 12 9 0 24 -11 18 -167 -87
-308 -208 -492 -310 -828 -458 -77 -34 -158 -70 -180 -80 -22 -11 -71 -32
-110 -49 -63 -26 -70 -32 -73 -60 -4 -36 -13 -38 158 36 58 25 119 51 135 58
277 120 340 152 340 172 0 9 7 18 15 20 13 4 13 3 0 -6 -26 -18 0 -25 34 -8
27 12 33 20 29 36 -4 16 -1 21 13 21 16 0 16 -2 4 -10 -8 -5 -11 -12 -6 -17
16 -17 391 213 686 422 30 21 71 50 92 64 20 14 60 44 90 67 290 222 636 472
878 635 115 77 382 144 710 178 52 6 127 13 165 17 39 5 329 8 645 9 540 1
583 2 715 23 254 39 393 78 528 146 66 34 123 67 125 74 2 7 -20 0 -51 -17
-133 -72 -483 -148 -837 -181 -70 -7 -306 -10 -605 -8 -484 3 -529 1 -775 -33
-135 -18 -333 -63 -356 -81 -11 -8 -24 -1 -24 14 0 5 4 7 9 4 5 -3 30 1 57 9
68 20 225 52 314 64 246 34 291 36 775 33 298 -2 535 1 605 8 318 30 641 95
783 158 79 35 329 211 442 312 138 122 223 244 287 411 79 206 102 347 96 586
-2 98 -1 158 3 133 4 -25 8 -112 8 -195 1 -96 6 -166 15 -195 l14 -45 7 58 c4
32 5 61 1 64 -3 4 -7 -9 -7 -28 l-1 -34 -9 40 c-4 22 -7 101 -6 175 l1 135 6
-145 5 -145 8 105 c8 111 -3 259 -26 345 -8 28 -28 79 -46 113 -18 35 -28 61
-23 58 18 -11 70 -133 87 -206 14 -56 18 -118 19 -245 0 -140 1 -158 9 -105
11 91 0 292 -22 375 -22 84 -67 176 -127 258 -24 34 -44 67 -44 75 0 28 -113
192 -132 192 -5 0 3 -17 19 -38 36 -46 52 -76 23 -42 -54 62 -90 98 -102 103
-8 2 -9 8 -4 13 5 5 11 4 13 -3 3 -7 9 -13 14 -13 6 0 7 5 3 11 -4 8 -1 8 13
1 43 -24 163 -186 163 -222 0 -11 57 -99 71 -110 22 -17 81 -147 98 -215 27
-107 36 -275 22 -395 -14 -117 -54 -312 -59 -287 -2 10 -10 30 -19 45 l-15 27
6 -35 c3 -20 0 -55 -8 -80 -8 -26 -15 -37 -16 -25 l-1 20 -9 -20 c-5 -11 -9
-27 -9 -35 -1 -13 0 -13 9 0 15 22 12 9 -10 -56 -77 -225 -196 -377 -430 -552
-63 -47 -131 -100 -150 -117 -98 -89 -308 -183 -500 -224 -292 -63 -329 -65
-950 -66 -316 -1 -606 -4 -645 -9 -38 -4 -113 -11 -165 -17 -155 -16 -288 -38
-404 -66 -109 -26 -110 -27 -164 -85 -44 -46 -58 -56 -69 -47 -11 10 -11 15 4
31 10 11 27 25 38 30 14 8 12 2 -9 -21 -17 -17 -25 -31 -19 -31 12 0 75 71 69
77 -1 2 -22 -4 -46 -12 -42 -15 -78 -37 -235 -146 -44 -31 -125 -87 -180 -126
-55 -38 -190 -137 -300 -219 -110 -82 -209 -156 -221 -164 -12 -8 -54 -40 -95
-71 -134 -101 -461 -321 -614 -414 -93 -56 -400 -211 -495 -250 -36 -14 -83
-34 -105 -44 -22 -11 -69 -31 -105 -45 -36 -15 -84 -36 -108 -47 -24 -11 -61
-27 -82 -35 -27 -11 -40 -22 -40 -35 0 -19 47 -19 2103 -19 l2102 1 20 29 c88
126 117 151 234 207 63 29 115 52 117 50 2 -2 -50 -29 -115 -61 -90 -45 -123
-67 -142 -94 -13 -20 -41 -56 -61 -80 -21 -24 -38 -45 -38 -48 0 -12 27 -1 35
15 6 10 30 45 55 79 44 59 50 63 205 138 437 210 467 227 591 349 76 74 162
190 151 202 -3 2 -22 -22 -42 -54 -47 -73 -183 -207 -266 -262 -70 -45 -348
-185 -355 -178 -3 2 69 41 158 85 161 80 234 127 322 210 31 29 43 48 39 59
-6 14 -8 14 -22 -3 -22 -27 -120 -104 -133 -104 -5 0 -21 -9 -35 -20 -14 -11
-31 -20 -37 -20 -6 0 4 10 22 21 18 12 31 24 28 27 -3 2 -17 -3 -31 -12 -14
-9 -25 -14 -25 -12 0 2 35 29 78 59 42 30 99 78 126 106 27 27 53 48 58 45 4
-3 13 5 18 18 9 20 10 20 5 -7 -4 -16 -17 -41 -30 -55 -17 -18 -22 -29 -15
-40 9 -14 14 -7 11 13 0 4 3 6 9 5 15 -5 96 110 139 197 55 112 81 211 81 313
0 108 -31 260 -70 339 -32 68 -90 139 -121 148 -20 7 -27 35 -8 35 5 0 8 -4 5
-9 -6 -9 51 -37 59 -29 9 9 -71 62 -92 60 -13 -1 -23 3 -23 8 0 5 8 7 18 4 11
-4 9 1 -8 16 -46 39 -3 16 60 -33 43 -34 59 -52 52 -59 -7 -7 1 -28 27 -67 21
-31 44 -71 51 -89 7 -18 15 -31 17 -28 3 3 -7 31 -21 63 -19 43 -21 52 -7 34
10 -13 28 -54 40 -90 21 -65 28 -105 11 -66 -13 30 -11 -1 5 -75 l15 -65 -4
60 c-4 51 -3 56 6 30 6 -16 11 -95 11 -175 1 -113 -2 -154 -15 -185 -11 -27
-17 -34 -18 -20 l-1 20 -9 -20 c-5 -11 -9 -27 -9 -35 -1 -13 0 -13 9 0 24 35
-5 -49 -42 -120 -66 -131 -172 -256 -296 -351 -61 -46 -177 -106 -510 -264
-119 -57 -124 -61 -175 -129 -28 -39 -53 -74 -55 -78 -2 -5 701 -8 1562 -8
l1566 0 52 37 c106 75 186 144 249 215 106 119 117 135 112 163 -4 19 -1 25
13 25 15 0 16 -2 5 -9 -7 -5 -12 -14 -9 -21 5 -15 85 91 147 193 23 38 69 125
102 195 136 286 170 339 243 377 68 35 201 124 198 132 -2 4 -8 7 -13 6 -5 -2
-9 2 -9 7 0 14 28 12 32 -2 3 -9 13 -7 33 7 15 11 35 25 44 30 45 28 224 182
282 242 169 174 435 621 582 978 14 33 39 89 55 125 16 36 47 103 67 150 56
126 112 247 150 321 19 37 55 116 80 177 26 61 64 139 85 174 21 35 36 66 34
70 -9 15 -32 -4 -42 -35 -9 -29 -10 -30 -11 -7 -1 19 20 46 87 110 48 47 110
103 137 125 80 65 112 83 260 146 114 49 312 104 428 119 240 31 454 67 647
109 52 12 129 28 170 37 150 32 478 116 625 161 148 44 433 148 509 184 22 11
46 19 53 19 11 0 13 237 13 1320 l0 1320 -1587 0 -1588 -1 -182 -207z m57
-2364 c23 -27 40 -48 37 -48 -9 0 -87 84 -87 94 0 5 1 7 3 5 2 -2 23 -25 47
-51z m-4455 -163 c25 -8 32 -13 20 -14 -11 -1 18 -17 65 -35 47 -17 132 -56
189 -84 57 -29 106 -50 108 -48 7 6 -219 118 -284 141 -29 10 -51 21 -48 23
15 15 299 -122 420 -203 109 -73 328 -250 385 -311 l45 -48 -63 55 c-160 138
-236 199 -246 199 -6 -1 7 -15 29 -33 117 -95 269 -235 300 -277 23 -32 42
-75 55 -126 11 -42 18 -79 17 -81 -4 -3 -16 35 -37 114 -33 130 -433 462 -725
604 -156 75 -261 110 -360 118 l-80 6 65 6 c99 9 102 8 145 -6z m4895 -85 c20
-6 21 -8 5 -8 -11 0 -29 3 -40 8 -25 11 1 11 35 0z m-4284 -152 c16 -13 34
-27 41 -33 7 -5 19 -16 27 -22 8 -7 20 -13 26 -13 16 0 12 -20 -6 -27 -9 -3
-24 3 -37 18 -13 13 -15 17 -4 9 9 -7 20 -11 23 -8 5 6 -56 56 -100 80 -19 10
-24 17 -15 18 9 0 29 -10 45 -22z m-5359 -20 c-3 -8 -6 -5 -6 6 -1 11 2 17 5
13 3 -3 4 -12 1 -19z m5354 -6 c24 -22 29 -31 19 -37 -8 -5 -11 -4 -6 3 3 5
-10 20 -29 32 -19 12 -35 24 -35 26 0 12 23 1 51 -24z m-3102 -435 c69 -71
129 -153 173 -235 37 -70 60 -131 38 -102 -9 12 -10 9 -5 -13 4 -19 2 -26 -5
-22 -5 3 -10 12 -10 19 0 21 -73 153 -121 219 -24 33 -68 84 -97 113 -30 30
-50 54 -45 54 14 0 107 -100 157 -170 25 -35 46 -58 46 -52 0 32 -154 215
-195 232 -15 7 -16 9 -4 9 9 1 40 -23 68 -52z m3536 -235 c9 -45 15 -92 13
-105 -2 -12 -8 7 -13 43 -7 49 -10 58 -13 35 -4 -27 -6 -24 -18 25 -17 72 -16
98 2 40 l14 -45 -5 42 c-3 23 -8 50 -11 60 -4 14 -4 15 4 3 6 -8 17 -52 27
-98z m0 -704 c-4 -18 -11 -37 -15 -42 -5 -5 -4 10 2 33 12 48 23 56 13 9z
m-979 -1033 c10 -8 14 -15 7 -15 -6 0 -15 5 -18 10 -3 6 -18 9 -33 9 -21 -1
-22 -2 -7 -6 34 -8 38 -20 5 -15 -16 2 -30 8 -30 11 0 25 47 28 76 6z m122
-88 c104 -84 172 -181 210 -298 31 -96 42 -161 42 -247 0 -341 -228 -659 -639
-891 -49 -27 -78 -38 -84 -32 -6 6 17 26 68 58 290 181 436 327 552 551 26 51
42 74 39 57 -6 -29 -6 -29 10 5 9 19 18 51 20 70 l4 35 -15 -40 c-8 -22 -13
-29 -10 -15 23 122 27 164 21 244 -3 50 -8 105 -11 121 -4 27 -4 28 4 5 l9
-25 0 25 c0 14 -6 41 -14 60 l-14 35 4 -35 c5 -38 7 -41 -32 54 -9 21 -38 71
-64 110 -43 63 -44 67 -12 31 20 -22 51 -69 69 -105 19 -36 34 -58 35 -50 0 9
-20 49 -44 90 -41 70 -124 160 -216 233 -19 16 -28 25 -20 21 8 -4 48 -34 88
-67z m-2858 -175 c0 -13 -12 -22 -22 -16 -10 6 -1 24 13 24 5 0 9 -4 9 -8z"/>
<path d="M4985 4460 c17 -4 39 -8 50 -8 16 0 15 2 -5 8 -14 4 -36 8 -50 8 -22
0 -22 -1 5 -8z"/>
<path d="M5430 4276 c0 -2 19 -16 43 -31 23 -15 66 -46 95 -68 29 -22 55 -38
57 -35 7 6 1 11 -99 82 -69 50 -96 64 -96 52z"/>
<path d="M2682 3562 c20 -46 62 -122 65 -118 5 5 -55 126 -63 126 -3 0 -4 -3
-2 -8z"/>
<path d="M5455 1160 c0 -85 3 -141 6 -124 4 16 7 72 7 124 0 52 -3 108 -7 124
-3 17 -6 -39 -6 -124z"/>
<path d="M5376 823 c-93 -190 -288 -380 -548 -534 -32 -18 -58 -37 -58 -41 0
-9 97 46 210 121 95 62 252 212 324 311 52 70 109 176 104 191 -2 6 -16 -16
-32 -48z"/>
<path d="M8986 6203 c-45 -241 -48 -661 -7 -853 25 -116 60 -227 97 -308 13
-29 24 -54 24 -57 0 -10 79 -136 116 -185 95 -126 256 -249 474 -363 108 -57
288 -132 296 -124 3 2 -33 19 -78 37 -282 110 -557 297 -686 463 -102 133
-192 354 -234 572 -20 105 -23 150 -22 365 0 232 6 301 40 503 4 20 4 37 1 37
-2 0 -12 -39 -21 -87z"/>
<path d="M5928 4613 c6 -2 18 -2 25 0 6 3 1 5 -13 5 -14 0 -19 -2 -12 -5z"/>
<path d="M9562 4551 c-11 -7 -11 -9 0 -14 7 -4 36 -20 63 -37 83 -50 174 -92
186 -84 6 3 -7 14 -31 25 -23 10 -46 16 -51 13 -5 -3 -9 -1 -9 5 0 6 -15 18
-32 27 -18 9 -48 30 -66 45 -35 31 -40 33 -60 20z"/>
<path d="M12705 4518 c-293 -124 -740 -256 -1175 -347 -30 -6 -95 -20 -144
-31 -103 -24 -332 -63 -496 -85 -217 -29 -333 -57 -500 -122 -69 -26 -188 -82
-205 -95 -5 -5 -39 -31 -75 -59 -90 -70 -140 -120 -133 -132 3 -6 2 -7 -4 -4
-12 8 -56 -37 -46 -46 3 -4 16 1 27 10 20 17 20 17 7 0 -8 -9 -12 -20 -9 -23
8 -7 60 65 54 74 -12 20 138 136 228 177 82 38 284 103 387 126 48 10 174 28
280 40 210 22 473 64 664 104 66 14 152 32 192 40 277 55 620 157 903 268 36
14 82 31 103 38 35 12 37 15 37 56 0 51 -1 51 -95 11z"/>
<path d="M12655 4400 c-301 -115 -629 -211 -898 -265 -40 -8 -126 -26 -192
-40 -191 -40 -454 -82 -664 -104 -106 -12 -232 -30 -280 -40 -121 -27 -324
-96 -402 -137 -82 -43 -202 -138 -204 -162 -1 -9 -20 -42 -43 -72 -48 -62
-113 -190 -135 -265 -17 -57 -33 -94 -107 -250 -28 -60 -60 -128 -69 -150 -10
-22 -48 -107 -85 -188 -36 -81 -66 -153 -66 -158 0 -6 -7 -23 -15 -37 -8 -15
-24 -49 -36 -77 -55 -128 -148 -310 -226 -443 -49 -84 -81 -148 -74 -150 14
-5 15 -32 0 -32 -5 0 -8 4 -4 9 3 5 1 12 -4 15 -5 3 -21 -15 -37 -41 -84 -146
-295 -377 -427 -468 -160 -111 -226 -151 -295 -181 -94 -40 -104 -53 -167
-216 -26 -68 -54 -139 -63 -158 -8 -19 -21 -51 -29 -70 -13 -31 -47 -99 -90
-182 -22 -42 -163 -240 -217 -304 -28 -33 -90 -98 -139 -146 l-89 -88 2601 0
2601 0 0 2225 c0 1224 -3 2225 -7 2225 -5 -1 -66 -23 -138 -50z"/>
<path d="M5795 4090 c3 -5 8 -10 11 -10 2 0 4 5 4 10 0 6 -5 10 -11 10 -5 0
-7 -4 -4 -10z"/>
<path d="M9922 3552 c-21 -28 -102 -186 -102 -197 0 -8 -35 -85 -92 -205 -73
-151 -128 -269 -128 -274 0 -2 -15 -37 -34 -78 -35 -77 -82 -182 -136 -308
-99 -228 -284 -556 -426 -755 -99 -137 -236 -268 -427 -405 -19 -14 -33 -29
-29 -34 3 -5 0 -6 -6 -2 -13 8 -245 -134 -293 -181 -35 -33 -77 -109 -187
-343 -146 -306 -372 -579 -622 -752 -24 -17 -23 -17 56 -17 l81 -1 95 93 c131
128 229 248 325 397 67 106 116 205 182 375 97 249 106 264 160 287 79 34 143
69 226 126 44 30 99 68 122 84 75 51 252 228 322 322 37 50 104 152 148 226
85 143 203 349 203 355 0 2 22 51 49 109 27 57 59 128 71 158 31 76 33 80 95
216 30 68 55 125 55 127 0 4 47 106 112 245 28 58 67 150 88 205 40 108 71
173 102 218 11 16 18 30 15 33 -3 3 -14 -8 -25 -24z"/>
<path d="M2780 3366 c0 -5 11 -43 26 -84 50 -146 66 -244 73 -467 l8 -210 1
160 c2 184 -8 286 -43 418 -23 88 -64 202 -65 183z"/>
<path d="M2915 3110 c3 -14 14 -58 25 -98 39 -145 53 -293 47 -497 -5 -208
-22 -295 -87 -460 -17 -44 -34 -87 -37 -95 -4 -10 -3 -12 5 -5 18 17 68 155
98 270 28 106 29 118 29 345 -1 255 -13 353 -60 493 -14 40 -22 61 -20 47z"/>
<path d="M6076 3019 c-4 -36 -3 -65 5 -85 l12 -29 9 37 c7 26 6 50 -4 85 l-14
48 -8 -56z m11 -51 c-3 -7 -5 -2 -5 12 0 14 2 19 5 13 2 -7 2 -19 0 -25z"/>
<path d="M6046 2874 c-4 -20 -5 -38 -3 -40 3 -3 8 11 11 32 4 20 5 38 3 40 -3
3 -8 -11 -11 -32z"/>
<path d="M5986 2694 c-53 -143 -142 -273 -264 -385 -69 -63 -259 -208 -325
-248 -20 -12 -34 -27 -31 -32 6 -11 12 -8 96 57 29 22 87 66 128 96 156 116
272 239 339 361 38 69 93 205 89 218 -2 5 -16 -25 -32 -67z"/>
<path d="M2842 2410 c-20 -101 -71 -265 -113 -369 -40 -98 -47 -139 -9 -54 57
128 146 431 138 470 -2 9 -9 -12 -16 -47z"/>
<path d="M2550 1735 c-14 -16 -3 -20 19 -6 8 5 9 11 3 15 -5 3 -15 -1 -22 -9z"/>
<path d="M2650 1695 c-8 -9 -8 -15 -2 -15 12 0 26 19 19 26 -2 2 -10 -2 -17
-11z"/>
<path d="M5332 1450 c0 -14 2 -19 5 -12 2 6 2 18 0 25 -3 6 -5 1 -5 -13z"/>
<path d="M5368 1170 c-3 -63 -9 -128 -12 -145 -3 -16 1 -6 9 23 11 35 15 85
13 145 l-3 92 -7 -115z"/>
<path d="M5292 867 c-18 -39 -31 -72 -28 -74 6 -6 69 124 65 135 -2 5 -19 -23
-37 -61z"/>
<path d="M5095 681 c-22 -24 -66 -62 -97 -84 -32 -22 -55 -43 -53 -46 15 -14
202 146 194 166 -2 4 -22 -12 -44 -36z"/>
</g>
</svg>
