<?xml version="1.0" standalone="no"?>
<!DOCTYPE svg PUBLIC "-//W3C//DTD SVG 20010904//EN"
 "http://www.w3.org/TR/2001/REC-SVG-20010904/DTD/svg10.dtd">
<svg version="1.0" xmlns="http://www.w3.org/2000/svg"
 width="1280.000000pt" height="720.000000pt" viewBox="0 0 1280.000000 720.000000"
 preserveAspectRatio="xMidYMid meet">
<metadata>
Created by potrace 1.16, written by Peter Selinger 2001-2019
</metadata>
<g transform="translate(0.000000,720.000000) scale(0.100000,-0.100000)"
fill="#000000" stroke="none">
<path d="M0 4560 c0 -1452 2 -2640 5 -2640 5 0 110 42 150 60 11 5 121 50 245
100 124 50 239 98 255 105 48 21 402 170 495 208 47 19 168 70 270 112 102 42
221 92 265 110 84 35 159 67 210 90 16 8 58 25 93 40 34 14 91 38 125 54 34
16 96 43 137 61 41 18 122 55 179 81 57 27 105 49 107 49 2 0 41 17 86 39 46
21 137 62 203 90 66 28 134 58 150 66 17 8 94 42 173 75 78 33 213 94 300 134
86 40 202 94 257 119 55 24 120 54 145 65 102 46 414 177 613 258 116 47 226
92 242 100 17 7 68 27 115 44 46 17 98 37 115 44 111 49 731 270 884 315 41
13 84 20 97 17 32 -8 95 19 101 44 3 12 22 28 42 36 58 24 536 183 661 219 63
19 187 55 275 80 400 116 806 196 1140 226 61 5 241 14 400 19 160 5 366 18
460 29 94 11 278 27 410 36 430 27 520 39 820 107 245 55 495 134 795 250 58
23 212 95 342 160 248 124 356 173 473 214 264 94 621 194 694 194 20 0 88 13
151 29 l115 28 3 587 2 586 -6400 0 -6400 0 0 -2640z"/>
<path d="M12680 5989 c-63 -16 -131 -29 -151 -29 -76 0 -481 -114 -704 -199
-129 -48 -176 -70 -455 -208 -146 -73 -290 -141 -320 -152 -30 -10 -107 -38
-170 -61 -408 -150 -809 -249 -1125 -279 -60 -6 -218 -18 -350 -26 -132 -9
-316 -25 -410 -36 -94 -11 -300 -24 -460 -29 -159 -5 -339 -14 -400 -19 -235
-21 -536 -72 -800 -136 -163 -39 -249 -63 -615 -170 -121 -35 -524 -168 -623
-205 -40 -15 -62 -30 -71 -49 -10 -19 -28 -32 -58 -40 -24 -7 -45 -17 -48 -21
-3 -4 -21 -10 -40 -13 l-35 -6 33 11 c31 11 44 28 21 28 -31 0 -667 -217 -814
-278 -28 -11 -115 -46 -195 -76 -80 -30 -201 -78 -270 -107 -69 -28 -179 -73
-245 -99 -133 -53 -268 -111 -408 -174 -32 -14 -60 -26 -62 -26 -4 0 -89 -38
-212 -96 -28 -13 -55 -24 -58 -24 -4 0 -48 -21 -98 -46 -51 -26 -132 -64 -182
-86 -49 -22 -108 -48 -130 -58 -22 -10 -69 -30 -105 -45 -102 -42 -220 -94
-345 -151 -44 -20 -118 -53 -165 -74 -47 -21 -114 -51 -150 -68 -65 -29 -83
-38 -240 -107 -47 -21 -113 -51 -148 -66 -34 -16 -65 -29 -67 -29 -4 0 -162
-68 -230 -100 -11 -5 -83 -35 -160 -66 -146 -59 -435 -178 -470 -194 -11 -5
-49 -21 -85 -35 -36 -15 -112 -47 -170 -72 -130 -56 -115 -50 -295 -124 -82
-34 -202 -83 -265 -109 -63 -26 -163 -67 -222 -91 -101 -40 -108 -45 -108 -71
0 -15 1 -28 3 -28 2 0 102 37 127 47 8 3 35 14 60 23 25 9 79 31 120 47 41 17
169 68 285 113 116 46 228 91 250 101 37 17 124 52 550 225 88 36 174 71 190
78 17 8 82 35 145 61 63 26 187 79 275 117 88 39 174 76 190 83 17 8 56 25 88
39 32 14 59 26 62 26 2 0 60 27 130 60 70 33 128 60 130 60 3 0 112 50 230
105 50 23 115 51 220 95 55 23 124 53 153 66 29 13 54 24 57 24 3 0 59 25 210
95 62 29 133 60 258 113 20 9 37 21 37 26 0 6 15 17 32 25 18 7 52 22 75 32
24 10 49 19 56 19 7 0 17 4 23 8 10 9 33 19 293 124 96 38 184 70 195 71 12 1
26 6 31 13 6 6 80 39 165 72 339 132 809 312 815 312 4 0 21 6 38 14 79 35
528 186 865 291 63 19 148 50 190 69 85 38 579 183 821 241 384 91 822 148
1106 143 109 -2 109 -2 20 -5 -389 -11 -754 -60 -1126 -148 -243 -58 -728
-200 -810 -238 -40 -19 -128 -51 -194 -71 -395 -121 -758 -246 -1100 -377
-703 -271 -769 -298 -787 -322 -13 -16 -20 -19 -26 -10 -7 11 -102 -20 -217
-72 -16 -7 -49 -20 -72 -29 -23 -8 -61 -24 -85 -35 -34 -16 -177 -75 -285
-118 -7 -3 -13 -10 -13 -17 0 -6 -21 -20 -48 -30 -26 -11 -81 -35 -122 -53
-41 -19 -167 -75 -280 -125 -258 -113 -217 -95 -415 -182 -93 -41 -210 -93
-258 -115 -49 -23 -90 -41 -91 -41 -2 0 -56 -25 -120 -55 -64 -30 -118 -55
-120 -55 -4 0 -222 -96 -340 -149 -43 -20 -427 -179 -606 -251 -58 -23 -118
-48 -135 -55 -16 -8 -106 -45 -200 -83 -93 -38 -237 -96 -320 -130 -144 -59
-579 -230 -677 -267 l-48 -18 0 -918 0 -919 1698 0 1699 0 61 123 c136 276
202 547 202 837 0 218 -36 409 -125 670 -109 318 -236 527 -462 761 -62 64
-113 119 -113 123 0 46 189 -138 318 -309 156 -208 266 -458 357 -810 47 -182
58 -293 52 -498 -5 -180 -22 -289 -73 -464 -31 -106 -102 -290 -141 -364 -15
-30 -29 -57 -31 -61 -2 -5 25 -8 61 -8 l65 0 65 133 c146 294 207 565 207 915
0 256 -38 471 -116 655 -72 174 -264 462 -403 609 -46 48 -80 88 -76 88 4 0 2
7 -5 15 -15 18 -5 20 16 3 132 -107 317 -351 438 -579 87 -163 149 -370 141
-469 -3 -40 -2 -45 3 -20 13 60 32 -125 32 -308 0 -249 -36 -477 -112 -697
-34 -102 -145 -341 -154 -332 -3 3 2 17 11 31 9 14 15 30 13 36 -2 6 -13 -9
-25 -33 l-21 -44 87 -2 c85 -2 89 -1 121 29 144 135 747 553 1180 818 297 181
484 326 664 512 97 100 136 132 123 97 -11 -29 -184 -264 -222 -302 -98 -98
-292 -237 -555 -397 -321 -196 -842 -552 -1054 -719 l-49 -39 1562 0 c1360 0
1561 2 1561 15 0 23 84 233 130 325 54 107 332 612 457 830 155 268 314 504
517 764 125 159 173 221 242 314 46 61 59 72 84 72 17 0 30 -5 30 -10 0 -19
-61 -133 -116 -217 -29 -45 -119 -171 -201 -280 -241 -322 -362 -512 -560
-873 -131 -239 -364 -671 -426 -792 l-77 -148 344 0 345 0 15 54 c9 30 16 60
17 68 0 7 9 33 20 58 22 50 21 44 -15 -85 -30 -106 -28 -95 -17 -95 5 0 14 15
20 33 13 40 57 240 71 327 18 102 126 540 175 705 53 180 134 403 264 727 39
97 89 228 112 290 22 62 56 141 75 176 18 34 29 62 24 62 -13 0 -140 -262
-230 -475 -39 -93 -78 -184 -86 -202 -8 -17 -14 -38 -14 -46 0 -9 -4 -18 -9
-21 -5 -3 -12 -17 -15 -31 -4 -14 -17 -49 -30 -78 -76 -167 -190 -557 -261
-892 -2 -11 -15 -86 -30 -166 -14 -80 -32 -163 -40 -185 -9 -21 -13 -28 -10
-14 9 39 42 205 60 305 44 244 105 479 189 729 52 153 208 551 276 701 74 167
87 195 131 280 45 87 70 117 86 102 4 -4 3 -16 -3 -25 -40 -64 -68 -128 -123
-277 -35 -93 -72 -189 -82 -212 -11 -23 -19 -48 -19 -55 0 -8 -4 -18 -8 -23
-5 -6 -15 -26 -22 -45 -7 -19 -19 -48 -26 -65 -40 -91 -161 -430 -199 -560
-51 -172 -158 -606 -176 -710 -13 -81 -64 -312 -74 -337 -6 -16 0 -18 51 -18
l59 0 50 127 c27 71 50 137 51 149 1 26 12 44 26 44 6 0 63 38 127 84 64 46
164 115 222 153 58 38 104 74 102 80 -7 19 115 120 331 274 123 88 211 158
206 163 -5 5 -27 -4 -52 -21 -266 -181 -333 -228 -333 -234 0 -4 -4 -11 -9
-16 -5 -5 -6 -3 -2 5 9 15 -6 16 -22 0 -6 -6 -14 -9 -18 -6 -3 4 16 19 43 34
26 15 77 48 113 73 411 286 551 389 675 501 111 100 293 278 379 370 43 47 70
71 58 55 -46 -69 -235 -261 -430 -438 -74 -67 -252 -206 -340 -266 -37 -24
-60 -47 -56 -53 5 -7 12 -5 21 7 11 16 13 16 13 3 0 -9 -15 -27 -32 -39 -344
-239 -626 -467 -506 -409 22 10 22 10 3 -5 -11 -8 -75 -51 -141 -94 -67 -43
-164 -110 -217 -147 -52 -38 -109 -77 -127 -86 -17 -10 -28 -22 -25 -28 3 -5
-14 -61 -38 -122 -65 -166 -64 -158 -27 -158 38 0 45 16 70 155 10 55 22 101
28 103 51 17 457 327 556 424 43 43 102 95 130 115 177 128 422 322 506 401
19 18 87 73 150 121 127 98 362 288 491 397 46 39 136 101 199 138 63 37 129
80 145 96 25 24 46 32 125 46 137 23 466 30 685 13 99 -8 203 -13 230 -13 36
1 45 -1 30 -8 -14 -6 -10 -7 16 -3 20 3 52 -1 75 -10 21 -9 29 -14 17 -11 -12
2 -23 0 -25 -5 -2 -5 -28 -2 -58 6 -103 28 -273 39 -570 40 -360 0 -458 -13
-518 -67 -20 -18 -89 -63 -152 -100 -63 -37 -158 -104 -210 -149 -91 -78 -332
-272 -510 -411 -47 -37 -99 -79 -115 -95 -81 -75 -330 -272 -501 -396 -28 -20
-87 -72 -130 -115 -83 -82 -442 -359 -521 -403 l-47 -25 -17 -95 c-9 -52 -22
-106 -28 -121 l-11 -28 2395 0 2395 0 0 878 0 878 -142 13 c-248 22 -497 72
-828 166 -159 45 -159 45 -545 75 -178 14 -215 21 -65 12 63 -4 169 -7 235 -6
66 0 100 -2 75 -6 -39 -5 -31 -7 52 -13 64 -5 144 -22 235 -48 306 -88 539
-137 778 -164 181 -21 205 -20 205 5 0 14 -7 20 -22 20 -120 0 -469 52 -683
102 -71 17 -166 39 -210 49 -45 10 -60 16 -35 13 25 -3 99 -18 165 -34 241
-58 501 -101 693 -115 l92 -7 0 2042 0 2042 -72 -7 c-123 -12 -536 -122 -718
-191 -252 -97 -464 -196 -740 -347 -74 -40 -164 -86 -200 -102 -36 -16 -144
-69 -240 -117 -160 -81 -180 -88 -230 -87 -30 0 -100 -7 -155 -16 -66 -12
-164 -18 -290 -20 -163 -2 -215 -6 -368 -33 -182 -33 -312 -40 -348 -21 -37
19 -522 -38 -595 -71 -33 -14 -68 -20 -119 -20 -77 0 -199 -27 -478 -106 -152
-43 -194 -52 -152 -34 l20 9 -20 0 c-11 0 -29 -4 -40 -9 l-20 -9 20 -1 c11 -1
-14 -12 -55 -26 -73 -23 -115 -31 -75 -14 l20 9 -20 0 c-11 0 -29 -4 -40 -9
l-20 -9 20 -1 c18 -1 17 -2 -4 -11 -13 -5 -29 -8 -35 -5 -6 2 -2 5 9 6 19 1
19 2 1 9 -13 5 63 31 245 84 343 99 383 109 449 113 152 9 270 24 320 43 30
11 87 24 125 28 l70 8 -60 6 c-37 4 -23 5 36 2 53 -2 159 3 237 12 103 12 146
14 161 6 11 -6 59 -10 108 -9 86 1 87 2 28 8 l-60 7 50 2 c54 2 210 28 184 30
-9 0 -78 -6 -153 -15 -75 -8 -142 -14 -149 -11 -6 2 22 7 63 11 41 4 122 14
180 23 58 8 130 17 160 18 55 4 54 4 -9 -5 -85 -12 -100 -21 -26 -16 42 3 51
2 30 -3 -28 -8 -28 -9 -5 -10 14 0 43 4 65 10 22 6 130 12 240 14 132 2 234 8
300 20 55 9 126 16 157 16 47 -1 65 4 106 29 43 26 175 91 352 172 30 14 118
60 195 102 125 69 377 195 463 232 17 8 47 20 65 28 249 111 764 264 945 281
l72 7 0 54 c0 30 -1 54 -2 53 -2 0 -55 -13 -118 -30z m-1840 -742 c0 -8 -19
-23 -42 -33 -24 -10 -69 -36 -101 -56 -34 -23 -70 -38 -88 -38 -16 0 -40 -7
-52 -15 -27 -18 -239 -52 -362 -58 l-90 -5 75 9 c201 24 353 50 373 64 12 8
34 15 50 15 16 0 48 14 73 31 25 17 69 41 100 55 30 13 52 29 49 34 -3 6 -1
10 4 10 6 0 11 -6 11 -13z m-40 -7 c-22 -14 -110 -39 -235 -65 -60 -13 -121
-27 -135 -30 -19 -5 -21 -4 -10 4 9 5 72 21 141 35 69 15 150 35 180 45 62 21
80 25 59 11z m320 -94 c0 -8 -7 -17 -16 -20 -72 -27 -235 -169 -310 -270 -25
-33 -61 -71 -80 -84 -19 -12 -34 -27 -34 -32 0 -6 -7 -10 -15 -10 -27 0 -16
26 43 101 96 121 290 288 367 315 l20 7 -20 -16 c-23 -19 -13 -22 16 -6 11 5
17 14 14 20 -4 5 -1 9 4 9 6 0 11 -6 11 -14z m-612 -11 c-3 -3 -42 -10 -87
-15 -46 -6 -124 -22 -174 -35 -51 -14 -101 -25 -112 -25 -31 1 202 59 275 69
83 11 105 12 98 6z m-438 -61 c-54 -13 -54 -13 -10 -9 29 3 40 2 30 -4 -8 -5
-42 -11 -75 -14 -43 -4 -50 -3 -25 2 l35 8 -35 3 c-31 2 -28 4 25 15 81 17
124 16 55 -1z m-607 -61 c-13 -2 -33 -2 -45 0 -13 2 -3 4 22 4 25 0 35 -2 23
-4z m-183 -13 c-41 -4 -102 -7 -135 -7 l-60 1 70 6 c39 4 99 7 135 7 l65 0
-75 -7z m-165 -29 c25 -5 2 -7 -65 -3 -58 2 -107 6 -109 8 -8 7 135 3 174 -5z
m-305 -17 c0 -2 -9 -4 -20 -4 -11 0 -20 4 -20 9 0 5 9 7 20 4 11 -3 20 -7 20
-9z m98 9 c-16 -2 -40 -2 -55 0 -16 2 -3 4 27 4 30 0 43 -2 28 -4z m0 -20
c-16 -2 -40 -2 -55 0 -16 2 -3 4 27 4 30 0 43 -2 28 -4z m-298 -53 c0 -5 -2
-10 -4 -10 -3 0 -8 5 -11 10 -3 6 -1 10 4 10 6 0 11 -4 11 -10z m2001 -367
c-11 -5 -11 -7 0 -14 11 -7 10 -9 -3 -9 -10 0 -18 7 -18 15 0 8 8 15 18 14 12
0 13 -2 3 -6z m-60 -108 c5 4 0 -14 -10 -39 -32 -74 -69 -263 -81 -409 -26
-340 38 -630 219 -979 129 -249 233 -392 418 -575 131 -130 243 -223 333 -276
25 -15 38 -27 30 -28 -71 -8 -89 -5 -146 21 -161 73 -405 313 -566 556 -147
222 -277 525 -340 793 -25 109 -37 455 -19 571 21 133 51 242 76 272 13 15 34
46 47 69 12 22 24 36 26 30 2 -6 8 -9 13 -6z m-5079 -415 c204 -68 478 -259
635 -443 172 -202 282 -471 329 -804 20 -147 15 -509 -10 -613 -51 -218 -141
-383 -300 -549 -95 -99 -193 -177 -299 -239 -93 -55 -107 -60 -107 -38 0 7 37
35 83 61 198 115 399 323 498 515 91 177 119 312 119 579 0 574 -184 986 -570
1281 -177 135 -410 250 -506 250 -16 0 -24 6 -24 16 0 14 7 16 45 11 24 -4 72
-16 107 -27z m5628 -1900 c-73 -8 -376 -20 -345 -14 24 6 290 21 360 21 46 0
45 0 -15 -7z m561 -20 c203 -16 405 -47 494 -77 54 -17 116 -28 190 -34 l110
-7 -115 3 c-90 3 -130 9 -185 28 -77 27 -300 62 -496 77 -143 11 -764 -8
-1319 -40 -241 -13 -442 -38 -344 -41 16 -1 -25 -12 -91 -25 -66 -13 -124 -22
-130 -20 -5 3 1 5 15 6 l25 2 -25 7 c-19 6 3 13 90 29 156 30 244 40 455 52
239 14 872 41 1136 48 30 1 116 -3 190 -8z m-291 -39 c-52 -4 -106 -3 -120 0
-14 4 29 7 95 6 l120 -1 -95 -5z m-282 -8 c-10 -2 -28 -2 -40 0 -13 2 -5 4 17
4 22 1 32 -1 23 -4z m495 0 c3 -5 -50 -8 -117 -9 -95 -1 -107 0 -56 6 96 10
168 11 173 3z m110 0 c-7 -2 -21 -2 -30 0 -10 3 -4 5 12 5 17 0 24 -2 18 -5z
m230 -20 c33 -3 53 -9 47 -13 -7 -4 -27 -4 -44 1 -17 5 -53 8 -81 8 l-50 -2
47 -6 c26 -4 50 -10 54 -14 4 -4 -6 -5 -22 -2 -23 4 -91 13 -209 26 -5 1 4 5
20 10 29 8 121 5 238 -8z m-1751 -15 c-24 -5 -41 -12 -39 -15 3 -3 29 0 57 6
28 6 61 11 73 10 12 0 -16 -9 -63 -19 -47 -10 -94 -21 -105 -24 -11 -4 -6 0
10 8 24 12 26 15 10 16 -29 2 43 29 75 28 15 0 7 -4 -18 -10z m-99 -5 c-7 -2
-19 -2 -25 0 -7 3 -2 5 12 5 14 0 19 -2 13 -5z m-78 -39 c-44 -13 -111 -30
-150 -38 -47 -9 -64 -15 -53 -20 9 -4 22 -5 28 -1 5 3 10 2 10 -3 0 -5 -19
-14 -42 -21 -52 -15 -277 -128 -414 -207 -392 -226 -831 -553 -1031 -768 -35
-37 -63 -63 -63 -59 0 13 155 169 245 248 308 270 891 648 1180 765 30 12 54
25 51 27 -2 3 -48 -7 -101 -21 -99 -27 -125 -31 -90 -16 l20 9 -20 0 c-11 0
-29 -4 -40 -9 l-20 -9 20 -1 20 -1 -20 -9 c-27 -12 -43 -12 -25 0 26 17 -6 11
-55 -11 -25 -11 -44 -23 -42 -26 3 -2 19 3 37 12 18 9 34 14 37 11 3 -2 -10
-12 -29 -21 -18 -10 -42 -26 -53 -36 -12 -10 -26 -15 -33 -11 -18 12 11 48 57
72 57 28 260 86 386 109 61 11 137 29 170 40 33 11 69 20 80 20 11 0 -16 -11
-60 -25z m2206 6 c86 -12 7 -10 -146 5 l-140 14 116 -6 c63 -2 140 -8 170 -13z
m-2450 -7 c-11 -5 -11 -7 0 -14 11 -7 10 -9 -3 -9 -18 0 -23 11 -11 23 3 4 11
7 17 6 6 0 5 -3 -3 -6z m302 -10 c-7 -2 -19 -2 -25 0 -7 3 -2 5 12 5 14 0 19
-2 13 -5z m2370 0 c-29 -2 -78 -2 -110 0 -32 2 -8 3 52 3 61 0 87 -1 58 -3z
m-2426 -14 c-30 -17 -87 -40 -87 -34 0 7 80 43 95 44 6 0 2 -4 -8 -10z m8 -33
c-42 -20 -90 -53 -119 -82 l-50 -49 46 55 c35 43 59 61 109 82 89 37 98 33 14
-6z m66 4 c-63 -29 -167 -108 -235 -179 -31 -34 -60 -61 -63 -61 -3 0 0 6 6
13 6 8 7 18 3 22 -4 5 -2 5 5 1 7 -4 29 14 54 44 67 80 208 177 259 179 8 0
-5 -8 -29 -19z m-171 -17 c0 -5 -20 -16 -43 -27 -126 -56 -420 -209 -551 -288
-171 -103 -389 -249 -610 -410 -185 -135 -240 -180 -335 -278 -41 -41 -65 -61
-53 -44 44 64 213 212 383 335 388 281 645 443 930 584 96 47 194 97 219 110
49 26 60 29 60 18z m-60 -126 c0 -2 -10 -12 -22 -23 l-23 -19 19 23 c18 21 26
27 26 19z m-1145 -927 c-3 -5 -12 -10 -18 -10 -7 0 -6 4 3 10 19 12 23 12 15
0z"/>
<path d="M10979 5073 c-35 -25 -95 -76 -133 -112 -69 -67 -191 -210 -184 -216
6 -6 90 81 151 155 47 57 152 151 227 202 14 9 20 17 14 17 -7 1 -40 -20 -75
-46z"/>
<path d="M10505 4357 c-16 -29 -28 -56 -27 -60 1 -5 -2 -6 -7 -3 -14 9 -21 -6
-42 -92 -35 -144 -42 -225 -36 -435 4 -152 10 -224 25 -288 26 -109 67 -246
94 -307 167 -389 314 -613 548 -835 150 -143 258 -213 341 -223 l44 -5 -55 37
c-94 62 -190 144 -316 269 -175 174 -285 328 -403 564 -185 366 -247 646 -221
985 11 141 47 334 76 402 22 54 13 49 -21 -9z"/>
<path d="M5398 4000 c293 -77 655 -358 817 -635 138 -235 204 -498 212 -843 7
-291 -17 -433 -107 -617 -102 -209 -306 -424 -509 -536 -44 -24 -81 -48 -81
-52 0 -12 134 63 198 110 259 194 424 434 488 713 25 104 30 466 10 613 -50
359 -168 629 -368 842 -127 137 -310 269 -481 350 -88 42 -194 76 -233 74 -11
0 14 -9 54 -19z"/>
<path d="M9860 1975 c-74 -17 -32 -17 50 0 36 7 52 13 35 13 -16 0 -55 -6 -85
-13z"/>
<path d="M11733 2013 c15 -2 37 -2 50 0 12 2 0 4 -28 4 -27 0 -38 -2 -22 -4z"/>
<path d="M9665 1880 c-38 -11 -74 -20 -79 -20 -5 0 -7 -2 -4 -6 3 -3 41 4 85
15 43 11 89 17 102 14 17 -4 22 -3 17 5 -10 16 -39 14 -121 -8z"/>
<path d="M9375 1769 c-11 -17 1 -21 15 -4 8 9 8 15 2 15 -6 0 -14 -5 -17 -11z"/>
<path d="M9695 4985 c-38 -7 -56 -13 -40 -13 17 -1 62 5 100 12 39 8 57 14 40
14 -16 -1 -61 -6 -100 -13z"/>
<path d="M8460 4844 c-168 -44 -350 -97 -347 -101 3 -2 94 21 203 50 110 30
208 57 219 60 l20 5 -20 0 c-11 0 -45 -6 -75 -14z"/>
<path d="M7970 4705 c-47 -18 -27 -18 30 -1 25 8 36 15 25 15 -11 0 -36 -7
-55 -14z"/>
<path d="M3076 2398 c261 -267 386 -486 507 -888 62 -204 79 -307 85 -500 8
-315 -51 -581 -198 -887 -32 -68 -55 -123 -51 -123 12 0 115 222 150 324 33
93 70 234 92 351 21 109 19 476 -4 588 -69 342 -221 713 -377 922 -79 106
-284 325 -304 325 -6 0 40 -51 100 -112z"/>
<path d="M3318 2330 c113 -111 297 -378 381 -553 55 -113 81 -186 111 -309 14
-59 18 -69 14 -33 -22 189 -137 433 -336 711 -81 113 -208 254 -229 254 -6 0
21 -31 59 -70z"/>
<path d="M8349 2228 c-34 -46 -75 -100 -92 -120 -16 -20 -26 -41 -22 -47 3 -7
1 -10 -5 -9 -34 8 -437 -552 -595 -827 -105 -181 -131 -227 -292 -520 -187
-339 -247 -456 -297 -582 -44 -113 -45 -123 -8 -123 25 0 33 12 106 153 66
126 310 580 429 797 200 365 319 551 560 873 82 109 172 235 201 280 50 77
116 193 116 203 0 2 -9 4 -20 4 -13 0 -40 -28 -81 -82z"/>
<path d="M11340 1976 c0 -2 11 -6 25 -8 13 -3 22 -1 19 3 -5 9 -44 13 -44 5z"/>
<path d="M5730 1451 c0 -16 -186 -206 -272 -278 -117 -98 -298 -225 -478 -335
-422 -259 -951 -625 -1175 -812 l-30 -25 43 -1 c30 0 49 6 65 21 96 91 781
562 1082 744 278 168 541 359 515 375 -14 9 -5 30 13 30 8 0 8 -3 -2 -9 -11
-7 -11 -10 0 -16 15 -10 56 34 127 135 25 36 62 85 82 110 46 57 54 70 41 70
-6 0 -11 -4 -11 -9z"/>
<path d="M3848 1115 c5 -240 -11 -407 -58 -590 -31 -122 -87 -279 -132 -369
-16 -32 -27 -61 -24 -64 3 -3 18 21 32 54 97 217 152 407 179 617 15 121 19
420 6 512 -4 28 -5 -44 -3 -160z"/>
</g>
</svg>
