<?xml version="1.0" standalone="no"?>
<!DOCTYPE svg PUBLIC "-//W3C//DTD SVG 20010904//EN"
 "http://www.w3.org/TR/2001/REC-SVG-20010904/DTD/svg10.dtd">
<svg version="1.0" xmlns="http://www.w3.org/2000/svg"
 width="1280.000000pt" height="720.000000pt" viewBox="0 0 1280.000000 720.000000"
 preserveAspectRatio="xMidYMid meet">
<metadata>
Created by potrace 1.16, written by Peter Selinger 2001-2019
</metadata>
<g transform="translate(0.000000,720.000000) scale(0.100000,-0.100000)"
fill="#000000" stroke="none">
<path d="M0 4630 c0 -1413 2 -2570 5 -2570 3 0 116 55 253 121 136 67 301 147
367 179 177 85 460 223 715 347 283 139 345 168 535 253 28 12 77 35 110 51
33 15 152 67 265 114 113 48 224 95 247 106 24 10 46 19 49 19 3 0 20 6 37 14
182 78 404 167 555 222 51 18 107 40 125 47 18 8 61 25 97 37 71 24 303 114
335 130 87 42 732 271 1205 428 645 214 730 241 985 307 99 25 234 64 300 85
242 77 282 89 410 123 164 44 261 65 560 122 132 25 326 63 430 85 337 70 586
110 684 110 25 0 123 16 216 36 504 104 1122 183 1442 184 87 0 291 37 506 91
206 51 240 65 491 203 76 42 140 76 141 76 2 0 84 39 182 86 201 97 304 146
488 229 17 8 55 24 85 35 30 12 69 28 85 35 163 75 609 182 798 192 l97 6 0
533 0 534 -6400 0 -6400 0 0 -2570z"/>
<path d="M12625 6113 c-11 -2 -78 -15 -150 -29 -291 -56 -536 -134 -785 -251
-36 -17 -108 -51 -160 -76 -331 -155 -490 -234 -669 -332 -75 -41 -175 -88
-223 -105 -199 -68 -584 -150 -711 -150 -320 -1 -938 -80 -1442 -184 -93 -20
-191 -36 -216 -36 -98 0 -347 -40 -684 -110 -104 -22 -298 -60 -430 -85 -299
-57 -396 -78 -560 -122 -128 -34 -168 -46 -410 -123 -66 -21 -201 -60 -300
-85 -255 -66 -340 -93 -985 -307 -565 -188 -884 -302 -1310 -471 -118 -47
-235 -92 -260 -100 -50 -17 -354 -132 -385 -146 -11 -5 -51 -21 -90 -36 -38
-16 -88 -36 -110 -45 -22 -10 -98 -41 -170 -70 -71 -29 -158 -66 -192 -81 -34
-16 -65 -29 -67 -29 -7 0 -271 -113 -311 -133 -16 -9 -77 -36 -135 -62 -154
-68 -287 -132 -800 -382 -113 -55 -266 -130 -340 -166 -74 -36 -238 -115 -363
-176 -125 -61 -230 -111 -232 -111 -2 0 -27 -13 -55 -30 -28 -16 -57 -30 -65
-30 -8 0 -15 -7 -15 -15 0 -8 3 -15 6 -15 4 0 57 24 118 54 61 30 134 64 161
76 28 12 115 54 195 92 80 39 170 81 200 95 89 41 222 105 425 203 422 205
527 255 675 322 85 39 206 94 269 124 62 30 117 54 122 54 5 0 28 9 52 19 23
11 71 32 107 46 36 15 79 33 95 40 17 7 127 52 245 100 118 48 251 102 295
120 44 18 231 93 415 165 184 73 358 143 385 156 101 47 1148 402 1635 554 91
28 242 75 335 105 607 192 922 270 1520 380 282 52 411 80 737 160 125 30 247
55 271 55 47 0 215 22 517 69 372 58 721 99 1035 121 298 22 715 104 886 175
51 21 261 124 339 166 8 5 58 28 110 53 89 41 133 62 395 186 393 185 582 248
1045 345 211 44 210 44 210 56 0 9 -136 11 -175 2z"/>
<path d="M12680 6065 c-58 -13 -170 -37 -250 -54 -313 -67 -506 -135 -855
-301 -55 -26 -125 -59 -155 -73 -141 -64 -270 -126 -442 -213 -225 -113 -304
-145 -467 -190 -159 -44 -503 -100 -696 -114 -314 -22 -663 -63 -1035 -121
-302 -47 -470 -69 -517 -69 -24 0 -146 -25 -271 -55 -326 -80 -455 -108 -737
-160 -598 -110 -913 -188 -1520 -380 -93 -30 -244 -77 -335 -105 -476 -148
-1537 -508 -1616 -548 -22 -11 -91 -40 -154 -65 -63 -25 -180 -71 -260 -102
-80 -32 -158 -63 -175 -70 -16 -7 -91 -36 -165 -65 -74 -29 -148 -59 -165 -66
-16 -7 -93 -38 -170 -69 -77 -32 -153 -63 -170 -71 -16 -7 -59 -24 -95 -39
-36 -14 -74 -30 -85 -35 -58 -26 -164 -70 -168 -70 -3 0 -58 -25 -122 -55 -63
-30 -117 -55 -119 -55 -4 0 -93 -40 -221 -100 -69 -32 -265 -127 -505 -242
-303 -147 -455 -220 -510 -245 -30 -14 -129 -61 -218 -104 -90 -44 -166 -79
-168 -79 -2 0 -69 -31 -150 -70 -80 -38 -150 -70 -155 -70 -5 0 -9 -424 -9
-1005 l0 -1005 2023 0 2023 0 27 88 c71 235 86 324 89 531 l2 166 7 -175 c6
-171 6 -171 3 40 -2 118 -8 233 -13 255 -8 34 -9 27 -6 -40 l4 -80 -14 93 c-8
51 -25 139 -39 196 -29 120 -176 565 -210 635 -33 69 -38 83 -25 75 8 -4 9 1
4 17 -10 33 -30 51 -22 22 8 -36 1 -27 -28 31 -25 51 -27 84 -4 70 18 -11 96
-178 142 -304 84 -230 173 -517 163 -527 -3 -4 -6 2 -6 12 0 10 -3 16 -6 13
-3 -3 -2 -23 2 -44 7 -36 8 -37 14 -14 5 18 13 -7 29 -90 18 -88 24 -161 28
-315 5 -187 3 -208 -21 -328 -14 -70 -40 -169 -56 -221 -17 -51 -30 -96 -30
-100 0 -3 32 -6 70 -6 39 0 70 2 70 5 0 3 11 72 25 153 13 81 26 167 28 192 3
42 4 41 7 -15 l3 -60 7 65 c4 36 7 166 7 290 l-1 225 -6 -230 -6 -230 -2 216
c-4 393 -38 511 -303 1043 -90 181 -99 206 -76 205 12 0 82 -127 74 -135 -2
-3 -14 14 -27 38 -13 27 -20 33 -16 18 3 -14 19 -50 35 -80 31 -56 39 -62 21
-16 -13 35 -4 33 15 -4 17 -34 19 -44 5 -35 -14 9 -13 3 10 -51 11 -26 23 -44
26 -41 3 3 -2 19 -11 37 -9 18 -14 34 -11 37 3 4 18 -20 32 -53 39 -89 45
-106 34 -99 -15 9 -13 4 25 -76 32 -66 39 -71 21 -14 -8 24 41 -75 62 -125 8
-19 18 -44 23 -55 12 -28 39 -118 38 -130 0 -5 -4 -1 -9 10 l-9 20 1 -20 c0
-11 4 -31 8 -45 l8 -25 2 25 2 25 8 -25 c4 -14 8 -34 8 -45 0 -16 -2 -15 -8 5
-13 42 -10 -6 6 -85 l14 -70 -4 65 c-4 56 -3 61 7 35 7 -19 11 -136 11 -330 0
-283 -1 -309 -27 -452 -15 -84 -27 -155 -27 -158 0 -3 181 -5 403 -4 l402 0
40 48 c22 26 121 137 220 247 249 275 301 335 384 441 40 51 78 93 84 93 8 0
9 -3 1 -8 -5 -4 -39 -45 -74 -92 -74 -97 -133 -166 -385 -444 -278 -308 -260
-286 -237 -286 23 0 80 57 235 237 175 203 290 342 381 462 47 62 86 110 86
106 0 -34 -327 -438 -573 -707 l-89 -98 866 0 865 0 20 67 c11 38 34 120 51
183 67 243 137 450 196 578 13 29 24 56 24 59 0 10 29 71 156 329 63 127 114
235 114 239 0 4 20 57 44 119 47 117 105 281 126 356 7 25 17 59 22 75 6 17
30 100 54 185 23 85 43 148 43 140 1 -8 -4 -32 -10 -53 -6 -21 -8 -44 -6 -50
2 -7 11 17 20 53 8 36 16 57 16 46 1 -28 -84 -344 -121 -449 -21 -58 -33 -77
-22 -32 11 45 -5 26 -20 -23 -22 -72 -83 -237 -99 -269 -8 -15 -22 -53 -32
-83 -10 -30 -68 -156 -129 -280 -202 -407 -263 -567 -381 -993 -25 -93 -49
-175 -52 -183 -4 -10 2 -14 20 -14 20 0 26 7 35 38 102 386 198 686 247 774 8
14 15 30 15 36 0 11 84 189 197 417 43 88 96 201 117 250 43 101 187 393 231
470 98 169 286 457 294 450 2 -3 -13 -31 -34 -62 -162 -242 -279 -443 -377
-643 -66 -135 -79 -163 -136 -295 -17 -39 -71 -151 -120 -250 -205 -412 -265
-565 -366 -935 -25 -91 -50 -181 -56 -200 -5 -19 -10 -38 -10 -42 0 -5 141 -8
314 -8 l313 0 12 107 c24 222 63 512 87 658 100 600 185 1004 265 1270 48 158
110 358 120 385 25 69 -7 -57 -41 -165 -125 -395 -182 -632 -274 -1145 -73
-410 -97 -563 -136 -901 -24 -207 -24 -209 -7 -209 8 0 25 88 55 297 24 164
58 386 77 493 19 107 46 261 60 342 61 353 126 645 220 983 66 238 79 304 65
330 -13 25 -1 53 58 133 13 18 22 35 19 38 -2 3 -50 -55 -105 -128 -115 -154
-197 -275 -320 -476 -37 -61 -108 -205 -121 -244 -8 -23 -19 -38 -29 -38 -13
0 -13 2 3 14 12 9 16 20 12 35 -3 13 -3 20 1 17 3 -4 25 33 49 81 40 85 70
140 104 193 193 301 380 560 405 560 23 0 16 -21 -30 -94 -38 -59 -43 -72 -34
-92 12 -25 -5 -104 -67 -329 -69 -248 -105 -396 -145 -590 -39 -191 -57 -290
-136 -740 -36 -209 -114 -731 -114 -765 0 -19 8 -20 258 -19 l257 0 27 57 c27
56 88 132 107 132 5 0 -4 -14 -21 -32 -66 -70 -113 -158 -86 -158 7 0 21 20
32 45 16 39 26 49 75 72 74 35 153 90 351 249 413 332 542 465 659 679 18 32
58 89 90 125 77 88 104 125 201 270 139 207 243 326 419 480 66 57 117 108
114 114 -3 5 -1 6 5 2 6 -4 21 -2 31 4 25 13 273 34 636 55 428 23 635 37 695
44 l55 7 -49 8 c-98 17 -970 -37 -1301 -80 -66 -9 -140 -18 -165 -19 -55 -4
-131 -26 -150 -43 -8 -7 -51 -34 -95 -60 -44 -27 -175 -116 -290 -199 -223
-159 -549 -381 -703 -478 -51 -32 -90 -60 -87 -63 13 -13 473 289 807 530 324
234 394 275 490 288 92 12 98 12 98 2 0 -5 -47 -48 -105 -97 -191 -159 -305
-292 -470 -543 -55 -83 -102 -147 -103 -142 -2 6 -8 8 -13 5 -10 -7 -1 24 13
42 5 7 8 22 6 35 -2 19 -7 14 -29 -27 -74 -142 -147 -265 -183 -309 -24 -30
-40 -58 -38 -69 7 -37 -293 -316 -582 -542 -70 -55 -170 -135 -221 -177 -97
-80 -105 -86 -105 -67 0 5 5 7 10 4 6 -3 10 -2 10 3 0 10 83 79 310 258 260
206 570 490 570 523 0 11 -11 4 -36 -22 -19 -20 -40 -37 -45 -37 -6 0 -7 -4
-4 -10 3 -5 1 -10 -4 -10 -20 0 -11 12 74 102 47 49 97 110 110 136 14 26 43
79 65 117 22 39 50 89 61 113 25 50 46 55 51 10 3 -29 10 -21 100 115 143 214
244 330 413 476 50 43 101 85 115 94 28 19 28 19 -62 8 -88 -12 -168 -59 -486
-289 -345 -248 -530 -371 -792 -523 -13 -8 -44 -29 -69 -46 -24 -18 -51 -33
-60 -33 -10 1 -5 7 12 16 16 9 26 18 23 21 -3 3 -12 0 -21 -7 -9 -7 -17 -11
-20 -9 -2 3 134 96 303 209 169 112 415 281 548 375 215 154 302 212 399 267
17 10 29 22 28 28 -2 5 10 10 25 10 16 0 50 7 76 16 26 9 55 14 66 11 11 -3
36 -1 57 3 71 16 417 50 653 64 521 33 715 40 763 28 25 -7 63 -13 84 -13 21
-1 -9 -7 -67 -15 -107 -13 -233 -21 -735 -49 -154 -9 -356 -22 -449 -30 -195
-17 -167 -4 -356 -171 -116 -103 -185 -177 -272 -289 -70 -89 -82 -106 -108
-150 -45 -74 -140 -204 -208 -282 -37 -43 -91 -121 -121 -174 -29 -52 -83
-131 -120 -175 -76 -90 -269 -262 -511 -457 -194 -156 -275 -214 -348 -247
-41 -18 -58 -34 -73 -62 -10 -20 -19 -40 -19 -43 0 -3 1040 -5 2310 -5 l2310
0 0 955 0 955 -57 0 c-76 0 -217 15 -383 41 -299 45 -531 109 -680 186 -40 20
-75 30 -130 34 l-75 5 73 2 c65 2 80 -2 145 -34 129 -64 236 -99 437 -142 186
-40 494 -81 613 -82 56 0 57 0 57 29 l0 28 -112 7 c-304 19 -697 88 -905 159
-46 15 -63 26 -63 39 0 15 -8 18 -44 18 -30 0 -65 11 -111 34 -37 18 -75 32
-84 29 -10 -2 -50 19 -97 53 -43 32 -113 81 -154 110 -142 98 -424 400 -506
541 -70 118 -176 515 -189 708 -7 104 6 300 30 472 11 72 13 81 10 33 -2 -36
-10 -105 -16 -155 -7 -49 -12 -169 -12 -265 0 -170 2 -180 42 -355 46 -197 85
-318 131 -404 74 -137 369 -462 504 -553 33 -23 102 -73 153 -110 50 -37 98
-68 105 -68 8 1 6 6 -6 15 -41 31 5 13 70 -27 55 -33 81 -43 127 -46 51 -4 62
-10 59 -34 -2 -10 66 -34 194 -67 208 -53 527 -102 762 -117 l112 -7 0 2052
c0 1128 -3 2051 -7 2050 -5 0 -55 -11 -113 -24z m-2115 -1822 c-4 -27 -18
-102 -32 -168 -18 -89 -26 -165 -30 -295 -5 -173 -5 -177 32 -355 57 -276 114
-431 196 -538 22 -28 58 -76 80 -105 72 -95 292 -311 386 -380 169 -122 246
-172 277 -180 27 -8 21 -10 -49 -21 -44 -6 -123 -13 -175 -16 -102 -4 -89 -2
88 16 l113 12 -57 34 c-32 19 -83 54 -113 77 -31 24 -87 66 -126 94 -74 53
-292 272 -356 357 -21 27 -56 74 -78 102 -22 29 -49 70 -59 90 -40 80 -102
285 -137 458 -37 178 -37 182 -32 355 4 130 12 206 30 295 14 66 28 141 32
168 3 26 8 47 11 47 3 0 2 -21 -1 -47z m-4357 -931 c67 -88 154 -229 177 -288
23 -57 31 -76 44 -104 44 -98 99 -317 122 -490 18 -127 18 -492 1 -590 -47
-259 -119 -458 -227 -620 -104 -156 -394 -440 -449 -440 -29 0 -16 16 65 80
94 74 246 232 328 340 167 222 257 514 271 885 l7 190 3 -160 c4 -145 5 -150
8 -55 2 58 0 157 -5 220 -7 108 -8 112 -14 55 -5 -56 -6 -57 -8 -15 -8 215
-88 514 -190 720 -44 89 -98 173 -166 260 -28 36 -55 72 -59 80 -4 8 1 5 10
-7 23 -32 38 -28 17 4 -35 53 8 11 65 -65z m4989 -1108 c-3 -3 -12 -4 -19 -1
-8 3 -5 6 6 6 11 1 17 -2 13 -5z m71 -1 c-10 -2 -28 -2 -40 0 -13 2 -5 4 17 4
22 1 32 -1 23 -4z m190 -20 c-10 -2 -28 -2 -40 0 -13 2 -5 4 17 4 22 1 32 -1
23 -4z m-7328 -767 c0 -6 -7 -2 -15 8 -8 11 -15 25 -15 30 0 6 7 2 15 -8 8
-11 15 -25 15 -30z m3624 -331 c-4 -8 -8 -15 -10 -15 -2 0 -4 7 -4 15 0 8 4
15 10 15 5 0 7 -7 4 -15z"/>
<path d="M6160 3343 c0 -6 5 -15 11 -19 19 -12 150 -217 185 -290 82 -174 141
-366 168 -554 8 -52 14 -81 15 -64 4 129 -95 473 -190 658 -28 53 -107 181
-129 210 -43 52 -59 69 -60 59z"/>
<path d="M6541 1929 c-3 -95 -62 -342 -111 -463 -61 -153 -167 -306 -325 -468
-36 -38 -60 -68 -54 -68 20 0 237 246 286 325 34 54 93 178 117 243 51 143
103 389 93 442 -3 19 -5 16 -6 -11z"/>
<path d="M5974 876 c-28 -23 -64 -52 -80 -64 -16 -12 -24 -22 -17 -22 6 0 48
29 94 65 45 36 76 65 68 64 -8 0 -37 -19 -65 -43z"/>
<path d="M7658 2129 c-14 -52 -36 -127 -47 -166 -22 -77 -27 -109 -12 -83 14
24 93 320 89 332 -2 6 -16 -31 -30 -83z"/>
<path d="M3810 1910 c0 -5 9 -24 20 -42 24 -39 27 -25 4 20 -16 32 -24 40 -24
22z"/>
<path d="M3901 1840 c-1 -18 16 -46 23 -40 2 3 -2 16 -9 30 -8 15 -14 19 -14
10z"/>
<path d="M3880 1778 c0 -4 9 -28 21 -55 31 -70 113 -306 164 -468 24 -77 44
-132 45 -123 0 23 -120 392 -172 528 -36 92 -58 138 -58 118z"/>
<path d="M4051 1540 c0 -8 6 -26 14 -40 8 -14 14 -19 14 -10 0 8 -6 26 -14 40
-8 14 -14 19 -14 10z"/>
<path d="M4150 1325 c0 -3 15 -42 34 -87 18 -46 38 -96 44 -113 6 -16 11 -24
11 -17 1 15 -78 222 -85 222 -2 0 -4 -2 -4 -5z"/>
<path d="M9396 1284 c-4 -9 -4 -19 -1 -22 2 -3 7 3 11 12 4 9 4 19 1 22 -2 3
-7 -3 -11 -12z"/>
<path d="M8630 1190 c-14 -11 -20 -20 -15 -20 6 0 21 9 35 20 14 11 21 20 15
20 -5 0 -21 -9 -35 -20z"/>
<path d="M4132 1020 c0 -14 4 -38 8 -55 7 -27 8 -27 8 -5 0 14 -4 39 -8 55 -7
27 -8 27 -8 5z"/>
<path d="M4157 385 c-9 -61 -47 -216 -76 -305 -31 -97 -24 -98 10 -1 34 101
81 305 77 335 -2 11 -7 -2 -11 -29z"/>
<path d="M4257 171 c-10 -62 -21 -127 -24 -145 -3 -17 -3 -29 0 -26 9 8 49
248 45 268 -2 9 -11 -35 -21 -97z"/>
</g>
</svg>
