<?xml version="1.0" standalone="no"?>
<!DOCTYPE svg PUBLIC "-//W3C//DTD SVG 20010904//EN"
 "http://www.w3.org/TR/2001/REC-SVG-20010904/DTD/svg10.dtd">
<svg version="1.0" xmlns="http://www.w3.org/2000/svg"
 width="1280.000000pt" height="720.000000pt" viewBox="0 0 1280.000000 720.000000"
 preserveAspectRatio="xMidYMid meet">
<metadata>
Created by potrace 1.16, written by Peter Selinger 2001-2019
</metadata>
<g transform="translate(0.000000,720.000000) scale(0.100000,-0.100000)"
fill="#000000" stroke="none">
<path d="M0 4690 c0 -1380 2 -2510 4 -2510 3 0 124 71 468 276 193 115 456
255 598 318 83 37 212 97 320 148 93 45 160 76 230 106 85 37 296 130 355 158
66 30 174 74 182 74 12 0 111 40 198 80 36 16 68 30 71 30 3 0 24 8 47 19 56
25 201 81 312 121 50 18 205 79 345 135 140 57 311 124 380 150 69 26 139 53
155 61 126 56 673 241 1020 344 423 127 479 141 805 210 107 23 339 77 515
120 343 85 419 102 820 185 143 30 368 77 500 105 501 105 699 140 930 165 88
9 210 26 270 37 270 47 739 116 1010 148 228 27 403 52 455 65 30 8 87 19 125
26 216 35 418 89 560 149 105 45 340 164 405 205 24 15 94 52 155 82 60 30
118 58 127 63 46 25 442 222 499 248 361 165 594 241 862 283 l77 12 0 448 0
449 -6400 0 -6400 0 0 -2510z"/>
<path d="M12680 6274 c-175 -31 -352 -82 -521 -150 -80 -31 -106 -42 -229 -96
-125 -55 -803 -399 -859 -435 -35 -24 -69 -43 -75 -43 -7 0 -61 -27 -122 -60
-60 -33 -113 -60 -119 -60 -5 0 -23 -7 -40 -16 -92 -48 -401 -132 -605 -164
-41 -6 -85 -16 -98 -21 -23 -9 -281 -46 -477 -69 -264 -31 -739 -101 -1010
-148 -60 -11 -182 -28 -270 -37 -231 -25 -429 -60 -930 -165 -132 -28 -357
-75 -500 -105 -401 -83 -477 -100 -820 -185 -176 -43 -408 -97 -515 -120 -326
-69 -380 -83 -805 -210 -415 -123 -730 -233 -1185 -410 -102 -39 -212 -82
-245 -95 -33 -13 -104 -41 -157 -64 -53 -22 -195 -77 -314 -121 -120 -45 -274
-107 -343 -137 -139 -60 -198 -85 -251 -104 -78 -27 -143 -54 -310 -129 -96
-43 -236 -105 -310 -138 -74 -33 -196 -89 -270 -125 -74 -35 -164 -77 -200
-93 -131 -56 -420 -209 -618 -328 -383 -228 -465 -276 -473 -276 -5 0 -9 -16
-9 -35 0 -19 4 -35 9 -35 10 0 48 28 110 82 56 48 200 128 701 385 149 77 308
161 445 237 73 40 237 117 340 161 50 20 109 46 132 56 24 10 46 19 49 19 4 0
25 9 48 19 54 25 227 96 405 166 80 31 172 69 205 85 188 86 391 166 381 150
-9 -14 -11 -15 110 36 172 72 227 94 275 111 25 8 60 24 78 35 36 22 210 90
359 140 51 17 93 35 93 40 0 5 5 6 10 3 5 -3 10 -2 10 3 0 5 8 12 18 15 9 3
94 33 187 67 268 97 858 277 1090 332 44 11 170 42 280 70 222 56 490 120 605
144 41 9 100 24 130 34 110 37 386 101 500 115 58 7 321 54 480 85 52 10 174
39 270 63 174 44 583 126 735 148 44 6 145 24 225 39 327 64 572 102 1045 165
66 9 199 29 295 45 96 16 212 34 257 40 46 6 118 18 160 26 43 8 130 21 193
30 200 26 440 99 578 176 44 24 55 23 17 -2 -16 -11 -24 -20 -17 -20 8 0 32
13 55 29 121 82 144 95 470 250 70 34 182 88 250 120 67 33 163 75 212 94 131
51 400 147 410 147 5 0 27 8 49 19 80 37 137 56 416 141 58 17 111 33 118 35
6 3 12 16 12 30 0 29 -7 30 -120 9z m-35 -64 c-11 -5 -55 -16 -97 -26 -43 -9
-75 -20 -73 -24 2 -4 -8 -5 -23 -3 -22 4 -24 2 -12 -7 12 -8 8 -9 -15 -4 -23
4 -27 3 -15 -5 12 -9 10 -10 -10 -6 -14 3 -43 -1 -65 -9 -26 -9 -33 -15 -20
-16 l20 -1 -20 -9 c-28 -12 -43 -12 -25 1 11 8 8 9 -15 5 -65 -13 6 15 127 50
164 47 295 77 243 54z m-430 -126 c-29 -14 -29 -14 -3 -9 14 3 34 7 45 10 10
3 2 -2 -17 -12 -19 -9 -52 -16 -74 -16 -25 0 -33 -2 -25 -8 11 -7 10 -9 -3 -9
-35 0 -17 25 30 41 60 21 86 22 47 3z"/>
<path d="M12168 6063 c7 -3 16 -2 19 1 4 3 -2 6 -13 5 -11 0 -14 -3 -6 -6z"/>
<path d="M12785 6225 c-5 -2 -57 -18 -115 -35 -206 -63 -266 -82 -365 -121
-93 -35 -293 -108 -410 -149 -94 -33 -200 -78 -310 -133 -112 -55 -176 -86
-370 -177 -188 -89 -186 -88 -251 -131 -109 -72 -140 -90 -156 -86 -10 3 -50
-8 -90 -25 -179 -72 -316 -110 -491 -133 -61 -8 -147 -21 -190 -29 -42 -8
-114 -20 -160 -26 -45 -6 -161 -24 -257 -40 -96 -16 -229 -36 -295 -45 -473
-63 -718 -101 -1045 -165 -80 -15 -181 -33 -225 -39 -152 -22 -561 -104 -735
-148 -96 -24 -218 -53 -270 -63 -159 -31 -422 -78 -480 -85 -113 -14 -344 -67
-480 -109 -41 -13 -109 -31 -150 -40 -119 -25 -388 -89 -605 -144 -110 -28
-236 -59 -280 -70 -224 -53 -821 -235 -1075 -327 -178 -64 -210 -77 -210 -87
0 -3 -44 -21 -98 -38 -53 -18 -117 -40 -142 -50 -25 -10 -83 -32 -130 -50 -47
-18 -92 -38 -100 -45 -8 -7 -46 -23 -85 -37 -38 -14 -141 -55 -228 -91 -88
-36 -165 -63 -171 -61 -12 5 -74 -17 -151 -51 -274 -122 -323 -143 -485 -205
-69 -26 -155 -62 -193 -79 -37 -17 -70 -31 -72 -31 -3 0 -94 -37 -203 -82
-184 -76 -426 -194 -602 -293 -41 -23 -158 -85 -260 -137 -229 -118 -535 -279
-615 -324 -33 -18 -89 -58 -125 -89 -36 -30 -75 -58 -87 -61 l-23 -6 0 -1044
0 -1044 1975 0 1974 0 15 51 c66 221 90 421 84 684 -3 110 -2 166 2 125 13
-133 10 -356 -5 -472 -13 -99 -61 -321 -80 -370 -6 -16 26 -17 503 -18 l510 0
60 62 c33 35 104 115 159 179 54 64 148 174 208 245 61 70 147 184 193 253 46
69 81 115 77 102 -5 -16 -4 -21 4 -17 6 4 11 15 12 24 0 10 3 12 6 5 6 -16
-56 -133 -122 -232 -58 -87 -89 -125 -299 -375 -83 -98 -164 -194 -179 -212
l-28 -34 828 0 828 0 34 168 c67 330 161 682 228 852 14 36 55 155 90 265 61
191 65 209 88 415 47 418 98 767 112 767 17 0 16 -2 -7 -187 -23 -190 -62
-591 -57 -596 2 -2 11 22 21 54 14 44 149 388 195 497 5 11 17 40 27 64 36 84
197 395 215 416 5 5 9 17 9 27 0 10 7 18 15 18 36 0 8 -97 -79 -275 -35 -71
-78 -166 -96 -210 -17 -44 -36 -89 -41 -100 -4 -11 -33 -85 -64 -165 -31 -80
-62 -161 -70 -180 -33 -78 -109 -298 -181 -520 -41 -129 -93 -282 -114 -340
-67 -181 -131 -422 -204 -760 -20 -91 -39 -175 -42 -187 l-6 -23 371 0 371 0
0 223 c0 122 7 330 15 462 8 132 19 400 25 595 5 195 14 405 20 465 5 61 14
183 20 273 6 89 15 186 21 215 19 92 73 247 86 247 7 0 13 -5 13 -11 0 -5 -4
-8 -8 -5 -10 6 -65 -152 -81 -231 -6 -29 -15 -126 -21 -215 -6 -90 -15 -212
-20 -273 -6 -60 -15 -270 -20 -465 -6 -195 -17 -463 -25 -595 -8 -132 -15
-340 -15 -462 l0 -223 28 0 29 0 7 278 c4 152 11 358 16 457 5 99 14 338 20
530 16 581 43 1042 65 1125 8 30 12 39 9 20 -2 -19 -9 -66 -15 -104 -11 -83
-31 -520 -59 -1306 -6 -168 -15 -404 -20 -525 -5 -121 -9 -277 -10 -347 l0
-128 311 0 c248 0 314 3 323 13 6 8 32 42 58 76 48 63 77 87 158 131 103 57
325 224 511 386 95 84 329 322 337 345 6 16 -17 9 -28 -8 -10 -16 -10 -16 -8
2 3 13 11 20 26 19 38 -1 115 99 189 248 36 73 73 138 82 144 34 24 212 411
282 612 21 62 39 115 39 118 0 3 -30 -21 -67 -54 -147 -128 -259 -210 -583
-426 -185 -123 -352 -233 -372 -243 -20 -11 -58 -38 -84 -60 -59 -49 -123 -93
-136 -93 -5 0 -8 10 -6 22 2 13 28 40 65 67 33 25 103 78 155 117 85 64 251
175 579 386 107 69 303 215 368 275 57 51 277 102 540 123 252 20 1003 61
1101 59 96 -1 14 -8 -230 -19 -732 -31 -1086 -62 -1250 -109 -36 -10 -76 -21
-90 -25 -14 -3 -38 -18 -55 -34 -65 -60 -261 -207 -374 -280 -328 -211 -494
-322 -579 -386 -52 -39 -121 -91 -155 -116 -33 -25 -63 -52 -65 -59 -5 -16 32
9 113 74 28 22 68 52 90 65 81 49 702 464 755 505 30 24 104 84 164 134 106
89 126 101 126 81 0 -16 -81 -252 -96 -280 -7 -14 -45 -97 -83 -185 -77 -176
-125 -271 -145 -282 -7 -5 -38 -58 -69 -120 -76 -151 -74 -148 -141 -228 -164
-196 -357 -384 -566 -551 -95 -76 -260 -193 -325 -230 -88 -50 -116 -72 -147
-116 -17 -24 -42 -55 -56 -70 -20 -22 -22 -28 -10 -28 9 0 45 30 79 66 35 36
86 77 114 91 168 86 477 327 660 515 181 185 351 392 400 488 10 19 33 55 52
80 34 44 149 268 206 400 39 90 111 300 132 387 17 69 19 73 49 78 81 14 266
25 410 25 88 0 157 2 155 5 -3 2 -63 7 -132 10 -70 3 -135 6 -145 6 -19 2 292
24 433 32 50 2 65 2 35 0 -41 -4 -50 -7 -35 -13 13 -6 5 -7 -25 -4 -25 2 -92
1 -150 -4 l-105 -8 101 -7 c75 -6 130 -4 207 8 128 19 290 32 577 45 118 6
237 15 263 20 44 9 59 6 194 -40 144 -49 251 -80 348 -99 126 -24 180 -30 320
-35 83 -3 203 -9 268 -12 112 -7 117 -6 117 13 0 19 -9 20 -222 26 -308 9
-328 12 -543 67 -299 77 -598 187 -750 276 -40 23 -113 102 -318 342 -206 242
-264 355 -341 667 -42 171 -51 244 -51 419 0 221 -15 164 -22 -86 -6 -201 -1
-243 47 -440 35 -143 67 -225 132 -337 98 -171 351 -459 483 -550 43 -30 125
-78 182 -107 58 -30 98 -54 90 -54 -24 0 -202 95 -284 152 -151 104 -415 415
-504 593 -58 116 -80 179 -121 345 -33 134 -33 137 -32 360 1 169 5 239 16
280 11 38 16 47 18 30 l2 -25 8 25 c5 15 6 0 2 -35 -11 -94 -7 -312 7 -395 20
-116 69 -305 108 -408 56 -151 115 -242 285 -442 244 -286 288 -328 368 -359
19 -8 60 -26 90 -41 138 -69 333 -135 585 -200 215 -55 235 -58 543 -67 l222
-6 0 2076 c0 1143 -1 2077 -2 2076 -2 0 -7 -2 -13 -4z m-2175 -2153 c0 -5 -7
-9 -15 -9 -8 0 -15 4 -15 9 0 4 7 8 15 8 8 0 15 -4 15 -8z m-4729 -354 c85
-91 422 -562 445 -622 3 -8 11 -14 17 -12 7 1 9 1 5 -1 -5 -3 -8 -9 -8 -14 0
-6 5 -7 12 -3 6 4 8 3 5 -3 -3 -5 5 -33 19 -62 26 -58 32 -80 9 -41 -24 42
-17 6 10 -51 23 -49 29 -45 10 6 -5 14 -5 17 2 10 15 -14 69 -185 88 -280 26
-123 32 -444 11 -560 -38 -204 -122 -398 -248 -574 -123 -172 -415 -501 -445
-501 -28 0 -8 30 92 134 58 60 102 113 99 118 -3 4 -1 7 4 6 10 -3 161 174
229 269 71 100 137 222 176 323 20 52 37 86 37 75 l1 -20 9 20 c5 11 9 29 9
40 l0 20 -10 -20 c-11 -23 -11 -22 17 114 23 119 15 444 -15 576 -27 117 -64
221 -113 320 -77 154 -370 577 -491 708 -25 26 -40 46 -33 44 27 -9 208 -241
346 -444 46 -68 86 -120 89 -118 6 6 -129 206 -233 345 -104 138 -175 220
-200 230 -18 8 -18 9 -3 9 10 1 36 -18 58 -41z m-2870 -1094 c205 -113 351
-209 431 -282 64 -60 218 -248 289 -353 24 -36 49 -64 56 -62 6 2 14 -1 18 -6
4 -7 0 -8 -11 -4 -19 7 -20 9 24 -74 17 -34 32 -68 32 -75 -1 -7 -12 7 -25 32
-13 25 -24 43 -25 40 0 -3 20 -55 45 -115 25 -61 45 -102 45 -93 0 9 -9 37
-20 63 -23 54 -26 72 -4 33 17 -33 66 -171 101 -288 112 -379 144 -865 77
-1195 -20 -97 -56 -236 -61 -231 -2 2 7 48 21 102 54 209 61 273 61 529 0 178
-5 272 -19 365 -18 126 -34 183 -23 80 15 -128 15 -150 2 -70 -26 151 -56 301
-72 354 -102 341 -177 508 -303 671 -53 68 -63 85 -56 85 3 0 31 -34 62 -76
31 -41 58 -73 61 -70 12 11 -170 236 -265 327 -90 87 -197 168 -207 157 -3 -2
26 -26 64 -52 72 -49 287 -263 276 -274 -3 -4 -18 9 -32 28 -56 74 -202 209
-289 266 -49 32 -152 93 -227 134 -123 67 -163 100 -123 100 7 0 51 -21 97
-46z m7607 -471 c-10 -2 -26 -2 -35 0 -10 3 -2 5 17 5 19 0 27 -2 18 -5z
m-4378 -713 c0 -5 -5 -10 -11 -10 -5 0 -7 5 -4 10 3 6 8 10 11 10 2 0 4 -4 4
-10z m-2223 -527 c-3 -10 -5 -2 -5 17 0 19 2 27 5 18 2 -10 2 -26 0 -35z m-3
-238 c-7 -64 -20 -136 -46 -254 -16 -71 -23 -90 -30 -75 -5 12 -6 3 -3 -26 3
-34 2 -39 -4 -20 -7 20 -9 21 -10 6 -1 -11 -3 -17 -6 -14 -3 3 4 45 16 94 33
139 58 298 66 408 l8 101 7 -85 c4 -47 5 -107 2 -135z m13 113 c-2 -13 -4 -5
-4 17 -1 22 1 32 4 23 2 -10 2 -28 0 -40z"/>
<path d="M6260 3166 c0 -7 17 -37 92 -161 38 -64 15 -5 -27 70 -45 79 -65 107
-65 91z"/>
<path d="M6425 2840 c3 -14 17 -67 30 -118 13 -51 29 -129 35 -174 15 -126 13
-376 -6 -464 -8 -42 -13 -81 -11 -87 2 -7 12 32 22 86 14 80 17 133 12 290 -5
201 -24 323 -67 437 -11 30 -18 44 -15 30z"/>
<path d="M6426 1867 c-70 -202 -260 -468 -529 -745 -50 -50 -88 -94 -85 -97 8
-8 223 219 313 330 136 169 194 253 249 363 37 75 81 190 75 197 -3 2 -13 -19
-23 -48z"/>
<path d="M2915 2650 c3 -5 10 -10 15 -10 7 0 242 -132 265 -149 6 -4 19 -11
30 -15 16 -5 15 -2 -5 13 -14 11 -41 29 -60 39 -19 11 -81 45 -136 76 -103 57
-120 64 -109 46z"/>
<path d="M3720 1972 c0 -4 13 -28 28 -53 16 -24 31 -53 35 -63 4 -10 10 -16
13 -13 3 3 -11 35 -31 71 -35 63 -45 76 -45 58z"/>
<path d="M3893 1603 c55 -174 84 -277 102 -363 13 -58 24 -95 24 -82 2 57
-108 462 -126 462 -3 0 -3 -8 0 -17z"/>
<path d="M4003 720 c0 -25 2 -35 4 -22 2 12 2 32 0 45 -2 12 -4 2 -4 -23z"/>
<path d="M3991 648 c0 -14 -10 -70 -21 -125 -27 -125 -34 -184 -15 -113 24 91
47 227 42 247 -3 12 -5 10 -6 -9z"/>
<path d="M7647 2650 c-26 -52 -67 -129 -90 -170 -66 -115 -298 -677 -331 -801
-12 -45 -15 -49 -17 -24 l-1 30 -9 -30 c-7 -26 -8 -25 -4 10 3 22 14 132 25
245 11 113 29 279 40 369 11 90 18 166 15 169 -3 3 -5 0 -5 -7 0 -7 -13 -108
-30 -224 -16 -117 -43 -329 -59 -472 -30 -259 -30 -261 -95 -460 -36 -110 -92
-279 -125 -375 -33 -96 -82 -267 -110 -380 -50 -204 -111 -489 -111 -516 0 -8
10 -14 24 -14 22 0 26 7 45 88 11 48 29 130 40 182 48 235 133 545 194 710 19
52 75 219 125 370 97 297 147 436 278 770 98 248 98 248 173 400 55 109 87
199 80 217 -2 4 -25 -35 -52 -87z"/>
<path d="M11550 2210 c-19 -5 -134 -13 -255 -19 -297 -15 -460 -28 -580 -46
-55 -9 -221 -20 -370 -25 -256 -10 -388 -20 -400 -32 -3 -2 -14 -40 -26 -84
-66 -253 -219 -606 -336 -776 -29 -43 -53 -82 -53 -86 0 -13 -136 -196 -210
-282 -238 -278 -611 -593 -840 -709 -43 -21 -160 -127 -160 -143 0 -4 1008 -8
2240 -8 l2240 0 0 1008 0 1008 -207 12 c-115 7 -239 12 -276 12 -38 0 -87 4
-110 9 -23 5 -71 15 -107 22 -89 16 -210 50 -370 104 -74 25 -137 45 -140 44
-3 -1 -21 -5 -40 -9z"/>
<path d="M5606 726 c-32 -51 -106 -149 -165 -218 -58 -69 -153 -182 -211 -249
-57 -68 -133 -154 -169 -191 -63 -67 -64 -68 -35 -68 21 1 37 11 59 39 17 21
98 119 182 218 254 302 294 355 368 488 56 100 36 87 -29 -19z"/>
</g>
</svg>
