<?xml version="1.0" standalone="no"?>
<!DOCTYPE svg PUBLIC "-//W3C//DTD SVG 20010904//EN"
 "http://www.w3.org/TR/2001/REC-SVG-20010904/DTD/svg10.dtd">
<svg version="1.0" xmlns="http://www.w3.org/2000/svg"
 width="1280.000000pt" height="720.000000pt" viewBox="0 0 1280.000000 720.000000"
 preserveAspectRatio="xMidYMid meet">
<metadata>
Created by potrace 1.16, written by Peter Selinger 2001-2019
</metadata>
<g transform="translate(0.000000,720.000000) scale(0.100000,-0.100000)"
fill="#000000" stroke="none">
<path d="M0 4761 l0 -2439 93 48 c50 26 182 95 292 152 285 149 864 431 1073
523 61 28 108 51 104 53 -5 1 -110 -41 -233 -94 -245 -105 -271 -115 -219 -85
42 24 23 28 -23 5 -18 -9 -27 -12 -22 -6 6 6 96 47 200 92 105 45 204 87 220
95 17 7 53 22 80 33 44 18 77 32 200 87 102 46 485 200 660 266 172 65 341
130 360 139 11 5 61 25 110 44 50 19 131 51 180 72 50 21 205 77 345 124 140
48 264 90 275 94 11 4 9 1 -6 -8 -14 -8 -134 -51 -267 -96 -133 -44 -275 -94
-315 -111 -129 -54 -541 -216 -592 -233 -27 -10 -92 -34 -145 -56 -52 -21
-149 -59 -215 -85 -66 -26 -138 -56 -160 -65 -22 -10 -112 -48 -200 -85 -161
-68 -210 -91 -170 -82 11 3 29 8 40 12 14 4 13 2 -5 -10 l-25 -16 25 7 c14 3
32 10 40 15 13 7 13 8 0 9 -13 0 -13 1 0 10 8 5 20 10 25 10 6 0 3 -5 -5 -10
-13 -9 -13 -10 0 -10 8 0 22 5 30 10 13 9 13 10 0 10 -13 0 -13 1 0 10 20 13
39 12 20 -1 -12 -8 -11 -9 5 -6 11 2 19 7 18 13 -1 5 10 9 23 9 13 0 24 -1 24
-2 0 -3 -64 -32 -220 -98 -74 -31 -213 -95 -309 -141 -95 -46 -201 -96 -235
-111 -88 -40 -668 -332 -888 -448 -165 -86 -188 -102 -188 -123 0 -13 3 -22 8
-20 196 99 1039 516 1092 541 41 19 116 54 165 77 78 37 259 120 390 180 22
10 61 28 88 39 66 29 127 56 237 106 52 24 122 55 155 70 33 15 80 35 105 45
25 10 75 31 110 47 283 128 449 195 755 302 474 166 555 194 835 285 505 166
1367 408 1870 527 96 22 239 56 316 75 174 42 432 84 512 84 33 0 104 9 158
20 55 11 178 34 274 51 96 16 245 51 330 76 190 56 496 122 730 158 96 15 272
43 390 62 118 19 266 38 328 44 63 5 117 11 122 14 4 3 104 21 222 39 395 64
642 106 753 127 201 38 719 167 800 199 70 27 485 226 525 251 8 5 25 13 36
18 20 9 239 130 274 151 129 80 730 313 1112 432 l108 33 0 38 c0 27 -4 37
-15 37 -19 0 -236 -70 -350 -112 -44 -16 -123 -45 -175 -65 -353 -129 -570
-226 -810 -363 -158 -90 -608 -312 -720 -355 -88 -34 -132 -46 -405 -114 -314
-77 -336 -82 -1040 -202 -93 -16 -215 -38 -270 -48 -55 -11 -158 -27 -230 -36
-307 -37 -709 -107 -990 -171 -60 -14 -211 -45 -335 -69 -124 -25 -266 -55
-315 -69 -50 -13 -145 -34 -210 -46 -66 -11 -237 -43 -380 -71 -870 -167 -972
-190 -1720 -389 -352 -94 -922 -268 -1095 -334 -122 -47 -129 -49 -89 -27 87
48 733 251 1184 371 748 199 850 222 1720 389 143 28 314 60 380 71 65 12 160
33 210 46 49 14 191 44 315 69 124 24 275 55 335 69 281 64 683 134 990 171
72 9 175 25 230 36 55 10 177 32 270 48 704 120 726 125 1040 202 254 63 312
79 379 104 92 35 592 282 736 364 169 96 320 169 524 251 295 119 780 290 821
290 13 0 15 49 15 400 l0 400 -6400 0 -6400 0 0 -2439z"/>
<path d="M12600 6241 c-553 -185 -829 -298 -1110 -456 -171 -97 -614 -315
-730 -360 -94 -36 -603 -164 -815 -204 -111 -21 -358 -63 -753 -127 -118 -18
-218 -36 -222 -39 -5 -3 -59 -9 -122 -14 -62 -6 -210 -25 -328 -44 -118 -19
-294 -47 -390 -62 -201 -31 -545 -103 -670 -141 -179 -54 -223 -64 -391 -93
-96 -17 -218 -40 -273 -51 -54 -11 -125 -20 -158 -20 -80 0 -338 -42 -512 -84
-77 -19 -220 -53 -316 -75 -681 -160 -1664 -448 -2335 -683 -659 -230 -750
-265 -943 -354 -40 -19 -75 -34 -78 -34 -3 0 -20 -6 -37 -14 -18 -8 -63 -28
-100 -45 -38 -17 -71 -31 -74 -31 -2 0 -78 -33 -166 -74 -89 -40 -200 -90
-247 -111 -108 -47 -261 -116 -370 -168 -47 -22 -121 -56 -165 -77 -224 -105
-319 -151 -787 -383 l-508 -251 0 -1123 0 -1123 1964 0 1963 0 12 58 c60 284
74 466 61 757 -13 294 -47 492 -126 745 -79 252 -187 429 -441 722 -104 120
-332 310 -495 413 -46 29 -62 55 -35 55 40 0 382 -265 501 -387 160 -165 348
-420 406 -548 18 -39 36 -79 41 -90 26 -57 85 -258 114 -390 55 -243 68 -366
69 -665 1 -277 -10 -386 -55 -578 -10 -46 -19 -85 -19 -88 0 -2 199 -4 443 -4
421 0 443 1 454 19 6 10 54 67 105 127 52 60 138 163 193 229 54 66 120 145
145 175 93 109 221 286 250 344 17 33 30 54 30 47 0 -42 -131 -237 -270 -401
-25 -30 -112 -134 -192 -230 -81 -96 -171 -204 -202 -240 -41 -48 -51 -66 -40
-68 9 -2 23 7 32 20 9 12 57 70 107 128 134 155 391 473 457 565 55 78 103
164 119 215 5 17 8 19 8 7 2 -31 -63 -158 -120 -237 -63 -87 -322 -407 -454
-560 -49 -58 -96 -113 -104 -123 -13 -16 34 -17 851 -17 l865 0 12 62 c15 79
123 523 156 643 14 50 64 229 111 400 l86 310 -6 197 c-3 108 -18 358 -32 555
-14 197 -23 378 -20 403 4 32 3 39 -3 25 -9 -19 -10 -19 -10 3 -1 38 26 25 32
-15 16 -102 66 -811 68 -968 1 -49 3 -81 6 -70 15 64 100 334 151 480 103 293
142 408 151 455 9 42 9 41 4 -15 -3 -33 -14 -82 -25 -109 -10 -27 -17 -54 -15
-60 5 -14 42 103 55 174 l11 55 -5 -55 c-3 -30 -27 -120 -54 -200 -27 -80 -67
-210 -89 -290 -37 -134 -63 -234 -172 -660 -22 -85 -67 -252 -99 -370 -108
-397 -220 -868 -220 -929 l0 -21 421 0 421 0 -4 148 c-4 116 -9 159 -26 205
-12 32 -30 119 -42 195 -11 75 -36 202 -56 282 -42 173 -53 253 -54 381 0 77
-3 98 -15 103 -19 7 -19 68 -1 342 8 115 18 277 21 359 10 258 44 636 76 845
l8 55 -4 -65 c-3 -36 -11 -121 -20 -190 -21 -174 -43 -455 -50 -645 -4 -88
-13 -252 -21 -364 -16 -231 -18 -318 -6 -325 4 -2 7 16 7 42 -1 26 2 97 6 157
4 61 15 261 24 445 9 184 22 401 30 481 22 230 37 360 42 355 3 -3 -2 -69 -11
-148 -27 -246 -35 -353 -51 -688 -9 -179 -19 -377 -24 -440 -6 -86 -5 -119 5
-130 6 -8 15 -62 19 -120 9 -136 27 -239 75 -431 22 -86 49 -213 60 -283 11
-70 30 -159 41 -199 16 -53 23 -112 26 -219 l5 -148 312 0 312 0 110 56 c122
63 241 138 354 224 115 88 312 300 417 450 18 25 70 83 118 129 161 158 258
311 375 591 12 30 26 64 31 75 5 11 33 94 63 185 57 173 114 328 141 379 18
36 14 39 -18 11 -12 -11 -78 -55 -147 -97 -110 -69 -129 -85 -168 -143 -44
-65 -120 -150 -134 -150 -4 0 -4 8 -1 18 4 9 -19 -5 -49 -33 -73 -66 -175
-128 -181 -111 -5 12 114 137 158 165 11 8 -20 -25 -68 -73 -48 -47 -85 -86
-82 -86 8 0 105 65 144 97 19 15 68 70 108 120 44 56 83 95 98 99 13 3 29 12
36 20 6 8 64 47 128 86 64 39 133 85 154 101 23 18 37 24 37 15 0 -10 3 -9 10
2 19 30 9 -4 -15 -49 -35 -67 -79 -182 -145 -381 -150 -457 -281 -687 -504
-890 -26 -25 -62 -65 -79 -90 -98 -143 -300 -361 -417 -450 -121 -92 -225
-157 -377 -235 -68 -35 -68 -35 -31 -35 21 0 46 7 56 16 10 8 47 31 83 50 35
19 55 27 44 19 -11 -9 -19 -21 -17 -26 1 -6 -2 -8 -7 -5 -5 4 -28 -3 -50 -15
-42 -21 -60 -39 -42 -39 5 0 13 5 17 11 4 7 9 8 13 1 11 -18 173 89 361 237
116 91 557 532 662 662 87 108 136 185 201 319 59 121 102 249 213 637 l89
311 35 6 c19 3 69 6 110 6 88 0 402 21 755 52 401 35 431 35 581 -1 134 -32
484 -96 716 -131 287 -44 519 -60 621 -44 37 7 37 7 37 53 l0 46 -164 -3
c-175 -4 -207 0 -701 68 -381 54 -448 76 -604 200 -267 213 -484 479 -591 726
-65 152 -82 279 -87 659 -2 176 0 339 4 363 5 26 8 -104 8 -310 0 -325 2 -364
23 -488 20 -113 32 -152 73 -240 125 -265 353 -530 642 -749 37 -28 80 -54 95
-58 15 -3 47 -15 71 -26 43 -19 346 -67 730 -116 157 -20 448 -29 485 -15 15
6 16 197 16 2065 0 1641 -3 2059 -12 2059 -7 0 -92 -27 -188 -59z m-1336 -938
c-5 -15 -3 -15 10 1 9 11 16 15 16 9 0 -6 -18 -33 -40 -60 -166 -202 -215
-265 -274 -353 -37 -55 -73 -116 -79 -135 -11 -36 -37 -49 -37 -17 0 63 139
262 365 525 45 53 46 53 39 30z m-636 -1183 c-8 -6 -29 -326 -26 -397 1 -39 3
-34 8 27 5 47 6 22 3 -70 -4 -162 5 -216 74 -465 127 -451 278 -661 597 -829
38 -20 60 -36 50 -37 -18 0 -18 -1 1 -10 16 -7 14 -8 -10 -4 -34 6 -157 -5
-393 -34 -89 -11 -215 -23 -280 -26 -64 -3 -200 -13 -302 -21 -423 -34 -386
-27 -505 -103 -33 -21 -96 -60 -140 -88 -221 -138 -493 -329 -635 -446 -69
-57 -179 -145 -246 -195 -66 -50 -135 -107 -152 -127 -18 -20 -32 -33 -32 -30
0 22 53 72 184 174 83 64 198 156 255 204 111 92 450 330 611 427 36 22 97 60
135 85 124 80 97 75 525 109 102 8 238 18 302 21 65 3 191 15 280 26 163 20
335 38 373 39 12 0 -4 13 -40 31 -311 163 -459 372 -587 834 -60 215 -67 250
-78 400 -11 134 -3 357 17 535 l8 65 5 -45 c3 -25 2 -47 -2 -50z m3 -531 l-10
-54 4 55 c3 30 6 143 7 250 l3 195 2 -196 c2 -107 -1 -220 -6 -250z m-4801
269 c142 -120 282 -315 406 -565 101 -204 100 -201 129 -313 53 -208 77 -532
50 -695 -32 -198 -93 -396 -181 -582 -41 -88 -116 -201 -122 -184 -2 6 -8 9
-13 5 -17 -10 -9 9 24 55 123 170 248 528 272 781 8 78 -9 341 -30 471 -30
190 -71 297 -198 529 -79 142 -81 146 -194 296 -49 65 -110 132 -150 165 -75
62 -125 106 -103 92 8 -5 50 -38 93 -72 76 -61 227 -241 284 -338 14 -24 28
-42 30 -39 19 19 -203 306 -295 380 -109 89 -119 98 -97 87 11 -5 54 -38 95
-73z m4814 -342 c-3 -21 -8 -35 -11 -32 -2 2 -1 20 3 40 3 21 8 35 11 32 2 -2
1 -20 -3 -40z m-3135 -523 c-1 -38 -5 -93 -9 -123 -5 -36 -6 -13 -3 65 3 66 3
117 -1 114 -3 -3 -7 -34 -7 -70 -1 -35 -5 -56 -8 -47 -11 32 0 128 15 128 11
0 14 -16 13 -67z m3278 20 c-9 -9 106 -225 156 -293 73 -98 145 -166 257 -240
60 -41 108 -76 105 -78 -2 -2 -53 28 -113 67 -168 109 -259 215 -361 416 -65
127 -68 135 -49 135 6 0 8 -3 5 -7z m89 -128 c88 -130 244 -300 384 -419 57
-48 33 -36 -40 20 -126 97 -326 328 -385 444 -24 47 -16 38 41 -45z m-3426
-30 c-7 -25 -15 -44 -17 -42 -2 3 2 25 9 50 6 26 14 44 16 42 3 -2 -1 -25 -8
-50z m-25 -148 c-18 -63 -27 -74 -20 -24 4 25 3 28 -4 12 -15 -31 -13 -8 5 53
15 49 18 54 26 36 7 -14 4 -38 -7 -77z m-50 -114 c-4 -28 -3 -33 4 -18 12 26
13 -2 1 -30 l-9 -20 -1 20 -1 20 -9 -20 c-12 -29 -12 -11 1 41 14 54 22 58 14
7z m4012 -249 c-3 -3 -12 -4 -19 -1 -8 3 -5 6 6 6 11 1 17 -2 13 -5z m0 -20
c-3 -3 -12 -4 -19 -1 -8 3 -5 6 6 6 11 1 17 -2 13 -5z m-2148 -621 c-57 -42
-126 -95 -154 -118 -59 -50 -231 -178 -295 -220 -25 -17 -67 -52 -94 -80 -27
-27 -44 -41 -38 -30 17 32 80 87 182 161 52 37 147 109 210 160 129 102 270
204 284 204 4 0 -38 -35 -95 -77z m-3193 -241 c-8 -15 -53 -69 -101 -120 -48
-50 -82 -92 -77 -92 14 0 161 158 185 198 11 18 22 31 25 28 15 -15 -185 -236
-213 -236 -8 0 -15 3 -15 8 0 4 35 43 77 87 42 44 87 97 101 118 29 44 39 49
18 9z m2954 -988 c-52 -52 -104 -100 -115 -106 -11 -6 28 38 87 96 59 58 111
106 115 106 4 0 -35 -43 -87 -96z m-160 -149 c-13 -14 -27 -25 -32 -25 -9 0
42 49 51 50 3 0 -6 -11 -19 -25z m-180 -140 c0 -2 -10 -9 -22 -15 -22 -11 -22
-10 -4 4 21 17 26 19 26 11z m-90 -60 c-7 -8 -17 -15 -23 -15 -6 0 -2 7 9 15
25 19 30 19 14 0z"/>
<path d="M11174 5198 c-171 -199 -303 -394 -304 -448 0 -8 11 8 24 35 41 89
161 252 330 450 21 25 37 48 34 50 -3 3 -41 -36 -84 -87z"/>
<path d="M6130 3456 c0 -4 26 -56 58 -114 152 -283 190 -416 213 -761 12 -171
8 -237 -22 -385 -40 -197 -147 -478 -229 -597 -45 -66 -50 -92 -6 -34 62 81
180 359 221 522 59 237 66 395 29 683 -27 213 -62 321 -176 540 -66 127 -88
164 -88 146z"/>
<path d="M7416 2749 c-8 -42 0 -50 9 -9 4 17 5 34 2 36 -2 3 -7 -10 -11 -27z"/>
<path d="M1540 3116 c-288 -121 -401 -171 -393 -173 4 -2 98 35 207 82 110 47
205 84 212 81 8 -3 28 1 46 9 18 8 28 14 21 15 -6 0 -17 2 -25 5 -7 2 -38 -6
-68 -19z m60 4 c-8 -5 -19 -10 -25 -10 -5 0 -3 5 5 10 8 5 20 10 25 10 6 0 3
-5 -5 -10z"/>
<path d="M2900 2735 c0 -2 37 -29 83 -59 97 -65 282 -210 350 -275 119 -113
338 -387 416 -519 108 -181 210 -532 247 -844 19 -163 22 -568 5 -688 -6 -47
-23 -143 -37 -214 -14 -70 -23 -130 -21 -133 7 -7 43 157 64 287 24 157 24
589 -1 770 -46 341 -156 693 -272 872 -88 137 -284 377 -391 479 -67 65 -252
210 -350 275 -79 52 -93 59 -93 49z"/>
<path d="M6951 2545 c0 -16 10 -189 24 -383 14 -194 28 -442 31 -550 l6 -197
-86 -310 c-47 -171 -95 -341 -106 -380 -45 -160 -170 -684 -170 -715 0 -5 16
-10 35 -10 29 0 35 4 35 21 0 61 112 532 220 929 32 118 77 285 99 370 109
426 135 526 172 660 22 80 52 178 65 218 39 111 23 108 -18 -4 -90 -244 -187
-547 -213 -664 l-12 -55 -6 55 c-3 30 -9 123 -12 205 -10 275 -60 904 -64 810z"/>
<path d="M11109 2256 c-10 -9 -718 -63 -991 -75 -87 -4 -159 -9 -162 -11 -2
-3 -48 -156 -101 -340 -108 -376 -148 -496 -208 -620 -95 -197 -161 -284 -435
-569 -301 -313 -463 -451 -738 -628 -15 -9 469 -12 2154 -12 l2172 -1 0 1028
0 1029 -122 -4 c-128 -5 -294 10 -533 46 -216 33 -623 108 -735 135 -75 19
-132 26 -201 26 -53 0 -98 -2 -100 -4z"/>
<path d="M9489 1863 c-88 -94 -119 -167 -36 -85 42 42 95 122 79 122 -4 0 -24
-17 -43 -37z m1 -27 c0 -2 -8 -10 -17 -17 -16 -13 -17 -12 -4 4 13 16 21 21
21 13z"/>
<path d="M7397 1262 c6 -182 17 -268 57 -432 19 -80 45 -207 56 -282 12 -76
30 -163 42 -195 17 -46 22 -89 26 -205 4 -140 5 -148 24 -148 20 0 20 5 15
148 -3 107 -10 166 -26 219 -11 40 -30 129 -41 199 -11 70 -38 197 -60 283
-48 191 -66 294 -75 429 -4 56 -10 104 -15 107 -4 2 -5 -53 -3 -123z"/>
</g>
</svg>
