<?xml version="1.0" standalone="no"?>
<!DOCTYPE svg PUBLIC "-//W3C//DTD SVG 20010904//EN"
 "http://www.w3.org/TR/2001/REC-SVG-20010904/DTD/svg10.dtd">
<svg version="1.0" xmlns="http://www.w3.org/2000/svg"
 width="1280.000000pt" height="720.000000pt" viewBox="0 0 1280.000000 720.000000"
 preserveAspectRatio="xMidYMid meet">
<metadata>
Created by potrace 1.16, written by Peter Selinger 2001-2019
</metadata>
<g transform="translate(0.000000,720.000000) scale(0.100000,-0.100000)"
fill="#000000" stroke="none">
<path d="M0 3600 l0 -3600 6400 0 6400 0 0 3600 0 3600 -6400 0 -6400 0 0
-3600z m3580 735 c0 -8 -6 -15 -13 -15 -23 0 -105 -70 -127 -107 -72 -122 -64
-354 19 -528 21 -44 46 -108 56 -142 10 -35 22 -63 26 -63 5 0 29 -16 55 -35
25 -19 40 -35 32 -35 -10 0 -9 -3 2 -10 8 -5 24 -9 35 -9 l20 0 -20 8 c-16 7
-12 10 22 15 28 5 59 22 90 48 l48 40 -47 -46 c-26 -25 -56 -46 -67 -46 -12 0
-21 -7 -21 -15 0 -19 -39 -20 -71 -2 -45 24 -69 42 -69 51 0 5 10 0 23 -12 13
-12 29 -22 37 -22 7 0 -4 14 -25 30 -48 38 -65 39 -64 3 2 -24 2 -25 6 -5 2
12 9 22 14 22 6 0 8 -4 5 -8 -3 -5 0 -40 5 -77 8 -50 8 -89 0 -144 -23 -146
-32 -181 -47 -181 -13 0 -13 2 -1 14 21 22 49 224 41 298 -5 43 -9 56 -14 43
-5 -15 -10 -5 -20 39 -17 84 -47 167 -69 191 -31 34 -40 60 -66 183 -21 103
-23 129 -15 198 20 172 36 218 97 276 53 50 123 75 123 43z m59 -31 c12 -15
21 -32 21 -39 0 -7 11 -33 24 -58 14 -25 30 -73 36 -106 15 -84 51 -177 86
-219 55 -68 85 -134 89 -192 3 -40 2 -47 -4 -24 -4 17 -11 37 -16 44 -5 9 -4
11 3 6 7 -4 12 -5 12 -3 0 15 -59 119 -89 156 -39 49 -75 144 -92 238 -7 39
-15 60 -22 56 -6 -3 -7 -1 -3 5 4 7 3 12 -2 12 -6 0 -14 17 -20 38 -6 21 -10
28 -11 17 -1 -12 17 -75 39 -140 22 -65 40 -129 40 -141 0 -13 18 -44 41 -70
71 -82 78 -101 115 -279 36 -175 108 -349 174 -417 39 -41 51 -68 30 -68 -6 0
-3 -12 6 -26 13 -18 19 -22 25 -12 4 7 3 18 -2 24 -6 7 -9 18 -8 26 2 7 -13
38 -34 69 -70 109 -163 327 -173 404 l-3 30 8 -30 c38 -127 118 -302 182 -399
22 -33 38 -65 35 -72 -3 -7 2 -18 10 -25 54 -45 94 -185 94 -332 l0 -80 31 46
c44 67 131 132 222 168 101 39 247 50 317 25 25 -9 49 -18 54 -19 15 -3 19 34
6 47 -10 8 -11 6 -7 -13 4 -17 3 -21 -5 -13 -20 20 50 227 82 247 6 4 -1 -16
-16 -45 -20 -38 -24 -54 -15 -63 8 -8 11 -8 11 0 0 7 5 24 10 38 8 21 13 25
24 16 7 -6 16 -8 20 -4 4 4 4 0 0 -10 -6 -16 -7 -16 -18 -2 -10 14 -15 8 -30
-39 -9 -31 -15 -64 -12 -74 3 -9 2 -37 -3 -62 -9 -44 -9 -44 -11 -10 l-2 35
-9 -30 c-10 -35 -4 -59 12 -49 8 4 9 3 5 -4 -4 -8 3 -16 18 -22 32 -12 34 -24
4 -15 -13 4 -2 -7 23 -23 65 -42 140 -156 138 -209 0 -10 -6 0 -13 22 -29 91
-90 159 -193 211 -48 24 -70 28 -162 32 -149 6 -195 -6 -299 -78 -48 -32 -112
-82 -142 -110 l-55 -51 70 6 c58 5 79 12 125 42 30 20 76 57 101 82 37 37 59
50 112 64 70 18 94 21 62 6 -14 -6 -5 -7 30 -4 39 4 30 0 -43 -19 -86 -23 -97
-29 -148 -79 -29 -30 -68 -62 -86 -72 -18 -9 -44 -23 -58 -31 -14 -7 -36 -13
-50 -13 -23 1 -23 2 5 10 19 5 4 6 -40 2 -82 -6 -96 -12 -34 -15 l44 -1 -44
-6 c-41 -6 -44 -8 -62 -56 -10 -27 -28 -57 -39 -67 -11 -9 -20 -21 -20 -27 0
-14 -17 -14 -25 -1 -4 6 -13 5 -25 -2 -22 -14 -25 -12 -34 20 -5 14 -3 22 4
22 6 0 8 -4 5 -10 -3 -5 -2 -10 4 -10 16 0 67 72 86 122 14 39 17 69 13 170
-6 141 -37 255 -88 326 -16 23 -30 47 -30 54 0 6 6 3 14 -8 8 -10 18 -16 22
-11 4 4 -11 24 -34 45 -59 54 -140 242 -167 387 -27 146 -54 226 -92 276 -20
26 -42 50 -49 53 -7 3 -16 22 -19 43 -9 54 -83 290 -106 338 -11 22 -19 43
-19 48 0 15 19 6 39 -19z m155 -871 c-31 -27 -58 -42 -74 -42 -24 1 -24 1 4 9
34 11 105 77 107 100 1 9 3 8 6 -5 4 -14 -8 -31 -43 -62z m-279 -166 c-19 -85
-35 -104 -115 -142 -41 -20 -56 -31 -48 -37 8 -5 1 -6 -16 -2 -23 6 -27 4 -21
-7 5 -8 5 -11 1 -7 -5 4 -20 2 -35 -4 -14 -5 -91 -10 -171 -11 l-145 -1 120
-6 120 -6 -110 -1 c-60 -1 -128 2 -150 6 l-40 9 35 2 c20 1 27 4 17 7 -11 3
-35 2 -55 -2 -32 -6 -34 -9 -17 -16 15 -7 12 -8 -10 -3 -16 4 -57 10 -90 15
l-60 8 75 -4 c56 -2 69 -1 50 6 -13 6 -65 9 -115 7 -49 -1 -124 1 -165 5 l-75
7 75 -15 c41 -8 96 -21 122 -30 54 -17 70 -19 48 -5 -13 8 -12 10 3 10 9 0 17
-7 17 -15 0 -19 -14 -19 -66 0 -46 15 -265 55 -308 55 -14 0 -26 3 -26 8 0 4
19 7 43 5 23 -1 34 0 25 3 -10 3 -18 10 -18 15 0 5 -5 9 -11 9 -5 0 -8 -4 -5
-9 3 -5 -28 2 -69 15 -42 13 -128 33 -193 45 -128 23 -202 22 -379 -7 -141
-22 -203 -61 -203 -125 0 -33 14 -45 65 -53 22 -3 63 -10 90 -16 28 -5 104
-16 170 -24 66 -9 149 -24 183 -36 35 -11 89 -23 120 -27 l57 -8 -40 -6 -40
-6 40 -1 c22 0 51 4 65 8 l25 8 -25 1 c-22 2 -20 4 12 15 79 28 98 55 98 137
0 19 5 29 15 29 11 0 15 -11 14 -37 0 -60 -21 -105 -58 -130 l-34 -23 41 0
c42 0 187 -29 282 -56 43 -13 65 -27 101 -66 28 -30 49 -45 53 -39 4 6 1 11
-6 11 -9 1 -7 5 5 14 9 7 17 21 17 30 0 9 6 16 14 16 8 0 24 12 35 26 26 33
29 124 5 169 -15 29 -14 29 3 12 12 -12 20 -40 24 -90 l7 -72 -2 79 c-1 69 -4
80 -25 97 -13 10 -19 19 -14 19 6 0 18 -9 29 -21 15 -17 19 -37 19 -105 0 -51
-5 -88 -12 -95 -9 -9 -11 -6 -6 12 5 20 1 18 -18 -10 -13 -19 -28 -34 -33 -32
-9 2 -35 -41 -29 -48 2 -3 19 11 38 29 19 19 35 29 35 23 0 -11 -45 -53 -78
-73 -16 -9 -16 -11 -1 -22 9 -7 18 -33 21 -58 3 -25 3 -37 1 -27 -3 10 -14 17
-27 17 -13 0 -30 9 -37 21 -13 20 -18 20 -74 10 -32 -6 -99 -11 -149 -11 -50
-1 -120 -7 -156 -15 -36 -8 -116 -14 -178 -15 -67 0 -139 -6 -175 -15 -34 -9
-135 -33 -224 -54 -153 -37 -165 -41 -213 -82 -64 -54 -94 -109 -86 -154 4
-18 12 -37 19 -43 18 -14 66 -25 112 -25 l40 0 -37 -4 c-21 -2 -38 -9 -38 -15
0 -8 27 -9 93 -3 50 5 133 9 182 11 137 3 207 12 275 35 l63 21 44 -31 c23
-17 43 -26 43 -21 0 12 -71 60 -90 60 -13 0 -13 1 0 10 8 5 26 9 40 8 25 -1
25 -1 1 -5 -22 -4 -22 -6 13 -29 45 -31 66 -71 66 -128 0 -37 -5 -48 -31 -70
-17 -14 -36 -26 -42 -26 -7 0 -6 4 3 10 29 19 -9 10 -62 -15 -56 -26 -51 -35
6 -11 25 10 37 11 45 3 8 -8 14 -8 23 1 7 7 29 12 51 12 39 0 119 10 268 36
133 22 209 18 209 -11 0 -9 -30 -14 -107 -18 -60 -3 -157 -13 -218 -21 -120
-17 -235 -21 -235 -8 0 5 -30 -2 -67 -14 -59 -21 -88 -23 -223 -24 -149 0
-309 18 -347 39 -52 28 -120 128 -88 128 7 0 11 -6 8 -14 -7 -17 40 -72 86
-100 21 -14 51 -22 71 -22 l35 1 -36 7 c-47 9 -102 44 -116 73 -14 29 -23 69
-14 64 3 -2 12 7 18 21 10 21 10 24 -3 19 -7 -3 -14 -2 -14 3 0 12 -49 20 -56
9 -3 -5 2 -19 12 -31 17 -20 17 -20 -8 1 -57 51 -54 148 6 234 57 82 93 101
289 147 94 23 201 49 235 58 43 10 101 15 175 14 62 -1 128 4 147 10 19 6 105
14 191 19 86 4 164 12 173 17 14 8 14 12 -2 43 -9 19 -30 42 -47 52 -39 22
-217 60 -320 68 l-80 7 80 3 80 3 -60 7 c-33 4 -78 3 -100 -2 -49 -12 -109 -5
-211 26 -44 13 -115 26 -159 30 -44 4 -118 14 -165 22 -47 9 -107 19 -133 23
-62 10 -70 20 -69 77 1 91 64 134 232 159 180 26 256 29 360 11 130 -23 279
-64 310 -86 32 -23 188 -44 325 -45 55 0 113 -4 129 -9 19 -6 27 -5 23 1 -4 6
12 7 44 2 28 -5 110 -9 183 -10 l131 -2 85 44 c47 23 88 42 91 41 3 0 18 12
33 27 27 28 53 110 57 176 1 24 3 26 6 7 3 -12 -3 -55 -12 -95z m75 31 c0 -36
-11 -68 -22 -62 -5 3 -4 12 3 20 6 8 9 25 7 39 -3 14 -1 25 3 25 5 0 9 -10 9
-22z m1540 -10 c-61 -17 -99 -40 -145 -89 -49 -52 -59 -54 -21 -5 31 41 97 86
138 96 47 11 70 10 28 -2z m185 -19 c17 -5 55 -34 85 -64 56 -57 79 -70 60
-35 -19 35 -1 22 24 -18 31 -49 63 -183 70 -291 3 -46 10 -89 15 -95 5 -6 22
-52 36 -101 22 -75 26 -102 21 -160 -8 -83 -37 -183 -72 -242 -27 -47 -91
-113 -108 -113 -6 0 5 15 24 33 80 73 130 179 146 310 7 62 -14 196 -26 163
-4 -14 -10 -7 -20 25 -18 59 -21 63 -31 48 -4 -8 -3 -20 4 -29 11 -13 10 -13
-5 -1 -10 7 -15 17 -13 22 3 4 7 64 9 131 3 86 2 104 -3 58 l-8 -65 -1 56 c-1
30 -9 75 -17 100 -23 65 -92 155 -158 207 -53 42 -61 45 -115 45 -138 -2 -270
-124 -297 -275 -4 -21 -11 -38 -16 -38 -4 0 -2 21 6 48 17 55 19 73 5 52 -13
-19 -13 -8 0 25 5 14 14 24 20 20 5 -3 16 7 24 23 35 67 153 150 221 153 24 1
26 3 7 6 -42 8 -120 -27 -180 -80 -31 -28 -43 -36 -27 -18 17 19 47 46 67 61
21 15 35 29 33 32 -2 2 4 4 13 5 9 1 40 6 67 11 51 10 87 8 140 -9z m-1807
-155 c2 -11 -4 -27 -13 -34 -22 -18 -20 -51 3 -44 13 5 14 4 3 -4 -37 -26 -47
21 -13 61 10 11 12 21 6 27 -6 6 -28 -2 -59 -24 -58 -39 -99 -52 -175 -59 -65
-6 -25 8 52 18 31 4 66 19 105 46 62 42 86 46 91 13z m1548 -184 c19 0 102
-77 120 -111 24 -47 16 -46 -15 2 -41 63 -69 85 -131 103 -30 9 -40 14 -21 11
18 -3 40 -5 47 -5z m-56 -10 c8 -1 -3 -7 -25 -15 -50 -18 -57 -18 -25 0 18 10
20 14 8 15 -9 0 -24 -7 -32 -16 -9 -8 -16 -11 -16 -5 0 16 33 31 55 26 11 -3
27 -5 35 -5z m98 -44 c32 -29 91 -116 79 -116 -2 0 -18 22 -36 50 -33 51 -71
84 -106 93 -18 4 -18 5 2 6 13 0 39 -14 61 -33z m-127 -22 c21 -24 22 -26 3
-16 -25 13 -50 42 -37 42 5 0 20 -12 34 -26z m-218 -1 c-7 -2 -21 -2 -30 0
-10 3 -4 5 12 5 17 0 24 -2 18 -5z m44 -9 c-3 -3 -12 -4 -19 -1 -8 3 -5 6 6 6
11 1 17 -2 13 -5z m0 -20 c-3 -3 -12 -4 -19 -1 -8 3 -5 6 6 6 11 1 17 -2 13
-5z m225 -36 c37 -49 67 -111 79 -166 6 -29 20 -59 34 -72 l24 -22 20 33 c16
27 21 51 21 112 0 45 4 76 9 73 5 -4 12 0 14 6 3 7 5 -23 4 -67 l0 -80 -7 65
-7 65 -1 -71 c-1 -51 2 -75 12 -83 11 -10 16 -5 24 26 5 21 10 29 10 18 1 -28
-46 -145 -48 -120 l-1 20 -10 -20 -9 -20 3 20 c2 11 8 19 14 18 20 -4 27 38 9
55 -15 15 -16 15 -17 -3 -1 -11 -1 -24 0 -28 1 -5 -3 -6 -8 -3 -5 3 -11 -1
-15 -9 -14 -38 -71 13 -82 73 -10 55 -37 111 -78 165 -20 26 -32 47 -27 47 5
0 20 -15 33 -32z m-31 -55 l24 -27 -32 23 c-18 12 -33 20 -33 16 0 -10 74 -80
82 -78 4 2 4 -5 1 -14 -5 -12 -3 -14 7 -8 9 5 11 4 6 -3 -4 -6 -2 -21 4 -32 6
-11 7 -20 2 -20 -4 0 -16 16 -25 35 -9 19 -32 52 -52 73 -19 22 -35 45 -35 51
0 20 26 12 51 -16z m519 -10 c-11 -17 -11 -17 -6 0 3 10 6 24 7 30 0 9 2 9 5
0 3 -7 0 -20 -6 -30z m-2065 -79 c25 -28 68 -64 102 -82 32 -17 51 -32 42 -32
-42 0 -200 142 -198 180 0 13 1 13 6 0 3 -8 25 -38 48 -66z m115 -65 c25 -16
41 -29 36 -29 -21 0 -109 66 -146 110 -56 67 -50 69 13 3 28 -31 72 -69 97
-84z m585 70 c-24 -53 -29 -43 -8 15 10 26 19 42 21 36 3 -7 -4 -29 -13 -51z
m1392 29 c44 -48 63 -103 61 -175 l-1 -68 -6 75 c-6 73 -14 97 -53 152 l-19
28 -29 -34 c-29 -33 -142 -98 -190 -110 -14 -3 -2 5 25 19 56 28 48 34 -11 9
-22 -9 -34 -12 -29 -6 15 14 97 44 90 32 -3 -5 -2 -10 3 -10 14 0 59 39 47 40
-6 0 -16 -5 -23 -12 -7 -7 -12 -9 -12 -6 0 3 17 18 38 34 28 21 32 22 18 6
-11 -12 -14 -22 -9 -22 6 0 24 15 40 34 15 19 31 35 34 35 3 1 15 -9 26 -21z
m-2247 -13 c1 17 3 17 11 -5 27 -66 110 -403 104 -418 -4 -9 -13 -60 -20 -112
-7 -52 -13 -77 -13 -55 0 22 3 65 8 95 8 58 -10 147 -80 390 -29 102 -38 146
-20 105 l9 -20 1 20z m1405 -34 c11 -5 -14 -7 -60 -6 -76 2 -77 2 -20 -5 l60
-7 -55 -1 c-53 -2 -201 -47 -208 -64 -2 -5 -8 -6 -13 -2 -5 3 -9 2 -9 -3 1
-10 70 -43 70 -33 0 4 -10 15 -22 24 l-23 17 22 -11 c33 -15 55 -65 60 -135 5
-52 2 -63 -16 -79 -25 -23 -40 -13 -23 14 17 28 15 89 -6 129 -18 36 -68 71
-90 63 -7 -2 -42 -1 -77 3 -49 5 -65 10 -65 22 0 13 11 14 69 8 61 -6 73 -4
119 19 28 14 57 26 64 25 7 0 -5 -9 -27 -20 -52 -24 -34 -24 30 1 29 11 42 20
30 20 -14 1 -9 6 15 15 38 15 143 18 175 6z m-1920 -39 c-3 -3 -11 0 -18 7 -9
10 -8 11 6 5 10 -3 15 -9 12 -12z m22 -4 c-3 -8 -6 -5 -6 6 -1 11 2 17 5 13 3
-3 4 -12 1 -19z m1923 12 c18 -12 2 -12 -25 0 -13 6 -15 9 -5 9 8 0 22 -4 30
-9z m-2518 -37 c56 -59 65 -143 21 -185 -16 -14 -39 -31 -53 -37 -24 -12 -24
-11 -5 4 11 8 20 28 21 43 0 15 5 36 9 46 6 13 5 17 -3 13 -9 -6 -22 -46 -24
-74 0 -5 -9 -14 -20 -21 -10 -7 -15 -18 -12 -24 4 -6 3 -9 -2 -6 -5 3 -22 -1
-39 -8 -29 -13 -29 -13 -5 -14 15 -1 0 -9 -40 -21 -36 -10 -69 -17 -75 -15 -5
3 -1 5 9 5 11 1 17 3 14 6 -3 3 -57 -3 -119 -13 -90 -15 -134 -18 -209 -12
l-95 8 100 -2 c151 -4 384 41 447 85 15 11 30 30 33 42 15 52 28 77 42 77 15
0 15 -8 -2 -55 -7 -20 -6 -20 9 -1 32 40 11 115 -43 152 -11 8 -21 19 -21 25
0 19 37 8 62 -18z m2878 12 c-13 -15 -4 -39 11 -29 5 3 8 2 7 -3 -1 -4 17 -33
42 -64 44 -57 70 -67 70 -25 0 17 -2 18 -10 6 -7 -11 -10 -11 -10 -2 0 7 -4
11 -9 8 -5 -3 -14 1 -21 10 -10 12 -11 17 -1 27 7 7 12 8 11 2 -5 -24 1 -32
22 -31 20 1 24 -6 29 -45 4 -26 14 -62 22 -80 23 -52 25 -62 16 -84 -7 -18 -8
-17 -7 5 1 14 -9 53 -22 88 -24 64 -37 82 -26 35 7 -27 6 -26 -14 6 -32 51
-33 32 -1 -43 16 -37 31 -64 34 -59 3 5 2 15 -4 23 -5 8 -9 22 -8 30 0 8 6 0
15 -19 8 -19 11 -37 6 -40 -9 -7 -9 -127 0 -136 3 -3 9 10 12 29 4 18 13 39
21 46 7 6 11 19 8 27 -4 11 -2 14 5 9 16 -10 15 -26 -3 -46 -18 -19 -47 -110
-35 -110 18 0 95 31 101 41 4 8 9 8 13 1 4 -6 -16 -19 -46 -31 -29 -11 -45
-20 -35 -20 10 -1 34 6 55 14 31 13 34 13 18 0 -10 -8 -43 -20 -73 -26 -42
-10 -57 -19 -73 -43 -23 -38 -127 -141 -192 -191 -27 -21 -60 -38 -80 -40 -18
-1 -46 -8 -63 -15 -69 -27 -203 -52 -282 -51 -90 0 -160 11 -262 42 -91 27
-129 25 -166 -10 -67 -64 -250 -143 -397 -170 -37 -7 -73 -11 -80 -8 -7 3 3 6
22 7 l35 2 -30 8 c-22 6 -24 8 -9 9 29 1 124 35 209 73 141 64 314 168 280
168 -4 0 -2 7 5 15 7 8 16 13 20 10 4 -3 7 1 7 8 -1 6 12 38 27 71 27 56 28
63 24 175 -4 110 -6 122 -41 196 -21 43 -40 75 -43 72 -4 -3 5 -26 20 -51 80
-136 75 -342 -11 -454 -15 -20 -28 -40 -28 -44 0 -3 -3 -9 -7 -13 -15 -16 -1
23 20 52 51 72 72 134 72 218 0 98 -19 175 -60 244 -33 57 -36 66 -18 55 8 -5
9 -2 5 10 -13 33 12 5 42 -48 46 -80 63 -161 59 -280 -3 -86 -7 -108 -30 -152
-16 -31 -23 -56 -18 -64 4 -7 6 -19 3 -27 -3 -7 5 -17 18 -22 13 -5 17 -10 9
-10 -22 -1 -41 14 -44 33 -4 26 -21 19 -20 -9 1 -13 -2 -22 -6 -20 -4 2 -29
-9 -55 -26 -83 -53 -206 -112 -330 -159 -76 -29 -77 -30 -32 -25 107 14 307
103 374 167 31 30 34 31 100 25 46 -4 62 -2 48 4 -17 8 -17 9 5 4 14 -3 50
-12 80 -21 80 -22 222 -29 307 -14 67 11 107 28 266 112 20 11 37 25 37 30 0
6 -8 4 -17 -3 -10 -8 9 18 43 56 33 39 71 89 84 113 13 23 28 42 33 42 5 0 7
37 6 84 -2 47 0 79 4 73 5 -7 7 -2 3 12 -4 18 -2 21 7 12 7 -7 12 -45 13 -94
l1 -82 -7 75 -6 75 -1 -80 c-1 -44 2 -89 7 -100 7 -15 9 -16 9 -4 1 9 10 28
22 42 33 43 34 85 3 163 -15 38 -36 85 -47 104 -15 26 -15 31 -3 21 33 -28 14
7 -25 44 -53 52 -64 72 -48 91 6 8 14 14 16 14 3 0 0 -7 -7 -15z m489 -172
c-8 -36 -26 -70 -56 -105 -61 -74 -95 -108 -106 -108 -5 0 20 31 56 70 76 82
99 125 106 200 4 39 7 46 9 25 2 -16 -2 -54 -9 -82z m-584 11 c7 -52 0 -94
-26 -146 -26 -52 -33 -48 -9 5 29 62 24 80 -5 22 -28 -55 -27 -45 1 24 15 38
16 52 6 99 -6 30 -9 59 -5 65 10 17 30 -20 38 -69z m-2169 20 c-3 -7 -1 -27 4
-46 4 -18 10 -78 13 -133 2 -55 1 -86 -3 -70 l-8 30 -2 -30 -2 -30 -8 30 c-4
17 -8 48 -9 70 -1 30 -8 45 -26 58 -24 17 -33 17 -232 -3 -115 -11 -221 -23
-238 -25 l-30 -5 30 10 c22 8 386 49 438 50 5 0 6 4 3 9 -3 5 5 11 17 13 16 3
24 0 24 -9 0 -8 -6 -12 -14 -9 -16 7 -17 -1 -1 -18 11 -11 15 -9 26 13 l12 26
-4 -25 c-2 -14 0 -50 4 -80 7 -42 7 -31 4 45 -6 148 -7 152 -33 121 -10 -11
-8 -16 5 -24 15 -9 15 -11 -7 -22 -21 -12 -23 -12 -11 2 8 10 9 19 3 22 -5 3
-18 -5 -28 -20 -17 -23 -28 -26 -123 -35 -58 -5 -155 -16 -215 -24 -117 -16
-163 -18 -105 -4 24 5 12 6 -35 3 -38 -3 -81 -8 -95 -11 -22 -6 -23 -7 -5 -14
13 -5 15 -8 5 -8 -8 0 -21 3 -29 8 -11 7 -4 12 25 20 46 12 290 45 452 61 111
10 114 11 143 45 29 33 67 39 55 9z m-1348 -14 c-7 -11 -16 -20 -20 -20 -5 0
-8 -8 -9 -17 0 -12 -2 -14 -6 -5 -3 7 5 24 18 38 27 29 33 31 17 4z m2662 4
c0 -8 -5 -12 -10 -9 -6 4 -8 11 -5 16 9 14 15 11 15 -7z m17 -6 c-3 -8 -6 -5
-6 6 -1 11 2 17 5 13 3 -3 4 -12 1 -19z m1414 -95 c-5 -10 -24 -31 -42 -48
-29 -27 -29 -25 7 17 42 51 50 58 35 31z m-4131 -26 c0 -5 -4 -5 -10 -2 -5 3
-10 14 -10 23 0 15 2 15 10 2 5 -8 10 -19 10 -23z m675 -33 c-27 -7 -57 -13
-65 -13 -21 1 70 27 95 27 11 0 -2 -6 -30 -14z m3314 4 c-1 -22 -17 -55 -18
-38 -1 13 -2 13 -12 0 -8 -12 -9 -11 -6 5 2 11 9 19 16 17 9 -2 11 3 8 13 -4
8 -2 15 3 15 6 0 10 -6 9 -12z m-3400 -24 c9 -8 -55 -2 -74 6 -13 6 -5 7 25 3
25 -3 47 -7 49 -9z m2453 -12 c-7 -2 -12 -11 -12 -19 0 -14 2 -14 18 0 10 10
24 17 30 17 21 0 13 -27 -13 -44 -28 -18 -65 -21 -65 -5 0 5 5 7 11 4 13 -9
69 14 69 27 0 6 -11 3 -24 -6 -27 -17 -51 -13 -60 10 -3 8 -18 14 -33 13 l-28
-1 25 -7 c24 -7 24 -7 -9 -14 -18 -4 -48 -6 -65 -5 -25 1 -23 2 14 8 l45 7
-45 3 -45 2 55 9 c30 4 70 6 88 4 24 -3 35 1 39 13 5 13 8 13 11 2 3 -8 0 -16
-6 -18z m-253 -7 c5 2 6 -8 3 -23 l-6 -27 -7 25 c-4 14 -7 32 -7 40 0 10 2 9
5 -3 2 -9 8 -15 12 -12z m1245 -30 c-10 -8 -23 -14 -29 -14 -5 0 -1 6 9 14 11
8 24 15 30 15 5 0 1 -7 -10 -15z m-2057 -47 c-2 -13 -4 -5 -4 17 -1 22 1 32 4
23 2 -10 2 -28 0 -40z m969 37 c-13 -10 -15 -15 -6 -15 7 0 22 7 32 17 12 10
18 12 18 4 0 -16 -66 -43 -96 -39 -38 5 -33 22 9 29 20 3 40 9 44 12 3 4 9 7
12 7 3 0 -3 -7 -13 -15z m1030 -21 c-9 -9 -12 -8 -18 5 -6 13 -7 13 -8 -4 -1
-12 -4 -15 -7 -7 -3 7 -2 19 1 28 4 12 9 12 25 3 14 -9 16 -15 7 -25z m-1171
-34 c0 -27 -3 -50 -7 -50 -10 0 -11 84 -1 93 3 4 7 7 7 7 1 0 1 -22 1 -50z
m708 23 c-4 -10 -2 -14 4 -10 29 18 -5 -42 -47 -84 -54 -54 -98 -66 -205 -56
-86 8 -327 97 -315 117 7 11 13 11 32 2 l23 -13 -23 5 c-35 7 -18 -6 36 -26
61 -23 79 -22 27 2 -22 10 -33 19 -25 19 8 0 31 -8 50 -19 19 -11 28 -19 20
-20 -13 0 -13 -1 0 -10 8 -5 22 -10 30 -10 13 0 13 1 0 10 -22 14 -6 12 47 -7
32 -12 79 -17 140 -18 92 0 92 0 128 35 20 19 45 50 56 68 22 35 32 42 22 15z
m-1546 -85 c-2 -13 -4 -5 -4 17 -1 22 1 32 4 23 2 -10 2 -28 0 -40z m-633 -38
c-7 29 -2 26 16 -9 8 -15 8 -21 1 -17 -6 4 -11 3 -11 -3 0 -5 5 -13 11 -17 7
-4 9 -23 5 -50 -3 -26 -2 -44 4 -44 11 0 12 3 12 80 l0 55 7 -60 c9 -71 5 -85
-21 -85 -17 0 -19 5 -13 45 6 36 3 49 -14 71 -12 15 -21 34 -21 43 1 11 5 8
16 -9 l15 -25 -7 25z m136 -138 c51 -46 53 -50 55 -102 3 -55 3 -55 -5 -10 -4
25 -8 39 -8 32 -2 -15 -22 -6 -22 9 0 6 5 7 10 4 6 -3 10 -1 10 5 0 13 -41 55
-85 87 -16 12 -25 23 -19 23 5 0 34 -22 64 -48z m-25 -7 c39 -32 29 -32 -15 0
-19 14 -30 25 -24 25 5 -1 23 -12 39 -25z m-135 -16 l-24 -21 39 6 c51 8 -186
-69 -263 -85 l-57 -12 35 -13 35 -14 -35 5 -35 5 35 -15 c33 -14 33 -15 5 -9
-16 4 -50 6 -75 6 l-45 0 45 12 c25 7 44 16 42 21 -2 5 5 12 15 16 16 7 16 8
-3 8 -12 1 -32 -8 -46 -19 -14 -10 -47 -23 -74 -28 -46 -9 -47 -10 -14 -12 28
-1 21 -5 -35 -16 -38 -8 -116 -21 -173 -29 -77 -11 -112 -21 -142 -41 -22 -15
-40 -29 -40 -32 0 -3 8 -14 17 -24 14 -15 14 -19 3 -16 -8 2 -18 10 -22 18 -4
10 -7 5 -7 -14 -1 -16 2 -27 5 -23 3 3 24 -7 46 -23 68 -50 126 -63 247 -57
113 6 200 31 281 82 47 30 50 30 49 8 0 -11 -3 -13 -6 -5 -6 15 -23 6 -19 -11
1 -7 1 -9 -1 -5 -3 4 -26 -3 -51 -15 -26 -13 -67 -30 -91 -37 -33 -11 -39 -16
-25 -20 32 -12 -69 -30 -165 -30 -71 0 -104 5 -154 24 -76 28 -104 45 -113 66
-17 40 -22 84 -12 106 15 33 85 62 176 75 156 22 280 48 313 67 19 11 59 25
89 31 90 19 224 62 240 77 8 8 19 14 25 14 5 -1 -1 -10 -15 -21z m140 -14 c33
-17 40 -27 13 -19 -15 5 -15 3 1 -10 11 -9 15 -16 10 -16 -6 0 -14 4 -19 9 -6
5 -26 14 -45 20 l-35 11 39 -5 c48 -5 40 5 -11 15 -32 7 -34 8 -10 9 15 0 41
-6 57 -14z m52 -101 c-12 -24 -32 -87 -31 -100 0 -5 9 11 20 36 18 40 20 19 2
-26 -4 -11 -3 -15 4 -11 6 4 75 12 154 17 120 9 154 9 204 -4 33 -8 52 -15 42
-15 -10 -1 -38 4 -62 10 -31 8 -81 8 -181 0 -161 -13 -173 -15 -211 -34 -37
-19 -342 -127 -357 -126 -6 0 39 18 99 39 281 101 264 91 290 173 12 37 18 67
14 67 -5 0 -9 5 -9 12 0 8 5 7 16 -4 11 -11 13 -21 6 -34z m1034 4 c4 -6 3 -8
-4 -4 -16 10 -125 -46 -109 -56 7 -5 -1 -6 -18 -2 -23 4 -27 3 -15 -5 12 -9 8
-10 -15 -5 -20 4 -26 3 -16 -4 9 -7 3 -9 -20 -9 -19 1 -86 -1 -149 -3 l-115
-4 110 -7 c101 -6 99 -6 -30 -3 -77 2 -158 8 -180 13 -34 8 -28 9 35 6 l75 -4
-75 14 c-41 7 -55 12 -30 10 25 -2 101 -7 170 -11 143 -8 217 6 304 55 58 33
72 36 82 19z m-199 -94 c-3 -3 -12 -4 -19 -1 -8 3 -5 6 6 6 11 1 17 -2 13 -5z
m-491 -21 c-3 -4 -87 -10 -185 -13 -101 -3 -185 -11 -193 -17 -27 -22 -363
-134 -387 -130 -14 3 -35 1 -48 -4 -12 -4 -25 -4 -28 0 -6 11 43 21 75 14 24
-4 310 91 375 125 22 12 72 18 190 22 88 4 171 7 184 8 13 1 21 -1 17 -5z m62
-10 c-10 -2 -26 -2 -35 0 -10 3 -2 5 17 5 19 0 27 -2 18 -5z m-913 -163 c3 -6
16 -8 28 -6 12 1 15 1 7 -2 -12 -4 -11 -6 5 -13 19 -7 19 -8 -2 -8 -12 -1 -28
6 -37 14 -8 8 -23 12 -33 9 -15 -5 -15 -4 -3 5 19 13 27 14 35 1z"/>
<path d="M3525 4328 c-35 -19 -96 -82 -114 -118 -16 -31 -29 -94 -46 -228 -3
-26 4 -87 20 -163 19 -94 32 -130 55 -163 17 -24 42 -76 55 -117 13 -41 24
-67 24 -59 1 26 -36 132 -68 195 -48 96 -65 176 -65 305 -1 145 18 213 77 277
22 24 57 53 76 63 20 11 29 19 21 19 -8 0 -24 -5 -35 -11z"/>
<path d="M3610 4318 c0 -4 9 -22 20 -40 12 -20 20 -26 20 -17 0 16 -39 72 -40
57z"/>
<path d="M4126 3074 c-3 -9 6 -53 20 -98 22 -64 28 -106 31 -206 4 -111 2
-132 -17 -183 -12 -33 -37 -73 -57 -92 -20 -19 -32 -35 -27 -35 6 0 16 6 23
13 11 10 14 9 18 -1 9 -25 72 71 84 128 10 46 20 63 62 102 79 74 211 159 269
174 97 26 262 16 353 -21 12 -5 5 6 -18 28 -43 41 -88 57 -167 57 -174 0 -329
-73 -426 -200 -21 -27 -41 -47 -46 -44 -4 3 -8 42 -8 87 0 96 -20 198 -49 255
-24 48 -37 58 -45 36z m28 -32 c10 -20 11 -33 5 -43 -9 -12 -10 -12 -6 1 2 8
-2 27 -10 43 -7 15 -11 27 -9 27 3 0 12 -13 20 -28z m27 -116 c-9 -19 -10 -18
-4 8 4 20 3 27 -5 22 -8 -5 -10 -1 -5 10 5 15 7 15 16 -1 6 -11 5 -24 -2 -39z
m632 -15 c34 -13 34 -16 -4 -17 -17 -1 -25 2 -19 6 30 19 -133 23 -192 5 -16
-5 -20 -4 -13 3 20 21 177 24 228 3z m-621 -33 c-6 -6 -7 0 -4 19 5 21 7 23
10 9 2 -10 0 -22 -6 -28z m239 -31 c-10 -9 -11 -8 -5 6 3 10 9 15 12 12 3 -3
0 -11 -7 -18z m-21 -11 c0 -3 -15 -14 -32 -26 l-33 -22 30 26 c31 27 35 29 35
22z m-207 -91 c4 -34 3 -42 -3 -25 -8 25 -13 87 -6 79 2 -2 6 -26 9 -54z m-10
-130 c-3 -9 -8 -14 -10 -11 -3 3 -2 9 2 15 9 16 15 13 8 -4z m-22 -52 c-12
-20 -14 -14 -5 12 4 9 9 14 11 11 3 -2 0 -13 -6 -23z"/>
<path d="M4870 3030 c-10 -41 -10 -54 0 -63 10 -10 11 -6 7 16 -5 31 8 24 15
-8 3 -11 4 6 4 37 -2 75 -11 81 -26 18z"/>
<path d="M4595 2814 c-22 -8 -60 -34 -85 -59 -25 -24 -70 -60 -100 -79 -30
-20 -47 -36 -38 -36 8 0 21 7 28 15 7 8 18 15 25 15 7 0 44 29 82 64 49 46 83
69 119 79 27 9 40 16 29 16 -11 0 -38 -7 -60 -15z"/>
<path d="M1885 3214 c-16 -3 -77 -12 -134 -20 -144 -21 -200 -52 -221 -124
-15 -53 5 -83 60 -92 25 -3 83 -13 130 -21 47 -9 119 -18 160 -22 41 -3 114
-18 162 -31 49 -14 96 -23 105 -21 14 4 13 5 -4 6 -11 0 -50 10 -85 21 -34 12
-117 27 -183 36 -66 8 -142 19 -170 24 -27 6 -68 13 -90 16 -62 10 -75 20 -75
59 0 40 35 85 83 108 36 18 181 43 302 53 92 7 236 -13 374 -53 46 -13 86 -22
88 -19 6 6 -94 34 -202 58 -91 19 -244 30 -300 22z"/>
<path d="M2453 3093 c9 -2 25 -2 35 0 9 3 1 5 -18 5 -19 0 -27 -2 -17 -5z"/>
<path d="M2378 3011 c-8 -61 -17 -75 -67 -102 -26 -14 -29 -18 -11 -13 61 15
96 72 88 142 -2 18 -6 8 -10 -27z"/>
<path d="M2490 2839 c122 -28 188 -50 203 -68 17 -20 41 -80 35 -86 -12 -12
-120 -25 -207 -25 -53 0 -125 -7 -160 -15 -40 -10 -105 -15 -172 -14 -71 1
-128 -4 -170 -14 -35 -9 -141 -35 -236 -58 -149 -35 -178 -45 -217 -76 -74
-58 -115 -138 -107 -213 1 -16 35 -33 86 -45 38 -8 25 6 -18 20 -27 8 -33 17
-41 52 -7 37 -5 50 18 95 25 50 45 68 119 110 17 10 101 33 186 53 86 20 181
42 212 50 32 9 103 15 170 15 63 1 143 7 179 15 36 8 105 14 154 15 49 0 119
5 155 11 62 11 66 11 79 -10 18 -27 42 -27 42 -1 0 11 -4 20 -9 20 -4 0 -28
27 -52 60 -29 40 -55 64 -81 74 -37 16 -222 57 -242 55 -6 -1 27 -10 74 -20z"/>
<path d="M2155 2255 c-60 -27 -144 -35 -505 -50 -73 -3 -75 -4 -89 -35 -14
-28 -14 -34 0 -58 40 -71 154 -96 409 -90 146 3 158 5 212 31 35 17 66 26 77
22 13 -4 24 1 35 17 17 24 21 94 7 116 -5 8 -6 -6 -4 -35 4 -39 1 -53 -17 -73
l-22 -25 16 25 c33 50 14 117 -41 150 -39 23 -38 23 -78 5z"/>
<path d="M1470 2229 c0 -5 5 -7 10 -4 6 3 10 8 10 11 0 2 -4 4 -10 4 -5 0 -10
-5 -10 -11z"/>
<path d="M2610 2080 c-35 -9 -154 -25 -280 -40 -57 -6 -59 -7 -20 -8 25 -1 95
5 155 14 61 8 156 18 212 21 57 3 100 10 97 14 -6 11 -117 10 -164 -1z"/>
<path d="M1736 2008 c49 -9 351 -8 382 0 13 4 -77 7 -199 7 -122 0 -205 -3
-183 -7z"/>
<path d="M5240 3271 c14 -5 38 -12 54 -16 58 -13 196 -167 222 -248 17 -56 18
-31 0 35 -18 70 -37 109 -48 102 -5 -3 -36 19 -68 50 -62 59 -81 70 -145 79
-30 5 -34 4 -15 -2z"/>
<path d="M4941 3064 c0 -11 3 -14 6 -6 3 7 2 16 -1 19 -3 4 -6 -2 -5 -13z"/>
<path d="M5541 2800 c0 -20 3 -40 9 -46 5 -5 16 -27 25 -49 12 -31 14 -33 9
-10 -3 17 -12 44 -19 60 -8 17 -16 41 -18 55 -3 19 -5 16 -6 -10z"/>
<path d="M3290 2647 c0 -7 98 -383 105 -402 2 -5 4 -3 4 6 1 8 -22 100 -50
204 -44 168 -59 215 -59 192z"/>
<path d="M4528 2613 c7 -3 16 -2 19 1 4 3 -2 6 -13 5 -11 0 -14 -3 -6 -6z"/>
<path d="M4376 2559 c-10 -7 -45 -9 -85 -6 -42 4 -55 3 -36 -2 48 -13 108 -11
135 4 14 8 21 14 15 14 -5 0 -18 -4 -29 -10z"/>
<path d="M4465 2480 c15 -58 17 -118 4 -141 -11 -22 -11 -23 6 -9 14 12 17 25
12 76 -2 34 -10 70 -16 80 -11 17 -12 16 -6 -6z"/>
<path d="M2174 2559 c56 -44 74 -129 36 -164 -11 -10 -18 -20 -15 -23 3 -3 14
3 25 13 38 34 19 144 -31 179 -34 23 -46 20 -15 -5z"/>
<path d="M2020 2290 c-20 -6 -21 -8 -5 -8 11 0 29 3 40 8 25 11 -1 11 -35 0z"/>
<path d="M5200 2147 c-8 -12 -20 -33 -26 -47 -7 -14 -19 -34 -28 -45 -17 -20
-17 -20 -7 2 7 14 8 24 1 28 -5 3 -10 11 -10 18 0 6 7 2 16 -9 14 -18 15 -18
8 6 -9 35 -15 38 -28 16 -6 -10 -37 -54 -68 -97 -32 -44 -57 -83 -55 -88 3
-13 -99 -74 -183 -111 -141 -61 -267 -65 -490 -15 l-25 6 25 -11 c84 -37 285
-53 385 -30 62 13 143 38 172 52 11 6 26 7 32 4 15 -10 53 13 45 26 -4 7 -2 8
5 4 20 -13 196 147 227 207 10 18 23 27 42 28 24 2 24 2 4 6 -17 3 -21 9 -17
24 3 10 2 25 -2 34 -7 12 -11 11 -23 -8z m3 -50 c-23 -42 -92 -125 -111 -132
-8 -3 9 20 37 51 28 30 51 60 51 65 0 8 31 49 37 49 2 0 -5 -15 -14 -33z m-83
-53 c-12 -30 -87 -114 -104 -114 -5 0 14 24 41 53 28 29 54 63 58 76 4 12 9
21 11 18 3 -2 0 -17 -6 -33z m-50 -97 c0 -2 -12 -14 -27 -28 l-28 -24 24 28
c23 25 31 32 31 24z m-60 -52 c0 -2 -10 -9 -22 -15 -22 -11 -22 -10 -4 4 21
17 26 19 26 11z m-60 -49 c0 -2 -7 -7 -16 -10 -8 -3 -12 -2 -9 4 6 10 25 14
25 6z"/>
<path d="M4956 2450 c4 -19 11 -53 15 -75 7 -32 7 -28 3 19 -2 32 -9 66 -15
75 -7 12 -8 6 -3 -19z"/>
<path d="M2595 2368 c-49 -5 -130 -15 -180 -23 -49 -8 -70 -12 -45 -10 25 3
104 10 175 15 72 6 144 15 160 19 27 8 28 9 5 9 -14 -1 -65 -5 -115 -10z"/>
<path d="M4313 2163 c9 -2 25 -2 35 0 9 3 1 5 -18 5 -19 0 -27 -2 -17 -5z"/>
<path d="M4910 2105 c-44 -61 -78 -79 -151 -83 -40 -3 -90 2 -128 12 -77 20
-89 19 -36 -1 22 -8 77 -17 122 -20 69 -5 87 -3 125 15 42 21 103 84 96 102
-2 4 -14 -7 -28 -25z"/>
<path d="M2670 1839 c-14 -6 -65 -21 -115 -35 -49 -14 -72 -22 -50 -20 44 6
229 64 205 64 -8 1 -26 -4 -40 -9z"/>
<path d="M2235 1715 c-5 -2 -59 -11 -119 -20 -112 -16 -178 -41 -196 -74 -15
-29 -12 -38 5 -14 29 42 79 62 191 78 125 18 194 33 154 33 -14 0 -29 -1 -35
-3z"/>
<path d="M1930 1532 c0 -18 37 -42 103 -67 56 -21 83 -25 165 -24 53 1 108 4
122 8 14 4 -29 6 -95 3 -106 -4 -127 -1 -178 18 -31 12 -71 33 -87 47 -17 13
-30 21 -30 15z"/>
</g>
</svg>
