<?xml version="1.0" standalone="no"?>
<!DOCTYPE svg PUBLIC "-//W3C//DTD SVG 20010904//EN"
 "http://www.w3.org/TR/2001/REC-SVG-20010904/DTD/svg10.dtd">
<svg version="1.0" xmlns="http://www.w3.org/2000/svg"
 width="1280.000000pt" height="720.000000pt" viewBox="0 0 1280.000000 720.000000"
 preserveAspectRatio="xMidYMid meet">
<metadata>
Created by potrace 1.16, written by Peter Selinger 2001-2019
</metadata>
<g transform="translate(0.000000,720.000000) scale(0.100000,-0.100000)"
fill="#000000" stroke="none">
<path d="M0 3763 c0 -1915 4 -3433 9 -3427 31 34 194 297 241 388 74 143 97
211 109 320 11 89 24 118 80 174 9 9 47 49 84 88 l67 71 -20 124 c-20 125 -25
197 -14 234 5 18 104 105 118 105 3 0 27 16 53 37 96 73 105 74 412 82 152 4
282 10 289 15 7 4 12 2 12 -8 0 -12 13 -10 73 10 39 13 112 37 162 52 l90 28
12 45 c6 24 25 107 43 184 17 77 46 199 64 270 19 72 41 166 51 210 9 44 36
161 60 260 24 99 51 221 60 270 9 50 28 146 42 215 14 69 31 157 38 195 18 97
52 444 65 660 14 252 19 299 35 369 11 44 15 131 15 321 2 685 21 1032 70
1248 6 27 12 69 15 95 2 26 7 66 10 88 5 42 48 203 64 239 66 150 146 283 238
397 l64 78 -1356 0 -1355 0 0 -3437z"/>
<path d="M2663 7121 c-134 -167 -238 -360 -283 -523 -20 -75 -26 -109 -35
-200 -3 -26 -9 -68 -15 -95 -49 -216 -68 -563 -70 -1248 0 -190 -4 -277 -15
-321 -16 -70 -21 -117 -35 -369 -22 -365 -50 -605 -103 -855 -13 -63 -32 -160
-42 -215 -10 -55 -34 -167 -55 -250 -20 -82 -47 -197 -60 -255 -12 -58 -37
-163 -55 -235 -29 -113 -63 -256 -107 -452 -13 -60 -10 -58 -193 -112 -55 -16
-113 -34 -129 -40 -16 -7 -32 -8 -35 -3 -7 10 -547 -2 -582 -13 -39 -12 -246
-157 -276 -194 -19 -21 -16 -97 8 -244 l21 -129 -68 -71 c-38 -40 -76 -80 -85
-89 -58 -58 -70 -86 -83 -186 -14 -108 -33 -161 -111 -317 -54 -105 -232 -385
-247 -385 -4 0 -8 -72 -8 -160 l0 -160 614 0 613 0 7 33 c19 94 49 286 76 477
59 422 55 406 110 482 l49 67 6 117 c3 65 8 120 11 123 2 3 2 -53 -1 -124 -4
-72 -3 -127 1 -122 4 4 11 62 15 130 l7 122 -2 -128 -3 -128 -54 -77 c-59 -85
-48 -37 -103 -452 -15 -107 -38 -258 -51 -336 -14 -77 -25 -150 -25 -162 l0
-22 638 0 639 0 6 103 c10 158 83 553 122 657 7 19 38 87 68 150 30 63 64 140
77 170 58 143 104 235 126 258 13 13 15 31 9 106 -7 100 5 230 56 581 30 213
63 384 82 420 15 29 37 45 219 167 64 42 133 93 153 114 l38 37 -6 91 c-2 50
-11 112 -18 138 -11 42 -11 49 4 66 39 42 238 78 466 84 l133 3 37 -65 c75
-135 161 -239 226 -273 67 -36 127 -57 180 -62 114 -13 110 -11 166 -88 29
-40 65 -85 80 -102 15 -16 29 -39 31 -50 4 -22 77 -80 151 -121 40 -21 67 -28
138 -32 81 -4 93 -2 142 22 30 14 60 26 68 26 17 -1 -59 -40 -78 -40 -7 0 -13
-5 -13 -11 0 -21 -197 -6 -250 19 -64 29 -158 101 -166 126 -3 12 -18 35 -33
51 -15 17 -51 62 -80 102 -55 76 -55 76 -165 88 -33 4 -66 10 -75 15 -9 4 -44
20 -79 36 -88 39 -165 128 -265 304 l-25 45 -129 -3 c-221 -6 -410 -39 -447
-81 -14 -16 -14 -24 -1 -87 19 -89 19 -187 1 -222 -17 -32 -48 -56 -185 -148
-170 -112 -193 -130 -209 -160 -46 -86 -145 -794 -139 -1002 1 -65 -2 -105 -9
-110 -17 -11 -66 -107 -119 -232 -26 -63 -70 -160 -96 -216 -27 -55 -49 -104
-49 -108 0 -3 24 9 54 28 52 33 113 53 281 92 102 23 307 24 415 1 185 -40
218 -48 299 -78 47 -17 95 -35 106 -40 64 -27 105 -42 145 -55 25 -7 77 -33
115 -56 39 -24 90 -52 115 -62 25 -11 55 -30 67 -43 12 -13 33 -27 46 -32 l24
-9 -1 181 c-1 194 18 384 37 384 9 0 12 -69 13 -256 0 -239 0 -247 -8 -111 -4
80 -6 192 -3 250 6 143 -10 88 -25 -83 -7 -77 -9 -183 -5 -254 5 -85 4 -123
-3 -123 -20 0 -67 25 -80 42 -7 10 -43 31 -79 48 -37 17 -86 44 -109 60 -24
16 -74 40 -111 53 -67 25 -97 37 -160 63 -17 8 -35 14 -41 14 -5 0 -23 7 -38
15 -16 8 -36 15 -45 15 -8 0 -19 4 -25 9 -5 5 -43 17 -84 25 -41 9 -109 24
-150 33 -45 9 -126 16 -205 16 -129 1 -139 0 -349 -51 -88 -21 -183 -81 -192
-120 -3 -15 -10 -40 -14 -57 -5 -16 -20 -91 -34 -165 -15 -74 -30 -157 -36
-185 -14 -75 -30 -213 -30 -267 l0 -48 1865 0 1865 0 0 63 c0 118 -57 503 -94
632 -62 217 -66 228 -103 304 -22 45 -19 69 9 58 21 -7 73 -149 107 -289 63
-258 98 -469 108 -650 l6 -118 333 0 333 0 -4 133 c-7 172 -19 264 -61 477
-54 265 -103 425 -193 622 -27 59 -40 113 -31 127 4 7 7 -2 8 -19 1 -47 12
-50 13 -4 l2 39 7 -40 c4 -22 35 -107 69 -189 74 -180 108 -295 156 -531 41
-199 65 -393 65 -527 l0 -88 690 0 690 0 0 63 c-1 34 -5 95 -9 136 l-9 74
-125 126 c-138 140 -139 141 -233 386 -65 171 -94 259 -130 398 -35 139 -71
239 -115 319 -24 46 5 48 141 9 187 -53 360 -77 732 -101 132 -8 166 -14 214
-35 31 -14 61 -25 66 -25 5 0 33 -11 61 -23 29 -13 64 -27 79 -31 15 -3 55
-19 90 -35 122 -55 121 -54 261 -48 119 6 236 28 318 61 8 4 71 -5 140 -19 68
-15 214 -44 324 -66 110 -21 220 -43 245 -48 311 -67 895 -160 1039 -166 69
-4 153 -10 186 -16 193 -31 473 -82 560 -103 55 -14 136 -32 180 -41 44 -9
134 -27 200 -40 66 -14 130 -27 143 -30 20 -5 22 -2 22 34 0 39 -1 39 -42 44
-36 3 -348 55 -438 73 -177 33 -549 85 -750 104 -63 6 -135 15 -160 21 -25 5
-92 16 -150 24 -113 15 -563 90 -750 125 -63 12 -151 28 -195 35 -204 32 -471
90 -478 103 -7 10 -24 12 -70 8 -38 -4 -93 -1 -142 9 -76 14 -76 14 -15 7 36
-4 101 -6 144 -5 57 1 83 -2 90 -11 10 -13 321 -79 496 -106 36 -5 101 -17
145 -25 152 -29 670 -116 775 -130 58 -8 125 -19 150 -24 25 -6 97 -15 160
-21 201 -19 573 -71 750 -104 90 -18 402 -70 438 -73 l42 -5 0 1666 0 1666
-41 0 c-22 0 -95 7 -162 16 -299 40 -845 -24 -1347 -157 -115 -30 -346 -106
-365 -119 -5 -4 -30 -15 -55 -24 -25 -9 -58 -23 -75 -29 -70 -28 -583 -292
-615 -317 -19 -14 -71 -48 -115 -74 -137 -82 -308 -235 -445 -399 -30 -36 -60
-64 -67 -62 -7 2 -10 -2 -6 -10 7 -20 -32 -33 -152 -50 -142 -21 -284 -43
-322 -51 -25 -5 -33 -3 -33 8 0 16 119 45 300 73 196 30 182 25 218 80 40 60
246 271 321 329 83 63 133 97 155 106 37 15 -6 10 -84 -9 -68 -18 -71 -20 -35
-21 22 -1 34 -4 27 -7 -7 -3 -52 1 -100 8 -48 7 -114 11 -147 10 -37 -1 -74 4
-95 13 -27 12 -30 15 -13 16 12 0 25 -4 28 -10 3 -5 30 -10 58 -9 l52 1 -35
16 c-19 8 -55 16 -80 15 -29 0 -38 2 -25 7 14 5 2 9 -40 14 -33 4 -107 18
-165 32 -58 14 -134 27 -170 30 -36 3 -132 13 -215 24 -368 46 -505 54 -675
42 -188 -15 -298 -32 -435 -71 -329 -93 -474 -136 -503 -148 -32 -13 -105 -28
-287 -58 -114 -18 -335 -41 -540 -55 -88 -6 -250 -21 -360 -35 -110 -13 -253
-27 -318 -30 l-118 -7 -32 35 c-33 34 -58 109 -56 165 1 15 5 2 10 -28 10 -56
48 -141 67 -148 6 -2 -3 23 -20 54 -17 35 -31 78 -33 108 l-4 51 8 -45 c5 -25
21 -71 35 -104 l26 -58 112 7 c61 4 148 13 192 19 77 11 81 13 108 51 33 48
58 117 58 159 0 45 -54 196 -70 196 -3 0 -15 -19 -25 -42 -43 -98 -95 -160
-95 -114 0 8 -4 16 -9 18 -4 2 -11 14 -15 28 -6 19 -5 22 3 10 9 -11 10 -4 6
30 -4 40 -4 41 4 12 16 -62 25 -56 84 51 67 123 72 155 33 222 -16 26 -23 45
-17 41 22 -14 54 -91 52 -126 -1 -20 -29 -86 -67 -159 -36 -68 -63 -125 -60
-128 2 -3 26 36 53 85 26 49 52 89 58 90 5 0 11 6 14 13 2 7 -1 9 -9 4 -7 -5
-6 3 3 22 29 55 31 97 7 144 -27 53 -61 99 -72 99 -4 0 -8 -10 -8 -21 0 -12
-13 -64 -30 -116 -16 -51 -30 -103 -30 -114 0 -14 -5 -19 -17 -17 -10 2 -17 7
-16 11 1 4 7 33 13 65 6 31 24 100 40 152 37 124 60 218 59 238 -1 10 -4 7 -9
-8 -5 -15 -8 -18 -9 -8 -1 9 -17 63 -36 121 -32 97 -45 149 -25 102 l9 -20 1
20 c1 30 46 -84 69 -178 19 -75 19 -88 7 -147 -13 -64 -13 -65 10 -89 13 -13
36 -48 51 -79 26 -54 27 -56 12 -113 -15 -58 -15 -59 11 -107 44 -81 59 -149
48 -221 -5 -35 -21 -83 -34 -107 -13 -23 -24 -45 -24 -47 0 -2 35 2 78 9 42 6
136 17 207 24 616 56 804 79 905 110 214 66 539 159 605 174 268 60 740 56
1045 -10 70 -15 48 -13 -125 12 -144 20 -305 33 -437 33 -127 1 -386 -23 -478
-44 -104 -24 -424 -119 -413 -122 6 -2 73 14 149 36 298 86 402 104 649 116
131 7 362 -11 655 -51 63 -9 129 -13 147 -11 17 3 34 3 37 -1 4 -3 19 -8 34
-10 15 -2 61 -12 102 -22 41 -10 118 -26 170 -34 52 -8 122 -25 155 -36 85
-30 125 -39 164 -40 51 0 26 15 -49 30 -36 7 -82 19 -104 27 -88 30 -438 104
-609 128 -27 3 -47 9 -44 11 11 11 398 -61 562 -105 39 -10 107 -28 152 -40
l82 -21 128 20 c89 13 136 25 155 40 15 11 30 20 33 20 8 0 324 159 395 199
223 124 513 237 785 306 199 50 580 120 788 145 45 6 109 14 142 19 73 11 415
13 508 2 l67 -7 0 1483 0 1483 -5037 -1 -5038 0 -62 -78z m2923 -19 c21 -37
54 -87 74 -112 80 -100 130 -201 189 -383 72 -225 92 -336 98 -552 6 -193 -1
-274 -43 -485 -27 -137 -41 -188 -58 -209 -6 -7 -20 -55 -33 -105 l-22 -91 31
-31 c20 -21 36 -30 49 -27 10 3 19 0 19 -6 0 -5 -8 -8 -17 -5 -13 4 -11 0 6
-15 13 -12 30 -21 39 -21 25 0 81 -49 96 -83 7 -18 16 -53 20 -78 9 -61 -11
-312 -30 -373 -11 -34 -12 -52 -5 -59 6 -6 11 -16 11 -21 0 -6 -7 0 -16 12
-14 21 -14 27 0 69 20 59 21 119 2 126 -16 6 -17 0 -51 -188 -9 -49 -20 -112
-26 -138 -5 -26 -9 -58 -8 -70 0 -22 0 -22 10 2 5 13 21 65 34 115 14 50 23
75 21 56 -10 -68 -52 -205 -64 -208 -21 -4 -17 35 37 318 11 58 29 148 41 200
36 163 12 234 -99 290 -68 34 -115 83 -148 157 -14 29 -28 53 -32 53 -3 0 -17
-7 -29 -16 -26 -18 -28 -45 -7 -105 33 -92 16 -490 -25 -624 -12 -38 -45 -112
-74 -164 -41 -76 -67 -109 -135 -172 -47 -43 -82 -81 -79 -85 4 -3 18 5 32 19
14 15 26 21 26 14 0 -27 -167 -152 -300 -224 -111 -60 -146 -66 -365 -67 -152
0 -218 4 -275 17 -41 9 -100 16 -130 15 -108 -3 -270 104 -369 244 -51 71
-189 160 -280 179 -20 4 -56 15 -80 24 -24 9 -78 18 -120 22 -42 3 -83 9 -91
14 -11 7 -8 8 10 5 14 -3 56 -8 93 -11 37 -3 95 -14 127 -25 33 -11 67 -20 76
-20 23 0 149 -65 205 -106 26 -19 53 -34 60 -34 21 0 -106 85 -184 124 -87 42
-173 65 -287 76 l-85 9 90 -4 c157 -7 323 -68 443 -164 38 -30 53 -65 24 -53
-26 10 43 -81 106 -139 32 -30 92 -72 132 -94 63 -33 83 -38 131 -37 30 1 87
-5 125 -13 97 -21 279 -28 412 -17 103 8 119 12 198 51 64 32 83 46 75 54 -14
14 -104 -30 -94 -46 3 -5 1 -7 -5 -4 -12 8 -44 -2 -38 -12 3 -4 -3 -7 -12 -7
-9 -1 -26 -5 -37 -9 l-20 -8 20 20 c11 11 23 19 27 16 4 -2 33 11 65 28 238
131 443 304 494 417 12 26 29 58 39 72 32 45 61 162 72 290 16 178 13 368 -6
425 -23 67 -21 100 9 119 28 18 65 13 65 -8 0 -22 47 -100 80 -131 17 -17 57
-44 88 -60 31 -17 66 -45 78 -62 31 -46 38 -126 20 -207 -20 -82 -20 -106 -3
-106 10 0 16 26 21 100 7 109 1 170 -20 212 -16 30 -67 72 -103 83 -26 8 -97
69 -111 95 -10 19 31 202 50 226 21 24 68 237 91 409 17 127 6 430 -20 559
-53 259 -156 507 -267 644 -24 30 -44 58 -44 63 0 6 -9 23 -20 39 -11 17 -29
43 -40 60 -24 35 -26 47 -5 30 8 -6 31 -42 51 -78z m-1611 -299 c30 -43 92
-132 137 -198 44 -66 101 -144 127 -174 25 -30 64 -77 87 -105 23 -28 74 -82
114 -121 41 -38 90 -87 109 -109 20 -21 54 -50 76 -64 22 -14 62 -46 90 -72
27 -26 108 -87 179 -135 99 -67 131 -84 140 -74 8 9 8 10 -1 5 -7 -4 -13 -2
-13 3 0 6 7 11 15 11 18 0 20 -27 3 -32 -7 -3 3 -15 23 -29 130 -87 209 -152
311 -257 123 -127 216 -254 229 -312 25 -120 29 -154 29 -259 0 -128 -15 -316
-31 -401 -6 -30 -24 -82 -39 -115 -27 -60 -125 -179 -184 -222 -16 -13 -32
-27 -35 -31 -8 -11 -154 -111 -192 -131 -241 -128 -310 -152 -439 -149 l-85 1
105 7 c58 4 125 14 150 23 39 13 156 71 260 128 39 21 183 121 191 131 3 4 19
18 35 31 38 28 157 159 172 189 48 100 57 137 73 326 13 162 7 373 -14 447 -8
28 -38 85 -67 129 -67 101 -261 301 -364 374 -181 129 -183 131 -205 125 -12
-3 -21 -1 -21 6 0 5 7 8 15 5 36 -14 8 9 -90 74 -89 60 -105 68 -110 52 -15
-47 37 -99 140 -141 85 -34 97 -50 90 -124 -7 -78 -46 -287 -52 -281 -3 2 2
39 11 82 9 42 14 100 12 128 -4 39 -3 42 2 16 7 -31 9 -28 16 37 7 74 3 99
-16 87 -5 -4 -20 -2 -31 3 -176 79 -213 114 -203 195 5 45 3 48 -38 86 -24 22
-57 47 -72 55 -16 8 -47 35 -70 58 -22 24 -74 76 -114 114 -40 39 -91 93 -114
121 -23 28 -62 75 -87 105 -26 30 -83 108 -127 174 -45 66 -101 147 -125 180
-24 33 -46 68 -50 78 -6 15 -18 8 -84 -48 -42 -36 -87 -68 -99 -71 -14 -4 -45
5 -82 23 l-60 29 -32 -29 c-28 -25 -39 -29 -76 -24 -23 2 -56 14 -72 26 -22
15 -33 18 -38 10 -4 -6 -10 -62 -13 -124 -3 -63 -10 -117 -14 -122 -5 -4 -41
-10 -80 -13 l-71 -5 -13 -60 c-6 -33 -17 -103 -23 -155 -6 -52 -17 -138 -25
-190 -18 -119 -35 -354 -35 -485 0 -90 25 -428 49 -675 5 -52 15 -178 21 -280
7 -102 17 -194 23 -205 41 -79 153 -186 209 -200 18 -5 27 -17 37 -52 15 -59
96 -166 199 -263 l79 -76 22 -89 c13 -51 35 -110 52 -136 36 -56 127 -142 153
-143 22 -1 46 -46 106 -196 75 -187 154 -335 214 -398 17 -18 69 -54 116 -79
71 -39 94 -47 145 -48 86 -3 126 -23 182 -95 26 -34 55 -74 63 -88 23 -40 47
-65 58 -58 5 3 7 -5 5 -18 -6 -27 26 -53 110 -91 90 -39 180 -42 327 -10 14 3
7 -2 -15 -11 -29 -12 -69 -17 -145 -17 -91 0 -114 3 -169 26 -74 31 -134 74
-125 89 4 6 2 13 -3 17 -5 3 -41 49 -80 101 -69 94 -109 137 -122 133 -3 -2
-21 2 -39 8 -18 6 -49 8 -68 4 -29 -5 -49 2 -127 44 -104 56 -127 77 -189 176
-53 84 -83 147 -150 314 -52 132 -83 191 -99 191 -5 0 -9 -8 -9 -17 0 -9 3
-13 7 -10 11 11 34 -30 64 -116 16 -45 29 -85 29 -88 0 -4 -49 -4 -108 -1
-150 7 -280 -16 -389 -69 -45 -21 -86 -39 -90 -39 -5 0 -16 35 -26 78 -9 42
-28 127 -41 187 -34 150 -66 316 -66 338 0 26 20 21 70 -19 125 -100 335 -213
447 -242 80 -20 110 -36 41 -21 -54 12 -189 59 -206 72 -7 6 -36 21 -64 34
-57 26 -184 110 -238 156 -18 16 -36 25 -38 19 -6 -19 110 -575 124 -591 2 -2
10 1 17 7 8 7 47 25 87 42 102 42 239 64 367 58 56 -3 103 -3 103 -2 0 2 -13
36 -28 76 -30 78 -83 156 -138 201 -50 42 -90 106 -109 173 -37 137 -37 136
-118 214 -104 99 -183 203 -198 263 -9 38 -16 48 -38 54 -63 15 -203 159 -215
221 -3 15 -10 104 -16 197 -6 94 -15 215 -21 270 -26 277 -49 591 -49 680 0
131 17 366 34 480 8 50 17 119 21 155 6 66 32 220 41 253 4 14 17 17 73 17 39
0 72 5 79 12 7 7 12 41 12 84 0 97 10 165 26 171 7 2 30 -7 51 -21 50 -34 84
-33 126 4 41 35 40 35 74 13 43 -28 94 -43 113 -33 10 5 50 36 90 70 39 33 74
60 76 60 2 0 28 -35 59 -77z m284 -630 l-1 -28 -8 25 c-6 19 -8 21 -9 6 -1
-11 -4 -17 -7 -13 -9 9 3 37 16 37 5 0 10 -12 9 -27z m-49 -20 c0 -14 -14 -29
-35 -39 -11 -5 -180 -9 -380 -9 -198 0 -385 -3 -415 -7 -52 -7 -53 -7 -15 4
26 7 172 11 415 12 312 1 379 3 400 16 l25 15 -23 3 c-12 2 -37 -1 -55 -7 -36
-12 -261 -16 -353 -6 -51 5 -308 -7 -414 -20 -19 -2 -6 2 30 10 68 14 287 21
551 17 86 -1 167 2 180 7 29 12 89 14 89 4z m-249 -110 c30 -9 64 -15 76 -14
19 2 108 -29 216 -76 20 -9 37 -23 37 -30 0 -15 -23 -17 -48 -3 -9 6 -48 23
-85 40 -38 16 -66 34 -63 39 6 9 -25 21 -56 21 -11 0 -15 -6 -11 -20 3 -12 13
-20 27 -19 11 0 15 3 9 6 -7 2 -13 10 -13 16 0 15 25 -10 25 -26 1 -7 7 -11
14 -9 7 1 10 -2 6 -8 -5 -7 -11 -8 -19 -1 -6 5 -43 15 -81 21 -82 13 -103 24
-27 14 62 -8 69 6 15 32 -28 14 -68 19 -155 22 -131 5 -181 -7 -335 -79 -78
-36 -223 -135 -223 -151 0 -5 19 -8 43 -8 23 0 77 -7 120 -15 90 -17 246 -20
327 -5 30 5 93 20 139 32 76 21 85 26 87 48 3 35 -24 88 -48 96 -11 3 -17 8
-15 11 24 24 85 -65 70 -103 -5 -12 -2 -15 13 -11 50 15 71 17 93 9 20 -7 15
-10 -40 -24 -35 -9 -91 -22 -124 -28 -33 -6 -80 -19 -105 -27 -70 -24 -287
-29 -391 -9 -47 9 -109 16 -137 16 -47 0 -51 2 -44 19 10 28 143 125 207 151
30 12 55 27 55 33 0 6 3 8 6 5 3 -4 42 7 87 22 69 24 99 29 188 29 72 1 123
-4 160 -16z m-451 -33 c0 -5 -5 -10 -11 -10 -5 0 -7 5 -4 10 3 6 8 10 11 10 2
0 4 -4 4 -10z m300 -35 c0 -8 -8 -15 -17 -15 -21 0 -68 -56 -89 -106 -8 -19
-21 -37 -29 -40 -17 -7 -184 24 -205 37 -13 9 -12 10 2 5 42 -13 191 -37 202
-33 7 3 17 22 24 43 6 22 25 54 42 72 31 32 31 32 7 32 -36 0 -122 -28 -205
-67 -41 -19 -76 -32 -79 -30 -10 11 172 85 252 102 80 18 95 18 95 0z m-305
-25 c6 -10 -57 -40 -84 -39 -9 0 3 7 27 16 23 8 42 19 42 24 0 12 7 12 15 -1z
m629 -16 c4 -9 4 -19 1 -22 -3 -3 -5 1 -6 9 0 8 -4 6 -9 -6 l-9 -20 -1 20 -1
20 -9 -20 c-6 -14 -9 -15 -9 -4 -1 15 17 39 30 39 4 0 10 -7 13 -16z m44 -12
c2 -7 -3 -12 -12 -12 -9 0 -16 7 -16 16 0 17 22 14 28 -4z m-778 -82 c0 -11
-2 -20 -4 -20 -2 0 -6 9 -9 20 -3 11 -1 20 4 20 5 0 9 -9 9 -20z m1360 -85
c13 -14 18 -25 12 -25 -7 0 -12 5 -12 10 0 6 -7 10 -15 10 -8 0 -15 5 -15 12
0 6 -3 8 -7 5 -8 -9 31 -47 49 -48 10 0 10 -2 0 -6 -16 -6 -62 34 -62 54 0 21
25 15 50 -12z m-194 -2 c-3 11 -2 16 4 12 15 -10 12 -35 -5 -35 -8 0 -15 2
-15 4 0 2 -3 13 -6 23 -6 16 -5 16 10 -2 15 -17 17 -18 12 -2z m76 -22 c8 12
9 12 6 0 -6 -22 -28 -25 -27 -4 0 12 2 14 6 4 5 -11 7 -11 15 0z m-1322 -52
c0 -25 -53 -100 -69 -97 -28 6 -24 39 10 74 33 34 59 44 59 23z m130 -32 c0
-17 -29 -57 -41 -57 -12 0 -12 27 1 51 12 21 40 26 40 6z m1512 4 c-15 -9 -55
-240 -50 -288 2 -17 0 -29 -4 -27 -13 8 -9 65 12 191 11 65 20 121 20 126 0 4
8 7 18 7 13 0 14 -2 4 -9z m-2468 -153 c-3 -46 -10 -189 -14 -318 l-8 -235 4
293 c3 162 8 301 11 309 12 32 -23 6 -74 -55 -65 -77 -77 -117 -70 -247 7
-124 18 -159 73 -227 55 -66 58 -89 4 -28 -57 65 -81 136 -88 251 -6 129 8
185 65 254 35 43 79 80 100 85 1 0 0 -37 -3 -82z m2453 0 c-3 -8 -6 -5 -6 6
-1 11 2 17 5 13 3 -3 4 -12 1 -19z m-10 -60 c-3 -7 -5 -2 -5 12 0 14 2 19 5
13 2 -7 2 -19 0 -25z m903 -12 c0 -3 -4 -8 -10 -11 -5 -3 -10 -1 -10 4 0 6 5
11 10 11 6 0 10 -2 10 -4z m-308 -96 c8 -21 7 -23 -4 -10 -7 8 -20 21 -28 28
-13 12 -13 13 4 10 10 -1 23 -14 28 -28z m108 -210 c2 24 2 24 10 -4 5 -16 6
-34 3 -39 -9 -14 -33 22 -32 47 1 18 2 18 9 -4 l8 -25 2 25z m-1280 -311 c32
-17 72 -46 91 -65 43 -45 30 -44 -20 1 -22 20 -63 49 -93 65 -29 16 -49 30
-44 30 4 0 34 -14 66 -31z m87 -97 c43 -37 80 -70 81 -75 2 -4 8 -4 14 -1 5 3
-5 20 -24 36 l-33 30 35 -20 c35 -20 78 -78 67 -89 -4 -3 -12 6 -18 20 -7 15
-16 24 -20 21 -10 -5 31 -74 44 -74 5 0 5 5 1 12 -4 7 -3 8 4 4 7 -4 12 -13
12 -20 0 -7 9 -23 20 -36 23 -26 26 -40 8 -40 -15 0 -48 30 -48 44 0 6 7 0 16
-12 8 -12 20 -22 25 -22 6 0 1 12 -11 28 -12 15 -26 27 -30 27 -5 0 -24 20
-42 45 -45 61 -141 151 -205 190 -29 17 -53 34 -53 36 0 14 91 -46 157 -104z
m313 8 c202 -10 251 -19 275 -53 17 -24 21 -77 5 -77 -5 0 -7 7 -4 15 7 18
-14 75 -28 75 -6 0 -3 -12 6 -26 10 -14 16 -30 14 -36 -3 -7 -71 -12 -188 -15
-102 -3 -187 -8 -190 -10 -3 -3 76 -4 175 -1 99 2 160 1 135 -3 -25 -4 -104
-8 -177 -8 -79 -1 -133 -5 -135 -11 -2 -6 -12 -4 -26 6 -12 8 -20 19 -18 23 4
6 195 15 364 16 28 0 52 3 52 6 0 4 -8 17 -18 29 -19 24 -96 34 -357 48 -130
6 -135 7 -70 13 l70 6 -77 -1 c-42 0 -74 2 -71 7 5 9 31 9 263 -3z m887 -107
c-2 -16 -4 -5 -4 22 0 28 2 40 4 28 2 -13 2 -35 0 -50z m398 -2 c3 -5 2 -12
-3 -15 -5 -3 -9 1 -9 9 0 17 3 19 12 6z m-3597 -70 l-1 -56 -6 55 -6 55 -8
-79 c-4 -43 -6 -97 -5 -120 1 -32 3 -26 8 24 9 89 2 -223 -11 -450 -11 -193
-16 -233 -75 -620 -77 -509 -89 -573 -135 -743 -16 -59 -29 -110 -29 -114 0
-3 -2 -4 -5 -1 -3 3 8 54 24 114 26 98 47 192 72 324 4 25 8 61 7 80 0 30 -2
27 -9 -15 -31 -176 -98 -469 -106 -462 -2 3 8 50 22 106 47 188 78 370 180
1060 8 52 19 194 25 315 24 500 32 595 46 589 10 -4 14 -22 12 -62z m695 -193
c-6 -117 -17 -306 -23 -419 -5 -113 -15 -242 -20 -285 -12 -90 -30 -513 -28
-649 2 -123 6 -68 17 250 6 149 17 347 25 440 8 94 23 323 33 510 9 187 19
331 21 320 6 -27 -25 -606 -44 -825 -8 -96 -19 -285 -24 -420 -27 -692 -41
-916 -59 -962 -9 -21 -10 -21 -11 -3 -2 17 -3 16 -10 -5 -7 -19 -8 -14 -5 20
22 226 40 551 55 983 5 159 12 292 14 295 7 12 25 275 42 612 15 302 18 350
26 350 2 0 -2 -96 -9 -212z m2593 -24 c41 -28 60 -49 67 -75 7 -25 -29 -12
-48 17 -24 36 -72 57 -119 51 -26 -4 -35 -2 -25 4 12 7 12 9 -1 9 -13 0 -13 1
0 10 28 18 86 11 126 -16z m-2252 -30 c-11 -7 -25 -18 -31 -24 -10 -8 -13 -6
-14 7 0 11 -3 13 -6 6 -2 -7 -9 -13 -15 -13 -6 0 -4 8 5 18 10 11 31 19 48 19
29 0 30 -1 13 -13z m1959 -169 c-3 -9 -8 -14 -10 -11 -3 3 -2 9 2 15 9 16 15
13 8 -4z m-1258 -182 c30 -16 259 -71 348 -84 43 -6 76 -14 73 -16 -14 -14
-373 65 -430 94 -36 19 -130 107 -159 148 -11 16 17 -6 64 -51 46 -45 93 -86
104 -91z m560 -83 c54 -6 56 -7 15 -7 -25 -1 -74 3 -110 7 -62 7 -62 7 -15 7
28 1 77 -3 110 -7z m1212 -157 c-3 -10 -5 -4 -5 12 0 17 2 24 5 18 2 -7 2 -21
0 -30z m20 -5 c-3 -7 -5 -2 -5 12 0 14 2 19 5 13 2 -7 2 -19 0 -25z m-10 -55
c-3 -10 -5 -4 -5 12 0 17 2 24 5 18 2 -7 2 -21 0 -30z m2339 -25 c-9 -5 -24
-7 -34 -5 -12 3 -10 5 6 6 13 0 20 5 17 11 -4 6 1 7 11 3 15 -5 15 -7 0 -15z
m801 -4 c-3 -3 -12 -4 -19 -1 -8 3 -5 6 6 6 11 1 17 -2 13 -5z m163 -81 c-52
-1 -140 -8 -195 -15 -83 -10 -94 -13 -65 -19 35 -7 35 -7 -7 -6 -24 0 -43 4
-43 9 0 19 138 36 285 35 104 -1 107 -2 25 -4z m143 -10 c-7 -2 -21 -2 -30 0
-10 3 -4 5 12 5 17 0 24 -2 18 -5z m72 -22 c28 -7 16 -7 -40 -3 -44 4 -152 7
-240 7 -96 0 -142 2 -115 6 57 9 342 1 395 -10z m-3318 -26 c0 -8 -4 -15 -9
-15 -4 0 -8 7 -8 15 0 8 4 15 8 15 5 0 9 -7 9 -15z m-2117 -260 c0 -8 -7 -15
-15 -15 -8 0 -15 7 -15 15 0 8 7 15 15 15 8 0 15 -7 15 -15z m5560 -36 c0 -5
-4 -8 -9 -5 -5 3 -12 -1 -15 -10 -4 -9 -9 -15 -11 -12 -3 3 -3 13 1 22 7 18
34 22 34 5z m-6070 -19 l-25 -8 25 -2 c14 -1 19 -4 12 -7 -18 -7 -44 5 -37 17
3 5 16 10 28 9 20 -1 20 -2 -3 -9z m-64 -53 c4 -4 -2 -7 -14 -7 -12 0 -22 4
-22 9 0 10 26 9 36 -2z m5454 -285 c0 -5 -12 -19 -26 -33 -36 -34 -106 -144
-134 -209 -17 -41 -24 -82 -28 -162 -3 -82 -8 -108 -18 -108 -11 0 -14 20 -12
93 l2 92 6 -90 6 -90 2 75 c1 41 4 93 7 115 4 32 3 35 -4 15 -6 -17 -9 -19
-10 -8 -1 24 43 140 72 188 46 78 137 158 137 122z m-3974 -237 c16 -8 36 -15
45 -15 8 0 19 -4 25 -9 17 -16 142 -61 211 -75 68 -15 252 -75 468 -153 109
-40 512 -195 550 -213 11 -5 59 -27 107 -49 47 -23 89 -41 92 -41 3 0 39 -15
79 -34 81 -37 438 -158 592 -200 102 -28 113 -32 295 -91 58 -19 166 -51 240
-71 74 -20 149 -40 165 -44 312 -86 465 -110 840 -131 177 -9 202 -13 215 -30
9 -11 76 -40 159 -69 79 -27 154 -56 166 -64 82 -54 268 -60 430 -14 l40 12
-65 12 -65 13 60 -5 c63 -6 75 -10 75 -24 0 -14 -139 -41 -240 -47 -104 -6
-172 7 -260 52 -25 12 -101 42 -169 65 -69 23 -132 51 -140 61 -14 15 -43 20
-211 29 -339 19 -526 46 -760 109 -58 16 -166 45 -240 65 -74 20 -182 52 -240
71 -182 59 -193 63 -295 91 -231 63 -563 181 -730 259 -114 53 -181 82 -255
110 -47 18 -150 58 -230 88 -368 142 -552 206 -670 232 -71 15 -136 38 -249
85 -41 16 -76 28 -78 26 -3 -3 30 -21 74 -41 76 -36 145 -60 307 -107 l80 -23
12 -45 c43 -162 91 -342 117 -445 60 -240 44 -210 186 -367 71 -79 152 -174
180 -213 103 -139 161 -225 151 -225 -5 0 -31 32 -57 70 -95 139 -152 212
-280 354 -143 159 -129 130 -183 355 -11 46 -22 86 -24 89 -3 2 -40 -1 -83 -7
-43 -6 -118 -13 -168 -16 -49 -3 -126 -9 -170 -13 -44 -4 -164 -6 -267 -4
-147 2 -188 6 -188 16 0 16 185 29 287 20 41 -4 150 2 278 15 116 11 229 22
253 23 l43 2 -6 35 c-18 101 -90 343 -104 350 -9 5 -70 24 -136 42 -66 18
-153 47 -193 66 -40 19 -84 38 -97 43 -26 10 -35 40 -11 40 7 0 27 -7 42 -15z
m-2806 -110 c1 11 4 15 6 8 3 -7 1 -20 -5 -30 -8 -14 -10 -15 -11 -3 0 13 -2
13 -11 0 -9 -12 -10 -12 -5 3 3 10 7 28 7 40 1 17 3 15 9 -8 5 -21 8 -24 10
-10z m-63 -139 c-74 -157 -142 -240 -289 -358 -48 -38 -88 -74 -88 -79 0 -16
193 145 247 206 28 31 71 93 97 138 47 83 63 100 25 26 -59 -117 -132 -202
-256 -302 -37 -29 -74 -61 -82 -70 -16 -20 -41 -22 -41 -4 0 14 45 58 100 99
61 44 155 141 197 203 41 61 112 202 114 227 0 10 2 10 6 0 3 -7 -11 -46 -30
-86z m33 21 c-12 -18 -19 -23 -14 -12 4 11 12 35 18 53 9 28 12 30 14 12 2
-11 -6 -35 -18 -53z m755 -354 c-44 -81 -174 -250 -242 -314 -26 -26 -81 -72
-122 -103 -40 -31 -68 -56 -61 -56 17 0 124 84 204 160 42 39 62 53 50 36 -20
-32 -195 -181 -232 -199 -15 -7 -26 -7 -32 -1 -7 7 16 31 67 71 43 33 103 85
134 115 71 70 203 245 237 314 14 30 28 52 30 49 2 -2 -12 -34 -33 -72z m28 2
c-30 -60 -163 -245 -176 -245 -4 0 24 41 62 90 39 50 85 121 103 158 18 37 34
64 36 60 2 -3 -9 -32 -25 -63z m297 5 l55 -7 -55 -3 -55 -3 60 -7 c33 -4 125
-7 205 -7 l145 1 -145 6 -145 6 120 2 c66 1 174 -3 240 -9 66 -6 201 -15 300
-19 l180 -8 -190 4 c-104 2 -230 6 -280 8 l-90 5 90 -11 c50 -6 186 -11 303
-12 117 0 203 -4 190 -8 -37 -10 -305 -9 -398 2 -47 6 -191 15 -320 20 -286
11 -370 23 -370 52 0 7 17 8 53 3 28 -5 77 -11 107 -15z m970 -38 c0 -5 -13
-7 -30 -4 -16 2 -30 6 -30 8 0 2 14 4 30 4 17 0 30 -4 30 -8z m400 -24 c-1
-16 -49 -50 -118 -83 -56 -27 -113 -32 -159 -14 -48 18 -133 73 -133 86 0 17
29 17 49 -1 35 -31 112 -66 145 -66 45 0 86 16 82 32 -1 7 -1 10 1 6 3 -5 9
-8 14 -8 6 0 7 5 3 12 -4 7 -3 8 5 4 6 -4 26 4 44 18 34 28 67 34 67 14z
m-3156 -20 c-6 -10 -64 -11 -64 0 0 4 16 7 35 8 18 0 32 -3 29 -8z m5375 -255
c0 -5 -5 -17 -10 -28 -9 -18 -9 -18 -5 3 3 13 2 21 -2 17 -4 -4 -7 -30 -8 -58
-2 -111 -17 -227 -29 -227 -21 0 -23 34 -9 130 19 124 32 170 49 170 8 0 15
-3 14 -7z m86 -423 c4 0 1 8 -6 17 -9 11 -10 14 -2 9 37 -22 184 -295 182
-337 -1 -21 -2 -20 -9 6 -14 54 -128 271 -137 261 -3 -2 0 -14 7 -25 21 -41 1
-20 -41 42 -23 34 -33 54 -22 45 11 -10 23 -18 28 -18z m-5619 -87 c33 -124
28 -138 -6 -18 -32 112 -40 101 -10 -15 19 -75 21 -109 2 -48 -21 66 -35 147
-28 164 10 26 17 12 42 -83z m5634 -28 c0 -8 -7 -15 -15 -15 -8 0 -15 7 -15
15 0 8 7 15 15 15 8 0 15 -7 15 -15z m90 -88 c28 -57 50 -110 49 -118 0 -11
-2 -11 -6 1 -3 8 -28 59 -55 114 -26 54 -48 100 -48 102 0 18 18 -11 60 -99z
m-1010 63 c47 -6 32 -7 -55 -3 -303 12 -688 -80 -1055 -254 -177 -83 -205
-101 -344 -212 -49 -39 -91 -69 -94 -66 -3 3 -3 6 -1 8 2 2 38 30 79 64 138
110 170 130 340 211 400 189 841 287 1130 252z m100 -5 c19 -22 8 -25 -12 -3
-10 10 -14 18 -9 18 5 0 14 -7 21 -15z m-10 -26 c0 -6 -4 -7 -10 -4 -5 3 -10
11 -10 16 0 6 5 7 10 4 6 -3 10 -11 10 -16z m-498 -56 c-6 -2 -9 -10 -6 -15 4
-7 2 -8 -4 -4 -18 11 -14 26 6 25 10 0 12 -3 4 -6z m1537 -603 c9 -62 10 -60
6 40 -3 84 -2 93 5 45 12 -92 20 -216 10 -175 -7 34 -7 34 -9 6 -5 -126 -41
222 -39 384 1 124 1 124 9 -55 5 -99 13 -209 18 -245z m-2 218 c-1 -40 -3 -10
-3 67 0 77 1 110 3 73 2 -37 2 -100 0 -140z m-6777 118 c0 -25 -12 -46 -26
-46 -8 0 -14 5 -14 11 0 5 5 7 12 3 8 -5 9 -2 5 10 -5 11 -3 15 5 10 8 -5 9
-2 5 9 -3 10 -2 17 3 17 6 0 10 -6 10 -14z"/>
<path d="M5335 4070 c-4 -6 -29 -26 -58 -45 -28 -19 -52 -41 -53 -50 -1 -8 -1
-15 1 -15 11 0 124 83 129 95 6 17 -10 30 -19 15z"/>
<path d="M5181 3964 c-15 -11 -19 -20 -13 -26 13 -13 45 4 48 26 3 20 -6 20
-35 0z"/>
<path d="M4734 5883 c-9 -47 16 -95 64 -123 47 -28 154 -71 160 -65 3 3 -14
13 -39 22 -134 53 -186 103 -173 170 3 18 4 33 1 33 -4 0 -9 -16 -13 -37z"/>
<path d="M4101 5996 c8 -8 173 -76 176 -72 4 4 -155 76 -170 76 -5 0 -8 -2 -6
-4z"/>
<path d="M4021 5859 c-18 -6 -31 -12 -28 -15 3 -3 27 1 53 10 53 16 30 20 -25
5z"/>
<path d="M3778 5973 c7 -3 16 -2 19 1 4 3 -2 6 -13 5 -11 0 -14 -3 -6 -6z"/>
<path d="M3271 5646 c-19 -19 -30 -39 -26 -46 8 -13 35 5 35 23 0 6 7 19 17
29 30 34 7 28 -26 -6z"/>
<path d="M3420 5635 c-6 -8 -10 -19 -8 -26 2 -6 9 0 16 15 13 29 10 33 -8 11z"/>
<path d="M4770 4701 c74 -5 158 -11 185 -14 43 -6 46 -5 20 4 -16 6 -100 12
-185 14 l-155 3 135 -7z"/>
<path d="M4618 4588 c5 -5 16 -8 23 -6 8 3 3 7 -10 11 -17 4 -21 3 -13 -5z"/>
<path d="M2412 4245 c-3 -166 -21 -432 -37 -545 -24 -166 -75 -503 -85 -555
-5 -27 -9 -63 -8 -80 0 -26 1 -25 9 10 7 36 61 385 94 610 18 125 37 470 33
585 l-4 95 -2 -120z"/>
<path d="M3062 2840 c-2 -41 -7 -131 -12 -200 -16 -219 -20 -329 -11 -285 12
54 34 437 29 505 -4 50 -4 49 -6 -20z"/>
<path d="M5664 4329 c37 -6 58 -17 87 -45 22 -21 39 -33 39 -28 0 13 -48 58
-77 73 -12 6 -39 10 -60 10 -37 -1 -37 -2 11 -10z"/>
<path d="M8863 2778 c-43 -45 -107 -161 -117 -213 -6 -29 -6 -29 5 -5 48 108
80 162 123 208 27 28 45 52 40 52 -6 0 -28 -19 -51 -42z"/>
<path d="M5210 1993 c-150 -15 -265 -22 -317 -18 -46 3 -129 2 -185 -2 l-103
-8 185 -5 c102 -3 221 -2 265 2 44 4 121 10 170 13 116 7 245 25 245 34 0 10
9 11 -260 -16z"/>
<path d="M3070 2010 c14 -4 39 -8 55 -8 l30 0 -30 8 c-16 4 -41 8 -55 8 l-25
0 25 -8z"/>
<path d="M4509 1924 c-51 -39 -109 -64 -152 -64 -38 0 -101 27 -146 61 -13 11
-29 19 -35 19 -18 -1 34 -37 92 -65 29 -14 70 -25 93 -25 44 0 126 35 174 75
40 33 18 32 -26 -1z"/>
<path d="M6751 1610 c-1 -8 -8 -55 -15 -105 -9 -54 -11 -96 -5 -105 6 -10 8 0
9 31 0 25 5 71 11 103 5 31 8 65 6 74 -4 13 -5 13 -6 2z"/>
<path d="M6880 1238 c0 -9 5 -20 10 -23 13 -8 13 5 0 25 -8 13 -10 13 -10 -2z"/>
<path d="M6010 4394 c1 -19 59 -178 59 -163 1 8 -10 49 -24 89 -24 69 -35 95
-35 74z"/>
<path d="M12225 4230 c-27 -5 -89 -13 -137 -19 -133 -16 -386 -59 -553 -93
-404 -83 -619 -156 -935 -318 -96 -50 -249 -127 -339 -173 -90 -45 -175 -88
-188 -95 -14 -8 -75 -22 -136 -31 -70 -12 -106 -21 -95 -25 10 -5 46 -1 80 7
35 8 78 15 96 14 32 0 31 -1 -26 -32 -80 -42 -185 -130 -320 -266 -108 -109
-170 -184 -161 -193 2 -3 28 23 56 57 102 122 375 377 405 377 4 0 27 14 51
30 25 17 48 30 52 30 3 0 23 13 43 30 20 16 114 68 207 116 94 47 213 108 265
134 320 163 678 272 1180 359 328 57 623 74 827 47 131 -17 228 -21 183 -6
l-25 8 25 2 c23 1 23 2 5 10 -19 8 -19 9 -1 9 16 1 17 4 8 13 -14 14 -490 21
-567 8z m533 -25 c11 -9 -56 -8 -128 2 l-85 12 105 -6 c58 -3 106 -7 108 -8z"/>
<path d="M6071 4118 c-7 -29 -24 -96 -40 -148 -39 -128 -59 -220 -49 -220 4 0
8 7 8 15 0 8 13 56 29 107 39 128 78 298 68 298 -3 0 -10 -24 -16 -52z"/>
<path d="M6144 3698 c29 -48 58 -162 53 -210 -7 -54 -59 -163 -84 -176 -17 -9
-111 -22 -313 -42 -77 -8 -74 -8 35 -3 66 2 208 15 315 28 107 13 238 26 290
30 320 21 550 46 732 81 109 20 178 39 348 94 15 5 18 9 8 9 -9 1 -72 -17
-139 -39 -68 -22 -139 -40 -158 -40 -20 0 -110 -9 -201 -20 -91 -11 -235 -27
-320 -35 -323 -31 -466 -47 -510 -55 -25 -4 -47 -6 -49 -4 -3 2 8 30 23 62 37
78 47 152 30 211 -17 57 -54 131 -66 131 -5 0 -2 -10 6 -22z"/>
<path d="M5990 3591 c0 -5 5 -13 10 -16 6 -3 10 -2 10 4 0 5 -4 13 -10 16 -5
3 -10 2 -10 -4z"/>
<path d="M9445 2980 c-22 -5 -87 -16 -145 -25 -123 -19 -290 -54 -290 -62 0
-3 11 -2 26 1 26 7 149 26 322 51 92 13 142 27 142 40 0 6 -2 6 -55 -5z"/>
<path d="M7820 1485 c11 -25 29 -65 40 -90 11 -25 31 -89 45 -143 56 -209 80
-283 141 -442 104 -267 103 -265 241 -402 l123 -123 10 -85 c5 -47 10 -111 10
-142 l0 -58 2185 0 2185 0 0 365 0 365 -22 5 c-31 7 -311 64 -373 76 -27 6
-95 21 -150 34 -87 22 -363 73 -560 104 -33 6 -117 12 -186 16 -144 6 -729 99
-1039 166 -25 5 -137 27 -250 50 -113 22 -257 51 -320 64 l-115 24 -105 -30
c-142 -40 -330 -51 -417 -24 -32 10 -72 26 -88 35 -17 10 -62 29 -100 42 -129
47 -140 51 -193 75 -43 19 -82 25 -210 33 -379 25 -552 49 -752 105 -124 35
-124 35 -100 -20z m1167 -181 c-3 -3 -12 -4 -19 -1 -8 3 -5 6 6 6 11 1 17 -2
13 -5z"/>
<path d="M6740 1294 c0 -5 28 -79 63 -164 74 -180 102 -279 151 -520 42 -212
54 -305 60 -474 6 -148 16 -182 16 -50 0 135 -24 330 -65 529 -48 234 -81 347
-155 530 -60 147 -70 168 -70 149z"/>
<path d="M1426 983 c-52 -77 -50 -66 -106 -473 -27 -191 -57 -383 -76 -477 -4
-18 -3 -33 2 -33 10 0 63 312 95 560 48 365 40 333 94 410 26 39 45 73 43 76
-3 2 -26 -26 -52 -63z"/>
<path d="M6106 1039 c7 -8 23 -43 37 -79 23 -59 35 -95 83 -265 32 -114 86
-462 98 -635 2 -30 2 -3 0 60 -9 302 -149 907 -214 928 -12 4 -13 2 -4 -9z"/>
<path d="M2675 734 c-4 -16 -9 -35 -11 -42 -30 -98 -94 -478 -98 -587 -2 -55
-2 -84 0 -65 2 19 9 78 14 130 6 52 15 118 20 145 5 28 19 100 31 160 11 61
29 148 40 194 11 46 18 86 15 88 -3 3 -8 -8 -11 -23z"/>
</g>
</svg>
