<?xml version="1.0" standalone="no"?>
<!DOCTYPE svg PUBLIC "-//W3C//DTD SVG 20010904//EN"
 "http://www.w3.org/TR/2001/REC-SVG-20010904/DTD/svg10.dtd">
<svg version="1.0" xmlns="http://www.w3.org/2000/svg"
 width="1280.000000pt" height="720.000000pt" viewBox="0 0 1280.000000 720.000000"
 preserveAspectRatio="xMidYMid meet">
<metadata>
Created by potrace 1.16, written by Peter Selinger 2001-2019
</metadata>
<g transform="translate(0.000000,720.000000) scale(0.100000,-0.100000)"
fill="#000000" stroke="none">
<path d="M0 3763 c0 -1890 4 -3433 8 -3427 33 36 194 295 242 388 73 140 95
206 109 320 11 89 24 118 80 174 9 9 47 49 84 88 l67 71 -20 124 c-20 125 -25
197 -14 234 9 31 197 171 272 202 28 12 102 17 322 23 157 4 290 5 296 3 9 -3
122 29 279 81 45 14 46 16 99 261 15 66 40 170 56 230 16 61 41 163 55 228 14
65 42 189 64 275 21 86 46 202 56 257 10 55 29 154 42 220 14 66 31 154 39
195 21 111 52 439 69 739 10 175 19 269 28 279 8 11 13 77 15 226 12 908 24
1135 72 1349 6 27 12 69 15 95 14 151 48 275 113 412 41 87 130 227 199 312
l64 78 -1356 0 -1355 0 0 -3437z"/>
<path d="M2663 7121 c-134 -167 -238 -360 -283 -523 -20 -75 -26 -109 -35
-200 -3 -26 -9 -68 -15 -95 -48 -214 -60 -437 -72 -1348 -2 -147 -7 -217 -16
-232 -8 -15 -18 -116 -27 -280 -24 -409 -59 -734 -90 -841 -8 -26 -23 -99 -34
-162 -40 -229 -50 -277 -86 -418 -20 -79 -47 -196 -61 -260 -13 -65 -38 -166
-54 -227 -16 -60 -41 -164 -55 -230 -15 -66 -35 -151 -44 -190 l-17 -69 -50
-15 c-27 -7 -96 -28 -154 -46 -104 -32 -107 -32 -336 -34 -127 -2 -270 -6
-317 -10 -79 -8 -89 -11 -151 -55 -37 -25 -69 -46 -73 -46 -7 0 -105 -80 -120
-99 -19 -21 -16 -97 8 -244 l21 -129 -68 -71 c-38 -40 -76 -80 -85 -89 -56
-56 -71 -88 -81 -170 -12 -103 -42 -193 -111 -328 -55 -109 -234 -390 -249
-390 -4 0 -8 -72 -8 -160 l0 -160 614 0 614 0 21 113 c11 61 32 195 46 297 14
102 34 240 45 307 11 67 21 135 22 150 1 19 3 14 8 -17 l7 -45 1 42 c2 32 14
59 53 118 28 42 49 78 46 81 -3 3 -28 -29 -56 -71 -28 -42 -51 -74 -51 -70 0
14 35 73 66 111 33 40 34 44 40 160 3 65 8 121 11 124 3 3 2 -53 -1 -124 -4
-72 -3 -127 0 -123 4 4 11 62 15 130 l7 122 -2 -128 -3 -128 -54 -77 c-60 -86
-50 -42 -104 -462 -14 -107 -37 -255 -50 -329 -14 -74 -25 -145 -25 -158 l0
-23 640 0 640 0 0 58 c0 77 32 295 70 472 42 201 45 213 68 262 11 24 40 86
65 140 25 53 55 120 67 150 13 29 33 77 46 106 13 29 24 54 24 57 0 2 14 28
32 57 32 53 32 54 34 198 2 173 55 586 104 820 33 153 18 135 225 273 77 52
157 110 178 129 37 35 37 36 37 113 0 42 -8 105 -17 140 -16 61 -16 65 0 83
40 44 216 76 472 86 136 5 122 12 173 -84 14 -25 32 -54 42 -65 9 -11 33 -43
51 -71 45 -67 82 -97 172 -139 53 -24 99 -37 155 -44 44 -5 85 -12 91 -15 6
-4 25 -28 43 -54 17 -26 52 -71 76 -99 24 -29 40 -53 35 -53 -12 0 -76 76
-122 143 -38 55 -51 62 -144 71 -38 4 -76 11 -85 15 -9 5 -43 21 -75 35 -58
26 -127 74 -127 88 0 11 -58 94 -76 109 -9 7 -20 22 -25 34 -5 11 -22 43 -38
70 l-29 50 -119 -3 c-240 -6 -417 -37 -457 -81 -16 -17 -16 -23 -2 -79 9 -33
16 -97 16 -142 0 -82 0 -83 -37 -118 -21 -19 -101 -77 -178 -129 -158 -106
-178 -120 -193 -150 -18 -34 -50 -194 -82 -412 -49 -342 -62 -478 -55 -569 7
-88 8 -87 -62 -213 -11 -19 -44 -92 -73 -164 -30 -71 -62 -142 -72 -157 -10
-14 -18 -32 -18 -40 0 -7 -11 -33 -25 -57 -14 -23 -25 -47 -25 -52 0 -5 24 7
53 25 51 33 103 49 292 93 220 50 525 0 875 -144 19 -8 55 -21 80 -29 25 -7
77 -33 115 -56 39 -24 90 -52 115 -62 25 -11 55 -30 67 -43 12 -13 34 -28 49
-33 l26 -10 -6 112 c-9 156 15 455 38 455 8 0 11 -71 12 -256 0 -236 -1 -245
-8 -116 -5 77 -6 190 -3 250 6 154 -11 92 -25 -91 -6 -82 -8 -193 -4 -254 5
-77 4 -110 -4 -110 -20 0 -67 25 -80 42 -7 10 -43 31 -79 48 -37 17 -86 44
-109 60 -24 16 -74 40 -111 53 -67 25 -97 37 -160 63 -17 8 -38 14 -46 14 -9
0 -19 5 -22 10 -3 6 -14 10 -23 10 -9 0 -29 6 -44 14 -25 13 -89 29 -248 62
-98 19 -237 26 -310 15 -106 -17 -218 -40 -272 -56 -58 -17 -144 -69 -158 -96
-28 -51 -120 -583 -120 -691 l0 -48 1867 0 1866 0 -7 119 c-6 112 -37 327 -70
486 -19 92 -73 291 -86 313 -18 33 -50 115 -50 128 0 8 7 14 15 14 61 0 203
-602 222 -942 l6 -118 327 0 c255 0 329 3 333 13 7 17 -1 214 -13 327 -12 110
-70 405 -106 535 -24 88 -84 249 -129 351 -26 58 -47 126 -40 133 3 2 8 -11
12 -30 7 -33 7 -33 14 -9 6 20 7 21 8 5 1 -11 10 -37 21 -57 33 -62 117 -288
144 -388 73 -272 126 -602 126 -792 l0 -88 690 0 690 0 0 63 c-1 34 -5 95 -9
136 l-9 74 -125 126 c-107 107 -129 136 -152 191 -15 36 -36 84 -46 107 -50
111 -126 333 -165 487 -28 108 -62 215 -75 231 -13 17 -51 126 -46 131 3 3 43
-6 88 -19 224 -67 423 -96 784 -116 164 -9 180 -13 340 -80 11 -5 38 -15 60
-24 22 -8 59 -23 82 -32 23 -9 46 -14 52 -10 7 3 10 1 9 -6 -2 -7 20 -21 47
-31 96 -37 362 -12 505 46 9 4 81 -7 160 -23 390 -81 965 -190 1190 -225 95
-15 203 -33 254 -42 10 -2 78 -6 150 -10 125 -6 431 -52 628 -95 51 -11 138
-29 193 -40 55 -11 125 -26 155 -34 30 -8 105 -24 165 -35 61 -12 118 -23 128
-26 14 -5 17 1 17 35 0 40 -1 41 -32 41 -18 0 -49 4 -68 10 -19 5 -118 23
-220 39 -102 17 -251 41 -333 55 -151 25 -387 56 -582 76 -60 6 -141 17 -180
25 -38 7 -95 17 -125 20 -30 4 -201 32 -380 62 -179 31 -359 61 -400 68 -41 6
-82 14 -90 17 -8 3 -49 11 -90 17 -178 26 -454 83 -462 95 -4 6 -40 11 -85 11
-43 0 -107 3 -143 7 l-65 7 64 -12 c35 -7 66 -17 68 -23 8 -23 -135 -49 -267
-49 -117 0 -129 2 -185 29 -68 32 -155 66 -264 102 -40 14 -81 33 -90 44 -14
17 -39 20 -211 30 -359 20 -537 47 -800 121 -80 23 -179 49 -220 59 -64 16
-200 58 -370 114 -25 8 -90 27 -145 42 -152 40 -511 162 -592 200 -40 19 -76
34 -80 34 -3 0 -25 9 -47 19 -125 59 -190 87 -266 116 -47 18 -132 51 -190 73
-234 91 -541 200 -635 226 -189 52 -210 58 -304 97 -52 22 -96 38 -98 36 -7
-8 23 -25 82 -46 33 -13 64 -26 70 -30 17 -13 216 -74 288 -88 16 -3 27 -12
27 -22 0 -9 23 -97 51 -196 54 -196 55 -197 93 -363 14 -61 31 -122 37 -134 6
-12 67 -82 134 -157 68 -75 146 -167 174 -206 103 -140 161 -225 151 -225 -5
0 -31 32 -57 70 -95 139 -152 212 -280 354 -143 159 -129 130 -183 355 -11 46
-22 86 -24 89 -3 2 -44 -1 -93 -7 -142 -18 -203 -21 -500 -27 -255 -5 -283 -4
-283 10 0 17 -1 17 315 22 88 1 243 11 345 22 102 10 188 16 192 13 4 -3 -12
-7 -35 -9 -23 -1 -114 -10 -202 -18 -88 -9 -258 -17 -378 -19 -120 -2 -221 -6
-225 -10 -7 -7 507 1 618 10 36 2 107 10 158 16 80 10 92 14 86 28 -4 9 -30
100 -58 203 -34 126 -55 188 -64 188 -8 0 -47 -16 -88 -35 -60 -29 -85 -35
-136 -35 -122 1 -207 33 -292 111 -37 34 -46 48 -36 54 9 5 11 4 6 -3 -8 -14
100 -96 163 -125 27 -12 76 -21 126 -24 71 -5 87 -3 135 19 30 14 66 29 80 35
24 10 22 11 -29 27 -30 9 -62 16 -72 16 -18 0 -94 28 -224 82 -50 21 -81 40
-83 51 -4 18 32 25 42 8 3 -5 18 -12 33 -16 15 -3 50 -17 78 -29 51 -24 68
-29 275 -87 108 -30 435 -147 760 -273 159 -62 149 -58 270 -114 47 -22 96
-43 108 -47 13 -4 49 -19 80 -35 66 -32 431 -155 577 -194 55 -15 120 -34 145
-42 170 -56 306 -98 370 -114 41 -10 140 -36 220 -59 264 -75 441 -101 805
-121 159 -9 202 -15 212 -27 17 -21 46 -35 133 -63 41 -12 79 -27 85 -32 5 -4
16 -8 25 -8 9 0 39 -11 66 -25 126 -65 274 -73 445 -24 l44 13 -64 10 c-39 7
-66 17 -69 25 -4 12 7 13 64 5 38 -5 105 -8 148 -7 58 1 82 -2 90 -12 10 -12
105 -34 301 -70 39 -7 81 -15 95 -19 14 -4 54 -11 90 -16 36 -5 101 -16 145
-23 243 -43 738 -126 785 -132 30 -3 87 -13 125 -20 39 -8 120 -19 180 -25
195 -20 431 -51 582 -76 82 -14 231 -38 333 -55 102 -16 201 -34 220 -39 19
-6 50 -10 68 -10 l32 0 0 1665 0 1665 -48 0 c-26 0 -99 7 -162 16 -280 39
-806 -20 -1300 -147 -192 -50 -299 -86 -535 -182 -76 -31 -584 -292 -615 -317
-19 -15 -55 -39 -80 -54 -25 -15 -54 -32 -65 -39 -114 -69 -261 -205 -422
-389 -67 -76 -81 -88 -122 -97 -78 -18 -403 -63 -409 -57 -3 3 -1 6 4 6 38 0
420 62 433 71 12 7 1 9 -39 4 -70 -7 -283 -42 -335 -55 -22 -5 -47 -9 -55 -9
-56 4 315 70 402 72 32 1 58 5 58 10 0 4 -4 7 -10 7 -21 0 52 99 137 185 132
136 328 295 363 295 7 0 11 3 7 6 -3 4 -40 -2 -82 -11 -55 -13 -79 -15 -87 -7
-8 8 -6 10 8 6 10 -3 44 2 74 10 66 18 39 20 -66 5 -49 -7 -86 -7 -103 -1 -87
32 -304 84 -496 121 -60 11 -132 25 -160 31 l-50 9 58 -5 c32 -3 133 -21 225
-41 92 -19 194 -41 228 -48 34 -6 65 -15 71 -18 5 -3 44 -15 86 -26 67 -18 86
-20 154 -11 137 19 187 31 236 61 26 16 50 29 53 29 10 0 278 136 363 184 150
86 400 191 579 244 56 17 106 33 110 36 36 22 641 137 873 166 46 6 116 15
154 20 83 11 389 12 493 1 l72 -7 0 1483 0 1483 -5037 -1 -5038 0 -62 -78z
m2923 -19 c21 -37 54 -87 74 -112 80 -100 130 -201 189 -383 70 -220 91 -336
98 -548 7 -198 -3 -301 -48 -509 -37 -175 -39 -183 -53 -195 -6 -5 -21 -50
-33 -100 l-22 -90 41 -42 c23 -23 65 -54 94 -67 64 -30 98 -78 108 -151 8 -63
-12 -327 -29 -378 -11 -33 -10 -44 6 -89 11 -28 18 -53 15 -55 -3 -3 -8 7 -12
23 -7 26 -8 26 -16 9 -6 -15 -7 -13 -3 8 3 15 1 36 -5 46 -7 13 -5 32 5 62 18
57 38 305 29 370 -4 28 -16 64 -28 82 -19 29 -106 86 -131 87 -17 0 14 -24 58
-45 91 -44 112 -130 73 -301 -13 -60 -32 -149 -41 -199 -9 -49 -23 -127 -32
-172 -32 -171 -3 -113 51 102 3 11 3 2 1 -20 -7 -64 -50 -210 -63 -213 -16 -3
-15 43 2 137 8 42 22 117 31 166 9 50 28 139 42 200 37 167 16 252 -76 294
-20 9 -48 24 -63 34 -35 24 -107 118 -117 153 -9 35 -22 39 -52 16 l-23 -20
18 -77 c31 -133 19 -486 -22 -626 -31 -103 -117 -252 -182 -313 -31 -28 -55
-57 -52 -64 2 -7 8 -10 13 -6 5 3 9 3 9 0 0 -13 -172 -147 -235 -183 -188
-109 -197 -112 -409 -119 -149 -6 -186 -4 -286 15 -63 11 -138 21 -167 21 -71
0 -160 41 -240 111 -60 53 -143 148 -143 165 0 9 -83 64 -161 107 -71 39 -249
87 -324 87 -67 0 -92 16 -42 25 60 11 181 -4 279 -36 131 -43 288 -139 288
-178 0 -21 144 -164 189 -186 87 -44 402 -105 539 -105 104 0 151 14 292 87
195 101 327 194 420 298 25 27 55 61 67 75 13 13 30 41 38 60 9 19 20 42 25
52 45 82 63 568 26 703 -10 39 -24 75 -30 80 -6 6 -27 35 -48 66 -34 53 -157
189 -243 270 -22 20 -94 75 -160 122 -66 47 -132 95 -147 107 -67 52 -208 138
-209 127 -6 -65 33 -109 132 -146 37 -13 72 -34 83 -49 18 -24 19 -28 2 -141
-25 -178 -34 -211 -57 -211 -25 0 -25 22 2 188 18 105 25 132 38 132 11 0 12
-3 4 -8 -6 -4 -21 -62 -32 -128 -23 -133 -26 -174 -12 -174 11 0 21 26 20 53
0 21 -1 21 -10 2 -8 -17 -9 -17 -4 5 2 14 5 34 6 45 1 13 4 9 8 -10 6 -25 9
-16 20 51 19 119 20 190 2 186 -8 -2 -24 1 -35 7 -12 5 -50 23 -86 40 -94 43
-114 68 -115 141 -1 52 -5 64 -30 91 -17 17 -48 42 -71 55 -23 13 -59 43 -81
67 -22 23 -72 74 -113 112 -40 39 -89 90 -109 115 -20 25 -61 74 -92 110 -31
36 -90 117 -132 180 -42 63 -96 142 -120 175 -23 33 -46 68 -50 78 -6 15 -18
8 -84 -48 -42 -36 -87 -68 -99 -71 -14 -4 -45 5 -82 23 l-60 29 -32 -29 c-28
-25 -39 -29 -76 -24 -23 2 -56 14 -72 26 -22 15 -33 18 -38 10 -4 -6 -10 -62
-13 -124 -3 -63 -10 -117 -14 -122 -5 -4 -41 -10 -80 -13 l-72 -5 -17 -105
c-10 -58 -22 -143 -28 -190 -6 -47 -15 -114 -21 -150 -15 -105 -29 -314 -29
-435 0 -120 9 -246 39 -580 11 -115 25 -286 31 -380 13 -182 15 -198 26 -218
33 -54 94 -122 141 -153 l55 -39 20 28 c11 15 24 27 29 27 5 0 0 -9 -11 -20
-11 -11 -20 -25 -20 -31 0 -7 11 0 25 15 13 14 27 26 31 26 4 0 -2 -10 -14
-23 -12 -13 -22 -35 -22 -50 0 -53 72 -154 199 -278 79 -77 90 -91 101 -140
19 -85 41 -141 70 -184 37 -53 120 -128 144 -129 22 -1 46 -46 105 -192 85
-212 169 -363 235 -421 70 -61 170 -106 241 -109 94 -3 129 -25 212 -134 39
-52 80 -111 90 -130 14 -26 37 -44 91 -72 106 -53 209 -60 352 -23 17 4 13 0
-10 -11 -27 -13 -61 -18 -145 -17 -95 0 -118 3 -172 25 -69 29 -136 76 -127
89 3 5 -9 26 -25 46 -17 21 -55 70 -84 108 -61 81 -106 107 -187 109 -65 2
-183 53 -242 105 -69 60 -151 208 -240 431 -51 129 -83 190 -99 190 -5 0 -9
-7 -9 -16 0 -8 4 -13 8 -10 12 7 40 -44 68 -126 13 -39 24 -75 24 -79 0 -3
-49 -4 -108 -1 -150 7 -280 -16 -389 -69 -90 -43 -103 -46 -103 -24 0 8 -13
70 -29 138 -16 67 -37 160 -46 207 -9 47 -25 125 -36 174 -11 49 -17 91 -15
93 4 5 33 -123 61 -267 18 -95 76 -343 81 -349 2 -2 10 1 17 7 8 7 47 25 87
42 102 42 239 64 367 58 56 -3 103 -3 103 -1 0 2 -14 39 -30 82 -27 71 -61
120 -79 114 -16 -6 -223 60 -247 78 -6 5 -42 24 -80 43 -78 40 -255 164 -262
185 -2 7 24 -9 59 -36 144 -110 326 -209 446 -242 40 -11 77 -22 83 -26 5 -3
10 -1 10 5 0 6 -26 36 -59 68 -75 73 -95 104 -116 177 -9 33 -22 78 -28 100
-9 30 -35 63 -103 130 -132 131 -174 192 -200 293 -2 6 -11 12 -21 12 -32 0
-122 71 -168 133 -25 33 -45 66 -46 71 0 6 -2 19 -4 28 -2 10 -8 93 -15 185
-6 93 -20 263 -31 378 -30 334 -39 460 -39 580 0 121 14 330 29 435 6 36 15
103 21 150 15 117 41 282 47 297 4 9 27 13 72 13 39 0 72 5 79 12 7 7 12 41
12 84 0 97 10 165 26 171 7 2 30 -7 51 -21 50 -34 84 -33 126 4 41 35 40 35
74 13 15 -10 43 -23 62 -30 41 -14 51 -9 141 67 30 26 60 50 67 54 13 7 72
-70 200 -264 42 -63 101 -144 132 -180 31 -36 72 -85 92 -110 20 -25 69 -76
110 -115 40 -38 89 -87 108 -109 20 -21 53 -50 75 -63 21 -14 57 -42 81 -64
41 -38 42 -40 33 -76 -11 -41 2 -93 23 -93 8 0 8 4 2 13 -17 20 -21 66 -9 83
11 14 24 8 112 -51 54 -36 113 -76 129 -88 17 -12 83 -59 146 -105 130 -92
322 -281 386 -379 21 -32 41 -61 46 -64 4 -3 17 -39 30 -80 20 -68 22 -93 21
-299 -2 -385 -36 -488 -224 -669 -73 -70 -231 -173 -380 -247 -140 -70 -190
-84 -292 -84 -144 0 -444 60 -551 110 -52 24 -187 161 -187 189 0 16 -77 72
-170 124 -80 45 -196 76 -300 81 l-95 5 76 -9 c42 -5 102 -18 135 -29 32 -12
66 -21 76 -21 22 0 139 -58 200 -99 24 -16 58 -52 76 -79 46 -72 147 -162 229
-205 56 -29 82 -37 125 -37 29 0 105 -10 168 -21 100 -19 137 -21 287 -15 197
7 223 14 368 97 95 54 123 74 181 126 52 47 22 51 -34 5 -26 -22 -57 -45 -70
-51 -12 -7 -20 -17 -16 -23 4 -7 3 -8 -4 -4 -16 10 -54 -12 -46 -26 4 -7 3 -8
-4 -4 -16 9 -113 -44 -105 -57 3 -6 1 -7 -5 -4 -12 8 -44 -2 -38 -12 3 -4 -3
-7 -12 -7 -9 -1 -26 -5 -37 -9 l-20 -8 20 20 c11 11 23 19 27 16 7 -4 131 64
213 116 139 88 311 251 345 327 13 27 30 60 40 74 10 14 28 57 40 95 41 132
57 511 26 619 -9 30 -16 66 -16 79 0 45 74 78 86 40 18 -60 92 -163 116 -163
6 0 -8 20 -31 45 -22 24 -41 46 -41 47 0 21 50 190 59 201 17 21 76 291 91
420 17 144 7 426 -20 561 -51 258 -154 507 -266 644 -24 30 -44 58 -44 63 0 6
-9 23 -20 39 -11 17 -29 43 -40 60 -24 35 -26 47 -5 30 8 -6 31 -42 51 -78z
m-1327 -929 l-1 -28 -8 25 c-6 19 -8 21 -9 6 -1 -11 -4 -17 -7 -13 -9 9 3 37
16 37 5 0 10 -12 9 -27z m-59 -32 c0 -10 -10 -22 -22 -27 -13 -5 -185 -9 -383
-9 -198 0 -384 -4 -412 -9 -44 -7 -53 -6 -53 6 0 32 216 46 605 40 83 -1 164
2 180 7 53 16 85 13 85 -8z m-255 -92 c22 -5 47 -13 55 -16 8 -3 25 -5 37 -4
38 4 268 -93 258 -109 -9 -15 -29 -12 -72 9 -21 11 -60 29 -86 40 -27 11 -46
25 -43 30 3 5 -4 11 -17 15 -34 9 -59 7 -52 -4 4 -6 -13 0 -37 12 -38 21 -57
23 -173 23 -143 0 -195 -13 -335 -81 -70 -34 -210 -131 -210 -146 0 -5 19 -8
42 -8 23 0 80 -7 127 -16 103 -20 322 -15 386 9 22 8 72 20 110 27 77 14 147
34 88 25 -28 -4 -33 -1 -33 16 0 33 -29 85 -53 97 -17 8 -18 11 -5 11 25 1 47
-26 60 -74 11 -42 12 -42 45 -33 20 5 45 6 60 1 24 -8 20 -11 -38 -25 -35 -9
-91 -22 -124 -28 -33 -6 -80 -19 -105 -27 -70 -24 -287 -29 -391 -9 -47 9
-109 16 -137 16 -47 0 -51 2 -44 19 15 40 213 171 260 171 7 0 10 5 7 10 -4 6
-11 8 -16 5 -5 -4 -9 -1 -9 4 0 6 7 11 15 11 8 0 15 -4 15 -9 0 -6 26 -1 58
10 31 11 75 24 97 29 58 12 214 12 260 -1z m103 -70 c12 -5 22 -5 22 1 0 4 -8
11 -17 13 -16 4 -16 5 0 6 11 1 21 -7 24 -19 3 -11 9 -18 13 -15 13 8 20 -37
9 -54 -9 -14 -10 -14 -5 1 7 25 -30 56 -73 63 -20 4 -52 10 -71 15 -27 7 -23
7 20 3 30 -3 65 -10 78 -14z m-238 7 c0 -3 -18 -22 -40 -43 -22 -21 -50 -58
-63 -83 -23 -44 -26 -45 -68 -43 -47 2 -193 32 -187 38 2 2 50 -5 106 -17 56
-11 108 -18 116 -15 8 3 17 20 21 37 4 18 26 51 49 76 l42 44 -40 -6 c-23 -3
-50 -9 -61 -14 -11 -4 -42 -16 -70 -25 -27 -10 -69 -29 -93 -41 -23 -13 -50
-24 -59 -24 -41 0 191 98 262 110 49 9 85 11 85 6z m-310 -41 c0 -8 -4 -15
-10 -15 -5 0 -7 7 -4 15 4 8 8 15 10 15 2 0 4 -7 4 -15z m630 -16 c0 -10 -3
-19 -7 -19 -5 0 -8 11 -8 24 0 13 3 22 8 19 4 -2 7 -13 7 -24z m48 -7 c2 -7
-3 -12 -12 -12 -9 0 -16 7 -16 16 0 17 22 14 28 -4z m-778 -82 c0 -11 -2 -20
-4 -20 -2 0 -6 9 -9 20 -3 11 -1 20 4 20 5 0 9 -9 9 -20z m1190 -107 c0 -20
-28 -16 -40 7 -16 30 -2 45 21 24 10 -9 19 -23 19 -31z m174 18 c14 -15 14
-20 3 -29 -11 -9 -19 -6 -38 15 -13 14 -18 23 -11 19 6 -4 12 -2 12 3 0 17 15
13 34 -8z m-122 -20 c8 11 9 11 6 1 -4 -16 -22 -18 -24 -2 -2 7 -1 6 3 -1 4
-8 8 -7 15 2z m-1322 -52 c0 -25 -53 -100 -69 -97 -28 6 -24 39 10 74 33 34
59 44 59 23z m125 -41 c-4 -13 -13 -29 -21 -37 -11 -13 -14 -12 -19 1 -8 21
12 58 31 58 11 0 14 -6 9 -22z m1512 -85 c-3 -10 -5 -4 -5 12 0 17 2 24 5 18
2 -7 2 -21 0 -30z m-2463 11 c11 -4 13 -11 5 -27 -5 -12 -13 -150 -18 -307 -7
-257 -8 -267 -9 -100 0 102 3 239 7 305 4 66 5 122 3 125 -6 7 -101 -100 -120
-135 -10 -20 -17 -64 -20 -129 -6 -132 14 -206 74 -276 55 -64 59 -89 4 -29
-58 65 -82 134 -88 255 -6 138 10 191 81 267 55 60 56 60 81 51z m2453 -71
c-3 -10 -5 -4 -5 12 0 17 2 24 5 18 2 -7 2 -21 0 -30z m-2649 -158 c-3 -14 -1
-25 4 -25 5 0 6 -5 2 -11 -11 -18 -23 4 -17 34 3 15 8 27 10 27 3 0 3 -11 1
-25z m3231 -2 c11 -28 11 -28 -6 -7 -10 12 -25 24 -33 27 -10 4 -8 6 6 6 14 1
25 -9 33 -26z m112 -203 c5 0 9 -8 9 -17 0 -14 -2 -15 -9 -4 -7 11 -9 11 -14
0 -3 -8 -5 4 -5 26 0 22 3 30 5 18 2 -13 9 -23 14 -23z m-1288 -316 c26 -14
68 -44 94 -67 l48 -42 75 5 75 4 -75 6 c-41 4 4 5 100 3 96 -2 212 -9 258 -15
73 -10 85 -15 103 -39 24 -34 25 -76 2 -83 -30 -8 -407 -11 -421 -2 -7 4 -10
11 -8 15 4 6 203 15 364 16 28 0 52 1 52 2 0 1 -5 13 -11 26 -8 17 -22 27 -48
31 -34 6 -345 25 -422 26 l-36 0 44 -45 c79 -83 44 -62 -52 30 -52 51 -120
106 -152 123 -32 17 -53 32 -47 32 6 0 32 -12 57 -26z m99 -106 c44 -39 92
-88 107 -109 14 -21 30 -38 34 -39 5 0 5 5 1 12 -4 6 -3 8 4 5 5 -4 8 -17 5
-30 -4 -18 -3 -19 6 -7 9 13 11 12 11 -6 0 -12 -6 -21 -15 -21 -8 0 -15 8 -15
18 0 27 -177 207 -237 241 -64 36 -82 58 -24 28 23 -11 78 -53 123 -92z m1202
-10 c-4 -57 -11 -112 -15 -123 -5 -12 -6 -1 -3 30 3 28 6 83 7 122 1 40 6 73
10 73 4 0 5 -46 1 -102z m396 -99 c0 -5 -4 -9 -8 -9 -5 0 -9 7 -9 15 0 8 4 12
9 9 4 -3 8 -9 8 -15z m-3604 -68 c-4 -42 -11 -194 -16 -339 -11 -289 -23 -442
-45 -574 -8 -48 -24 -154 -35 -235 -64 -454 -152 -893 -181 -893 -4 0 -10 -12
-14 -27 -5 -21 -8 -24 -16 -12 -7 12 -9 12 -9 0 0 -8 -2 -12 -4 -10 -3 2 -1
20 4 39 l8 35 2 -30 c1 -26 3 -27 9 -10 5 11 6 23 4 28 -2 4 2 29 10 55 45
144 94 402 152 812 13 91 30 206 39 255 23 134 36 291 46 575 13 342 19 407
38 407 12 0 14 -12 8 -76z m702 -96 c-5 -82 -7 -168 -6 -190 2 -22 8 32 15
120 9 126 10 137 8 50 -7 -207 -26 -550 -41 -725 -8 -96 -19 -287 -24 -425
-17 -422 -41 -868 -50 -910 -9 -40 -9 -40 -5 8 7 71 33 601 45 902 5 143 16
330 24 415 14 144 30 554 21 520 -2 -8 -9 -121 -15 -250 -6 -129 -15 -266 -20
-305 -10 -80 -17 -213 -25 -465 -7 -222 -34 -680 -45 -785 l-9 -80 5 90 c2 50
10 203 18 340 8 138 17 333 21 435 7 246 15 380 25 465 9 73 10 94 35 570 9
160 18 310 21 333 11 85 12 35 2 -113z m2886 -121 c14 -38 25 -62 25 -53 1 9
-6 36 -14 59 -8 23 -15 45 -15 49 1 15 24 -36 37 -83 29 -103 32 -130 19 -198
-12 -63 -12 -69 7 -85 26 -24 64 -91 71 -128 4 -16 0 -50 -7 -75 -13 -43 -13
-48 16 -105 46 -91 56 -141 45 -215 -5 -34 -21 -82 -34 -106 -13 -23 -24 -45
-24 -47 0 -2 55 4 123 14 67 9 210 24 317 34 107 9 263 25 345 36 83 11 188
22 235 25 53 4 119 16 175 34 161 52 528 158 600 173 135 30 272 41 480 41
116 0 235 -3 265 -7 136 -15 232 -28 320 -44 75 -13 90 -18 70 -24 -18 -6 -10
-8 30 -7 30 0 57 0 60 -2 3 -1 19 -4 35 -6 17 -3 62 -13 100 -24 39 -10 106
-23 151 -29 81 -12 187 -39 234 -60 14 -6 68 -18 120 -25 52 -8 82 -14 65 -15
-16 0 -59 4 -95 11 -36 6 -99 10 -140 10 -50 -1 -83 3 -100 13 -24 14 -24 14
-3 15 12 0 23 -5 25 -11 2 -6 26 -9 58 -7 l55 3 -67 22 c-36 12 -104 27 -150
33 -45 6 -114 20 -153 31 -38 11 -101 22 -140 25 -38 3 -137 13 -220 24 -361
45 -499 54 -671 42 -189 -14 -301 -32 -439 -71 -375 -106 -473 -135 -496 -147
-28 -14 -327 -67 -474 -83 -87 -10 -251 -24 -440 -36 -49 -4 -178 -17 -285
-30 -107 -13 -249 -26 -315 -28 l-120 -5 115 9 c63 6 207 21 320 34 113 14
275 29 360 35 350 23 747 77 831 113 40 18 24 22 -18 6 -15 -7 -71 -15 -123
-19 -52 -5 -165 -17 -250 -29 -85 -11 -243 -27 -350 -36 -107 -10 -251 -25
-320 -35 -69 -10 -127 -16 -129 -14 -3 2 8 30 23 62 50 106 50 184 0 290 -26
55 -25 31 2 -53 20 -62 24 -91 19 -129 -7 -56 -57 -161 -82 -174 -26 -13 -192
-32 -303 -35 l-95 -2 -28 58 c-16 32 -32 77 -37 100 -7 36 -8 37 -9 12 -1 -42
17 -101 45 -149 l25 -41 -29 33 c-20 22 -33 52 -40 90 -20 105 -20 110 -2 105
12 -3 19 -18 23 -46 2 -23 16 -68 31 -100 l26 -59 112 8 c62 4 149 12 193 18
77 11 80 13 106 51 46 66 64 140 51 201 -12 57 -50 154 -61 154 -4 0 -15 -19
-26 -42 -42 -97 -95 -160 -95 -114 0 8 -4 16 -9 18 -4 2 -11 14 -15 28 -6 19
-5 22 3 10 9 -11 10 -4 6 30 -4 40 -4 41 4 12 16 -61 25 -56 81 45 69 126 74
165 31 235 -17 28 -30 53 -27 55 11 11 66 -104 66 -138 0 -35 -69 -192 -110
-250 -11 -15 -20 -33 -20 -40 0 -18 28 23 70 102 19 37 39 67 45 67 5 0 11 6
14 13 2 7 -1 9 -9 4 -8 -5 -7 2 3 21 28 55 30 90 8 139 -22 50 -58 105 -69
105 -4 0 -14 -28 -23 -63 -54 -206 -53 -202 -60 -177 -5 19 -7 21 -8 6 -1 -11
-3 -17 -6 -14 -8 7 27 154 60 258 35 111 34 164 -4 272 -17 49 -31 91 -31 95
0 16 12 -9 34 -73z m-300 12 c35 -21 51 -40 73 -88 8 -17 -38 7 -52 28 -21 33
-70 56 -110 52 -39 -3 -57 9 -35 22 27 17 82 11 124 -14z m-959 -465 c25 -5 2
-7 -65 -3 -58 2 -107 6 -109 8 -8 7 135 3 174 -5z m1208 -151 c3 -11 1 -18 -4
-14 -5 3 -9 12 -9 20 0 20 7 17 13 -6z m-16 -67 c-3 -10 -5 -4 -5 12 0 17 2
24 5 18 2 -7 2 -21 0 -30z m3066 10 c-7 -2 -19 -2 -25 0 -7 3 -2 5 12 5 14 0
19 -2 13 -5z m237 -120 c-52 -1 -140 -8 -195 -15 -83 -10 -94 -13 -65 -19 35
-7 35 -7 -7 -6 -24 0 -43 4 -43 9 0 19 138 36 285 35 104 -1 107 -2 25 -4z
m143 -10 c-7 -2 -21 -2 -30 0 -10 3 -4 5 12 5 17 0 24 -2 18 -5z m22 -18 l90
-14 -80 7 c-44 4 -152 7 -240 7 -88 0 -140 2 -115 6 79 11 252 8 345 -6z m52
9 c-3 -3 -12 -4 -19 -1 -8 3 -5 6 6 6 11 1 17 -2 13 -5z m-5437 -299 c0 -8 -7
-15 -15 -15 -16 0 -20 12 -8 23 11 12 23 8 23 -8z m5544 -40 c-4 -8 -8 -15
-10 -15 -2 0 -4 7 -4 15 0 8 4 15 10 15 5 0 7 -7 4 -15z m-6054 -15 l-25 -8
25 -2 c14 -1 19 -4 12 -7 -18 -7 -44 5 -37 17 3 5 16 10 28 9 20 -1 20 -2 -3
-9z m5481 -257 c-11 -5 -11 -7 0 -14 11 -7 10 -9 -3 -9 -10 0 -18 7 -18 15 0
8 8 15 18 14 12 0 13 -2 3 -6z m-111 -93 c0 -6 -21 -38 -48 -73 -43 -57 -71
-107 -102 -182 -7 -16 -15 -78 -18 -137 -3 -83 -8 -108 -18 -108 -11 0 -14 19
-14 83 0 95 17 171 60 262 44 93 140 200 140 155z m-6814 -456 c-15 -32 -24
-59 -21 -62 4 -5 40 71 55 118 6 19 8 20 9 6 1 -24 -65 -164 -111 -236 -44
-67 -114 -140 -207 -214 -38 -31 -73 -60 -76 -66 -3 -5 -19 -10 -35 -10 l-30
0 43 38 c23 21 58 49 77 64 67 49 160 147 203 215 46 72 106 191 108 214 0 10
2 11 6 2 2 -7 -7 -38 -21 -69z m779 -351 c-46 -83 -175 -251 -247 -319 -29
-28 -84 -74 -122 -103 -38 -28 -64 -51 -57 -51 19 0 160 112 217 172 81 84
183 222 225 304 43 83 53 85 14 2 -53 -110 -199 -292 -315 -390 -105 -88 -135
-107 -150 -92 -7 7 16 31 67 71 43 33 103 86 134 116 72 70 203 244 237 313
14 30 28 52 30 49 2 -2 -12 -34 -33 -72z m325 7 l55 -7 -54 -2 c-120 -3 -30
-12 205 -21 137 -6 283 -14 324 -20 41 -5 143 -9 225 -8 112 2 123 3 45 5 -58
1 -166 7 -240 14 -74 6 -216 15 -315 19 -179 7 -179 7 -50 8 72 1 177 -4 235
-9 58 -6 201 -12 318 -14 117 -1 215 -4 217 -7 2 -2 -12 -3 -33 -1 -35 2 -35
2 -7 -5 l30 -8 -40 -7 c-58 -10 -298 -8 -385 3 -41 6 -185 15 -320 20 -251 11
-360 25 -368 49 -4 11 6 12 49 6 30 -5 79 -11 109 -15z m1370 -62 c0 -7 -12
-21 -28 -31 -15 -9 -42 -27 -60 -38 -18 -12 -36 -19 -39 -15 -3 3 3 9 13 12
28 11 105 67 99 72 -3 3 -25 -9 -50 -27 -24 -17 -59 -38 -77 -46 -25 -11 -28
-14 -13 -15 l20 -1 -20 -9 c-28 -12 -89 -12 -122 1 -48 18 -133 73 -133 86 0
17 21 17 45 -1 116 -81 176 -85 272 -18 59 41 93 52 93 30z m-3170 -24 c0 -2
-11 -4 -25 -4 -14 0 -25 4 -25 9 0 4 11 6 25 3 14 -2 25 -6 25 -8z m307 -50
c-3 -3 -12 -4 -19 -1 -8 3 -5 6 6 6 11 1 17 -2 13 -5z m5068 -255 c-9 -41 -19
-110 -23 -153 -4 -49 -12 -81 -19 -84 -10 -3 -13 13 -12 60 0 85 32 244 47
241 7 -2 12 2 12 9 0 6 2 9 5 6 3 -3 -2 -38 -10 -79z m105 -358 c0 -3 -5 0
-12 7 -7 7 -17 12 -22 12 -6 -1 -2 -9 9 -18 24 -21 51 -68 107 -180 22 -45 43
-81 45 -78 6 6 -53 134 -87 187 -37 57 -40 78 -4 25 42 -61 134 -262 133 -288
-1 -20 -2 -20 -6 -3 -10 45 -26 76 -33 64 -5 -7 -25 23 -51 77 -45 93 -82 156
-111 188 -10 10 -15 22 -13 26 3 4 -2 13 -10 20 -8 7 -15 17 -15 21 0 5 16 -5
35 -22 19 -18 35 -35 35 -38z m3210 21 c0 -5 -7 -9 -15 -9 -8 0 -15 4 -15 9 0
4 7 8 15 8 8 0 15 -4 15 -8z m-8834 -229 c-5 -6 -46 150 -46 173 1 10 12 -23
25 -75 14 -52 23 -96 21 -98z m23 7 c0 -8 -11 23 -25 70 -13 47 -23 92 -23
100 0 8 11 -23 25 -70 13 -47 23 -92 23 -100z m4691 50 c48 -6 36 -7 -50 -3
-339 14 -785 -105 -1195 -319 -53 -28 -125 -79 -220 -156 -43 -34 -80 -60 -83
-57 -3 3 -3 6 -1 8 2 2 37 30 78 63 121 98 161 123 286 184 445 215 879 317
1185 280z m105 -12 c9 -14 11 -24 5 -26 -6 -2 -8 -8 -4 -13 3 -5 2 -9 -2 -9
-9 0 -33 32 -33 45 0 6 6 1 14 -9 13 -17 15 -17 15 -3 0 9 -8 21 -17 26 -10 6
-13 11 -6 11 6 0 19 -10 28 -22z m-505 -84 c0 -9 -5 -14 -12 -12 -18 6 -21 28
-4 28 9 0 16 -7 16 -16z m1460 -88 c0 -26 -6 -18 -14 19 -5 22 -4 26 4 15 5
-8 10 -24 10 -34z m69 -520 c6 -50 9 -92 7 -94 -13 -12 -36 274 -34 412 1 119
1 118 9 -54 4 -96 12 -215 18 -264z m-2 232 c-1 -40 -3 -10 -3 67 0 77 1 110
3 73 2 -37 2 -100 0 -140z m-117 166 c0 -9 -5 -14 -12 -12 -18 6 -21 28 -4 28
9 0 16 -7 16 -16z m-6660 -48 c0 -25 -12 -46 -26 -46 -8 0 -14 5 -14 11 0 5 5
7 12 3 8 -5 9 -2 5 10 -5 11 -3 15 5 10 8 -5 9 -2 5 9 -3 10 -2 17 3 17 6 0
10 -6 10 -14z m6808 -441 c-1 -45 -16 67 -21 155 l-6 95 14 -115 c8 -63 13
-124 13 -135z"/>
<path d="M4760 5786 c0 -14 188 -101 198 -91 3 3 -17 14 -44 25 -27 11 -70 32
-95 45 -46 24 -59 29 -59 21z"/>
<path d="M5387 4112 c-10 -11 -14 -23 -9 -26 12 -7 35 19 30 34 -2 7 -11 3
-21 -8z"/>
<path d="M4115 6139 c-16 -5 -97 -8 -180 -7 -246 4 -456 -1 -528 -13 -96 -16
-76 -23 24 -9 58 8 182 10 395 5 233 -4 318 -3 338 6 53 25 17 38 -49 18z"/>
<path d="M4125 5985 c89 -41 148 -65 152 -62 5 5 -156 77 -170 76 -7 0 2 -6
18 -14z"/>
<path d="M4058 5863 c6 -2 18 -2 25 0 6 3 1 5 -13 5 -14 0 -19 -2 -12 -5z"/>
<path d="M4550 5762 c0 -5 7 -15 15 -22 8 -7 15 -8 15 -2 0 5 -7 15 -15 22 -8
7 -15 8 -15 2z"/>
<path d="M4740 5752 c0 -12 19 -26 26 -19 2 2 -2 10 -11 17 -9 8 -15 8 -15 2z"/>
<path d="M3271 5646 c-19 -19 -30 -39 -26 -46 8 -13 35 5 35 23 0 6 7 19 17
29 30 34 7 28 -26 -6z"/>
<path d="M3420 5635 c-6 -8 -10 -19 -8 -26 2 -6 9 0 16 15 13 29 10 33 -8 11z"/>
<path d="M4780 4700 c80 -4 157 -10 170 -14 23 -6 24 -6 5 6 -13 8 -71 13
-170 14 l-150 2 145 -8z"/>
<path d="M5006 4663 c14 -15 23 -33 22 -41 -3 -15 -33 -17 -291 -23 -70 -2
-124 -6 -120 -9 5 -3 100 -4 213 0 201 5 205 5 208 27 4 26 -25 73 -44 73 -8
0 -4 -10 12 -27z"/>
<path d="M2426 4524 c-4 -36 -11 -181 -16 -323 -10 -284 -23 -441 -46 -576 -9
-49 -26 -164 -39 -255 -59 -411 -107 -669 -152 -813 -8 -27 -13 -51 -10 -53 7
-8 33 78 61 201 37 166 66 339 117 685 17 113 37 248 44 300 8 52 19 192 25
310 6 118 15 298 20 399 10 188 8 244 -4 125z"/>
<path d="M6066 4215 c12 -59 8 -100 -22 -195 -36 -118 -56 -200 -51 -219 2 -9
8 4 15 29 6 25 21 79 33 120 36 128 48 201 39 248 -4 24 -11 46 -15 50 -4 4
-3 -11 1 -33z"/>
<path d="M6135 3710 c3 -5 8 -10 11 -10 2 0 4 5 4 10 0 6 -5 10 -11 10 -5 0
-7 -4 -4 -10z"/>
<path d="M8265 3674 c-180 -18 -249 -27 -305 -40 -89 -19 -591 -167 -586 -172
3 -2 107 26 233 61 398 115 471 129 733 143 120 6 430 -17 615 -46 33 -6 74
-9 90 -9 27 1 26 2 -10 10 -37 7 -248 37 -320 45 -56 5 -410 12 -450 8z"/>
<path d="M5990 3590 c0 -5 5 -10 10 -10 6 0 10 5 10 10 0 6 -4 10 -10 10 -5 0
-10 -4 -10 -10z"/>
<path d="M5616 4331 c-3 -4 6 -6 19 -3 39 7 73 -6 117 -46 23 -20 39 -30 36
-22 -2 8 -24 30 -47 48 -31 23 -53 32 -81 32 -21 0 -41 -4 -44 -9z"/>
<path d="M8858 2772 c-44 -46 -102 -158 -123 -237 -8 -33 -14 -94 -13 -140 l1
-80 7 105 c11 143 52 250 132 336 50 54 46 69 -4 16z"/>
<path d="M2027 2225 c-47 -81 -122 -162 -226 -245 -45 -36 -81 -69 -81 -74 0
-10 4 -7 116 86 44 36 100 88 123 114 48 55 114 160 109 173 -2 6 -20 -19 -41
-54z"/>
<path d="M3075 2010 c17 -4 41 -8 55 -8 22 0 22 1 -5 8 -16 4 -41 8 -55 8 -22
0 -22 -1 5 -8z"/>
<path d="M4190 1919 c48 -39 123 -69 170 -67 l45 1 -50 6 c-51 7 -100 28 -144
62 -32 26 -52 24 -21 -2z"/>
<path d="M6746 1581 c-9 -49 -15 -113 -14 -142 1 -53 2 -53 5 -9 2 25 10 87
19 138 9 51 14 95 11 98 -2 3 -12 -36 -21 -85z"/>
<path d="M12230 4230 c-30 -4 -95 -13 -145 -19 -188 -24 -468 -74 -665 -118
-113 -25 -208 -47 -212 -49 -4 -3 -54 -19 -110 -36 -133 -39 -263 -91 -413
-165 -167 -82 -578 -293 -591 -304 -6 -5 -37 -15 -70 -23 -54 -13 -49 -22 11
-18 11 1 -4 -11 -34 -28 -65 -36 -105 -65 -196 -144 -136 -118 -308 -306 -294
-320 2 -3 24 19 47 47 65 77 177 191 264 268 68 60 236 179 253 179 3 0 23 14
44 31 34 27 122 73 501 264 180 91 435 183 670 244 494 127 1020 186 1300 147
125 -17 229 -21 195 -6 l-20 9 20 1 20 1 -20 9 c-19 8 -19 9 -1 9 15 1 17 4 8
13 -13 13 -477 21 -562 8z m470 -20 c9 -6 -6 -7 -45 -3 -33 3 -62 7 -64 9 -10
9 95 3 109 -6z m53 -17 c-7 -2 -19 -2 -25 0 -7 3 -2 5 12 5 14 0 19 -2 13 -5z"/>
<path d="M7800 1537 c0 -4 18 -46 39 -96 22 -49 52 -134 66 -188 70 -263 114
-390 207 -603 49 -113 52 -117 174 -240 l124 -126 10 -84 c5 -47 10 -111 10
-142 l0 -58 2185 0 2185 0 0 364 c0 339 -1 365 -17 370 -10 3 -79 17 -153 31
-74 14 -148 30 -165 35 -16 5 -75 18 -130 29 -55 11 -142 29 -193 40 -197 43
-503 89 -628 95 -72 4 -140 8 -150 10 -51 9 -159 27 -254 42 -225 35 -801 144
-1185 224 l-140 29 -105 -31 c-88 -25 -129 -31 -248 -35 -100 -4 -147 -2 -155
6 -6 6 -18 11 -26 11 -7 0 -37 11 -65 24 -28 14 -94 41 -146 61 -52 20 -122
48 -155 62 -51 22 -83 26 -220 34 -220 12 -388 28 -466 44 -37 8 -96 19 -132
25 -58 9 -201 47 -249 65 -10 4 -18 5 -18 2z m1110 -207 c8 -5 11 -10 5 -10
-5 0 -17 5 -25 10 -8 5 -10 10 -5 10 6 0 17 -5 25 -10z m1 -28 c-7 -2 -18 1
-23 6 -8 8 -4 9 13 5 13 -4 18 -8 10 -11z m63 3 c4 -11 -1 -15 -19 -15 -16 0
-25 6 -25 15 0 8 9 15 19 15 10 0 21 -7 25 -15z"/>
<path d="M6743 1285 c3 -11 32 -85 64 -165 70 -170 99 -272 147 -510 42 -206
56 -321 59 -487 1 -68 5 -123 10 -123 12 0 8 165 -8 310 -15 139 -67 404 -111
570 -14 52 -50 157 -81 233 -53 133 -91 215 -80 172z"/>
<path d="M6110 1046 c0 -2 14 -37 30 -77 76 -185 156 -567 180 -859 l9 -115
-4 120 c-10 268 -112 754 -191 907 -13 25 -24 36 -24 24z"/>
<path d="M1346 698 c-9 -62 -28 -194 -42 -293 -13 -99 -34 -229 -45 -289 -11
-59 -18 -111 -15 -114 3 -3 7 -3 9 -1 10 14 84 508 114 757 11 97 -4 53 -21
-60z"/>
<path d="M2675 734 c-4 -16 -9 -35 -11 -43 -35 -110 -104 -544 -102 -636 1
-33 3 -44 4 -25 20 207 67 497 110 664 8 32 13 60 10 63 -3 3 -8 -8 -11 -23z"/>
</g>
</svg>
