<?xml version="1.0" standalone="no"?>
<!DOCTYPE svg PUBLIC "-//W3C//DTD SVG 20010904//EN"
 "http://www.w3.org/TR/2001/REC-SVG-20010904/DTD/svg10.dtd">
<svg version="1.0" xmlns="http://www.w3.org/2000/svg"
 width="1280.000000pt" height="720.000000pt" viewBox="0 0 1280.000000 720.000000"
 preserveAspectRatio="xMidYMid meet">
<metadata>
Created by potrace 1.16, written by Peter Selinger 2001-2019
</metadata>
<g transform="translate(0.000000,720.000000) scale(0.100000,-0.100000)"
fill="#000000" stroke="none">
<path d="M0 3763 c0 -1939 4 -3433 9 -3427 29 32 194 296 239 384 72 137 98
211 106 290 11 104 26 149 65 190 20 21 66 69 104 107 l67 70 -20 124 c-20
125 -25 197 -14 234 5 18 104 105 118 105 3 0 27 16 53 37 95 72 103 74 421
82 158 5 292 6 299 4 6 -3 38 4 70 15 32 11 85 27 118 37 106 30 130 41 137
66 4 13 23 96 43 184 20 88 49 210 65 270 16 61 40 162 54 226 14 63 43 187
64 275 22 87 47 202 56 254 10 52 29 151 43 220 55 271 72 402 93 730 22 339
30 428 45 495 11 52 15 137 15 325 2 681 21 1027 70 1244 6 26 13 71 15 99 5
54 7 65 26 157 36 174 145 388 286 562 l64 78 -1356 0 -1355 0 0 -3437z"/>
<path d="M2663 7121 c-98 -122 -184 -265 -248 -413 -29 -68 -60 -205 -70 -310
-3 -26 -9 -68 -15 -95 -49 -216 -68 -562 -70 -1243 0 -188 -4 -273 -15 -325
-15 -67 -23 -156 -45 -495 -21 -329 -40 -479 -93 -730 -13 -63 -32 -160 -42
-215 -9 -55 -35 -172 -57 -259 -21 -88 -50 -212 -64 -275 -13 -64 -38 -165
-53 -226 -34 -129 -96 -394 -105 -447 -7 -42 -11 -43 -196 -99 -103 -31 -110
-32 -340 -36 -129 -2 -276 -8 -326 -12 -89 -8 -94 -10 -170 -62 -93 -63 -164
-117 -181 -138 -21 -25 -18 -78 22 -336 6 -40 6 -41 -89 -135 -52 -52 -103
-111 -112 -130 -10 -19 -23 -76 -29 -126 -13 -99 -33 -155 -111 -309 -53 -106
-231 -385 -246 -385 -4 0 -8 -72 -8 -160 l0 -160 615 0 614 0 6 38 c4 20 13
71 20 112 18 97 30 175 60 395 48 350 53 373 87 424 17 25 39 55 50 67 15 17
20 43 25 137 5 94 9 117 21 117 12 0 14 -18 10 -121 l-5 -120 -54 -77 c-50
-71 -54 -82 -65 -167 -7 -49 -20 -142 -29 -205 -8 -63 -22 -164 -30 -225 -8
-60 -23 -159 -34 -220 -12 -60 -21 -120 -21 -132 l0 -23 640 0 640 0 0 58 c0
139 93 634 138 732 13 30 44 96 67 145 24 50 53 115 65 145 12 30 33 79 46
108 13 29 24 54 24 57 0 2 16 31 36 65 35 61 36 62 29 143 -7 92 7 232 60 597
42 285 64 382 96 417 27 28 39 37 200 144 63 42 131 92 152 111 37 35 37 36
37 113 0 42 -8 105 -17 140 -14 52 -14 66 -4 79 38 46 239 84 461 87 69 1 130
1 136 0 5 0 25 -29 44 -63 39 -75 113 -180 155 -221 52 -51 185 -107 274 -116
43 -5 83 -11 90 -15 6 -4 25 -28 43 -54 18 -26 54 -73 80 -105 26 -32 48 -64
48 -72 0 -23 138 -114 198 -131 79 -23 159 -19 227 11 80 35 94 30 17 -6 -136
-63 -315 -24 -434 96 -16 15 -28 33 -28 40 0 7 -16 30 -36 51 -20 22 -53 65
-75 96 -21 31 -44 60 -50 64 -6 3 -45 10 -88 15 -42 5 -85 13 -96 18 -161 73
-192 94 -218 146 -8 17 -26 42 -40 55 -13 14 -34 41 -44 60 -11 19 -32 55 -46
80 l-25 45 -119 -3 c-232 -5 -418 -38 -457 -81 -16 -17 -16 -23 -2 -79 9 -33
16 -97 16 -142 0 -82 0 -83 -37 -118 -21 -19 -89 -69 -152 -111 -172 -114
-176 -117 -203 -150 -33 -39 -58 -146 -97 -426 -50 -352 -63 -483 -56 -573 7
-88 9 -84 -62 -213 -10 -19 -41 -86 -67 -149 -27 -63 -71 -161 -97 -216 -27
-56 -49 -105 -49 -108 0 -3 24 10 54 29 52 33 106 51 281 91 212 49 506 6 830
-121 11 -4 39 -16 61 -25 23 -10 55 -21 70 -25 16 -3 56 -22 89 -41 33 -19 92
-50 132 -69 40 -19 78 -44 85 -54 8 -11 27 -23 42 -27 l29 -7 -7 104 c-10 147
16 456 38 456 8 0 11 -71 12 -256 0 -236 -1 -245 -8 -116 -5 77 -6 190 -3 250
6 154 -11 91 -25 -92 -6 -80 -8 -191 -4 -248 6 -88 4 -103 -9 -108 -9 -3 -19
-2 -22 3 -4 6 -14 10 -23 10 -10 0 -23 9 -30 20 -6 11 -47 37 -89 58 -43 22
-105 53 -138 71 -33 17 -91 43 -130 57 -38 14 -84 32 -102 40 -17 8 -38 14
-46 14 -9 0 -19 5 -22 10 -3 6 -14 10 -23 10 -9 0 -29 6 -44 14 -25 13 -89 29
-248 62 -96 19 -236 26 -310 16 -132 -19 -276 -54 -327 -78 -92 -44 -106 -65
-132 -189 -25 -117 -38 -152 -26 -70 4 28 5 48 2 45 -8 -7 -57 -266 -56 -293
1 -12 11 28 24 88 12 61 23 103 24 95 0 -8 -6 -51 -14 -95 -22 -113 -45 -290
-45 -347 l0 -48 1867 0 1866 0 -7 121 c-4 67 -20 203 -37 301 -17 99 -28 183
-25 186 3 3 6 -7 6 -23 0 -16 3 -26 6 -22 3 3 3 30 -2 59 -7 49 -8 50 -15 23
-5 -23 -7 -25 -8 -8 0 13 -7 40 -15 60 -8 21 -24 76 -37 123 -13 47 -34 107
-47 133 -32 68 -39 107 -18 107 61 0 205 -605 223 -941 l6 -119 329 0 c211 0
328 4 329 10 19 147 -27 506 -101 800 -36 145 -130 404 -162 446 -4 6 -10 31
-12 55 -3 35 -2 38 4 14 5 -21 8 -24 9 -10 2 25 22 -20 96 -205 62 -158 91
-261 140 -495 39 -188 65 -394 65 -527 l0 -88 692 0 691 0 -7 120 c-3 66 -10
128 -14 139 -7 18 -111 129 -216 230 -25 24 -46 52 -46 61 0 9 -4 20 -8 26 -5
5 -15 25 -22 44 -7 19 -21 53 -31 75 -45 104 -124 333 -154 452 -47 178 -67
235 -127 360 -6 13 -8 26 -4 30 4 4 66 -7 139 -25 267 -66 392 -83 740 -101
92 -5 173 -13 180 -18 6 -5 39 -20 72 -33 33 -12 74 -28 90 -35 17 -7 48 -18
70 -25 22 -7 74 -29 115 -49 l75 -36 150 1 c135 1 159 4 240 29 107 33 126 33
287 0 237 -51 413 -86 463 -94 28 -5 138 -25 245 -46 181 -34 613 -108 705
-120 22 -3 108 -10 190 -15 83 -5 200 -18 260 -29 61 -11 151 -27 200 -36 50
-9 142 -28 205 -42 63 -14 144 -31 180 -38 65 -13 335 -70 378 -80 20 -5 22
-2 22 35 0 38 -1 40 -32 40 -18 0 -49 4 -68 10 -19 5 -120 23 -225 40 -104 16
-254 41 -331 54 -149 26 -394 58 -579 76 -60 6 -141 17 -180 25 -38 7 -95 17
-125 20 -59 7 -641 105 -775 130 -44 8 -120 22 -170 30 -49 8 -124 21 -165 30
-41 8 -127 25 -190 36 -63 12 -118 27 -122 33 -5 7 -49 11 -120 11 -65 1 -98
-2 -78 -6 26 -5 28 -7 10 -7 -14 -1 -43 3 -65 7 l-40 9 35 2 35 3 -35 8 c-20
4 -5 5 35 1 39 -4 103 -6 144 -5 55 2 77 -2 85 -12 6 -8 59 -23 121 -35 61
-11 144 -27 185 -35 41 -9 116 -22 165 -30 50 -8 126 -22 170 -30 134 -25 716
-123 775 -130 30 -3 87 -13 125 -20 39 -8 120 -19 180 -25 185 -18 430 -50
579 -76 77 -13 227 -38 331 -54 105 -17 206 -35 225 -40 19 -6 50 -10 68 -10
l32 0 0 1664 0 1664 -77 5 c-43 2 -118 10 -168 17 -99 14 -406 8 -510 -9 -33
-5 -112 -17 -175 -26 -299 -43 -785 -158 -905 -214 -11 -6 -51 -22 -90 -37
-113 -43 -127 -49 -422 -197 -155 -77 -293 -150 -305 -162 -13 -11 -48 -35
-78 -53 -84 -50 -90 -54 -156 -102 -83 -61 -199 -172 -317 -305 -54 -60 -108
-114 -120 -118 -12 -5 -69 -15 -127 -23 -58 -8 -158 -23 -223 -34 -65 -11
-120 -20 -123 -20 -2 0 -4 7 -4 15 0 8 8 15 18 15 15 0 15 -2 2 -11 -12 -8
-10 -9 10 -5 38 8 207 34 326 51 97 14 168 34 121 35 -26 0 -199 -27 -321 -50
-60 -12 -110 -19 -113 -17 -10 11 424 83 449 75 7 -3 25 12 39 32 15 20 65 77
112 127 48 49 84 93 82 97 -3 3 -2 4 1 2 3 -3 44 29 90 70 46 41 109 90 140
110 30 20 53 38 51 41 -12 12 -123 -68 -217 -156 -30 -28 -55 -51 -57 -51 -7
0 -166 -170 -199 -212 -41 -53 -54 -63 -27 -20 33 52 54 77 145 170 147 150
323 290 353 278 19 -7 47 3 39 15 -3 5 -2 9 3 8 23 -4 41 4 73 31 19 17 58 43
87 57 55 28 65 41 19 24 -53 -21 -23 -1 72 47 53 27 129 66 167 87 263 142
417 207 654 280 251 76 637 154 961 195 47 6 123 15 170 21 50 7 180 9 318 6
l232 -4 0 1478 0 1479 -5037 -1 -5038 0 -62 -78z m2923 -19 c21 -37 54 -87 74
-112 80 -100 130 -201 189 -384 83 -257 96 -340 96 -616 0 -219 -2 -244 -28
-365 -41 -194 -58 -258 -71 -275 -7 -8 -22 -53 -35 -99 l-22 -85 48 -48 c26
-27 59 -51 73 -55 38 -9 88 -50 104 -86 8 -17 17 -55 21 -82 7 -57 -10 -269
-28 -360 -11 -52 -11 -64 4 -95 65 -136 94 -296 70 -379 -9 -31 -8 -37 19 -68
16 -18 37 -47 45 -63 21 -40 21 -119 2 -156 -9 -16 -16 -25 -17 -21 0 5 5 18
11 29 23 42 12 114 -26 173 -37 59 -55 69 -55 31 0 -13 -7 -43 -16 -67 -8 -24
-24 -75 -34 -114 -10 -38 -19 -60 -19 -48 -1 13 12 64 28 115 34 111 55 198
49 203 -5 6 -62 -180 -78 -255 -6 -30 -16 -64 -21 -75 -6 -13 -6 -40 0 -75
l10 -55 -5 59 c-6 73 3 70 13 -5 6 -37 13 -54 23 -54 8 0 38 42 67 95 64 116
67 153 22 224 -16 27 -28 50 -26 53 3 2 19 -19 36 -47 37 -60 40 -112 11 -170
-22 -44 -25 -54 -10 -45 12 7 -7 -49 -30 -90 -47 -83 -56 -95 -67 -95 -7 0
-13 7 -13 15 0 8 -4 15 -8 15 -22 0 -49 142 -34 174 6 11 20 63 32 114 12 51
32 125 46 164 34 101 32 163 -11 290 -19 57 -32 113 -29 125 3 11 1 24 -5 27
-7 5 -11 -2 -12 -16 0 -27 -57 -240 -58 -219 -1 17 49 221 59 242 18 36 42
223 43 339 2 102 -1 131 -16 157 -19 35 -66 73 -113 92 -17 7 -50 32 -74 56
l-43 43 22 84 c12 46 30 101 41 123 22 47 74 282 91 410 17 129 6 441 -20 569
-53 260 -156 507 -267 644 -24 30 -44 58 -44 63 0 6 -9 23 -20 39 -11 17 -29
43 -40 60 -24 35 -26 47 -5 30 8 -6 31 -42 51 -78z m-1611 -299 c31 -43 90
-130 132 -193 42 -63 106 -151 142 -195 90 -108 327 -350 375 -381 21 -14 57
-43 81 -65 41 -38 42 -40 32 -78 -13 -48 3 -93 43 -121 33 -23 172 -82 179
-75 2 3 -18 14 -45 25 -137 56 -180 99 -167 163 7 38 17 34 137 -49 54 -38
124 -87 156 -109 175 -122 227 -165 332 -273 64 -66 134 -146 155 -179 21 -32
45 -66 53 -75 8 -9 24 -62 34 -117 17 -85 18 -127 13 -293 -9 -273 -33 -386
-107 -493 -17 -24 -26 -46 -21 -49 5 -4 18 9 29 26 53 91 102 189 117 238 37
122 50 517 20 605 -22 67 -20 101 10 121 26 17 65 11 65 -10 0 -25 40 -92 75
-126 20 -19 61 -49 93 -65 100 -53 127 -130 97 -277 -9 -44 -14 -86 -11 -94 3
-8 2 -13 -3 -9 -5 3 -12 -7 -15 -22 -10 -49 -65 -357 -69 -388 l-4 -30 -1 30
c-2 30 49 317 88 495 35 160 13 233 -84 282 -22 11 -56 32 -74 45 -36 27 -102
122 -102 147 0 24 -19 29 -45 12 -29 -19 -31 -45 -10 -107 19 -54 23 -242 8
-424 -12 -143 -42 -254 -94 -338 -16 -26 -29 -50 -29 -54 0 -13 -62 -103 -71
-103 -5 0 -28 -18 -50 -40 -26 -25 -36 -40 -26 -40 8 0 18 6 20 13 4 7 6 8 6
1 2 -24 -163 -168 -224 -195 -11 -5 -33 -18 -50 -28 -144 -88 -172 -95 -410
-95 -150 0 -219 4 -275 17 -41 9 -101 16 -132 16 -85 -1 -182 49 -276 141 -40
40 -85 91 -102 114 -29 43 -50 60 -125 104 -60 34 -106 54 -145 63 -19 4 -55
15 -80 24 -25 9 -79 19 -120 22 -41 3 -81 9 -88 12 -26 14 126 -2 193 -21 39
-10 86 -22 105 -27 90 -20 239 -116 274 -175 37 -64 152 -166 234 -209 62 -33
82 -39 134 -38 34 0 93 -7 132 -15 97 -21 279 -28 409 -16 93 8 117 14 184 47
60 30 73 39 60 47 -19 10 -61 -8 -52 -22 4 -6 -1 -7 -11 -3 -13 5 -15 3 -9 -7
5 -8 4 -11 -3 -7 -12 8 -44 -2 -37 -12 2 -4 -1 -8 -8 -8 -7 0 -25 -3 -42 -7
l-30 -6 28 11 c15 6 24 15 21 21 -4 7 -2 8 5 4 27 -17 372 211 447 296 12 12
29 28 39 34 12 6 16 15 11 23 -6 9 -27 -6 -72 -53 -91 -94 -215 -176 -404
-271 -147 -74 -196 -87 -305 -83 l-90 4 95 2 c106 3 142 13 278 79 139 67 281
156 362 226 65 56 156 165 187 224 44 82 63 195 70 425 5 168 3 209 -12 287
-11 50 -26 99 -34 109 -9 9 -33 43 -54 75 -21 33 -91 113 -155 179 -105 108
-157 151 -332 273 -268 187 -265 185 -272 164 -17 -46 39 -106 128 -135 27 -9
62 -28 77 -43 27 -25 28 -29 22 -86 -3 -33 -15 -111 -27 -173 -16 -88 -24
-112 -36 -110 -21 4 -23 57 -7 158 7 47 17 108 20 135 4 28 10 45 12 38 2 -6
-5 -68 -16 -137 -23 -137 -25 -162 -11 -131 7 14 8 9 5 -20 -5 -34 -4 -37 5
-16 6 14 8 45 6 70 -4 33 -3 37 2 16 8 -29 8 -29 15 15 32 205 32 231 0 224
-10 -2 -56 16 -103 39 -106 52 -135 88 -126 159 5 45 3 48 -38 86 -24 22 -57
47 -72 56 -36 19 -276 263 -368 374 -39 46 -105 136 -148 200 -43 65 -101 151
-130 194 l-51 76 -75 -64 c-42 -36 -86 -67 -98 -70 -14 -4 -45 5 -82 23 l-60
29 -32 -29 c-28 -25 -39 -29 -76 -24 -23 2 -56 14 -72 26 -23 16 -32 18 -38 9
-5 -7 -11 -63 -14 -124 -3 -62 -9 -116 -13 -121 -5 -4 -41 -10 -80 -13 l-71
-5 -13 -60 c-6 -33 -17 -105 -23 -160 -6 -55 -16 -125 -21 -155 -18 -112 -37
-329 -38 -460 -2 -142 6 -273 39 -635 11 -121 26 -299 33 -395 l13 -176 42
-61 c37 -55 138 -143 164 -143 5 0 14 11 20 25 6 14 18 25 27 25 14 -1 13 -2
-1 -11 -10 -5 -18 -14 -18 -19 0 -5 16 0 35 12 20 11 38 18 41 15 3 -3 -10
-13 -30 -22 -32 -15 -36 -22 -36 -54 0 -59 65 -151 199 -281 75 -73 89 -93
100 -135 7 -28 17 -68 22 -90 15 -56 60 -124 120 -178 29 -26 55 -47 59 -47 5
0 6 -9 3 -20 -5 -17 -11 -19 -47 -14 -47 6 -203 61 -226 80 -8 6 -26 15 -39
19 -14 4 -52 25 -85 46 -34 22 -74 47 -90 57 -15 9 -49 34 -74 54 -25 21 -48
36 -50 33 -8 -8 111 -578 124 -594 2 -2 10 1 17 7 8 7 47 25 87 42 102 42 239
64 367 58 56 -3 103 -4 103 -3 0 8 -32 90 -54 137 -33 73 -33 88 1 23 24 -46
63 -149 63 -165 0 -4 -49 -5 -108 -2 -150 7 -280 -16 -389 -69 -45 -21 -86
-39 -90 -39 -5 0 -16 35 -26 78 -9 42 -27 127 -41 187 -47 213 -70 345 -60
355 6 6 27 -5 55 -29 25 -22 59 -48 75 -58 17 -10 50 -31 74 -46 61 -41 175
-100 245 -127 59 -23 155 -42 155 -31 0 3 -23 26 -51 51 -68 59 -103 112 -124
185 -9 33 -22 78 -28 100 -9 30 -35 63 -103 130 -114 113 -174 193 -189 253
-10 37 -17 47 -39 53 -45 12 -126 81 -168 143 l-40 59 -14 181 c-8 99 -23 280
-34 401 -33 363 -41 493 -39 635 1 131 20 349 38 460 6 30 13 84 16 120 6 65
31 220 41 253 4 14 17 17 73 17 39 0 72 5 79 12 7 7 12 43 12 93 0 100 9 155
26 162 7 2 30 -7 51 -21 50 -34 84 -33 126 4 41 35 40 35 74 13 43 -28 94 -43
113 -33 10 5 50 36 90 70 39 33 74 60 76 60 2 0 29 -35 59 -77z m284 -630 l-1
-28 -8 25 -8 25 -2 -25 c-1 -14 -4 -19 -7 -12 -6 17 3 42 17 42 5 0 10 -12 9
-27z m-59 -32 c0 -11 -6 -23 -12 -28 -7 -4 -179 -8 -383 -8 -203 0 -395 -3
-425 -7 -52 -7 -53 -7 -15 4 26 7 174 11 422 12 288 1 385 4 394 13 21 21 1
27 -53 14 -31 -6 -114 -10 -198 -9 -231 4 -460 -2 -524 -13 -32 -6 -60 -8 -63
-6 -2 3 26 10 64 16 72 12 282 17 528 13 83 -1 164 2 180 7 54 16 85 13 85 -8z
m-241 -96 c30 -8 57 -13 60 -13 30 8 291 -95 277 -109 -2 -2 -14 1 -26 7 -12
6 -24 9 -27 6 -4 -3 8 -11 26 -17 18 -6 30 -13 27 -16 -2 -3 -35 9 -73 26 -86
39 -134 64 -108 55 11 -3 29 -8 40 -11 42 -10 -10 17 -64 33 -40 12 -55 13
-61 5 -5 -9 -10 -8 -18 2 -37 44 -281 48 -402 6 -36 -12 -70 -26 -76 -30 -6
-5 -29 -15 -51 -23 -23 -8 -73 -38 -112 -66 -69 -50 -87 -68 -56 -56 8 3 15 1
15 -5 0 -5 -12 -8 -26 -7 -15 2 -29 -3 -31 -9 -3 -9 9 -13 43 -13 26 0 83 -7
127 -16 113 -23 299 -15 427 19 52 14 115 30 140 35 30 8 34 10 13 8 -29 -2
-31 0 -37 34 -3 21 -18 49 -32 64 -15 14 -22 26 -16 26 19 0 41 -30 54 -71
l12 -41 44 7 c25 4 51 9 58 12 8 3 14 -1 14 -10 0 -18 -3 -19 -135 -47 -55
-11 -122 -27 -150 -36 -78 -25 -293 -30 -391 -10 -45 9 -106 16 -137 16 -49 0
-55 2 -50 19 6 25 152 129 222 159 87 36 162 63 206 72 66 13 216 11 274 -5z
m38 -54 c27 -5 46 -4 52 2 8 8 15 7 24 -2 10 -10 8 -11 -8 -6 -20 6 -20 6 -1
-9 10 -8 24 -13 30 -9 6 3 6 0 -1 -7 -9 -10 -15 -10 -26 -1 -8 6 -45 17 -83
25 -38 8 -60 14 -49 14 11 1 39 -3 62 -7z m-193 -13 c-4 -6 -23 -25 -42 -42
-20 -17 -44 -50 -54 -74 -11 -24 -26 -46 -33 -48 -17 -7 -184 24 -205 37 -13
9 -12 10 2 5 42 -13 191 -37 202 -33 7 3 18 23 24 45 7 24 28 54 52 76 l40 36
-47 -7 c-26 -3 -58 -12 -73 -20 -14 -7 -31 -13 -38 -13 -7 0 -47 -16 -89 -35
-41 -20 -77 -34 -80 -32 -10 11 196 95 262 107 65 12 87 11 79 -2z m-404 -138
c0 -11 -2 -20 -4 -20 -2 0 -6 9 -9 20 -3 11 -1 20 4 20 5 0 9 -9 9 -20z m1170
-119 c-1 -13 -30 34 -30 48 0 9 7 3 15 -13 8 -15 15 -31 15 -35z m19 10 c-2
-6 -10 2 -17 17 -11 25 -11 25 4 10 9 -9 15 -21 13 -27z m176 19 c10 -11 13
-20 7 -20 -7 0 -12 4 -12 8 0 5 -10 14 -22 20 -16 7 -18 11 -7 11 9 1 24 -8
34 -19z m-15 -20 c0 -5 8 -11 18 -13 14 -4 14 -5 1 -6 -9 0 -24 8 -34 19 -17
18 -17 20 -2 14 9 -3 17 -10 17 -14z m-108 1 c8 12 9 12 6 0 -6 -22 -28 -25
-27 -4 0 12 2 14 6 4 5 -11 7 -11 15 0z m-1322 -52 c0 -25 -53 -100 -69 -97
-28 6 -24 39 10 74 33 34 59 44 59 23z m130 -32 c0 -17 -29 -57 -41 -57 -5 0
-1 10 11 22 11 12 20 27 20 32 -1 6 -10 0 -20 -13 -22 -26 -27 -21 -8 9 14 22
38 27 38 7z m1507 -89 c-2 -13 -4 -5 -4 17 -1 22 1 32 4 23 2 -10 2 -28 0 -40z
m-2463 6 c11 -4 13 -11 5 -27 -5 -12 -13 -150 -18 -307 -7 -257 -8 -267 -9
-100 0 102 3 239 7 305 4 66 5 122 3 125 -4 6 -81 -76 -112 -119 -20 -29 -24
-49 -28 -138 -6 -139 13 -211 74 -283 55 -64 59 -89 4 -29 -67 75 -85 133 -85
284 0 149 6 166 84 246 51 52 51 52 75 43z m2453 -66 c-3 -7 -5 -2 -5 12 0 14
2 19 5 13 2 -7 2 -19 0 -25z m582 -165 c11 -28 11 -28 -6 -7 -10 12 -25 24
-33 27 -10 4 -8 6 6 6 14 1 25 -9 33 -26z m103 -203 c-2 -16 -6 -30 -8 -30 -2
0 -4 14 -4 30 0 17 4 30 8 30 5 0 7 -13 4 -30z m15 -22 c-3 -8 -6 -5 -6 6 -1
11 2 17 5 13 3 -3 4 -12 1 -19z m-1280 -302 c32 -19 71 -48 87 -65 16 -17 33
-28 38 -25 5 3 7 2 6 -3 -1 -4 19 -29 45 -54 26 -26 47 -51 47 -56 0 -5 -42
32 -94 82 -85 81 -189 155 -202 142 -3 -2 19 -18 48 -35 52 -29 208 -172 242
-222 14 -20 16 -21 12 -5 -6 20 -6 20 9 1 19 -25 19 -56 0 -56 -8 0 -15 4 -15
10 0 45 -164 213 -262 268 -46 26 -63 52 -34 52 8 0 41 -15 73 -34z m1363 9
c0 -8 -3 -16 -7 -18 -5 -3 -8 5 -8 18 0 13 3 21 8 18 4 -2 7 -10 7 -18z m-813
-107 c102 -12 120 -23 128 -79 4 -29 3 -30 -4 -9 -8 22 -9 22 -10 5 -2 -35
-53 -45 -224 -45 -103 0 -157 -4 -157 -10 0 -16 -33 5 -36 22 -2 14 71 19 338
22 38 1 68 4 68 7 0 4 -8 16 -17 27 -22 25 -119 41 -260 43 -54 1 -129 5 -168
9 -45 5 -13 6 90 3 224 -6 325 -19 347 -47 10 -11 18 -16 18 -10 1 40 -94 63
-278 65 -53 1 -131 5 -172 9 -50 5 -22 6 85 3 88 -2 201 -9 252 -15z m723
-105 c-11 -17 -11 -17 -6 0 3 10 7 42 8 70 l2 52 3 -52 c2 -29 -1 -61 -7 -70z
m-3194 -74 c-3 -43 -11 -197 -16 -341 -10 -261 -22 -427 -40 -543 -5 -33 -23
-150 -39 -260 -67 -442 -93 -587 -130 -730 -37 -143 -44 -166 -48 -161 -2 2 1
23 7 46 14 50 6 66 -9 19 -14 -45 -6 -3 19 101 42 175 75 360 136 770 14 96
30 200 35 230 15 100 29 292 39 543 13 342 19 404 38 404 12 0 14 -13 8 -78z
m702 -131 c-5 -199 -3 -194 12 22 l9 125 -4 -120 c-7 -216 -25 -556 -40 -735
-9 -96 -20 -292 -25 -435 -19 -473 -40 -859 -51 -915 -11 -50 -12 -53 -21 -30
-6 14 -7 63 -4 110 17 236 35 588 41 775 3 116 14 318 25 450 21 259 50 781
50 883 0 34 3 62 6 62 4 0 5 -87 2 -192z m522 -77 c143 -37 330 -144 330 -189
0 -20 128 -152 175 -182 34 -21 156 -53 325 -86 63 -12 106 -23 95 -23 -65 -3
-375 72 -430 104 -49 29 -147 128 -172 175 -34 62 -203 161 -333 194 -36 9
-103 21 -150 26 l-85 9 85 -4 c47 -2 119 -13 160 -24z m2079 -4 c43 -29 74
-88 41 -80 -11 3 -26 16 -35 29 -24 36 -72 57 -119 51 -26 -4 -35 -2 -25 4 12
7 12 9 -1 9 -13 0 -13 1 0 11 24 16 97 4 139 -24z m-984 -456 c26 -6 5 -7 -60
-3 -55 2 -102 6 -104 8 -8 7 125 3 164 -5z m1395 -143 c0 -5 8 -22 18 -36 54
-78 57 -205 7 -305 -14 -27 -25 -50 -25 -52 0 -1 17 1 38 5 36 8 171 23 512
55 161 15 244 25 385 45 39 5 93 9 121 10 28 0 71 7 94 15 24 8 45 13 47 11 2
-2 -15 -11 -39 -19 -24 -9 -36 -16 -28 -16 8 0 53 13 100 30 76 27 76 31 0 14
-72 -16 38 20 255 83 348 102 433 117 705 128 189 8 558 -23 680 -56 l35 -10
-40 5 c-22 3 -89 12 -150 20 -347 47 -705 41 -950 -18 -106 -26 -388 -111
-378 -114 6 -2 73 14 149 36 295 85 405 104 649 117 127 6 342 -12 723 -60 56
-7 102 -9 102 -4 0 5 5 6 12 2 7 -4 26 -9 43 -11 16 -2 51 -10 77 -19 26 -8
98 -24 160 -34 126 -22 188 -36 234 -56 33 -14 153 -31 143 -20 -15 16 -442
120 -619 151 -85 14 -171 30 -190 35 -32 8 -31 9 10 4 157 -18 514 -94 679
-145 56 -17 74 -18 149 -9 130 17 181 30 231 60 53 32 97 48 87 31 -4 -6 -12
-11 -18 -11 -6 0 -32 -13 -58 -29 -26 -16 -70 -33 -96 -37 -41 -6 -45 -9 -24
-14 20 -5 14 -8 -34 -18 -77 -16 -95 -13 -31 4 l50 14 -49 -5 c-27 -3 -63 -5
-80 -6 l-31 -1 30 -13 c25 -12 26 -14 10 -16 -11 -1 -2 -5 20 -9 34 -6 36 -7
10 -8 -16 -1 -64 5 -105 12 -41 7 -104 12 -140 11 l-65 -2 55 6 c30 4 48 9 40
13 -44 17 -98 27 -120 21 l-25 -7 30 -8 c24 -6 22 -6 -11 -3 -23 3 -88 10
-145 16 -66 7 -149 9 -229 4 -69 -4 -144 -9 -167 -10 -43 -3 -59 9 -25 19 47
14 185 26 280 24 101 -1 98 -1 -51 -9 -87 -4 -161 -10 -165 -13 -3 -4 50 -4
119 0 75 4 169 2 239 -5 70 -7 125 -8 140 -3 18 7 4 11 -71 22 -52 7 -123 21
-158 32 -35 11 -96 22 -135 24 -39 2 -120 11 -181 19 -302 40 -521 57 -650 51
-164 -9 -317 -28 -425 -56 -146 -37 -544 -152 -555 -160 -22 -18 -365 -78
-545 -96 -115 -11 -114 -11 -295 -23 -93 -6 -260 -22 -370 -36 -110 -13 -253
-27 -318 -30 l-118 -7 -34 36 c-47 50 -74 182 -39 193 7 2 14 -16 18 -45 3
-27 18 -72 33 -102 l26 -53 96 7 c53 4 138 12 189 18 l92 12 34 50 c38 59 56
106 56 151 0 35 -32 137 -54 170 -10 15 -11 26 -4 38 9 18 28 14 28 -5z m2947
-104 c-3 -3 -12 -4 -19 -1 -8 3 -5 6 6 6 11 1 17 -2 13 -5z m306 -91 c-7 -2
-21 -2 -30 0 -10 3 -4 5 12 5 17 0 24 -2 18 -5z m-5416 -75 c12 -24 42 -95 67
-158 70 -178 160 -342 217 -397 19 -18 68 -51 109 -74 65 -36 85 -42 149 -45
47 -3 86 -11 105 -22 31 -18 207 -241 200 -254 -6 -10 44 -43 111 -74 90 -41
181 -44 325 -10 17 4 14 1 -10 -11 -26 -12 -63 -17 -145 -17 -100 -1 -116 2
-174 27 -77 34 -137 77 -121 87 7 5 6 11 -6 21 -9 7 -46 54 -84 104 -37 49
-76 98 -87 107 -23 21 -106 39 -144 31 -30 -5 -165 58 -218 103 -70 59 -150
203 -250 452 -23 57 -51 118 -61 135 -11 18 -20 36 -20 40 0 16 16 -2 37 -45z
m53 -233 c0 -8 -7 -15 -15 -15 -8 0 -15 5 -15 11 0 5 5 7 10 4 6 -3 10 -1 10
4 0 6 2 11 5 11 3 0 5 -7 5 -15z m-497 -52 c-7 -2 -19 -2 -25 0 -7 3 -2 5 12
5 14 0 19 -2 13 -5z m0 -20 c-7 -2 -19 -2 -25 0 -7 3 -2 5 12 5 14 0 19 -2 13
-5z m5316 -396 c-56 -69 -103 -160 -118 -227 -6 -25 -11 -82 -11 -127 0 -70
-3 -83 -16 -83 -15 0 -16 13 -12 108 8 160 62 291 155 372 25 22 25 21 -4 -10
-39 -43 -103 -150 -102 -170 0 -8 13 10 29 40 15 31 49 79 74 107 25 27 42 54
38 58 -4 5 -2 5 5 1 9 -5 -3 -26 -38 -69z m-3925 -156 c3 -5 18 -12 33 -16 15
-3 50 -17 78 -29 27 -13 75 -30 105 -39 30 -9 107 -30 170 -48 145 -41 782
-274 925 -339 11 -5 58 -26 105 -48 47 -22 96 -43 110 -47 14 -4 43 -17 65
-30 22 -12 136 -54 253 -94 214 -73 239 -80 407 -126 50 -13 137 -40 195 -60
170 -58 654 -184 805 -210 130 -22 262 -34 558 -51 101 -5 120 -9 131 -26 9
-12 63 -36 142 -63 71 -24 158 -58 194 -77 64 -33 67 -33 195 -32 95 0 147 5
193 19 34 10 65 15 68 13 3 -3 -28 -14 -68 -24 -51 -13 -110 -19 -198 -19
-127 0 -142 3 -231 51 -40 21 -248 94 -269 94 -10 0 -25 11 -33 24 -15 22 -25
24 -124 30 -475 29 -596 46 -911 131 -291 79 -417 115 -492 143 -36 13 -105
34 -155 48 -162 43 -191 52 -407 125 -117 39 -238 85 -268 100 -30 16 -59 29
-64 29 -5 0 -28 9 -50 19 -119 56 -187 86 -246 108 -36 14 -128 49 -204 80
-77 30 -169 65 -205 78 -36 12 -118 42 -181 65 -113 41 -287 95 -385 119 -27
7 -99 32 -159 56 -114 47 -163 54 -60 10 32 -14 73 -33 89 -40 35 -17 114 -42
238 -76 61 -16 87 -28 87 -39 0 -8 23 -96 51 -195 50 -178 60 -218 98 -387 11
-48 25 -97 32 -109 6 -12 65 -81 130 -153 152 -169 340 -418 326 -432 -3 -3
-27 27 -54 66 -86 128 -158 218 -285 359 -138 153 -122 122 -178 351 -12 47
-23 86 -25 89 -2 2 -39 -1 -82 -7 -181 -25 -540 -34 -728 -19 -55 4 -56 4 -10
-2 l50 -8 -52 -1 c-42 -2 -53 1 -53 14 0 13 9 15 63 9 164 -18 524 -10 730 17
75 9 87 13 81 27 -4 9 -30 100 -58 203 l-51 187 -75 21 c-162 45 -187 53 -255
82 -123 52 -135 59 -135 73 0 16 35 21 44 6z m-2795 -117 c0 11 4 17 7 13 16
-15 -71 -222 -131 -312 -58 -86 -298 -306 -333 -304 -10 0 -6 5 11 11 15 5 27
16 27 24 0 8 5 14 11 14 26 0 259 218 259 242 0 3 -41 -34 -91 -84 -50 -49
-93 -87 -95 -85 -3 2 30 38 72 78 87 84 136 152 187 259 20 41 37 69 37 62 0
-15 -51 -119 -87 -175 -13 -21 -22 -41 -19 -44 8 -8 57 75 93 157 33 76 44
121 22 90 -9 -12 -10 -11 -4 5 4 11 9 36 13 55 l6 35 7 -30 c4 -17 7 -22 8
-11z m868 -186 c-3 -8 -6 -5 -6 6 -1 11 2 17 5 13 3 -3 4 -12 1 -19z m-93
-230 c-29 -95 -176 -298 -292 -403 -71 -65 -164 -135 -179 -135 -30 0 -18 21
32 59 166 125 332 318 401 464 20 41 50 53 38 15z m491 -58 c138 -6 265 -13
283 -16 18 -4 117 -10 220 -14 l187 -8 -185 4 c-102 2 -228 6 -280 8 l-95 5
85 -10 c47 -5 173 -13 280 -18 l195 -9 -180 3 c-99 1 -256 8 -350 14 -93 6
-240 16 -326 21 -168 10 -230 26 -204 52 3 3 31 -1 63 -8 31 -7 170 -18 307
-24z m2039 21 c3 -5 0 -8 -7 -7 -15 1 -142 -10 -337 -29 -144 -15 -378 -16
-357 -3 6 4 54 5 107 2 52 -3 167 2 255 11 161 15 314 31 327 34 4 0 9 -3 12
-8z m-3703 -81 c-29 -28 -58 -50 -63 -50 -5 0 17 22 49 50 75 64 84 64 14 0z
m2419 32 c0 -5 -13 -7 -30 -4 -16 2 -30 6 -30 8 0 2 14 4 30 4 17 0 30 -4 30
-8z m-27 -19 c-7 -2 -19 -2 -25 0 -7 3 -2 5 12 5 14 0 19 -2 13 -5z m427 -6
c0 -15 -91 -76 -140 -94 -76 -27 -146 -11 -245 56 -49 34 -21 24 44 -15 70
-41 130 -52 187 -34 43 14 148 80 140 87 -3 3 -30 -11 -61 -32 -102 -68 -153
-71 -247 -16 -37 21 -72 41 -80 44 -8 4 -7 6 5 6 10 1 33 -10 50 -23 94 -70
162 -72 256 -7 58 40 91 50 91 28z m-3170 -23 c0 -2 -11 -4 -25 -4 -14 0 -25
4 -25 9 0 4 11 6 25 3 14 -2 25 -6 25 -8z m5386 -251 c-16 -74 -36 -201 -36
-230 0 -44 -10 -69 -21 -51 -19 29 2 215 31 286 14 32 33 28 26 -5z m92 -403
c12 -13 13 -13 8 3 -3 9 -1 17 4 17 5 0 9 -10 8 -23 -1 -13 8 -37 20 -53 34
-48 132 -257 131 -279 -1 -17 -2 -16 -9 5 -22 71 -127 276 -136 267 -2 -2 21
-52 52 -111 31 -59 54 -110 51 -112 -3 -3 -25 34 -48 83 -59 120 -86 159 -110
155 -12 -2 -19 3 -19 12 0 9 4 16 9 16 15 0 7 34 -11 48 -10 7 -18 18 -18 24
0 11 37 -18 68 -52z m-5649 -55 c2 23 7 13 22 -40 32 -116 33 -125 16 -125
-18 0 -22 10 -42 96 -15 65 -19 126 -5 69 l8 -30 1 30z m5641 -29 c0 -2 3 -13
6 -23 6 -16 5 -16 -10 2 -15 17 -17 18 -12 2 3 -11 2 -16 -4 -12 -15 10 -12
35 5 35 8 0 15 -2 15 -4z m-900 -76 c48 -6 35 -7 -50 -3 -303 13 -694 -81
-1060 -254 -173 -81 -214 -107 -355 -221 -43 -34 -80 -60 -83 -57 -3 2 8 15
24 27 16 13 49 40 74 60 101 84 160 120 320 196 399 188 842 287 1130 252z
m100 -5 c19 -22 8 -25 -12 -3 -10 10 -14 18 -9 18 5 0 14 -7 21 -15z m13 -37
c9 3 8 0 0 -9 -11 -10 -16 -9 -28 7 -8 10 -14 24 -14 29 0 6 7 1 15 -10 8 -11
21 -19 27 -17z m-521 -45 c-6 -2 -9 -10 -6 -15 4 -7 2 -8 -4 -4 -18 11 -14 26
6 25 10 0 12 -3 4 -6z m1467 -93 c0 -10 -3 -8 -9 5 -12 27 -12 43 0 25 5 -8 9
-22 9 -30z m70 -519 c6 -52 9 -97 6 -99 -12 -12 -35 284 -33 423 1 100 2 94 9
-60 4 -93 12 -213 18 -264z m20 10 c12 -117 13 -126 6 -119 -10 9 -35 337 -33
438 1 97 2 92 9 -55 4 -88 12 -207 18 -264z m-139 383 c0 -9 -5 -14 -12 -12
-18 6 -21 28 -4 28 9 0 16 -7 16 -16z m-6660 -48 c0 -25 -12 -46 -26 -46 -8 0
-14 5 -14 11 0 5 5 7 12 3 8 -5 9 -2 5 10 -5 11 -3 15 5 10 8 -5 9 -2 5 9 -3
10 -2 17 3 17 6 0 10 -6 10 -14z m2310 -41 c0 -8 -7 -15 -15 -15 -8 0 -15 7
-15 15 0 8 7 15 15 15 8 0 15 -7 15 -15z"/>
<path d="M6000 4425 c0 -4 16 -55 35 -112 26 -77 35 -122 35 -170 0 -37 3 -64
6 -60 3 3 6 34 5 69 0 47 -10 92 -37 168 -34 100 -44 123 -44 105z"/>
<path d="M6066 3668 c-50 -92 -58 -109 -53 -114 3 -3 12 7 20 23 8 15 27 49
41 75 15 27 26 53 24 58 -2 6 -16 -13 -32 -42z"/>
<path d="M5980 3613 c0 -15 19 -37 26 -31 3 4 -1 14 -10 23 -9 9 -16 13 -16 8z"/>
<path d="M5370 4093 c-12 -16 -24 -27 -26 -25 -2 1 -28 -15 -57 -36 -28 -21
-58 -41 -66 -43 -14 -5 -25 -39 -13 -39 13 0 117 76 161 116 25 24 39 44 33
48 -6 3 -20 -6 -32 -21z"/>
<path d="M5156 3951 c-28 -19 -28 -19 -6 -26 23 -7 42 5 46 30 3 20 -5 19 -40
-4z"/>
<path d="M4190 5955 c14 -8 32 -14 40 -14 9 0 4 6 -10 14 -14 8 -32 14 -40 14
-9 0 -4 -6 10 -14z"/>
<path d="M4075 5870 l-30 -8 27 -1 c15 0 30 4 33 9 3 6 5 9 3 9 -2 -1 -16 -5
-33 -9z"/>
<path d="M3271 5646 c-19 -19 -30 -39 -26 -46 8 -13 35 5 35 23 0 6 7 19 17
29 30 34 7 28 -26 -6z"/>
<path d="M4601 4534 c0 -11 3 -14 6 -6 3 7 2 16 -1 19 -3 4 -6 -2 -5 -13z"/>
<path d="M4763 4600 c-72 -3 -134 -7 -136 -10 -9 -9 347 1 363 10 16 9 9 9
-227 0z"/>
<path d="M2426 4523 c-4 -37 -11 -180 -16 -318 -10 -253 -23 -445 -40 -545 -4
-30 -22 -145 -38 -255 -60 -399 -82 -522 -127 -728 -9 -43 -15 -81 -12 -83 5
-5 11 17 48 191 21 95 50 271 100 600 53 349 58 395 69 620 6 121 15 301 20
399 10 182 8 242 -4 119z"/>
<path d="M3126 4033 c-4 -98 -16 -275 -26 -393 -10 -118 -21 -316 -25 -440 -4
-124 -13 -331 -21 -460 -23 -384 -25 -429 -15 -390 10 36 34 463 51 915 6 143
17 330 25 415 15 168 31 530 22 530 -2 0 -8 -80 -11 -177z"/>
<path d="M5640 4333 c58 -9 72 -15 110 -49 45 -41 56 -33 13 8 -34 33 -74 48
-116 47 -26 -1 -28 -2 -7 -6z"/>
<path d="M6140 3714 c0 -6 12 -38 27 -70 38 -83 38 -179 0 -249 -45 -84 -49
-87 -139 -100 -46 -7 -133 -16 -195 -20 l-112 -7 -21 33 c-11 19 -25 52 -32
74 -16 56 -31 69 -22 20 8 -49 48 -121 72 -130 25 -9 211 3 437 30 110 14 274
29 365 35 295 20 520 47 700 85 l65 13 -60 1 c-33 0 -91 -4 -130 -9 -145 -21
-225 -30 -390 -45 -275 -26 -519 -53 -538 -60 -23 -10 -22 6 8 64 35 71 46
151 28 213 -15 50 -63 143 -63 122z"/>
<path d="M7485 3500 l-20 -9 20 0 c11 0 29 4 40 9 l20 9 -20 0 c-11 0 -29 -4
-40 -9z"/>
<path d="M8993 3503 c9 -2 25 -2 35 0 9 3 1 5 -18 5 -19 0 -27 -2 -17 -5z"/>
<path d="M5641 3454 c0 -11 3 -14 6 -6 3 7 2 16 -1 19 -3 4 -6 -2 -5 -13z"/>
<path d="M8741 2562 c-7 -20 -14 -84 -16 -142 l-3 -105 7 100 c4 55 13 117 20
138 7 21 11 40 9 43 -3 2 -10 -13 -17 -34z"/>
<path d="M2131 2444 c0 -11 3 -14 6 -6 3 7 2 16 -1 19 -3 4 -6 -2 -5 -13z"/>
<path d="M2881 2012 c-33 -66 -150 -222 -225 -301 -28 -29 -89 -82 -135 -117
-46 -35 -79 -64 -72 -64 19 0 160 112 217 172 98 102 215 267 243 341 18 46 3
30 -28 -31z"/>
<path d="M3057 2019 c18 -18 114 -29 303 -33 l195 -5 -192 9 c-105 5 -219 16
-253 23 -34 8 -58 11 -53 6z"/>
<path d="M6765 1669 c-23 -100 -35 -178 -34 -222 2 -51 2 -51 10 18 4 39 15
104 23 145 8 41 12 77 10 79 -1 2 -6 -7 -9 -20z"/>
<path d="M6850 1275 c0 -5 11 -23 25 -40 13 -16 24 -25 25 -20 0 6 -11 24 -25
40 -13 17 -24 26 -25 20z"/>
<path d="M6845 1240 c-3 -5 -1 -10 4 -10 6 0 11 5 11 10 0 6 -2 10 -4 10 -3 0
-8 -4 -11 -10z"/>
<path d="M1237 1150 c6 -51 23 -100 29 -85 2 6 -5 37 -16 70 -19 58 -19 59
-13 15z"/>
<path d="M12230 4230 c-30 -4 -95 -13 -145 -19 -619 -80 -1116 -214 -1460
-395 -22 -11 -57 -29 -77 -39 -21 -11 -38 -23 -38 -27 0 -5 30 7 68 25 80 41
200 95 208 95 3 0 20 6 37 14 226 104 661 216 1047 271 63 9 142 21 175 26
104 17 411 23 510 9 50 -7 125 -15 168 -17 66 -4 77 -3 77 11 0 12 -11 16 -47
17 -27 1 -61 5 -78 9 -17 4 3 5 48 2 48 -3 77 -1 77 5 0 6 -34 13 -77 17 -97
8 -421 5 -493 -4z"/>
<path d="M10378 3688 c-65 -34 -116 -63 -113 -66 6 -6 235 110 235 120 0 10
13 16 -122 -54z"/>
<path d="M7826 1473 c41 -90 70 -177 108 -323 42 -164 132 -411 197 -543 10
-22 19 -45 19 -51 0 -7 20 -33 45 -57 134 -129 211 -214 217 -237 4 -15 11
-80 14 -144 l7 -118 2184 0 2183 0 0 365 0 365 -22 5 c-25 6 -276 59 -378 79
-36 8 -121 26 -190 41 -69 15 -161 33 -205 41 -44 8 -129 24 -190 35 -60 11
-177 24 -260 29 -82 5 -166 12 -186 14 -132 18 -695 116 -894 155 -27 6 -111
22 -185 36 -74 15 -187 38 -250 52 -248 54 -250 54 -358 21 -131 -39 -339 -51
-423 -23 -29 10 -64 24 -76 32 -11 8 -56 27 -100 42 -166 60 -228 85 -241 94
-7 6 -86 14 -175 18 -329 17 -528 45 -747 103 -52 14 -101 26 -107 26 -9 0 -4
-19 13 -57z"/>
<path d="M6744 1285 c2 -11 29 -81 60 -155 69 -171 106 -298 150 -521 44 -220
57 -325 59 -483 1 -69 5 -126 10 -126 12 0 8 165 -8 310 -15 141 -67 407 -111
570 -31 113 -178 485 -160 405z"/>
<path d="M1488 1173 l-8 -113 -50 -72 c-57 -82 -53 -65 -109 -473 -31 -217
-38 -267 -65 -419 -14 -76 -15 -111 -3 -95 5 7 48 267 63 379 7 58 21 157 29
220 9 63 22 156 29 207 11 85 16 98 64 168 56 84 66 125 60 245 -3 57 -4 50
-10 -47z"/>
<path d="M6110 1046 c0 -4 13 -40 29 -79 17 -40 44 -123 62 -185 18 -62 34
-110 36 -108 8 7 -47 207 -77 283 -28 71 -50 109 -50 89z"/>
<path d="M2675 734 c-4 -16 -11 -45 -16 -64 -5 -19 -9 -44 -8 -55 0 -11 9 16
20 59 11 43 17 81 15 84 -3 2 -8 -9 -11 -24z"/>
<path d="M6260 552 c0 -6 11 -80 25 -164 13 -84 29 -207 34 -273 l10 -120 -5
124 c-2 69 -16 195 -30 280 -23 138 -34 189 -34 153z"/>
<path d="M2572 196 c-7 -52 -11 -119 -11 -148 1 -29 3 -40 5 -23 17 156 26
257 22 260 -3 3 -10 -37 -16 -89z"/>
</g>
</svg>
