<?xml version="1.0" standalone="no"?>
<!DOCTYPE svg PUBLIC "-//W3C//DTD SVG 20010904//EN"
 "http://www.w3.org/TR/2001/REC-SVG-20010904/DTD/svg10.dtd">
<svg version="1.0" xmlns="http://www.w3.org/2000/svg"
 width="1280.000000pt" height="720.000000pt" viewBox="0 0 1280.000000 720.000000"
 preserveAspectRatio="xMidYMid meet">
<metadata>
Created by potrace 1.16, written by Peter Selinger 2001-2019
</metadata>
<g transform="translate(0.000000,720.000000) scale(0.100000,-0.100000)"
fill="#000000" stroke="none">
<path d="M0 3773 c0 -1885 4 -3423 8 -3417 31 35 169 271 219 374 79 163 87
183 102 260 32 166 25 152 138 267 105 106 105 106 99 147 -3 23 -8 100 -12
172 -7 141 3 198 35 209 10 3 49 30 87 60 120 96 131 99 342 101 101 1 215 5
253 9 64 7 69 6 69 -13 0 -18 6 -17 103 18 56 20 125 46 152 57 28 11 77 31
109 44 l59 24 48 245 c63 323 104 500 178 763 82 290 115 463 151 779 75 670
100 1084 100 1666 0 183 4 363 10 400 5 37 17 121 25 187 35 260 107 541 190
740 50 119 96 195 167 278 l49 57 -1340 0 -1341 0 0 -3427z"/>
<path d="M2644 7137 c-116 -140 -183 -275 -253 -512 -48 -162 -83 -330 -106
-500 -8 -66 -20 -150 -25 -187 -6 -37 -10 -217 -10 -400 0 -582 -25 -996 -100
-1666 -36 -316 -69 -489 -151 -779 -74 -263 -114 -439 -179 -766 -26 -137 -50
-250 -52 -252 -4 -3 -265 -104 -362 -139 -67 -24 -68 -24 -73 -5 -5 18 -11 20
-67 14 -34 -4 -144 -8 -246 -9 -183 -1 -186 -2 -233 -29 -26 -16 -71 -47 -100
-70 -29 -23 -64 -48 -79 -56 -44 -23 -51 -57 -44 -199 4 -70 9 -150 12 -178
l6 -52 -95 -95 c-52 -52 -102 -106 -111 -118 -8 -13 -20 -58 -27 -99 -6 -41
-18 -95 -26 -120 -31 -97 -140 -312 -229 -456 l-94 -150 0 -157 0 -157 624 0
623 0 6 38 c2 20 17 118 31 217 22 156 67 583 68 654 0 15 3 20 8 12 5 -8 17
4 35 36 15 26 42 66 60 88 31 38 32 42 24 100 -4 33 -7 85 -6 115 l0 55 7 -65
7 -65 3 70 c3 55 4 60 7 25 2 -25 8 -81 13 -124 l10 -79 -38 -51 c-76 -100
-112 -170 -112 -217 0 -100 -33 -465 -55 -622 -14 -93 -25 -173 -25 -178 0 -5
263 -9 639 -9 l638 0 7 92 c11 143 43 347 82 516 39 169 71 263 113 332 15 25
38 72 51 105 21 52 121 256 157 320 7 13 17 96 23 196 12 198 29 406 36 432 7
21 48 22 194 2 115 -16 182 -18 110 -4 -25 5 -101 16 -170 25 -68 8 -126 17
-128 19 -13 12 54 292 95 399 27 68 28 69 123 130 52 34 118 75 147 90 64 35
85 58 106 116 22 58 21 89 -2 175 -10 39 -18 84 -18 101 0 29 4 33 61 52 111
39 188 50 348 54 87 2 158 6 158 10 0 4 -8 12 -17 17 -10 6 -13 10 -8 11 19 0
30 -15 54 -75 63 -155 156 -264 281 -330 68 -36 83 -39 167 -43 l92 -4 65 -82
c110 -139 149 -161 46 -27 -73 97 -148 163 -169 151 -20 -11 -171 42 -233 82
-126 79 -236 254 -304 481 -8 26 -19 47 -25 47 -6 0 -21 24 -34 53 -14 30 -48
75 -81 107 -75 73 -107 122 -128 197 -32 119 -62 168 -101 166 -12 -1 -172
174 -212 230 -38 54 -37 106 2 147 16 17 39 30 53 30 39 0 142 -30 193 -55 25
-13 50 -21 54 -17 3 4 5 1 3 -7 -1 -8 34 -46 79 -85 45 -39 80 -72 78 -74 -2
-3 -50 35 -107 83 -110 94 -152 117 -249 137 l-61 12 -34 -37 c-42 -45 -42
-61 -4 -118 38 -58 204 -236 216 -232 28 8 68 -62 99 -171 20 -71 54 -123 125
-191 28 -28 65 -75 80 -107 16 -31 33 -58 38 -60 5 -1 19 -34 31 -73 12 -38
47 -120 77 -181 88 -180 196 -282 359 -337 53 -18 74 -21 87 -13 14 8 26 2 65
-30 58 -49 172 -192 173 -216 1 -45 -39 -12 -139 113 l-53 67 -86 4 c-75 3
-98 9 -165 42 -124 59 -227 176 -280 317 -12 31 -25 49 -40 53 -37 10 -287 -4
-367 -21 -41 -9 -97 -24 -125 -34 -60 -22 -63 -37 -34 -144 21 -76 24 -136 9
-163 -5 -9 -16 -34 -24 -54 -10 -27 -29 -46 -63 -67 -286 -175 -278 -167 -322
-301 -23 -69 -75 -310 -68 -316 2 -2 59 -11 126 -19 66 -9 181 -26 254 -39
167 -30 233 -36 487 -45 199 -7 206 -8 245 -34 40 -26 180 -77 214 -77 29 0
96 51 136 103 41 53 58 64 24 14 -62 -90 -127 -133 -191 -124 -21 3 -36 1 -33
-3 10 -16 -143 37 -176 61 -32 23 -44 24 -234 30 -189 6 -259 11 -365 26 -39
5 -42 7 -20 13 17 6 8 7 -30 7 -30 -1 -130 9 -221 21 -92 13 -179 22 -195 20
-27 -3 -29 -7 -36 -58 -3 -30 -11 -140 -17 -245 -14 -241 -27 -344 -45 -364
-8 -9 -49 -88 -91 -176 -42 -88 -99 -205 -126 -260 -56 -115 -105 -301 -143
-548 -34 -216 -43 -347 -24 -347 12 0 16 23 21 110 10 164 64 504 102 637 18
60 28 67 169 106 72 19 105 22 291 22 204 -1 215 -2 386 -38 256 -54 414 -110
438 -155 6 -11 38 -31 73 -46 84 -37 110 -48 201 -90 l77 -35 0 137 c1 134 22
368 36 381 3 3 4 -12 0 -34 -17 -110 -26 -233 -26 -357 0 -76 -4 -138 -8 -138
-5 0 -26 9 -48 19 -69 33 -172 80 -236 107 -35 14 -72 36 -83 49 -47 56 -173
100 -445 157 -145 30 -169 32 -360 33 -183 0 -215 -3 -296 -23 -139 -36 -148
-43 -173 -149 -41 -178 -91 -522 -91 -635 l0 -58 1830 0 1830 0 0 184 c0 321
-32 486 -139 708 -58 121 -81 182 -41 108 11 -19 19 -29 20 -22 0 18 -57 129
-70 135 -6 3 -5 4 2 3 17 -3 108 -177 159 -305 71 -181 100 -349 115 -673 l6
-138 353 0 353 0 7 68 c14 144 -39 484 -111 713 -71 223 -195 512 -260 602
-28 38 -31 49 -19 53 9 4 23 -3 35 -17 59 -71 222 -452 288 -674 62 -209 102
-458 102 -637 l0 -108 673 0 673 0 -4 128 c-2 70 -8 140 -14 156 -6 15 -34 46
-62 68 -72 56 -160 161 -195 232 -47 98 -261 663 -290 766 -7 25 -20 60 -28
78 -9 18 -13 35 -10 39 3 3 73 -6 154 -21 208 -36 397 -49 593 -41 l165 7 129
-36 c129 -37 196 -61 196 -70 0 -3 -15 1 -34 9 -19 8 -92 31 -162 51 l-129 36
-165 -7 c-194 -8 -394 6 -589 41 -75 13 -138 24 -141 24 -12 0 122 -380 245
-696 74 -190 160 -319 269 -400 64 -48 76 -81 76 -202 0 -55 3 -114 6 -131 l7
-31 2178 0 2179 0 0 359 c0 334 -1 360 -17 365 -18 5 -314 59 -523 95 -63 11
-180 27 -260 36 -321 35 -657 94 -1460 255 -300 60 -602 118 -672 129 -116 18
-131 18 -180 4 -31 -9 -115 -17 -201 -20 -152 -6 -251 4 -357 34 -30 8 -64 16
-75 18 -70 8 -166 28 -170 35 -3 5 11 4 31 -2 20 -5 53 -7 73 -4 26 4 31 3 16
-4 -19 -8 -18 -9 5 -11 48 -3 65 -7 120 -22 105 -30 205 -40 357 -34 86 3 170
11 201 20 49 14 64 14 180 -4 70 -11 372 -69 672 -129 803 -161 1139 -220
1460 -255 80 -9 197 -25 260 -36 209 -36 505 -90 523 -95 14 -4 17 1 17 30 0
42 23 36 -255 76 -115 17 -232 37 -260 45 -82 24 -187 44 -368 70 -293 42
-479 73 -852 141 -438 79 -858 148 -1060 174 -82 10 -163 21 -180 23 l-30 4
30 2 c78 3 627 -82 1240 -193 373 -68 559 -99 852 -141 181 -26 286 -46 368
-70 28 -8 145 -28 260 -45 116 -17 220 -33 233 -35 l22 -5 0 1681 0 1681 -322
-5 c-186 -3 -352 -10 -391 -17 -38 -6 -71 -9 -74 -7 -3 3 23 9 57 13 42 5 58
10 51 17 -11 11 -336 -47 -671 -119 -515 -112 -811 -239 -1379 -592 -157 -98
-222 -144 -280 -202 -92 -91 -262 -275 -274 -296 -14 -24 -48 -33 -235 -60
-97 -13 -194 -29 -216 -34 -56 -13 -66 -12 -66 4 0 16 176 59 333 81 60 8 114
18 121 22 12 7 139 143 177 189 23 27 82 78 78 66 -8 -21 -233 -257 -253 -265
-11 -5 -70 -15 -131 -23 -60 -9 -144 -24 -185 -34 -41 -10 -88 -21 -104 -24
-15 -4 -26 -9 -24 -12 3 -2 25 0 50 5 25 6 124 22 222 36 188 27 206 32 231
68 22 32 178 200 266 287 59 59 123 104 295 211 306 190 435 260 689 374 159
71 427 153 685 208 232 50 625 125 685 130 28 2 38 2 23 0 -16 -2 -28 -9 -28
-15 0 -7 24 -9 77 -4 42 3 192 6 335 6 l258 0 0 35 0 36 -62 -5 -63 -5 63 10
62 11 0 1469 0 1469 -3652 0 -3652 0 50 -52 c113 -118 211 -260 270 -394 41
-93 101 -309 130 -464 24 -132 26 -160 21 -320 -6 -169 -29 -318 -66 -412 -6
-15 -17 -72 -26 -125 -9 -54 -27 -142 -40 -197 -27 -109 -24 -125 25 -151 17
-9 30 -19 30 -23 0 -4 29 -24 63 -44 60 -35 65 -40 82 -94 26 -82 17 -218 -19
-294 -15 -30 -23 -46 -20 -35 3 11 8 29 11 40 10 46 -25 -33 -41 -90 -9 -33
-25 -91 -37 -130 -11 -38 -22 -86 -23 -105 -1 -19 -10 -55 -18 -80 -18 -50
-21 -73 -18 -110 2 -24 2 -24 10 5 5 17 23 75 40 130 17 55 35 118 40 140 5
27 8 32 9 15 0 -14 -15 -77 -35 -140 -20 -63 -38 -130 -41 -147 -6 -41 -33
-45 -34 -5 -1 15 -1 35 0 44 1 10 -2 25 -7 34 -7 13 -13 5 -25 -34 -10 -28
-17 -58 -17 -66 0 -8 -4 -17 -9 -20 -9 -6 -3 23 18 95 6 20 27 69 48 110 34
69 51 119 89 264 9 33 25 80 37 105 17 36 21 66 21 153 l1 108 -37 34 c-20 19
-50 38 -65 41 -36 9 -112 88 -159 165 -20 32 -39 59 -42 59 -3 0 -11 -8 -18
-17 -16 -23 -9 -188 12 -252 8 -25 14 -60 14 -78 0 -18 5 -41 11 -51 9 -14 8
-32 -5 -74 -20 -71 -21 -69 14 -61 23 4 30 2 30 -11 0 -9 -8 -16 -19 -16 -24
0 -81 -53 -81 -75 0 -17 -38 -136 -61 -190 -22 -52 -20 -66 10 -58 64 16 76
23 31 18 -38 -4 -41 -3 -20 6 14 6 39 8 57 4 37 -7 103 -64 103 -89 0 -20 -26
-21 -33 -2 -3 8 -22 26 -41 41 -34 26 -38 27 -85 15 -46 -11 -53 -16 -82 -68
-62 -110 -270 -290 -428 -369 -93 -46 -239 -99 -248 -89 -4 3 2 6 12 6 13 0
16 3 9 10 -7 7 -31 5 -75 -6 -56 -15 -80 -15 -194 -5 -71 6 -156 17 -187 25
-31 7 -61 9 -65 5 -8 -8 -164 50 -229 84 -16 9 -55 42 -87 74 -45 47 -63 59
-85 57 -56 -5 -124 -25 -162 -49 -46 -29 -63 -32 -58 -9 4 24 96 72 148 79
l45 5 -52 -14 c-51 -13 -140 -63 -130 -72 3 -3 22 6 44 20 21 14 60 30 87 36
27 6 53 13 59 17 5 3 -17 30 -49 61 l-59 55 52 -43 c29 -23 55 -46 59 -51 3
-5 10 -9 16 -9 27 0 -101 111 -177 154 -24 13 -25 15 -6 10 16 -4 21 -3 17 5
-4 6 -26 15 -49 22 -23 6 -82 30 -132 54 -49 23 -101 47 -115 54 l-25 11 25
-6 c14 -3 72 -28 130 -55 58 -27 112 -49 119 -49 8 0 55 -22 105 -50 106 -57
198 -134 194 -160 -4 -23 49 -80 67 -73 8 2 26 -5 42 -16 15 -11 82 -37 148
-57 118 -37 123 -37 320 -42 207 -4 270 2 350 38 22 10 67 30 99 44 114 51
329 244 367 331 21 48 35 62 19 20 -19 -50 7 -24 48 48 60 105 85 239 84 447
-1 85 -3 173 -6 195 -5 37 -5 38 4 10 6 -16 11 -104 12 -195 1 -164 -18 -317
-52 -405 -18 -48 -81 -146 -90 -140 -5 3 -17 -10 -29 -28 -24 -40 -120 -132
-217 -210 -49 -39 -104 -71 -176 -101 -153 -64 -183 -69 -413 -64 -197 5 -202
5 -320 42 -66 21 -135 46 -153 57 -45 26 -53 23 -17 -6 17 -14 27 -25 24 -25
-13 0 -72 51 -111 96 -24 27 -35 43 -25 35 10 -8 17 -9 17 -3 0 26 -199 172
-233 172 -7 0 15 -18 49 -39 36 -23 94 -76 143 -132 46 -52 98 -104 115 -117
49 -34 238 -114 248 -104 5 5 33 3 66 -4 31 -8 113 -19 182 -25 144 -13 180
-8 323 46 66 24 95 31 102 23 7 -8 6 -9 -2 -4 -7 4 -13 2 -13 -4 0 -6 -4 -9
-9 -6 -13 8 -72 -14 -65 -25 3 -5 12 -9 20 -9 8 0 12 4 9 10 -3 5 0 7 9 4 23
-9 193 85 286 157 156 120 225 193 278 294 30 58 88 212 102 272 9 41 19 57
43 72 28 18 29 21 10 21 -12 0 -24 -6 -26 -12 -4 -10 -6 -10 -6 0 -1 7 6 23
14 36 11 16 13 33 8 57 l-7 34 -7 -30 c-5 -25 -6 -21 -6 18 0 47 0 47 13 21 8
-14 14 -34 15 -43 0 -9 5 -1 10 17 7 22 6 38 -1 50 -10 15 -11 14 -6 -7 6 -31
-10 -14 -19 19 -5 19 -4 21 4 10 16 -23 14 57 -3 111 -8 24 -17 88 -20 142 -4
79 -3 103 10 122 21 32 36 24 78 -45 47 -76 122 -152 166 -170 46 -18 70 -38
86 -75 8 -18 13 -23 14 -13 0 37 -26 71 -84 105 -33 19 -67 44 -74 54 -7 10
-19 19 -25 19 -7 0 -20 12 -30 25 -17 24 -17 28 7 128 14 56 32 146 41 200 9
53 20 110 26 125 37 94 60 243 66 412 5 160 3 188 -21 320 -71 388 -182 621
-405 853 l-55 57 -1391 -1 -1390 0 -51 -62z m1347 -344 c42 -43 111 -127 154
-188 43 -60 103 -139 133 -175 67 -80 240 -260 250 -260 4 0 13 -9 20 -21 31
-49 155 -199 177 -213 15 -10 25 -26 24 -39 l0 -22 -9 23 c-5 12 -17 25 -25
29 -15 5 -146 163 -176 211 -8 12 -17 22 -21 22 -10 0 -186 184 -256 267 -33
40 -96 123 -140 185 -45 62 -112 144 -150 182 l-70 69 -68 -58 c-96 -81 -99
-82 -173 -47 l-62 30 -15 -24 c-24 -35 -46 -37 -113 -10 -33 13 -63 21 -66 17
-2 -5 -14 -60 -26 -122 -12 -63 -23 -120 -25 -126 -2 -9 -26 -13 -73 -13 -63
0 -69 -2 -74 -22 -3 -13 -22 -120 -41 -238 l-35 -215 -2 -380 c-2 -346 0 -395
20 -540 13 -92 24 -230 26 -325 5 -218 11 -265 42 -325 37 -72 107 -159 145
-182 l33 -19 23 27 c27 33 27 39 5 40 -12 1 -10 4 7 9 25 8 25 8 -5 10 -20 2
-23 4 -10 6 11 2 43 -3 70 -11 l50 -15 -43 6 c-34 5 -43 3 -40 -8 2 -8 -10
-29 -25 -47 l-28 -34 -36 19 c-41 22 -113 107 -149 177 -35 67 -43 126 -48
332 -3 109 -13 243 -27 340 -20 146 -22 194 -20 544 l2 384 40 235 c21 130 39
237 39 238 0 2 32 4 72 6 l72 3 24 125 c13 69 28 129 32 134 5 5 23 3 42 -6
99 -45 98 -45 127 -9 l27 33 67 -32 67 -32 70 57 c39 32 73 62 76 66 13 22 45
3 115 -68z m64 -659 c83 -2 153 -4 158 -4 4 0 7 -10 7 -21 0 -21 -1 -21 -172
-13 -95 5 -276 9 -403 9 -224 -1 -282 -7 -369 -41 -14 -5 -17 -3 -14 12 8 45
230 76 483 67 88 -3 228 -7 310 -9z m-124 -90 c99 -18 145 -38 152 -65 5 -20
1 -22 -52 -19 -33 2 -34 1 -27 -30 3 -18 6 -38 6 -45 0 -8 17 -10 58 -7 74 6
65 -3 -10 -11 l-58 -6 0 30 c0 39 -37 76 -84 84 -22 5 -36 13 -36 22 0 12 8
14 38 8 20 -3 47 -13 60 -21 21 -14 92 -17 92 -4 0 15 -63 40 -139 54 -163 31
-306 18 -446 -41 -33 -14 -70 -29 -83 -34 -13 -5 -20 -13 -17 -19 4 -6 21 -2
45 10 68 35 68 21 0 -15 -36 -20 -72 -44 -80 -54 -8 -10 -30 -28 -48 -40 -35
-24 -34 -42 1 -40 20 1 20 2 -3 9 -46 15 59 11 130 -5 36 -8 104 -14 152 -15
101 0 367 37 548 76 14 3 22 3 18 -1 -19 -20 -452 -85 -561 -85 -45 0 -120 8
-166 17 -63 12 -86 14 -89 5 -2 -7 -17 -12 -33 -12 -43 0 -50 28 -14 54 15 12
42 33 58 48 25 22 28 28 15 33 -16 6 -88 -33 -88 -48 0 -5 5 -5 12 -1 7 4 8 3
4 -4 -10 -17 -26 -15 -26 3 0 30 187 124 328 165 85 24 230 26 343 4z m-136
-54 l-20 -9 20 -1 c14 -1 11 -5 -13 -14 -42 -15 -70 -50 -78 -98 -4 -21 -12
-38 -18 -39 -93 -6 -226 14 -226 35 0 13 126 88 170 102 30 9 148 32 170 32 9
0 7 -3 -5 -8z m235 0 c18 -12 2 -12 -25 0 -13 6 -15 9 -5 9 8 0 22 -4 30 -9z
m87 4 c-3 -3 -12 -4 -19 -1 -8 3 -5 6 6 6 11 1 17 -2 13 -5z m103 -37 c62 -31
88 -57 56 -57 -9 0 -41 14 -71 30 -66 36 -104 41 -54 7 33 -22 51 -57 29 -57
-6 0 -8 5 -5 10 8 12 -12 40 -27 40 -7 0 -6 -5 1 -13 8 -11 7 -14 -7 -15 -22
-1 -62 19 -62 30 0 5 10 2 22 -6 28 -20 35 -20 35 -1 0 9 -6 14 -14 11 -8 -3
-11 -1 -8 4 3 6 0 10 -7 11 -10 0 -10 2 1 6 11 5 11 7 0 14 -9 6 -1 7 21 4 27
-4 30 -3 15 4 -14 7 -15 10 -5 10 8 0 44 -14 80 -32z m-280 -74 c0 -15 -2 -16
-10 -3 -8 12 -10 12 -10 1 0 -8 -3 -12 -6 -8 -8 7 4 27 17 27 5 0 9 -8 9 -17z
m958 -72 c64 -43 137 -88 162 -101 86 -43 177 -120 303 -255 128 -139 196
-240 210 -315 16 -82 16 -92 1 -40 -35 120 -82 195 -218 341 -130 140 -218
214 -311 262 -27 15 -99 60 -160 101 -97 66 -111 72 -122 58 -14 -17 -16 -13
-7 12 3 9 10 16 15 16 5 0 62 -35 127 -79z m-145 -20 c6 -7 20 -17 32 -21 17
-7 17 -9 3 -9 -31 -1 -58 35 -56 77 l1 37 4 -35 c3 -19 10 -41 16 -49z m-1346
53 c-3 -3 -12 -4 -19 -1 -8 3 -5 6 6 6 11 1 17 -2 13 -5z m1386 -63 c-4 -6
-43 30 -43 40 0 5 10 -2 23 -14 13 -12 22 -24 20 -26z m-35 -50 c2 -11 -1 -21
-6 -21 -16 0 -54 48 -47 60 10 16 49 -12 53 -39z m170 2 c24 -8 41 -17 39 -20
-3 -2 -26 5 -53 15 -27 11 -58 23 -69 27 -14 6 -17 5 -10 -3 6 -6 39 -23 75
-37 36 -14 52 -23 35 -19 -16 4 -54 8 -83 9 -29 1 -56 6 -60 10 -4 4 13 4 38
1 45 -7 45 -7 17 9 -15 9 -31 14 -35 11 -4 -2 -7 6 -7 19 0 23 1 23 35 8 19
-8 54 -22 78 -30z m-348 1 c0 -17 -26 -19 -36 -3 -7 12 15 31 28 23 4 -3 8
-12 8 -20z m80 0 c0 -16 -26 -19 -35 -4 -4 6 1 7 12 3 16 -6 16 -5 4 10 -12
15 -12 17 3 11 9 -3 16 -12 16 -20z m-1330 -53 c0 -17 -80 -111 -94 -111 -19
0 -28 27 -17 48 24 45 111 94 111 63z m1655 -183 c-14 -59 -13 -46 2 62 8 62
-8 42 -23 -28 -8 -37 -12 -47 -13 -27 0 17 6 48 14 70 8 22 15 58 16 80 1 31
3 25 10 -27 6 -49 5 -83 -6 -130z m-29 105 c-8 -32 -17 -92 -19 -133 -3 -50
-2 -61 3 -35 7 38 7 38 8 8 3 -51 -18 -131 -35 -137 -13 -5 -14 -1 -9 26 4 18
11 69 16 113 11 93 42 243 48 227 1 -5 -4 -36 -12 -69z m265 68 c7 11 9 10 9
-3 0 -10 -7 -18 -15 -18 -8 0 -15 8 -14 18 0 12 2 13 6 3 5 -11 7 -11 14 0z
m-1751 -6 c0 -3 -7 -21 -14 -40 -10 -24 -22 -35 -35 -35 -26 0 -28 35 -4 62
15 16 53 26 53 13z m-950 -35 c0 -5 -8 -14 -18 -19 -14 -8 -18 -6 -19 10 -1
13 5 19 18 19 10 0 19 -4 19 -10z m-21 -54 c8 -10 9 -65 1 -212 -5 -110 -10
-249 -10 -310 0 -79 -4 -116 -14 -130 -14 -18 -16 -16 -40 36 -14 30 -26 60
-26 66 0 6 -7 17 -15 24 -53 44 -73 288 -34 415 30 98 101 155 138 111z m2940
-161 c16 -20 16 -20 -6 -1 -13 11 -23 26 -22 35 0 14 1 14 6 1 3 -8 13 -24 22
-35z m52 -38 c21 -33 39 -65 39 -71 0 -6 -16 16 -36 49 -20 33 -43 69 -52 79
-10 12 -11 16 -4 12 8 -5 32 -36 53 -69z m128 -330 c14 -74 20 -142 19 -215
l-1 -107 -7 135 c-7 120 -24 235 -46 295 -5 14 -4 17 4 10 6 -5 20 -59 31
-118z m66 -148 c2 -17 0 -43 -4 -57 -5 -19 -8 -9 -8 36 -1 64 8 79 12 21z
m-1310 -94 c26 -14 67 -42 91 -61 41 -34 44 -35 86 -23 44 12 198 7 327 -11
42 -6 69 -5 80 2 37 23 120 -48 107 -90 -10 -31 -79 -42 -265 -42 l-171 0 0
-31 c0 -24 -3 -30 -16 -25 -9 3 -22 6 -30 6 -8 0 -14 10 -14 25 0 14 -4 25 -9
25 -5 0 -7 8 -4 19 3 13 -11 32 -49 65 -62 55 -174 132 -203 139 -17 4 -16 5
5 7 24 2 24 3 -5 10 -29 7 -29 8 -4 9 14 0 48 -10 74 -24z m-1224 -340 l3
-130 7 105 c4 70 5 45 2 -75 -2 -99 -19 -443 -38 -765 -19 -322 -39 -675 -45
-785 -16 -311 -37 -482 -80 -655 -10 -41 -21 -88 -24 -104 -4 -15 -9 -26 -11
-24 -3 2 6 49 19 104 50 203 69 356 86 679 6 110 26 464 45 787 19 323 34 622
34 665 -1 52 -5 26 -10 -77 -4 -85 -22 -357 -38 -605 -17 -247 -38 -571 -46
-720 -9 -148 -22 -322 -30 -385 -18 -143 -68 -427 -72 -413 -2 6 7 73 21 149
38 212 54 354 71 654 9 151 29 471 45 710 42 625 53 854 47 1030 -4 114 -3
133 3 70 4 -47 9 -143 11 -215z m2526 223 c-3 -8 -6 -5 -6 6 -1 11 2 17 5 13
3 -3 4 -12 1 -19z m-40 -10 c-3 -8 -6 -5 -6 6 -1 11 2 17 5 13 3 -3 4 -12 1
-19z m-3230 -55 c-2 -16 -4 -5 -4 22 0 28 2 40 4 28 2 -13 2 -35 0 -50z m3453
52 c0 -9 -9 -15 -22 -14 -20 1 -20 2 -4 6 15 4 16 7 5 14 -11 7 -11 9 4 9 9 0
17 -7 17 -15z m-239 -105 c-5 -25 -9 -35 -10 -24 -1 28 11 92 16 79 1 -6 -1
-30 -6 -55z m-3195 11 c-11 -17 -25 -198 -41 -511 -21 -423 -52 -778 -91
-1035 -19 -123 -18 -118 -26 -131 -14 -22 -20 -91 -9 -98 6 -4 11 -12 11 -19
0 -6 -7 -2 -16 9 -15 18 -15 17 -10 -14 4 -21 -5 -79 -25 -155 -32 -126 -45
-162 -35 -92 5 29 4 34 -3 20 -5 -11 -10 -17 -10 -13 -1 9 78 338 86 358 9 24
10 29 27 135 39 257 70 612 91 1035 20 402 32 520 51 520 3 0 3 -4 0 -9z m4
-117 c-5 -54 -16 -245 -25 -424 -20 -418 -29 -520 -100 -1110 -8 -69 -15 -132
-16 -140 0 -8 -3 -10 -5 -4 -3 6 2 69 11 140 68 568 88 790 100 1099 11 297
31 552 41 542 2 -2 0 -48 -6 -103z m3614 -99 c56 -153 70 -215 50 -215 -9 0
-14 -11 -14 -28 0 -15 -4 -42 -9 -59 -8 -29 -6 -36 26 -70 57 -59 66 -92 53
-179 l-11 -73 43 -61 c41 -58 43 -65 41 -123 -4 -100 -21 -163 -53 -197 l-30
-32 38 6 c140 22 797 93 977 105 102 7 157 17 255 46 199 58 576 152 690 172
122 21 335 23 635 6 279 -16 458 -45 613 -97 38 -13 89 -27 113 -30 24 -4 100
-18 169 -32 l125 -25 145 29 c139 28 150 32 260 96 204 117 710 338 941 410
135 42 438 115 599 145 507 92 641 110 875 116 l170 4 -165 -9 c-253 -13 -401
-34 -880 -121 -268 -49 -588 -135 -785 -209 -91 -35 -130 -52 -307 -134 -31
-14 -59 -26 -63 -26 -15 0 -305 -145 -389 -194 -88 -52 -103 -57 -250 -86
l-156 -31 -122 25 c-68 14 -143 28 -167 32 -24 3 -75 17 -113 30 -155 52 -334
81 -613 97 -412 23 -587 14 -805 -43 -93 -24 -46 -19 125 15 96 19 173 26 295
29 l165 5 -155 -9 c-226 -12 -392 -44 -823 -161 -82 -23 -151 -38 -154 -35 -4
3 2 6 12 6 10 0 16 3 12 6 -8 8 -68 -6 -63 -14 2 -4 -6 -8 -17 -9 -299 -22
-619 -54 -986 -99 -112 -13 -206 -22 -208 -20 -2 2 11 25 31 50 27 35 36 58
41 103 3 32 8 72 11 89 4 26 -4 45 -42 99 l-46 68 12 78 c13 89 7 107 -54 174
-20 21 -36 44 -36 49 -1 15 -33 -51 -54 -109 -31 -89 -37 -127 -27 -190 l9
-60 1 72 c1 51 10 100 33 169 17 54 34 91 36 84 3 -7 22 -30 44 -51 l39 -37
-7 -64 c-7 -72 -28 -126 -70 -185 -31 -41 -37 -41 -62 2 -9 16 -11 17 -12 4 0
-9 9 -28 20 -42 11 -14 20 -33 19 -44 -1 -16 -2 -16 -7 2 -4 11 -15 32 -25 47
-33 48 -44 218 -17 253 4 6 14 30 21 55 7 25 22 61 32 80 14 24 21 62 24 120
5 79 2 92 -30 180 -40 109 -50 140 -44 140 2 0 24 -55 47 -121 41 -117 43
-125 38 -213 -3 -50 -2 -80 2 -66 5 14 8 44 9 68 1 26 5 41 11 37 22 -14 7 53
-45 198 -30 83 -54 166 -54 182 1 26 2 25 8 -10 4 -22 29 -98 55 -170z m-2857
-87 c-3 -8 -6 -5 -6 6 -1 11 2 17 5 13 3 -3 4 -12 1 -19z m9471 -45 c-10 -2
-28 -2 -40 0 -13 2 -5 4 17 4 22 1 32 -1 23 -4z m-8827 -50 c13 -16 12 -17 -3
-4 -17 13 -22 21 -14 21 2 0 10 -8 17 -17z m1960 -54 c-8 -38 -9 -40 -10 -12
-1 17 2 39 5 48 11 29 14 10 5 -36z m-585 -154 c-2 -16 -35 -44 -51 -45 -5 0
4 9 20 20 17 11 23 20 15 20 -13 0 -13 1 0 10 19 12 19 13 16 -5z m-119 -63
c-15 -10 -24 -22 -20 -27 5 -4 2 -5 -6 0 -11 6 -9 12 10 26 13 10 29 19 34 19
6 0 -2 -8 -18 -18z m-282 -83 c-22 -4 -62 -7 -90 -7 l-50 1 60 7 c33 4 74 7
90 7 24 1 22 -1 -10 -8z m-1392 -105 c101 -94 151 -129 223 -159 38 -15 102
-43 143 -62 41 -19 98 -41 126 -50 l51 -16 17 -75 c9 -42 15 -77 13 -79 -2 -3
-12 30 -22 71 -18 76 -18 76 -58 87 -23 6 -77 28 -121 49 -44 20 -113 49 -153
65 -76 28 -125 62 -231 161 l-64 58 8 -44 c7 -42 82 -368 106 -460 7 -25 16
-62 21 -83 l9 -38 25 20 c35 27 166 77 238 90 120 22 229 8 277 -35 22 -20 23
-18 7 44 -11 42 -13 45 -19 22 -7 -24 -7 -24 -8 5 -1 17 -4 40 -7 53 -4 13 -2
22 5 22 6 0 8 -7 4 -17 -4 -11 -3 -14 5 -9 8 5 10 2 6 -8 -3 -9 -2 -16 3 -16
8 0 33 -84 33 -111 0 -16 -20 -10 -57 19 -35 26 -41 27 -147 26 -93 0 -124 -5
-187 -27 -130 -44 -194 -96 -101 -82 30 5 27 2 -18 -14 -65 -24 -74 -25 -40
-6 24 14 22 17 -10 19 -19 1 -27 29 -105 360 -54 233 -62 276 -45 276 7 0 40
-25 73 -56z m2750 -70 c36 -56 47 -97 27 -109 -5 -3 -10 -29 -10 -57 0 -40 -7
-62 -30 -98 -17 -26 -38 -54 -48 -63 -17 -16 -265 -57 -342 -57 -44 0 -72 9
-65 20 3 5 -4 30 -16 57 -34 78 -68 173 -63 173 2 0 9 -12 15 -27 8 -22 12
-25 20 -13 8 11 9 10 4 -7 -4 -14 6 -54 27 -108 l33 -85 42 0 c81 0 316 40
335 57 10 9 31 37 48 63 23 36 30 58 30 96 0 28 5 55 11 61 15 15 5 40 -35 97
l-33 46 -24 -31 c-13 -17 -32 -45 -41 -62 -10 -17 -18 -25 -18 -17 0 20 70
120 84 120 6 0 28 -25 49 -56z m2717 -23 c134 -14 264 -36 360 -61 87 -23 50
-20 -60 4 -193 43 -270 50 -547 51 -149 0 -274 2 -276 5 -11 10 423 11 523 1z
m-521 -15 c-2 -2 -26 -6 -54 -9 -32 -4 -43 -3 -30 3 19 8 93 14 84 6z m-4451
-94 c2 -7 -3 -12 -12 -12 -9 0 -16 7 -16 16 0 17 22 14 28 -4z m5237 8 l-190
-5 230 -6 c202 -6 340 -21 416 -44 63 -20 160 -21 263 -4 61 10 112 16 115 13
3 -3 -12 -20 -34 -37 -22 -18 -71 -59 -110 -93 -39 -33 -102 -82 -140 -109
-39 -26 -83 -62 -98 -79 -16 -17 -24 -22 -19 -11 13 26 55 64 121 110 30 20
90 69 135 108 45 38 95 78 111 89 28 18 28 19 5 14 -150 -32 -271 -36 -349
-11 -76 24 -210 38 -401 41 -231 5 -274 9 -249 25 7 5 97 8 199 7 l185 -2
-190 -6z m-3463 -242 c16 -24 22 -25 140 -31 68 -4 166 -2 218 3 127 12 293
20 286 13 -10 -10 -324 -27 -476 -25 -141 2 -156 4 -172 22 -15 19 -79 207
-77 227 1 4 15 -35 33 -88 17 -52 39 -107 48 -121z m1768 147 c0 -10 -10 -15
-29 -15 -27 0 -175 -21 -499 -69 -74 -11 -200 -25 -280 -30 -81 -6 -218 -16
-306 -22 -87 -6 -166 -13 -175 -16 -14 -4 -14 -3 -1 5 8 6 87 15 175 21 88 6
226 16 307 22 80 5 206 19 280 30 313 47 472 69 495 69 14 0 21 4 18 10 -3 6
-1 10 4 10 6 0 11 -7 11 -15z m-690 -76 c-77 -13 -151 -16 -142 -8 7 8 78 15
157 16 34 0 32 -1 -15 -8z m-3623 -36 c-3 -10 -5 -4 -5 12 0 17 2 24 5 18 2
-7 2 -21 0 -30z m68 -173 c10 -30 33 -85 51 -122 39 -78 41 -91 16 -123 -43
-54 -74 21 -118 288 -8 54 -14 101 -11 103 2 2 10 -31 17 -73 23 -147 49 -263
66 -294 l16 -32 21 21 20 21 -31 68 c-54 117 -104 287 -101 341 1 9 9 -19 18
-63 10 -44 26 -105 36 -135z m372 14 c-3 -3 -12 -4 -19 -1 -8 3 -5 6 6 6 11 1
17 -2 13 -5z m-130 -51 c-3 -10 -5 -2 -5 17 0 19 2 27 5 18 2 -10 2 -26 0 -35z
m20 -5 c-3 -7 -5 -2 -5 12 0 14 2 19 5 13 2 -7 2 -19 0 -25z m5638 -120 c-11
-6 -33 -20 -49 -31 -16 -12 -26 -15 -22 -8 10 15 67 51 81 51 6 0 1 -6 -10
-12z m5 -24 c-25 -14 -53 -33 -63 -41 -9 -9 -20 -14 -23 -11 -6 7 105 78 121
78 5 0 -10 -12 -35 -26z m-151 -84 c-189 -169 -296 -403 -260 -564 7 -31 21
-66 32 -78 18 -22 18 -22 -1 22 -39 90 -23 235 41 361 45 91 199 273 215 256
4 -4 -1 -9 -10 -13 -25 -10 -150 -166 -190 -237 -51 -91 -69 -164 -64 -260 2
-65 8 -88 26 -114 27 -38 27 -43 3 -43 -13 0 -27 16 -43 48 -48 97 -23 272 59
412 36 61 228 270 249 270 5 0 -21 -27 -57 -60z m-5548 -65 c5 14 8 15 8 4 1
-19 -25 -56 -34 -48 -3 4 -3 20 2 35 6 24 8 26 11 9 l5 -20 8 20z m-1134 -67
c-3 -8 -6 -5 -6 6 -1 11 2 17 5 13 3 -3 4 -12 1 -19z m2593 -128 c0 -5 15 -17
32 -26 45 -23 490 -160 565 -173 91 -17 228 -66 275 -99 24 -17 117 -58 208
-92 197 -74 210 -79 325 -123 50 -19 200 -74 335 -122 135 -48 355 -130 490
-182 558 -216 823 -285 1195 -313 140 -10 529 -30 592 -30 23 0 33 -5 33 -15
0 -10 -10 -15 -30 -15 -53 0 -28 -24 50 -47 54 -16 88 -21 123 -16 27 3 47 2
47 -4 0 -5 -13 -8 -30 -5 -64 9 -16 -19 91 -54 30 -10 113 -18 230 -23 169 -7
175 -8 64 -9 -160 -2 -296 13 -345 38 -22 11 -46 20 -54 20 -8 0 -16 3 -18 8
-3 7 -97 35 -198 58 -51 11 -52 13 -20 15 34 2 33 2 -10 9 l-45 7 40 3 c22 1
54 6 70 10 l30 8 -30 1 c-877 34 -1075 71 -1710 316 -132 51 -330 125 -440
164 -592 212 -970 358 -1018 392 -43 31 -162 73 -252 90 -48 9 -275 75 -512
150 -18 6 -48 21 -68 35 -20 14 -35 19 -33 12 7 -21 77 -55 168 -83 96 -30
143 -49 98 -40 -16 3 -28 1 -28 -4 0 -10 28 -19 115 -40 22 -5 31 -9 20 -10
-11 -1 -54 8 -95 19 -106 29 -105 29 -92 42 9 9 -6 17 -60 35 -89 29 -138 59
-138 84 0 10 7 19 15 19 8 0 15 -4 15 -10z m-2725 -102 c-4 -33 -3 -37 4 -18
5 14 9 18 10 9 1 -21 -54 -180 -81 -233 -11 -22 -43 -68 -70 -102 -89 -110
-351 -314 -494 -384 -80 -40 -122 -53 -74 -24 l25 15 -30 -5 c-21 -4 -13 2 25
20 121 55 411 271 503 374 26 28 60 76 77 105 34 59 83 189 94 248 9 51 17 47
11 -5z m2812 -89 c32 -7 108 -13 170 -13 62 -1 104 -4 95 -8 -49 -19 -259 1
-327 31 -22 10 -51 31 -65 46 -21 24 -18 23 22 -8 30 -22 69 -40 105 -48z
m-57 -11 c25 -14 72 -31 105 -38 77 -17 257 -19 276 -4 8 7 34 14 59 18 53 7
49 5 -49 -24 -62 -19 -87 -21 -160 -16 -47 4 -115 14 -149 22 -67 15 -165 72
-177 102 -4 12 3 9 22 -9 15 -14 48 -37 73 -51z m-2080 18 c0 -2 -11 -6 -25
-8 -13 -3 -22 -1 -19 3 5 9 44 13 44 5z m2550 -71 c-16 -19 -7 -56 41 -178 22
-53 43 -114 48 -135 5 -20 23 -84 40 -142 17 -58 38 -129 47 -158 10 -35 30
-70 62 -105 189 -211 421 -505 422 -534 0 -7 -21 -14 -47 -18 -27 -3 -88 -12
-138 -20 -49 -7 -130 -16 -180 -19 -319 -17 -843 -227 -1166 -469 -47 -35 -91
-61 -97 -59 -13 4 -16 409 -3 467 3 16 4 -80 3 -213 -2 -133 -1 -242 2 -242 3
0 40 25 82 56 320 237 853 451 1167 470 85 5 291 31 339 42 l27 7 -62 87 c-57
79 -247 310 -358 433 -41 46 -49 64 -82 182 -49 175 -53 185 -75 179 -9 -2
-33 -8 -52 -11 -47 -10 -31 6 17 16 34 8 33 8 -12 4 -34 -2 -44 -1 -30 5 11 5
33 9 48 9 16 1 30 8 34 17 3 9 -11 59 -32 112 -66 171 -78 232 -44 232 8 0 8
-4 -1 -15z m-2423 -188 c1 -26 0 -28 -7 -12 -8 18 -9 17 -9 -7 -1 -15 -8 -48
-17 -74 -20 -59 -11 -69 10 -12 11 29 14 33 10 13 -3 -16 -22 -64 -42 -105
-29 -58 -58 -96 -132 -170 -143 -144 -379 -315 -401 -293 -7 7 21 33 87 78
283 198 428 360 465 520 12 50 26 95 31 95 2 0 4 -15 5 -33z m5961 -63 c33
-43 40 -64 21 -64 -10 0 -47 40 -78 83 -12 16 -12 20 0 28 8 4 16 5 20 1 3 -4
20 -26 37 -48z m-3723 -130 c-382 -31 -532 -47 -562 -59 -47 -20 -41 -27 8
-10 23 8 69 15 103 15 86 0 437 28 524 41 40 7 75 10 77 7 13 -13 -453 -58
-601 -58 -34 0 -81 -7 -104 -15 -52 -18 -50 -18 -50 -1 0 26 76 44 260 60 102
10 226 21 275 25 50 5 122 8 160 8 40 1 0 -5 -90 -13z m-645 -78 c-46 -63
-103 -99 -165 -102 l-50 -3 45 8 c75 12 128 50 175 124 10 15 20 26 22 23 3
-3 -9 -25 -27 -50z m2290 -189 c0 -8 -9 -40 -20 -73 -12 -32 -23 -86 -27 -119
-3 -33 -10 -67 -14 -77 -6 -12 3 -32 36 -77 89 -121 167 -243 235 -368 101
-184 86 -176 -21 12 -77 136 -234 375 -245 375 -11 0 2 -23 57 -100 63 -89
155 -238 229 -375 72 -135 27 -70 -71 100 -50 88 -122 203 -158 255 -112 159
-124 184 -117 242 12 92 71 218 101 218 8 0 15 -6 15 -13z m-3871 -184 c-1
-16 -5 -39 -9 -53 l-8 -25 -2 25 -2 25 -9 -25 c-7 -21 -8 -20 -4 9 3 18 5 42
5 52 0 11 7 19 15 19 10 0 15 -9 14 -27z m5956 -203 c13 -6 15 -9 5 -9 -8 0
-22 4 -30 9 -18 12 -2 12 25 0z m755 -5 c36 0 85 3 110 7 38 6 41 6 20 -4 -29
-13 -209 -16 -290 -4 -67 9 -58 -4 13 -21 l52 -12 -49 5 c-61 7 -76 13 -76 30
0 11 15 12 78 6 42 -4 106 -7 142 -7z m-697 -12 c-7 -2 -19 -2 -25 0 -7 3 -2
5 12 5 14 0 19 -2 13 -5z m854 1 c-3 -3 -12 -4 -19 -1 -8 3 -5 6 6 6 11 1 17
-2 13 -5z m-8587 -35 c0 -5 -4 -7 -10 -4 -13 8 -12 -2 6 -45 l14 -35 -5 34
c-7 49 -1 37 30 -54 14 -44 33 -91 42 -104 17 -26 6 -45 -20 -35 -11 4 -25 34
-38 78 -11 39 -27 91 -35 115 -18 56 -18 61 1 61 8 0 15 -5 15 -11z m5738
-284 c73 -125 80 -141 62 -130 -15 9 -13 5 25 -79 24 -52 36 -94 37 -129 1
-34 4 -19 8 43 6 94 6 94 8 24 1 -39 8 -138 16 -220 19 -200 27 -323 17 -264
-4 25 -14 118 -21 208 -7 89 -16 160 -18 157 -5 -4 11 -251 23 -370 3 -29 2
-35 -5 -20 -5 11 -9 47 -10 80 0 33 -9 143 -19 245 -20 212 -22 218 -145 428
-42 72 -76 135 -76 141 0 35 34 -4 98 -114z m-904 59 c3 -8 2 -12 -4 -9 -6 3
-10 10 -10 16 0 14 7 11 14 -7z m-526 -75 c-2 -6 -8 -10 -13 -10 -5 0 -11 4
-13 10 -2 6 4 11 13 11 9 0 15 -5 13 -11z m1520 -154 c-3 -3 -9 2 -12 12 -6
14 -5 15 5 6 7 -7 10 -15 7 -18z m22 -43 c0 -15 -2 -15 -10 -2 -13 20 -13 33
0 25 6 -3 10 -14 10 -23z m-4460 -67 c0 -8 -7 -15 -15 -15 -8 0 -15 7 -15 15
0 8 7 15 15 15 8 0 15 -7 15 -15z"/>
<path d="M3495 6130 c-98 -9 -201 -32 -219 -50 -6 -6 8 -4 32 4 107 38 373 44
796 19 82 -4 108 -3 105 6 -3 8 -49 13 -154 15 -83 2 -222 6 -310 9 -88 3
-200 2 -250 -3z"/>
<path d="M3900 5993 c57 -21 89 -29 84 -22 -2 4 -21 13 -42 19 -38 10 -68 13
-42 3z"/>
<path d="M3365 5930 c3 -5 8 -10 11 -10 2 0 4 5 4 10 0 6 -5 10 -11 10 -5 0
-7 -4 -4 -10z"/>
<path d="M3681 5969 c-46 -9 -87 -28 -166 -77 l-49 -30 40 -11 c21 -5 70 -11
108 -12 l69 -2 13 42 c17 57 39 89 66 94 17 3 16 4 -7 5 -16 0 -50 -4 -74 -9z"/>
<path d="M4209 5940 c30 -17 59 -29 64 -27 11 3 -59 42 -93 51 -14 4 -1 -7 29
-24z"/>
<path d="M4710 5763 c0 -5 9 -18 20 -28 11 -10 20 -14 20 -8 0 5 -9 18 -20 28
-11 10 -20 14 -20 8z"/>
<path d="M3257 5641 c-31 -29 -39 -43 -31 -51 8 -8 22 2 54 39 50 61 37 67
-23 12z"/>
<path d="M4921 5373 c0 -12 -4 -30 -7 -40 -5 -17 -5 -17 6 0 6 10 9 28 7 40
-4 22 -4 22 -6 0z"/>
<path d="M3427 5642 c-10 -10 -17 -24 -17 -30 0 -22 19 -12 35 18 17 33 7 40
-18 12z"/>
<path d="M2418 5546 c-52 -51 -71 -131 -67 -277 4 -107 6 -119 41 -189 20 -41
44 -92 53 -112 9 -21 21 -36 25 -33 4 2 11 123 16 267 12 389 13 372 -12 376
-12 2 -34 -10 -56 -32z"/>
<path d="M4330 4805 c0 -2 15 -12 32 -21 40 -21 132 -88 175 -128 23 -21 34
-42 39 -73 6 -39 23 -61 25 -30 0 6 4 3 9 -8 8 -17 9 -16 9 9 1 21 -3 27 -15
22 -8 -3 -13 -2 -9 3 3 5 90 10 193 11 241 1 292 15 262 70 -14 27 -80 57 -89
41 -6 -8 -25 -9 -77 -2 -133 18 -287 24 -332 11 -43 -11 -45 -10 -95 28 -67
50 -127 82 -127 67z m590 -121 c106 -5 131 -17 109 -52 -7 -11 -26 -23 -42
-26 -34 -7 -421 -6 -394 1 9 2 15 9 11 14 -3 5 -11 6 -17 3 -7 -4 -9 -4 -5 0
4 5 -5 18 -19 30 -17 15 -23 27 -18 36 6 10 36 11 144 6 75 -5 179 -10 231
-12z"/>
<path d="M4550 4682 c0 -7 4 -12 9 -12 5 0 23 -14 40 -31 l31 -30 184 3 c192
3 223 10 201 44 -7 11 -34 16 -100 18 -49 2 -152 7 -227 12 -102 5 -138 4
-138 -4z"/>
<path d="M2211 2674 c-13 -52 -21 -97 -19 -99 2 -3 15 38 27 91 13 52 21 97
19 99 -2 3 -15 -38 -27 -91z"/>
<path d="M6017 3899 c-31 -92 -37 -202 -12 -235 15 -19 15 -18 36 6 37 44 66
113 73 176 l7 60 -39 36 -39 36 -26 -79z"/>
<path d="M7616 3532 c-115 -31 -205 -57 -199 -59 9 -3 361 86 423 107 20 7 21
8 5 8 -11 1 -114 -25 -229 -56z"/>
<path d="M5050 2490 c0 -5 7 -10 15 -10 8 0 15 5 15 10 0 6 -7 10 -15 10 -8 0
-15 -4 -15 -10z"/>
<path d="M2121 2439 c-7 -24 -31 -82 -52 -128 -34 -72 -53 -99 -132 -176 -105
-103 -293 -248 -405 -312 -42 -23 -70 -43 -62 -43 25 0 145 75 268 167 140
105 290 251 321 313 31 60 82 201 78 213 -1 5 -9 -10 -16 -34z"/>
<path d="M2861 1969 c-61 -104 -253 -280 -434 -398 -37 -24 -66 -46 -63 -48 6
-7 138 80 216 141 165 130 262 232 300 314 30 64 21 59 -19 -9z"/>
<path d="M8860 2142 c0 -7 16 -29 35 -50 45 -48 45 -29 0 22 -19 22 -35 34
-35 28z"/>
<path d="M6803 1708 c-27 -31 -72 -144 -78 -192 -6 -43 -3 -58 15 -89 23 -39
40 -45 20 -7 -7 13 -8 26 -2 33 5 7 12 39 15 72 4 33 15 87 27 120 21 62 22
87 3 63z"/>
<path d="M2942 1525 c0 -16 2 -22 5 -12 2 9 2 23 0 30 -3 6 -5 -1 -5 -18z"/>
<path d="M1251 1189 c-1 -22 29 -122 41 -136 6 -7 15 -13 20 -13 7 0 7 4 0 13
-5 6 -21 44 -35 82 -14 39 -26 63 -26 54z"/>
<path d="M6898 1092 c15 -38 127 -222 130 -214 1 5 -27 59 -63 121 -61 104
-84 135 -67 93z"/>
<path d="M6027 4793 c-3 -54 -9 -109 -12 -123 -6 -22 -5 -23 5 -6 12 18 28
226 18 226 -3 0 -8 -44 -11 -97z"/>
<path d="M5738 4663 c7 -3 16 -2 19 1 4 3 -2 6 -13 5 -11 0 -14 -3 -6 -6z"/>
<path d="M5696 4332 c5 -4 26 -23 48 -42 28 -26 35 -29 27 -13 -12 24 -58 63
-74 63 -7 0 -7 -3 -1 -8z"/>
<path d="M5872 4268 c-12 -26 -19 -54 -16 -63 5 -12 12 0 25 37 25 69 18 86
-9 26z"/>
<path d="M3970 4060 c-13 -8 -12 -10 3 -10 9 0 17 5 17 10 0 12 -1 12 -20 0z"/>
<path d="M4906 3831 c-13 -5 -16 -10 -8 -15 15 -9 63 4 56 15 -6 11 -21 11
-48 0z"/>
<path d="M3415 1969 c51 -10 92 -10 50 1 -16 4 -43 8 -60 8 -25 0 -24 -2 10
-9z"/>
<path d="M3605 1940 c33 -5 156 -12 274 -16 l214 -7 61 -33 c62 -32 144 -60
153 -50 3 2 -15 10 -38 16 -24 6 -69 26 -99 43 -55 31 -56 31 -250 38 -107 4
-235 9 -285 12 -74 4 -79 3 -30 -3z"/>
<path d="M6672 1403 c54 -57 196 -383 272 -622 72 -229 125 -569 111 -713 -5
-47 -4 -68 4 -68 14 0 15 185 1 300 -30 246 -92 477 -202 750 -103 254 -169
380 -200 380 -7 0 0 -12 14 -27z"/>
<path d="M1493 1139 c2 -50 -2 -62 -28 -95 -17 -22 -48 -68 -69 -103 l-39 -64
-18 -221 c-11 -121 -31 -302 -45 -401 -14 -99 -29 -197 -31 -218 -4 -24 -2
-37 6 -37 6 0 11 4 11 9 0 5 11 85 25 178 22 157 55 520 55 623 0 45 31 104
122 236 25 36 26 43 18 94 l-9 55 2 -56z"/>
<path d="M6120 968 c0 -3 20 -48 45 -101 92 -197 125 -378 125 -683 0 -157 2
-184 15 -184 18 0 18 4 5 239 -15 276 -49 437 -130 622 -36 83 -60 125 -60
107z"/>
</g>
</svg>
