<?xml version="1.0" standalone="no"?>
<!DOCTYPE svg PUBLIC "-//W3C//DTD SVG 20010904//EN"
 "http://www.w3.org/TR/2001/REC-SVG-20010904/DTD/svg10.dtd">
<svg version="1.0" xmlns="http://www.w3.org/2000/svg"
 width="1280.000000pt" height="720.000000pt" viewBox="0 0 1280.000000 720.000000"
 preserveAspectRatio="xMidYMid meet">
<metadata>
Created by potrace 1.16, written by Peter Selinger 2001-2019
</metadata>
<g transform="translate(0.000000,720.000000) scale(0.100000,-0.100000)"
fill="#000000" stroke="none">
<path d="M0 3675 c0 -1939 2 -3525 4 -3525 2 0 20 41 41 92 21 51 59 126 83
168 155 261 227 424 299 675 18 64 33 82 104 131 62 42 79 83 89 217 5 62 10
117 10 122 1 6 -3 51 -9 100 -26 220 7 329 118 388 53 28 91 35 274 47 445 29
691 62 770 103 69 36 140 178 211 417 30 101 106 352 150 495 8 28 34 131 56
230 40 175 52 250 65 425 6 75 33 263 95 645 27 165 67 483 80 640 6 72 15
168 20 215 5 47 16 209 25 360 20 355 28 436 60 600 56 293 154 613 237 775
42 81 87 155 112 183 l19 22 -1456 0 -1457 0 0 -3525z"/>
<path d="M2887 7148 c-54 -74 -160 -295 -201 -418 -76 -230 -148 -551 -166
-740 -5 -52 -16 -219 -25 -370 -9 -151 -20 -313 -25 -360 -5 -47 -14 -143 -20
-215 -13 -157 -53 -475 -80 -640 -55 -342 -90 -578 -96 -650 -13 -172 -24
-247 -64 -420 -36 -162 -68 -276 -160 -575 -16 -52 -39 -126 -50 -165 -27 -88
-61 -187 -70 -200 -4 -5 -14 -31 -23 -56 -30 -80 -71 -134 -118 -157 -86 -40
-338 -74 -776 -102 -184 -12 -221 -19 -273 -51 -57 -35 -83 -70 -106 -142 -16
-52 -17 -69 -6 -190 7 -72 12 -136 12 -142 -4 -69 -20 -227 -25 -250 -12 -46
-40 -80 -96 -115 -54 -36 -80 -78 -99 -164 -15 -69 -80 -255 -103 -296 -11
-19 -38 -71 -60 -115 -22 -43 -69 -129 -104 -190 -92 -158 -153 -306 -153
-372 l0 -53 679 0 679 0 6 28 c8 39 23 174 41 362 13 146 40 324 66 445 16 75
-1 -62 -21 -170 -10 -55 -24 -156 -30 -225 -15 -165 -39 -378 -46 -412 -4 -20
-2 -28 9 -28 15 0 24 62 52 370 25 268 55 504 63 496 2 -3 -3 -61 -12 -128
-23 -171 -23 -177 -46 -418 -11 -118 -23 -239 -26 -268 l-7 -52 727 0 727 0
-8 63 c-12 94 -8 353 6 432 23 121 60 278 83 345 20 59 62 140 72 140 8 0 -2
-71 -12 -83 -19 -23 -50 -165 -84 -377 -14 -93 -18 -397 -5 -473 l8 -47 1703
0 1704 0 6 31 c21 108 -12 473 -55 605 -11 34 -35 122 -53 195 -18 74 -45 160
-60 192 -33 72 -34 100 -2 32 30 -62 33 -53 6 15 -11 28 -17 49 -12 46 12 -7
73 -177 137 -381 76 -242 99 -377 100 -577 l0 -158 954 0 953 0 -6 53 c-3 28
-8 83 -12 121 -6 62 -11 74 -57 135 -28 36 -75 93 -106 127 -66 71 -167 208
-206 279 -35 61 -69 195 -146 573 -33 161 -69 319 -80 350 -32 92 -32 92 -17
92 18 0 143 -34 258 -72 144 -46 148 -47 405 -69 282 -24 377 -25 455 -3 57
16 57 16 111 -11 30 -15 65 -35 79 -45 42 -28 233 -108 275 -115 22 -4 74 -14
115 -22 96 -19 413 -18 508 2 36 7 70 12 76 10 6 -2 88 -9 181 -15 178 -12
320 -40 476 -96 124 -45 210 -72 299 -94 47 -12 126 -33 175 -47 104 -30 120
-34 435 -108 129 -30 280 -68 335 -84 150 -44 392 -97 551 -121 141 -21 397
-33 388 -18 -3 4 -20 8 -37 8 -18 0 -54 7 -81 15 -26 8 -118 24 -205 35 -196
26 -499 83 -611 115 -47 13 -193 49 -325 79 -132 31 -303 73 -380 95 -77 21
-196 53 -265 70 -69 18 -154 43 -190 57 -76 31 -275 88 -364 106 -41 8 -198
12 -481 13 -541 1 -577 7 -841 130 -138 64 -155 69 -263 62 -100 -7 -215 1
-491 33 -158 19 -197 28 -440 104 -25 8 -106 31 -180 51 -74 20 -175 50 -225
67 -122 40 -348 109 -470 143 -55 16 -176 55 -270 88 -93 33 -240 83 -325 112
-181 62 -351 129 -385 151 -28 18 -189 81 -342 134 -99 34 -241 67 -327 75
-74 8 -385 271 -472 400 -19 27 -34 45 -34 39 0 -15 53 -93 92 -136 18 -20 66
-65 107 -100 149 -128 145 -124 131 -133 -8 -5 -11 -4 -7 2 4 6 -10 22 -31 35
-64 43 -267 250 -292 300 -21 40 -29 47 -64 52 -38 7 -288 112 -424 179 -35
17 -82 47 -106 68 l-42 37 -94 -9 c-92 -9 -248 -43 -262 -57 -3 -4 0 -54 8
-112 8 -58 12 -111 9 -118 -3 -8 3 -36 12 -64 14 -43 14 -58 4 -96 -6 -25 -21
-58 -32 -73 -34 -48 -179 -135 -279 -168 -70 -23 -74 -31 -114 -226 -20 -99
-36 -185 -36 -191 0 -7 23 -14 53 -17 229 -21 698 -110 757 -142 100 -55 202
-98 241 -103 61 -6 102 9 169 59 30 23 82 55 114 70 62 29 70 31 251 49 61 6
166 22 235 35 69 13 161 29 205 35 111 15 105 10 84 72 -9 29 -23 94 -30 143
-12 92 -21 115 -45 115 -7 0 -25 5 -41 12 -15 6 -34 10 -41 9 -28 -5 -122 32
-243 95 -14 7 -51 23 -83 35 -42 15 -54 24 -45 30 12 7 12 9 0 9 -8 0 -12 2
-9 5 6 6 119 -32 132 -45 5 -5 -14 0 -44 11 -29 11 -57 18 -62 17 -16 -6 125
-61 155 -61 16 0 24 -3 17 -7 -15 -9 124 -72 169 -76 20 -2 58 -11 86 -21 l49
-19 14 -98 c7 -55 21 -123 31 -153 13 -38 15 -56 7 -62 -6 -5 -49 -14 -96 -20
-47 -7 -141 -23 -210 -36 -69 -13 -174 -29 -235 -35 -158 -16 -197 -21 -193
-25 9 -9 256 18 453 49 286 46 293 47 275 36 -8 -5 -26 -10 -39 -10 -13 0
-119 -16 -235 -35 -116 -19 -264 -39 -328 -44 -126 -11 -160 -23 -251 -88 -27
-19 -51 -33 -53 -30 -5 5 89 69 141 96 22 11 34 20 27 21 -37 1 -182 -96 -182
-121 0 -33 -48 -54 -125 -54 -60 0 -81 5 -148 38 -43 20 -81 37 -84 37 -4 0
-17 10 -29 21 -13 12 -40 25 -61 29 -21 5 -96 22 -168 39 -71 16 -182 37 -245
46 -63 8 -154 22 -201 30 -151 26 -143 30 -168 -77 -12 -51 -37 -170 -56 -263
-39 -195 -50 -232 -77 -262 -12 -13 -33 -73 -52 -155 -18 -73 -50 -190 -71
-260 -21 -70 -36 -130 -33 -133 3 -3 25 -1 49 4 113 27 426 7 639 -39 52 -11
125 -27 163 -36 161 -35 362 -115 515 -205 45 -27 89 -49 97 -49 19 0 19 75 0
270 -19 190 -20 307 -2 307 14 0 33 -138 59 -424 l12 -129 30 11 c17 6 65 27
106 47 41 20 93 41 115 48 22 7 85 34 140 61 150 71 234 109 285 129 122 48
665 159 778 160 17 0 32 4 32 8 0 28 -198 313 -334 480 -108 132 -140 185
-166 271 -24 80 -48 194 -55 256 l-4 40 8 -35 c5 -19 16 -71 25 -115 37 -185
63 -236 202 -407 108 -133 186 -240 270 -372 77 -119 79 -136 20 -136 -43 0
-260 -35 -381 -61 -324 -69 -341 -75 -655 -219 -69 -32 -136 -61 -150 -65 -14
-4 -52 -20 -85 -35 -144 -67 -174 -80 -183 -80 -5 0 -12 42 -16 92 -8 116 -46
451 -52 457 -9 9 -3 -150 11 -289 8 -80 15 -175 15 -212 0 -64 -1 -68 -23 -68
-12 0 -69 27 -126 60 -57 33 -133 71 -170 85 -36 14 -84 34 -106 45 -48 22
-124 45 -220 66 -340 75 -453 89 -655 81 -80 -3 -157 -9 -172 -12 -37 -10 -37
2 7 145 20 63 52 180 71 260 21 88 43 153 54 165 26 28 37 60 60 178 11 56 37
177 57 270 l37 167 34 0 c19 0 73 -7 121 -15 47 -8 138 -22 201 -30 63 -9 174
-30 245 -46 72 -17 147 -34 167 -38 20 -5 50 -17 65 -27 69 -45 209 -104 250
-104 45 0 123 26 123 41 0 12 -1 12 -46 -7 -66 -28 -137 -15 -251 46 -54 28
-129 60 -168 70 -156 41 -517 104 -677 118 -51 4 -58 7 -58 26 1 29 75 384 82
391 3 3 42 21 86 39 109 46 229 123 263 170 38 52 45 94 24 155 -9 28 -14 55
-10 61 3 6 1 45 -4 88 -6 42 -13 94 -16 114 l-5 37 67 20 c66 20 149 34 264
45 51 5 58 3 80 -20 13 -14 49 -40 79 -58 72 -43 415 -194 460 -202 19 -4 41
-11 48 -17 8 -6 12 -5 12 4 0 24 -66 60 -288 158 -50 23 -95 41 -98 41 -3 0
-33 14 -67 31 -109 53 -175 131 -253 297 -25 54 -49 105 -55 115 -5 9 -6 29
-3 42 3 14 2 38 -4 53 -6 15 -27 81 -48 147 -20 66 -44 131 -54 145 -10 14
-32 70 -50 125 -17 55 -38 112 -46 127 -8 15 -14 33 -13 40 0 7 4 4 8 -6 6
-15 9 -16 13 -5 3 8 -6 50 -19 92 -24 73 -24 80 -10 122 17 52 5 60 -19 13
-20 -39 -12 -171 15 -233 29 -68 45 -135 34 -146 -10 -10 -37 2 -163 77 -88
52 -227 193 -265 269 l-30 60 -1 230 c0 127 -6 336 -14 467 -12 210 -11 253 3
390 9 84 19 216 22 293 5 135 12 176 80 490 8 39 20 89 26 112 l11 43 74 -7
c67 -5 74 -4 74 12 0 42 54 237 67 242 7 3 41 -7 75 -21 l61 -27 27 26 c32 31
37 31 91 0 24 -14 54 -25 67 -25 12 0 54 25 94 55 39 30 79 55 87 55 23 -1
221 -239 221 -266 0 -3 21 -35 47 -72 25 -37 56 -80 67 -97 38 -54 99 -128
178 -215 43 -47 108 -129 145 -182 64 -90 147 -188 159 -188 3 0 25 -16 49
-35 48 -40 88 -68 230 -163 118 -79 154 -114 299 -287 75 -89 119 -153 142
-202 18 -39 40 -75 48 -80 31 -17 58 -321 36 -408 -4 -16 -5 11 -2 62 6 121
-19 333 -40 333 -6 0 -8 -10 -4 -22 3 -13 8 -41 11 -63 3 -22 -3 -6 -14 37
-29 122 -68 191 -187 333 -145 173 -181 208 -299 287 -142 95 -182 123 -230
163 l-43 35 -11 -28 c-10 -26 -11 -25 -5 8 4 26 3 31 -5 20 -19 -28 -13 -87
11 -104 12 -9 24 -13 27 -11 3 3 -5 12 -17 21 -12 8 -22 20 -22 26 0 6 11 1
25 -12 27 -25 33 -50 12 -50 -42 0 -72 83 -47 129 7 14 3 24 -21 47 -17 16
-63 74 -102 129 -39 55 -104 138 -146 184 -112 123 -163 189 -249 317 -21 32
-60 91 -87 131 -43 65 -158 204 -175 211 -3 1 -38 -22 -78 -53 -83 -64 -113
-69 -181 -30 -43 25 -44 25 -65 7 -36 -33 -43 -33 -108 -7 -52 21 -65 23 -73
12 -5 -8 -21 -61 -33 -118 -13 -57 -26 -110 -28 -118 -4 -11 -19 -13 -73 -8
-80 7 -73 15 -102 -118 -73 -336 -79 -373 -84 -510 -3 -77 -13 -209 -22 -293
-14 -137 -15 -180 -3 -390 8 -131 14 -340 14 -467 l1 -230 34 -60 c45 -77 178
-210 261 -259 139 -83 150 -88 150 -74 0 17 -24 93 -43 138 -22 51 -32 180
-17 224 14 43 84 106 117 106 49 0 119 -49 230 -161 152 -155 223 -256 192
-275 -5 -3 -16 0 -24 6 -26 21 -15 -16 36 -128 11 -24 29 -69 40 -100 41 -116
51 -133 71 -126 11 3 35 -2 54 -11 24 -11 47 -15 74 -10 22 4 64 0 102 -9 153
-36 290 -42 353 -15 12 5 -20 7 -80 4 l-100 -4 75 10 c41 5 91 7 110 4 35 -5
92 9 164 40 30 13 41 14 50 4 8 -9 8 -10 -1 -5 -7 4 -13 2 -13 -4 0 -6 -4 -9
-9 -6 -5 3 -23 1 -41 -5 -22 -8 -28 -15 -21 -22 7 -7 31 -2 76 18 46 19 62 30
53 36 -19 12 -30 11 -22 -3 5 -7 3 -8 -6 -3 -10 6 -9 11 5 22 11 7 24 13 29
13 6 0 5 -4 -2 -9 -22 -13 13 -22 43 -11 46 18 285 192 325 237 47 53 111 148
108 160 -1 4 17 46 39 93 23 47 49 114 59 150 10 36 26 77 37 92 12 15 17 35
14 47 -3 12 -1 19 4 15 5 -3 9 14 8 38 0 50 -8 38 -34 -56 -9 -32 -18 -56 -20
-54 -2 2 2 26 10 53 9 28 13 63 9 82 -4 20 -2 33 4 33 6 0 8 -10 6 -22 -3 -15
2 -11 11 10 13 28 14 44 5 90 -6 31 -12 103 -14 160 -3 88 -1 106 15 125 10
12 18 17 19 11 0 -6 -6 -17 -14 -23 -15 -13 -14 -179 3 -266 12 -66 7 -203 -9
-240 -7 -16 -12 -37 -11 -46 1 -9 -5 -19 -13 -22 -8 -3 -20 -25 -26 -49 -6
-24 -29 -82 -50 -130 -22 -47 -40 -92 -40 -98 0 -16 -63 -109 -110 -163 -66
-75 -279 -217 -406 -270 -145 -61 -242 -87 -253 -68 -6 10 -21 11 -58 6 -53
-7 -177 7 -280 31 -35 8 -78 12 -100 8 -26 -4 -52 0 -77 10 -21 9 -48 13 -61
10 -20 -5 -25 1 -43 48 -11 29 -23 64 -27 78 -4 14 -20 52 -35 85 -15 33 -31
71 -35 85 -4 14 -12 30 -17 37 -5 6 -8 20 -6 31 2 11 -24 52 -64 103 -77 96
-281 299 -300 299 -25 0 -76 -57 -88 -96 -10 -34 -8 -49 13 -114 14 -42 22
-81 17 -89 -8 -15 60 -228 84 -263 23 -33 117 -332 115 -365 -2 -30 81 -212
130 -284 68 -101 118 -135 321 -222 136 -59 270 -123 293 -140 9 -8 17 -20 17
-27 0 -7 20 -41 45 -75 78 -109 398 -375 457 -380 102 -9 352 -75 453 -121 17
-7 67 -27 113 -44 46 -16 102 -41 125 -54 50 -29 179 -80 372 -146 77 -26 217
-74 310 -107 94 -33 215 -72 270 -88 122 -34 348 -103 470 -143 50 -17 151
-47 225 -67 74 -20 207 -59 295 -86 130 -40 191 -53 325 -69 276 -32 391 -40
487 -33 100 6 158 -4 228 -42 105 -56 246 -108 350 -128 100 -19 149 -21 530
-22 283 -1 440 -5 481 -13 93 -19 302 -79 369 -107 33 -13 116 -38 185 -56 69
-17 188 -49 265 -70 77 -22 248 -64 380 -95 132 -30 278 -66 325 -79 111 -32
415 -89 610 -114 85 -12 171 -26 190 -32 19 -5 59 -14 88 -18 l52 -8 0 1655 0
1655 -277 -7 c-268 -6 -558 -26 -579 -38 -29 -19 -313 -83 -559 -128 -282 -51
-571 -119 -700 -163 -93 -32 -287 -118 -465 -205 -80 -39 -174 -83 -210 -97
-36 -15 -97 -42 -137 -61 -86 -41 -110 -45 -34 -5 32 17 49 31 43 35 -15 9
-80 -29 -220 -129 -62 -45 -151 -100 -197 -123 -74 -37 -89 -41 -117 -33 -18
5 -25 10 -16 10 9 1 25 4 35 7 15 5 15 4 3 -5 -24 -17 10 -14 40 5 23 14 23
14 3 9 -38 -10 -26 2 34 36 32 18 110 72 174 119 138 103 362 221 382 201 9
-10 8 -11 -7 -5 -13 5 -17 4 -12 -4 3 -6 1 -14 -5 -18 -8 -4 -9 -3 -5 4 12 20
-4 14 -123 -49 -64 -33 -159 -93 -212 -133 -52 -40 -121 -87 -153 -105 -31
-18 -55 -35 -52 -38 8 -8 102 49 226 137 96 68 295 183 237 136 -24 -19 -6
-29 30 -15 45 17 154 67 383 177 344 165 552 227 1076 322 247 45 425 85 534
121 60 19 313 38 603 45 l277 7 0 25 0 25 -257 -6 c-425 -9 -687 -42 -1128
-140 -60 -13 -141 -30 -180 -37 -304 -53 -567 -145 -898 -311 -131 -66 -143
-70 -219 -74 -75 -4 -351 22 -493 46 -81 14 -199 38 -216 44 -23 8 -261 36
-266 32 -2 -3 38 -12 89 -21 51 -10 165 -32 253 -51 204 -43 303 -54 491 -57
84 -2 147 -6 140 -11 -13 -9 -255 0 -381 14 -49 6 -162 26 -250 44 -193 41
-273 55 -294 54 -9 -1 7 -7 34 -14 l50 -12 -60 -8 c-32 -4 -134 -4 -225 1
-391 21 -661 8 -980 -47 -63 -11 -141 -24 -172 -30 -31 -5 -85 -18 -120 -28
-225 -67 -444 -93 -1023 -120 -493 -24 -526 -24 -600 -7 -117 28 -211 67 -307
129 -75 48 -48 44 34 -5 91 -55 182 -93 273 -114 74 -17 109 -16 600 7 579 27
798 53 1023 120 35 10 89 23 120 28 31 6 109 19 172 30 320 55 544 66 1015 49
187 -7 197 -7 150 7 -130 39 -549 58 -791 35 -149 -15 -338 -51 -594 -115
-188 -47 -236 -55 -380 -65 -91 -6 -185 -13 -210 -15 -25 -2 -157 -11 -295
-20 -137 -8 -332 -23 -432 -31 -201 -18 -319 -11 -446 25 -75 22 -290 111
-283 118 2 3 44 -13 93 -35 227 -102 359 -123 638 -98 99 8 293 23 430 31 138
9 270 18 295 20 25 2 119 9 210 15 144 10 192 18 380 65 256 64 445 100 594
115 156 14 448 12 611 -5 164 -18 154 -17 135 -5 -11 7 -11 10 -2 10 7 0 11 4
8 8 -3 5 16 5 42 1 26 -5 92 -15 147 -24 55 -8 120 -19 145 -24 180 -40 533
-82 641 -77 70 4 85 9 225 79 310 155 601 255 899 307 39 7 120 24 180 37 441
98 703 131 1128 140 l257 6 0 1493 0 1494 -3486 0 -3485 0 6 -22 c4 -13 19
-38 34 -57 142 -181 211 -297 265 -451 70 -196 112 -484 103 -709 -6 -162 -44
-348 -93 -458 -8 -17 -23 -73 -33 -125 -11 -51 -32 -133 -46 -183 l-26 -90 22
-50 c93 -213 107 -275 90 -395 -7 -49 -9 -94 -6 -100 10 -16 32 -194 40 -320
6 -93 4 -110 -14 -153 l-21 -48 21 -57 c35 -97 69 -225 69 -263 0 -70 -64 -79
-75 -11 -4 20 -13 70 -21 111 -8 40 -14 90 -14 110 0 20 -9 53 -20 74 l-21 38
26 53 c28 58 28 43 -2 367 -3 36 -2 69 3 72 5 3 9 -18 9 -46 0 -29 6 -120 13
-202 l13 -150 -27 -48 c-24 -45 -25 -49 -10 -66 10 -11 20 -50 26 -97 16 -135
38 -236 51 -245 8 -4 19 -3 27 4 22 18 9 101 -38 238 l-42 122 22 47 c20 44
22 57 15 151 -4 57 -14 151 -22 209 -18 123 -19 149 -8 251 7 71 5 84 -23 165
-31 92 -52 144 -79 203 -14 32 -14 39 15 140 17 58 33 122 37 141 13 71 38
165 45 175 10 14 47 139 66 226 37 172 28 468 -22 699 -34 156 -58 227 -117
345 -57 115 -100 183 -174 272 -28 35 -57 80 -63 99 l-12 34 -1446 0 -1447 0
-38 -52z m1318 -950 c83 -11 197 -23 255 -27 86 -5 105 -9 108 -22 4 -23 -29
-29 -91 -19 -340 60 -726 76 -862 36 -11 -4 -6 1 10 9 l30 16 -27 -4 c-15 -2
-25 -1 -23 4 4 6 56 17 165 33 53 8 292 -6 435 -26z m-38 -78 c87 -10 199 -44
226 -68 26 -24 12 -26 -20 -3 -68 49 -297 87 -408 67 -95 -17 -247 -65 -240
-76 5 -8 25 -4 80 15 20 7 20 6 1 -9 -11 -9 -25 -16 -32 -16 -15 0 -82 -38
-105 -60 -9 -8 -30 -23 -48 -32 -18 -10 -29 -22 -26 -28 8 -13 35 -13 35 0 0
5 -8 7 -17 4 -17 -5 -17 -5 -1 5 13 9 36 6 95 -10 43 -12 96 -26 118 -31 77
-19 618 12 643 37 4 4 -26 4 -65 1 l-73 -5 0 28 c0 40 -34 79 -81 91 -39 11
-55 40 -21 40 13 0 14 -2 3 -9 -10 -6 -3 -12 23 -21 21 -7 40 -9 43 -6 4 3 0
6 -8 6 -10 1 -8 4 4 11 10 6 21 8 24 5 4 -3 0 -6 -7 -6 -9 0 -7 -5 6 -15 10
-8 33 -15 50 -15 19 0 34 -6 38 -15 3 -8 1 -15 -4 -15 -6 0 -10 5 -10 10 0 6
-15 10 -33 10 l-33 0 10 -44 10 -44 68 5 c57 4 68 2 68 -11 0 -9 -1 -16 -2
-16 -2 0 -57 -7 -123 -15 -66 -9 -203 -18 -305 -21 -190 -6 -185 -7 -350 36
-22 6 -39 5 -47 -1 -6 -6 -24 -9 -40 -7 -40 4 -42 34 -3 56 49 27 65 40 59 47
-4 3 -22 -4 -42 -15 l-35 -21 5 21 c14 54 358 168 460 154 18 -3 68 -9 110
-14z m-87 -71 c-25 -4 -60 -8 -78 -8 -19 -1 -72 -20 -118 -42 -47 -23 -87 -39
-90 -37 -2 3 31 22 73 43 74 36 145 52 223 52 32 0 31 0 -10 -8z m56 -8 c-3
-4 -18 -11 -34 -14 -32 -6 -62 -45 -72 -92 -6 -30 -7 -30 -71 -29 -58 0 -177
30 -166 40 2 3 24 -2 48 -11 24 -8 74 -18 110 -22 l66 -6 7 39 c8 52 35 84 77
94 19 4 35 8 37 9 2 1 1 -3 -2 -8z m224 -1 c8 -5 11 -10 5 -10 -5 0 -17 5 -25
10 -8 5 -10 10 -5 10 6 0 17 -5 25 -10z m129 -16 c72 -29 121 -62 121 -81 0
-18 -17 -16 -48 6 -38 26 -109 61 -124 61 -9 0 -9 -3 2 -10 8 -5 10 -10 4 -10
-6 0 -18 8 -25 17 -8 9 -9 14 -4 11 6 -3 19 -2 30 3 16 6 17 8 3 8 -9 1 -20 6
-23 11 -9 14 -7 13 64 -16z m-49 -59 c7 -8 16 -12 21 -9 5 3 9 0 9 -5 0 -18
-26 -12 -45 9 -10 11 -13 20 -8 20 6 0 16 -7 23 -15z m80 -32 c0 -7 -5 -13
-11 -13 -5 0 -8 4 -4 9 3 5 -2 16 -10 24 -22 23 -18 33 5 12 11 -10 20 -24 20
-32z m-250 12 c0 -8 -7 -15 -15 -15 -8 0 -15 7 -15 15 0 8 7 15 15 15 8 0 15
-7 15 -15z m-540 -11 c0 -9 -5 -14 -12 -12 -18 6 -21 28 -4 28 9 0 16 -7 16
-16z m-90 -156 c-1 -7 -20 -35 -43 -61 -38 -43 -44 -46 -61 -34 -17 12 -17 17
-5 42 21 42 110 85 109 53z m1362 -15 c20 -18 24 -43 6 -43 -16 0 -48 31 -48
47 0 18 20 16 42 -4z m213 -51 c-1 -2 -21 5 -44 14 -23 9 -44 14 -47 11 -3 -3
17 -14 45 -24 35 -12 51 -23 51 -35 0 -10 -11 -61 -25 -114 -14 -53 -24 -113
-24 -133 l2 -36 7 35 c7 34 7 34 8 5 1 -34 -35 -151 -37 -120 -1 17 -3 18 -12
5 -10 -13 -10 -13 -6 0 2 8 9 38 15 65 6 28 20 95 32 150 12 55 24 111 27 125
4 23 -1 28 -54 50 -32 14 -67 24 -78 22 -15 -1 -17 0 -6 7 7 5 11 13 7 19 -13
21 17 16 79 -13 35 -16 62 -31 60 -33z m-2455 43 c0 -8 -7 -15 -15 -15 -8 0
-15 7 -15 15 0 8 7 15 15 15 8 0 15 -7 15 -15z m2061 6 c7 11 9 10 9 -3 0 -10
-7 -18 -15 -18 -8 0 -15 8 -14 18 0 12 2 13 6 3 5 -11 7 -11 14 0z m89 -17 c0
-17 -16 -19 -26 -2 -5 7 -3 8 6 3 10 -6 12 -4 7 9 -4 10 -3 15 3 11 6 -3 10
-13 10 -21z m-1130 11 c0 -3 -7 -21 -14 -40 -10 -24 -22 -35 -35 -35 -26 0
-28 35 -4 62 15 16 53 26 53 13z m-1046 -41 c21 -8 21 -85 2 -271 -8 -76 -20
-198 -27 -270 -13 -148 -25 -167 -55 -85 -9 26 -28 71 -41 100 -34 74 -46 154
-39 253 8 124 37 210 84 248 38 32 49 35 76 25z m2381 -4 c25 -11 -1 -11 -35
0 -20 6 -21 8 -5 8 11 0 29 -3 40 -8z m116 -119 c-6 -4 -17 -34 -26 -66 -13
-53 -14 -55 -9 -15 3 25 12 58 20 74 7 16 15 48 16 70 2 39 2 39 5 -8 3 -27 0
-52 -6 -55z m241 60 c8 12 9 12 6 0 -6 -22 -28 -25 -27 -4 0 12 2 14 6 4 5
-11 7 -11 15 0z m-242 -146 c-7 -36 -14 -64 -17 -62 -2 3 2 34 8 71 7 36 14
64 17 61 2 -2 -1 -34 -8 -70z m455 -92 c13 -16 25 -33 25 -38 0 -6 12 -28 26
-48 14 -21 24 -41 21 -44 -3 -2 -22 25 -42 61 -35 63 -55 88 -55 68 0 -5 7
-15 15 -22 8 -7 15 -20 15 -29 0 -9 -8 -2 -20 17 -11 18 -18 37 -15 42 3 4 -1
11 -7 13 -10 4 -10 6 0 6 7 1 24 -11 37 -26z m392 -48 c0 -8 -4 -15 -9 -15 -4
0 -8 7 -8 15 0 8 4 15 8 15 5 0 9 -7 9 -15z m-96 -240 c17 -30 34 -55 39 -55
4 0 15 -21 25 -47 10 -27 23 -61 30 -78 8 -16 25 -66 40 -110 31 -92 29 -135
-10 -234 -13 -35 -29 -97 -35 -139 -6 -42 -15 -94 -21 -115 -6 -22 -8 -41 -6
-44 9 -8 36 90 46 162 l10 70 -4 -71 c-6 -84 -32 -174 -52 -174 -15 0 -16 13
-3 59 5 18 14 68 20 110 10 70 30 143 50 183 25 47 22 112 -8 198 -54 153 -74
201 -91 218 -17 17 -71 105 -71 116 0 16 13 1 41 -49z m-172 -480 c-23 -135
-51 -240 -78 -290 -51 -92 -66 -115 -77 -115 -7 0 -29 -19 -50 -42 -100 -112
-261 -227 -377 -270 -176 -65 -209 -68 -457 -51 -117 9 -165 17 -245 43 -55
17 -105 37 -111 43 -7 7 -24 41 -40 77 -15 36 -38 81 -49 100 -12 19 -25 44
-28 55 -14 39 31 -27 60 -89 71 -152 57 -137 168 -175 84 -28 124 -35 245 -44
251 -17 288 -13 444 48 152 60 377 237 423 334 11 21 12 22 7 4 -10 -43 11
-22 57 55 45 75 59 118 98 310 6 30 12 120 13 200 l2 147 4 -135 c2 -77 -2
-165 -9 -205z m-1113 236 c22 -10 64 -39 93 -65 52 -47 53 -47 109 -41 51 5
212 -10 344 -33 30 -6 49 -5 51 1 5 16 56 -1 84 -29 16 -17 23 -33 21 -52 -5
-46 -46 -53 -253 -46 l-181 6 -11 -29 -12 -28 6 29 c4 18 1 31 -8 37 -10 7 -6
8 11 4 14 -3 111 -7 217 -8 172 -2 194 0 210 16 16 16 16 20 3 43 -21 36 -68
63 -79 46 -6 -10 -22 -10 -82 2 -113 23 -277 38 -331 31 -47 -7 -50 -5 -92 33
-43 40 -143 98 -153 89 -2 -3 22 -19 54 -36 32 -17 96 -67 143 -111 47 -44 88
-80 93 -80 16 0 6 17 -23 38 -16 13 -30 30 -30 39 0 14 12 15 103 9 56 -4 153
-14 215 -22 62 -8 117 -12 121 -9 5 2 19 -3 31 -13 29 -24 20 -58 -17 -65 -21
-4 -344 8 -380 14 -38 6 -49 -2 -45 -32 3 -22 7 -27 13 -18 7 11 9 10 9 -3 0
-10 -7 -18 -15 -18 -14 0 -16 7 -19 74 -2 27 -152 163 -216 195 -87 43 -72 72
16 32z m1196 -16 c2 -19 0 -35 -4 -35 -4 0 -8 16 -8 35 0 19 2 35 4 35 2 0 6
-16 8 -35z m-2550 -171 c1 -112 3 -133 8 -84 6 55 7 58 8 20 3 -85 -89 -991
-96 -944 -2 11 11 143 28 293 16 151 30 288 29 305 -1 33 -54 -384 -69 -544
l-8 -95 3 90 c1 50 15 189 29 309 38 313 56 532 56 680 0 71 3 127 6 124 3 -3
6 -73 6 -154z m-719 34 c8 -5 8 -34 -1 -110 -14 -110 -40 -355 -67 -608 -24
-231 -51 -407 -74 -480 -13 -42 -20 -56 -21 -40 -2 30 -30 -63 -29 -95 1 -11
7 0 14 25 25 85 15 23 -21 -131 -35 -152 -61 -275 -104 -478 -36 -173 -104
-367 -182 -529 -30 -60 -68 -113 -140 -195 -152 -171 -258 -265 -258 -228 0 5
44 53 98 107 120 121 177 201 246 341 55 110 153 362 163 417 3 17 16 65 29
106 21 70 74 278 160 635 38 160 75 397 94 610 7 72 25 238 41 370 16 132 30
269 31 305 1 46 3 53 5 25 3 -22 10 -43 16 -47z m3184 -220 c-3 -7 -5 -2 -5
12 0 14 2 19 5 13 2 -7 2 -19 0 -25z m-2417 -119 c0 -5 -4 -8 -9 -5 -5 4 -12
0 -14 -6 -3 -8 -6 -6 -6 5 -1 9 6 17 14 17 8 0 15 -5 15 -11z m1989 -413 c-2
-2 -15 -9 -29 -15 -24 -11 -24 -11 -6 3 16 13 49 24 35 12z m-24 -36 c-3 -5
-12 -10 -18 -10 -7 0 -6 4 3 10 19 12 23 12 15 0z m3918 -257 c-7 -2 -21 -2
-30 0 -10 3 -4 5 12 5 17 0 24 -2 18 -5z m-5509 -41 c98 -46 129 -61 165 -82
19 -11 53 -22 76 -26 39 -5 44 -10 65 -56 12 -27 19 -53 14 -58 -5 -4 -48 -10
-96 -12 -74 -4 -97 -9 -149 -36 -34 -18 -65 -32 -69 -32 -8 0 -80 283 -80 314
0 21 2 21 74 -12z m-528 -164 c-3 -89 -4 -159 0 -156 3 3 9 77 13 164 7 148 8
152 9 54 2 -121 -24 -330 -99 -795 -16 -102 -121 -512 -176 -690 -14 -44 -59
-147 -101 -230 -71 -139 -83 -156 -165 -237 -83 -82 -117 -104 -117 -77 0 7
33 46 73 88 91 96 118 135 199 291 73 141 84 173 161 460 69 257 89 352 121
565 14 94 35 229 46 300 11 72 23 196 27 278 3 81 8 147 11 147 3 0 2 -73 -2
-162z m6923 138 c-2 -2 -57 -31 -121 -65 -78 -42 -116 -57 -114 -47 1 9 6 19
11 23 4 4 5 2 1 -4 -12 -21 6 -15 69 23 63 39 134 73 149 74 5 0 7 -2 5 -4z
m-812 -442 c-3 -3 -12 -4 -19 -1 -8 3 -5 6 6 6 11 1 17 -2 13 -5z m-387 -34
c-6 -11 -28 -31 -48 -44 -67 -43 -261 -215 -277 -247 -9 -17 -19 -28 -22 -26
-17 17 174 201 278 268 27 18 47 34 44 37 -9 10 -94 -50 -184 -130 -109 -96
-147 -141 -156 -183 -5 -23 -4 -26 4 -15 8 11 10 3 10 -35 -2 -47 -2 -48 -9
-15 -11 54 -11 17 1 -110 10 -104 38 -221 60 -244 14 -15 11 -36 -5 -36 -33 0
-86 165 -85 265 1 127 15 213 42 254 26 39 212 201 292 254 49 33 70 36 55 7z
m-2218 -1545 c7 17 8 16 3 -5 -20 -97 -17 -123 19 -205 49 -108 64 -134 102
-177 47 -53 54 -69 134 -311 51 -154 78 -257 95 -355 26 -157 36 -333 19 -339
-15 -5 -24 30 -24 97 0 72 -45 338 -70 420 -109 350 -131 408 -172 452 -59 64
-148 246 -148 304 0 55 22 148 28 119 l5 -20 9 20z m-5159 -297 c3 -13 11 -64
18 -115 17 -120 4 -182 -52 -252 -66 -82 -98 -61 -35 22 58 76 58 74 40 202
-9 64 -13 127 -10 140 8 31 32 32 39 3z m-243 -84 c0 -15 57 -153 81 -196 5
-10 5 -18 0 -18 -4 0 -16 21 -26 48 -10 26 -22 52 -27 58 -4 6 -17 36 -28 65
-19 50 -20 51 -14 15 3 -22 19 -66 35 -99 35 -69 51 -107 43 -107 -10 0 -84
173 -90 211 -5 32 -4 39 10 39 9 0 16 -7 16 -16z"/>
<path d="M3731 6209 c-34 -4 -67 -9 -72 -11 -5 -2 91 -3 214 -4 212 0 392 -16
606 -54 32 -6 60 -6 70 0 24 13 2 18 -104 23 -49 2 -157 14 -240 25 -175 24
-383 33 -474 21z"/>
<path d="M3658 6018 c-27 -11 -48 -25 -48 -30 0 -4 11 -1 25 8 13 8 28 13 34
10 13 -8 62 15 55 25 -7 12 -12 11 -66 -13z"/>
<path d="M4305 6020 c3 -5 8 -10 11 -10 2 0 4 5 4 10 0 6 -5 10 -11 10 -5 0
-7 -4 -4 -10z"/>
<path d="M4461 6017 c21 -17 139 -75 139 -68 0 10 -112 71 -131 71 -7 0 -10
-1 -8 -3z"/>
<path d="M3579 5755 c-31 -20 -49 -43 -49 -61 0 -17 32 4 63 41 43 51 38 56
-14 20z"/>
<path d="M4982 5750 c7 -11 16 -20 21 -20 4 0 3 9 -3 20 -6 11 -15 20 -20 20
-6 0 -5 -9 2 -20z"/>
<path d="M5095 5750 c3 -5 11 -10 16 -10 6 0 7 5 4 10 -3 6 -11 10 -16 10 -6
0 -7 -4 -4 -10z"/>
<path d="M5155 5370 c-4 -17 -5 -34 -2 -36 3 -3 8 9 12 26 4 17 5 34 2 36 -3
3 -8 -9 -12 -26z"/>
<path d="M3737 5732 c-10 -10 -17 -24 -17 -30 0 -22 19 -12 35 18 17 33 7 40
-18 12z"/>
<path d="M2667 5678 c-59 -52 -80 -125 -81 -278 -1 -115 1 -129 25 -180 15
-30 32 -71 38 -90 31 -95 38 -91 49 31 6 63 19 191 28 284 25 264 16 299 -59
233z"/>
<path d="M4890 4731 c0 -6 4 -11 9 -11 5 0 23 -14 40 -30 l30 -31 172 -8 c175
-9 219 -5 219 23 0 16 -33 39 -43 30 -2 -3 -58 2 -123 10 -187 24 -304 31
-304 17z"/>
<path d="M3326 4434 c-4 -63 -5 -118 -3 -121 3 -2 8 48 12 112 4 64 5 118 3
121 -3 2 -8 -48 -12 -112z"/>
<path d="M2582 4455 c-17 -148 -37 -324 -43 -390 -6 -66 -21 -195 -33 -287
-12 -93 -19 -168 -15 -168 3 0 9 21 12 48 19 150 57 484 67 587 6 66 20 193
31 282 11 90 19 171 17 180 -2 10 -18 -103 -36 -252z"/>
<path d="M2476 3592 c-2 -4 -7 -25 -10 -47 -7 -45 -2 -38 13 18 9 35 8 46 -3
29z"/>
<path d="M2351 3079 c-41 -165 -78 -302 -83 -305 -4 -3 -8 -15 -8 -27 0 -49
-102 -320 -176 -471 -53 -107 -142 -224 -248 -326 -37 -36 -73 -68 -79 -72 -6
-4 -8 -10 -5 -14 10 -10 127 105 239 235 76 88 110 138 149 216 27 57 50 109
50 117 0 7 6 22 14 33 20 30 81 230 106 347 37 177 68 319 95 436 14 63 25
118 23 122 -2 5 -36 -126 -77 -291z"/>
<path d="M3700 3648 c0 -10 41 -186 61 -261 10 -38 11 -38 34 -23 45 29 144
56 208 56 35 0 66 3 70 6 3 3 -4 25 -15 49 -18 37 -26 44 -60 49 -21 3 -80 27
-131 52 -157 78 -167 83 -167 72z"/>
<path d="M3208 3205 c-74 -504 -79 -531 -174 -890 -60 -229 -72 -263 -143
-410 -84 -173 -140 -254 -228 -335 -30 -28 -53 -54 -49 -57 9 -9 159 145 191
197 73 116 173 340 198 445 3 11 30 115 61 230 62 234 82 324 97 435 5 41 24
160 40 264 17 104 29 201 27 215 -2 14 -11 -28 -20 -94z"/>
<path d="M8581 2640 c0 -42 6 -102 14 -133 16 -64 53 -142 62 -133 3 3 1 11
-4 18 -22 28 -54 147 -62 233 l-8 90 -2 -75z"/>
<path d="M6716 1549 c-14 -74 -7 -108 50 -222 31 -61 73 -130 94 -152 32 -35
46 -69 104 -250 37 -116 72 -223 77 -240 18 -59 59 -331 59 -390 0 -33 4 -67
9 -74 16 -25 1 173 -24 321 -16 94 -44 198 -89 335 -82 249 -89 265 -135 316
-20 23 -61 92 -90 152 -51 106 -53 112 -47 173 7 66 3 83 -8 31z"/>
<path d="M1554 1297 c-3 -10 1 -74 10 -143 19 -138 19 -137 -42 -212 -19 -23
-33 -45 -30 -48 6 -5 69 69 85 101 21 38 25 114 13 202 -15 101 -25 128 -36
100z"/>
<path d="M3840 4625 c-20 -15 -28 -25 -18 -25 8 0 21 7 28 15 7 8 27 19 44 24
29 9 29 9 5 10 -14 1 -40 -10 -59 -24z"/>
<path d="M3930 4637 c0 -2 57 -62 128 -133 70 -71 152 -162 182 -201 64 -84
81 -72 20 14 -51 72 -251 276 -297 303 -18 10 -33 18 -33 17z"/>
<path d="M5087 3843 c-9 -2 -14 -9 -11 -15 4 -7 2 -8 -5 -4 -15 10 -73 -3 -65
-15 3 -5 14 -9 25 -9 13 0 18 4 13 12 -5 7 -3 8 5 3 16 -9 103 14 95 26 -5 9
-26 10 -57 2z"/>
<path d="M9148 3733 c6 -2 18 -2 25 0 6 3 1 5 -13 5 -14 0 -19 -2 -12 -5z"/>
<path d="M7695 1652 c13 -38 50 -201 83 -363 79 -380 107 -492 144 -559 40
-74 140 -210 209 -284 30 -34 77 -89 103 -122 50 -65 55 -85 71 -256 l7 -68
2244 0 2244 0 0 399 0 400 -54 6 c-30 4 -76 5 -103 3 -95 -9 -524 67 -758 134
-119 34 -489 125 -620 152 -38 8 -90 22 -115 31 -40 14 -190 54 -343 91 -31 8
-85 26 -120 40 -116 50 -326 104 -442 114 -274 25 -308 26 -369 13 -96 -19
-403 -19 -511 1 -191 36 -201 40 -403 143 l-122 64 -53 -16 c-73 -21 -171 -20
-452 4 -230 19 -296 30 -395 66 -48 17 -249 75 -261 75 -4 0 3 -31 16 -68z"/>
<path d="M6195 990 c25 -104 78 -303 94 -354 36 -107 63 -344 59 -499 -3 -124
-2 -137 14 -137 25 0 32 52 25 199 -8 175 -36 326 -102 536 -52 168 -103 312
-90 255z"/>
<path d="M2974 894 c-30 -67 -64 -192 -95 -349 -17 -84 -23 -147 -23 -270 -1
-204 8 -275 35 -275 18 0 19 4 12 52 -13 84 -9 375 5 468 34 215 63 343 89
393 8 16 12 31 9 34 -3 4 -17 -20 -32 -53z"/>
</g>
</svg>
