<?xml version="1.0" standalone="no"?>
<!DOCTYPE svg PUBLIC "-//W3C//DTD SVG 20010904//EN"
 "http://www.w3.org/TR/2001/REC-SVG-20010904/DTD/svg10.dtd">
<svg version="1.0" xmlns="http://www.w3.org/2000/svg"
 width="1280.000000pt" height="720.000000pt" viewBox="0 0 1280.000000 720.000000"
 preserveAspectRatio="xMidYMid meet">
<metadata>
Created by potrace 1.16, written by Peter Selinger 2001-2019
</metadata>
<g transform="translate(0.000000,720.000000) scale(0.100000,-0.100000)"
fill="#000000" stroke="none">
<path d="M0 3638 c1 -3094 3 -3560 15 -3538 8 14 14 35 15 46 0 38 114 245
228 418 62 92 133 211 159 263 28 58 54 98 67 104 11 5 28 13 36 18 8 5 23 12
33 15 20 6 19 9 -18 142 -13 44 -25 99 -27 123 -3 43 -3 43 52 73 30 16 58 32
62 37 5 4 15 56 23 116 8 61 23 170 35 244 11 73 20 138 20 145 0 6 15 35 33
65 17 29 41 69 53 89 16 30 33 42 90 64 38 15 79 27 90 27 12 1 75 14 140 31
183 45 368 77 625 105 129 15 248 28 265 31 28 4 45 25 160 196 132 197 261
440 338 638 20 52 43 109 50 125 23 54 35 89 70 205 110 371 135 486 223 1050
27 171 27 184 25 545 -2 204 -7 433 -13 510 -16 235 14 620 67 845 58 247 153
483 243 604 20 27 52 81 71 120 27 55 43 75 70 88 33 16 -55 17 -1632 18
l-1668 0 0 -3562z"/>
<path d="M3338 7193 c-1 -5 -16 -15 -33 -23 -21 -11 -40 -36 -65 -86 -19 -39
-51 -93 -71 -120 -40 -54 -105 -178 -139 -264 -12 -30 -26 -64 -30 -75 -98
-237 -164 -758 -141 -1100 6 -77 11 -306 13 -510 2 -361 2 -374 -25 -545 -76
-487 -109 -654 -174 -877 -25 -87 -52 -182 -60 -212 -8 -30 -39 -116 -69 -193
-30 -76 -54 -141 -54 -144 0 -6 -81 -177 -156 -328 -25 -49 -101 -174 -170
-277 -126 -187 -127 -188 -168 -193 -22 -3 -144 -17 -271 -31 -313 -36 -641
-98 -825 -157 -74 -24 -89 -33 -104 -68 -6 -14 -28 -50 -47 -80 -33 -50 -38
-68 -59 -205 -25 -171 -49 -344 -50 -362 0 -6 -29 -27 -64 -47 l-63 -35 8 -53
c5 -29 18 -83 28 -119 29 -94 31 -132 7 -137 -35 -7 -98 -53 -104 -75 -11 -45
-93 -188 -189 -333 -141 -212 -223 -361 -223 -404 0 -11 -9 -38 -20 -60 -11
-22 -20 -48 -20 -60 0 -20 2 -20 705 -20 388 0 705 4 705 8 0 5 13 89 30 188
46 283 70 444 72 488 1 35 2 32 8 -19 l7 -60 3 60 c2 44 4 50 7 24 4 -38 -72
-577 -94 -666 l-5 -23 822 0 823 0 -6 38 c-50 336 -56 460 -29 642 19 126 68
306 93 340 14 19 10 4 -32 -114 -19 -55 -39 -145 -52 -235 -19 -132 -20 -160
-10 -301 7 -85 19 -203 29 -262 l18 -108 38 0 c35 0 38 2 33 23 -44 189 -59
361 -52 582 5 156 36 408 53 424 7 7 5 -9 -17 -129 -46 -260 -35 -612 26 -877
l5 -23 1587 0 1586 0 -7 143 c-8 175 -26 293 -71 462 -38 148 -75 253 -117
340 -28 57 -62 175 -53 183 12 12 35 -11 35 -35 0 -15 12 -53 26 -83 68 -145
150 -396 185 -569 13 -60 22 -160 26 -268 l6 -173 933 0 c781 0 934 2 934 14
0 38 -102 198 -205 321 -99 118 -214 298 -252 394 -49 124 -71 211 -103 408
-42 256 -95 503 -131 616 -18 53 -29 100 -25 104 3 4 66 -13 139 -36 157 -52
394 -117 492 -136 39 -8 95 -21 125 -30 94 -27 271 -38 388 -25 57 7 116 15
130 19 55 15 171 -26 306 -107 127 -77 244 -103 455 -101 l146 1 -100 13 c-55
8 -153 20 -217 29 -153 19 -221 33 -244 52 -11 8 -14 14 -9 13 35 -5 20 6 -55
37 -177 75 -272 98 -350 86 -19 -3 -114 -6 -210 -6 -221 -1 -310 16 -750 146
-74 22 -160 47 -190 55 -30 8 -69 22 -85 32 -17 10 -64 29 -105 44 -41 14 -91
33 -112 41 -20 9 -98 32 -175 51 -432 112 -751 209 -803 243 -31 20 -42 25
-310 119 -118 42 -227 78 -243 81 -15 2 -30 8 -33 13 -3 5 -38 10 -77 11 l-72
2 62 3 c43 3 79 -2 120 -16 350 -118 529 -183 573 -209 64 -38 335 -120 780
-236 135 -35 366 -115 406 -141 12 -8 45 -20 75 -29 30 -8 101 -28 159 -45
203 -61 396 -112 495 -133 118 -25 413 -37 455 -19 l25 11 -27 -3 c-15 -2 -33
0 -40 4 -8 6 3 9 30 9 24 0 42 -5 42 -11 0 -6 9 -9 20 -6 51 13 190 -20 305
-73 70 -31 149 -56 218 -65 26 -4 47 -10 47 -14 0 -4 -28 -2 -62 5 -76 16 -88
17 -88 5 0 -12 80 -29 223 -46 61 -8 146 -19 188 -25 54 -8 99 -8 160 -1 46 6
102 13 124 16 l40 4 -35 -10 c-19 -5 -64 -14 -100 -19 -59 -8 -56 -9 35 -4 55
2 118 9 140 15 73 20 320 -19 520 -81 55 -17 136 -40 180 -50 44 -10 114 -27
155 -38 41 -12 116 -32 165 -45 50 -14 146 -43 215 -65 69 -22 152 -47 185
-57 33 -9 69 -20 80 -25 26 -12 199 -60 355 -100 69 -17 170 -44 225 -60 55
-16 138 -34 185 -39 202 -24 397 -52 463 -66 78 -16 117 -18 77 -4 -20 7 -17
7 13 3 l37 -5 0 1604 0 1605 -24 6 c-47 12 -544 27 -681 21 -295 -13 -463 -40
-945 -151 -135 -31 -290 -65 -344 -75 -132 -25 -239 -56 -251 -72 -5 -8 -95
-42 -200 -77 -195 -64 -317 -115 -487 -201 -186 -94 -242 -127 -297 -175 l-56
-49 33 43 c24 30 29 42 18 42 -8 0 -18 -5 -22 -11 -8 -14 -73 -43 -181 -80
-76 -27 -88 -28 -125 -17 -33 10 -37 13 -22 20 12 5 1 6 -26 3 -50 -5 -50 -5
80 30 220 59 278 82 562 226 87 43 165 79 175 78 13 0 12 -3 -7 -12 -53 -23
-181 -87 -232 -115 -29 -16 -64 -33 -78 -37 -14 -4 -61 -25 -105 -45 -72 -35
-164 -65 -297 -100 -49 -13 -63 -34 -29 -45 29 -9 216 58 279 101 27 18 37 21
43 12 6 -9 12 -8 26 4 24 21 326 177 433 223 47 20 177 68 289 106 112 38 209
75 215 83 13 17 126 49 262 75 54 10 209 44 344 75 482 111 650 138 945 151
137 6 634 -9 681 -21 18 -5 24 -2 24 9 0 9 -8 18 -17 20 -17 4 -17 5 0 6 9 0
17 8 17 16 0 22 -59 29 -265 30 -108 0 -166 3 -135 6 40 5 28 6 -47 5 -65 -1
-96 2 -85 8 16 9 467 -9 511 -21 l21 -5 0 1531 0 1531 -3105 0 c-1708 0 -3105
-3 -3104 -7 0 -5 13 -27 27 -50 82 -128 118 -195 152 -277 20 -50 55 -136 78
-191 59 -145 74 -270 79 -668 7 -421 -9 -525 -131 -867 -90 -252 -158 -376
-275 -499 -34 -35 -61 -68 -61 -73 0 -5 -18 -26 -41 -46 l-40 -38 11 -120 c6
-65 20 -179 32 -252 20 -129 20 -137 4 -225 -9 -51 -18 -112 -21 -137 -2 -25
-8 -58 -14 -75 -5 -16 -12 -42 -15 -57 -5 -20 -13 -28 -28 -28 -20 0 -21 3
-14 87 10 122 24 193 47 232 15 25 17 36 8 47 -14 17 -48 247 -49 323 0 50 -1
53 -14 36 -8 -11 -12 -23 -9 -28 2 -4 0 -6 -5 -5 -5 2 -18 -7 -28 -20 -24 -29
-58 -21 -48 12 3 11 11 26 16 31 6 6 7 3 3 -10 -7 -20 -6 -20 9 -1 9 11 16 15
16 8 0 -6 -9 -17 -21 -25 -11 -8 -16 -18 -11 -21 11 -6 72 64 72 83 0 6 7 8
15 5 11 -4 15 -21 15 -58 0 -84 29 -278 46 -313 16 -30 15 -34 -4 -67 -23 -39
-38 -109 -48 -230 -6 -64 -5 -78 7 -74 13 4 29 71 65 280 16 93 16 101 -4 230
-12 73 -26 186 -32 250 -12 125 -8 148 30 168 11 6 26 23 34 39 9 16 41 55 72
87 80 84 199 274 222 354 6 19 35 103 65 185 31 83 68 209 84 280 28 129 28
133 28 480 0 462 -15 579 -95 760 -22 50 -41 95 -64 154 -23 58 -74 149 -148
264 -14 23 -27 48 -27 55 -1 9 -332 12 -1620 12 -891 0 -1621 -3 -1623 -7z
m2153 -211 c14 -9 40 -33 57 -52 29 -32 31 -33 32 -12 0 12 4 22 9 22 4 0 6
-11 3 -25 -6 -36 -21 -31 -75 25 -46 48 -51 50 -102 50 -51 0 -56 -2 -86 -40
-39 -49 -54 -52 -104 -24 -66 38 -159 57 -233 49 l-64 -7 -79 -80 c-77 -78
-81 -83 -119 -192 -37 -106 -71 -193 -110 -281 -9 -22 -34 -78 -55 -125 -21
-47 -46 -105 -57 -129 -11 -24 -44 -105 -74 -180 -30 -75 -66 -160 -79 -189
-14 -29 -25 -57 -25 -63 0 -5 -9 -28 -21 -51 -28 -55 -62 -238 -93 -501 -15
-120 -33 -249 -41 -287 -8 -37 -17 -106 -20 -152 -4 -46 -15 -128 -25 -183
-10 -55 -22 -141 -25 -190 -6 -80 -5 -92 12 -107 30 -26 116 -74 159 -88 21
-7 82 -33 134 -58 121 -57 235 -93 249 -79 19 19 12 73 -14 108 -42 58 -57
101 -66 189 -14 130 -34 190 -123 355 -33 61 -14 157 40 204 31 28 41 31 100
31 36 0 74 -5 84 -10 18 -10 141 -165 184 -232 25 -39 76 -186 76 -219 0 -18
29 -56 107 -140 59 -63 88 -96 65 -74 -23 21 -42 34 -42 28 0 -16 77 -83 114
-99 21 -9 25 -13 12 -14 -32 0 -80 37 -169 130 -89 94 -107 126 -22 40 27 -27
54 -50 59 -50 6 0 -20 31 -57 68 -64 64 -69 73 -82 137 -8 38 -31 101 -50 140
-41 81 -167 254 -198 272 -12 7 -49 12 -81 13 -73 0 -119 -30 -136 -88 -17
-64 -12 -100 24 -162 52 -88 97 -230 104 -323 4 -67 7 -77 17 -63 35 47 -17
246 -99 382 -30 49 -36 69 -36 114 0 62 16 92 60 115 35 18 106 19 137 2 23
-12 138 -165 185 -246 35 -58 65 -152 74 -230 3 -33 10 -58 15 -56 4 3 10 1
14 -5 3 -5 -2 -10 -12 -10 -16 0 -20 14 -30 87 -15 104 -60 202 -158 338 -82
115 -95 125 -156 125 -40 0 -54 -5 -84 -31 -31 -28 -35 -36 -35 -81 0 -39 8
-64 32 -107 58 -100 108 -237 110 -299 l1 -57 7 50 7 50 3 -50 3 -50 7 50 7
50 1 -54 c2 -43 -1 -52 -13 -47 -10 3 -15 -1 -15 -14 0 -10 -4 -22 -10 -25
-12 -7 16 -66 36 -78 8 -4 14 -12 14 -16 0 -13 119 -229 149 -271 28 -39 35
-79 32 -193 0 -10 4 -30 9 -43 5 -13 6 -24 1 -24 -12 0 -21 52 -22 137 -1 65
-5 76 -40 128 -21 30 -63 105 -93 165 -31 60 -61 112 -67 116 -6 3 -18 20 -25
38 l-15 31 6 -30 c4 -16 15 -39 25 -50 46 -51 66 -139 37 -164 -17 -14 -198
43 -278 87 -30 16 -87 42 -127 57 -40 15 -94 41 -120 59 l-47 31 3 100 c1 55
11 145 21 200 11 55 22 137 26 183 3 46 12 115 20 152 8 38 26 167 41 287 36
304 64 440 114 559 24 54 66 158 95 229 29 72 86 204 125 295 115 261 130 297
180 435 46 128 48 131 123 206 l76 77 69 7 c76 7 163 -9 238 -45 22 -11 44
-20 49 -20 4 0 25 18 45 40 34 37 41 40 91 40 35 0 63 -6 80 -18z m139 -9 c0
-20 -3 -24 -9 -14 -7 11 -9 11 -14 0 -3 -8 -6 -4 -6 9 -1 13 3 20 9 17 6 -3
10 -1 10 4 0 6 2 11 5 11 3 0 5 -12 5 -27z m-16 -67 c-6 -33 25 -213 46 -263
5 -12 6 -25 1 -27 -13 -8 -64 252 -56 290 3 19 8 34 11 34 3 0 2 -15 -2 -34z
m51 -8 c4 -24 18 -92 32 -151 14 -60 23 -111 20 -113 -3 -3 -8 14 -12 37 -6
32 -10 38 -16 27 -21 -38 78 -371 225 -757 13 -32 11 -38 -30 -118 -45 -86
-56 -139 -29 -149 8 -4 15 -17 15 -31 0 -18 19 -43 68 -88 87 -81 186 -165
189 -161 2 1 -6 21 -17 43 -13 28 -42 57 -94 94 -68 49 -93 79 -66 79 6 0 3
12 -7 26 -16 24 -16 27 0 36 13 7 17 25 19 76 l2 67 3 -64 c3 -47 0 -68 -12
-81 -14 -15 -14 -18 0 -30 17 -14 20 -40 4 -40 -11 0 63 -61 112 -92 14 -9 37
-39 52 -67 22 -43 24 -53 12 -58 -17 -6 -64 31 -184 140 -88 82 -91 85 -91
113 0 12 -7 24 -15 28 -32 12 -2 137 53 213 l21 29 -25 60 c-48 116 -110 298
-174 514 -17 58 -34 112 -38 120 -9 18 -8 85 2 120 l7 25 -16 -25 c-11 -17
-14 -19 -9 -5 4 11 8 34 10 50 2 17 1 21 -2 10 -3 -11 -10 -24 -15 -29 -4 -5
-4 7 2 27 12 43 -4 146 -24 159 -9 6 -7 8 5 8 12 0 18 -12 23 -42z m-38 -35
c-3 -10 -5 -4 -5 12 0 17 2 24 5 18 2 -7 2 -21 0 -30z m10 -55 c-3 -8 -6 -5
-6 6 -1 11 2 17 5 13 3 -3 4 -12 1 -19z m-542 -313 c84 -18 182 -49 250 -80
172 -78 243 -115 264 -139 14 -14 30 -26 38 -26 7 0 13 -7 13 -15 0 -22 -46
-19 -62 4 -7 10 -29 21 -48 25 -63 13 -134 38 -213 77 -141 69 -290 112 -442
129 l-80 9 91 -5 c130 -7 285 -51 452 -130 52 -25 123 -52 156 -60 34 -8 69
-19 79 -24 11 -7 17 -7 17 -1 0 25 -298 166 -436 206 -102 30 -243 42 -322 27
-30 -5 -50 -6 -45 -2 22 22 195 24 288 5z m685 -21 c0 -17 -16 -19 -26 -2 -5
7 -3 8 6 3 10 -6 12 -4 7 9 -4 10 -3 15 3 11 6 -3 10 -13 10 -21z m-516 -194
c119 -12 229 -40 200 -51 -14 -6 -15 -8 -3 -8 8 -1 24 -8 35 -17 18 -14 18
-15 -5 -3 -13 6 -63 20 -110 30 -77 17 -68 18 39 4 32 -4 31 -3 -10 10 -114
38 -540 44 -540 8 0 -12 14 -14 84 -12 46 2 82 1 79 -3 -2 -5 -64 -8 -136 -9
-73 0 -152 -4 -177 -8 l-45 -7 45 -13 c59 -16 114 -37 175 -66 28 -13 106 -47
175 -76 69 -28 132 -58 142 -66 11 -10 18 -11 23 -3 5 8 15 6 33 -6 15 -10 72
-42 127 -71 55 -29 94 -53 86 -53 -17 0 -198 95 -223 118 -16 14 -23 10 -19
-11 1 -4 -16 4 -38 18 -21 14 -76 41 -122 59 -72 28 -241 102 -289 125 -8 5
-39 14 -67 20 -29 7 -53 19 -53 26 0 12 81 25 156 25 19 0 34 4 34 9 0 5 -18
8 -41 7 -22 -2 -37 0 -32 5 22 22 323 34 477 19z m-266 -27 c-10 -2 -28 -2
-40 0 -13 2 -5 4 17 4 22 1 32 -1 23 -4z m257 -3 l-40 -5 52 -7 c29 -4 80 -18
113 -31 35 -15 63 -21 66 -15 12 19 44 -26 73 -104 28 -71 30 -86 24 -153 -7
-86 -26 -100 -43 -32 -23 88 -47 131 -106 193 -34 35 -67 64 -74 64 -9 0 -7
-7 6 -21 25 -28 26 -99 1 -126 -17 -19 -16 -21 20 -46 21 -14 59 -36 86 -48
26 -13 47 -27 47 -32 0 -5 -26 6 -57 24 -139 77 -135 73 -102 119 17 22 20 36
15 65 -4 20 -14 39 -22 42 -8 3 -13 12 -10 19 3 8 0 14 -7 15 -9 0 -9 2 0 5 6
3 23 -2 37 -11 13 -9 39 -18 58 -20 48 -6 131 -105 87 -105 -5 0 -7 5 -4 10 7
12 -66 90 -84 90 -6 0 11 -29 38 -65 35 -45 57 -88 73 -138 l22 -72 8 74 c8
78 7 85 -49 199 -18 37 -29 49 -34 40 -7 -10 -14 -10 -36 4 -51 30 -137 49
-246 55 -60 3 -104 9 -98 12 5 3 58 6 118 7 59 0 90 -2 68 -6z m265 -30 c8 -5
11 -10 5 -10 -5 0 -17 5 -25 10 -8 5 -10 10 -5 10 6 0 17 -5 25 -10z m-702
-17 c-10 -2 -26 -2 -35 0 -10 3 -2 5 17 5 19 0 27 -2 18 -5z m217 -3 c-16 -4
-52 -9 -80 -10 l-50 -2 35 -10 c19 -5 39 -14 45 -19 14 -14 22 -11 28 11 3 11
13 20 24 20 17 -1 17 -1 1 -11 -10 -5 -18 -17 -18 -24 0 -8 -9 -15 -20 -15
-11 0 -20 -5 -20 -12 0 -9 -3 -9 -11 -1 -6 6 -17 9 -24 7 -7 -3 -16 -1 -19 4
-3 5 8 8 27 6 30 -3 31 -3 13 11 -11 8 -30 15 -43 15 -13 0 -23 6 -23 15 0 13
36 19 140 22 22 1 21 0 -5 -7z m-1430 -20 c18 -20 17 -24 -8 -138 -14 -64 -43
-223 -64 -352 -21 -129 -42 -238 -48 -242 -5 -4 -14 -3 -19 2 -4 4 -14 6 -21
4 -7 -3 -33 14 -58 38 -38 36 -49 57 -72 131 -26 82 -27 97 -22 210 6 144 25
214 73 266 29 33 102 77 154 95 33 10 68 5 85 -14z m1669 -15 c-5 16 -4 17 5
5 15 -21 14 -30 -4 -30 -8 0 -15 2 -15 4 0 2 -3 13 -6 23 -6 16 -5 16 10 -2
l16 -20 -6 20z m-467 -36 c32 -12 103 -43 159 -69 56 -27 127 -56 158 -66 31
-10 56 -24 56 -31 0 -28 -52 -11 -240 75 -47 21 -100 44 -118 52 -18 7 -30 15
-28 18 3 3 33 -7 67 -22 33 -15 63 -26 65 -23 6 6 -139 67 -158 67 -10 0 -9
-3 2 -10 11 -8 7 -9 -15 -4 -39 9 -44 14 -14 15 21 1 21 2 -6 9 -24 6 -25 8
-8 9 12 0 48 -9 80 -20z m251 -29 c44 -22 58 -36 20 -21 -60 24 -92 40 -77 41
8 0 34 -9 57 -20z m-368 -167 c-1 -37 -50 -74 -50 -38 0 22 23 55 37 55 7 0
13 -8 13 -17z m75 -20 c-10 -53 -23 -73 -47 -73 -18 0 -20 4 -15 36 7 40 32
74 55 74 11 0 13 -8 7 -37z m1155 -84 c-23 -36 -23 -35 0 25 8 21 16 32 18 24
2 -9 -7 -31 -18 -49z m120 -137 c0 -7 -11 -18 -25 -24 -23 -10 -23 -12 -7 -24
9 -7 31 -14 48 -14 26 0 33 -6 52 -46 12 -25 41 -70 63 -100 36 -49 39 -58 30
-82 l-10 -27 2 26 c1 16 -12 45 -36 78 -21 29 -48 72 -59 97 -19 38 -26 44
-52 44 -32 1 -66 20 -66 37 0 5 12 15 26 22 l26 11 -26 46 c-14 26 -26 54 -26
63 0 18 59 -87 60 -107z m-217 6 c3 -35 8 -76 12 -91 7 -25 5 -28 -10 -25 -26
5 -45 69 -38 128 9 73 30 66 36 -12z m44 -10 c-3 -7 -5 -2 -5 12 0 14 2 19 5
13 2 -7 2 -19 0 -25z m-154 -55 c3 -16 8 -38 12 -50 6 -18 3 -23 -9 -23 -18 0
-36 38 -36 76 0 33 26 31 33 -3z m197 -8 c0 -8 -4 -15 -8 -15 -5 0 -9 7 -9 15
0 8 4 15 9 15 4 0 8 -7 8 -15z m-2470 -283 c-7 -49 -11 -95 -8 -103 2 -7 10
34 18 92 7 57 15 99 17 93 4 -12 -54 -451 -62 -469 -3 -5 -3 22 0 60 l4 70
-14 -75 c-8 -41 -13 -102 -10 -135 2 -42 1 -50 -4 -25 -7 33 -8 31 -15 -28 -4
-35 -5 -66 -2 -69 3 -4 7 9 7 28 1 19 3 27 6 18 5 -19 -41 -274 -92 -508 -103
-482 -139 -635 -145 -612 -5 21 -8 16 -18 -28 -15 -67 -14 -88 3 -36 27 81 14
10 -19 -108 -57 -201 -152 -450 -156 -407 0 8 -12 -5 -25 -30 -37 -68 -30 -33
9 46 87 177 158 426 275 964 111 512 150 731 212 1193 12 92 24 165 26 163 3
-3 -1 -45 -7 -94z m2815 28 c40 -74 120 -247 152 -330 46 -120 48 -188 8 -305
-27 -80 -124 -283 -184 -383 -17 -29 -31 -55 -31 -57 0 -9 -103 -171 -120
-190 -11 -12 -17 -25 -13 -29 5 -4 4 -6 -2 -5 -5 2 -30 -10 -54 -26 -36 -24
-55 -30 -100 -30 -47 0 -69 8 -144 47 -102 55 -234 99 -395 133 -62 14 -117
27 -122 30 -6 3 -17 2 -26 -3 -23 -13 -10 -18 86 -41 45 -11 108 -34 141 -50
32 -17 68 -31 81 -30 19 0 15 4 -17 20 -45 22 -47 23 135 -38 74 -24 160 -58
191 -74 44 -24 66 -29 105 -27 43 2 59 10 130 65 88 68 123 102 91 90 -11 -4
-16 -3 -12 4 4 5 12 8 18 6 7 -3 42 25 80 61 37 37 67 62 67 57 0 -15 -175
-184 -250 -242 -59 -45 -70 -50 -122 -51 -49 -2 -69 3 -127 33 -92 46 -249 95
-282 88 -17 -3 -47 6 -88 27 -61 30 -237 82 -244 71 -2 -4 -2 0 -1 7 2 6 -2
12 -9 12 -8 0 -7 4 3 11 11 8 8 9 -15 5 -22 -5 -26 -4 -15 4 13 8 12 10 -3 10
-20 0 -163 138 -153 147 3 4 31 -21 61 -54 51 -57 138 -113 152 -99 3 3 -8 12
-26 19 -17 7 -29 16 -25 20 3 3 23 -5 43 -19 23 -15 79 -33 153 -48 110 -24
332 -90 353 -106 28 -21 126 -69 153 -75 102 -22 187 55 313 282 12 21 29 52
39 68 49 82 152 296 174 359 40 117 42 161 11 252 -25 72 -134 314 -170 374
-8 14 -19 24 -25 23 -5 -2 -10 2 -10 8 0 19 31 5 45 -21z m-171 -113 c-27 -45
-70 -113 -96 -151 -34 -49 -44 -72 -36 -77 18 -11 30 2 97 106 69 106 81 132
91 195 7 44 7 44 9 9 0 -20 -6 -56 -14 -79 -18 -51 -139 -238 -159 -246 -8 -3
-24 0 -35 6 -21 11 -20 13 32 88 65 95 147 234 148 253 1 8 3 7 6 -4 3 -10
-17 -54 -43 -100z m-844 -94 c76 -127 90 -154 133 -253 l24 -55 94 -19 c124
-25 303 -81 357 -113 52 -30 66 -60 49 -103 -12 -28 -14 -29 -35 -14 -13 9
-30 33 -38 54 -10 24 -25 42 -42 48 -69 27 -362 105 -369 99 -1 -1 5 -17 12
-35 16 -37 27 -42 180 -83 61 -16 124 -36 140 -44 17 -7 42 -16 57 -20 14 -4
34 -15 44 -26 17 -18 16 -19 -25 -19 -42 0 -332 90 -357 111 -10 8 -14 -3 -19
-48 -8 -71 -11 -83 -25 -83 -5 0 -10 23 -10 53 0 28 -7 65 -15 81 -8 15 -15
35 -15 43 0 26 -51 159 -89 235 -21 40 -63 121 -94 181 -32 59 -57 114 -57
122 0 39 31 4 100 -112z m-610 -223 c0 -5 -7 -7 -15 -4 -8 4 -15 8 -15 10 0 2
7 4 15 4 8 0 15 -4 15 -10z m-1233 -37 c-3 -10 -5 -4 -5 12 0 17 2 24 5 18 2
-7 2 -21 0 -30z m3070 -140 c-3 -10 -5 -4 -5 12 0 17 2 24 5 18 2 -7 2 -21 0
-30z m20 0 c-3 -10 -5 -4 -5 12 0 17 2 24 5 18 2 -7 2 -21 0 -30z m-1957 -68
c0 -8 -2 -15 -4 -15 -2 0 -6 7 -10 15 -3 8 -1 15 4 15 6 0 10 -7 10 -15z
m1897 -37 c-3 -7 -5 -2 -5 12 0 14 2 19 5 13 2 -7 2 -19 0 -25z m14 -31 c-6
-15 -17 -27 -26 -27 -17 0 -21 25 -5 35 6 4 7 -1 4 -12 -5 -16 -4 -16 10 1 9
11 17 31 17 45 1 21 2 22 6 5 2 -11 -1 -32 -6 -47z m-1747 -199 c10 -32 14
-101 5 -87 -7 12 -9 12 -9 -1 -1 -37 -20 17 -20 58 0 39 16 58 24 30z m516 8
c0 -2 3 -11 6 -20 4 -11 0 -16 -12 -16 -16 0 -17 2 -4 10 13 9 7 14 -12 11 -5
0 -8 4 -8 9 0 6 7 10 15 10 8 0 15 -2 15 -4z m-449 -31 c8 19 9 19 6 1 -3 -29
-27 -33 -26 -4 1 20 2 21 7 3 l5 -20 8 20z m7591 -275 c81 -5 177 -9 215 -8
l68 2 -80 6 -80 6 65 2 c71 2 184 -13 209 -28 11 -7 5 -8 -19 -4 l-35 5 30
-16 c17 -8 21 -13 10 -9 -64 19 -496 49 -650 45 -358 -9 -1014 -128 -1385
-251 -250 -82 -446 -156 -539 -201 -89 -43 -108 -49 -130 -40 -14 6 -51 15
-81 20 -112 20 -248 52 -372 87 -172 48 -318 73 -470 81 -131 6 -534 -10 -668
-27 -41 -6 -120 -15 -175 -20 -115 -12 -347 -51 -340 -58 2 -2 40 1 85 7 44 7
129 16 188 22 110 9 828 34 962 32 107 -1 264 -36 535 -118 102 -31 136 -37
222 -39 70 -1 94 -4 75 -9 -62 -18 -202 5 -397 66 -176 56 -336 89 -435 90
-133 2 -852 -23 -964 -32 -60 -6 -142 -15 -183 -21 -41 -7 -81 -9 -90 -6 -8 4
-110 -9 -227 -28 -116 -19 -260 -40 -321 -45 -160 -15 -578 -33 -660 -29 -61
4 -56 4 31 6 475 9 763 39 1227 126 100 19 229 39 287 45 58 6 139 15 180 21
130 16 534 33 662 27 149 -7 311 -35 478 -82 119 -34 164 -44 368 -86 52 -10
97 -21 101 -24 5 -2 44 14 87 36 87 45 88 45 319 125 374 130 502 166 790 223
365 73 795 125 930 114 17 -2 96 -7 177 -13z m-8276 -242 l-5 -73 14 75 14 75
-6 -69 c-5 -71 -21 -133 -23 -91 0 17 -2 18 -11 5 -8 -12 -9 -11 -5 5 2 11 8
48 11 83 9 86 17 78 11 -10z m734 -22 c0 -12 -5 -7 -19 24 -11 24 -11 24 3 6
9 -11 16 -24 16 -30z m95 -232 c40 -140 95 -263 171 -380 49 -76 57 -85 131
-123 43 -23 128 -59 188 -81 61 -21 101 -39 90 -40 l-20 -1 20 -9 c46 -20 -11
-8 -101 21 -53 17 -97 29 -99 27 -1 -2 8 -45 21 -97 26 -104 67 -199 115 -266
25 -35 29 -47 20 -58 -9 -11 -8 -17 1 -24 32 -25 78 -41 140 -48 37 -3 71 -11
74 -17 4 -6 -1 -8 -12 -4 -11 3 -49 10 -85 15 -77 11 -101 21 -146 64 -33 31
-43 57 -22 57 5 0 7 -6 3 -12 -4 -7 -3 -10 1 -5 5 4 17 0 27 -10 27 -24 22 -6
-8 29 -33 40 -66 107 -92 188 -26 80 -52 193 -46 199 3 3 42 -7 87 -22 123
-40 128 -32 7 12 -58 20 -138 55 -179 76 -68 35 -78 45 -126 119 -100 155
-208 458 -204 573 1 15 7 -6 14 -48 7 -41 20 -102 30 -135z m-843 147 c24 -10
68 -30 98 -44 30 -13 73 -30 95 -37 22 -7 78 -31 125 -54 131 -65 188 -84 270
-90 169 -14 167 -13 184 -64 21 -60 20 -76 -1 -69 -166 47 -165 47 -435 49
-200 1 -277 -2 -323 -13 -58 -14 -59 -15 -71 -59 -9 -38 -12 -41 -15 -20 l-5
25 -5 -27 -6 -26 61 3 c34 2 175 7 314 11 184 4 251 9 243 17 -16 16 -14 52 4
67 21 17 74 8 193 -35 62 -23 102 -43 102 -51 0 -18 4 -18 -86 11 -73 24 -78
24 -96 8 -10 -9 -15 -20 -11 -24 5 -3 49 -21 98 -39 121 -45 149 -64 197 -140
22 -36 54 -79 71 -97 l30 -32 -7 -165 -6 -164 29 -44 c16 -24 38 -50 48 -59
10 -9 81 -36 158 -62 209 -68 211 -69 218 -114 3 -21 8 -52 12 -69 l7 -31
-154 -32 c-337 -71 -730 -168 -684 -170 10 -1 44 6 75 14 31 8 178 35 326 60
149 25 290 51 315 56 25 6 66 14 92 18 56 9 45 37 93 -245 57 -341 46 -313
195 -469 48 -49 102 -115 121 -145 37 -58 129 -217 129 -222 0 -2 -51 -3 -112
-3 -101 -1 -127 -5 -241 -38 -71 -21 -163 -51 -205 -68 -42 -16 -80 -29 -85
-29 -5 0 -23 -6 -40 -14 -18 -8 -61 -27 -97 -42 -122 -52 -394 -195 -467 -244
-39 -27 -80 -50 -90 -52 -16 -3 -22 20 -50 192 -31 183 -77 369 -90 357 -3 -4
2 -57 11 -119 27 -189 54 -413 51 -416 -13 -13 -77 18 -119 58 -73 67 -129
102 -231 143 -135 53 -236 78 -407 98 -109 13 -424 7 -551 -10 -59 -8 -99 -3
-135 15 -15 8 133 471 159 496 22 22 36 88 44 213 12 185 63 400 102 432 9 7
10 13 4 17 -18 12 14 90 72 171 79 112 119 191 111 217 -6 21 -7 21 -20 -3
-16 -29 -18 -42 -3 -34 6 4 1 -11 -10 -34 -12 -23 -24 -41 -26 -41 -3 0 2 14
10 31 9 17 14 33 11 36 -2 3 -12 -10 -21 -28 -37 -71 -150 -232 -230 -328
-121 -145 -447 -510 -486 -546 -18 -16 5 12 51 64 94 103 119 133 330 377 229
265 274 333 414 609 79 158 111 252 171 510 28 122 35 140 53 143 15 2 25 15
32 40 14 53 13 62 -11 62 -18 0 -20 4 -16 33 4 17 13 84 22 147 9 63 18 130
21 148 6 37 16 39 76 13z m1857 -100 c26 -15 58 -32 71 -36 13 -4 48 -20 77
-35 53 -27 58 -28 286 -35 212 -6 346 -2 572 21 33 4 57 3 54 0 -3 -3 -91 -13
-195 -22 -143 -12 -247 -14 -428 -9 l-240 7 -130 64 c-72 34 -132 61 -134 59
-10 -10 10 -36 45 -58 81 -50 138 -66 274 -79 181 -18 696 -16 729 2 17 9 97
16 240 22 240 10 514 44 775 98 l40 8 -39 1 c-22 1 -37 4 -34 7 4 3 39 2 80
-2 l73 -8 -80 -12 c-44 -6 -118 -19 -165 -28 -204 -38 -446 -66 -650 -74 -143
-6 -223 -13 -240 -22 -18 -10 -95 -13 -309 -14 -437 -2 -594 19 -706 93 -28
18 -41 35 -43 54 -4 36 17 35 77 -2z m-1029 -111 c7 -27 16 -48 20 -45 5 3 6
-5 2 -17 -3 -13 -1 -19 5 -15 7 5 9 -1 5 -15 -4 -16 -2 -19 8 -13 9 5 11 4 6
-4 -10 -16 3 -53 16 -45 6 4 8 2 5 -3 -9 -14 17 -76 27 -66 4 4 4 -1 0 -12 -7
-16 -13 -9 -36 40 -31 67 -91 258 -78 250 4 -3 13 -27 20 -55z m2463 43 c-7
-2 -21 -2 -30 0 -10 3 -4 5 12 5 17 0 24 -2 18 -5z m-90 -10 c-7 -2 -21 -2
-30 0 -10 3 -4 5 12 5 17 0 24 -2 18 -5z m-590 -10 c-7 -2 -19 -2 -25 0 -7 3
-2 5 12 5 14 0 19 -2 13 -5z m587 -43 c-83 -10 -301 -18 -294 -11 5 5 209 17
314 18 35 0 30 -1 -20 -7z m2260 -244 c0 -2 -8 -10 -17 -17 -16 -13 -17 -12
-4 4 13 16 21 21 21 13z m-337 -53 c-7 -2 -19 -2 -25 0 -7 3 -2 5 12 5 14 0
19 -2 13 -5z m-373 -77 c0 -3 -23 -31 -51 -63 -28 -32 -81 -103 -117 -158
l-67 -100 1 -120 c0 -99 4 -129 22 -175 12 -30 22 -64 21 -75 0 -11 -9 5 -19
35 -11 30 -17 43 -15 28 3 -16 7 -40 10 -55 2 -16 -7 6 -21 47 -21 60 -26 98
-29 185 l-2 110 6 -95 7 -95 2 93 c1 55 8 107 17 129 18 42 18 43 6 43 -5 0
-12 -14 -16 -31 -4 -17 -9 -28 -11 -26 -16 15 64 247 84 247 26 -1 26 -19 0
-60 -15 -24 -28 -37 -28 -30 -1 11 -3 10 -11 -3 -6 -10 -8 -25 -4 -34 4 -12
15 -3 41 38 20 30 42 61 50 70 11 12 11 18 1 29 -10 12 -9 12 4 2 13 -9 21 -4
48 28 18 22 41 40 52 40 10 0 19 -2 19 -4z m-5885 -157 c-14 -30 -25 -49 -25
-43 0 17 41 106 46 101 2 -2 -7 -28 -21 -58z m2312 39 c-3 -8 -6 -5 -6 6 -1
11 2 17 5 13 3 -3 4 -12 1 -19z m-2346 -69 c-9 -22 -10 -22 -10 -3 -1 11 2 24
6 27 12 12 14 0 4 -24z m-61 -163 c0 -25 -88 -189 -133 -249 -79 -104 -189
-227 -241 -269 -28 -23 -71 -61 -96 -84 -72 -68 -150 -111 -240 -134 -45 -12
-85 -19 -88 -16 -3 4 3 6 14 7 18 0 18 1 -1 8 -17 7 -16 9 9 15 50 12 221 116
308 186 46 37 112 98 148 136 79 84 213 260 265 349 36 63 55 80 55 51z m2610
-257 c12 -9 11 -10 -5 -5 l-20 6 20 -16 c18 -15 18 -16 2 -10 -10 3 -21 6 -23
6 -2 0 -4 7 -4 15 0 18 9 19 30 4z m45 -29 c-3 -5 -1 -10 6 -10 7 0 10 -2 7
-5 -3 -3 -13 -2 -22 1 -14 5 -15 9 -4 15 17 11 20 11 13 -1z m138 -17 c-7 -2
-21 -2 -30 0 -10 3 -4 5 12 5 17 0 24 -2 18 -5z m-2122 -260 c-24 -45 -565
-658 -588 -667 -9 -4 17 28 58 71 91 96 406 455 479 546 54 68 69 82 51 50z
m-2591 -258 c0 -8 -8 -15 -17 -14 -13 0 -14 2 -4 6 11 5 11 7 0 14 -11 7 -10
9 4 9 9 0 17 -7 17 -15z m2481 -244 c-6 -10 -7 -21 -4 -25 3 -3 1 -6 -5 -6
-16 0 -15 23 0 38 17 17 20 15 9 -7z m4144 -172 c4 -17 5 -33 2 -35 -9 -9 -37
27 -37 47 0 31 28 22 35 -12z m2606 -77 c69 -12 139 -28 155 -36 16 -8 65 -22
109 -31 44 -10 114 -31 155 -47 70 -28 142 -47 610 -163 101 -25 236 -64 300
-86 325 -115 607 -182 930 -220 297 -35 315 -38 340 -47 25 -9 25 -9 -8 -17
-18 -4 -36 -4 -39 -1 -4 3 4 6 17 6 47 0 11 11 -66 20 -44 5 -153 18 -244 29
-336 40 -585 99 -930 219 -115 40 -188 60 -625 168 -126 31 -252 67 -280 79
-51 24 -199 65 -232 65 -10 0 -31 7 -48 16 -45 24 -251 56 -420 64 l-150 7
150 -2 c95 -1 196 -10 276 -23z m-3487 -24 c-3 -31 -3 -31 6 -8 8 22 9 20 4
-10 -2 -19 -7 -62 -11 -95 l-5 -60 57 -70 c32 -38 80 -104 108 -145 28 -41 85
-120 127 -175 94 -122 180 -249 180 -264 0 -30 -32 -3 -83 72 -30 45 -88 120
-126 167 -39 47 -97 123 -128 169 -32 46 -81 114 -110 150 -46 58 -53 72 -53
112 0 41 15 146 25 177 8 22 12 13 9 -20z m3276 23 c27 -5 -5 -6 -80 -3 -69 3
-127 6 -129 8 -8 7 164 3 209 -5z m-8246 -373 c14 -46 30 -105 37 -132 l12
-49 -51 -49 c-28 -26 -58 -48 -66 -48 -28 0 -17 33 23 75 l39 40 -19 85 c-19
84 -22 160 -7 160 4 0 19 -37 32 -82z m-255 -230 c10 -25 25 -49 31 -53 7 -4
11 -4 8 1 -36 76 -49 108 -53 136 -5 28 -4 27 9 -9 7 -24 23 -59 35 -78 32
-56 25 -88 -12 -47 -21 23 -57 117 -56 145 1 14 4 10 9 -13 5 -20 18 -56 29
-82z m-1324 -689 c-4 -13 -18 -37 -31 -54 l-26 -30 18 35 c10 19 17 38 16 43
-1 4 3 7 8 7 5 0 10 8 10 17 0 9 2 14 5 11 4 -3 3 -16 0 -29z"/>
<path d="M5610 6239 c0 -5 9 -9 20 -9 11 0 20 2 20 4 0 2 -9 6 -20 9 -11 3
-20 1 -20 -4z"/>
<path d="M3484 6166 c-64 -30 -120 -79 -144 -126 -47 -93 -53 -324 -10 -435
26 -68 91 -139 131 -142 l25 -2 38 237 c21 130 50 286 63 345 24 103 24 109 7
128 -22 25 -48 24 -110 -5z m-4 -670 c0 -3 -4 -8 -10 -11 -5 -3 -10 -1 -10 4
0 6 5 11 10 11 6 0 10 -2 10 -4z"/>
<path d="M4936 6051 c16 -15 215 -92 227 -88 7 2 -13 12 -43 22 -30 10 -84 31
-118 47 -67 29 -83 34 -66 19z"/>
<path d="M4660 5920 c-6 -12 -9 -24 -7 -27 3 -2 11 5 17 17 6 12 9 24 7 27 -3
2 -11 -5 -17 -17z"/>
<path d="M4731 5914 c-21 -27 -28 -64 -12 -64 14 0 28 23 36 58 8 39 3 40 -24
6z"/>
<path d="M5797 5707 c-5 -34 -2 -59 8 -83 16 -38 32 -47 20 -11 -4 12 -10 49
-14 82 l-6 60 -8 -48z"/>
<path d="M5694 5616 c5 -37 12 -54 19 -45 2 2 -2 22 -10 44 l-13 40 4 -39z"/>
<path d="M3415 5160 c-4 -39 -5 -73 -2 -76 2 -3 8 27 11 67 4 39 5 73 3 76 -3
2 -8 -28 -12 -67z"/>
<path d="M3331 4623 c-12 -70 -61 -303 -107 -517 -46 -215 -83 -394 -81 -399
3 -9 45 180 133 586 45 209 86 435 82 448 -2 6 -14 -47 -27 -118z"/>
<path d="M3101 3568 c-1 -25 -89 -294 -123 -376 -17 -40 -28 -75 -26 -78 15
-14 165 432 155 458 -4 8 -6 7 -6 -4z"/>
<path d="M5155 5263 c3 -12 29 -64 57 -115 28 -51 62 -113 76 -138 28 -52 102
-247 102 -271 0 -8 5 -20 11 -26 6 -6 14 -41 18 -79 l7 -69 7 63 c4 35 9 68
12 73 4 5 24 0 45 -11 21 -11 73 -29 115 -41 42 -11 95 -29 118 -40 40 -18
128 -27 113 -11 -10 9 -90 38 -196 69 -193 56 -211 64 -228 106 -8 21 -12 40
-10 43 7 6 156 -29 281 -67 56 -17 110 -33 119 -36 9 -3 22 -22 29 -42 16 -50
38 -67 56 -42 7 11 10 27 7 36 -19 49 -185 115 -399 160 -68 14 -111 27 -113
36 -23 70 -245 464 -227 402z m715 -598 c0 -8 -5 -15 -11 -15 -5 0 -8 4 -5 9
4 5 0 12 -6 14 -8 3 -6 6 5 6 9 1 17 -6 17 -14z"/>
<path d="M4683 4390 c0 -25 2 -35 4 -22 2 12 2 32 0 45 -2 12 -4 2 -4 -23z"/>
<path d="M12648 4113 c12 -2 30 -2 40 0 9 3 -1 5 -23 4 -22 0 -30 -2 -17 -4z"/>
<path d="M5405 2630 c3 -5 11 -10 16 -10 6 0 7 5 4 10 -3 6 -11 10 -16 10 -6
0 -7 -4 -4 -10z"/>
<path d="M3996 3768 c-2 -13 -12 -79 -21 -148 -9 -69 -19 -136 -22 -149 -6
-24 -5 -24 43 -18 27 4 87 14 134 22 69 13 127 15 310 9 214 -6 297 -17 384
-50 16 -6 18 -4 12 19 -11 44 -25 77 -33 77 -5 0 -64 7 -133 14 -129 14 -146
19 -305 96 -44 22 -102 47 -130 56 -49 16 -164 65 -197 84 -27 15 -37 12 -42
-12z"/>
<path d="M4599 3434 c-10 -12 -10 -20 -1 -35 7 -10 12 -23 12 -28 0 -5 -111
-12 -252 -15 -269 -6 -413 -17 -427 -32 -4 -5 -27 -87 -49 -181 -57 -232 -86
-322 -138 -426 -25 -48 -42 -93 -38 -99 4 -7 3 -8 -4 -4 -14 8 -15 -3 -3 -22
6 -10 11 -5 20 17 7 16 10 35 5 42 -4 7 -3 10 4 5 6 -3 15 9 22 30 7 19 14 33
17 31 8 -8 -99 -258 -122 -286 -77 -91 -147 -222 -127 -235 12 -7 222 -35 392
-51 91 -9 189 -18 218 -21 39 -4 55 -10 60 -24 7 -17 89 -88 141 -122 39 -25
65 -22 138 17 76 40 83 42 83 16 0 -20 -73 -73 -128 -92 -51 -17 -114 11 -202
92 -73 66 -76 68 -140 74 -107 9 -216 24 -395 52 -126 20 -162 29 -140 34 29
6 29 7 4 8 -33 1 -42 -9 -72 -89 -30 -80 -53 -212 -62 -349 -8 -115 -28 -208
-50 -225 -16 -13 -83 -204 -121 -346 -14 -52 -28 -103 -30 -112 -4 -13 0 -18
13 -18 11 0 23 -4 28 -9 6 -6 36 -6 80 0 39 5 156 12 260 15 270 10 436 -12
645 -82 137 -47 209 -86 285 -155 56 -50 101 -78 109 -67 2 1 -10 100 -25 218
-16 118 -31 239 -35 268 -6 43 -4 52 9 52 27 0 69 -170 117 -477 7 -40 16 -73
20 -73 5 0 44 24 88 53 68 46 356 195 462 240 118 49 301 114 438 154 111 32
141 37 233 38 l106 0 -17 25 c-29 41 -110 182 -110 190 0 4 -52 62 -116 130
-63 68 -121 135 -128 149 -18 36 -30 93 -71 336 -19 116 -37 216 -40 223 -6
16 -39 15 -117 -3 -35 -8 -183 -34 -329 -59 -414 -71 -463 -85 -520 -147 -20
-22 -28 -26 -37 -17 -9 9 -2 22 30 55 23 24 49 43 58 43 11 -1 10 -4 -5 -12
-29 -16 -75 -60 -75 -72 0 -5 17 6 38 26 20 20 50 40 67 44 24 6 26 8 11 14
-29 10 300 94 703 179 79 17 146 32 148 34 7 8 -21 113 -34 123 -12 10 -189
74 -292 105 -56 17 -83 39 -115 94 l-27 45 7 160 7 161 -30 32 c-17 18 -49 61
-71 97 -23 36 -51 71 -63 78 -53 33 -89 50 -161 76 -78 28 -91 42 -63 66 22
18 18 35 -10 48 -36 17 -70 15 -86 -4z"/>
<path d="M3992 3420 c0 -14 2 -19 5 -12 2 6 2 18 0 25 -3 6 -5 1 -5 -13z"/>
<path d="M4720 3416 c0 -2 30 -14 68 -26 37 -11 74 -24 82 -27 10 -4 12 -2 5
4 -5 6 -39 20 -74 32 -65 21 -81 24 -81 17z"/>
<path d="M3610 2160 c64 -14 371 -57 464 -65 l79 -6 83 -74 c99 -88 143 -106
195 -80 54 29 109 67 109 77 0 5 -29 -7 -63 -27 -100 -55 -141 -46 -252 60
l-70 67 -105 9 c-58 5 -163 15 -235 23 -71 8 -157 17 -190 20 -58 5 -58 5 -15
-4z"/>
<path d="M8730 3113 c-29 -32 -69 -82 -88 -111 -26 -38 -38 -49 -47 -42 -9 8
-14 4 -17 -14 -9 -48 19 -33 65 34 26 38 70 94 98 124 29 31 49 59 47 62 -3 2
-29 -21 -58 -53z"/>
<path d="M8626 3066 c-9 -14 -16 -31 -16 -38 0 -7 9 2 21 21 23 39 20 54 -5
17z"/>
<path d="M8561 2629 c0 -13 4 -33 9 -44 7 -14 8 -8 3 20 -7 46 -13 59 -12 24z"/>
<path d="M2782 2767 c-40 -78 -175 -259 -262 -351 -72 -77 -200 -184 -267
-223 -24 -13 -41 -29 -37 -34 3 -5 -1 -6 -9 -3 -8 3 -37 -9 -64 -25 -28 -17
-59 -31 -69 -32 -10 0 -13 -3 -7 -6 22 -8 125 28 182 64 194 124 471 434 553
619 29 68 17 62 -20 -9z"/>
<path d="M7510 1598 c0 -9 5 -20 10 -23 13 -8 13 5 0 25 -8 13 -10 13 -10 -2z"/>
<path d="M6636 1414 c-13 -101 -9 -118 42 -181 27 -32 75 -96 107 -143 32 -47
101 -139 152 -205 52 -66 109 -143 126 -172 18 -29 35 -53 40 -53 15 0 -25 62
-116 181 -51 66 -127 171 -171 232 -43 62 -101 139 -129 172 l-49 60 6 77 c7
86 2 105 -8 32z"/>
<path d="M1650 1173 c0 -16 9 -68 20 -118 l20 -89 -42 -43 c-59 -60 -40 -66
23 -6 l51 49 -32 117 c-18 64 -34 117 -36 117 -2 0 -4 -12 -4 -27z"/>
<path d="M7540 1847 c0 -1 14 -45 30 -97 34 -106 97 -406 134 -637 44 -269 88
-390 208 -573 42 -63 106 -151 143 -195 109 -130 205 -283 205 -326 0 -18 64
-19 2270 -19 l2270 0 0 405 c0 379 -1 405 -17 406 -16 0 -15 2 2 10 16 8 15 8
-8 4 -15 -3 -61 1 -102 10 -41 8 -141 24 -222 35 -314 41 -370 50 -433 70 -36
11 -128 36 -205 56 -220 56 -333 89 -630 185 -71 23 -170 52 -220 66 -49 13
-124 33 -165 45 -41 11 -111 28 -155 38 -44 10 -125 33 -180 50 -233 72 -434
97 -585 72 -119 -19 -416 -27 -503 -13 -102 17 -218 59 -308 112 -122 74 -208
103 -261 88 -14 -4 -73 -12 -130 -19 -117 -13 -294 -2 -388 25 -30 9 -86 22
-125 30 -103 20 -320 79 -475 130 -128 42 -150 49 -150 42z"/>
<path d="M6122 1077 c5 -23 31 -94 58 -157 90 -211 154 -470 170 -693 6 -72
12 -154 14 -182 2 -27 2 29 0 125 -2 123 -9 204 -23 273 -25 123 -90 339 -132
437 -17 41 -42 100 -55 130 -13 30 -24 65 -24 77 0 12 -4 24 -9 27 -5 3 -5
-12 1 -37z"/>
<path d="M1506 558 c-4 -29 -25 -165 -47 -302 -22 -136 -38 -250 -35 -253 6
-6 21 72 50 267 41 273 49 331 44 336 -3 2 -8 -19 -12 -48z"/>
</g>
</svg>
