<?xml version="1.0" standalone="no"?>
<!DOCTYPE svg PUBLIC "-//W3C//DTD SVG 20010904//EN"
 "http://www.w3.org/TR/2001/REC-SVG-20010904/DTD/svg10.dtd">
<svg version="1.0" xmlns="http://www.w3.org/2000/svg"
 width="1280.000000pt" height="720.000000pt" viewBox="0 0 1280.000000 720.000000"
 preserveAspectRatio="xMidYMid meet">
<metadata>
Created by potrace 1.16, written by Peter Selinger 2001-2019
</metadata>
<g transform="translate(0.000000,720.000000) scale(0.100000,-0.100000)"
fill="#000000" stroke="none">
<path d="M0 3668 c0 -3184 2 -3531 15 -3517 9 9 33 43 53 77 20 35 103 165
183 290 178 276 229 362 230 388 0 10 10 39 22 63 18 37 30 47 67 59 80 26 95
38 92 69 -4 31 -26 116 -47 178 -30 88 -28 103 13 130 20 13 51 29 67 35 l30
10 18 138 c45 348 54 400 76 435 20 32 67 75 116 104 84 50 260 92 650 154
388 62 435 69 506 69 l66 0 84 118 c106 148 255 442 354 697 25 66 52 134 59
150 7 17 44 120 80 230 37 110 74 214 82 232 8 17 14 37 14 45 0 8 4 18 8 23
45 51 104 391 127 730 2 39 9 140 16 225 6 85 8 184 5 220 -20 213 -2 944 30
1200 43 353 175 699 345 908 l59 72 -1710 0 -1710 0 0 -3532z"/>
<path d="M3366 7112 c-173 -220 -298 -549 -340 -892 -32 -255 -50 -987 -30
-1200 3 -36 1 -135 -5 -220 -7 -85 -14 -186 -16 -225 -13 -184 -36 -373 -66
-535 -17 -91 -46 -180 -96 -297 -7 -17 -13 -36 -13 -42 0 -6 -4 -19 -10 -29
-5 -9 -30 -80 -56 -157 -146 -437 -336 -853 -484 -1059 l-84 -116 -70 0 c-76
0 -120 -6 -511 -69 -368 -58 -555 -101 -625 -144 -126 -76 -152 -118 -174
-287 -9 -69 -23 -170 -31 -225 -8 -55 -15 -116 -15 -136 0 -31 -4 -38 -26 -43
-14 -4 -44 -19 -66 -33 -37 -25 -39 -29 -35 -67 3 -23 16 -79 30 -126 33 -114
39 -148 25 -156 -6 -4 -38 -17 -72 -29 -51 -18 -65 -28 -83 -61 -12 -21 -22
-50 -22 -64 -1 -14 -21 -58 -45 -97 -24 -39 -45 -75 -47 -81 -2 -5 -67 -106
-144 -225 -77 -119 -156 -243 -175 -275 -19 -32 -45 -71 -57 -86 -18 -22 -23
-42 -23 -82 l0 -54 1561 0 c1483 0 1561 1 1554 18 -4 9 -16 82 -27 162 -32
236 -18 456 41 645 11 33 24 81 31 108 12 45 40 67 40 30 0 -15 -2 -15 -9 -4
-7 11 -12 2 -21 -30 -7 -24 -21 -73 -32 -109 -57 -195 -71 -387 -44 -615 18
-147 31 -205 47 -205 11 0 12 -14 -12 169 -22 166 -22 389 0 516 15 92 54 256
58 251 2 -2 -7 -57 -20 -122 -14 -66 -30 -146 -36 -180 -17 -94 -13 -306 9
-470 11 -82 20 -152 20 -156 0 -5 729 -8 1620 -8 l1620 0 0 143 c0 217 -15
340 -75 627 -5 23 -5 23 4 4 12 -27 47 -194 62 -294 6 -41 14 -167 18 -280 l8
-205 1 160 c2 228 -29 476 -82 645 -11 34 -15 39 -16 20 -1 -17 -7 -8 -19 30
-10 30 -33 90 -51 133 -18 43 -30 80 -27 83 2 2 15 -23 27 -56 12 -33 25 -59
27 -56 3 2 -8 36 -23 75 -18 46 -31 67 -36 59 -6 -10 -8 -10 -8 -1 0 34 23 17
46 -34 111 -246 174 -570 174 -895 l0 -158 851 0 851 0 -4 66 c-4 66 -4 67
-61 119 -31 29 -61 64 -67 77 -12 26 -32 58 -73 114 -84 115 -249 464 -219
464 4 0 9 -11 10 -25 3 -43 172 -372 226 -440 17 -22 40 -58 51 -79 11 -22 43
-63 72 -90 59 -58 73 -87 73 -157 l0 -49 2330 0 2330 0 0 399 c0 337 -2 400
-14 404 -8 3 -43 9 -78 12 -35 3 -94 12 -133 20 -38 7 -110 21 -160 30 -260
47 -601 136 -810 210 -170 61 -293 102 -465 154 -91 28 -178 56 -195 62 -101
37 -345 109 -416 123 -117 23 -222 47 -236 55 -7 4 5 6 27 6 21 0 34 -2 29 -6
-12 -7 66 -29 103 -29 53 0 307 -74 673 -194 39 -13 104 -34 145 -46 124 -37
223 -70 265 -89 141 -64 582 -182 880 -236 50 -9 122 -23 160 -30 39 -8 98
-17 133 -20 35 -3 70 -9 78 -12 10 -4 14 2 14 21 0 14 -6 26 -12 26 -37 1
-329 48 -468 76 -41 8 -109 21 -150 29 -253 47 -562 123 -554 137 4 5 10 5 17
0 12 -10 271 -73 452 -110 92 -19 235 -46 455 -86 81 -14 231 -36 251 -36 5 0
9 633 9 1625 l0 1625 -102 0 c-222 -1 -534 -19 -593 -34 -33 -8 -105 -24 -160
-34 -55 -11 -147 -29 -205 -41 -58 -11 -202 -39 -320 -60 -295 -55 -443 -87
-525 -115 -38 -13 -106 -34 -150 -46 -137 -38 -333 -99 -520 -162 -155 -51
-382 -121 -520 -159 -22 -6 -88 -27 -148 -46 -104 -33 -116 -35 -370 -48 -144
-8 -280 -12 -302 -10 -32 4 -35 3 -15 -4 l25 -9 -27 -1 c-17 -1 -28 4 -28 12
0 23 232 52 495 62 158 7 162 7 270 49 61 24 146 55 190 71 44 15 94 33 110
40 47 20 157 55 174 55 9 0 -18 -12 -59 -26 -104 -35 -321 -113 -345 -123 -11
-5 -38 -16 -60 -25 -136 -52 162 29 470 128 386 124 462 151 458 166 -4 13 -3
13 5 1 11 -16 3 -18 227 49 55 16 118 36 140 43 51 19 232 57 505 108 118 21
260 48 315 59 55 11 150 30 210 41 61 12 117 23 125 26 55 21 192 32 458 39
149 4 272 10 272 15 0 9 -290 16 -470 12 -52 -2 -131 -9 -175 -17 -44 -8 -91
-17 -105 -19 -14 -3 -95 -19 -180 -36 -85 -17 -213 -43 -285 -56 -154 -30
-169 -33 -390 -86 -93 -22 -229 -51 -300 -64 -72 -13 -229 -54 -350 -91 -121
-36 -236 -71 -255 -76 -19 -6 -39 -13 -45 -18 -21 -15 -106 -30 -123 -22 -9 5
-42 12 -72 15 -30 3 -111 20 -180 37 -188 48 -233 57 -375 75 -71 9 -159 25
-195 36 -122 37 -558 47 -840 19 -147 -15 -356 -54 -510 -95 -55 -14 -55 -14
-10 -10 25 3 115 14 200 25 217 28 438 40 770 40 282 0 331 -4 600 -44 52 -8
133 -20 180 -27 47 -6 140 -24 206 -40 67 -16 132 -29 145 -29 13 0 31 -5 39
-10 20 -13 -18 -7 -185 30 -71 15 -166 34 -210 40 -44 6 -123 18 -175 26 -309
46 -319 47 -725 41 -477 -7 -739 -32 -975 -96 -158 -42 -297 -57 -685 -71
-137 -5 -268 -12 -290 -15 l-40 -5 35 10 c19 5 152 14 295 20 375 14 502 27
668 66 90 22 79 29 -14 10 -114 -23 -341 -44 -589 -56 -124 -6 -260 -15 -304
-20 -43 -5 -83 -7 -88 -4 -5 3 -73 6 -151 6 -85 0 -147 4 -155 10 -8 7 -11 27
-7 62 28 239 51 323 100 360 35 27 65 96 65 150 0 43 -23 121 -53 182 -14 27
-30 70 -37 95 -6 24 -14 53 -17 63 -4 14 -19 -8 -53 -81 -26 -56 -66 -132 -88
-170 -52 -88 -147 -193 -175 -193 -12 0 -37 -15 -57 -34 -43 -43 -131 -79
-168 -70 -15 4 -53 20 -84 35 -69 35 -191 74 -398 128 -85 23 -180 50 -210 60
-41 14 -61 16 -78 8 -28 -13 -56 11 -119 105 -25 37 -53 70 -62 73 -12 4 -21
26 -29 79 -23 131 -111 281 -224 380 -45 39 -59 46 -94 46 -35 0 -47 -5 -68
-31 -33 -39 -34 -81 -2 -152 23 -53 37 -109 75 -297 l19 -95 1 63 c1 44 5 61
14 60 15 -4 27 -136 14 -159 -7 -11 12 -57 68 -170 43 -85 90 -172 105 -194
39 -59 50 -99 50 -189 0 -116 24 -264 49 -314 61 -120 152 -225 224 -258 17
-9 48 -24 67 -34 19 -11 42 -19 50 -20 22 -1 168 -49 150 -49 -8 -1 -44 8 -78
19 -100 31 -106 29 -99 -29 8 -65 50 -190 93 -276 67 -133 168 -229 252 -240
56 -7 123 -25 136 -37 6 -4 18 -8 27 -8 17 0 82 -24 284 -105 164 -66 307
-114 535 -180 124 -35 244 -71 268 -79 23 -8 88 -27 144 -41 57 -15 112 -30
123 -35 19 -9 128 -40 208 -61 21 -5 45 -13 55 -18 9 -6 105 -31 212 -56 107
-26 260 -62 340 -81 133 -32 240 -66 265 -85 17 -12 325 -70 407 -76 60 -5 88
-2 123 12 52 19 210 19 223 -1 4 -6 34 -26 67 -44 193 -107 221 -114 475 -108
107 2 175 1 150 -3 -32 -4 -36 -6 -16 -7 16 -1 27 -3 25 -5 -2 -2 -96 -1 -209
3 -235 8 -277 18 -407 96 -41 25 -77 44 -79 41 -7 -6 93 -70 166 -105 80 -39
145 -52 269 -52 53 -1 134 -7 181 -15 52 -9 64 -13 30 -10 -30 3 -127 9 -215
14 -193 11 -263 32 -389 119 -89 62 -177 78 -261 47 -48 -17 -149 -19 -231 -5
-138 25 -305 63 -389 90 -49 15 -117 34 -150 40 -121 24 -376 86 -535 129 -41
11 -76 21 -77 21 -2 0 15 -23 36 -51 54 -71 102 -222 156 -489 26 -124 52
-250 60 -280 23 -93 57 -315 52 -341 -4 -20 -4 -19 -6 7 -2 44 -38 253 -61
354 -11 47 -37 175 -60 285 -22 110 -48 223 -59 250 -10 28 -24 68 -31 90 -10
33 -49 99 -95 161 -19 25 4 25 102 -1 168 -46 365 -93 528 -127 28 -5 91 -23
140 -39 50 -16 100 -29 110 -28 14 0 16 2 5 6 -8 3 -46 18 -85 33 -67 27 -131
44 -555 145 -107 26 -211 52 -230 60 -19 7 -66 22 -105 33 -38 11 -108 32
-155 46 -47 14 -114 32 -150 41 -36 9 -96 27 -135 40 -38 13 -159 49 -267 80
-216 61 -322 98 -593 204 -99 39 -187 71 -196 71 -9 0 -30 7 -47 16 -17 8 -62
20 -99 26 -146 23 -249 142 -333 388 -18 52 -33 118 -34 145 -1 53 -4 56 -91
98 -76 36 -179 156 -228 266 -24 54 -47 208 -47 318 0 87 -8 113 -51 178 -27
42 -162 311 -190 380 -9 22 -24 85 -34 140 -24 134 -51 238 -75 285 -24 47
-26 100 -5 140 19 37 43 50 93 50 30 0 48 -8 82 -37 24 -20 41 -31 38 -23 -2
8 -21 28 -42 44 -30 25 -46 31 -81 29 -55 -2 -81 -16 -101 -54 -21 -42 -14
-118 19 -194 14 -33 30 -87 36 -120 46 -268 44 -259 106 -389 37 -77 40 -121
8 -133 -19 -7 -162 40 -234 76 -302 154 -339 175 -339 194 0 11 9 83 20 161
11 77 31 265 45 416 29 310 49 453 98 686 23 106 41 171 55 190 12 16 69 146
127 289 59 143 115 279 126 302 10 24 19 45 19 48 0 11 142 300 150 305 5 3
12 19 16 35 4 17 15 41 26 54 10 13 18 29 18 35 0 6 13 27 28 46 16 19 34 50
41 68 22 52 65 82 119 82 91 0 173 -20 249 -60 41 -22 79 -40 84 -40 4 0 23
13 41 29 47 41 92 61 134 61 32 0 44 -9 110 -77 l75 -78 24 -105 c13 -58 45
-166 70 -240 26 -74 58 -166 71 -205 74 -222 105 -299 171 -422 25 -48 54
-103 64 -122 13 -23 15 -38 9 -46 -5 -7 -6 -16 -2 -20 4 -5 2 -6 -3 -2 -14 7
-49 -19 -36 -28 6 -3 19 -1 29 4 11 6 23 7 27 3 4 -4 4 4 1 18 -4 14 9 -2 28
-35 20 -33 36 -64 36 -68 0 -4 17 -31 38 -60 126 -174 221 -400 241 -572 22
-187 16 -214 -105 -460 -70 -143 -112 -205 -250 -365 -111 -130 -148 -140
-270 -75 -56 30 -159 64 -349 116 -82 22 -179 49 -215 59 -36 11 -86 24 -112
31 -40 10 -52 19 -94 75 -25 36 -59 75 -74 87 -19 16 -31 42 -44 91 -9 37 -30
97 -46 132 -39 87 -125 194 -155 193 -5 0 1 -10 15 -22 80 -69 151 -202 179
-331 12 -53 23 -81 33 -85 17 -6 78 -84 78 -99 0 -4 17 -24 38 -44 28 -27 42
-34 57 -28 11 4 44 -1 80 -12 33 -11 132 -39 220 -62 184 -49 351 -102 380
-120 11 -7 40 -20 64 -30 41 -16 46 -16 90 0 25 10 64 34 86 56 23 21 50 38
61 38 11 0 35 15 53 34 32 33 32 34 11 41 -12 4 -19 9 -17 12 3 2 14 0 24 -6
17 -8 25 -3 55 37 29 38 128 206 128 217 0 2 20 46 45 99 25 53 45 100 45 104
0 4 28 25 61 47 66 44 108 95 169 206 65 118 81 159 95 244 8 44 30 126 50
182 61 176 113 451 124 663 l8 135 1 -98 c3 -162 -57 -510 -119 -687 -22 -63
-47 -155 -55 -204 -10 -62 -26 -112 -53 -165 -91 -181 -130 -234 -209 -285
-75 -48 -98 -93 -76 -153 7 -21 13 -44 14 -52 0 -7 14 -43 31 -79 37 -77 59
-152 59 -204 0 -48 -42 -143 -70 -158 -12 -6 -30 -31 -41 -54 -20 -46 -46
-193 -51 -291 l-3 -60 110 -1 c61 -1 139 -3 175 -5 36 -1 142 3 235 9 94 7
247 17 340 22 225 13 380 34 550 75 296 71 383 87 555 105 281 28 712 18 846
-19 39 -11 125 -27 190 -36 148 -19 142 -18 358 -71 98 -24 198 -44 222 -44
23 0 46 -5 49 -11 8 -12 54 -4 100 16 72 32 552 168 670 190 72 13 204 42 295
64 171 41 254 58 525 111 88 16 203 39 255 50 266 55 261 54 553 51 l277 -2 0
1520 0 1521 -3030 0 c-1667 0 -3030 -2 -3030 -5 0 -3 13 -27 30 -53 42 -68 80
-155 135 -307 95 -264 137 -487 139 -740 1 -93 -1 -154 -4 -135 -4 30 -5 26
-11 -25 -3 -33 -3 -1 0 70 3 72 5 159 5 195 -2 72 -34 270 -65 399 -31 129
-115 356 -171 461 -28 52 -56 105 -62 117 l-11 23 -1645 0 -1645 0 -69 -88z
m84 53 c0 -8 -7 -15 -15 -15 -13 0 -14 3 -3 15 16 18 18 18 18 0z m2380 -384
c-9 -23 -9 -23 -4 9 4 28 3 32 -6 20 -10 -13 -11 -12 -6 3 3 10 6 24 7 30 0 7
5 1 10 -12 6 -16 6 -33 -1 -50z m-2102 -519 c10 -7 11 -19 3 -53 -5 -24 -12
-73 -16 -109 -3 -36 -8 -72 -10 -80 -2 -8 -18 -116 -35 -240 -17 -124 -33
-233 -36 -244 -5 -15 -13 -17 -46 -13 -63 8 -107 51 -158 153 l-45 89 1 115
c2 145 24 212 94 280 46 45 83 65 170 93 56 18 62 19 78 9z m3289 -464 c-2
-13 -4 -3 -4 22 0 25 2 35 4 23 2 -13 2 -33 0 -45z m-3413 -322 c-3 -15 -8
-25 -11 -23 -2 3 -1 17 3 31 3 15 8 25 11 23 2 -3 1 -17 -3 -31z m16 -13 c-11
-17 -11 -17 -6 0 3 10 7 26 7 35 1 15 2 15 6 0 2 -10 -1 -25 -7 -35z m-33
-195 c-15 -73 -34 -182 -43 -243 -54 -366 -241 -1219 -295 -1350 -5 -11 -15
-45 -23 -75 -8 -30 -33 -118 -56 -195 -23 -77 -44 -150 -47 -163 -8 -33 -25
-39 -18 -5 4 23 2 21 -14 -12 -23 -46 -27 -82 -6 -45 10 17 14 20 15 9 0 -22
-35 -65 -43 -53 -3 5 3 34 14 64 22 63 48 144 120 385 78 259 95 322 144 545
25 113 50 223 55 245 23 92 80 391 104 540 49 302 80 453 86 420 6 -27 7 -24
14 23 5 29 5 56 2 59 -3 4 -6 -7 -7 -23 0 -16 -3 -23 -6 -16 -3 7 -2 25 2 40
7 27 7 27 17 5 8 -16 4 -56 -15 -155z m2933 -27 c0 -5 3 -16 6 -25 4 -10 1
-16 -7 -16 -7 0 -9 3 -6 6 3 4 2 15 -4 25 -6 13 -6 19 1 19 5 0 10 -4 10 -9z
m165 -346 c-19 -36 -45 -47 -45 -20 0 9 9 26 21 38 18 19 19 19 13 3 -5 -14
-4 -17 4 -12 7 4 12 14 12 23 0 9 3 13 7 9 4 -4 -1 -22 -12 -41z m-81 -70 c-4
-8 -11 -15 -16 -15 -6 0 -5 6 2 15 7 8 14 15 16 15 2 0 1 -7 -2 -15z m16 -14
c-6 -12 -18 -20 -28 -20 -16 1 -16 2 0 6 9 2 20 13 23 24 4 11 9 18 12 16 2
-3 0 -15 -7 -26z m-25 -471 c49 -145 44 -206 -19 -254 -21 -16 -41 -45 -54
-81 -29 -76 -62 -236 -62 -302 l0 -53 -39 0 c-87 0 -246 22 -299 42 -30 11
-75 39 -99 61 -50 46 -59 37 -10 -10 41 -41 126 -80 214 -98 74 -16 377 -37
433 -30 100 12 133 14 127 9 -27 -28 -410 -20 -560 11 -106 22 -198 65 -231
107 -50 66 -24 81 33 19 22 -24 57 -46 93 -59 51 -19 211 -42 294 -42 34 0 34
0 34 48 0 61 33 221 61 299 13 33 35 71 54 88 18 17 38 41 45 54 15 30 7 96
-21 177 -26 73 -59 194 -58 214 0 8 9 -16 20 -55 10 -38 30 -104 44 -145z
m-1785 123 c0 -16 3 -39 7 -53 3 -14 3 -22 -1 -19 -4 3 -11 26 -16 50 l-9 44
2 -47 c1 -25 -1 -44 -5 -41 -5 2 -8 24 -8 49 0 32 4 44 15 44 10 0 15 -10 15
-27z m71 -2 c7 11 9 10 9 -3 0 -10 -7 -18 -15 -18 -8 0 -15 8 -14 18 0 12 2
13 6 3 5 -11 7 -11 14 0z m-707 -657 c81 -42 241 -105 324 -129 31 -9 62 -21
68 -26 15 -13 167 -37 281 -45 56 -4 106 -10 112 -13 6 -4 14 -36 18 -71 7
-73 21 -70 -127 -26 -46 14 -86 23 -89 21 -2 -3 4 -7 13 -11 21 -8 22 -67 1
-84 -10 -8 -30 -10 -58 -6 -30 4 -38 3 -27 -4 11 -7 5 -8 -20 -2 -19 4 -132 7
-250 7 -314 0 -430 -23 -430 -85 0 -53 -112 -414 -167 -540 -39 -90 -146 -294
-166 -319 -6 -7 -16 -21 -22 -31 -5 -9 -23 -37 -39 -60 -32 -48 -50 -104 -42
-126 4 -10 25 -14 78 -14 120 0 358 -20 433 -35 118 -25 142 -34 197 -78 104
-84 175 -127 208 -127 14 0 40 9 58 20 33 20 82 27 82 12 0 -15 -45 -51 -84
-67 -73 -31 -145 3 -298 136 l-53 47 -120 16 c-66 8 -187 20 -270 27 -82 6
-169 14 -192 18 -60 11 -52 41 -114 -419 -7 -47 -13 -97 -14 -111 -4 -37 -16
-73 -28 -80 -5 -4 -33 -76 -62 -160 -28 -85 -57 -167 -64 -183 -6 -16 -16 -47
-21 -70 -14 -61 -39 -133 -39 -117 -1 21 25 108 85 281 30 85 61 179 69 208 9
28 20 52 25 52 10 0 21 31 25 69 1 14 7 64 14 111 58 430 61 444 90 436 31 -9
97 -16 231 -26 74 -5 193 -17 264 -26 l128 -17 61 -51 c185 -157 232 -171 328
-100 41 30 14 33 -33 4 -70 -42 -136 -17 -287 109 -53 44 -73 53 -186 76 -74
15 -312 35 -430 35 -96 0 -102 5 -86 72 6 29 25 71 41 93 82 114 205 345 263
494 19 48 56 168 82 267 66 247 58 231 116 243 111 24 250 33 434 29 l193 -4
-10 27 c-14 41 4 69 45 68 29 -2 30 -2 5 -6 -38 -6 -51 -25 -39 -57 12 -29 55
-45 80 -29 22 14 27 61 7 69 -14 5 -24 34 -12 34 8 0 181 -48 199 -55 14 -6
17 -2 16 26 -2 84 0 82 -152 96 -160 15 -283 44 -412 98 -16 7 -48 18 -70 25
-22 7 -86 34 -141 61 -56 27 -106 49 -113 49 -6 0 -11 -15 -11 -32 0 -29 -13
-124 -35 -264 l-7 -41 103 24 c114 26 262 33 489 22 87 -4 57 -5 -95 -4 -224
3 -323 -6 -444 -41 -29 -8 -56 -13 -59 -10 -3 3 2 52 11 108 10 57 20 130 23
163 10 102 11 103 118 49z m6236 -149 c0 -16 -6 -25 -15 -25 -9 0 -15 9 -14
23 0 21 1 21 9 2 8 -19 9 -19 9 3 1 30 11 28 11 -3z m-5606 -265 c47 -15 197
-52 232 -57 22 -3 41 -17 60 -42 15 -21 45 -51 67 -67 l40 -29 -6 -226 -6
-226 32 -29 c39 -36 43 -38 239 -110 l157 -57 16 -73 c9 -41 14 -78 11 -83 -3
-5 -38 -16 -78 -26 -271 -63 -353 -83 -518 -127 -101 -27 -186 -51 -190 -55
-7 -8 25 -1 205 47 88 23 192 49 230 56 39 7 120 25 180 39 158 37 185 40 185
24 1 -8 7 -50 16 -94 8 -44 18 -127 23 -185 5 -58 21 -155 35 -216 27 -108 29
-113 91 -183 35 -40 90 -111 122 -157 144 -210 163 -239 163 -250 0 -7 -39
-19 -97 -29 -54 -9 -123 -23 -153 -31 -30 -7 -93 -20 -140 -29 -47 -8 -101
-19 -120 -24 -19 -5 -71 -19 -115 -30 -154 -38 -334 -128 -579 -285 -54 -35
-72 -52 -64 -59 8 -5 4 -6 -12 -2 -23 6 -24 5 -7 -9 18 -14 18 -15 -2 -25 -11
-6 -26 -11 -33 -11 -7 1 -2 7 11 14 17 9 20 15 11 21 -6 4 -17 2 -23 -4 -28
-28 -34 -9 -46 147 -10 146 -43 367 -56 380 -8 9 -6 -36 10 -163 15 -119 21
-356 9 -368 -11 -10 -46 13 -105 68 -134 127 -290 196 -600 265 -65 14 -539 8
-604 -8 -56 -14 -135 -22 -110 -12 11 5 70 16 132 24 125 18 522 22 582 7 20
-5 84 -21 142 -36 214 -53 339 -115 474 -235 l80 -72 3 108 c2 60 -4 177 -13
261 -17 146 -15 197 5 177 20 -20 69 -380 70 -512 l0 -32 28 17 c15 9 63 40
107 68 180 116 285 173 410 225 138 57 289 95 689 171 55 10 101 20 102 22 4
3 -37 65 -159 242 -33 46 -85 114 -118 151 -48 54 -63 80 -77 133 -36 128 -44
167 -52 276 -9 106 -35 274 -45 283 -2 2 -35 -3 -72 -11 -37 -9 -118 -27 -180
-41 -61 -14 -119 -26 -129 -26 -9 0 -47 -9 -83 -19 -36 -10 -147 -40 -246 -66
-191 -50 -206 -55 -245 -89 l-25 -21 20 23 c26 31 47 42 120 63 33 10 51 18
39 18 -42 2 -124 -30 -164 -64 -52 -43 -68 -46 -20 -3 42 36 102 65 162 77 24
5 126 31 228 59 102 27 246 64 320 81 206 48 260 63 266 72 2 5 1 26 -5 46 -5
21 -12 50 -15 65 -5 22 -18 31 -78 54 -40 15 -106 40 -146 56 -41 15 -79 28
-86 28 -24 0 -75 31 -100 61 l-25 30 6 222 6 222 -40 29 c-22 16 -52 47 -68
68 -16 21 -35 36 -41 34 -7 -3 -36 4 -64 15 -48 18 -139 41 -235 59 l-40 7 34
2 c19 0 48 -3 65 -9z m3812 -212 c-50 -58 -106 -156 -105 -184 0 -11 7 -2 14
18 21 58 155 238 155 209 0 -5 -16 -27 -36 -48 -93 -99 -141 -214 -130 -316 3
-33 3 -57 -1 -54 -3 4 -10 37 -14 75 l-8 67 3 -75 c2 -44 0 -67 -5 -55 -23 59
5 205 55 284 27 41 104 131 113 131 3 0 -16 -23 -41 -52z m-3185 -77 c35 -11
73 -21 84 -24 l20 -5 -20 -1 c-21 -1 -178 46 -159 48 7 1 40 -8 75 -18z
m-2481 -208 c0 -25 -49 -146 -88 -219 -48 -89 -129 -182 -219 -251 -163 -125
-364 -254 -396 -252 -6 0 8 10 33 22 108 54 398 265 465 338 51 55 94 118 129
186 40 81 30 87 -12 7 -79 -147 -149 -222 -327 -346 -161 -112 -251 -171 -274
-179 -41 -16 -14 3 253 180 55 37 146 109 189 150 71 67 160 202 192 289 27
77 35 92 45 92 5 0 10 -8 10 -17z m5560 -205 c8 -21 9 -21 9 -3 1 14 7 8 22
-20 24 -46 105 -132 131 -141 10 -3 18 -13 18 -22 0 -15 2 -15 10 -2 8 13 10
12 10 -4 0 -12 -5 -16 -16 -12 -9 3 -22 6 -30 6 -37 0 -146 127 -164 192 -10
33 -3 37 10 6z m-2993 -54 c-3 -3 -12 -4 -19 -1 -8 3 -5 6 6 6 11 1 17 -2 13
-5z m6 -21 c-7 -2 -19 -2 -25 0 -7 3 -2 5 12 5 14 0 19 -2 13 -5z m-880 -541
c20 10 21 10 8 -5 -18 -23 -53 -23 -44 0 4 11 8 12 11 5 3 -9 9 -9 25 0z
m-1179 -187 c-4 -8 -8 -15 -10 -15 -2 0 -4 7 -4 15 0 8 4 15 10 15 5 0 7 -7 4
-15z m-39 -162 c-4 -33 -3 -34 5 -13 l9 25 -2 -24 c-3 -33 -27 -40 -27 -8 0
25 9 57 15 57 2 0 2 -17 0 -37z m6753 -143 c22 -11 48 -20 57 -20 8 0 23 -4
33 -9 19 -11 213 -72 402 -126 139 -40 334 -99 395 -120 48 -16 526 -169 575
-184 l35 -11 -40 6 c-21 3 -147 41 -280 84 -326 107 -533 171 -704 220 -80 23
-192 57 -250 76 -111 36 -172 46 -86 14 68 -25 43 -25 -30 0 -70 24 -72 24
-72 4 0 -11 7 -14 26 -9 20 4 22 3 11 -5 -13 -8 -12 -10 5 -11 13 -1 15 -3 5
-5 -8 -3 -42 6 -75 20 -59 24 -83 46 -48 46 12 0 14 -3 6 -8 -9 -5 -1 -12 23
-21 19 -7 38 -10 41 -7 4 3 0 6 -8 6 -12 0 -12 2 0 9 9 6 -2 14 -38 26 -29 9
-51 23 -51 31 0 19 19 18 68 -6z m-123 -20 l-30 -8 30 -2 30 -2 -35 -9 c-78
-19 -272 -39 -290 -29 -10 6 -33 10 -51 10 -63 0 -22 9 66 15 50 3 128 12 175
19 47 8 96 14 110 14 22 0 22 -1 -5 -8z m-3332 -27 c-4 -10 -2 -14 5 -9 8 4 9
-19 5 -81 l-5 -88 34 -40 c19 -22 59 -76 88 -120 29 -44 77 -112 107 -151 29
-40 53 -74 53 -77 0 -3 19 -34 43 -69 44 -64 97 -162 97 -179 0 -24 -29 -5
-50 34 -37 65 -129 203 -198 296 -35 46 -75 105 -89 130 -15 25 -44 65 -64 88
-21 23 -41 54 -45 68 -8 31 0 188 10 204 11 17 16 13 9 -6z m2940 0 c-7 -2
-19 -2 -25 0 -7 3 -2 5 12 5 14 0 19 -2 13 -5z m775 -63 c7 -3 -2 -6 -21 -6
-19 1 -33 4 -31 8 2 3 -2 9 -8 12 -7 3 1 3 17 -1 17 -3 36 -9 43 -13z m-8688
-186 c9 26 50 -144 50 -206 0 -35 -6 -49 -27 -70 -35 -32 -71 -51 -83 -43 -19
12 -9 30 35 64 25 18 45 39 45 47 0 7 -6 41 -14 76 -14 62 -29 171 -19 133 6
-20 6 -20 13 -1z m-242 -206 c12 -24 32 -60 44 -80 24 -38 19 -60 -10 -42 -17
11 -64 98 -77 142 -11 39 20 25 43 -20z m-796 17 c0 -5 -5 -10 -11 -11 -8 -2
-7 -1 0 3 8 4 7 8 -2 15 -11 8 -11 9 -1 6 8 -2 14 -8 14 -13z m3236 -22 c-10
-2 -26 -2 -35 0 -10 3 -2 5 17 5 19 0 27 -2 18 -5z m-728 -28 c0 -8 -7 -15
-15 -15 -8 0 -15 7 -15 15 0 8 7 15 15 15 8 0 15 -7 15 -15z m-1633 -267 c-3
-8 -6 -5 -6 6 -1 11 2 17 5 13 3 -3 4 -12 1 -19z m3 -53 c2 30 4 33 7 14 2
-15 -14 -109 -36 -210 -57 -263 -61 -286 -71 -395 l-9 -99 4 100 c5 105 14
161 65 389 17 77 29 146 28 154 -3 15 -68 -260 -89 -378 -6 -36 -15 -112 -19
-170 -7 -101 -7 -102 -8 -30 -2 89 23 248 72 458 20 84 37 165 37 180 1 20 4
17 9 -13 l7 -40 3 40z m3177 -11 c-3 -3 -12 -4 -19 -1 -8 3 -5 6 6 6 11 1 17
-2 13 -5z m-27 -25 c0 -5 -7 -9 -15 -9 -15 0 -20 12 -9 23 8 8 24 -1 24 -14z"/>
<path d="M3650 6243 c-107 -34 -178 -91 -220 -177 -28 -56 -32 -75 -36 -172
l-4 -109 47 -95 c54 -106 113 -164 162 -158 22 3 27 9 33 48 14 81 69 484 74
535 3 28 9 68 14 89 13 61 8 64 -70 39z"/>
<path d="M3551 5193 c-11 -65 -32 -190 -47 -278 -24 -149 -82 -449 -104 -540
-5 -22 -30 -134 -56 -250 -45 -207 -58 -254 -170 -630 -58 -193 -80 -285 -45
-185 11 30 38 120 61 200 23 80 50 170 60 200 64 187 224 930 285 1320 14 85
30 181 36 213 5 33 8 61 6 63 -3 3 -14 -48 -26 -113z"/>
<path d="M6657 4893 c-4 -3 -7 -11 -7 -17 0 -6 5 -5 12 2 6 6 9 14 7 17 -3 3
-9 2 -12 -2z"/>
<path d="M8502 2960 c0 -14 2 -19 5 -12 2 6 2 18 0 25 -3 6 -5 1 -5 -13z"/>
<path d="M2917 2849 c-10 -28 -17 -53 -14 -55 6 -6 39 84 35 96 -2 6 -11 -13
-21 -41z"/>
<path d="M8520 2664 c0 -28 83 -130 122 -150 42 -22 46 -16 8 10 -40 27 -74
64 -102 112 -19 33 -28 41 -28 28z"/>
<path d="M10120 1587 c0 -8 139 -61 145 -55 3 3 -21 14 -52 25 -32 11 -66 24
-75 28 -10 4 -18 5 -18 2z"/>
<path d="M9915 1539 c-27 -5 -76 -10 -108 -11 -36 -1 -52 -5 -44 -10 14 -7
256 17 266 27 7 7 -58 4 -114 -6z"/>
<path d="M6716 1494 c-3 -9 -6 -48 -6 -88 0 -68 2 -75 34 -112 19 -22 63 -82
98 -134 35 -52 90 -131 122 -175 32 -44 83 -122 113 -173 31 -51 58 -90 60
-88 8 7 -98 182 -167 276 -34 47 -87 123 -118 170 -31 47 -73 105 -95 130
l-39 45 4 83 c2 45 3 82 2 82 -1 0 -5 -7 -8 -16z"/>
<path d="M1751 1245 c0 -16 6 -57 14 -90 22 -91 20 -98 -30 -138 -26 -19 -42
-38 -37 -41 5 -3 28 11 51 30 36 31 41 41 41 77 0 50 -38 207 -39 162z"/>
<path d="M1480 1085 c18 -47 62 -125 71 -125 5 0 -8 30 -28 68 -41 77 -59 101
-43 57z"/>
<path d="M5015 7009 c-19 -17 -35 -37 -35 -44 0 -7 -15 -35 -34 -62 -19 -28
-46 -74 -61 -104 -15 -30 -31 -61 -35 -69 -40 -69 -154 -314 -202 -435 -22
-55 -51 -124 -64 -153 -13 -29 -24 -57 -24 -62 0 -5 -13 -37 -29 -72 -16 -35
-39 -88 -50 -118 -29 -74 -42 -101 -61 -125 -17 -21 -78 -302 -105 -482 -8
-56 -26 -225 -40 -375 -14 -150 -34 -337 -45 -414 -11 -78 -20 -148 -20 -157
0 -20 368 -211 480 -248 71 -24 78 -24 91 4 8 18 2 40 -37 122 -47 99 -49 109
-95 370 -6 33 -22 87 -37 120 -19 45 -26 77 -27 127 0 60 3 70 28 96 35 37 95
47 146 26 19 -8 73 -54 120 -101 92 -95 125 -153 162 -289 15 -56 29 -83 49
-100 15 -13 49 -53 75 -89 49 -67 60 -73 156 -91 18 -4 39 -10 44 -14 6 -4 33
-12 60 -19 181 -43 437 -122 505 -156 72 -36 112 -44 146 -30 30 12 141 136
241 267 49 64 168 291 212 406 33 84 21 273 -26 412 -26 77 -103 245 -133 290
-9 14 -35 52 -57 85 -22 33 -52 84 -67 113 -27 53 -27 53 -69 50 -52 -4 -60
18 -18 47 l30 20 -21 35 c-86 143 -123 230 -220 505 -100 286 -128 376 -153
480 l-23 100 -75 78 c-97 100 -123 102 -225 15 -36 -31 -67 -35 -98 -14 -80
56 -177 86 -281 86 -33 0 -50 -7 -78 -31z m222 -479 c166 -34 255 -63 293 -96
8 -7 51 -31 95 -54 44 -23 71 -39 60 -35 -11 4 -31 11 -45 15 -26 8 -81 38
-138 77 -75 50 -315 104 -455 101 l-92 -1 115 -7 c134 -8 258 -46 444 -135 61
-29 128 -56 150 -60 21 -3 36 -8 33 -11 -11 -12 -112 22 -213 71 -111 54 -257
108 -324 119 -19 3 -77 6 -127 7 -85 1 -113 9 -80 22 31 13 193 5 284 -13z
m258 -108 c-3 -3 -11 0 -18 7 -9 10 -8 11 6 5 10 -3 15 -9 12 -12z m-106 -126
c91 -8 146 -17 149 -24 2 -7 20 -13 40 -13 25 -1 30 -3 14 -6 l-24 -5 22 -23
c19 -20 24 -38 29 -97 1 -5 6 -8 12 -8 6 0 9 9 6 20 -3 11 -1 20 3 20 5 0 11
-17 14 -37 8 -46 4 -136 -5 -122 -3 6 -4 32 -1 60 3 32 1 49 -6 49 -6 0 -9 -7
-6 -15 4 -8 4 -15 0 -15 -10 0 -26 39 -31 77 -3 29 -15 48 -49 79 l-44 41
-171 13 c-164 12 -339 8 -450 -9 -44 -7 -45 -8 -21 -18 129 -56 232 -98 288
-118 133 -46 229 -92 331 -159 57 -37 106 -65 108 -62 3 3 -38 33 -91 67 -53
34 -96 65 -96 70 0 4 7 10 16 13 12 5 15 20 13 73 -2 62 -1 68 19 71 39 6 132
-55 132 -86 0 -8 6 -28 14 -45 19 -43 37 -99 33 -103 -5 -5 -57 130 -57 146 0
15 -22 33 -72 60 -59 32 -63 29 -60 -47 3 -55 1 -69 -14 -80 -10 -7 -13 -13
-7 -13 15 0 159 -95 169 -112 11 -16 14 -38 7 -38 -4 0 -20 11 -37 23 -49 38
-208 132 -246 146 -19 7 -55 22 -79 33 -24 10 -84 34 -135 53 -50 18 -113 43
-141 56 -27 12 -66 28 -85 34 -19 6 -36 18 -38 27 -3 13 11 17 85 23 48 3 97
7 108 9 48 8 222 4 354 -8z m409 -8 c-7 -19 -38 -22 -38 -4 0 10 9 16 21 16
12 0 19 -5 17 -12z m-207 -16 c-13 -2 -27 0 -32 5 -6 6 3 7 23 4 28 -4 29 -6
9 -9z m-381 -21 c0 -14 -70 -81 -85 -81 -8 0 -26 11 -42 24 -15 12 -34 22 -41
20 -7 -1 -8 0 -3 2 5 3 7 14 4 24 -5 19 0 20 81 20 47 0 86 -4 86 -9z m79
-198 c-3 -20 2 -26 11 -13 8 13 10 12 10 -2 0 -10 -7 -18 -15 -18 -8 0 -15 2
-15 4 0 2 -3 11 -6 20 -3 9 -1 16 5 16 6 0 10 -3 10 -7z m806 -198 c-22 -166
-18 -217 15 -208 11 3 20 0 20 -6 0 -6 -8 -8 -17 -4 -19 7 51 -73 105 -121 17
-15 32 -36 32 -46 0 -11 5 -22 10 -25 13 -8 13 -45 -1 -45 -15 0 -194 178
-210 209 -8 14 -27 43 -43 63 -25 33 -28 42 -22 80 4 24 23 76 43 117 l36 74
19 -24 c14 -18 17 -34 13 -64z m-161 -105 c-4 -34 -3 -55 6 -65 8 -9 8 -15 2
-15 -17 0 -25 38 -17 86 3 24 8 44 11 44 3 0 2 -22 -2 -50z m23 -37 c-2 -16
-4 -5 -4 22 0 28 2 40 4 28 2 -13 2 -35 0 -50z m-107 -63 l-11 -25 6 25 c2 14
6 43 7 65 l1 40 4 -40 c2 -23 -1 -52 -7 -65z m-15 34 c-5 -43 -3 -59 7 -65 9
-6 9 -9 1 -9 -6 0 -15 5 -18 10 -7 11 4 120 12 120 3 0 2 -25 -2 -56z m480
-176 c6 -4 2 -8 -7 -8 -10 0 -18 7 -18 17 0 9 3 12 8 7 4 -5 12 -12 17 -16z
m-27 -53 c-3 -3 -9 2 -12 12 -6 14 -5 15 5 6 7 -7 10 -15 7 -18z m-28 -90 c0
-21 -68 -161 -85 -175 -8 -7 -15 -18 -15 -25 0 -22 -92 -125 -111 -125 -26 0
-24 20 6 64 14 20 25 39 25 42 0 9 97 149 113 162 8 7 20 26 27 42 13 31 40
41 40 15z m-974 -95 c4 0 3 12 0 28 -4 15 16 -12 43 -61 53 -90 58 -103 41
-92 -16 10 -12 -1 40 -102 53 -103 86 -196 116 -328 10 -44 20 -73 21 -64 2 9
-8 62 -22 119 -14 57 -25 105 -25 108 0 13 108 -11 188 -42 51 -20 100 -36
109 -37 10 0 52 -15 93 -32 72 -31 75 -34 78 -68 2 -23 -2 -38 -10 -41 -7 -3
-65 7 -128 22 -227 54 -255 60 -275 59 -11 0 16 -9 60 -20 368 -93 361 -92
375 -53 6 14 10 33 10 43 0 23 -87 70 -200 106 -47 15 -98 34 -115 41 -43 19
-152 43 -173 37 -14 -3 -23 8 -41 54 -13 32 -39 86 -58 121 -19 34 -32 62 -30
62 10 0 56 -80 87 -153 21 -48 39 -76 46 -73 29 11 385 -104 462 -149 35 -21
39 -41 21 -94 -9 -25 -17 -31 -39 -31 -25 0 -139 26 -332 75 -80 21 -78 21
-71 -30 4 -35 3 -45 -8 -45 -10 0 -23 36 -42 118 -34 144 -66 225 -148 367
-80 141 -99 180 -98 202 0 10 5 3 10 -14 5 -18 12 -33 15 -33z"/>
<path d="M5071 6224 c45 -48 57 -50 94 -10 l33 36 -76 0 -75 0 24 -26z"/>
<path d="M6032 5855 c-17 -35 -35 -83 -38 -105 -6 -36 -3 -43 28 -74 18 -18
32 -39 30 -44 -4 -12 198 -225 206 -217 3 3 -2 13 -11 23 -10 10 -14 22 -10
25 3 4 -30 44 -75 89 -60 60 -84 91 -88 116 -6 32 -1 122 12 187 3 18 0 37 -8
48 -12 16 -16 12 -46 -48z m28 -25 c0 -5 -8 -10 -17 -10 -15 0 -16 2 -3 10 19
12 20 12 20 0z"/>
<path d="M6227 5337 c-9 -17 -30 -48 -46 -67 -42 -50 -142 -212 -135 -219 15
-16 149 177 189 273 20 48 14 57 -8 13z"/>
<path d="M5290 5264 c0 -13 62 -115 67 -110 3 3 -9 30 -27 60 -29 52 -40 65
-40 50z"/>
<path d="M5510 4866 c0 -1 4 -16 9 -32 5 -16 12 -41 15 -56 4 -18 13 -28 24
-28 17 0 56 -9 272 -60 63 -15 118 -26 123 -23 4 2 7 15 7 28 0 30 -46 56
-170 96 -47 15 -118 39 -157 53 -63 23 -123 34 -123 22z"/>
<path d="M4739 4405 c-3 -33 -2 -66 1 -74 13 -25 17 3 10 69 l-6 65 -5 -60z"/>
<path d="M7868 3733 c6 -2 18 -2 25 0 6 3 1 5 -13 5 -14 0 -19 -2 -12 -5z"/>
<path d="M9525 3435 c-18 -8 -93 -16 -190 -20 -152 -6 -425 -32 -434 -41 -6
-5 -16 -6 289 11 218 12 276 18 328 36 59 20 77 30 50 28 -7 0 -27 -7 -43 -14z"/>
<path d="M8330 1747 c11 -12 271 -59 352 -64 65 -4 99 -2 137 11 58 19 125 21
170 5 18 -6 35 -8 39 -5 27 27 -151 36 -211 11 -52 -21 -126 -19 -284 11 -180
33 -209 38 -203 31z"/>
<path d="M6287 930 c3 -14 12 -41 20 -60 11 -30 12 -31 8 -6 -4 16 -13 43 -20
60 -11 23 -13 25 -8 6z"/>
</g>
</svg>
