<?xml version="1.0" standalone="no"?>
<!DOCTYPE svg PUBLIC "-//W3C//DTD SVG 20010904//EN"
 "http://www.w3.org/TR/2001/REC-SVG-20010904/DTD/svg10.dtd">
<svg version="1.0" xmlns="http://www.w3.org/2000/svg"
 width="1280.000000pt" height="720.000000pt" viewBox="0 0 1280.000000 720.000000"
 preserveAspectRatio="xMidYMid meet">
<metadata>
Created by potrace 1.16, written by Peter Selinger 2001-2019
</metadata>
<g transform="translate(0.000000,720.000000) scale(0.100000,-0.100000)"
fill="#000000" stroke="none">
<path d="M0 3633 c0 -2964 2 -3564 13 -3548 34 51 88 156 83 163 -11 18 106
227 231 414 127 189 193 302 193 331 0 17 75 67 101 67 26 0 25 26 -6 132 -14
47 -26 107 -27 133 l-3 47 60 32 c69 37 61 15 100 281 33 230 50 295 88 348
17 23 38 55 47 72 19 38 78 58 335 114 228 50 375 72 676 102 l227 23 60 91
c34 49 92 135 130 190 69 99 247 440 282 539 10 28 34 89 55 136 55 128 158
473 201 675 25 118 32 157 97 525 l32 185 1 660 c0 621 2 669 22 817 12 87 31
200 42 251 53 243 164 511 270 652 43 57 70 105 70 125 0 6 -626 10 -1690 10
l-1690 0 0 -3567z"/>
<path d="M3379 7158 c-7 -23 -32 -67 -55 -98 -50 -65 -130 -211 -162 -295 -13
-33 -28 -69 -33 -80 -42 -92 -90 -302 -121 -523 -20 -148 -22 -196 -22 -817
l-1 -660 -32 -185 c-65 -368 -72 -407 -97 -525 -27 -126 -48 -203 -115 -425
-44 -147 -79 -249 -90 -265 -4 -5 -17 -37 -30 -70 -46 -120 -64 -160 -151
-334 -79 -158 -142 -258 -307 -491 l-39 -55 -230 -23 c-303 -31 -450 -53 -679
-103 -248 -54 -304 -74 -330 -120 -11 -19 -34 -57 -52 -83 -18 -27 -37 -72
-42 -100 -10 -47 -52 -317 -67 -428 -6 -46 -8 -49 -68 -81 l-61 -34 3 -44 c1
-24 11 -73 22 -109 10 -36 23 -84 28 -108 9 -40 9 -42 -15 -48 -34 -9 -103
-55 -103 -68 0 -29 -69 -150 -187 -326 -171 -258 -245 -388 -236 -417 4 -12
-51 -119 -89 -175 -22 -32 -23 -45 -3 -28 11 9 15 9 15 1 0 -6 -7 -14 -15 -17
-21 -9 -19 -24 4 -24 15 0 21 8 24 33 l4 32 1 -32 2 -33 705 0 c388 0 705 3
705 8 0 4 11 70 24 147 60 339 95 555 102 613 5 46 11 62 22 62 12 0 14 -10 8
-57 -9 -87 -106 -681 -121 -751 l-5 -22 840 0 c463 0 839 4 836 8 -10 17 -46
252 -56 373 -12 148 -1 340 29 475 20 93 65 222 82 239 6 5 3 -8 -6 -30 -81
-192 -115 -440 -95 -684 10 -121 46 -356 56 -373 3 -4 21 -8 41 -8 33 0 35 1
28 28 -69 271 -83 646 -35 924 12 68 25 126 29 131 4 4 -4 -48 -17 -115 -21
-108 -24 -154 -25 -373 -2 -256 6 -337 48 -523 l17 -72 1575 0 1576 0 -6 203
c-5 161 -11 226 -31 322 -33 158 -75 303 -116 395 -73 169 -94 250 -66 250 9
0 18 -18 25 -50 6 -28 22 -73 36 -100 37 -73 120 -329 149 -460 31 -141 46
-285 46 -441 l0 -119 850 0 850 0 0 58 c0 64 -22 110 -65 138 -15 9 -43 41
-63 69 -20 29 -56 77 -78 106 -23 30 -75 115 -117 189 -74 134 -75 136 -86
240 -6 58 -27 179 -46 270 -39 189 -66 331 -95 510 -22 131 -63 237 -130 334
-32 47 -37 66 -19 66 11 0 89 -17 263 -56 38 -9 90 -25 114 -35 25 -11 53 -17
61 -13 13 5 11 9 -9 15 -20 7 -18 8 10 3 19 -3 60 -7 90 -10 50 -4 -28 14
-385 90 -434 92 -1090 282 -1207 349 -23 14 -126 55 -228 91 -102 37 -208 75
-235 86 -28 11 -60 20 -71 20 -11 0 -29 7 -40 15 -11 9 -46 15 -89 17 l-70 2
67 3 c47 3 76 -1 97 -12 17 -8 38 -15 48 -15 10 0 30 -6 45 -14 14 -8 43 -19
65 -26 127 -41 377 -135 427 -162 146 -76 758 -253 1186 -343 326 -69 401 -84
470 -94 104 -16 120 -20 120 -29 0 -5 -19 -9 -42 -9 l-43 -1 35 9 c29 7 26 7
-19 4 -30 -2 -88 0 -129 6 -56 8 -77 8 -86 -2 -8 -9 -4 -10 19 -5 23 5 27 4
15 -5 -12 -9 -10 -10 10 -5 14 3 63 -7 115 -24 121 -38 442 -117 530 -130 39
-5 106 -10 151 -10 65 0 81 -3 81 -15 0 -12 -17 -15 -86 -15 -96 0 -173 10
-306 41 -206 47 -508 137 -600 179 -22 9 -71 25 -110 33 -163 37 -253 57 -259
57 -4 0 6 -19 22 -42 75 -110 110 -205 137 -373 22 -141 50 -293 90 -485 19
-91 40 -211 46 -268 10 -92 15 -110 49 -166 22 -35 48 -83 60 -107 18 -40 39
-71 150 -225 19 -27 56 -69 81 -94 56 -55 69 -85 69 -155 l0 -55 2320 0 2320
0 0 378 0 379 -72 13 c-225 39 -787 176 -1026 250 -143 44 -361 122 -532 190
-244 98 -618 208 -903 266 -67 13 -140 33 -162 44 l-42 20 -139 -21 c-115 -18
-165 -20 -294 -15 -164 6 -325 26 -401 51 -25 9 -76 38 -115 65 -120 86 -139
93 -217 87 -37 -3 -91 -3 -120 1 l-52 6 80 12 c120 19 235 18 235 -1 0 -8 5
-15 11 -15 6 0 49 -23 95 -50 101 -62 145 -72 429 -101 l210 -21 149 22 c136
21 150 22 175 7 25 -15 63 -23 281 -63 109 -19 291 -67 565 -147 702 -206
1379 -379 1745 -446 l100 -18 0 1610 0 1610 -172 -6 c-309 -12 -697 -61 -1153
-147 -144 -27 -155 -28 -155 -19 0 5 13 9 29 9 16 0 73 9 127 20 236 46 650
108 869 130 61 6 188 13 283 17 172 6 172 6 172 30 0 23 -2 23 -104 23 -200 0
-524 -32 -856 -86 -373 -60 -520 -92 -823 -180 -66 -19 -126 -34 -135 -34 -24
0 -264 -62 -406 -105 -166 -49 -245 -65 -361 -72 -109 -6 -273 15 -326 43 -16
8 -82 26 -147 39 -64 14 -150 34 -190 45 -285 76 -817 65 -1402 -30 -63 -10
-227 -39 -365 -65 -320 -59 -602 -105 -634 -104 -14 0 42 12 124 25 83 13 287
49 455 80 168 30 357 64 420 74 583 95 1117 106 1402 30 40 -11 125 -31 188
-44 64 -14 138 -33 165 -44 77 -30 204 -46 314 -39 112 7 194 23 357 72 142
43 382 105 406 105 9 0 69 15 135 34 303 88 450 120 823 180 332 54 656 86
856 86 l104 0 0 1510 0 1510 -3025 0 -3025 0 20 -37 c11 -21 37 -65 57 -97 30
-51 87 -179 174 -397 38 -98 53 -271 54 -634 0 -357 -3 -396 -50 -585 -28
-112 -143 -432 -181 -505 -49 -93 -131 -210 -187 -266 -63 -64 -77 -87 -77
-124 0 -27 31 -108 81 -210 44 -91 46 -123 14 -199 -21 -49 -35 -68 -61 -82
-39 -21 -36 -15 -64 -151 -22 -112 -25 -159 -10 -168 15 -9 12 -51 -5 -65 -8
-7 -15 -19 -15 -27 0 -13 37 -15 283 -10 194 3 232 2 122 -3 -88 -4 -217 -8
-287 -9 -117 -1 -128 1 -128 17 0 10 7 28 16 41 14 19 14 26 3 47 -14 27 -5
112 26 251 15 63 20 73 46 84 32 13 59 45 59 69 -1 8 -7 3 -16 -12 -8 -16 -32
-37 -54 -48 -29 -15 -40 -27 -40 -43 0 -13 -9 -47 -19 -78 -24 -67 -61 -248
-61 -297 l0 -35 -80 6 c-123 10 -258 44 -283 73 -11 13 -27 24 -36 24 -8 0
-30 14 -48 32 -18 17 -36 28 -40 24 -10 -10 80 -92 129 -117 21 -11 77 -29
125 -41 78 -19 115 -22 318 -22 609 -1 677 4 1200 79 394 57 505 70 799 95
380 32 558 27 896 -25 195 -30 246 -34 243 -18 -2 8 6 7 25 -3 15 -7 33 -14
39 -14 7 0 32 -9 55 -19 46 -20 162 -41 229 -41 22 0 38 -4 35 -9 -4 -5 0 -12
6 -14 7 -3 -1 -6 -18 -6 -29 -1 -271 -77 -319 -100 -11 -6 -47 -21 -80 -35
-33 -14 -52 -25 -42 -26 20 0 22 -11 5 -28 -23 -23 4 -12 40 17 20 17 62 39
92 51 81 32 293 100 297 96 2 -2 -60 -25 -138 -50 -156 -52 -196 -70 -251
-113 -20 -17 -56 -37 -80 -46 -53 -19 -236 -37 -389 -37 -62 0 -163 -7 -224
-15 -76 -10 -113 -11 -120 -4 -16 16 27 46 78 53 97 15 317 24 436 19 l127 -6
35 30 c18 16 75 47 124 68 94 40 366 134 394 136 9 1 -9 5 -39 9 -152 22 -191
30 -217 43 -44 24 -91 37 -95 26 -3 -10 -77 -1 -348 41 -348 54 -772 33 -1560
-80 -564 -81 -610 -84 -1230 -84 -242 -1 -338 12 -445 59 -60 27 -145 100
-145 125 0 32 27 29 61 -6 18 -19 39 -34 46 -34 7 0 22 -11 35 -25 27 -29 150
-61 271 -71 l77 -7 0 30 c0 45 38 229 61 292 10 31 19 67 19 82 0 22 8 31 37
46 21 10 48 33 59 51 14 19 24 27 27 20 2 -7 10 6 17 30 16 50 12 62 -55 209
-48 106 -61 156 -51 196 3 13 33 52 67 88 96 100 203 270 243 384 13 39 36
102 51 140 116 301 140 461 132 888 -6 395 -19 482 -97 676 -68 167 -114 262
-165 341 -19 30 -38 62 -41 72 -4 14 -16 18 -60 18 -30 0 -54 -4 -54 -10 0 -5
-7 -10 -15 -10 -8 0 -15 5 -15 10 0 7 -541 10 -1603 10 l-1604 0 -14 -42z
m2234 -119 c12 -6 41 -32 64 -57 42 -46 43 -47 43 -19 0 15 5 27 10 27 6 0 10
10 11 23 1 21 1 21 9 -3 l8 -25 2 25 c2 21 3 22 7 5 3 -11 11 -24 19 -28 8 -4
14 -17 14 -29 0 -11 14 -81 30 -155 29 -130 40 -209 15 -108 -11 46 -13 48
-19 23 -8 -29 12 -119 71 -308 57 -187 100 -313 127 -375 30 -66 32 -92 11
-122 -52 -74 -82 -181 -56 -197 4 -3 11 -18 15 -33 4 -19 47 -65 131 -142 68
-63 123 -116 121 -119 -11 -11 -249 217 -261 249 -5 15 -13 31 -17 35 -20 20
-6 92 33 171 l41 82 -45 118 c-25 65 -50 134 -55 153 -6 19 -30 100 -55 180
-24 80 -50 168 -57 197 -8 31 -20 53 -29 55 -11 2 -22 40 -41 137 -21 104 -30
135 -43 137 -9 1 -39 25 -66 53 -47 48 -53 51 -100 51 -46 0 -52 -3 -82 -40
-37 -46 -64 -51 -113 -21 -64 38 -134 54 -216 48 l-77 -6 -72 -72 c-83 -83
-86 -88 -136 -229 -21 -58 -48 -127 -60 -155 -13 -27 -53 -117 -90 -200 -37
-82 -82 -183 -101 -223 -19 -40 -34 -75 -34 -78 0 -6 -75 -188 -95 -229 -72
-150 -90 -225 -135 -570 -17 -126 -38 -261 -46 -300 -8 -38 -19 -113 -25 -165
-5 -52 -18 -142 -29 -200 -10 -58 -22 -141 -25 -185 -6 -70 -4 -82 12 -97 32
-28 116 -73 183 -97 36 -13 81 -34 100 -45 81 -50 237 -101 257 -84 23 19 14
68 -21 121 -42 65 -53 101 -60 205 -4 50 -16 109 -32 150 -28 76 -74 171 -86
178 -13 9 -9 122 6 159 21 50 68 75 141 75 38 0 69 -6 82 -15 26 -18 168 -205
193 -254 23 -46 60 -166 60 -196 0 -14 24 -51 61 -94 66 -76 102 -99 49 -31
-50 63 -30 56 28 -9 48 -55 135 -111 149 -97 3 3 -9 12 -28 20 -19 9 -28 15
-20 16 7 0 28 -9 46 -20 18 -11 81 -31 141 -44 165 -37 299 -83 401 -137 76
-40 101 -49 143 -49 89 0 148 53 247 220 208 351 283 519 283 632 0 66 -44
194 -116 338 -24 48 -44 92 -44 97 0 4 -12 26 -26 47 -15 21 -21 37 -14 34 7
-2 20 -19 30 -38 10 -19 31 -62 48 -95 17 -33 52 -114 78 -180 65 -161 69
-223 24 -350 -34 -94 -95 -222 -163 -340 -86 -151 -142 -242 -169 -276 -15
-20 -25 -39 -23 -43 3 -3 2 -4 -1 -2 -3 3 -27 -9 -52 -25 -36 -23 -57 -29
-101 -29 -48 0 -71 8 -162 55 -165 84 -564 193 -534 145 3 -4 37 -16 77 -25
40 -10 109 -34 153 -55 44 -21 87 -40 95 -43 13 -5 13 -6 -1 -6 -8 -1 -51 16
-95 37 -43 22 -104 45 -134 52 -77 17 -125 41 -108 51 10 7 8 9 -6 9 -10 0
-41 16 -67 35 -55 39 -62 36 -21 -10 15 -17 -17 13 -71 68 -96 97 -97 99 -112
169 -17 84 -61 182 -108 241 -18 23 -51 68 -72 100 -37 55 -70 85 -82 74 -2
-3 4 -10 14 -15 10 -6 36 -37 58 -69 21 -32 54 -77 72 -100 46 -58 91 -156
108 -238 8 -38 12 -71 10 -73 -2 -3 -7 9 -10 24 -18 89 -38 146 -67 197 -46
78 -104 164 -151 220 -37 44 -42 47 -88 47 -97 0 -153 -91 -114 -184 13 -30
19 -36 28 -27 9 9 8 14 -3 21 -9 6 -10 10 -3 10 18 0 27 -20 15 -32 -8 -8 -6
-20 4 -40 9 -17 31 -70 50 -119 26 -68 34 -102 33 -146 l-2 -58 -7 70 c-9 76
-45 176 -100 270 -29 50 -35 70 -35 117 1 84 36 117 135 129 l55 6 -61 2 c-55
1 -64 -2 -99 -32 -35 -31 -39 -38 -43 -95 -4 -56 -1 -69 31 -130 55 -105 87
-207 95 -307 l8 -90 16 30 c11 20 17 24 18 13 0 -9 -4 -20 -10 -23 -12 -7 25
-85 40 -85 6 0 10 -6 10 -14 0 -17 102 -207 143 -266 28 -39 32 -54 38 -140 3
-52 13 -117 22 -145 8 -27 27 -88 41 -135 25 -84 114 -239 173 -302 32 -34
203 -118 310 -153 84 -27 106 -41 80 -51 -12 -4 -161 41 -231 71 -17 8 -17 6
-2 -23 9 -17 16 -43 16 -57 0 -22 57 -181 108 -299 32 -75 85 -118 162 -130
19 -3 52 -8 73 -11 20 -3 37 -10 37 -15 0 -6 -9 -6 -22 0 -13 5 -48 12 -78 15
-62 7 -124 37 -152 76 -23 31 -97 227 -154 406 -14 45 -6 60 23 45 34 -18 205
-73 215 -70 6 2 -27 16 -73 32 -92 30 -283 119 -313 145 -11 9 -49 62 -86 118
-51 78 -73 123 -94 195 -15 51 -36 122 -47 157 -11 38 -19 94 -19 136 0 65 -3
76 -31 115 -17 23 -60 99 -95 168 -35 69 -69 129 -74 132 -5 3 -16 21 -24 40
-18 41 -21 28 -5 -19 6 -17 15 -31 19 -31 15 0 50 -80 50 -114 0 -58 -17 -62
-127 -26 -54 17 -125 46 -158 64 -33 18 -93 45 -133 60 -40 16 -94 42 -120 60
l-47 31 3 90 c1 50 11 137 22 195 10 58 24 148 29 200 6 52 17 127 25 165 8
39 29 174 46 300 49 371 53 384 204 738 74 171 150 346 169 387 19 41 47 102
62 135 15 33 53 128 85 210 56 148 57 151 129 223 l73 72 82 6 c70 6 93 3 152
-16 38 -13 78 -29 89 -36 31 -22 50 -17 84 26 30 37 36 40 82 40 28 0 60 -5
72 -11z m-372 -495 c143 -32 425 -155 491 -213 20 -17 40 -31 46 -31 5 0 12
-7 16 -15 8 -23 -47 -19 -68 4 -10 11 -37 23 -59 26 -50 9 -99 28 -227 88
-166 77 -310 117 -432 117 -61 0 -78 3 -78 14 0 18 28 23 148 25 55 0 122 -6
163 -15z m665 -31 c-4 -4 -12 -1 -19 7 -9 10 -9 11 1 6 7 -4 12 -2 13 6 0 11
2 11 6 0 3 -7 2 -16 -1 -19z m-513 -183 c96 -9 276 -54 264 -66 -2 -3 -38 7
-79 20 -115 39 -335 55 -536 39 -60 -4 -80 -9 -72 -17 11 -11 224 -13 380 -3
51 4 62 3 35 -2 l-40 -8 35 -2 c30 -1 124 -30 184 -56 14 -6 17 -5 12 3 -12
19 9 14 28 -7 15 -17 45 -85 66 -152 11 -36 0 -169 -14 -169 -20 0 -36 23 -36
53 0 15 -12 53 -27 83 -29 59 -135 173 -162 175 -9 0 -11 3 -4 5 22 10 91 -46
139 -111 12 -18 25 -26 32 -21 17 10 -20 61 -62 87 -36 22 -28 26 12 5 15 -8
38 -28 51 -46 21 -29 22 -34 8 -47 -13 -14 -13 -20 4 -57 10 -22 19 -53 19
-67 0 -15 6 -32 14 -38 11 -9 14 1 19 55 4 55 1 79 -20 133 -31 83 -49 112
-67 105 -8 -3 -25 1 -38 9 -65 42 -124 50 -385 52 -241 1 -281 -4 -233 -27 11
-6 10 -7 -5 -5 -11 2 -19 9 -17 15 1 8 -14 12 -44 12 -57 0 -49 -14 16 -30 28
-7 53 -16 56 -21 3 -5 12 -9 21 -9 8 0 38 -12 67 -26 28 -14 110 -51 181 -81
72 -30 137 -61 146 -69 10 -9 19 -10 25 -4 6 6 26 -2 54 -21 25 -17 80 -48
122 -69 42 -21 75 -40 72 -43 -5 -5 -124 55 -194 98 -34 22 -57 27 -53 13 2
-4 -18 6 -43 22 -25 16 -86 45 -134 64 -49 20 -117 49 -152 65 -113 52 -158
70 -194 77 -19 3 -37 11 -40 16 -12 19 13 28 79 30 76 2 103 17 35 19 -97 3
118 26 262 28 58 0 153 -4 213 -9z m-280 -27 c-13 -2 -35 -2 -50 0 -16 2 -5 4
22 4 28 0 40 -2 28 -4z m486 -38 c36 -13 61 -24 55 -24 -6 -1 -31 6 -55 15
-24 8 -73 22 -109 29 -65 14 -65 14 -11 8 30 -3 84 -16 120 -28z m-1868 -14
l23 -19 -22 -93 c-28 -121 -43 -200 -83 -437 l-33 -193 -30 7 c-35 7 -101 56
-117 86 -43 81 -62 213 -48 348 18 180 70 255 210 304 58 20 72 20 100 -3z
m1438 5 c-2 -2 -35 -6 -74 -9 -45 -3 -58 -3 -35 2 37 9 116 14 109 7z m-6 -23
c-7 -2 -13 -14 -13 -25 0 -22 -2 -22 -75 6 -30 11 -34 15 -17 16 13 0 36 -7
52 -15 28 -15 30 -14 30 5 0 13 6 20 18 19 10 0 12 -3 5 -6z m257 -35 c0 -15
-28 -8 -34 8 -3 8 -2 12 4 9 6 -3 10 0 10 7 0 9 3 9 10 -2 5 -8 10 -18 10 -22z
m-564 3 c-15 -6 -9 -10 25 -20 24 -7 97 -37 162 -68 65 -31 120 -53 122 -51 5
5 -155 83 -245 120 -27 11 -33 16 -17 13 16 -3 63 -22 105 -42 42 -19 109 -50
147 -68 39 -18 89 -38 113 -45 41 -13 59 -40 25 -40 -14 0 -15 2 -5 9 11 7 10
10 -3 15 -26 9 -42 7 -25 -4 51 -33 -96 23 -233 89 -59 28 -128 57 -154 64
-53 14 -69 37 -25 36 22 0 23 -2 8 -8z m239 -11 c2 -4 -7 -5 -20 -2 -14 2 -27
8 -30 12 -2 4 7 5 20 2 14 -2 27 -8 30 -12z m381 -73 c-2 -21 -11 -46 -20 -56
-15 -16 -15 -19 1 -33 10 -8 48 -32 86 -52 37 -21 67 -40 67 -43 0 -10 -163
83 -173 98 -8 13 -5 23 11 44 27 34 28 65 2 98 -29 37 -24 47 6 12 20 -24 24
-38 20 -68z m-276 27 c65 -34 36 -28 -35 6 -33 17 -49 27 -35 24 14 -4 45 -17
70 -30z m-380 -151 c-1 -22 -23 -53 -39 -53 -14 0 -14 12 1 45 13 29 38 34 38
8z m66 -51 c-9 -36 -17 -48 -34 -50 -19 -3 -22 1 -22 28 0 42 37 95 55 80 10
-8 10 -20 1 -58z m1168 -62 c-10 -22 -24 -40 -32 -40 -11 0 -11 3 2 15 8 8 21
31 28 51 7 19 14 31 16 25 2 -6 -4 -29 -14 -51z m26 -170 c-12 -7 -3 -40 11
-40 5 0 9 -7 9 -15 0 -8 -5 -15 -11 -15 -13 0 47 -51 102 -86 22 -13 39 -34
44 -51 3 -15 13 -36 22 -45 8 -9 13 -23 11 -30 -3 -7 -16 12 -31 43 -19 40
-38 63 -74 87 -80 53 -90 65 -97 115 -5 31 -4 47 3 47 7 0 12 28 13 68 l2 67
3 -69 c3 -43 0 -72 -7 -76z m59 83 c17 -31 31 -60 31 -63 0 -9 -51 -32 -58
-26 -2 3 7 10 21 15 l26 10 -29 53 c-29 51 -35 68 -26 68 3 0 18 -26 35 -57z
m-181 -124 c6 -15 7 -32 1 -40 -7 -12 -11 -11 -25 3 -12 11 -17 38 -20 90 l-3
73 8 -65 c9 -74 19 -102 32 -94 5 3 5 13 -1 24 -6 11 -12 47 -15 82 l-4 63 9
-55 c5 -30 13 -67 18 -81z m39 64 c-3 -10 -5 -4 -5 12 0 17 2 24 5 18 2 -7 2
-21 0 -30z m-158 -70 c13 -46 14 -63 2 -63 -20 0 -38 50 -32 93 3 21 21 2 30
-30z m306 17 c4 -6 14 -10 23 -9 35 3 42 -2 63 -43 12 -24 39 -69 60 -100 35
-51 54 -118 29 -103 -5 3 -7 12 -4 19 3 7 -16 47 -43 89 -26 41 -55 88 -65
105 -12 23 -21 29 -37 25 -11 -3 -30 2 -43 11 -17 12 -19 16 -6 16 9 0 20 -5
23 -10z m-114 -23 c-10 -9 -11 -8 -5 6 3 10 9 15 12 12 3 -3 0 -11 -7 -18z
m-2457 -184 c-2 -22 0 -28 3 -13 2 14 8 29 13 34 5 4 5 -9 0 -30 -5 -22 -14
-82 -21 -134 -12 -82 -14 -90 -21 -60 -5 24 -6 17 -2 -23 11 -143 -209 -1229
-337 -1662 -63 -212 -156 -450 -159 -405 -1 8 -12 -5 -25 -30 -31 -59 -32 -43
-1 23 14 29 30 65 36 81 6 16 13 26 16 23 3 -3 -2 -19 -11 -37 -9 -17 -15 -36
-12 -43 2 -6 15 19 30 56 30 74 34 96 12 57 -9 -16 -14 -19 -15 -9 0 8 4 19 8
25 11 11 83 230 116 349 40 147 192 815 230 1015 46 240 59 320 96 580 17 118
33 221 35 228 8 22 11 13 9 -25z m2630 -175 c-26 -44 -71 -114 -100 -154 -48
-67 -51 -74 -31 -74 37 1 170 203 188 289 8 35 8 35 5 -7 -5 -50 -40 -120
-110 -219 -45 -64 -55 -73 -83 -73 -18 0 -33 4 -33 9 0 6 25 44 55 86 30 42
76 114 102 160 26 45 50 79 51 74 2 -5 -18 -46 -44 -91z m-847 -81 c83 -142
106 -186 133 -259 l20 -53 87 -19 c49 -10 149 -38 223 -63 177 -57 231 -106
185 -167 -12 -16 -18 -17 -27 -8 -18 18 -27 15 -21 -8 4 -16 0 -20 -21 -20
-21 0 -278 82 -357 115 -14 5 -18 -4 -24 -64 -5 -54 -11 -71 -22 -71 -13 0
-15 9 -10 47 3 26 -1 63 -9 87 -82 251 -70 221 -188 449 -36 71 -66 135 -66
143 0 38 32 2 97 -109z m-607 -216 c0 -4 -11 -6 -25 -3 -14 2 -25 6 -25 8 0 2
11 4 25 4 14 0 25 -4 25 -9z m1847 -208 c-3 -10 -5 -2 -5 17 0 19 2 27 5 18 2
-10 2 -26 0 -35z m-20 5 c-3 -7 -5 -2 -5 12 0 14 2 19 5 13 2 -7 2 -19 0 -25z
m-13 -95 c-9 -37 -18 -45 -12 -11 3 16 1 25 -5 21 -5 -3 -7 -20 -4 -38 6 -36
-5 -61 -22 -51 -14 9 -15 36 -1 36 6 0 10 9 10 19 0 30 11 51 26 51 11 0 13
-7 8 -27z m-73 -250 c-32 -67 -105 -173 -119 -173 -4 0 -13 4 -21 9 -12 8 -12
14 -3 33 11 21 12 21 7 1 -3 -12 -2 -24 3 -27 15 -9 77 73 118 157 21 42 40
74 42 72 3 -2 -10 -35 -27 -72z m106 -107 c35 -77 59 -171 41 -160 -4 3 -8 18
-8 33 0 16 -14 59 -31 97 -41 89 -69 172 -68 198 0 12 7 -3 15 -33 8 -30 31
-91 51 -135z m-1799 103 c2 56 8 50 15 -16 5 -41 3 -53 -7 -53 -16 0 -26 33
-24 80 1 33 1 32 8 -10 l7 -45 1 44z m532 26 c10 -12 9 -16 -5 -21 -16 -6 -34
9 -35 29 0 13 27 8 40 -8z m-560 -51 c0 -40 -4 -55 -12 -52 -26 9 -18 108 8
108 2 0 4 -25 4 -56z m110 39 c0 -14 -2 -15 -9 -4 -7 11 -9 11 -14 0 -4 -10
-6 -9 -6 4 -1 9 6 17 14 17 8 0 15 -8 15 -17z m173 -27 c7 2 41 -27 75 -65 72
-81 136 -135 172 -146 23 -7 24 -7 10 11 -13 18 -13 18 5 2 26 -24 13 -32 -28
-19 -43 15 -102 65 -172 147 -30 36 -55 61 -55 56 0 -5 -7 -9 -15 -9 -9 0 -15
9 -14 21 0 12 3 16 5 9 3 -7 11 -10 17 -7z m17 -36 c0 -5 -8 -10 -17 -10 -15
0 -16 2 -3 10 19 12 20 12 20 0z m1366 -87 c-19 -36 -166 -179 -231 -226 -28
-19 -58 -44 -68 -55 -15 -16 -29 -19 -85 -17 -54 3 -79 10 -125 35 -31 17 -85
40 -120 51 -94 31 -227 82 -223 86 2 2 34 -8 72 -22 38 -15 101 -37 139 -49
39 -13 104 -39 145 -58 92 -43 156 -45 198 -6 15 14 52 43 82 65 30 22 93 81
140 131 47 49 86 90 88 91 1 1 -4 -11 -12 -26z m-2250 -340 c-4 -43 -3 -50 4
-28 6 22 7 14 3 -30 -7 -71 -12 -83 -14 -29 l-2 39 -7 -35 c-4 -19 -8 -27 -9
-17 -1 23 21 157 26 157 3 0 2 -26 -1 -57z m734 -57 c0 -12 -5 -7 -19 24 -11
24 -11 24 3 6 9 -11 16 -24 16 -30z m6470 6 c0 -4 -51 -14 -112 -21 -390 -44
-610 -90 -741 -157 -37 -19 -112 -46 -165 -59 -54 -13 -149 -43 -212 -65 -230
-83 -313 -111 -316 -107 -3 2 42 20 98 40 57 19 155 54 218 77 63 23 153 50
199 61 47 12 114 36 150 54 117 58 303 105 556 139 197 27 320 44 323 45 1 1
2 -3 2 -7z m-7217 -80 c26 -12 68 -31 95 -43 26 -11 55 -25 64 -30 10 -5 24
-9 31 -9 7 0 62 -24 122 -54 175 -85 182 -88 232 -91 55 -3 159 -14 189 -20
15 -3 23 -18 33 -54 7 -28 10 -54 7 -59 -3 -5 -29 -2 -58 8 -29 9 -69 20 -88
24 l-35 7 35 -19 c19 -10 68 -28 107 -41 40 -12 75 -26 78 -31 3 -5 -10 -3
-29 5 -20 8 -43 15 -53 14 -10 0 1 -7 25 -16 69 -24 43 -25 -31 -1 l-67 22
-21 -20 -20 -21 88 -32 c132 -48 165 -71 213 -148 24 -38 56 -83 72 -101 l29
-33 -7 -172 -6 -172 48 -51 c46 -49 57 -55 189 -100 216 -73 198 -62 213 -139
7 -37 10 -70 7 -73 -3 -3 -114 -27 -248 -53 -219 -43 -653 -147 -618 -149 8 0
80 13 160 29 80 16 225 41 321 55 96 15 218 36 270 47 124 25 138 25 145 -3 2
-13 23 -135 45 -273 47 -287 39 -269 184 -428 51 -56 107 -127 126 -157 55
-91 110 -192 110 -204 0 -9 -27 -11 -93 -8 -80 4 -110 0 -215 -27 -108 -28
-373 -115 -427 -140 -11 -6 -76 -35 -145 -67 -177 -80 -273 -130 -367 -191
-44 -29 -87 -53 -95 -53 -10 0 -19 35 -32 138 -29 220 -64 379 -88 406 -11 13
-10 2 7 -133 33 -269 45 -383 40 -391 -10 -17 -80 22 -140 79 -110 102 -318
184 -565 223 -96 14 -456 16 -585 2 -79 -9 -145 0 -145 19 0 42 136 467 154
482 26 21 37 58 47 162 17 178 39 303 71 400 l31 91 36 -4 c20 -2 27 -1 16 2
-11 4 -25 10 -32 16 -21 17 10 89 79 185 55 77 118 187 118 208 0 3 -5 3 -12
-1 -7 -4 -8 -3 -4 5 4 6 11 9 15 6 5 -2 19 22 32 55 13 32 25 57 27 55 5 -5
-53 -147 -86 -212 -15 -29 -55 -90 -89 -137 -58 -79 -91 -150 -74 -160 14 -9
191 -35 381 -56 283 -31 280 -30 280 -43 0 -14 87 -92 139 -124 48 -30 78 -29
134 7 46 29 97 40 97 21 0 -15 -62 -63 -108 -83 -72 -32 -133 -9 -233 89 l-65
64 -90 9 c-130 14 -362 48 -464 69 l-88 18 -26 -71 c-35 -97 -55 -200 -67
-336 -12 -149 -26 -218 -50 -238 -23 -20 -159 -427 -159 -476 0 -3 9 -6 19 -6
11 0 22 -4 25 -8 3 -4 42 -4 88 1 130 15 491 14 588 -1 182 -29 405 -103 505
-167 28 -18 66 -49 85 -70 19 -20 53 -46 74 -57 l39 -20 -6 39 c-3 21 -11 85
-17 143 -6 58 -18 154 -26 215 -18 140 -18 156 0 149 29 -11 68 -172 102 -424
9 -69 18 -127 20 -129 2 -2 34 17 72 43 214 142 651 327 964 407 101 26 135
30 209 27 49 -1 89 -2 89 -2 0 1 -19 34 -41 75 -23 41 -51 92 -63 113 -11 22
-71 95 -133 164 -62 69 -119 139 -127 157 -8 17 -34 148 -57 291 -24 142 -46
263 -51 268 -5 6 -51 1 -120 -12 -62 -12 -187 -34 -278 -47 -247 -38 -482 -85
-510 -103 -14 -8 -37 -28 -52 -44 -15 -18 -34 -28 -45 -26 -15 3 -10 12 27 52
l46 48 229 58 c127 32 329 77 450 100 121 24 223 45 227 49 4 4 2 33 -4 65
-11 50 -17 60 -43 72 -53 24 -284 104 -299 104 -8 0 -35 24 -61 53 l-47 52 6
172 6 172 -29 33 c-15 18 -47 63 -70 99 -48 78 -84 104 -204 149 -48 18 -90
37 -93 42 -3 5 2 18 12 30 15 16 26 19 59 14 28 -5 36 -3 25 4 -8 5 -22 10
-30 10 -8 0 -33 10 -56 22 -27 14 -49 19 -66 15 -29 -8 -44 -35 -28 -51 5 -5
10 -16 10 -23 0 -10 -45 -13 -212 -13 -183 0 -379 -11 -454 -26 -16 -3 -24
-14 -28 -41 -11 -61 -106 -411 -123 -451 -25 -61 -76 -165 -101 -205 -13 -22
-21 -45 -18 -53 3 -8 2 -12 -4 -9 -5 3 -16 -8 -25 -26 -21 -39 -12 -51 9 -12
8 15 15 24 16 20 0 -10 -50 -97 -56 -97 -3 0 0 9 6 21 7 11 10 23 8 25 -3 2
-27 -31 -54 -74 -26 -42 -86 -124 -132 -181 -89 -110 -500 -569 -548 -611 -29
-25 -14 -8 142 165 431 476 492 554 618 785 112 204 142 279 195 475 27 105
53 209 57 233 4 23 12 42 18 42 24 0 45 26 51 63 7 33 5 37 -14 37 -19 0 -21
4 -16 33 3 17 14 85 25 151 11 65 20 131 20 146 0 25 14 42 30 35 3 -1 26 -11
53 -23z m6188 -187 c7 19 8 19 8 -2 1 -14 -5 -23 -14 -23 -9 0 -15 9 -14 23 1
20 2 20 7 2 l5 -20 8 20z m-536 -155 c-3 -5 -16 -10 -28 -9 -21 0 -21 1 -2 9
28 12 37 12 30 0z m-996 -192 c0 -7 -40 -47 -89 -88 -81 -68 -156 -156 -173
-202 -7 -21 -37 -24 -37 -5 0 24 76 130 126 178 124 116 175 150 173 117z
m-5804 -209 c-14 -30 -25 -49 -25 -43 0 17 41 106 46 101 2 -2 -7 -28 -21 -58z
m-34 -30 c-9 -22 -10 -22 -10 -3 -1 11 2 24 6 27 12 12 14 0 4 -24z m5559
-159 c0 -38 -4 -50 -15 -50 -11 0 -15 12 -15 50 0 38 4 50 15 50 11 0 15 -12
15 -50z m-5620 0 c0 -30 -81 -174 -148 -263 -120 -159 -332 -361 -447 -426
-61 -35 -170 -64 -217 -58 -27 3 -24 4 17 7 l50 3 -50 7 -50 7 47 1 c26 1 49
6 53 11 3 5 45 31 93 57 173 94 334 241 490 449 45 60 94 133 109 162 25 47
53 70 53 43z m5577 -172 c-2 -13 -4 -5 -4 17 -1 22 1 32 4 23 2 -10 2 -28 0
-40z m68 -128 c16 -25 50 -67 76 -95 36 -38 45 -54 38 -65 -8 -12 -21 -2 -69
50 -65 70 -97 125 -105 180 -4 30 -3 31 5 10 6 -18 8 -7 5 40 l-5 65 14 -71
c8 -40 25 -89 41 -114z m-3060 11 c-3 -6 3 -15 12 -21 17 -10 16 -11 -2 -8
-21 3 -35 38 -15 38 6 0 9 -4 5 -9z m79 -43 c-2 -4 5 -10 17 -13 11 -4 19 -9
16 -11 -4 -4 -77 23 -77 29 0 1 11 2 24 2 13 0 22 -3 20 -7z m-1994 -233 c0
-7 -141 -173 -255 -300 -59 -66 -159 -177 -222 -247 -63 -69 -122 -129 -131
-133 -9 -3 13 25 49 62 96 98 424 466 493 551 54 67 66 79 66 67z m-2610 -240
c0 -8 -7 -15 -15 -15 -8 0 -15 5 -15 11 0 5 5 7 10 4 6 -3 10 -1 10 4 0 6 2
11 5 11 3 0 5 -7 5 -15z m2483 -280 c-7 -21 -13 -19 -13 6 0 11 4 18 10 14 5
-3 7 -12 3 -20z m3277 -306 c-5 -18 -12 -64 -15 -103 l-6 -71 46 -55 c26 -30
77 -100 114 -155 36 -55 94 -136 127 -180 90 -118 174 -244 174 -260 0 -33
-28 -11 -73 58 -26 41 -78 112 -115 159 -38 46 -99 129 -137 184 -38 54 -85
119 -105 144 -59 72 -63 85 -56 169 3 42 10 90 15 106 9 29 9 29 11 5 1 -23 3
-21 15 18 9 27 13 10 5 -19z m-5004 -368 l18 -104 -30 -26 c-42 -38 -59 -61
-45 -61 6 0 32 20 57 44 45 44 46 46 40 91 -4 25 -18 83 -32 127 -13 45 -22
83 -20 85 6 6 47 -136 59 -203 l11 -61 -47 -46 c-26 -26 -56 -47 -67 -47 -11
0 -20 3 -20 6 0 14 24 48 52 73 l31 28 -16 84 c-8 46 -18 104 -21 129 -9 71 8
4 30 -119z m-246 -74 c0 -12 11 -43 25 -70 29 -53 25 -64 -5 -14 -14 22 -20
26 -20 14 0 -10 11 -29 25 -42 16 -17 19 -25 10 -25 -26 0 -74 122 -61 155 8
22 26 9 26 -18z m6305 -524 c13 -29 22 -53 20 -53 -7 0 -85 153 -85 168 0 17
26 -29 65 -115z m-7635 -242 c0 -6 -12 -23 -26 -38 -28 -30 -28 -29 10 35 9
14 16 16 16 3z"/>
<path d="M5737 6983 c-11 -10 -8 -43 3 -43 6 0 10 11 10 25 0 26 -2 29 -13 18z"/>
<path d="M5755 6941 c-4 -27 1 -77 16 -148 21 -103 39 -152 39 -105 0 11 5 31
10 44 12 27 -29 239 -47 245 -6 2 -14 -14 -18 -36z m12 -48 c-3 -10 -5 -4 -5
12 0 17 2 24 5 18 2 -7 2 -21 0 -30z m44 -150 c-12 -20 -14 -14 -5 12 4 9 9
14 11 11 3 -2 0 -13 -6 -23z"/>
<path d="M4960 6540 c-18 -6 -3 -8 50 -9 78 -1 158 -17 270 -52 74 -23 69 -21
215 -89 61 -28 130 -55 155 -61 25 -5 54 -12 65 -15 50 -13 -37 42 -155 98
-155 74 -225 101 -317 122 -75 17 -238 20 -283 6z"/>
<path d="M5735 6290 c3 -5 16 -10 28 -9 21 0 21 1 2 9 -28 12 -37 12 -30 0z"/>
<path d="M3640 6246 c-19 -7 -53 -24 -75 -38 -90 -57 -120 -115 -134 -258 -18
-183 15 -321 92 -383 40 -32 87 -53 87 -38 0 8 55 328 71 416 6 33 22 109 36
168 24 103 24 109 7 128 -20 22 -35 23 -84 5z m-40 -680 c0 -3 -4 -8 -10 -11
-5 -3 -10 -1 -10 4 0 6 5 11 10 11 6 0 10 -2 10 -4z"/>
<path d="M5195 6045 c17 -8 37 -14 45 -14 8 0 0 6 -19 14 -42 19 -66 18 -26 0z"/>
<path d="M4792 5979 c-7 -11 -11 -23 -9 -25 7 -7 29 24 25 36 -2 6 -9 1 -16
-11z"/>
<path d="M4856 5965 c-19 -29 -21 -68 -4 -63 14 5 41 88 29 88 -5 0 -16 -11
-25 -25z"/>
<path d="M5820 5655 c4 -20 11 -40 15 -43 10 -10 -5 61 -15 72 -5 5 -5 -8 0
-29z"/>
<path d="M3555 5375 c-4 -36 -5 -68 -2 -71 2 -3 8 25 12 61 4 37 5 69 2 72 -3
2 -8 -25 -12 -62z"/>
<path d="M3512 5079 c-70 -464 -267 -1337 -372 -1643 -34 -100 -40 -138 -9
-61 91 234 303 1147 384 1657 15 92 25 175 23 184 -2 10 -13 -52 -26 -137z"/>
<path d="M5270 5327 c0 -4 40 -85 88 -180 105 -205 183 -425 177 -497 l-4 -45
9 40 c5 22 9 55 9 74 1 40 -6 40 161 -19 161 -58 201 -70 222 -70 34 0 18 19
-24 31 -24 6 -47 15 -53 19 -5 4 -44 18 -85 30 -41 12 -110 33 -152 46 -75 25
-77 26 -92 70 -8 24 -13 44 -10 44 3 0 49 -11 103 -24 171 -43 300 -86 314
-107 8 -10 16 -16 20 -13 3 3 3 -4 0 -16 -4 -14 1 -28 14 -40 20 -18 21 -18
33 6 12 22 11 27 -16 55 -30 32 -59 47 -154 81 -67 23 -281 78 -307 78 -14 0
-24 14 -37 48 -34 92 -216 420 -216 389z"/>
<path d="M5535 4831 c10 -41 19 -46 117 -75 106 -32 185 -57 243 -79 22 -8 43
-13 47 -11 10 7 -11 60 -30 77 -18 15 -176 65 -305 96 l-79 19 7 -27z"/>
<path d="M6527 4653 c-4 -3 -7 -11 -7 -17 0 -6 5 -5 12 2 6 6 9 14 7 17 -3 3
-9 2 -12 -2z"/>
<path d="M5305 4470 c3 -5 8 -10 11 -10 2 0 4 5 4 10 0 6 -5 10 -11 10 -5 0
-7 -4 -4 -10z"/>
<path d="M4753 4420 c0 -25 2 -35 4 -22 2 12 2 32 0 45 -2 12 -4 2 -4 -23z"/>
<path d="M4100 3826 c0 -19 -18 -138 -45 -288 -4 -23 -1 -28 15 -28 22 0 25
-17 11 -67 l-9 -31 46 4 c26 2 167 6 315 10 217 5 265 9 257 19 -6 7 -8 25 -4
39 6 25 14 29 69 39 11 2 -86 7 -215 11 -195 6 -250 4 -325 -9 -49 -9 -92 -18
-95 -21 -3 -3 -10 -24 -17 -47 l-12 -42 5 45 c3 25 9 48 13 52 3 3 51 14 106
23 148 25 504 13 622 -20 46 -13 88 -27 95 -31 12 -8 7 30 -10 77 -11 27 -30
31 -208 44 -31 2 -82 18 -128 39 -43 20 -80 36 -83 36 -3 0 -27 13 -52 28 -25
16 -70 36 -99 46 -51 16 -169 66 -204 86 -30 17 -48 12 -48 -14z"/>
<path d="M3705 2225 c55 -12 353 -56 485 -70 51 -6 59 -11 115 -67 66 -66 152
-113 189 -104 34 8 140 81 123 84 -8 2 -36 -11 -63 -27 -57 -37 -94 -39 -151
-8 -42 22 -138 107 -145 128 -2 6 -43 15 -93 20 -50 4 -164 17 -255 28 -91 11
-187 23 -215 25 l-50 6 60 -15z"/>
<path d="M4690 2154 c-22 -20 -40 -41 -40 -47 0 -6 17 5 38 25 20 19 46 40 57
46 17 10 18 11 3 12 -10 0 -36 -16 -58 -36z"/>
<path d="M8715 3231 c-97 -84 -120 -112 -155 -181 -26 -54 -18 -45 34 32 21
32 72 88 114 124 109 96 118 104 106 104 -5 0 -50 -35 -99 -79z"/>
<path d="M8533 2910 c0 -25 2 -35 4 -22 2 12 2 32 0 45 -2 12 -4 2 -4 -23z"/>
<path d="M2881 2852 c-17 -33 -65 -107 -108 -164 -149 -198 -314 -349 -478
-438 -44 -24 -89 -50 -100 -57 -18 -13 -16 -14 20 -7 60 10 95 31 89 52 -5 13
-4 14 4 4 8 -12 15 -11 41 2 18 10 29 21 25 28 -4 6 -3 8 4 4 26 -16 280 230
392 379 74 98 157 241 147 252 -3 3 -19 -22 -36 -55z"/>
<path d="M8530 2662 c0 -40 122 -202 154 -202 5 0 -19 29 -53 64 -34 36 -70
84 -81 108 -11 24 -20 37 -20 30z"/>
<path d="M6716 1448 c-12 -107 -9 -119 42 -183 27 -33 79 -105 117 -160 37
-55 94 -132 125 -171 32 -40 83 -111 115 -158 32 -48 60 -85 62 -82 7 7 -97
163 -167 250 -32 39 -89 118 -128 176 -39 58 -91 130 -117 160 l-47 55 7 83
c7 91 1 111 -9 30z"/>
<path d="M1482 1075 c0 -11 3 -29 8 -40 11 -25 11 1 0 35 -6 20 -8 21 -8 5z"/>
<path d="M9548 3454 c-35 -18 -37 -38 -3 -32 13 3 22 1 19 -4 -3 -4 -17 -8
-32 -9 -15 0 -128 -2 -252 -4 -240 -3 -391 -17 -422 -39 -29 -21 -7 -27 58
-15 32 5 160 14 284 19 232 10 323 20 375 40 21 8 26 13 16 19 -10 6 -8 10 5
15 16 6 16 8 4 16 -19 12 -20 12 -52 -6z m42 2 c0 -2 -7 -7 -16 -10 -8 -3 -12
-2 -9 4 6 10 25 14 25 6z"/>
<path d="M8043 1873 c9 -2 25 -2 35 0 9 3 1 5 -18 5 -19 0 -27 -2 -17 -5z"/>
<path d="M8047 1814 c132 -44 394 -111 508 -129 50 -8 126 -14 170 -14 77 2
76 2 -35 10 -63 4 -158 17 -210 29 -133 29 -384 95 -454 120 -33 11 -64 20
-70 19 -6 0 35 -16 91 -35z"/>
<path d="M8835 1720 c-24 -5 -2 -6 55 -3 106 5 97 8 242 -93 40 -28 89 -56
108 -62 65 -21 234 -43 385 -49 125 -5 175 -2 301 16 l150 23 35 -21 c20 -12
91 -32 160 -46 320 -65 641 -164 1069 -328 243 -94 428 -152 730 -228 304 -77
672 -159 716 -159 19 0 20 109 2 114 -7 2 -89 18 -183 36 -301 57 -1038 247
-1650 427 -369 108 -459 130 -735 178 -52 9 -106 24 -119 32 -22 14 -38 13
-170 -7 l-146 -23 -208 22 c-296 30 -341 41 -458 110 -54 32 -96 61 -92 65 8
8 -141 5 -192 -4z"/>
<path d="M6197 1125 c3 -22 25 -85 49 -140 112 -262 163 -498 171 -787 6 -215
23 -273 23 -79 0 292 -59 573 -181 863 -27 65 -49 126 -49 135 0 10 -5 25 -10
33 -6 10 -8 2 -3 -25z"/>
<path d="M1595 763 c-6 -58 -38 -249 -96 -582 -17 -95 -28 -175 -25 -178 7 -7
10 9 55 277 68 405 87 540 78 540 -2 0 -8 -26 -12 -57z"/>
</g>
</svg>
