<?xml version="1.0" standalone="no"?>
<!DOCTYPE svg PUBLIC "-//W3C//DTD SVG 20010904//EN"
 "http://www.w3.org/TR/2001/REC-SVG-20010904/DTD/svg10.dtd">
<svg version="1.0" xmlns="http://www.w3.org/2000/svg"
 width="1280.000000pt" height="720.000000pt" viewBox="0 0 1280.000000 720.000000"
 preserveAspectRatio="xMidYMid meet">
<metadata>
Created by potrace 1.16, written by Peter Selinger 2001-2019
</metadata>
<g transform="translate(0.000000,720.000000) scale(0.100000,-0.100000)"
fill="#000000" stroke="none">
<path d="M0 3668 c0 -2826 3 -3530 12 -3520 7 7 27 35 43 62 17 27 100 158
186 292 203 316 223 351 249 428 27 80 30 84 82 99 75 22 93 36 90 68 -4 31
-26 116 -47 178 -30 88 -28 103 13 130 20 13 51 29 67 35 l30 10 18 138 c56
435 58 439 134 498 127 97 214 118 1048 249 50 8 122 15 160 15 l71 0 74 103
c92 125 90 122 195 337 123 252 120 244 170 375 25 66 52 134 59 150 7 17 43
120 80 230 37 110 71 208 76 217 6 10 10 23 10 29 0 11 16 51 45 114 31 66 83
421 100 675 3 47 9 144 14 215 5 72 6 263 3 425 -7 307 7 796 28 970 47 387
204 788 383 978 l31 32 -1712 0 -1712 0 0 -3532z"/>
<path d="M3396 7149 c-185 -206 -330 -575 -376 -959 -21 -174 -35 -663 -28
-970 3 -162 2 -353 -3 -425 -5 -71 -11 -168 -14 -215 -10 -146 -44 -430 -66
-545 -11 -60 -34 -138 -50 -173 -16 -34 -29 -71 -29 -81 0 -11 -4 -22 -9 -26
-5 -3 -13 -20 -17 -37 -3 -18 -10 -39 -15 -48 -4 -8 -29 -78 -55 -155 -91
-272 -187 -509 -302 -745 -85 -174 -98 -196 -195 -331 l-69 -97 -107 -5 c-96
-4 -245 -26 -696 -102 -138 -24 -229 -45 -345 -81 -64 -21 -150 -83 -186 -135
-26 -40 -32 -62 -48 -180 -9 -74 -23 -174 -31 -224 -8 -49 -14 -109 -14 -131
-1 -36 -4 -43 -27 -48 -14 -4 -44 -19 -66 -33 -37 -25 -39 -29 -35 -67 3 -23
16 -79 30 -126 39 -135 40 -146 12 -164 -13 -9 -33 -16 -43 -16 -41 0 -84 -32
-103 -77 -10 -25 -19 -52 -19 -62 0 -9 -20 -50 -45 -90 -25 -40 -45 -74 -45
-76 0 -4 -279 -439 -310 -485 -78 -112 -90 -137 -90 -189 l0 -51 1559 0 1559
0 -8 43 c-30 153 -43 309 -37 438 7 149 14 193 59 349 17 58 32 115 35 128 3
12 12 22 20 22 11 0 14 -7 10 -22 -2 -13 -14 -66 -27 -118 -58 -253 -65 -418
-29 -683 l22 -157 1619 0 1618 0 0 153 c0 146 -19 369 -39 452 -33 138 -41
178 -37 182 2 2 12 -31 21 -74 10 -43 21 -89 25 -103 20 -62 8 22 -17 125 -21
85 -29 104 -34 85 -5 -18 -7 -20 -8 -6 -1 10 -21 68 -45 130 -55 138 -59 153
-46 161 6 4 17 -10 26 -32 8 -21 22 -52 30 -70 32 -70 86 -251 109 -367 34
-169 45 -289 45 -476 l0 -160 851 0 851 0 -4 66 c-4 66 -4 67 -61 119 -31 29
-61 64 -67 77 -12 26 -32 58 -73 114 -44 61 -154 270 -193 365 -38 95 -39 99
-23 99 5 0 8 -4 5 -9 -8 -12 3 -41 15 -41 5 0 9 10 9 23 0 28 -36 243 -49 294
-5 21 -26 119 -46 218 -83 412 -106 481 -210 621 -5 7 -7 16 -3 19 6 6 11 5
218 -50 74 -20 153 -40 175 -45 181 -38 360 -82 409 -99 70 -25 122 -28 61 -4
-101 40 -239 82 -335 102 -169 36 -456 109 -575 145 -171 53 -274 83 -345 101
-36 9 -96 27 -135 40 -38 13 -159 49 -267 80 -214 61 -282 84 -578 197 -236
91 -310 115 -375 123 -137 18 -266 192 -336 450 -25 92 -25 129 -1 120 9 -3
31 -8 47 -11 17 -2 0 6 -36 19 -37 12 -73 27 -80 32 -8 6 -26 17 -41 24 -56
29 -135 110 -180 188 -25 43 -48 87 -52 98 -15 42 -36 212 -36 294 0 78 -3 91
-32 141 -59 104 -195 375 -211 420 -8 25 -20 70 -26 100 -6 30 -20 99 -31 153
-11 54 -29 119 -41 145 -12 26 -25 63 -29 82 l-8 35 -1 -31 c0 -18 11 -57 25
-88 16 -35 38 -122 57 -224 29 -159 39 -189 108 -339 21 -45 18 -90 -8 -100
-19 -7 -162 40 -234 76 -30 15 -118 61 -196 101 -163 83 -152 65 -128 215 8
49 28 233 45 410 36 374 47 456 99 706 26 129 44 194 59 215 12 16 80 173 152
348 111 273 227 532 261 586 5 8 14 26 19 40 6 14 15 32 20 40 6 8 16 26 22
40 7 14 24 41 39 61 15 19 31 47 34 62 4 15 23 40 41 57 29 25 43 30 88 30
104 0 224 -34 285 -81 32 -25 45 -24 83 10 47 41 92 61 134 61 32 0 44 -9 110
-77 l75 -78 24 -105 c13 -58 45 -166 70 -240 26 -74 57 -166 70 -205 12 -38
27 -81 33 -95 6 -14 27 -70 47 -125 36 -98 104 -240 153 -319 l25 -40 -27 -22
c-33 -29 -33 -34 4 -34 17 0 30 5 30 11 0 5 -4 7 -10 4 -5 -3 -10 -2 -10 3 0
6 6 12 14 15 9 4 16 -3 21 -21 7 -29 79 -156 106 -187 18 -22 53 -78 68 -110
5 -11 29 -63 54 -115 74 -159 92 -230 102 -402 6 -95 4 -110 -19 -171 -69
-183 -228 -460 -281 -490 -8 -4 -15 -14 -15 -21 0 -8 -7 -20 -16 -27 -14 -12
-14 -14 3 -21 16 -7 15 -7 -4 -5 -15 1 -38 -15 -75 -55 -63 -68 -53 -79 12
-13 29 29 47 41 55 35 11 -9 87 55 115 99 8 13 27 41 42 62 28 39 138 251 138
265 0 5 12 34 28 66 18 38 38 63 62 77 78 46 122 98 190 221 63 116 80 158 95
240 7 41 31 131 54 199 37 111 62 226 102 461 7 41 16 129 20 195 l7 120 -3
-130 c-2 -71 -9 -159 -16 -195 -50 -279 -65 -348 -103 -464 -24 -72 -49 -164
-55 -205 -8 -49 -25 -100 -50 -150 -91 -180 -128 -230 -206 -282 -38 -26 -66
-54 -77 -77 -17 -34 -17 -38 3 -106 12 -39 33 -96 49 -126 31 -63 50 -134 50
-188 0 -47 -42 -137 -70 -152 -12 -6 -30 -31 -41 -54 -20 -46 -46 -193 -51
-291 l-3 -60 143 -2 c79 -1 146 -4 149 -6 2 -3 -61 -6 -140 -6 -109 -1 -147 2
-156 12 -7 10 -8 39 -1 103 23 203 43 269 101 326 37 36 59 88 59 140 0 37
-26 132 -45 166 -9 15 -24 50 -35 77 -34 88 -21 22 20 -108 55 -173 52 -211
-21 -278 -15 -13 -36 -47 -47 -74 -27 -65 -62 -238 -62 -304 l0 -51 -43 0
c-82 0 -269 30 -315 50 -51 23 -88 53 -104 85 -5 11 5 3 24 -17 18 -21 54 -47
80 -58 45 -20 233 -50 310 -50 l38 0 0 46 c0 61 37 238 61 293 10 24 19 50 19
57 0 7 14 24 31 36 55 41 74 109 48 175 -34 86 -79 261 -73 285 3 18 1 28 -6
28 -6 0 -10 -6 -8 -12 6 -17 -106 -243 -143 -289 -16 -20 -29 -40 -29 -43 0
-23 -112 -127 -129 -121 -8 3 -30 -10 -50 -29 -44 -42 -132 -79 -168 -70 -14
4 -56 22 -94 40 -38 19 -74 34 -80 34 -5 0 -35 9 -67 20 -31 12 -133 41 -227
65 -93 25 -195 53 -225 64 -42 14 -60 16 -79 7 -21 -9 -27 -5 -65 36 -22 25
-54 66 -69 92 -17 26 -36 46 -46 46 -14 0 -20 15 -29 78 -16 99 -71 215 -146
305 -108 129 -186 160 -240 96 -33 -39 -33 -81 -1 -154 13 -30 33 -104 45
-163 19 -95 26 -131 44 -207 3 -11 4 8 3 43 -2 53 1 62 16 62 14 0 17 -10 17
-65 0 -63 1 -65 20 -55 14 7 20 7 20 0 0 -5 -7 -10 -15 -10 -8 0 -15 -6 -15
-12 0 -9 -4 -8 -10 2 -5 8 -10 42 -11 75 l-2 60 -8 -65 -7 -65 89 -180 c50
-99 106 -209 125 -243 31 -59 34 -70 34 -151 0 -76 22 -268 33 -289 75 -143
160 -245 235 -283 15 -7 34 -19 43 -27 10 -7 39 -19 65 -27 149 -42 190 -60
84 -38 -46 10 -15 -6 41 -21 29 -8 45 -15 34 -15 -11 0 -55 10 -97 23 l-78 24
0 -21 c1 -33 35 -154 63 -222 77 -186 181 -294 302 -314 33 -5 89 -19 125 -31
64 -20 110 -38 345 -130 165 -65 297 -109 525 -174 107 -30 214 -62 237 -70
24 -8 89 -27 145 -41 57 -15 112 -30 123 -35 11 -5 54 -18 95 -30 41 -11 98
-28 125 -36 86 -27 303 -82 468 -119 188 -42 309 -76 373 -105 53 -25 246 -66
382 -83 81 -9 102 -9 165 7 78 20 212 19 225 0 8 -13 175 -106 217 -122 62
-23 141 -32 283 -33 81 -1 157 -4 170 -8 39 -11 -288 -2 -363 10 -88 14 -131
31 -223 87 -41 24 -76 42 -78 39 -7 -6 93 -68 165 -103 31 -15 65 -32 75 -37
21 -10 282 -28 441 -31 97 -1 323 23 297 31 -7 3 -49 0 -95 -6 -104 -14 -254
-24 -247 -17 3 3 44 8 90 11 47 3 134 13 194 21 59 8 111 13 114 10 3 -4 -8
-7 -24 -7 l-29 -1 30 -7 c25 -6 18 -9 -45 -19 -162 -25 -251 -33 -317 -28 -37
3 -138 9 -224 14 -190 11 -243 28 -396 129 -85 56 -153 66 -247 38 -27 -8 -78
-15 -113 -15 -75 0 -384 60 -497 96 -44 14 -122 34 -175 45 -53 11 -121 26
-151 34 -30 8 -122 30 -205 50 -82 20 -159 40 -170 45 -11 5 -32 11 -47 14
l-28 6 38 -49 c68 -91 97 -186 177 -586 20 -99 41 -197 46 -218 14 -55 49
-267 49 -299 0 -16 -4 -28 -10 -28 -11 0 22 -89 50 -135 10 -16 41 -75 70
-130 29 -55 67 -118 84 -140 17 -22 40 -58 51 -79 11 -22 43 -63 72 -90 59
-58 73 -87 73 -157 l0 -49 2330 0 2330 0 0 399 c0 372 -1 400 -17 405 -10 2
-43 7 -73 11 -65 7 -206 31 -271 46 -25 5 -73 14 -105 19 -174 26 -583 139
-802 222 -73 27 -184 65 -245 83 -62 18 -161 49 -222 69 -319 106 -563 175
-620 176 -31 1 -152 39 -124 40 9 0 36 -7 59 -15 23 -8 54 -15 69 -15 52 0
284 -66 631 -180 69 -22 172 -55 230 -72 58 -17 155 -50 215 -74 195 -76 635
-198 809 -224 32 -5 80 -14 105 -19 65 -15 206 -39 271 -46 30 -4 63 -9 73
-11 13 -4 17 1 17 19 0 24 -4 26 -87 37 -137 18 -437 72 -623 112 -52 11 -115
24 -140 28 -66 12 -332 80 -348 89 -8 4 -12 11 -10 15 5 11 -604 210 -942 306
-80 23 -192 57 -250 76 -110 36 -171 46 -85 14 75 -28 39 -24 -46 5 -40 14
-80 23 -88 20 -9 -3 -12 -3 -8 2 4 4 -7 14 -24 23 -18 8 -34 21 -37 28 -4 14
29 17 44 3 14 -14 256 -92 514 -166 69 -20 152 -45 185 -55 211 -65 471 -148
597 -191 81 -27 154 -49 162 -49 8 0 18 -5 22 -12 5 -8 2 -9 -9 -5 -10 3 -17
2 -17 -2 0 -10 441 -118 555 -136 22 -4 94 -17 160 -30 178 -34 422 -74 463
-75 9 0 12 332 12 1626 l0 1626 -247 -7 c-338 -9 -380 -11 -448 -29 -33 -9
-109 -25 -170 -37 -60 -12 -141 -27 -180 -35 -38 -8 -108 -20 -155 -29 -47 -8
-157 -28 -245 -46 -319 -62 -378 -76 -550 -129 -77 -24 -192 -59 -255 -78 -63
-19 -203 -64 -310 -99 -107 -36 -262 -85 -345 -109 -82 -24 -163 -48 -180 -53
-16 -5 -66 -19 -110 -31 -44 -12 -85 -26 -90 -31 -6 -4 -51 -13 -100 -18 -109
-13 -486 -31 -535 -25 -30 3 -32 2 -10 -5 l25 -9 -27 -1 c-19 -1 -28 4 -28 14
0 8 6 15 13 15 8 0 58 7 113 15 54 9 191 20 304 25 212 10 238 15 395 80 17 6
59 21 95 32 36 11 69 24 75 29 5 5 18 9 30 9 11 0 29 6 40 14 28 19 170 59
187 53 8 -3 5 -6 -8 -6 -21 -1 -123 -33 -159 -51 -11 -5 -65 -25 -120 -44
-192 -67 -284 -100 -280 -104 3 -3 106 23 190 49 17 5 84 25 150 44 142 43
605 191 655 210 19 8 96 30 172 51 110 30 135 40 131 53 -4 13 -3 13 5 2 8
-11 19 -10 68 7 74 25 353 84 654 138 80 15 174 32 210 39 36 7 115 22 175 34
61 12 137 28 170 37 67 17 113 20 458 30 130 3 237 10 237 15 0 5 -82 10 -182
12 -355 4 -375 2 -773 -77 -99 -20 -250 -50 -335 -67 -85 -16 -189 -39 -230
-49 -110 -28 -332 -76 -435 -95 -81 -15 -551 -152 -600 -175 -41 -19 -105 -31
-122 -22 -10 5 -47 12 -81 16 -35 3 -121 21 -190 40 -133 36 -236 56 -387 76
-49 6 -122 20 -161 31 -187 52 -742 46 -1054 -11 -172 -31 -392 -81 -386 -88
3 -2 42 3 88 12 206 40 433 57 843 63 l400 5 205 -31 c113 -17 243 -36 290
-42 47 -6 139 -24 205 -40 66 -16 132 -29 145 -29 14 0 32 -5 40 -10 22 -14
-42 -3 -185 30 -66 15 -158 33 -205 39 -47 6 -177 25 -290 42 l-205 31 -400
-5 c-502 -7 -746 -31 -995 -100 -137 -38 -360 -57 -800 -70 -139 -4 -144 -4
-50 4 58 4 213 13 345 18 242 11 387 27 503 58 85 22 71 27 -24 9 -124 -25
-330 -44 -574 -56 -124 -5 -247 -13 -275 -15 -27 -3 -68 -8 -90 -10 -37 -4
-38 -4 -10 5 17 5 111 14 210 20 549 32 657 43 849 91 243 59 421 93 576 109
277 27 710 18 845 -18 39 -11 111 -25 160 -32 158 -21 257 -41 388 -76 70 -19
158 -38 195 -41 37 -3 72 -10 79 -15 12 -9 59 0 108 22 11 5 58 20 105 34 47
13 159 47 250 74 91 28 206 58 255 67 104 19 326 67 435 95 41 10 145 32 230
49 85 17 236 47 335 67 391 79 374 77 678 75 l277 -2 0 1520 0 1521 -3030 0
c-1667 0 -3030 -2 -3030 -4 0 -3 16 -31 35 -63 39 -64 78 -155 131 -302 69
-188 86 -262 129 -538 15 -95 15 -117 -1 -290 -9 -104 -17 -200 -18 -215 -1
-16 -5 -28 -10 -28 -4 0 -6 15 -3 33 3 17 13 114 22 215 17 195 16 218 -31
467 -8 44 -17 94 -20 110 -3 17 -9 39 -13 50 -4 11 -22 65 -40 120 -52 159
-92 254 -143 344 -26 46 -48 88 -48 92 0 5 -738 9 -1644 9 l-1644 0 -46 -51z
m2434 -368 c-9 -23 -9 -23 -4 9 4 28 3 32 -6 20 -10 -13 -11 -12 -6 3 3 10 6
24 7 30 0 7 5 1 10 -12 6 -16 6 -33 -1 -50z m20 -51 c0 -11 -4 -20 -9 -20 -5
0 -7 9 -4 20 3 11 7 20 9 20 2 0 4 -9 4 -20z m-2121 -469 c8 -5 11 -16 8 -25
-5 -13 -49 -317 -87 -604 -15 -115 -15 -115 -63 -109 -43 6 -105 49 -124 88
-7 13 -19 38 -27 54 -8 17 -23 46 -32 65 -25 49 -25 234 -1 307 36 105 104
168 225 209 78 26 82 27 101 15z m3318 -308 c-3 -10 -5 -4 -5 12 0 17 2 24 5
18 2 -7 2 -21 0 -30z m-3452 -527 c-18 -94 -18 -146 0 -61 7 33 13 50 14 38 1
-12 -6 -54 -14 -94 -9 -40 -31 -170 -51 -288 -78 -473 -223 -1133 -299 -1366
-30 -90 -111 -365 -122 -413 -3 -12 -10 -25 -15 -28 -5 -3 -6 6 -2 23 11 45
-3 23 -30 -48 -14 -35 -25 -58 -26 -51 0 8 11 41 24 75 14 34 36 100 50 147
14 47 48 162 76 255 29 94 65 222 81 285 73 285 199 896 229 1105 9 69 47 275
81 453 6 30 13 52 15 50 2 -3 -3 -39 -11 -82z m25 37 c-11 -17 -11 -17 -6 0 3
10 7 26 7 35 1 15 2 15 6 0 2 -10 -1 -25 -7 -35z m2902 -265 c-6 -6 -7 0 -4
19 5 21 7 23 10 9 2 -10 0 -22 -6 -28z m150 -280 c-3 -14 -2 -19 6 -14 7 4 12
14 12 23 0 9 3 13 7 10 7 -7 -36 -97 -46 -97 -13 0 -10 44 5 71 17 34 24 37
16 7z m-1935 -424 c-3 -3 -12 -4 -19 -1 -8 3 -5 6 6 6 11 1 17 -2 13 -5z m50
-66 c-2 -13 -4 -3 -4 22 0 25 2 35 4 23 2 -13 2 -33 0 -45z m26 5 c4 -36 2
-43 -11 -42 -10 0 -12 3 -7 5 6 2 9 23 7 47 -5 54 3 46 11 -10z m75 20 c-5
-23 -23 -20 -26 4 -3 18 0 21 13 17 9 -4 15 -13 13 -21z m1459 -161 c-10 -10
-14 -22 -10 -25 3 -4 1 -7 -5 -7 -7 0 -12 3 -12 6 0 9 35 52 39 48 2 -2 -3
-12 -12 -22z m-57 -96 c0 -3 -4 -8 -10 -11 -5 -3 -10 -1 -10 4 0 6 5 11 10 11
6 0 10 -2 10 -4z m-2118 -391 c89 -46 192 -87 343 -137 112 -37 187 -51 345
-64 109 -9 105 -6 116 -75 7 -43 7 -62 0 -65 -6 -2 -54 10 -106 26 -52 16 -89
29 -82 29 10 1 98 -23 173 -46 15 -4 15 1 5 54 -9 46 -16 58 -31 60 -262 23
-385 47 -520 103 -11 4 -58 22 -105 40 -47 18 -114 48 -148 66 -35 19 -70 34
-77 34 -8 0 -15 -26 -20 -82 -4 -45 -13 -115 -21 -156 -20 -106 -22 -101 34
-87 132 35 227 43 433 39 113 -3 219 -9 235 -14 28 -8 28 -8 4 -10 -23 -2 -22
-3 8 -11 27 -8 32 -14 32 -41 0 -17 -7 -39 -15 -48 -15 -16 -10 -19 67 -39 89
-23 183 -50 209 -60 10 -3 47 -34 84 -69 63 -59 67 -66 60 -95 -4 -18 -10
-113 -15 -212 -8 -193 -6 -209 42 -251 12 -11 41 -27 63 -36 22 -9 69 -27 105
-41 36 -14 102 -36 147 -49 l82 -22 16 -74 c10 -43 13 -78 8 -83 -8 -8 -125
-38 -357 -90 -119 -27 -419 -108 -426 -116 -7 -8 27 -1 185 42 77 21 178 46
225 56 47 9 139 29 205 44 167 38 185 40 185 24 1 -8 7 -50 16 -94 8 -44 18
-127 23 -185 5 -58 21 -155 35 -216 27 -108 29 -113 91 -183 35 -40 90 -111
122 -157 145 -211 163 -239 163 -251 0 -7 -4 -13 -8 -13 -28 0 -488 -96 -617
-129 -126 -32 -288 -106 -466 -214 -110 -67 -188 -121 -183 -128 3 -5 -3 -6
-13 -3 -17 5 -17 5 0 -9 16 -14 16 -15 -5 -29 -13 -8 -32 -18 -43 -21 -20 -7
-20 -7 0 8 20 16 20 16 -1 21 -19 5 -21 18 -32 162 -11 146 -44 368 -57 380
-8 8 -6 -33 10 -163 15 -130 22 -346 11 -364 -11 -16 -53 10 -106 64 -113 117
-303 200 -600 264 -85 19 -519 9 -643 -13 -54 -10 -101 -16 -104 -13 -13 13
155 527 182 557 8 8 17 38 20 65 64 490 95 653 139 715 82 116 194 327 254
480 36 91 87 262 133 450 14 55 15 55 63 67 100 25 250 35 435 31 102 -3 197
-10 211 -16 20 -9 16 -10 -25 -4 -92 13 -455 8 -549 -7 -101 -17 -120 -29
-130 -87 -16 -87 -89 -336 -132 -448 -45 -114 -170 -364 -200 -397 -8 -8 -14
-19 -14 -22 0 -4 -16 -29 -34 -55 -34 -47 -62 -131 -48 -143 4 -3 108 -11 232
-18 124 -6 245 -16 270 -23 139 -35 153 -41 210 -89 33 -27 61 -49 64 -49 2 0
27 -16 56 -35 59 -40 91 -43 138 -15 36 22 82 27 82 8 0 -15 -52 -52 -93 -67
-66 -25 -146 13 -276 130 l-63 57 -127 16 c-69 9 -160 18 -201 21 -41 3 -126
10 -188 16 -62 6 -116 9 -119 6 -5 -5 -59 -371 -77 -516 -4 -30 -15 -69 -26
-87 -32 -51 -188 -520 -177 -531 3 -2 45 4 93 13 117 22 563 32 644 14 324
-72 477 -139 618 -273 40 -38 76 -67 79 -63 10 10 3 220 -13 368 -16 142 -14
192 6 172 15 -15 50 -239 62 -396 l11 -146 26 16 c14 9 62 39 106 67 368 236
485 278 1094 395 57 11 106 21 107 23 4 3 -37 65 -159 242 -33 46 -85 114
-118 151 -48 54 -63 80 -77 133 -36 128 -44 167 -52 276 -5 61 -13 133 -19
160 -5 28 -13 67 -16 89 -5 33 -9 37 -28 33 -12 -3 -58 -12 -102 -22 -44 -9
-96 -20 -115 -25 -19 -4 -73 -15 -120 -24 -47 -9 -105 -23 -130 -31 -25 -7
-126 -34 -225 -60 -135 -35 -191 -54 -225 -77 -34 -23 -40 -25 -25 -8 26 29
48 40 120 61 33 10 51 18 39 18 -42 2 -124 -30 -164 -64 -51 -43 -69 -46 -20
-4 47 41 78 56 147 73 32 8 141 36 243 64 102 27 248 64 325 82 188 43 255 61
261 71 3 5 1 26 -5 46 -5 21 -12 50 -15 64 -5 23 -16 29 -103 54 -54 15 -115
35 -136 45 -21 10 -51 22 -67 25 -17 4 -32 11 -35 16 -4 5 -14 9 -24 9 -21 0
-66 46 -79 80 -10 26 2 376 14 417 5 18 -7 34 -66 90 -44 41 -85 71 -104 75
-17 4 -80 21 -141 37 -60 17 -121 31 -135 32 -21 1 -22 2 -5 7 l20 5 -20 8
c-19 7 -19 8 1 8 28 1 46 24 42 53 -4 28 -69 48 -93 28 -18 -15 -11 -49 13
-67 9 -8 11 -13 4 -13 -6 0 -19 11 -28 25 -22 34 -6 72 33 78 27 4 -63 8 -297
12 -107 2 -233 -13 -329 -41 -29 -8 -56 -13 -59 -10 -3 4 2 50 11 104 9 53 19
126 23 162 3 36 7 71 9 78 7 20 34 14 107 -23z m1877 -92 c53 -36 137 -63 244
-79 104 -15 407 -23 467 -11 32 6 33 6 10 -4 -32 -15 -338 -14 -451 1 -107 14
-192 37 -249 68 -48 26 -99 78 -100 101 0 8 10 -1 23 -20 12 -18 37 -44 56
-56z m784 -100 c-7 -2 -19 -2 -25 0 -7 3 -2 5 12 5 14 0 19 -2 13 -5z m-2754
-181 c0 -16 -1 -16 -7 0 -8 19 -25 12 -35 -12 -4 -10 -6 -8 -6 7 -1 13 6 23
17 26 23 5 32 -1 31 -21z m4611 -205 c0 -7 -19 -31 -41 -52 -95 -91 -146 -213
-135 -319 3 -33 3 -56 -1 -53 -3 4 -10 37 -14 75 l-8 67 3 -80 c2 -48 0 -70
-4 -55 -22 69 1 198 48 279 31 53 121 151 139 151 7 0 13 -6 13 -13z m-5600
-67 c-7 -17 -15 -28 -18 -26 -2 3 1 19 8 36 7 17 15 28 18 26 2 -3 -1 -19 -8
-36z m-140 -268 c0 -18 -38 -119 -66 -177 -77 -157 -172 -253 -424 -424 -112
-76 -188 -117 -198 -106 -3 3 1 5 9 5 12 0 12 2 0 9 -11 7 15 29 100 85 214
141 289 197 355 267 54 58 144 200 168 265 28 79 36 94 46 94 5 0 10 -8 10
-18z m5591 -222 c14 -32 43 -70 82 -106 44 -41 52 -52 30 -41 -17 9 -47 35
-67 59 -20 23 -36 36 -36 30 0 -20 68 -89 100 -102 17 -7 30 -16 30 -21 0 -29
-115 70 -152 131 -20 34 -38 87 -31 94 14 13 24 3 44 -44z m-3013 -58 c2 -7
-3 -12 -12 -12 -9 0 -16 7 -16 16 0 17 22 14 28 -4z m-1996 -319 c-6 -2 -10
-9 -6 -14 3 -5 0 -9 -5 -9 -6 0 -11 7 -11 15 0 8 8 15 18 14 10 0 12 -3 4 -6z
m1085 -235 c-3 -8 -6 -5 -6 6 -1 11 2 17 5 13 3 -3 4 -12 1 -19z m33 7 c-7 -9
-15 -13 -19 -10 -3 3 1 10 9 15 21 14 24 12 10 -5z m-1215 -353 c-3 -3 -5 0
-5 7 0 7 -4 10 -9 7 -5 -4 -7 4 -3 16 l5 22 9 -24 c5 -12 6 -25 3 -28z m-11
-17 c3 -8 1 -15 -4 -15 -6 0 -10 7 -10 15 0 8 2 15 4 15 2 0 6 -7 10 -15z
m6334 -132 c-10 -2 -28 -2 -40 0 -13 2 -5 4 17 4 22 1 32 -1 23 -4z m406 -41
c15 -7 38 -10 50 -7 20 5 20 5 1 -5 -24 -13 -95 12 -95 33 0 8 3 8 8 2 4 -6
20 -16 36 -23z m-3431 -76 l-6 -93 40 -44 c22 -24 62 -78 88 -119 27 -41 72
-107 102 -146 29 -40 53 -74 53 -77 0 -3 20 -34 44 -69 43 -62 96 -161 96
-179 0 -24 -29 -5 -50 34 -37 65 -129 203 -198 296 -35 46 -75 105 -89 130
-14 25 -41 62 -58 81 -18 19 -38 45 -44 57 -12 23 -13 152 -3 191 4 13 7 -24
7 -82 0 -104 0 -105 32 -138 17 -18 54 -67 81 -108 26 -41 77 -113 111 -159
34 -47 85 -122 113 -168 28 -46 53 -81 56 -78 7 7 -67 128 -138 225 -34 47
-90 128 -124 180 -35 52 -71 101 -80 109 -43 35 -54 97 -40 205 11 75 14 53 7
-48z m2930 87 c-7 -2 -21 -2 -30 0 -10 3 -4 5 12 5 17 0 24 -2 18 -5z m587
-33 c-12 -8 -12 -10 5 -11 11 0 14 -3 7 -6 -7 -3 -20 -2 -30 2 -14 5 -14 7 -2
15 8 6 20 10 25 10 6 0 3 -5 -5 -10z m190 -31 c10 -6 4 -7 -15 -3 -16 4 -37
11 -45 15 -10 6 -4 7 15 3 17 -4 37 -11 45 -15z m-8691 -185 c10 26 51 -140
51 -202 0 -40 -5 -53 -27 -74 -34 -32 -64 -47 -80 -41 -23 8 -13 28 32 62 50
37 51 40 31 126 -13 59 -29 169 -19 130 5 -19 6 -19 12 -1z m-1052 -196 c-3
-7 -5 -2 -5 12 0 14 2 19 5 13 2 -7 2 -19 0 -25z m811 -10 c12 -24 32 -60 44
-80 24 -38 19 -60 -10 -42 -17 11 -64 98 -77 142 -11 39 20 25 43 -20z m1712
-33 c0 -8 -7 -15 -15 -15 -8 0 -15 7 -15 15 0 8 7 15 15 15 8 0 15 -7 15 -15z
m-1654 -381 c-14 -66 -34 -162 -46 -214 -37 -170 -42 -203 -50 -310 -7 -101
-7 -102 -8 -30 -2 77 12 179 47 335 11 50 33 150 48 224 15 73 29 129 31 123
1 -5 -8 -63 -22 -128z m9 -69 c-56 -263 -77 -374 -85 -465 l-9 -95 5 100 c2
55 15 152 28 215 13 63 37 179 52 258 16 78 30 134 32 125 1 -10 -9 -72 -23
-138z"/>
<path d="M3644 6241 c-66 -21 -147 -73 -179 -115 -53 -70 -69 -123 -69 -241
-1 -109 1 -117 43 -195 4 -8 16 -33 27 -55 24 -50 97 -107 133 -103 22 3 27 9
33 48 7 42 86 612 91 655 3 25 -16 27 -79 6z"/>
<path d="M3552 5198 c-11 -62 -26 -149 -32 -193 -31 -214 -157 -821 -229
-1105 -16 -63 -52 -191 -81 -285 -28 -93 -62 -207 -76 -253 -14 -46 -24 -88
-22 -94 8 -22 202 664 252 892 97 435 226 1133 213 1147 -3 2 -14 -47 -25
-109z"/>
<path d="M6657 4893 c-4 -3 -7 -13 -7 -22 1 -13 3 -13 11 2 11 19 8 33 -4 20z"/>
<path d="M3550 2228 c0 -5 8 -8 18 -8 9 0 55 -4 102 -9 47 -5 126 -12 175 -16
50 -3 146 -13 214 -22 l124 -16 60 -51 c185 -157 232 -171 328 -100 42 30 15
33 -36 3 -66 -39 -138 -11 -281 108 -50 42 -78 53 -201 82 -61 15 -503 40
-503 29z"/>
<path d="M4787 764 c-11 -11 3 -24 18 -18 8 4 12 10 9 15 -6 11 -18 12 -27 3z"/>
<path d="M8623 3183 c-57 -58 -109 -151 -117 -208 -5 -34 -3 -32 13 17 20 62
94 173 137 207 15 12 24 24 21 27 -3 4 -28 -16 -54 -43z"/>
<path d="M2908 2827 c-36 -94 -104 -209 -163 -275 -53 -58 -218 -185 -367
-282 -96 -61 -107 -70 -89 -70 24 0 371 244 371 261 0 5 6 9 14 9 21 0 121
113 165 188 45 76 103 210 99 229 -2 7 -15 -20 -30 -60z"/>
<path d="M8515 2673 c14 -33 45 -77 34 -48 -26 69 -34 85 -41 85 -5 0 -1 -17
7 -37z"/>
<path d="M7110 764 c0 -5 7 -19 15 -30 8 -10 15 -14 15 -8 0 5 -7 19 -15 30
-8 10 -15 14 -15 8z"/>
<path d="M1751 1245 c0 -16 6 -57 14 -90 22 -88 20 -96 -30 -137 -25 -20 -42
-39 -37 -42 5 -3 28 11 51 30 37 32 41 40 41 82 0 26 -9 79 -20 117 -12 46
-19 60 -19 40z"/>
<path d="M1480 1086 c17 -45 64 -126 73 -126 4 0 -9 30 -29 68 -43 77 -60 100
-44 58z"/>
<path d="M5006 7000 c-20 -22 -36 -46 -36 -54 0 -7 -14 -33 -32 -57 -26 -36
-208 -389 -208 -404 0 -2 -13 -32 -30 -67 -16 -35 -43 -99 -60 -143 -18 -44
-43 -104 -56 -133 -13 -29 -24 -57 -24 -62 0 -5 -15 -41 -34 -82 -18 -40 -43
-100 -55 -133 -13 -33 -33 -73 -45 -90 -17 -23 -33 -82 -64 -240 -53 -268 -55
-287 -92 -670 -17 -177 -37 -361 -45 -410 -23 -141 -34 -123 128 -206 216
-111 277 -140 337 -160 71 -24 78 -24 91 4 8 19 4 36 -25 97 -20 41 -36 80
-36 86 0 6 -7 17 -15 24 -8 7 -15 25 -15 40 0 59 -60 333 -86 389 -36 81 -32
157 11 201 25 26 36 30 83 30 70 0 101 -19 193 -118 79 -85 116 -154 150 -279
12 -43 28 -82 36 -86 8 -5 41 -43 75 -85 33 -42 66 -80 72 -83 6 -4 36 -12 66
-18 30 -7 64 -16 75 -21 11 -4 99 -29 195 -55 209 -56 271 -76 370 -120 108
-48 146 -49 183 -7 13 15 45 50 71 78 25 28 46 56 46 62 0 6 6 15 14 19 52 29
191 264 271 458 36 86 36 88 30 192 -11 196 -16 211 -146 488 -28 60 -58 108
-81 130 -18 17 -20 18 -15 3 4 -10 2 -18 -4 -18 -7 0 -9 10 -5 23 4 16 -5 41
-28 79 -19 30 -37 64 -40 74 -5 16 -14 19 -51 16 -53 -5 -57 10 -13 44 17 12
24 24 18 30 -5 5 -35 61 -67 124 -57 112 -114 255 -188 470 -86 251 -108 321
-130 415 l-23 100 -75 78 c-97 100 -123 102 -225 15 -38 -33 -70 -35 -103 -9
-64 49 -172 81 -280 81 -42 0 -51 -4 -83 -40z m231 -470 c166 -34 255 -63 293
-96 8 -7 51 -31 95 -54 44 -23 71 -39 60 -35 -11 4 -31 11 -45 15 -26 8 -81
38 -138 77 -75 50 -315 104 -455 101 l-92 -1 115 -7 c136 -9 256 -45 440 -134
63 -31 124 -56 135 -56 11 0 27 -5 35 -10 26 -18 -51 1 -114 27 -32 13 -89 40
-127 59 -117 60 -241 95 -354 100 -124 6 -155 12 -134 25 25 16 184 10 286
-11z m206 -239 c78 -7 92 -12 118 -37 37 -35 59 -75 59 -107 0 -13 7 -32 15
-43 14 -18 15 -16 9 21 -4 22 -3 37 1 33 5 -5 9 -47 11 -95 1 -50 -1 -79 -6
-68 -4 11 -5 35 -2 53 3 19 0 32 -6 32 -16 0 -31 32 -37 77 -3 29 -15 48 -48
79 l-43 42 -130 8 c-203 14 -548 5 -530 -13 5 -5 131 -59 221 -94 28 -11 59
-24 70 -29 11 -4 70 -28 130 -52 64 -26 154 -72 214 -112 57 -37 106 -65 108
-62 3 3 -38 33 -91 67 -53 34 -96 65 -96 70 0 4 7 10 16 13 12 5 15 20 13 73
-2 62 -1 68 19 71 37 6 132 -54 132 -83 0 -7 8 -32 19 -56 10 -24 21 -57 25
-74 5 -29 5 -29 -5 -5 -6 14 -19 44 -30 68 -10 23 -19 50 -19 59 0 18 -19 35
-72 63 -59 32 -63 29 -60 -47 3 -55 1 -69 -14 -80 -10 -7 -13 -13 -6 -13 22 0
182 -115 177 -127 -2 -7 1 -13 8 -14 9 0 9 -2 -1 -6 -7 -3 -27 6 -45 19 -50
39 -208 132 -247 147 -19 7 -51 20 -70 29 -38 17 -108 44 -185 71 -28 10 -71
29 -95 41 -25 13 -63 29 -85 35 -22 7 -41 19 -43 28 -3 12 12 16 80 21 46 3
99 8 118 10 45 5 290 -3 403 -13z m355 -3 c-7 -19 -38 -22 -38 -4 0 10 9 16
21 16 12 0 19 -5 17 -12z m-212 -16 c-10 -2 -22 0 -28 6 -6 6 0 7 19 4 21 -5
23 -7 9 -10z m-378 -23 c-5 -18 -69 -79 -84 -79 -8 0 -27 12 -41 26 -17 17
-28 22 -33 14 -4 -6 -7 3 -8 19 l-1 31 85 0 c55 0 83 -4 82 -11z m818 -409
c-44 -93 -43 -134 3 -172 15 -13 26 -28 24 -34 -5 -15 56 -76 69 -68 6 4 8 3
4 -4 -7 -12 109 -142 127 -142 7 0 7 4 -1 12 -7 7 -12 20 -12 31 0 12 -4 16
-12 11 -7 -4 -10 -3 -5 1 10 12 -63 86 -77 78 -6 -3 -8 -3 -4 2 4 4 -11 28
-34 53 l-41 45 8 91 c10 121 10 147 1 171 -4 11 0 7 9 -8 14 -24 15 -38 5
-100 -7 -40 -10 -92 -8 -117 3 -41 5 -45 27 -42 19 3 23 0 19 -16 -4 -15 9
-34 49 -74 47 -46 93 -115 93 -140 0 -4 -7 -8 -16 -8 -18 0 -185 165 -212 209
-9 16 -26 41 -37 57 -30 42 -25 97 15 181 19 40 36 70 39 68 2 -3 -13 -41 -33
-85z m-93 -100 c-4 -38 -2 -60 4 -60 6 0 8 10 6 23 -3 13 0 39 5 58 9 30 9 28
7 -23 -3 -61 -11 -82 -26 -73 -10 7 -12 58 -3 104 10 51 14 36 7 -29z m-81
-10 c4 17 5 13 6 -15 0 -22 -4 -51 -9 -65 -7 -19 -7 -16 -3 15 3 29 2 36 -5
25 -15 -21 -14 -67 2 -73 9 -4 9 -6 0 -6 -20 -2 -24 17 -17 81 6 48 9 57 14
38 l7 -25 5 25z m405 -222 c-3 -8 -6 -5 -6 6 -1 11 2 17 5 13 3 -3 4 -12 1
-19z m3 -142 c0 -37 -98 -217 -155 -284 -35 -41 -75 -56 -75 -29 0 17 101 180
141 227 16 19 37 50 46 68 17 32 43 44 43 18z m-974 -96 c4 0 3 12 0 28 -5 20
0 16 20 -18 56 -97 75 -133 71 -137 -3 -2 -21 26 -42 62 -20 37 -39 64 -42 61
-3 -3 24 -57 61 -120 98 -171 131 -253 173 -436 9 -41 18 -68 20 -59 2 9 -7
62 -22 117 -14 55 -25 103 -25 106 0 14 71 3 135 -20 39 -14 116 -41 172 -59
148 -49 163 -58 163 -99 0 -19 -6 -36 -12 -38 -7 -3 -58 6 -113 18 -55 13
-138 33 -185 44 -106 25 -150 25 -55 1 153 -40 331 -81 351 -81 13 0 25 10 32
25 24 53 14 68 -73 108 -77 35 -340 118 -382 120 -40 2 -42 3 -63 57 -13 30
-38 84 -57 120 -19 36 -27 56 -18 45 21 -25 74 -128 89 -174 11 -30 17 -34 54
-37 54 -5 361 -107 425 -142 51 -27 56 -41 35 -100 -13 -34 -13 -34 -63 -28
-27 3 -77 13 -110 22 -50 13 -145 36 -252 61 -22 5 -23 3 -17 -41 5 -36 4 -46
-8 -46 -10 0 -21 30 -37 98 -40 172 -67 238 -163 407 -25 44 -55 97 -67 118
-11 21 -21 48 -20 60 1 17 3 14 10 -10 5 -18 12 -33 15 -33z m774 -1188 c0 -5
-7 -9 -15 -9 -8 0 -15 4 -15 9 0 4 7 8 15 8 8 0 15 -4 15 -8z"/>
<path d="M5083 6215 c20 -19 40 -35 45 -35 4 0 20 16 35 35 l28 35 -73 0 -72
0 37 -35z"/>
<path d="M6105 5630 c3 -5 8 -10 11 -10 2 0 4 5 4 10 0 6 -5 10 -11 10 -5 0
-7 -4 -4 -10z"/>
<path d="M6240 5363 c0 -6 -20 -38 -45 -71 -60 -80 -156 -234 -150 -240 8 -9
53 39 90 94 49 73 119 213 112 221 -4 3 -7 2 -7 -4z"/>
<path d="M5514 4854 c3 -9 6 -22 6 -30 0 -9 5 -12 12 -8 7 4 8 3 4 -5 -5 -7
-5 -23 -2 -35 4 -18 15 -25 43 -29 32 -5 177 -38 336 -76 29 -7 40 -6 44 4 17
45 -16 66 -192 124 -49 16 -116 39 -147 50 -71 26 -113 28 -104 5z m276 -124
c24 -15 7 -18 -20 -3 -14 7 -18 13 -10 13 8 0 22 -4 30 -10z"/>
<path d="M4637 4939 c-19 -11 -47 -60 -47 -81 1 -7 10 4 21 24 23 45 45 58 96
58 30 0 49 -9 88 -41 28 -23 54 -46 58 -53 5 -7 7 -5 5 6 -2 9 -25 34 -53 57
-44 36 -56 41 -100 41 -27 0 -58 -5 -68 -11z"/>
<path d="M4870 4843 c0 -6 17 -33 38 -60 55 -69 102 -176 120 -270 13 -66 20
-83 33 -83 10 0 30 -20 46 -46 15 -26 45 -66 66 -90 31 -35 42 -41 60 -35 13
5 43 1 82 -11 33 -11 128 -37 210 -59 174 -46 361 -105 390 -123 11 -7 40 -20
65 -30 41 -15 49 -15 80 -2 l35 14 -45 0 c-32 -1 -67 9 -120 34 -41 20 -104
45 -140 57 -112 36 -388 111 -409 111 -11 0 -22 4 -25 8 -6 11 -116 36 -123
28 -7 -7 -29 17 -92 97 -29 37 -61 73 -70 80 -10 6 -25 43 -35 81 -29 116 -72
199 -158 301 -5 5 -8 5 -8 -2z"/>
<path d="M6542 4530 c0 -14 2 -19 5 -12 2 6 2 18 0 25 -3 6 -5 1 -5 -13z"/>
<path d="M9498 3425 c-3 -3 -99 -9 -214 -15 -188 -8 -390 -28 -381 -36 5 -6
428 16 510 26 66 8 136 29 101 30 -6 0 -13 -2 -16 -5z"/>
<path d="M8331 1746 c2 -2 75 -18 162 -35 176 -34 260 -38 333 -16 57 17 115
19 163 5 37 -10 55 -5 31 10 -24 15 -140 11 -212 -7 -75 -19 -165 -13 -353 26
-98 20 -133 25 -124 17z"/>
<path d="M10140 1576 c31 -19 120 -50 126 -44 4 4 -25 16 -131 52 -13 5 -12 2
5 -8z"/>
<path d="M6225 1080 c15 -50 94 -245 95 -232 0 8 -21 66 -46 130 -44 112 -65
155 -49 102z"/>
<path d="M3165 908 c-10 -35 -24 -83 -32 -107 -49 -154 -66 -396 -40 -576 9
-60 19 -134 22 -162 6 -49 19 -73 32 -59 3 3 -5 76 -17 163 -18 130 -21 186
-17 323 5 160 15 229 62 414 21 79 13 82 -10 4z"/>
<path d="M6381 570 c0 -14 4 -56 10 -95 6 -38 15 -162 19 -275 l8 -205 -4 225
c-2 133 -9 256 -18 300 -7 41 -14 64 -15 50z"/>
</g>
</svg>
