<?xml version="1.0" standalone="no"?>
<!DOCTYPE svg PUBLIC "-//W3C//DTD SVG 20010904//EN"
 "http://www.w3.org/TR/2001/REC-SVG-20010904/DTD/svg10.dtd">
<svg version="1.0" xmlns="http://www.w3.org/2000/svg"
 width="1280.000000pt" height="720.000000pt" viewBox="0 0 1280.000000 720.000000"
 preserveAspectRatio="xMidYMid meet">
<metadata>
Created by potrace 1.16, written by Peter Selinger 2001-2019
</metadata>
<g transform="translate(0.000000,720.000000) scale(0.100000,-0.100000)"
fill="#000000" stroke="none">
<path d="M0 3668 c0 -2826 3 -3530 12 -3520 7 7 27 35 43 62 17 27 98 153 180
281 83 128 152 236 154 241 2 6 23 42 47 81 24 39 44 80 45 92 0 11 10 40 22
64 19 39 29 47 83 66 34 12 66 25 71 28 14 9 -5 105 -42 212 -30 87 -28 103
13 130 20 13 51 29 67 35 l30 10 18 138 c45 348 54 400 76 435 20 32 67 75
116 104 83 50 254 91 647 154 372 60 436 69 509 69 l66 0 86 121 c61 85 114
176 178 307 122 252 122 250 174 387 25 66 52 134 59 150 7 17 44 120 80 230
37 110 74 214 82 232 8 17 14 37 14 45 0 8 4 18 8 23 17 19 51 132 66 220 29
173 35 221 50 405 9 102 21 241 27 310 6 68 9 176 5 240 -18 333 -3 925 30
1200 44 369 199 758 377 948 l31 32 -1712 0 -1712 0 0 -3532z"/>
<path d="M3417 7177 c-90 -113 -113 -145 -142 -195 -131 -226 -216 -484 -249
-762 -33 -275 -48 -867 -30 -1200 4 -64 1 -172 -5 -240 -6 -69 -18 -206 -26
-305 -30 -363 -63 -524 -152 -732 -7 -17 -13 -36 -13 -42 0 -6 -4 -19 -10 -29
-5 -9 -36 -96 -69 -192 -153 -449 -319 -812 -468 -1020 l-84 -117 -107 -6
c-97 -5 -266 -29 -697 -102 -138 -24 -229 -45 -345 -81 -64 -21 -150 -83 -186
-135 -26 -40 -32 -62 -48 -180 -9 -74 -23 -174 -31 -224 -8 -49 -14 -109 -14
-131 -1 -36 -4 -43 -27 -48 -14 -4 -44 -19 -66 -33 -37 -25 -39 -29 -35 -67 3
-23 16 -79 30 -126 14 -47 27 -100 29 -119 3 -34 2 -35 -67 -61 -59 -23 -73
-33 -92 -66 -12 -21 -22 -50 -22 -64 -1 -28 -61 -131 -247 -420 -72 -113 -142
-222 -155 -243 -13 -21 -39 -58 -56 -83 -28 -37 -33 -53 -33 -99 l0 -55 1559
0 1558 0 -8 48 c-41 232 -49 444 -24 587 22 127 88 345 104 345 15 0 16 7 -23
-165 -54 -233 -60 -403 -25 -658 l22 -157 1620 0 1620 0 -6 208 c-6 230 -17
312 -72 562 -5 20 -3 22 6 10 9 -12 10 -10 5 10 -3 14 -6 32 -7 40 0 8 -5 4
-9 -10 -6 -18 -8 -20 -9 -7 -1 19 -37 114 -73 196 -22 49 -28 90 -13 90 13 1
77 -155 114 -279 61 -197 91 -416 91 -652 l0 -168 851 0 851 0 -4 66 c-4 66
-4 67 -61 119 -31 29 -62 64 -67 77 -17 36 -32 60 -66 103 -38 48 -163 281
-189 350 -10 28 -25 59 -32 70 -15 23 -17 55 -3 55 5 0 6 -7 3 -17 -5 -12 -3
-14 7 -8 9 5 11 4 6 -4 -8 -13 11 -61 73 -181 82 -160 114 -215 145 -255 17
-22 40 -58 51 -79 11 -22 43 -63 72 -90 59 -58 73 -87 73 -157 l0 -49 2330 0
2330 0 0 399 c0 372 -1 400 -17 405 -10 3 -56 10 -103 16 -47 6 -105 15 -130
20 -25 5 -97 18 -160 30 -281 51 -667 156 -877 239 -71 28 -134 51 -140 51
-13 0 -102 27 -358 110 -337 110 -410 130 -610 170 -33 7 -121 33 -195 57
-129 43 -138 44 -195 34 -124 -21 -265 -33 -326 -27 -35 3 -131 10 -214 15
-82 5 -168 15 -190 21 -57 17 -142 59 -199 98 -89 62 -165 76 -260 47 -27 -8
-78 -15 -114 -15 -78 0 -402 63 -487 95 -33 13 -98 30 -145 39 -47 9 -121 25
-165 36 -294 70 -385 93 -423 106 -23 7 -45 14 -47 14 -3 0 13 -23 34 -51 69
-91 132 -325 237 -884 40 -216 41 -223 32 -237 -7 -10 -8 -10 -7 2 7 47 -144
810 -180 905 -10 28 -24 68 -31 90 -10 33 -49 99 -95 161 -18 24 4 26 72 6
107 -32 419 -107 573 -137 47 -10 114 -28 149 -41 35 -13 73 -24 85 -24 48 1
-192 84 -334 115 -224 49 -448 105 -583 147 -73 22 -195 58 -272 79 -77 21
-169 48 -205 60 -36 11 -150 45 -255 75 -242 70 -407 125 -520 175 -135 59
-395 146 -460 154 -88 11 -186 99 -249 223 -53 105 -106 268 -106 329 0 20 3
21 32 12 64 -18 62 -7 -2 15 -93 33 -138 58 -194 107 -53 47 -138 168 -155
222 -21 64 -41 211 -41 297 0 90 -12 134 -48 180 -10 14 -62 111 -114 215 -88
179 -95 197 -112 300 -21 131 -50 245 -73 288 -9 18 -20 48 -24 67 l-8 35 3
-40 c2 -22 15 -67 29 -100 15 -34 37 -124 51 -210 15 -82 31 -158 36 -167 6
-10 10 -22 10 -27 0 -6 18 -48 40 -95 42 -87 46 -131 13 -143 -19 -8 -162 40
-242 80 -305 155 -331 170 -331 191 0 11 9 82 20 156 10 74 28 241 40 370 27
308 43 428 86 645 44 224 51 252 75 284 10 14 72 157 138 316 65 160 126 308
136 330 21 51 163 345 176 365 5 8 16 29 24 46 8 18 25 45 38 60 13 16 29 44
36 62 22 54 64 82 125 82 104 0 206 -29 281 -80 39 -26 48 -25 87 9 47 41 92
61 134 61 32 0 44 -9 113 -80 42 -44 84 -80 92 -80 23 0 41 -67 29 -105 -9
-27 -9 -26 -5 10 4 30 3 36 -5 25 -8 -11 -9 -8 -4 14 5 20 4 27 -4 22 -8 -5
-10 -2 -6 8 3 9 1 16 -5 16 -6 0 -11 -7 -11 -15 0 -34 42 -190 85 -315 26 -74
57 -166 70 -205 12 -38 27 -81 33 -95 6 -14 27 -69 46 -123 34 -91 76 -180
146 -306 21 -37 27 -58 20 -66 -5 -6 -8 -15 -5 -18 3 -4 2 -5 -2 -2 -7 6 -33
-14 -33 -26 0 -5 11 -4 24 1 13 5 27 6 31 2 4 -4 4 4 0 18 -6 23 -5 22 12 -5
11 -16 38 -64 62 -105 23 -41 55 -93 72 -115 34 -47 103 -187 147 -300 36 -92
49 -161 57 -293 7 -120 -4 -162 -103 -362 -79 -160 -118 -218 -259 -382 -115
-134 -126 -136 -288 -65 -94 42 -139 57 -260 87 -49 12 -99 26 -110 30 -11 5
-51 16 -90 25 -38 9 -79 21 -90 26 -38 16 -107 30 -122 25 -8 -3 -11 -1 -8 4
3 6 0 10 -7 10 -8 0 -32 24 -53 52 -22 29 -56 71 -77 93 -26 29 -41 59 -53
105 -9 35 -30 93 -46 128 -28 63 -102 162 -121 162 -5 0 10 -24 35 -52 58 -70
106 -174 126 -275 12 -64 20 -83 32 -83 10 0 32 -24 50 -52 19 -29 49 -70 67
-90 27 -30 38 -35 55 -29 15 5 52 -1 112 -20 50 -15 144 -41 210 -59 162 -43
336 -98 360 -114 11 -7 40 -20 64 -30 40 -15 47 -16 90 -1 28 9 63 32 86 55
22 22 48 40 60 40 21 1 105 70 105 88 0 6 3 12 8 14 25 11 122 189 219 404 13
29 33 51 72 74 60 38 110 99 171 210 64 117 81 160 91 230 5 36 27 118 49 183
22 65 47 146 55 180 33 143 68 381 75 502 l7 130 1 -101 c2 -71 -7 -154 -28
-285 -38 -231 -51 -286 -100 -429 -21 -63 -44 -148 -50 -189 -13 -90 -84 -241
-167 -353 -32 -44 -111 -108 -133 -108 -18 0 -52 -87 -42 -107 5 -10 12 -34
16 -53 3 -19 21 -66 39 -105 78 -165 73 -277 -18 -360 -22 -21 -38 -49 -49
-86 -18 -62 -36 -201 -36 -271 l0 -48 144 1 c80 0 149 -2 154 -5 5 -3 45 -1
88 4 44 5 185 14 314 20 309 15 522 41 700 84 286 69 402 91 555 105 293 29
718 19 851 -18 40 -11 89 -23 110 -25 220 -28 313 -47 504 -100 30 -9 87 -19
125 -22 39 -4 75 -11 82 -16 12 -9 58 0 108 22 67 30 548 164 661 185 75 14
199 41 277 61 78 19 174 41 212 49 122 23 485 95 615 121 223 45 306 52 563
46 l237 -5 0 1522 0 1521 -3030 0 c-1667 0 -3030 -2 -3030 -4 0 -2 18 -35 40
-72 46 -79 123 -272 167 -419 72 -238 95 -385 97 -605 0 -96 -1 -159 -4 -140
-4 30 -5 26 -11 -25 -3 -33 -3 -1 0 70 10 222 1 320 -58 585 -31 139 -127 394
-193 509 -26 46 -48 88 -48 92 0 5 -740 9 -1647 9 l-1648 -1 -18 -22z m310
-915 c9 -6 9 -27 -2 -92 -7 -47 -28 -188 -45 -315 -17 -126 -36 -254 -41 -282
-10 -51 -12 -53 -42 -53 -44 1 -119 57 -141 106 -9 22 -21 46 -26 54 -39 62
-45 87 -45 195 0 123 16 186 64 252 31 43 128 113 158 114 10 0 34 6 53 13 43
17 52 18 67 8z m3290 -449 c-3 -10 -5 -2 -5 17 0 19 2 27 5 18 2 -10 2 -26 0
-35z m-3413 -380 c0 -43 -13 -141 -27 -218 -14 -77 -31 -176 -37 -220 -43
-301 -244 -1213 -291 -1320 -4 -11 -15 -45 -23 -75 -8 -30 -33 -118 -56 -195
-23 -77 -44 -150 -47 -163 -8 -33 -25 -39 -18 -5 4 22 1 20 -13 -12 -29 -61
-37 -98 -13 -55 22 38 28 27 9 -15 -11 -25 -38 -35 -38 -14 0 6 11 38 24 72
13 34 36 100 50 147 14 47 46 155 72 240 113 372 237 930 319 1433 19 118 43
257 54 308 11 52 22 111 26 132 3 20 7 37 8 37 1 0 2 -35 1 -77z m2927 -221
c5 -14 7 -27 5 -30 -3 -2 -8 7 -12 22 -3 14 -10 24 -14 21 -4 -3 -10 2 -13 10
-4 9 -1 12 9 8 9 -3 20 -17 25 -31z m144 -292 c-9 -27 3 -25 15 3 6 15 9 17 9
6 1 -9 -8 -27 -19 -40 -17 -21 -19 -21 -13 -4 6 18 5 18 -10 6 -11 -9 -17 -10
-17 -2 0 6 4 11 9 11 5 0 13 9 16 20 3 11 9 20 11 20 3 0 2 -9 -1 -20z m-371
-705 c-4 -8 -8 -15 -10 -15 -2 0 -4 7 -4 15 0 8 4 15 10 15 5 0 7 -7 4 -15z
m-1987 -476 c232 -92 366 -125 549 -136 l92 -5 14 -59 c12 -48 12 -63 2 -76
-9 -13 -15 -15 -25 -6 -18 14 -179 63 -205 62 -11 0 -6 -5 14 -10 27 -8 32
-14 32 -41 0 -17 -7 -39 -15 -48 -14 -15 -12 -18 22 -28 74 -22 199 -53 235
-59 26 -3 44 -14 61 -37 13 -17 42 -49 64 -71 l39 -40 -14 -203 c-11 -144 -12
-210 -4 -226 19 -42 124 -112 203 -136 41 -12 111 -33 156 -47 l82 -26 10 -51
c11 -53 14 -83 12 -102 0 -5 -31 -18 -68 -27 -109 -26 -242 -58 -328 -77 -99
-23 -334 -87 -366 -99 -69 -28 43 -2 296 69 39 11 95 24 125 29 30 5 109 21
175 36 166 38 185 40 185 24 1 -8 7 -50 16 -94 8 -44 19 -129 24 -190 11 -138
53 -310 85 -350 13 -16 41 -49 62 -72 21 -24 54 -65 73 -93 19 -28 62 -88 95
-133 63 -87 102 -153 95 -161 -3 -2 -54 -14 -115 -25 -164 -31 -395 -79 -435
-90 -19 -5 -57 -15 -85 -22 -100 -24 -343 -136 -434 -199 -14 -10 -72 -46
-128 -80 -56 -35 -100 -67 -97 -71 3 -5 -1 -6 -9 -3 -8 3 -18 1 -22 -5 -3 -6
-12 -11 -19 -11 -10 0 -15 30 -20 113 -9 148 -48 413 -62 426 -6 6 -4 -24 16
-204 10 -93 13 -319 4 -328 -11 -11 -57 19 -104 68 -104 108 -327 211 -555
258 -101 20 -547 16 -678 -7 -60 -10 -110 -16 -113 -13 -6 6 32 158 50 202 7
16 37 100 65 185 29 85 59 162 66 170 14 16 15 21 40 210 23 175 55 383 60
388 5 6 355 -24 519 -45 l128 -16 61 -51 c185 -157 232 -171 328 -100 41 30
14 33 -33 4 -70 -42 -136 -17 -287 109 -76 64 -185 88 -469 103 -122 6 -227
15 -233 19 -18 11 8 109 41 154 82 114 211 360 269 510 24 65 89 290 129 450
6 24 16 32 51 42 79 23 245 35 436 31 121 -2 191 1 192 7 2 6 0 18 -3 27 -8
27 13 56 43 61 27 4 -80 8 -297 12 -107 2 -233 -14 -329 -41 -29 -8 -56 -13
-59 -10 -3 3 2 52 12 108 9 57 19 132 22 168 10 95 12 96 105 50 43 -22 114
-54 156 -71z m-1367 -847 c0 -20 -37 -116 -75 -197 -38 -80 -125 -184 -216
-258 -105 -86 -347 -247 -368 -246 -12 0 -11 2 4 9 36 15 291 194 369 258 42
34 96 88 121 120 47 60 115 180 115 203 0 8 -18 -20 -40 -61 -69 -131 -165
-233 -315 -336 -160 -110 -253 -171 -270 -178 -31 -11 -11 4 110 86 203 137
238 163 312 232 74 69 165 204 197 293 28 78 36 93 46 93 5 0 10 -8 10 -18z
m2575 -274 c6 -4 2 -8 -7 -8 -10 0 -18 7 -18 17 0 9 3 12 8 7 4 -5 12 -12 17
-16z m-1991 -329 c-8 -14 -24 -10 -24 6 0 9 6 12 15 9 8 -4 12 -10 9 -15z
m-98 -566 c-1 -41 -26 -60 -26 -20 0 14 3 32 6 41 11 28 21 17 20 -21z m3298
-275 l-6 -93 39 -45 c22 -25 61 -79 88 -120 26 -41 71 -106 99 -145 28 -38 56
-77 61 -86 6 -9 26 -41 46 -70 38 -58 89 -155 89 -170 0 -24 -29 -5 -50 34
-39 71 -124 196 -210 312 -45 60 -87 123 -94 140 -8 16 -26 41 -41 55 -41 38
-55 73 -55 142 0 87 10 138 26 138 11 0 12 -19 8 -92z m-4984 -164 c9 26 50
-145 50 -207 0 -39 -5 -49 -35 -76 -36 -31 -85 -42 -85 -18 0 6 21 27 45 46
25 18 45 39 45 47 0 7 -6 41 -14 76 -14 62 -29 171 -19 133 6 -20 6 -20 13 -1z
m-1053 -196 c-3 -7 -5 -2 -5 12 0 14 2 19 5 13 2 -7 2 -19 0 -25z m811 -10
c12 -24 32 -60 44 -80 24 -38 19 -60 -10 -42 -17 11 -64 98 -77 142 -11 39 20
25 43 -20z m2445 -5 c-7 -2 -21 -2 -30 0 -10 3 -4 5 12 5 17 0 24 -2 18 -5z
m-2366 -295 c-3 -8 -6 -5 -6 6 -1 11 2 17 5 13 3 -3 4 -12 1 -19z m13 -41 c0
-12 -11 -76 -25 -142 -64 -300 -75 -358 -84 -456 l-10 -104 5 102 c2 56 15
155 29 220 13 65 34 162 45 217 12 54 19 103 17 109 -2 6 -9 -16 -16 -49 -7
-32 -22 -97 -33 -144 -34 -144 -49 -240 -57 -355 -8 -110 -8 -110 -9 -30 -2
82 20 233 56 385 11 47 28 121 37 165 10 44 19 86 21 93 6 21 24 13 24 -11z
m3240 19 c0 -8 -72 -46 -88 -46 -9 0 6 11 33 25 55 27 55 27 55 21z m-102 -64
c2 -7 -3 -12 -12 -12 -9 0 -16 7 -16 16 0 17 22 14 28 -4z"/>
<path d="M3650 6243 c-108 -35 -178 -91 -221 -179 -28 -57 -33 -78 -37 -167
-4 -101 -4 -103 33 -182 49 -104 69 -131 116 -161 45 -28 76 -31 83 -6 3 9 21
127 40 262 19 135 40 286 47 335 8 50 14 94 14 100 0 15 -25 14 -75 -2z"/>
<path d="M3567 5275 c-15 -77 -38 -210 -51 -295 -59 -371 -206 -1042 -275
-1262 -46 -144 -123 -410 -128 -438 l-3 -25 10 24 c6 13 35 108 65 210 29 102
67 231 84 286 55 178 227 985 261 1220 15 107 37 234 56 323 9 40 14 78 11 85
-2 6 -16 -51 -30 -128z"/>
<path d="M4070 3798 c0 -29 -13 -124 -35 -264 l-7 -41 103 25 c96 23 121 25
342 24 210 -1 248 -4 325 -23 48 -12 106 -30 129 -40 46 -20 56 -13 42 31 -4
14 -10 37 -13 53 -6 26 -9 27 -66 27 -60 0 -156 13 -265 35 -52 11 -110 30
-305 100 -25 9 -87 36 -139 61 -51 24 -98 44 -102 44 -5 0 -9 -15 -9 -32z"/>
<path d="M4682 3497 c-13 -15 -3 -60 15 -69 4 -3 2 -3 -4 -2 -23 6 -13 -14 10
-20 34 -9 56 -6 32 4 -20 9 -20 9 1 9 27 1 44 20 44 47 0 27 -4 30 -51 39 -25
5 -39 2 -47 -8z"/>
<path d="M4162 3409 c-110 -13 -152 -27 -161 -52 -5 -12 -30 -101 -55 -198
-26 -98 -62 -217 -80 -266 -39 -105 -153 -335 -202 -409 -10 -16 -23 -36 -29
-45 -5 -9 -23 -36 -39 -60 -31 -46 -52 -117 -39 -129 4 -4 105 -12 223 -18
209 -11 369 -35 422 -63 13 -7 43 -28 68 -48 92 -75 168 -121 200 -121 14 0
40 9 58 20 33 21 82 27 82 11 0 -15 -58 -59 -94 -71 -68 -22 -139 11 -270 127
l-69 61 -131 16 c-181 22 -496 49 -502 43 -6 -6 -35 -194 -59 -377 -9 -63 -18
-132 -21 -153 -3 -21 -16 -59 -29 -84 -14 -25 -43 -102 -65 -172 -22 -69 -45
-134 -50 -144 -13 -22 -61 -199 -56 -204 2 -2 46 4 97 14 74 14 149 17 359 18
278 0 318 -4 465 -49 210 -64 317 -120 434 -229 l76 -71 3 105 c2 57 -2 156
-9 219 -22 218 -22 220 -5 220 9 0 16 -6 17 -12 0 -7 4 -35 9 -63 21 -115 39
-257 46 -357 l7 -107 26 17 c14 9 35 22 46 29 62 38 174 108 199 125 88 62
332 170 446 198 25 7 61 16 80 21 44 12 390 83 503 103 l38 7 -22 37 c-22 35
-198 286 -217 307 -5 6 -30 34 -55 63 -35 39 -51 68 -65 119 -36 130 -44 169
-52 278 -5 61 -13 133 -19 160 -5 28 -13 67 -16 89 -6 35 -8 38 -33 32 -15 -3
-81 -17 -147 -32 -66 -14 -145 -30 -175 -35 -30 -5 -86 -18 -125 -29 -38 -11
-149 -41 -245 -66 -124 -33 -188 -55 -220 -76 -35 -24 -41 -26 -25 -8 26 29
48 40 120 61 33 10 51 18 40 18 -11 1 -36 -3 -54 -9 -19 -5 -37 -8 -39 -6 -2
3 13 9 35 15 21 5 99 26 173 46 74 19 155 42 180 49 25 8 70 20 100 26 149 31
328 75 386 95 14 4 -7 133 -24 144 -12 7 -115 40 -225 72 -86 25 -190 92 -209
134 -8 18 -7 78 3 231 l14 206 -36 33 c-19 17 -48 48 -63 68 -15 20 -35 35
-44 34 -10 -1 -46 8 -82 20 -36 11 -101 29 -145 38 -44 9 -96 21 -115 27 -45
14 -443 19 -538 7z m547 -1274 c-19 -14 -46 -33 -61 -42 -33 -21 -37 -39 -5
-22 20 11 21 11 8 -4 -17 -22 -56 -23 -44 -2 10 17 113 95 126 95 6 0 -5 -11
-24 -25z"/>
<path d="M2917 2849 c-10 -28 -17 -53 -14 -55 6 -6 39 84 35 96 -2 6 -11 -13
-21 -41z"/>
<path d="M3422 1715 c0 -16 2 -22 5 -12 2 9 2 23 0 30 -3 6 -5 -1 -5 -18z"/>
<path d="M6716 1499 c-3 -17 -6 -62 -6 -99 0 -64 2 -69 39 -111 21 -24 45 -57
54 -74 8 -16 58 -88 111 -160 52 -71 123 -176 157 -233 34 -56 64 -101 66 -98
7 7 -66 131 -137 232 -38 54 -100 144 -137 199 -37 55 -85 120 -106 145 l-39
45 5 93 c3 50 4 92 2 92 -1 0 -5 -14 -9 -31z"/>
<path d="M1751 1245 c0 -16 6 -57 14 -90 22 -91 20 -98 -32 -139 -27 -21 -39
-36 -30 -36 9 0 32 14 52 31 30 26 35 37 35 73 0 49 -38 206 -39 161z"/>
<path d="M1480 1086 c17 -45 64 -126 73 -126 4 0 -9 30 -29 68 -43 77 -60 100
-44 58z"/>
<path d="M1582 720 c0 -19 2 -27 5 -17 2 9 2 25 0 35 -3 9 -5 1 -5 -18z"/>
<path d="M5012 7007 c-18 -18 -32 -38 -32 -44 0 -6 -17 -35 -37 -64 -47 -69
-184 -343 -262 -527 -34 -78 -61 -144 -61 -147 0 -2 -13 -34 -30 -70 -16 -36
-30 -70 -30 -75 0 -4 -15 -41 -34 -82 -18 -40 -43 -99 -54 -131 -12 -31 -33
-74 -46 -95 -14 -21 -31 -71 -40 -117 -9 -44 -25 -125 -36 -180 -33 -164 -49
-280 -75 -567 -14 -150 -35 -342 -46 -426 -12 -84 -19 -155 -16 -159 8 -7 246
-131 342 -177 72 -35 182 -76 203 -76 6 0 16 10 23 21 9 18 5 35 -26 103 -21
44 -44 95 -51 111 -6 17 -24 100 -39 185 -16 96 -36 178 -53 215 -20 45 -26
77 -27 127 0 62 2 70 31 98 26 27 38 31 82 32 67 0 101 -21 193 -120 78 -83
115 -153 149 -273 14 -51 30 -84 53 -108 18 -20 51 -58 72 -86 21 -27 42 -54
45 -58 4 -5 38 -17 76 -27 38 -10 110 -30 159 -44 50 -14 133 -36 185 -51 199
-54 168 -43 298 -100 83 -37 120 -44 157 -31 20 7 130 135 233 269 52 69 186
328 217 421 29 90 5 317 -48 441 -53 125 -115 249 -146 290 -17 22 -51 77 -77
123 l-46 83 -42 -3 c-50 -4 -56 16 -14 48 l27 20 -33 55 c-74 124 -117 225
-208 484 -101 289 -128 376 -153 480 l-23 100 -75 78 c-97 100 -123 102 -225
15 -40 -34 -67 -35 -112 -5 -77 53 -162 77 -264 77 -46 0 -56 -4 -84 -33z
m179 -467 c30 -6 70 -13 89 -16 61 -10 217 -64 244 -85 13 -10 60 -38 103 -60
43 -22 69 -38 58 -34 -11 4 -31 11 -45 15 -26 8 -81 38 -138 77 -35 23 -163
67 -222 77 -19 3 -59 10 -89 16 -29 5 -95 9 -145 8 l-91 -1 115 -7 c96 -6 133
-13 225 -45 61 -20 154 -59 208 -86 53 -27 120 -54 148 -60 28 -6 48 -13 46
-15 -12 -12 -122 24 -217 72 -106 53 -252 106 -320 118 -19 3 -77 6 -127 7
-85 1 -113 9 -80 22 22 10 184 7 238 -3z m255 -249 c69 -7 86 -13 114 -37 38
-35 60 -74 60 -109 0 -14 5 -25 10 -25 6 0 10 10 10 22 0 12 3 18 6 15 4 -4 8
-46 9 -94 2 -49 1 -82 -2 -74 -4 10 -7 10 -13 1 -7 -11 -24 29 -52 120 -11 37
-24 50 -80 80 -59 32 -63 29 -60 -47 3 -55 1 -69 -14 -80 -10 -7 -13 -13 -7
-13 7 0 45 -22 85 -49 71 -47 109 -81 92 -81 -5 0 -2 -5 6 -10 12 -8 12 -10 1
-10 -8 0 -28 11 -45 23 -60 46 -216 136 -261 152 -25 8 -63 24 -83 34 -20 10
-71 30 -113 44 -42 14 -101 38 -130 52 -29 15 -71 33 -94 39 -22 7 -41 19 -43
28 -3 13 11 17 80 22 46 4 103 8 128 10 60 5 294 -3 396 -13z m352 -3 c-7 -19
-38 -22 -38 -4 0 10 9 16 21 16 12 0 19 -5 17 -12z m-212 -16 c-10 -2 -22 0
-28 6 -6 6 0 7 19 4 21 -5 23 -7 9 -10z m447 -413 c-15 -30 -29 -77 -31 -107
-4 -45 -1 -57 18 -77 13 -14 31 -25 39 -25 14 0 14 -2 1 -10 -13 -9 -12 -13 8
-30 13 -10 22 -22 22 -25 -1 -4 23 -32 53 -63 69 -71 117 -115 117 -108 0 24
-36 74 -104 144 l-81 82 0 78 c1 42 3 100 5 127 2 28 1 59 -4 70 -4 11 0 7 9
-9 15 -25 16 -37 6 -84 -12 -59 -15 -141 -5 -165 3 -9 13 -13 25 -10 10 3 19
0 19 -6 0 -5 -8 -8 -17 -4 -10 3 17 -30 60 -73 42 -44 77 -87 77 -96 0 -9 5
-20 10 -23 10 -6 14 -45 5 -45 -25 0 -212 185 -224 221 -2 8 -15 27 -27 42
-34 41 -32 100 8 195 17 42 33 71 35 66 2 -6 -9 -35 -24 -65z m27 -24 c0 -8
-2 -15 -4 -15 -2 0 -6 7 -10 15 -3 8 -1 15 4 15 6 0 10 -7 10 -15z m-115 -44
c-3 -5 -1 -12 5 -16 5 -3 10 -31 10 -61 0 -41 -4 -54 -15 -54 -18 0 -28 36
-22 81 3 28 4 26 5 -13 3 -65 22 -73 22 -9 0 27 -4 53 -10 56 -13 8 -13 25 1
25 5 0 8 -4 4 -9z m-95 -66 c12 28 11 -52 -1 -85 -6 -19 -7 -14 -4 20 l4 45
-15 -40 c-14 -39 -14 -39 -9 -6 3 18 6 50 6 70 2 34 2 34 7 6 4 -26 5 -28 12
-10z m410 -359 c0 -37 -92 -205 -155 -281 -58 -72 -106 -52 -50 21 14 18 25
36 26 41 0 4 22 40 50 78 27 39 62 89 77 112 27 42 52 56 52 29z m-974 -96 c4
0 3 12 0 28 -4 15 16 -13 44 -61 28 -49 49 -91 47 -93 -3 -3 -21 25 -42 61
-20 37 -39 64 -42 61 -3 -3 21 -51 53 -106 32 -56 60 -97 62 -91 2 5 -5 22
-15 38 -13 20 -14 25 -3 16 9 -6 38 -59 65 -116 49 -103 50 -105 85 -105 37
-1 75 -12 288 -86 185 -64 198 -76 170 -154 l-13 -34 -55 6 c-30 4 -84 15
-120 25 -73 21 -191 51 -232 58 -28 5 -28 5 -22 -41 5 -37 4 -46 -8 -46 -10 0
-20 24 -32 81 -36 166 -77 268 -176 439 -64 111 -80 145 -79 168 0 9 5 2 10
-15 5 -18 12 -33 15 -33z"/>
<path d="M5045 6294 c-194 -14 -200 -15 -180 -30 10 -8 25 -14 32 -14 7 0 44
-14 81 -32 100 -47 172 -69 172 -53 0 8 -8 11 -18 8 -11 -2 -31 6 -48 20 -16
13 -35 23 -42 21 -7 -1 -8 0 -3 2 5 3 7 14 4 24 -5 19 0 20 68 18 l74 -2 -69
-5 -70 -6 37 -32 c39 -35 64 -35 69 0 2 11 9 22 15 24 10 4 9 -2 -1 -21 -20
-39 -10 -71 27 -84 89 -29 203 -85 296 -146 57 -37 106 -65 108 -62 3 3 -38
33 -91 67 -53 34 -96 65 -96 70 0 4 7 10 16 13 12 5 15 20 13 73 -2 62 -1 68
19 71 45 7 127 -52 137 -100 4 -16 13 -41 21 -56 8 -15 14 -35 14 -45 0 -10 5
-15 10 -12 17 10 11 54 -10 83 -11 15 -22 45 -25 67 -3 30 -15 50 -46 80 -39
36 -48 40 -113 46 -98 10 -340 18 -401 13z"/>
<path d="M5635 6100 c3 -5 8 -10 11 -10 2 0 4 5 4 10 0 6 -5 10 -11 10 -5 0
-7 -4 -4 -10z"/>
<path d="M6231 5348 c-5 -13 -20 -37 -34 -54 -44 -52 -159 -236 -152 -242 9
-9 82 75 118 136 42 71 89 173 83 179 -3 3 -10 -5 -15 -19z"/>
<path d="M5410 5056 c0 -5 12 -34 27 -65 32 -68 65 -170 88 -273 19 -86 31
-105 20 -32 l-7 46 34 -5 c39 -5 148 -32 238 -57 36 -11 88 -22 115 -25 48 -6
51 -5 63 21 6 16 12 35 12 43 0 27 -59 57 -225 114 -201 70 -201 69 -245 69
-36 -1 -37 1 -64 65 -26 64 -56 116 -56 99z m223 -202 c39 -14 95 -33 122 -42
90 -27 199 -72 207 -85 12 -19 9 -64 -4 -70 -7 -2 -67 8 -133 24 -66 16 -152
36 -192 45 -39 9 -78 14 -86 11 -10 -4 -17 8 -26 46 -6 29 -14 62 -17 75 -6
19 -3 22 25 22 17 0 64 -12 104 -26z"/>
<path d="M5510 4866 c0 -1 4 -16 9 -32 5 -16 12 -41 15 -55 5 -21 13 -28 38
-32 33 -5 213 -45 320 -71 31 -8 59 -11 62 -8 14 13 4 51 -16 64 -55 35 -428
152 -428 134z"/>
<path d="M4695 4954 c-6 -1 -23 -5 -38 -8 -28 -7 -67 -57 -67 -86 1 -8 10 2
21 22 23 45 45 58 95 58 38 0 80 -25 129 -78 14 -15 25 -22 25 -16 0 13 -31
46 -72 77 -31 23 -71 36 -93 31z"/>
<path d="M4636 4899 c-19 -22 -26 -42 -26 -73 0 -23 4 -46 9 -51 19 -20 60
-164 81 -285 11 -69 28 -141 37 -160 60 -131 174 -351 198 -385 34 -46 45 -91
45 -185 0 -108 26 -262 53 -315 54 -107 153 -221 217 -248 14 -6 32 -16 40
-23 8 -6 62 -26 120 -44 123 -37 137 -42 90 -34 -82 14 -86 14 -50 0 19 -8 46
-15 60 -16 14 -1 19 -4 12 -7 -7 -3 -49 5 -93 18 -43 12 -82 20 -85 16 -18
-17 55 -241 108 -333 69 -120 159 -199 236 -209 47 -6 118 -24 137 -34 6 -3
28 -11 50 -17 22 -6 117 -42 210 -79 94 -37 204 -78 245 -92 41 -14 82 -29 90
-33 8 -4 89 -28 180 -54 91 -26 224 -65 295 -87 72 -22 209 -62 305 -90 96
-28 198 -57 225 -66 74 -22 411 -106 555 -138 123 -27 233 -61 298 -91 18 -9
113 -31 210 -50 184 -37 313 -42 345 -15 26 21 191 14 207 -9 3 -4 32 -22 65
-40 193 -107 221 -114 475 -109 107 3 177 2 155 -2 -22 -3 -31 -7 -21 -8 11 0
17 -2 15 -4 -2 -1 -94 0 -204 3 -228 7 -272 18 -403 97 -79 48 -110 54 -40 8
145 -96 203 -115 393 -126 83 -5 179 -12 214 -15 61 -6 205 6 326 27 58 10 66
9 198 -34 76 -25 164 -51 195 -57 190 -38 330 -78 682 -193 74 -24 171 -54
215 -67 85 -24 165 -51 230 -80 143 -62 583 -181 850 -229 66 -12 140 -26 165
-31 25 -5 83 -14 130 -20 47 -6 93 -13 103 -16 13 -4 17 0 17 18 0 22 -7 24
-177 51 -367 59 -986 190 -1033 219 -11 6 -9 7 8 3 12 -4 22 -3 22 2 0 11
-670 228 -970 314 -80 22 -207 61 -283 86 -76 24 -143 43 -148 41 -6 -2 43
-21 110 -42 66 -21 121 -40 121 -41 0 -1 -15 -1 -34 -1 -19 1 -32 4 -30 7 6
10 -103 40 -122 33 -16 -5 -17 -4 -4 6 12 9 8 10 -20 6 -28 -5 -31 -4 -15 4
17 9 15 9 -10 5 -22 -4 -26 -3 -15 5 13 9 13 10 0 10 -13 0 -13 1 0 10 12 8
12 10 1 10 -8 0 -12 2 -9 5 3 3 70 -15 149 -40 79 -25 212 -66 295 -90 83 -24
211 -63 285 -86 74 -23 168 -52 209 -64 41 -13 158 -51 260 -85 102 -34 208
-68 235 -75 31 -8 41 -13 26 -14 -52 -2 -1 -20 169 -60 334 -77 884 -181 961
-181 19 0 19 34 19 1625 l0 1625 -97 -1 c-242 -1 -541 -18 -598 -33 -33 -8
-109 -25 -170 -37 -60 -12 -139 -27 -175 -34 -36 -7 -132 -25 -215 -39 -82
-15 -166 -31 -185 -36 -19 -5 -62 -14 -95 -19 -33 -6 -80 -15 -105 -21 -25 -5
-87 -18 -137 -29 -51 -11 -107 -26 -124 -35 -18 -9 -37 -16 -43 -16 -12 0
-125 -32 -322 -93 -116 -35 -130 -42 -129 -61 2 -13 1 -15 -2 -3 -2 9 -8 17
-12 17 -4 0 -96 -29 -204 -64 -108 -35 -277 -87 -374 -116 -98 -29 -220 -65
-271 -82 -84 -26 -115 -30 -290 -38 -109 -5 -246 -15 -305 -21 -59 -6 -110
-10 -112 -7 -9 8 214 28 422 38 145 7 210 14 235 25 18 8 24 13 14 10 -11 -3
-119 -10 -240 -15 -122 -5 -259 -17 -306 -25 -47 -8 -96 -15 -110 -14 -14 0
25 9 85 20 61 10 206 23 325 28 196 9 246 16 305 41 40 17 211 79 238 85 15 4
30 11 33 16 3 5 15 9 27 9 13 0 31 6 42 13 31 21 163 59 187 54 21 -4 21 -4
-3 -6 -27 -1 -75 -15 -119 -33 -14 -6 -34 -14 -45 -19 -11 -5 -60 -22 -108
-38 -129 -44 -257 -94 -253 -98 8 -8 266 69 687 205 239 77 296 99 292 111 -4
13 -3 14 5 2 8 -12 34 -7 159 28 81 23 163 48 180 56 18 8 79 24 135 36 57 12
121 25 143 30 22 5 76 16 119 24 43 8 86 17 95 19 9 3 84 17 166 32 83 14 179
32 215 39 36 7 117 23 180 35 63 12 122 24 130 28 22 8 18 7 110 20 47 7 205
15 353 18 147 3 267 10 267 14 0 4 -107 9 -237 12 -257 6 -340 -1 -563 -46
-69 -14 -242 -48 -385 -76 -143 -28 -343 -71 -445 -95 -102 -24 -243 -55 -315
-69 -114 -22 -555 -149 -610 -176 -41 -19 -105 -31 -122 -22 -10 5 -47 12 -83
16 -36 3 -122 21 -190 40 -164 45 -228 57 -436 82 -23 2 -72 14 -110 25 -129
37 -556 47 -849 18 -153 -14 -269 -36 -555 -105 -178 -43 -391 -69 -700 -84
-129 -6 -270 -15 -314 -20 -43 -5 -83 -7 -88 -4 -5 3 -76 5 -159 5 l-149 -1 0
53 c0 154 44 346 86 374 54 35 88 143 66 214 -6 19 -13 47 -16 62 -4 17 -11
25 -18 21 -6 -4 -8 -3 -5 3 4 6 -2 28 -13 50 -10 22 -27 68 -36 102 l-18 62
-63 -131 c-55 -116 -99 -191 -141 -240 -40 -48 -89 -90 -106 -90 -10 0 -40
-20 -67 -44 -54 -49 -118 -71 -165 -57 -16 4 -56 22 -89 38 -55 28 -182 71
-230 79 -23 4 -200 53 -331 93 -64 20 -98 25 -114 19 -29 -11 -63 19 -121 109
-23 35 -49 63 -58 63 -13 0 -19 17 -29 77 -15 96 -64 203 -134 290 -111 139
-197 178 -252 112z m1979 -629 c8 -30 15 -67 15 -82 0 -33 -27 -80 -62 -107
-14 -11 -35 -46 -47 -78 -27 -75 -61 -242 -61 -304 l0 -49 -47 0 c-87 0 -261
28 -310 50 -26 11 -65 37 -85 58 -46 43 -50 36 -8 -12 41 -46 153 -92 275
-111 103 -17 440 -24 485 -11 23 6 23 6 5 -5 -29 -18 -364 -14 -488 5 -159 26
-271 76 -302 136 -19 36 -19 40 -1 40 8 0 24 -13 36 -29 32 -47 117 -81 239
-97 58 -8 125 -14 149 -14 l42 0 0 44 c0 57 34 225 62 301 13 37 36 74 59 98
63 61 62 79 -5 301 -20 66 -36 126 -36 135 1 15 48 -135 85 -269z m-1878 224
c-3 -3 -12 -4 -19 -1 -8 3 -5 6 6 6 11 1 17 -2 13 -5z m73 -31 c0 -16 3 -38 6
-50 7 -27 -20 -33 -30 -7 -12 32 -7 84 9 84 10 0 15 -10 15 -27z m-52 -45 c-4
-76 -22 -80 -26 -6 -2 29 -9 56 -15 60 -7 5 -1 8 16 8 l28 0 -3 -62z m132 38
c0 -22 -26 -43 -38 -31 -3 3 -1 5 5 5 6 0 8 11 5 25 -3 18 0 25 12 25 10 0 16
-9 16 -24z m4388 -656 c37 -5 126 -19 197 -31 72 -11 171 -25 220 -30 50 -6
119 -19 155 -29 36 -11 102 -26 148 -34 46 -7 86 -17 89 -20 4 -3 -9 -4 -28 0
-111 19 -149 27 -191 40 -26 9 -53 12 -59 8 -8 -4 -9 -3 -5 4 5 9 -7 12 -41
13 -26 0 -70 4 -98 8 -27 5 -106 18 -175 29 -274 44 -293 45 -692 39 -211 -3
-430 -11 -488 -17 -209 -21 -337 -41 -458 -70 -218 -53 -328 -65 -727 -80
-143 -5 -276 -12 -295 -15 -35 -5 -35 -5 -5 5 17 5 149 14 295 20 406 15 513
26 731 80 162 40 392 69 659 83 145 8 709 6 768 -3z m-663 -622 c-47 -55 -100
-150 -110 -203 -4 -17 -3 -25 2 -18 4 6 8 -27 7 -75 0 -87 -16 -121 -28 -61
-11 57 -6 114 16 180 25 75 55 125 110 185 57 62 59 55 3 -8z m20 -15 c-25
-26 -61 -79 -81 -118 -19 -38 -32 -59 -28 -45 13 49 22 66 67 125 67 88 82
104 85 95 2 -5 -18 -30 -43 -57z m-125 -475 c8 -21 9 -21 9 -3 1 14 7 8 22
-20 25 -47 82 -110 124 -136 25 -16 27 -19 10 -19 -17 0 -18 -2 -5 -11 11 -8
9 -9 -10 -4 -50 14 -141 120 -160 187 -10 33 -3 37 10 6z m1654 -1103 c25 -19
9 -19 -24 0 -14 8 -19 14 -10 14 8 0 24 -6 34 -14z m-19 -23 c-3 -3 -11 0 -18
7 -9 10 -8 11 6 5 10 -3 15 -9 12 -12z m-66 4 c-7 -7 -219 -35 -309 -41 -46
-4 -82 -4 -79 -1 3 3 43 8 90 12 46 3 122 11 169 18 90 15 136 19 129 12z
m-416 -33 c-7 -2 -21 -2 -30 0 -10 3 -4 5 12 5 17 0 24 -2 18 -5z"/>
<path d="M4790 4447 c0 -20 4 -38 9 -42 6 -3 7 10 4 32 -8 50 -13 55 -13 10z"/>
<path d="M4743 4415 c0 -33 2 -45 4 -27 2 18 2 45 0 60 -2 15 -4 0 -4 -33z"/>
<path d="M4871 4454 c0 -11 3 -14 6 -6 3 7 2 16 -1 19 -3 4 -6 -2 -5 -13z"/>
<path d="M8491 2895 c0 -33 4 -69 8 -80 5 -12 7 9 4 50 -6 91 -11 105 -12 30z"/>
<path d="M8520 2664 c0 -28 106 -154 129 -154 6 0 -11 22 -38 48 -27 26 -56
62 -65 80 -15 30 -26 40 -26 26z"/>
<path d="M9528 3433 c6 -2 18 -2 25 0 6 3 1 5 -13 5 -14 0 -19 -2 -12 -5z"/>
<path d="M8331 1746 c2 -2 75 -18 161 -35 177 -35 259 -38 338 -15 53 16 125
15 178 -1 13 -5 22 -3 22 3 0 27 -133 32 -205 8 -67 -23 -143 -20 -316 14
-150 29 -187 34 -178 26z"/>
<path d="M6220 1094 c0 -15 100 -260 100 -246 0 13 -88 242 -96 251 -2 2 -4 0
-4 -5z"/>
<path d="M3147 847 c-20 -67 -43 -162 -52 -211 -19 -110 -19 -291 -1 -416 8
-52 17 -121 21 -152 6 -53 18 -78 32 -64 3 3 -5 76 -17 163 -36 258 -23 469
46 735 27 108 8 71 -29 -55z"/>
<path d="M6340 759 c0 -8 7 -46 16 -84 32 -145 45 -266 53 -470 l8 -210 1 171
c2 178 -12 321 -49 499 -19 94 -29 126 -29 94z"/>
</g>
</svg>
