<?xml version="1.0" standalone="no"?>
<!DOCTYPE svg PUBLIC "-//W3C//DTD SVG 20010904//EN"
 "http://www.w3.org/TR/2001/REC-SVG-20010904/DTD/svg10.dtd">
<svg version="1.0" xmlns="http://www.w3.org/2000/svg"
 width="1280.000000pt" height="720.000000pt" viewBox="0 0 1280.000000 720.000000"
 preserveAspectRatio="xMidYMid meet">
<metadata>
Created by potrace 1.16, written by Peter Selinger 2001-2019
</metadata>
<g transform="translate(0.000000,720.000000) scale(0.100000,-0.100000)"
fill="#000000" stroke="none">
<path d="M0 3668 l1 -3533 20 25 c26 32 349 539 412 646 26 44 47 88 47 96 0
9 9 36 20 61 20 46 61 77 102 77 10 0 29 7 42 15 20 13 22 21 16 53 -9 48 -28
117 -45 167 -30 87 -28 103 13 130 20 13 52 29 69 36 28 9 33 16 33 43 0 17
15 138 34 269 38 259 45 281 113 333 127 97 214 118 1048 249 50 8 122 15 161
15 l72 0 53 76 c30 42 69 97 87 122 52 75 227 435 282 582 18 47 52 135 75
195 24 61 66 180 95 265 28 85 58 169 66 187 8 17 14 37 14 45 0 8 3 18 7 22
15 15 44 105 63 196 19 95 55 389 64 530 3 41 10 147 17 234 6 87 8 184 5 215
-20 184 -1 949 30 1201 44 360 178 707 354 919 l51 61 -1711 0 -1710 0 0
-3532z"/>
<path d="M3378 7127 c-186 -233 -309 -551 -352 -907 -31 -252 -50 -1017 -30
-1201 3 -31 1 -128 -5 -215 -7 -87 -14 -193 -17 -234 -9 -142 -45 -435 -65
-535 -17 -87 -48 -179 -96 -292 -7 -17 -13 -38 -13 -46 0 -9 -4 -18 -9 -22 -5
-3 -13 -20 -16 -38 -9 -39 -100 -301 -120 -342 -8 -16 -34 -84 -59 -150 -70
-189 -228 -520 -290 -609 -17 -24 -55 -78 -84 -119 l-53 -74 -107 -6 c-139 -6
-785 -110 -922 -148 -138 -39 -165 -49 -220 -88 -100 -69 -108 -87 -146 -348
-18 -125 -33 -247 -34 -269 0 -36 -3 -43 -26 -48 -14 -4 -44 -19 -66 -33 -37
-25 -39 -29 -35 -67 3 -23 16 -79 30 -126 41 -140 41 -147 7 -165 -16 -8 -35
-15 -43 -15 -51 0 -117 -76 -117 -135 0 -11 -20 -54 -45 -94 -25 -40 -45 -74
-45 -76 0 -8 -351 -553 -374 -581 -21 -26 -26 -42 -26 -88 l0 -56 1561 0
c1481 0 1560 1 1555 18 -3 9 -15 81 -26 160 -27 190 -26 360 1 488 12 55 24
111 26 127 3 15 9 30 14 33 5 3 9 13 9 22 0 34 35 132 47 132 17 0 17 -3 -7
-97 -62 -251 -74 -456 -41 -709 11 -89 21 -164 21 -167 0 -4 730 -7 1621 -7
l1622 0 -6 208 c-6 225 -19 322 -72 562 -5 22 -4 22 4 5 l10 -20 0 20 c-1 30
-27 104 -28 80 -1 -11 -13 9 -26 45 -14 36 -31 76 -39 90 -7 14 -17 40 -21 57
-5 26 -3 33 9 33 9 0 16 -6 16 -13 0 -7 9 -30 20 -51 27 -54 76 -208 110 -346
33 -139 67 -516 54 -617 l-6 -53 852 0 852 0 -4 66 c-4 66 -4 67 -61 119 -31
29 -62 64 -67 77 -17 36 -32 60 -66 103 -67 86 -222 400 -211 428 3 6 6 4 6
-6 1 -11 7 -31 14 -45 145 -287 162 -318 201 -367 17 -22 40 -58 51 -79 11
-22 43 -63 72 -90 59 -58 73 -87 73 -157 l0 -49 2330 0 2330 0 0 399 0 400
-52 10 c-29 6 -71 13 -93 16 -114 17 -177 27 -240 40 -38 7 -99 19 -135 26
-194 35 -594 149 -769 219 -57 22 -127 47 -155 55 -88 24 -156 44 -341 105
-260 84 -368 117 -470 140 -49 11 -121 27 -160 36 -38 9 -90 23 -115 31 -30
10 -46 11 -48 4 -6 -18 -29 -12 -35 8 -3 12 -19 24 -38 30 l-34 11 35 -6 c19
-4 46 -7 60 -6 20 0 22 -1 7 -9 -9 -6 -17 -15 -17 -21 0 -7 4 -7 13 0 7 6 23
9 34 6 12 -3 30 -1 40 6 15 10 14 11 -12 6 -16 -3 -24 -3 -16 1 9 3 -11 15
-49 29 -66 25 -95 31 -70 13 13 -9 13 -10 0 -6 -8 2 -15 9 -15 15 0 5 -3 14
-7 18 -27 26 5 31 50 8 36 -18 244 -84 472 -150 85 -25 182 -53 215 -64 241
-75 500 -159 611 -196 72 -24 139 -44 150 -44 10 0 26 -5 34 -11 26 -18 -47 0
-185 46 -114 38 -255 83 -580 185 -49 16 -133 41 -185 56 -52 14 -173 51 -268
81 -95 30 -178 53 -184 51 -6 -2 37 -19 96 -37 104 -33 134 -46 77 -35 -16 3
-31 1 -35 -4 -4 -7 12 -13 41 -17 27 -4 93 -18 148 -32 103 -25 125 -32 425
-128 195 -63 279 -89 359 -111 30 -8 100 -33 155 -55 169 -68 573 -183 766
-218 36 -7 94 -18 130 -26 36 -7 85 -16 110 -20 130 -19 232 -35 254 -41 23
-5 26 -3 26 20 0 14 -6 26 -12 26 -24 1 -204 29 -348 54 -80 14 -157 27 -172
29 -15 1 -30 6 -34 10 -4 4 -18 7 -31 7 -60 0 -595 129 -587 142 4 5 10 5 17
0 16 -13 409 -105 565 -133 31 -6 77 -15 102 -19 233 -43 451 -79 488 -80 9 0
12 332 12 1626 l0 1626 -282 -7 c-177 -4 -313 -13 -363 -22 -129 -24 -216 -41
-270 -53 -63 -14 -151 -30 -340 -64 -82 -15 -181 -34 -220 -42 -38 -8 -92 -19
-120 -25 -27 -5 -68 -14 -90 -19 -22 -5 -74 -16 -115 -25 -41 -8 -88 -22 -104
-30 -15 -8 -36 -15 -45 -15 -9 0 -43 -9 -76 -20 -33 -10 -89 -28 -125 -39
-249 -73 -247 -73 -245 -95 2 -13 1 -14 -2 -3 -2 9 -8 17 -13 17 -4 0 -75 -22
-157 -49 -127 -42 -359 -114 -538 -166 -27 -8 -65 -18 -83 -21 -18 -4 -35 -11
-38 -15 -3 -5 -16 -9 -29 -9 -17 0 -23 -4 -19 -14 4 -11 -3 -15 -28 -14 -18 0
-121 -5 -228 -11 -107 -7 -246 -13 -308 -14 -62 -1 -103 -5 -90 -9 22 -6 21
-6 -4 -7 -19 -1 -28 4 -28 14 0 8 6 15 13 15 8 0 57 7 111 15 53 8 152 17 219
20 278 12 318 17 382 45 39 17 151 58 205 75 30 10 59 21 65 26 5 5 18 9 28 9
10 0 31 6 45 14 43 24 160 58 179 53 15 -4 14 -5 -3 -6 -12 0 -59 -15 -105
-31 -46 -17 -124 -45 -174 -61 -49 -17 -99 -35 -110 -39 -64 -28 -151 -60
-163 -60 -9 0 -12 -3 -9 -6 4 -4 31 1 62 10 30 9 81 23 113 32 121 34 267 79
547 170 160 51 362 114 450 139 88 26 175 53 192 61 18 7 79 23 135 35 57 12
119 25 138 29 66 15 355 71 445 86 113 20 215 40 280 54 51 11 155 32 280 55
39 7 197 16 353 20 155 4 282 11 282 15 0 4 -109 10 -242 13 -277 6 -294 4
-693 -74 -435 -84 -550 -108 -713 -149 -86 -21 -191 -44 -232 -50 -41 -7 -104
-19 -138 -26 -59 -14 -416 -122 -575 -175 -52 -17 -73 -20 -90 -12 -12 6 -56
15 -97 21 -41 6 -136 27 -210 46 -120 32 -267 58 -400 72 -25 3 -65 11 -90 19
-86 28 -207 38 -470 38 -371 1 -546 -20 -883 -104 -43 -10 -85 -19 -95 -18
-32 1 219 60 393 93 282 53 843 56 1037 7 43 -11 94 -22 115 -25 159 -20 276
-41 397 -72 179 -46 212 -53 262 -54 22 0 45 -5 51 -11 9 -9 49 0 160 36 81
26 196 62 254 81 132 42 281 79 379 94 41 6 146 29 232 50 163 41 278 65 713
149 399 78 416 80 693 74 l242 -6 0 1522 0 1521 -3030 0 c-1667 0 -3030 -2
-3030 -5 0 -3 11 -22 24 -43 45 -71 79 -147 133 -295 76 -208 126 -422 149
-635 4 -34 11 -65 15 -68 16 -9 9 -195 -11 -329 -33 -221 -60 -345 -105 -480
-24 -71 -48 -163 -54 -204 -8 -49 -25 -100 -50 -150 -92 -183 -126 -229 -203
-281 -35 -23 -70 -56 -80 -74 -16 -30 -15 -36 3 -106 11 -40 31 -91 44 -114
27 -48 55 -151 55 -204 0 -47 -42 -137 -70 -152 -12 -6 -30 -31 -41 -54 -20
-47 -47 -198 -50 -291 l-3 -60 148 -2 c81 -1 153 -3 160 -6 7 -3 49 -1 92 4
43 5 203 16 354 24 254 13 420 30 545 54 50 9 79 7 34 -3 -140 -30 -347 -51
-644 -66 -288 -15 -412 -29 -195 -23 455 13 635 29 815 73 297 72 593 99 1093
100 293 0 345 -3 582 -40 74 -12 171 -26 215 -31 44 -6 134 -24 200 -40 67
-16 132 -29 145 -29 14 0 32 -5 40 -10 22 -14 -43 -3 -185 30 -66 16 -156 33
-200 39 -44 5 -141 19 -215 31 -237 37 -289 40 -582 40 -498 -1 -777 -26
-1093 -101 -175 -41 -308 -55 -695 -71 -146 -5 -287 -12 -315 -14 -104 -8
-354 -5 -456 5 -181 19 -306 67 -348 134 -31 49 -8 59 33 14 51 -56 108 -76
263 -93 74 -9 141 -13 149 -10 9 4 14 21 14 51 0 55 33 209 62 290 14 38 35
73 59 95 63 59 62 82 -5 304 -25 82 -35 131 -31 155 5 33 4 34 -6 11 -67 -148
-128 -264 -165 -312 -24 -32 -44 -62 -44 -66 0 -14 -78 -72 -96 -72 -10 0 -34
-15 -54 -34 -41 -40 -127 -77 -161 -69 -13 3 -49 16 -79 30 -84 39 -207 79
-395 128 -93 25 -195 54 -225 64 -37 12 -61 16 -72 9 -32 -16 -77 24 -137 120
-19 30 -40 52 -50 52 -14 0 -20 16 -29 78 -22 138 -112 292 -228 387 -71 58
-118 62 -158 14 -33 -39 -33 -80 -3 -150 23 -52 36 -101 76 -299 l20 -95 -2
63 c-2 50 0 59 10 46 10 -14 12 -13 16 8 3 13 4 -8 3 -47 -1 -50 -5 -69 -13
-67 -7 1 -13 0 -13 -2 0 -18 159 -343 190 -386 48 -69 60 -107 60 -198 0 -119
24 -271 51 -324 57 -111 158 -226 229 -258 14 -6 41 -20 60 -30 19 -11 42 -19
50 -20 22 -1 168 -49 150 -49 -8 -1 -44 8 -78 19 -82 26 -102 26 -102 -1 0
-79 91 -316 157 -406 35 -49 91 -98 101 -89 3 4 0 11 -8 16 -12 8 -12 10 4 10
14 0 17 -5 13 -20 -7 -28 26 -48 89 -56 78 -10 208 -56 589 -208 49 -20 99
-36 110 -36 12 0 25 -4 31 -9 5 -5 113 -39 239 -75 127 -36 249 -72 273 -80
23 -8 88 -27 144 -41 57 -15 112 -30 123 -35 11 -5 48 -16 83 -25 34 -9 73
-20 85 -25 69 -28 290 -84 632 -161 55 -12 143 -37 195 -56 129 -47 173 -58
333 -88 161 -29 214 -31 287 -9 35 10 80 15 130 12 65 -2 82 -7 113 -30 19
-16 38 -28 41 -28 3 0 29 -14 58 -31 105 -62 144 -71 365 -78 111 -4 205 -10
208 -13 4 -3 -41 -4 -99 -2 -58 2 -152 6 -208 8 -122 5 -198 28 -306 93 -41
25 -76 43 -78 40 -5 -4 53 -43 136 -90 82 -47 129 -58 290 -68 85 -6 184 -13
219 -16 81 -6 392 29 377 44 -2 3 -49 -2 -103 -11 -105 -16 -281 -30 -272 -22
3 3 43 8 90 11 46 3 126 12 176 20 114 18 123 18 123 1 0 -20 -199 -49 -335
-49 -172 -1 -425 19 -475 37 -70 25 -172 80 -215 116 -47 40 -151 48 -250 21
-22 -6 -67 -11 -99 -11 -73 0 -398 64 -481 95 -33 13 -109 33 -170 45 -132 26
-413 93 -510 121 -38 11 -78 23 -88 25 -13 4 -7 -8 20 -45 63 -83 99 -194 159
-491 25 -124 51 -250 59 -280 22 -85 57 -310 52 -334 -4 -18 -4 -18 -6 4 -2
42 -41 271 -56 330 -8 30 -34 156 -59 280 -25 124 -54 248 -65 275 -10 28 -24
68 -31 90 -10 33 -49 99 -95 161 -19 26 5 25 112 -5 141 -39 369 -93 508 -121
61 -12 139 -33 174 -46 35 -13 73 -24 85 -24 22 1 21 1 -119 54 -62 24 -201
61 -305 81 -93 19 -366 88 -455 115 -124 39 -196 60 -357 104 -70 19 -131 37
-136 40 -5 3 -112 35 -238 71 -283 81 -451 137 -559 185 -39 18 -281 107 -345
128 -36 11 -87 24 -115 27 -27 4 -62 16 -77 27 -15 10 -33 16 -39 12 -7 -4 -9
-3 -5 4 3 6 -6 20 -21 32 -41 32 -97 119 -137 216 -42 101 -79 238 -73 271 3
16 -2 25 -22 33 -122 51 -234 164 -292 296 -26 57 -49 213 -49 327 0 89 0 91
-44 161 -41 67 -177 336 -202 401 -7 17 -19 73 -29 125 -22 127 -53 248 -72
285 -8 17 -19 44 -23 60 l-8 30 -1 -27 c-1 -15 8 -44 19 -65 29 -58 50 -142
81 -343 6 -36 21 -87 34 -115 69 -143 76 -163 69 -189 -4 -15 -13 -30 -21 -33
-19 -7 -162 40 -234 76 -302 154 -339 175 -339 194 0 11 9 83 20 161 11 77 31
263 45 411 28 310 43 415 90 645 42 210 44 217 60 230 8 6 28 46 45 88 17 42
35 86 40 97 5 11 41 99 80 195 40 96 80 194 91 217 10 24 19 45 19 47 0 6 169
358 181 376 5 8 16 29 24 46 8 18 25 45 38 60 13 16 29 44 36 62 22 52 65 82
119 82 73 0 170 -19 210 -40 20 -11 41 -20 45 -20 5 0 20 -9 34 -20 34 -27 46
-25 85 9 47 41 92 61 134 61 32 0 44 -9 111 -77 75 -78 75 -78 94 -166 22
-106 35 -148 132 -427 108 -312 147 -404 223 -531 41 -69 42 -91 7 -118 l-28
-20 38 -1 c36 0 37 1 32 28 -4 16 5 6 22 -28 40 -77 81 -145 130 -217 23 -34
51 -83 63 -110 12 -26 32 -70 45 -98 13 -27 26 -59 30 -70 6 -19 7 -19 17 -1
8 14 7 21 -3 27 -9 6 -10 9 -2 9 20 0 26 -21 13 -45 -10 -19 -10 -33 3 -72 18
-58 25 -107 33 -234 5 -85 3 -102 -20 -160 -58 -152 -157 -340 -224 -428 -74
-96 -201 -241 -212 -241 -5 0 4 15 20 33 15 17 50 58 77 89 139 161 222 296
313 511 41 98 41 98 36 195 -12 200 -21 230 -128 460 -16 35 -49 93 -74 129
-25 36 -63 99 -85 139 l-41 74 -44 0 c-51 0 -55 11 -16 45 l27 24 -19 33 c-93
163 -140 274 -238 558 -88 258 -118 355 -135 437 l-18 87 -77 78 c-100 101
-125 103 -221 21 -42 -37 -73 -41 -108 -15 -65 50 -174 82 -280 82 -38 0 -50
-5 -77 -33 -18 -18 -32 -38 -32 -44 0 -6 -17 -35 -37 -64 -56 -81 -225 -428
-294 -604 -22 -55 -51 -123 -65 -152 -13 -28 -24 -58 -24 -65 0 -8 -4 -18 -8
-23 -5 -6 -28 -57 -51 -115 -50 -124 -60 -147 -83 -180 -17 -26 -75 -294 -103
-481 -8 -57 -26 -225 -40 -374 -14 -148 -34 -334 -45 -411 -11 -78 -20 -148
-20 -157 0 -22 384 -218 494 -252 57 -18 59 -18 73 1 8 10 12 26 9 34 -8 28
-73 169 -83 182 -6 7 -13 38 -17 68 -16 132 -53 292 -82 357 -36 78 -31 159
11 203 25 26 35 30 86 30 51 0 62 -4 106 -39 74 -58 160 -161 188 -225 14 -32
35 -92 46 -134 14 -49 29 -82 43 -93 13 -10 47 -50 76 -89 55 -71 62 -75 155
-95 17 -4 39 -10 50 -15 19 -8 205 -60 360 -100 39 -10 119 -39 180 -65 60
-25 125 -46 143 -47 18 -1 28 -4 21 -8 -16 -11 -85 7 -154 39 -81 38 -151 61
-335 111 -85 23 -186 51 -225 62 -38 12 -84 22 -102 22 -17 1 -29 4 -26 9 2 4
-2 7 -9 7 -8 0 -38 32 -68 71 -29 39 -63 78 -75 87 -13 11 -28 42 -39 86 -38
155 -126 289 -247 379 -39 29 -112 37 -150 17 -22 -12 -49 -60 -49 -87 0 -10
9 1 19 24 35 75 103 86 181 28 26 -19 51 -42 54 -50 3 -8 12 -15 21 -15 8 0
15 -5 15 -11 0 -7 15 -30 33 -53 50 -61 98 -170 115 -263 13 -65 20 -83 33
-83 10 0 31 -23 50 -52 18 -29 48 -70 67 -90 28 -29 39 -35 56 -29 14 6 46 0
93 -15 40 -13 134 -40 210 -59 170 -44 344 -100 398 -127 66 -34 91 -38 137
-21 24 9 61 34 83 55 23 21 50 38 60 38 26 0 90 62 143 139 40 59 152 270 152
288 0 4 12 33 27 63 21 45 40 65 90 99 67 46 100 86 164 204 62 113 80 157 91
227 6 36 30 125 54 198 45 138 72 258 104 477 22 146 27 325 9 325 -8 0 -10
-30 -7 -102 2 -57 1 -92 -3 -78 -5 18 -8 6 -9 -40 -1 -36 -4 -57 -7 -47 -3 10
0 86 6 170 11 164 4 247 -40 457 -43 201 -133 453 -209 587 -28 47 -50 90 -50
94 0 5 -740 9 -1647 9 l-1648 -1 -57 -72z m72 38 c0 -8 -7 -15 -15 -15 -13 0
-14 3 -3 15 16 18 18 18 18 0z m2390 -362 c6 -29 10 -58 7 -65 -3 -7 -6 1 -7
17 -1 26 -3 28 -10 10 -7 -14 -8 -8 -4 20 4 30 3 36 -5 25 -8 -11 -10 -7 -6
20 4 27 3 30 -4 15 -11 -23 -14 -6 -5 20 9 23 18 7 34 -62z m-603 -273 c54
-11 134 -31 177 -45 71 -22 100 -37 187 -96 14 -9 45 -23 69 -29 23 -6 40 -14
37 -17 -13 -13 -103 27 -190 85 -86 57 -323 113 -470 110 l-92 -1 115 -7 c134
-9 270 -50 424 -127 50 -26 118 -54 151 -64 33 -10 52 -18 42 -18 -31 -2 -135
38 -235 89 -53 26 -119 54 -147 61 -27 6 -63 19 -80 27 -21 11 -67 17 -154 19
-68 2 -127 6 -130 9 -29 29 159 32 296 4z m144 -233 l147 -13 46 -48 c37 -37
47 -54 44 -75 -1 -15 6 -41 16 -57 11 -15 21 -50 24 -77 4 -44 3 -49 -14 -45
-10 2 -20 12 -22 23 -5 34 -44 129 -61 149 -16 19 -86 55 -108 56 -9 0 -9 -8
-1 -30 12 -37 4 -87 -19 -112 -9 -10 -11 -18 -5 -18 16 0 155 -94 172 -116 12
-16 10 -16 -10 2 -14 11 -60 42 -102 68 -43 27 -78 50 -78 52 0 3 10 18 21 34
21 27 22 47 7 110 -5 24 33 23 82 -2 35 -18 50 -34 71 -76 14 -29 28 -49 32
-46 3 4 0 19 -8 34 -8 15 -12 36 -9 47 4 15 -8 34 -43 70 l-48 50 -178 13
c-163 12 -270 10 -430 -7 -32 -3 -55 -8 -53 -11 7 -6 144 -63 321 -133 83 -32
158 -63 167 -69 10 -5 22 -10 27 -10 4 0 37 -19 72 -43 63 -42 123 -80 163
-104 12 -7 15 -13 8 -13 -7 0 -39 17 -70 39 -111 75 -168 107 -237 135 -38 16
-89 37 -112 47 -24 11 -47 19 -52 19 -10 0 -84 31 -161 67 -30 15 -73 32 -95
38 -22 7 -41 19 -43 28 -3 12 13 16 85 22 48 3 97 7 108 9 47 8 211 4 346 -7z
m400 -4 c-11 -5 -11 -7 0 -14 11 -7 10 -9 -3 -9 -10 0 -18 7 -18 15 0 8 8 15
18 14 12 0 13 -2 3 -6z m-181 -30 c0 -12 -3 -14 -8 -7 -4 7 -16 14 -27 17 -15
4 -14 5 8 6 20 1 27 -4 27 -16z m-1872 -1 c10 -7 11 -19 3 -53 -5 -24 -12 -66
-15 -94 -6 -65 -74 -543 -81 -574 -5 -21 -10 -23 -45 -18 -64 8 -114 56 -162
155 -42 86 -43 88 -43 197 0 123 16 186 64 252 31 43 128 113 158 114 10 0 34
6 53 13 44 17 52 18 68 8z m1482 -17 c0 -8 -7 -15 -16 -15 -20 0 -45 -25 -42
-42 5 -23 -39 -19 -69 6 -17 14 -32 24 -34 21 -3 -2 -6 7 -7 20 -2 25 -1 25
83 25 69 0 85 -3 85 -15z m444 -107 c9 -36 7 -45 -6 -23 -15 25 -19 45 -8 45
4 0 10 -10 14 -22z m-488 -42 c10 -8 16 -17 13 -21 -11 -10 -59 6 -59 21 0 18
21 18 46 0z m440 -105 c-4 -5 0 -12 6 -14 8 -3 6 -6 -4 -6 -10 -1 -18 6 -18
14 0 8 5 15 11 15 5 0 8 -4 5 -9z m431 -128 c-42 -83 -51 -120 -37 -154 7 -16
18 -33 24 -37 7 -4 22 -25 33 -47 12 -22 27 -39 34 -37 8 2 10 0 6 -4 -4 -4
30 -46 75 -92 46 -47 69 -76 52 -64 -48 33 -175 171 -186 203 -5 16 -14 29
-19 29 -15 0 -40 74 -34 100 12 46 69 174 72 163 2 -6 -7 -33 -20 -60z m54
-41 c-6 -30 -11 -81 -11 -111 l0 -56 85 -85 c47 -47 85 -92 85 -102 0 -9 5
-20 10 -23 6 -3 10 -14 10 -23 0 -13 -2 -13 -15 4 -8 10 -15 25 -15 33 0 8
-39 54 -86 103 l-87 88 8 98 c10 130 10 144 1 167 -4 11 0 7 9 -9 15 -25 16
-37 6 -84z m919 -32 l-11 -25 6 25 c2 14 5 36 6 50 l2 25 4 -25 c2 -14 -1 -37
-7 -50z m-950 39 c0 -5 -4 -9 -8 -9 -5 0 -9 7 -9 15 0 8 4 12 9 9 4 -3 8 -9 8
-15z m-126 -78 c-4 -29 -2 -56 5 -67 8 -15 10 -7 9 39 0 32 2 60 5 63 2 3 5
-24 6 -60 1 -52 -2 -66 -14 -66 -8 0 -17 11 -21 25 -6 25 3 115 12 115 3 0 2
-22 -2 -49z m-98 -61 c-5 -41 -4 -60 4 -60 6 0 8 -5 4 -11 -14 -23 -24 20 -18
75 4 31 9 56 12 56 2 0 2 -27 -2 -60z m14 -37 c-11 -17 -11 -17 -6 0 3 10 7
37 8 60 l1 42 4 -42 c2 -24 -1 -51 -7 -60z m-2251 -217 c-6 -37 -8 -70 -5 -73
3 -4 6 4 6 17 0 13 3 21 6 18 3 -4 -4 -52 -15 -108 -12 -55 -31 -163 -42 -238
-54 -363 -249 -1261 -300 -1377 -4 -11 -15 -45 -23 -75 -45 -173 -104 -360
-134 -430 -18 -44 -19 -44 -26 -17 -4 18 0 44 13 75 11 26 31 85 45 132 14 47
46 155 72 240 74 245 91 311 139 530 25 113 50 223 55 245 21 84 99 496 120
630 11 77 34 205 49 285 16 80 32 162 36 184 3 21 8 36 10 34 2 -2 0 -34 -6
-72z m22 14 c-5 -25 -9 -35 -10 -24 -1 28 11 92 16 79 1 -6 -1 -30 -6 -55z
m2639 -85 c0 -23 -48 -125 -75 -161 -14 -18 -25 -37 -25 -42 0 -5 -21 -35 -46
-66 -67 -81 -115 -74 -59 8 14 20 25 39 25 42 0 9 97 149 113 162 8 7 20 26
27 42 13 31 40 41 40 15z m-974 -95 c4 0 3 12 0 28 -5 19 2 12 22 -23 16 -27
41 -70 56 -95 37 -63 122 -233 128 -257 4 -16 14 -21 46 -21 38 -1 309 -88
406 -131 59 -25 72 -51 55 -104 l-13 -39 -55 6 c-51 6 -113 20 -151 34 -8 3
-53 14 -100 24 -47 11 -95 22 -107 25 -22 5 -23 3 -17 -41 5 -37 4 -46 -8 -46
-10 0 -20 24 -32 80 -22 103 -57 211 -90 277 -14 29 -26 56 -26 59 0 3 -8 18
-19 32 -10 15 -33 54 -51 87 -18 33 -42 75 -52 93 -10 18 -18 43 -17 55 1 17
3 14 10 -10 5 -18 12 -33 15 -33z m1414 -344 c0 -8 -9 -24 -20 -37 -18 -21
-19 -22 -14 -4 6 20 5 20 -10 1 -9 -11 -16 -14 -16 -7 0 6 9 22 21 34 18 19
19 19 13 3 -5 -14 -4 -17 4 -12 7 4 12 14 12 22 0 8 2 14 5 14 3 0 5 -6 5 -14z
m-1902 -526 c4 0 7 19 5 43 l-2 42 8 -45 c9 -51 8 -55 -14 -47 -11 5 -15 19
-13 54 l2 48 3 -47 c2 -27 7 -48 11 -48z m92 54 c0 -8 -7 -14 -15 -14 -15 0
-21 21 -9 33 10 9 24 -2 24 -19z m6490 -536 c0 -4 -7 -8 -15 -8 -8 0 -15 4
-15 8 0 5 7 9 15 9 8 0 15 -4 15 -9z m-7208 -113 c86 -44 177 -81 335 -134
128 -43 208 -59 355 -68 48 -3 92 -11 96 -17 5 -6 14 -35 19 -64 9 -47 8 -54
-8 -62 -10 -6 -20 -6 -23 -1 -3 5 -38 19 -78 31 -97 30 -122 41 -78 33 19 -3
66 -17 104 -30 38 -12 73 -23 76 -23 7 0 -9 100 -17 110 -3 3 -41 8 -86 11
-176 14 -313 44 -452 99 -11 4 -58 22 -105 40 -47 18 -114 48 -148 66 -80 43
-92 43 -92 2 0 -29 -13 -123 -36 -267 -7 -41 -6 -44 12 -36 63 26 208 47 329
48 178 1 388 -5 342 -10 -21 -3 -35 -8 -31 -14 3 -5 1 -16 -5 -23 -13 -16 0
-61 21 -69 9 -4 10 -6 1 -6 -7 -1 -20 10 -29 24 -13 21 -15 31 -6 50 6 13 8
27 3 29 -4 3 -89 7 -187 10 -183 4 -283 -6 -403 -40 -29 -8 -56 -13 -59 -10
-3 3 2 52 11 108 10 57 20 130 23 163 3 33 7 66 10 73 6 20 33 14 106 -23z
m561 -292 c-7 -2 -19 -2 -25 0 -7 3 -2 5 12 5 14 0 19 -2 13 -5z m41 -9 c21
-8 21 -62 1 -84 -14 -15 -12 -18 22 -28 63 -19 206 -54 241 -59 23 -4 40 -16
59 -42 14 -20 42 -49 62 -66 l37 -29 -4 -226 -4 -225 39 -37 c59 -57 161 -107
250 -123 136 -24 139 -26 157 -106 17 -77 14 -95 -17 -102 -12 -2 -83 -19
-157 -37 -74 -17 -171 -40 -215 -50 -105 -23 -377 -99 -384 -107 -8 -8 34 1
184 42 72 20 173 44 225 55 52 10 145 31 205 45 61 14 126 28 146 32 l35 5 18
-98 c10 -55 21 -144 26 -199 4 -55 20 -150 34 -211 27 -108 29 -113 91 -183
35 -40 89 -109 120 -154 31 -45 80 -118 110 -161 30 -44 55 -85 55 -92 0 -7
-27 -17 -72 -24 -40 -6 -109 -20 -153 -30 -44 -10 -129 -28 -190 -40 -60 -11
-121 -25 -135 -29 -14 -5 -50 -14 -80 -21 -100 -23 -345 -134 -439 -200 -14
-10 -72 -46 -128 -80 -56 -35 -100 -67 -96 -73 3 -6 1 -7 -5 -3 -15 9 -34 -2
-27 -14 3 -5 17 -5 33 1 l27 9 -25 -19 c-14 -11 -34 -22 -45 -25 -20 -5 -20
-5 0 10 20 15 20 15 -1 20 -18 5 -21 18 -32 162 -13 155 -45 369 -58 381 -4 3
-4 -21 0 -54 19 -171 25 -250 27 -355 3 -111 2 -115 -19 -118 -15 -2 -42 16
-89 60 -141 132 -299 202 -603 267 -85 19 -519 9 -643 -13 -54 -10 -100 -16
-103 -13 -9 9 49 213 86 302 5 11 25 70 45 130 21 61 43 117 50 125 7 8 16 35
19 60 4 25 11 74 16 110 5 36 19 133 30 215 29 207 32 220 56 218 10 -1 71 -7
134 -13 256 -23 427 -42 463 -50 23 -5 59 -27 93 -56 169 -148 232 -167 324
-99 42 31 17 34 -35 4 -67 -40 -137 -12 -285 111 -50 41 -67 48 -156 68 -68
15 -170 26 -322 35 -122 7 -224 16 -228 19 -12 13 18 115 46 153 39 53 158
263 200 350 60 126 98 233 145 413 67 251 52 226 148 248 69 16 123 19 332 19
170 0 258 -4 275 -12 21 -10 18 -11 -25 -5 -27 4 -151 7 -275 7 -181 -1 -240
-5 -303 -19 -61 -14 -80 -23 -87 -40 -4 -11 -29 -101 -55 -199 -44 -167 -76
-264 -113 -347 -43 -99 -154 -312 -175 -339 -6 -7 -16 -21 -22 -31 -5 -9 -23
-37 -39 -61 -33 -49 -53 -119 -37 -129 6 -3 109 -12 228 -18 297 -18 393 -39
475 -106 149 -120 203 -142 263 -107 36 21 85 28 85 13 0 -11 -39 -47 -69 -62
-13 -7 -45 -12 -71 -12 -59 0 -110 28 -216 121 -55 49 -88 71 -113 75 -47 7
-293 32 -449 46 -67 5 -127 11 -134 13 -15 3 -25 -37 -48 -208 -11 -82 -25
-179 -30 -215 -5 -36 -12 -85 -16 -110 -3 -25 -14 -59 -24 -75 -32 -52 -187
-521 -176 -532 2 -2 44 4 92 13 115 22 561 31 644 14 312 -68 476 -139 612
-267 37 -35 73 -63 80 -63 19 0 13 165 -19 478 -4 42 -3 52 10 52 22 0 59
-219 73 -432 l7 -107 26 17 c14 9 35 22 46 29 53 32 173 107 195 122 95 65
318 167 432 196 34 9 79 21 98 26 40 11 276 60 429 89 57 11 106 21 108 23 8
9 -206 312 -279 394 -47 53 -62 79 -76 132 -36 128 -44 167 -52 271 -9 120
-39 290 -50 290 -4 0 -68 -14 -141 -31 -74 -16 -170 -37 -214 -45 -44 -8 -100
-21 -125 -29 -25 -7 -126 -34 -225 -60 -131 -34 -192 -55 -225 -77 -35 -24
-41 -26 -25 -8 26 29 48 40 120 62 52 16 55 18 18 13 -23 -3 -50 -8 -60 -11
-16 -5 -16 -5 -1 5 9 6 36 15 60 20 24 5 111 28 193 51 83 23 186 51 230 60
173 39 346 81 370 90 28 11 28 12 16 60 -5 19 -12 47 -15 61 -7 32 -54 54
-141 64 -81 10 -214 75 -261 127 l-36 40 3 224 4 223 -36 28 c-20 15 -49 45
-63 66 -17 23 -35 37 -49 37 -12 0 -42 7 -66 16 -39 13 -78 23 -221 54 -20 5
-27 8 -15 10 l20 1 -20 9 c-20 9 -20 9 1 9 42 2 60 52 27 77 -19 14 -14 18 11
8z m-710 -63 c-4 -17 -9 -30 -11 -27 -3 2 -2 19 2 36 9 41 17 33 9 -9z m22 3
c-4 -14 -9 -24 -12 -21 -3 2 -2 17 2 31 3 15 9 25 11 22 3 -3 2 -17 -1 -32z
m4539 -255 c-46 -51 -95 -128 -95 -148 0 -9 7 -2 16 15 20 41 105 146 122 152
8 2 -7 -18 -33 -44 -25 -27 -61 -80 -81 -119 -22 -45 -33 -59 -29 -40 5 27 3
26 -15 -10 -11 -22 -19 -33 -17 -25 12 44 34 99 55 134 23 38 100 126 109 126
3 0 -11 -18 -32 -41z m-3194 -88 c35 -11 73 -21 84 -24 l20 -5 -20 -1 c-21 -1
-178 46 -159 48 7 1 40 -8 75 -18z m3084 -217 c1 -47 -2 -77 -6 -67 -13 32 -9
153 5 153 0 0 1 -39 1 -86z m-22 -22 c2 -34 0 -57 -5 -50 -4 7 -7 42 -7 78 1
75 6 63 12 -28z m-5543 30 c0 -10 -11 -47 -25 -83 -87 -220 -177 -322 -449
-507 -122 -83 -191 -122 -214 -122 -11 1 -6 6 13 15 l30 15 -35 -5 c-26 -4
-30 -3 -15 4 21 9 198 127 251 167 17 13 34 24 38 24 14 0 153 119 197 168 49
54 132 189 153 249 28 78 36 93 46 93 5 0 10 -8 10 -18z m5560 -204 c8 -21 9
-21 10 -3 0 14 7 6 23 -24 12 -24 48 -68 80 -97 32 -30 54 -54 48 -54 -16 0
-107 94 -126 129 -9 18 -19 31 -21 28 -19 -19 82 -138 137 -161 28 -13 30 -15
11 -16 -43 0 -152 120 -172 192 -10 33 -3 37 10 6z m-2982 -76 c2 -7 -3 -12
-12 -12 -9 0 -16 7 -16 16 0 17 22 14 28 -4z m-1996 -320 c-7 -2 -10 -8 -6
-13 3 -5 0 -9 -5 -9 -6 0 -11 9 -11 20 0 14 5 18 17 13 11 -4 13 -8 5 -11z
m-1272 -134 c0 -4 -7 -8 -15 -8 -8 0 -15 4 -15 8 0 5 7 9 15 9 8 0 15 -4 15
-9z m2449 -23 c-19 -14 -46 -33 -61 -42 -33 -21 -37 -39 -5 -22 20 11 21 11 8
-4 -17 -22 -56 -23 -44 -2 10 17 113 95 126 95 6 0 -5 -11 -24 -25z m-1269
-422 c0 -25 -17 -40 -31 -26 -6 6 -5 22 2 42 9 24 14 29 20 19 5 -7 9 -23 9
-35z m6318 -150 c-10 -2 -28 -2 -40 0 -13 2 -5 4 17 4 22 1 32 -1 23 -4z m-95
-30 c-7 -2 -21 -2 -30 0 -10 3 -4 5 12 5 17 0 24 -2 18 -5z m-2948 -107 c0
-104 0 -105 32 -138 17 -18 59 -73 92 -123 33 -49 83 -121 111 -160 29 -38 74
-107 102 -153 28 -45 53 -80 56 -77 7 6 -66 126 -138 225 -33 47 -89 128 -124
180 -35 53 -71 102 -80 109 -42 35 -58 128 -36 216 4 17 5 -11 2 -61 l-5 -91
35 -39 c19 -21 64 -81 99 -133 90 -131 91 -133 122 -172 15 -20 27 -39 27 -42
0 -3 20 -34 44 -69 43 -62 96 -161 96 -179 0 -24 -29 -5 -50 34 -37 66 -129
204 -199 297 -35 47 -75 105 -89 130 -14 25 -40 61 -57 80 -47 51 -55 71 -55
143 0 52 8 127 14 127 0 0 1 -47 1 -104z m4015 16 c0 -5 -7 -9 -15 -9 -8 0
-15 4 -15 9 0 4 7 8 15 8 8 0 15 -4 15 -8z m-8981 -158 c10 26 51 -140 51
-202 0 -40 -5 -53 -27 -74 -35 -32 -71 -51 -83 -43 -12 7 -13 35 -2 35 4 0 24
15 46 33 l38 33 -15 79 c-17 87 -29 172 -20 140 5 -19 6 -19 12 -1z m-1045
-180 c10 -25 -1 -29 -14 -5 -6 12 -7 21 -1 21 5 0 12 -7 15 -16z m804 -26 c12
-24 32 -60 44 -80 24 -38 19 -60 -10 -42 -17 11 -64 98 -77 142 -11 39 20 25
43 -20z m4809 -270 c-3 -8 -6 -5 -6 6 -1 11 2 17 5 13 3 -3 4 -12 1 -19z
m-4732 -166 c-9 -48 -27 -132 -40 -187 -26 -111 -53 -281 -58 -365 l-3 -55 -2
60 c-2 56 26 252 48 340 22 85 50 228 49 249 0 20 -52 -195 -85 -359 -9 -43
-20 -129 -24 -190 l-9 -110 4 120 c4 89 14 162 40 280 20 88 45 207 57 265 20
95 23 102 30 72 6 -22 4 -62 -7 -120z m22 126 c-3 -8 -6 -5 -6 6 -1 11 2 17 5
13 3 -3 4 -12 1 -19z"/>
<path d="M5626 6072 c-8 -13 4 -71 15 -78 5 -3 9 10 9 28 0 37 -14 66 -24 50z"/>
<path d="M3650 6243 c-109 -35 -178 -91 -222 -181 -31 -63 -33 -72 -33 -177
l0 -110 45 -90 c50 -101 111 -159 159 -153 l26 3 37 255 c20 140 40 282 43
315 3 33 10 78 15 99 13 61 8 64 -70 39z"/>
<path d="M5082 6215 c37 -35 72 -47 63 -22 -6 16 16 43 40 50 11 2 -16 5 -60
6 l-80 0 37 -34z"/>
<path d="M5140 6090 c8 -5 20 -10 25 -10 6 0 3 5 -5 10 -8 5 -19 10 -25 10 -5
0 -3 -5 5 -10z"/>
<path d="M3557 5225 c-14 -77 -33 -189 -42 -250 -17 -110 -96 -525 -115 -600
-5 -22 -30 -134 -56 -250 -25 -115 -61 -262 -80 -325 -109 -374 -147 -499
-165 -549 -12 -31 -23 -65 -26 -76 -4 -16 -3 -17 6 -5 14 20 59 157 115 350
25 85 59 202 76 259 62 205 213 919 266 1255 14 88 32 194 40 234 8 41 13 79
11 85 -2 7 -15 -51 -30 -128z"/>
<path d="M6226 5339 c-8 -19 -29 -50 -45 -69 -42 -49 -142 -212 -135 -219 15
-16 149 177 189 273 20 48 12 60 -9 15z"/>
<path d="M5290 5266 c0 -4 26 -53 58 -109 99 -172 140 -275 177 -439 19 -85
31 -105 21 -33 -5 33 -4 45 5 45 19 0 183 -38 259 -60 36 -11 88 -22 115 -26
48 -6 52 -5 63 20 17 38 15 50 -10 72 -30 26 -54 36 -243 101 -91 31 -177 55
-200 55 l-41 0 -33 76 c-51 115 -171 325 -171 298z m360 -417 c47 -17 105 -37
130 -44 25 -7 77 -26 115 -42 67 -27 70 -30 73 -64 2 -24 -2 -38 -10 -42 -8
-3 -63 7 -124 23 -60 15 -152 35 -205 46 l-96 18 -16 62 c-10 34 -17 65 -17
68 0 15 73 3 150 -25z"/>
<path d="M5514 4854 c4 -9 11 -35 17 -59 l10 -41 92 -19 c51 -10 141 -31 202
-46 60 -15 113 -25 117 -22 5 2 8 15 8 27 0 26 -28 49 -81 64 -19 6 -86 29
-149 52 -147 53 -170 60 -199 60 -17 0 -22 -4 -17 -16z"/>
<path d="M2908 2827 c-33 -86 -102 -205 -153 -265 -50 -58 -164 -148 -325
-255 -72 -49 -129 -91 -126 -94 8 -8 249 155 344 231 94 76 140 128 192 216
44 74 102 208 98 227 -2 7 -15 -20 -30 -60z"/>
<path d="M3410 1700 c0 -5 5 -10 10 -10 6 0 10 5 10 10 0 6 -4 10 -10 10 -5 0
-10 -4 -10 -10z"/>
<path d="M7110 764 c0 -5 7 -19 15 -30 8 -10 15 -14 15 -8 0 5 -7 19 -15 30
-8 10 -15 14 -15 8z"/>
<path d="M1751 1245 c0 -16 6 -59 14 -95 20 -93 20 -96 -30 -132 -42 -31 -55
-48 -37 -48 5 0 27 16 50 36 38 32 42 40 42 82 0 26 -9 79 -20 117 -12 46 -19
60 -19 40z"/>
<path d="M1480 1086 c17 -45 64 -126 73 -126 4 0 -9 30 -29 68 -43 77 -60 100
-44 58z"/>
<path d="M1582 725 c0 -16 2 -22 5 -12 2 9 2 23 0 30 -3 6 -5 -1 -5 -18z"/>
<path d="M6545 4520 c5 -35 49 -185 66 -228 5 -12 12 -47 15 -77 6 -45 3 -59
-16 -89 -12 -20 -31 -41 -42 -47 -10 -6 -28 -31 -39 -57 -27 -63 -67 -243 -70
-314 -3 -68 11 -65 -180 -44 -145 16 -214 41 -259 93 -17 18 -30 28 -30 20 0
-41 121 -108 237 -132 97 -20 383 -35 481 -26 45 5 95 6 110 4 l27 -3 -25 11
c-14 6 -89 11 -173 11 -89 1 -150 5 -154 12 -17 26 14 273 44 348 9 24 34 60
54 80 37 36 59 88 59 140 0 40 -25 129 -51 179 -12 24 -31 69 -41 99 -13 39
-17 45 -13 20z"/>
<path d="M4743 4400 c0 -25 2 -35 4 -22 2 12 2 32 0 45 -2 12 -4 2 -4 -23z"/>
<path d="M9435 3420 c-38 -4 -135 -10 -215 -14 -140 -5 -310 -23 -320 -33 -3
-3 36 -2 85 1 125 9 474 29 508 29 17 0 24 3 17 7 -9 6 -9 9 1 13 17 7 12 6
-76 -3z"/>
<path d="M8330 1747 c3 -3 77 -20 165 -37 168 -33 294 -37 344 -10 23 12 114
9 176 -5 28 -6 29 -6 11 9 -26 21 -143 21 -210 1 -69 -21 -124 -19 -283 11
-181 34 -209 38 -203 31z"/>
<path d="M10165 1565 c28 -13 57 -24 65 -24 8 0 -12 11 -44 24 -75 31 -87 31
-21 0z"/>
<path d="M10292 1491 c-9 -6 1 -12 33 -20 56 -14 83 -3 34 15 -42 15 -50 16
-67 5z"/>
<path d="M6235 1050 c4 -14 16 -45 28 -70 11 -25 26 -61 34 -80 12 -32 13 -32
7 -5 -5 29 -61 165 -71 175 -3 3 -2 -6 2 -20z"/>
<path d="M3165 908 c-10 -35 -24 -83 -32 -108 -57 -177 -67 -380 -33 -622 23
-158 27 -178 41 -178 12 0 12 -13 -12 174 -33 253 -21 458 41 709 24 96 21
113 -5 25z"/>
<path d="M6341 760 c-1 -3 6 -39 14 -80 35 -170 47 -276 52 -475 5 -157 9
-199 15 -165 16 86 -16 470 -53 635 -11 47 -27 96 -28 85z"/>
</g>
</svg>
