<?xml version="1.0" standalone="no"?>
<!DOCTYPE svg PUBLIC "-//W3C//DTD SVG 20010904//EN"
 "http://www.w3.org/TR/2001/REC-SVG-20010904/DTD/svg10.dtd">
<svg version="1.0" xmlns="http://www.w3.org/2000/svg"
 width="1280.000000pt" height="720.000000pt" viewBox="0 0 1280.000000 720.000000"
 preserveAspectRatio="xMidYMid meet">
<metadata>
Created by potrace 1.16, written by Peter Selinger 2001-2019
</metadata>
<g transform="translate(0.000000,720.000000) scale(0.100000,-0.100000)"
fill="#000000" stroke="none">
<path d="M0 3600 c0 -2969 2 -3600 13 -3600 14 0 63 78 54 86 -18 18 94 226
236 439 44 65 105 170 134 232 31 64 61 113 69 113 8 0 19 9 26 20 7 11 23 20
35 20 31 0 30 15 -8 149 -40 146 -39 155 36 196 53 30 60 37 63 67 1 18 9 80
18 138 8 58 21 155 29 216 16 118 31 164 74 229 15 22 32 49 37 60 32 59 536
173 996 226 106 12 203 26 215 30 12 5 75 88 152 204 72 108 131 198 131 200
0 2 27 61 61 132 98 208 105 223 147 333 65 169 78 207 117 350 20 74 43 155
51 180 19 62 79 357 93 460 7 47 18 123 26 170 55 339 57 375 44 820 -7 228
-13 516 -13 640 1 456 66 771 233 1129 37 80 81 178 96 216 16 39 39 87 52
108 l23 37 -1620 0 -1620 0 0 -3600z"/>
<path d="M3230 7158 c-14 -24 -43 -83 -64 -133 -21 -49 -55 -126 -76 -170 -21
-44 -48 -102 -60 -130 -12 -27 -25 -57 -29 -65 -19 -36 -82 -253 -100 -341
-57 -279 -65 -507 -42 -1249 13 -445 12 -478 -44 -820 -8 -47 -19 -121 -25
-165 -29 -209 -138 -657 -205 -845 -59 -165 -110 -292 -150 -375 -24 -49 -63
-133 -88 -185 -40 -86 -273 -450 -297 -465 -6 -4 -104 -17 -218 -31 -278 -33
-472 -66 -682 -115 -239 -57 -309 -84 -335 -130 -11 -20 -34 -60 -52 -89 -33
-55 -32 -51 -74 -370 -12 -91 -23 -174 -25 -185 -2 -12 -25 -32 -61 -51 -39
-21 -59 -38 -61 -53 -2 -12 10 -71 27 -132 39 -138 40 -159 6 -159 -14 0 -25
-4 -25 -9 0 -5 -16 -18 -35 -30 -19 -11 -35 -26 -35 -34 0 -28 -92 -200 -168
-314 -143 -214 -245 -401 -235 -431 3 -7 -4 -28 -16 -47 l-20 -35 704 0 c388
0 705 2 705 4 0 2 7 41 15 87 19 112 66 427 75 509 l7 65 3 -60 3 -60 7 60 c5
48 7 52 8 21 2 -36 -73 -584 -83 -613 -3 -10 163 -13 812 -13 l816 0 -7 43
c-39 243 -47 474 -21 650 24 162 85 331 110 305 2 -2 -5 -58 -17 -123 -39
-225 -27 -658 23 -837 l10 -38 1584 0 1585 0 0 98 c-1 264 -70 569 -187 824
-24 54 -46 115 -48 135 l-5 38 10 -37 c5 -20 27 -74 48 -120 22 -45 45 -100
51 -120 7 -21 15 -38 18 -38 10 0 -9 55 -53 150 -24 53 -46 112 -49 131 -5 33
-5 32 8 -6 8 -22 24 -59 36 -83 24 -47 69 -164 108 -282 61 -185 102 -426 103
-602 l0 -88 850 0 850 0 0 51 c0 64 -9 81 -79 149 -72 71 -169 197 -216 283
-32 59 -55 78 -55 46 0 -6 5 -7 12 -3 7 5 8 3 3 -6 -4 -7 -2 -16 6 -22 12 -8
11 -9 -1 -6 -23 7 -74 109 -76 153 -5 99 -25 222 -70 413 -33 143 -114 545
-128 640 -1 7 -8 18 -14 24 -17 17 -15 38 3 38 8 0 33 -7 55 -16 22 -9 46 -14
53 -11 8 3 14 -1 14 -9 0 -17 4 -18 -62 7 -31 12 -59 18 -63 15 -3 -4 4 -9 17
-13 17 -4 20 -8 9 -15 -9 -7 -5 -8 14 -5 15 2 25 0 22 -4 -3 -5 -13 -9 -23 -9
-16 0 -15 -11 11 -147 34 -177 80 -401 103 -498 29 -127 53 -249 60 -315 5
-53 14 -76 49 -130 24 -36 51 -81 60 -100 33 -71 191 -276 240 -314 44 -33 66
-82 66 -147 l0 -49 2335 0 2335 0 0 364 0 363 -67 7 c-38 4 -88 10 -113 12
-25 3 -79 11 -120 19 -41 7 -115 21 -165 30 -384 68 -972 216 -1200 302 -208
78 -512 173 -695 216 -201 48 -266 62 -370 78 -41 6 -105 22 -142 36 l-67 24
-148 -27 c-137 -24 -162 -26 -328 -20 -191 6 -325 23 -389 50 -21 9 -73 40
-116 70 -89 63 -126 73 -213 57 -37 -7 -80 -8 -107 -4 -43 8 -41 9 65 25 182
29 215 31 215 14 0 -17 162 -110 216 -125 45 -12 188 -27 389 -41 130 -9 149
-8 274 15 155 29 174 30 204 11 24 -15 105 -31 207 -41 90 -10 256 -46 510
-111 303 -78 907 -228 1020 -252 52 -12 176 -40 275 -62 242 -56 771 -150 841
-150 l24 0 0 1599 0 1599 -67 13 c-114 23 -504 18 -693 -9 -227 -32 -600 -99
-765 -137 -114 -26 -218 -45 -223 -40 -6 6 10 10 88 23 36 6 97 18 135 27 72
16 431 85 545 104 393 66 749 79 953 35 24 -6 27 -3 27 19 0 23 -6 26 -67 38
-102 21 -512 18 -673 -5 -275 -38 -758 -127 -935 -172 -70 -18 -386 -114 -397
-120 -3 -2 -78 -22 -165 -44 -87 -21 -212 -58 -278 -80 -173 -60 -338 -100
-432 -107 -87 -6 -290 13 -310 29 -18 15 -107 36 -181 43 -37 4 -87 14 -112
22 -92 30 -299 53 -480 53 -360 0 -727 -50 -1330 -180 -167 -36 -566 -115
-625 -124 -23 -3 -34 -2 -27 3 11 6 10 10 -4 15 -10 4 -20 4 -21 -1 -2 -4 -28
-6 -59 -4 -31 1 -115 -2 -187 -8 -71 -7 -131 -10 -133 -8 -3 2 3 44 12 93 9
49 17 145 19 214 1 69 8 157 15 197 12 64 16 73 42 84 32 13 58 45 58 69 -1 8
-7 3 -16 -12 -8 -16 -32 -37 -54 -48 -29 -15 -40 -27 -40 -43 0 -13 -12 -61
-26 -108 -31 -101 -49 -203 -59 -326 -4 -55 -12 -97 -20 -103 -9 -8 -26 -6
-61 6 -106 36 -173 75 -223 130 -56 61 -71 58 -18 -3 25 -29 27 -34 8 -21 -35
24 -83 103 -51 83 14 -9 12 6 -6 35 -14 24 -15 24 -11 2 3 -12 1 -20 -4 -16
-14 8 -11 44 4 44 6 0 21 -19 31 -42 11 -23 38 -61 61 -84 45 -44 189 -120
240 -126 l30 -3 7 70 c18 180 31 258 54 326 14 41 28 95 31 121 5 42 10 50 42
65 20 10 46 33 58 52 13 19 23 28 24 20 1 -24 28 44 29 73 0 14 -18 62 -39
105 -117 233 -117 246 -17 353 29 30 64 71 78 90 54 72 129 214 152 285 8 28
29 88 46 135 91 251 119 390 127 630 6 185 -9 484 -34 665 -15 111 -23 135
-97 310 -72 167 -107 234 -176 335 -9 14 -25 42 -35 63 -17 35 -19 37 -67 37
-47 0 -50 -1 -46 -23 3 -16 0 -24 -10 -24 -8 0 -19 11 -25 24 l-10 23 -1576 0
-1576 0 -25 -42z m2223 -182 c18 -7 48 -30 66 -50 19 -20 41 -36 48 -36 7 0
14 -10 17 -22 9 -52 48 -224 53 -238 6 -15 7 -10 28 70 l6 25 -16 -25 c-11
-17 -14 -18 -9 -5 11 28 9 59 -6 145 -15 82 -31 106 -42 62 -5 -16 -5 -10 -2
18 5 48 3 49 -20 5 -14 -27 -16 -28 -16 -7 0 12 5 22 10 22 6 0 10 7 10 15 0
8 7 15 15 15 8 0 15 -9 15 -20 0 -11 6 -20 14 -20 9 0 15 -19 20 -57 4 -31 18
-101 32 -155 14 -54 23 -104 21 -111 -2 -7 -8 10 -12 37 -6 38 -10 45 -17 32
-10 -18 -2 -93 12 -111 4 -5 11 -26 15 -45 9 -41 121 -382 140 -425 7 -16 23
-57 35 -90 13 -33 27 -64 32 -70 4 -5 8 -19 8 -31 0 -12 5 -24 11 -26 8 -3 4
-19 -10 -47 -13 -24 -25 -41 -27 -38 -3 2 5 20 16 40 13 21 17 38 11 41 -10 7
-51 -56 -70 -107 -14 -37 -14 -97 0 -97 7 0 9 10 7 25 -3 14 -1 25 4 25 6 0 7
-20 3 -50 l-7 -50 69 -64 c103 -96 203 -178 203 -167 0 5 -4 13 -10 16 -5 3
-13 19 -17 35 -6 20 -30 45 -83 82 -53 38 -75 61 -75 76 0 11 -4 24 -8 28 -11
11 -8 44 3 44 6 0 10 29 10 68 0 87 15 90 58 10 l31 -59 -20 -20 c-27 -27 -10
-51 30 -43 23 5 29 0 50 -38 13 -24 44 -72 68 -106 32 -47 42 -70 37 -85 -6
-19 -5 -20 9 -9 13 11 19 8 41 -25 14 -21 26 -44 26 -52 0 -8 7 -22 15 -31 20
-22 105 -214 135 -304 27 -81 23 -141 -16 -262 -27 -82 -165 -357 -240 -478
-24 -39 -44 -76 -44 -82 0 -19 -93 -109 -132 -127 -65 -31 -122 -23 -229 32
-52 27 -135 61 -184 75 -90 26 -301 73 -363 82 -19 2 -47 11 -64 20 -33 17
-128 113 -128 129 0 5 18 -10 39 -35 52 -62 109 -99 157 -105 56 -6 254 -51
359 -80 50 -14 134 -48 188 -75 122 -62 166 -65 237 -20 44 28 110 99 110 117
0 5 20 40 44 79 71 114 215 397 241 475 41 120 42 179 5 280 -17 48 -63 151
-103 230 -64 129 -75 144 -95 141 -20 -3 -23 0 -20 21 2 16 -11 45 -38 83 -22
33 -51 78 -64 102 -21 38 -27 42 -51 37 -21 -5 -31 -1 -43 17 -15 21 -15 24 5
39 l22 16 -24 47 c-13 26 -27 50 -31 52 -4 3 -8 -24 -8 -60 0 -42 -4 -66 -12
-69 -10 -3 -8 -9 4 -24 13 -14 15 -22 7 -30 -10 -10 36 -50 124 -107 15 -10
27 -26 27 -35 0 -9 7 -27 16 -39 9 -13 13 -31 9 -43 -5 -16 -4 -19 5 -14 10 6
12 -4 6 -50 -7 -61 -30 -109 -110 -232 -40 -63 -51 -73 -76 -73 -16 0 -31 4
-34 8 -2 4 24 51 59 104 91 136 138 224 131 245 -4 10 -20 28 -37 40 -17 12
-73 59 -125 105 -72 63 -95 91 -100 116 -3 17 -10 32 -15 32 -14 0 -10 74 6
121 9 24 27 61 41 83 l26 38 -27 67 c-16 36 -34 80 -41 96 -14 32 -116 339
-155 467 -16 53 -29 78 -41 81 -11 3 -18 15 -18 29 0 12 -9 57 -20 98 -11 41
-20 87 -20 103 0 19 -7 30 -22 36 -13 5 -36 23 -53 41 -40 43 -76 60 -124 60
-34 0 -44 -6 -74 -40 -18 -22 -42 -41 -53 -42 -10 -1 -46 11 -79 27 -51 25
-75 30 -161 33 l-101 4 -82 -81 c-80 -80 -82 -84 -120 -194 -50 -141 -84 -228
-156 -392 -31 -71 -108 -256 -169 -410 -119 -296 -143 -380 -165 -595 -24
-227 -32 -292 -50 -405 -11 -66 -23 -156 -26 -200 -4 -44 -13 -112 -20 -152
-8 -40 -17 -121 -20 -180 l-7 -108 53 -34 c29 -19 87 -47 128 -63 42 -16 107
-44 146 -62 38 -19 102 -44 142 -57 60 -19 74 -20 87 -10 23 20 19 63 -9 102
-39 53 -65 117 -65 158 0 97 -53 268 -108 349 -39 58 -45 84 -33 148 8 39 20
67 38 86 30 31 95 54 118 41 9 -6 1 -9 -24 -9 -72 -2 -113 -47 -125 -139 -6
-46 -4 -55 28 -103 19 -30 40 -68 46 -85 7 -18 20 -52 30 -78 11 -25 24 -85
30 -135 15 -116 29 -171 47 -186 47 -39 66 -140 31 -162 -21 -13 -151 27 -268
81 -103 48 -109 51 -157 67 -24 8 -66 30 -94 48 l-51 33 6 112 c4 62 13 145
20 185 8 40 17 109 21 153 3 44 15 134 26 200 18 114 26 182 50 410 17 163 54
322 99 430 23 55 52 129 66 165 14 36 28 74 33 85 5 11 23 56 41 100 17 44 38
94 46 110 7 17 27 62 43 100 16 39 53 129 83 200 30 72 70 175 88 229 32 93
39 103 109 175 l75 76 87 3 c93 4 175 -13 236 -48 l33 -19 44 44 c38 39 49 45
85 45 23 0 56 -6 74 -14z m154 -153 c-3 -10 -5 -4 -5 12 0 17 2 24 5 18 2 -7
2 -21 0 -30z m-505 -347 c72 -15 224 -68 277 -95 20 -11 70 -35 111 -53 41
-19 86 -47 100 -61 14 -15 33 -27 43 -27 9 0 17 -7 17 -15 0 -21 -56 -20 -68
1 -6 10 -45 26 -98 40 -49 12 -109 34 -134 48 -135 74 -354 136 -484 136 -68
0 -86 3 -86 14 0 10 16 17 48 21 26 4 52 8 57 11 17 6 149 -6 217 -20z m648 4
c0 -11 -4 -20 -9 -20 -5 0 -7 9 -4 20 3 11 7 20 9 20 2 0 4 -9 4 -20z m-513
-210 c66 -6 145 -20 192 -35 80 -26 106 -40 54 -30 l-28 5 30 -14 c42 -21 25
-19 -43 3 -31 11 -86 22 -122 25 -57 5 -60 4 -21 -4 24 -5 61 -18 81 -29 25
-13 41 -16 48 -9 14 14 49 -26 63 -71 6 -20 17 -50 25 -68 18 -41 9 -193 -12
-193 -13 0 -16 8 -29 65 -19 84 -108 204 -177 238 -18 9 -27 17 -21 17 7 0 27
-9 45 -19 17 -11 35 -18 39 -15 13 8 65 -23 88 -52 23 -29 27 -54 10 -54 -5 0
-7 5 -4 10 7 12 -66 90 -85 90 -6 0 3 -18 22 -41 54 -66 67 -90 90 -164 l22
-70 9 75 c7 60 5 81 -7 108 -9 18 -16 38 -16 44 0 6 -12 31 -26 56 -19 32 -29
41 -35 31 -6 -11 -16 -9 -49 10 -69 38 -190 52 -390 44 -96 -4 -189 -7 -207
-7 -33 0 -40 -15 -13 -28 11 -6 10 -7 -5 -5 -11 2 -19 9 -17 15 2 14 -56 16
-77 3 -10 -6 3 -12 42 -21 31 -6 59 -16 62 -21 4 -5 15 -9 26 -9 11 0 34 -7
51 -16 20 -10 34 -12 40 -6 6 6 16 9 22 7 45 -13 48 -15 37 -28 -12 -15 33
-39 144 -77 33 -11 72 -29 87 -40 16 -12 29 -16 33 -10 4 6 23 0 48 -15 23
-14 77 -44 119 -65 42 -22 80 -44 83 -50 10 -16 -195 91 -230 120 -14 12 -19
7 -16 -13 1 -5 -12 1 -29 13 -17 12 -74 39 -128 60 -53 21 -128 52 -166 69
-91 42 -141 60 -198 73 -53 12 -63 33 -20 42 41 9 157 17 252 18 47 0 74 3 61
7 -41 11 302 4 368 -8 75 -15 92 -9 24 8 -110 28 -308 30 -595 7 l-63 -5 55
10 c30 5 118 13 195 18 77 4 142 9 145 9 3 1 55 -3 117 -8z m-197 -84 c0 -7
-9 -16 -20 -19 -12 -3 -20 -14 -20 -26 0 -24 -17 -27 -44 -6 -11 8 -28 15 -37
15 -10 0 -21 5 -24 10 -9 14 42 2 73 -16 20 -13 22 -13 22 5 0 11 6 22 13 24
6 3 -13 7 -43 8 l-55 2 55 7 c30 4 61 7 68 8 6 1 12 -4 12 -12z m-1455 -29
c20 -16 20 -28 -14 -187 -11 -52 -32 -171 -46 -265 -33 -222 -46 -297 -51
-292 -5 5 63 444 88 562 33 158 33 157 12 172 -26 19 -59 16 -114 -12 -111
-56 -150 -116 -170 -256 -15 -105 -2 -242 31 -318 24 -56 88 -121 119 -121 11
0 20 -4 20 -8 0 -20 -46 -4 -84 30 -53 46 -83 120 -98 238 -13 102 4 251 34
317 47 101 211 184 273 140z m1680 -19 c6 -4 2 -8 -7 -8 -10 0 -18 7 -18 17 0
9 3 12 8 7 4 -5 12 -12 17 -16z m59 -33 c10 -36 6 -79 -9 -99 -13 -17 -13 -22
3 -39 9 -11 48 -35 86 -54 37 -19 66 -37 63 -40 -6 -5 -127 59 -165 88 -26 20
-26 26 1 54 22 24 18 92 -7 111 -23 16 -20 26 3 12 11 -7 22 -21 25 -33z
m-621 28 c-7 -2 -19 -2 -25 0 -7 3 -2 5 12 5 14 0 19 -2 13 -5z m119 -32 c40
-16 111 -47 158 -70 47 -22 107 -46 133 -53 45 -12 66 -38 30 -38 -16 0 -16 2
-3 11 12 8 9 9 -12 5 -31 -7 -98 16 -248 85 -58 26 -130 55 -160 62 -57 15
-56 17 17 26 7 0 45 -12 85 -28z m218 -17 c25 -13 34 -22 20 -18 -35 9 -98 43
-80 43 8 0 35 -11 60 -25z m-394 -180 c-10 -14 -15 -28 -12 -31 3 -3 14 10 25
28 12 19 21 30 21 26 0 -18 -35 -67 -47 -67 -18 0 -16 27 5 55 23 31 29 23 8
-11z m104 11 c0 -38 -27 -95 -45 -95 -27 0 -29 31 -5 77 25 48 50 57 50 18z
m1050 -318 c10 -10 12 -7 6 13 -3 14 -8 52 -11 85 -4 60 -4 60 4 10 5 -27 13
-67 19 -88 10 -36 10 -38 -11 -35 -26 4 -35 33 -35 113 l1 60 7 -73 c3 -40 12
-78 20 -85z m-106 36 c16 -60 17 -83 2 -83 -18 0 -27 27 -24 69 2 34 14 41 22
14z m202 -11 c1 -7 0 -8 -3 -2 -2 5 -9 8 -14 4 -5 -3 -9 0 -9 6 0 15 23 7 26
-8z m-2436 -156 c0 -3 -4 -8 -10 -11 -5 -3 -10 -1 -10 4 0 6 5 11 10 11 6 0
10 -2 10 -4z m-11 -92 c0 16 3 27 6 24 3 -3 -2 -63 -12 -134 -13 -97 -19 -120
-23 -94 -5 32 -7 30 -13 -25 -13 -98 -17 -161 -12 -149 3 7 10 41 15 75 9 64
9 64 5 9 -8 -143 -81 -585 -85 -520 l-2 35 -9 -40 c-4 -22 -8 -51 -7 -65 0
-23 1 -22 8 5 14 56 10 -2 -6 -81 -143 -720 -204 -974 -288 -1205 -39 -108
-115 -281 -116 -261 0 6 11 35 25 64 32 66 32 88 0 28 -31 -58 -32 -44 -1 23
13 29 26 61 30 71 4 10 9 16 12 13 3 -3 0 -15 -6 -27 -6 -11 -10 -26 -8 -32 2
-6 14 15 26 46 25 65 29 97 6 51 -20 -43 -11 -6 31 115 62 177 101 345 234
990 36 176 94 520 116 690 8 69 20 154 25 190 36 253 34 247 41 210 6 -33 6
-33 8 -6z m1773 -272 c114 -202 202 -438 193 -515 -2 -23 -2 -33 1 -22 10 34
21 37 16 5 -3 -18 -10 -30 -19 -30 -13 0 -14 9 -10 43 4 27 1 60 -10 92 -46
144 -94 260 -147 355 -80 144 -116 217 -115 232 0 8 3 8 6 -2 3 -8 42 -79 85
-158z m108 -127 c21 -44 42 -92 48 -107 7 -18 19 -28 32 -28 32 0 226 -48 330
-81 136 -44 187 -98 145 -153 -12 -16 -18 -17 -27 -8 -18 18 -27 14 -21 -9 6
-21 4 -22 -48 -15 -30 4 -81 18 -114 30 -33 13 -94 33 -135 46 -41 12 -80 25
-87 27 -7 3 -13 -9 -16 -34 l-4 -38 -1 43 c-1 23 1 42 6 42 10 1 165 -49 237
-76 70 -26 155 -41 155 -27 0 9 -154 62 -300 103 -41 12 -82 23 -91 26 -15 4
-55 81 -46 90 6 7 177 -32 272 -61 44 -14 88 -25 98 -25 10 0 29 -11 42 -24
13 -13 26 -22 29 -19 2 3 2 -5 -1 -17 -4 -14 1 -28 14 -40 20 -18 21 -18 34 6
30 58 -88 119 -343 179 -59 14 -119 25 -133 25 -15 0 -28 7 -32 18 -21 60 -91
196 -147 286 -91 145 -94 166 -5 31 39 -60 89 -146 109 -190z m-703 -55 c3
-11 13 -20 22 -20 23 0 62 -37 106 -100 21 -30 51 -68 65 -85 46 -51 81 -127
108 -233 17 -68 25 -79 106 -170 l88 -97 -82 84 c-44 46 -83 81 -86 78 -8 -8
135 -155 183 -186 46 -31 85 -43 49 -16 -11 8 -15 15 -9 15 16 0 36 -27 24
-34 -14 -9 -57 10 -99 44 -50 40 -152 155 -157 177 -3 10 -9 34 -15 53 -9 33
-9 33 -4 -10 3 -25 5 -55 5 -68 -1 -13 4 -20 9 -17 6 3 10 1 10 -5 0 -7 -5
-10 -12 -8 -7 3 -18 38 -24 79 -15 91 -44 169 -86 231 -18 27 -60 86 -92 133
-32 47 -67 90 -77 95 -10 6 -41 10 -69 10 -46 0 -56 -4 -87 -35 -31 -31 -34
-38 -31 -87 3 -48 5 -53 26 -50 12 2 22 -1 22 -7 0 -6 -7 -8 -15 -5 -21 8 -19
-9 5 -39 11 -14 40 -74 64 -134 44 -107 63 -219 43 -250 -8 -12 15 -67 32 -77
5 -4 28 -43 51 -89 24 -45 63 -113 89 -152 61 -93 63 -99 68 -180 3 -61 23
-138 79 -317 14 -42 119 -212 162 -260 33 -38 324 -168 376 -168 7 0 21 -7 32
-15 18 -13 -81 14 -159 44 -16 6 -34 11 -40 10 -19 -1 41 -26 121 -50 40 -12
70 -24 68 -26 -5 -5 -111 27 -183 56 -46 18 -53 19 -53 5 0 -9 5 -12 12 -8 7
5 8 3 3 -6 -6 -10 -4 -12 8 -7 15 6 17 -2 18 -56 0 -51 9 -83 48 -177 45 -107
50 -115 92 -138 24 -14 75 -44 114 -69 38 -24 71 -39 73 -33 4 12 22 3 22 -11
0 -14 -22 -11 -62 11 -27 14 -38 16 -41 7 -3 -7 -6 -4 -6 5 -1 10 -19 29 -41
43 -47 29 -58 32 -39 8 13 -16 12 -17 -3 -4 -10 7 -18 9 -18 3 0 -11 46 -44
75 -54 17 -5 17 -6 -5 -7 -31 -1 -88 54 -119 114 -52 104 -101 247 -101 296 0
40 -3 50 -14 46 -9 -4 -16 3 -20 16 -11 41 -8 48 22 42 15 -4 -19 17 -76 44
-81 41 -109 60 -133 94 -74 102 -118 176 -137 232 -52 151 -82 265 -85 325 -5
76 -8 83 -68 175 -26 39 -65 106 -87 151 -22 44 -47 86 -56 93 -20 17 -41 81
-29 90 6 3 6 37 2 81 -7 83 -61 221 -118 303 -50 73 -39 170 23 211 33 21 124
21 154 0 20 -14 58 -63 165 -214 16 -22 41 -75 57 -118 16 -42 29 -69 30 -59
0 35 -61 173 -97 218 -21 26 -59 77 -86 113 -30 44 -59 72 -81 81 -18 8 -36
22 -40 31 -4 10 -13 14 -26 11 -11 -3 -20 -1 -20 4 0 5 12 9 26 9 17 0 28 -6
31 -20z m1850 -157 c-3 -10 -5 -4 -5 12 0 17 2 24 5 18 2 -7 2 -21 0 -30z
m-20 -5 c-3 -7 -5 -2 -5 12 0 14 2 19 5 13 2 -7 2 -19 0 -25z m-15 -77 c5 9 6
4 3 -16 -9 -44 -26 -75 -42 -75 -15 0 -16 5 -4 28 6 9 13 31 17 47 3 17 9 24
11 16 5 -11 7 -11 15 0z m-17 -223 c4 -18 27 -76 51 -129 40 -88 72 -195 54
-184 -4 2 -10 21 -13 42 -2 21 -21 72 -40 114 -20 42 -43 100 -53 128 l-17 52
-42 -88 c-41 -85 -97 -164 -109 -153 -3 3 9 22 27 41 30 32 107 176 107 199 0
25 29 7 35 -22z m-1225 -58 c5 0 6 7 3 17 -4 11 -3 14 5 9 7 -4 12 -14 12 -22
0 -20 -34 -14 -36 6 0 9 1 10 3 3 3 -7 8 -13 13 -13z m-510 3 c0 -10 3 -35 6
-55 5 -30 3 -38 -8 -38 -10 0 -18 14 -22 38 -9 57 -7 72 9 72 8 0 15 -8 15
-17z m70 -23 c0 -11 -7 -20 -15 -20 -8 0 -15 8 -15 18 0 14 2 15 10 2 8 -13
10 -12 10 3 0 9 2 17 5 17 3 0 5 -9 5 -20z m-110 -50 l8 25 1 -27 c1 -19 -4
-28 -14 -28 -11 0 -15 11 -13 43 l1 42 5 -40 c4 -36 6 -38 12 -15z m1590 -60
c-6 -12 -14 -19 -17 -17 -2 3 1 15 7 27 6 12 14 19 17 17 2 -3 -1 -15 -7 -27z
m89 8 c-25 -47 -137 -162 -228 -234 -79 -62 -100 -74 -135 -76 -72 -3 -90 1
-161 36 -38 19 -101 44 -140 56 -137 43 -185 63 -179 72 4 7 9 7 13 1 6 -10
211 -83 231 -83 6 0 48 -18 93 -40 76 -36 87 -39 133 -32 41 7 66 21 139 79
50 40 124 110 165 157 41 47 76 85 78 86 1 0 -3 -10 -9 -22z m-1119 -28 c13
-9 13 -10 0 -9 -8 0 -24 4 -35 9 l-20 9 20 0 c11 0 27 -4 35 -9z m-2 -50 c9
-5 62 -21 116 -35 55 -14 105 -30 112 -36 8 -6 39 -22 71 -35 32 -13 51 -24
43 -24 -9 0 -49 16 -89 35 -41 20 -112 45 -160 57 -47 12 -95 27 -106 35 -22
15 -13 18 13 3z m960 -64 c-7 -8 -15 -12 -17 -11 -5 6 10 25 20 25 5 0 4 -6
-3 -14z m-2093 -278 c-4 -29 -11 -60 -17 -68 -7 -12 -8 -11 -4 5 3 11 8 41 12
68 3 26 8 47 11 47 3 0 2 -24 -2 -52z m725 12 c6 -11 8 -20 6 -20 -3 0 -10 9
-16 20 -6 11 -8 20 -6 20 3 0 10 -9 16 -20z m6320 -2 c0 -4 -10 -8 -22 -8 -36
0 -434 -68 -528 -90 -133 -32 -231 -66 -301 -105 -35 -20 -104 -47 -153 -60
-82 -22 -187 -59 -261 -90 -77 -33 -216 -85 -227 -85 -14 1 5 9 247 102 94 36
195 71 225 78 30 7 94 32 141 56 150 75 289 113 623 168 115 20 210 37 212 39
7 6 44 2 44 -5z m-7000 -133 c41 -18 104 -43 140 -55 36 -12 74 -27 85 -35 12
-7 68 -33 125 -58 95 -40 115 -46 210 -52 150 -9 147 -8 165 -72 9 -30 14 -57
12 -60 -3 -2 -44 8 -93 23 -82 24 -103 27 -313 30 -188 4 -243 1 -326 -14
l-99 -18 -13 -44 c-7 -24 -11 -46 -8 -49 3 -2 60 1 128 8 67 7 201 13 298 14
158 2 175 4 166 18 -5 9 -7 28 -3 42 6 24 11 27 47 27 23 0 55 -7 72 -15 18
-8 66 -25 107 -39 41 -14 66 -25 55 -26 l-20 -1 20 -9 c37 -16 0 -10 -73 11
-70 21 -73 21 -93 3 l-20 -18 23 -9 c13 -5 58 -22 102 -38 113 -41 141 -62
192 -142 25 -40 57 -84 71 -98 24 -26 24 -28 21 -197 l-3 -170 41 -49 c37 -43
50 -51 130 -75 49 -15 129 -42 179 -60 l90 -33 17 -65 c9 -36 17 -68 18 -71 0
-6 -60 -20 -323 -75 -92 -19 -232 -53 -310 -76 -136 -39 -190 -59 -117 -43 33
7 205 38 390 70 47 8 147 28 222 43 75 16 142 26 147 22 9 -5 28 -95 95 -468
16 -86 30 -108 168 -255 67 -72 118 -138 167 -220 40 -65 69 -122 66 -126 -2
-5 -44 -8 -92 -8 -72 0 -112 -6 -222 -37 -73 -21 -141 -41 -150 -46 -9 -5 -63
-25 -121 -46 -194 -69 -561 -252 -684 -342 -27 -20 -55 -37 -62 -38 -8 -1 -18
36 -29 115 -33 226 -81 424 -109 444 -7 6 -6 7 3 5 28 -8 72 -168 106 -386 13
-85 26 -156 29 -159 3 -3 27 10 53 29 196 142 639 341 967 435 97 28 139 35
212 35 l91 1 -42 71 c-84 143 -102 167 -206 278 -58 62 -113 125 -122 139 -10
14 -24 62 -32 105 -8 43 -29 163 -48 265 -19 102 -37 191 -40 196 -4 7 -56 0
-144 -18 -136 -28 -213 -43 -424 -79 -143 -24 -298 -60 -330 -76 -14 -7 -40
-29 -58 -49 -17 -20 -31 -32 -31 -27 0 10 69 76 95 90 19 11 19 11 1 12 -10 0
-41 -22 -67 -49 -27 -26 -49 -43 -49 -36 0 25 79 84 132 99 29 7 127 35 218
60 91 25 230 60 310 76 314 65 331 70 324 94 -4 11 -11 36 -15 55 -4 19 -13
39 -21 46 -10 10 -274 102 -344 120 -6 2 -29 25 -50 50 l-39 48 3 171 c3 164
2 173 -18 191 -12 11 -42 52 -67 92 -56 90 -97 120 -225 163 -54 18 -98 38
-98 45 0 27 38 48 77 41 27 -5 34 -4 23 3 -8 6 -24 11 -35 11 -11 0 -29 7 -39
15 -11 8 -37 15 -57 15 -29 0 -39 -5 -44 -21 -4 -12 -2 -26 4 -32 28 -28 8
-32 -172 -34 -175 -2 -393 -16 -467 -31 -39 -8 -34 4 -90 -232 -55 -235 -67
-270 -139 -420 -47 -97 -45 -94 -32 -86 7 5 8 1 4 -10 -4 -12 -8 -14 -11 -5
-2 7 -28 -30 -57 -81 -110 -195 -218 -331 -683 -859 -24 -27 -40 -49 -35 -49
14 0 370 405 527 600 38 47 73 84 77 82 12 -3 101 136 103 162 3 23 23 66 32
66 2 0 -3 -14 -11 -31 -9 -17 -14 -33 -11 -36 7 -7 44 65 93 182 23 55 42 95
43 89 0 -17 -83 -213 -106 -250 -42 -69 -97 -150 -114 -169 -22 -25 -33 -92
-17 -99 7 -2 4 -5 -5 -5 -15 -1 -17 6 -12 47 l6 47 -19 -26 c-51 -71 -190
-235 -514 -606 -49 -56 -89 -80 -89 -52 0 6 26 39 59 73 32 33 91 99 131 146
39 47 95 112 124 145 140 159 275 329 331 415 66 103 173 301 224 418 27 62
91 295 132 485 10 45 18 61 35 67 22 9 26 16 38 73 6 25 4 28 -14 22 -17 -6
-20 -2 -19 27 0 18 4 58 9 88 5 30 14 99 21 153 l12 98 26 -6 c14 -4 60 -21
101 -40z m1793 -144 c58 -75 125 -115 253 -151 117 -33 168 -36 329 -19 55 6
145 10 200 10 130 0 343 22 553 58 92 16 246 43 342 59 275 47 432 71 615 91
440 50 622 51 969 7 222 -29 240 -30 231 -16 -3 5 -2 10 3 10 16 0 117 -32
127 -40 12 -10 146 -29 218 -32 48 -1 49 -2 12 -6 -50 -5 -226 17 -242 30 -23
19 -101 38 -106 25 -2 -8 -67 -3 -233 17 -371 47 -534 46 -979 -5 -183 -20
-340 -44 -615 -91 -96 -16 -251 -43 -343 -59 -201 -35 -446 -61 -531 -58 -33
2 -142 -3 -240 -11 l-180 -14 -105 27 c-143 37 -220 76 -270 136 -43 51 -72
108 -70 138 0 10 5 2 11 -17 5 -19 28 -59 51 -89z m13 27 c10 -9 46 -32 79
-52 75 -45 66 -47 -17 -4 -65 34 -118 94 -118 132 0 15 6 9 19 -19 10 -22 27
-47 37 -57z m471 67 c0 -8 -4 -15 -9 -15 -4 0 -8 7 -8 15 0 8 4 15 8 15 5 0 9
-7 9 -15z m3710 -117 c-3 -8 -6 -5 -6 6 -1 11 2 17 5 13 3 -3 4 -12 1 -19z
m-352 -33 c-116 -31 -513 -196 -439 -182 30 6 25 -21 -7 -39 -16 -9 -19 -13
-8 -14 16 0 44 18 111 71 34 28 104 57 266 114 54 19 88 28 78 20 -11 -8 -25
-15 -31 -15 -35 0 -272 -103 -318 -138 -59 -46 -133 -82 -162 -80 -11 0 -55
-4 -98 -11 -43 -6 -113 -11 -156 -11 -67 0 -192 -13 -354 -36 -47 -7 -49 -6
-45 16 2 16 12 26 33 32 62 17 187 30 390 39 264 11 276 12 300 28 19 12 19
12 -3 8 -12 -3 -20 -1 -16 4 8 13 -10 11 -27 -3 -7 -7 -5 -4 6 8 38 39 446
203 505 203 15 0 4 -6 -25 -14z m-3642 -35 c7 0 6 -4 -3 -10 -8 -5 -19 -10
-25 -10 -5 0 -4 4 3 9 11 7 11 9 -2 14 -9 4 -16 11 -16 17 0 6 7 4 16 -4 8 -9
21 -16 27 -16z m-57 4 c18 -14 18 -14 -6 -3 -31 14 -36 19 -24 19 6 0 19 -7
30 -16z m79 -24 c-3 -5 -12 -10 -18 -10 -7 0 -6 4 3 10 19 12 23 12 15 0z
m3435 -75 c-14 -8 -32 -14 -40 -14 -8 0 -1 6 15 14 40 18 57 18 25 0z m-200
-44 c0 -6 -4 -12 -8 -15 -5 -3 -9 1 -9 9 0 8 4 15 9 15 4 0 8 -4 8 -9z m-865
-223 c-107 -95 -144 -138 -176 -200 -37 -74 -31 -75 10 -3 31 54 126 155 206
218 22 18 -10 -18 -71 -78 -71 -70 -120 -128 -136 -160 -24 -50 -48 -69 -48
-40 0 20 36 91 67 132 26 34 199 193 211 193 4 0 -25 -28 -63 -62z m-5604
-179 c-9 -22 -10 -22 -10 -3 -1 11 2 24 6 27 12 12 14 0 4 -24z m5409 -184 c0
-33 -4 -45 -15 -45 -11 0 -15 11 -14 43 l2 42 7 -40 7 -40 2 43 c1 56 11 54
11 -3z m-5460 26 c0 -18 -98 -201 -136 -252 -87 -119 -188 -231 -284 -315
-135 -118 -204 -162 -292 -185 -77 -20 -107 -23 -73 -9 18 8 18 9 -5 10 -23 2
-22 3 7 11 44 13 226 122 298 179 147 117 351 364 431 521 13 27 31 49 39 49
8 0 15 -4 15 -9z m5446 -270 c3 -3 3 23 0 59 l-6 65 13 -65 c14 -74 47 -130
120 -207 34 -36 47 -57 40 -64 -14 -14 -127 104 -159 167 -15 32 -27 74 -29
110 l-4 59 9 -59 c5 -32 12 -62 16 -65z m-2780 41 c-4 -3 -14 2 -24 12 -16 18
-16 18 6 6 13 -6 21 -14 18 -18z m164 -24 c44 -38 67 -50 205 -108 55 -23 129
-55 164 -72 35 -16 107 -47 160 -68 53 -21 128 -54 166 -74 39 -20 73 -36 77
-36 3 0 41 -16 85 -36 43 -20 92 -42 108 -49 17 -7 70 -32 118 -54 49 -23 93
-41 98 -41 5 0 20 -6 32 -14 12 -8 83 -30 157 -50 74 -20 144 -41 155 -46 157
-70 310 -107 618 -152 108 -16 157 -27 157 -35 0 -9 -13 -13 -37 -12 l-38 2
35 6 c27 5 -2 12 -125 30 -180 26 -436 76 -463 90 -47 24 -221 85 -333 116
-69 19 -139 41 -155 50 -16 8 -32 15 -36 15 -3 0 -53 23 -111 50 -58 28 -108
50 -113 50 -4 0 -39 15 -78 34 -127 60 -310 143 -351 159 -22 8 -67 27 -100
42 -150 67 -162 73 -265 115 -41 17 -85 38 -98 46 -28 18 -51 8 -25 -12 10 -7
13 -14 7 -14 -6 0 -18 7 -25 17 -12 13 -12 17 -1 21 10 3 8 10 -9 28 -12 13
-26 21 -30 18 -5 -3 -9 0 -9 5 0 19 21 12 60 -21z m-232 4 c2 -7 -3 -12 -12
-12 -9 0 -16 7 -16 16 0 17 22 14 28 -4z m-1745 -406 c151 -18 297 -34 401
-42 78 -7 79 -8 130 -57 66 -63 133 -107 166 -107 14 0 50 16 80 35 30 19 63
35 73 35 48 0 -12 -67 -91 -102 -71 -32 -143 -4 -237 91 -55 57 -63 61 -104
61 -59 0 -270 26 -451 55 -79 13 -146 22 -148 20 -2 -2 -14 -33 -27 -68 -27
-79 -52 -221 -60 -347 -9 -138 -23 -212 -45 -230 -19 -15 -91 -229 -130 -385
-24 -98 -24 -95 -1 -95 11 0 22 -4 25 -8 3 -5 35 -5 73 -1 344 37 546 32 761
-17 206 -47 338 -105 426 -185 73 -66 134 -95 120 -56 -5 17 -56 403 -60 457
l-3 45 8 -45 c5 -25 20 -135 35 -245 14 -110 28 -205 30 -211 3 -6 0 -16 -6
-22 -15 -15 -76 13 -123 57 -92 87 -230 150 -425 195 -218 49 -403 54 -760 18
-66 -7 -130 4 -130 23 1 56 132 472 154 488 20 15 32 82 41 217 9 136 30 256
62 353 25 75 28 79 52 74 142 -28 512 -77 586 -77 48 -1 53 -3 110 -61 56 -57
140 -109 175 -109 21 0 111 53 134 79 28 30 9 25 -54 -14 -32 -21 -67 -35 -85
-35 -44 1 -107 37 -173 101 l-57 56 -120 12 c-66 6 -172 16 -235 22 -113 11
-277 35 -252 38 7 0 67 -5 135 -13z m-2773 -191 c0 -8 -7 -15 -15 -15 -8 0
-15 7 -15 15 0 8 7 15 15 15 8 0 15 -7 15 -15z m2481 -198 c-6 -8 -8 -17 -4
-20 3 -4 1 -7 -5 -7 -13 0 -16 22 -5 33 12 13 25 7 14 -6z m4374 -26 c131 -21
128 -28 -4 -10 -45 6 -84 9 -86 7 -6 -5 171 -55 244 -68 29 -6 74 -10 100 -11
34 0 41 -3 26 -9 -19 -7 -18 -8 5 -14 137 -32 307 -59 410 -65 116 -7 119 -8
41 -10 -46 0 -131 6 -188 15 -58 8 -107 13 -110 11 -8 -9 133 -29 257 -37
l125 -8 -130 3 c-92 2 -168 11 -260 30 -71 15 -132 30 -135 33 -3 2 11 2 30
-2 19 -4 53 -9 75 -11 34 -4 32 -2 -15 10 -30 9 -71 13 -90 10 -33 -4 -172 20
-295 52 -33 8 -96 21 -140 29 -80 13 -80 13 -15 8 36 -3 99 -14 140 -24 122
-31 282 -61 294 -56 6 2 3 5 -6 5 -10 1 -18 5 -18 10 0 4 -27 11 -60 15 -32 4
-85 14 -117 23 -213 57 -227 62 -198 64 l30 1 -30 8 c-53 13 -4 10 120 -9z
m-1085 -218 c0 -14 -2 -15 -9 -5 -7 11 -10 10 -15 -3 -3 -9 -6 -26 -5 -38 1
-20 2 -20 8 3 5 14 6 -16 3 -67 l-5 -92 53 -63 c28 -35 84 -108 123 -164 40
-55 123 -168 185 -250 61 -82 112 -157 112 -166 0 -32 -24 -19 -55 30 -16 26
-77 105 -134 177 -57 71 -131 168 -164 215 -34 47 -80 107 -104 134 -37 41
-43 55 -44 95 -3 110 15 211 37 211 8 0 14 -8 14 -17z m-5002 -370 c6 -21 22
-78 36 -128 15 -49 25 -95 24 -101 -5 -18 -109 -105 -119 -99 -18 12 -8 40 28
77 l37 38 -19 88 c-28 128 -30 162 -12 162 8 0 19 -16 25 -37z m4462 -31 c0
-5 -7 -9 -15 -9 -8 0 -15 4 -15 9 0 4 7 8 15 8 8 0 15 -4 15 -8z m-4710 -160
c0 -11 14 -47 31 -81 17 -34 29 -65 26 -68 -22 -21 -72 59 -84 135 -4 25 -2
32 11 32 9 0 16 -8 16 -18z m-1324 -821 c-9 -16 -20 -32 -26 -36 -5 -3 0 14
13 38 12 24 23 40 25 36 2 -4 -4 -21 -12 -38z"/>
<path d="M6100 5303 c-31 -62 -116 -198 -151 -243 l-27 -36 23 -2 c20 -1 34
13 79 83 72 111 94 154 102 204 4 23 5 41 3 41 -2 0 -15 -21 -29 -47z"/>
<path d="M4847 6480 c-76 -13 -68 -20 24 -20 130 0 373 -70 504 -145 22 -12
74 -31 115 -41 41 -10 84 -26 96 -36 11 -10 29 -18 40 -17 14 0 15 2 4 6 -8 3
-28 17 -44 30 -69 58 -357 182 -480 208 -92 19 -201 26 -259 15z"/>
<path d="M5208 6233 c12 -2 30 -2 40 0 9 3 -1 5 -23 4 -22 0 -30 -2 -17 -4z"/>
<path d="M5438 6213 c7 -3 16 -2 19 1 4 3 -2 6 -13 5 -11 0 -14 -3 -6 -6z"/>
<path d="M4896 6122 c-10 -9 5 -22 24 -22 29 0 33 17 5 22 -13 3 -27 3 -29 0z"/>
<path d="M4790 6091 c41 -15 100 -40 130 -56 62 -32 175 -75 193 -75 6 1 -19
13 -58 29 -38 15 -100 42 -137 59 -93 44 -166 72 -186 72 -9 -1 17 -14 58 -29z"/>
<path d="M4712 5893 c-25 -38 -23 -75 3 -53 14 11 32 76 24 85 -3 2 -15 -12
-27 -32z"/>
<path d="M5680 5609 c0 -13 5 -31 10 -39 7 -11 8 -5 4 20 -8 43 -14 51 -14 19z"/>
<path d="M3425 5287 c-4 -36 -5 -71 -3 -79 3 -7 8 20 12 60 4 41 5 76 3 79 -3
2 -8 -25 -12 -60z"/>
<path d="M3381 4965 c0 -16 -10 -91 -22 -165 -27 -180 -32 -230 -14 -145 22
103 47 293 42 318 -3 17 -5 15 -6 -8z"/>
<path d="M3271 4302 c-108 -540 -172 -813 -231 -991 -16 -52 -29 -96 -26 -98
9 -9 96 283 134 452 22 94 132 625 153 733 6 34 10 64 8 67 -3 2 -20 -71 -38
-163z"/>
<path d="M5412 4772 c18 -42 27 -48 118 -72 47 -12 130 -37 185 -56 55 -18
103 -30 107 -28 10 6 -11 60 -29 76 -8 7 -45 21 -82 31 -115 31 -245 64 -278
70 -32 6 -32 6 -21 -21z"/>
<path d="M5416 2636 c3 -9 11 -16 16 -16 13 0 5 23 -10 28 -7 2 -10 -2 -6 -12z"/>
<path d="M6422 4650 c0 -14 2 -19 5 -12 2 6 2 18 0 25 -3 6 -5 1 -5 -13z"/>
<path d="M4672 4390 c0 -14 4 -36 8 -50 6 -20 8 -21 8 -5 0 11 -4 34 -8 50 -7
27 -8 27 -8 5z"/>
<path d="M3995 3703 c-4 -38 -11 -86 -15 -108 -5 -22 -11 -70 -15 -106 l-7
-67 138 25 c128 22 157 24 364 19 204 -5 232 -7 305 -30 43 -14 80 -24 82 -23
4 5 -22 85 -30 94 -5 4 -66 13 -136 19 -117 10 -137 15 -227 54 -55 23 -106
48 -114 55 -8 7 -40 20 -70 30 -30 10 -101 38 -157 61 -57 24 -105 44 -107 44
-2 0 -7 -30 -11 -67z"/>
<path d="M3997 3403 c-12 -43 -17 -73 -13 -73 7 0 28 81 23 87 -3 2 -7 -4 -10
-14z"/>
<path d="M4805 3370 c11 -5 29 -8 40 -8 16 0 15 2 -5 8 -34 11 -60 11 -35 0z"/>
<path d="M4720 2130 c-20 -6 -21 -8 -5 -8 11 0 34 4 50 8 27 7 27 8 5 8 -14 0
-36 -4 -50 -8z"/>
<path d="M9215 3299 c-22 -4 -101 -8 -175 -9 -144 0 -367 -22 -412 -39 -45
-17 -35 -35 15 -27 116 19 280 36 352 36 44 0 112 5 150 11 39 6 85 12 103 13
18 2 35 6 38 8 10 10 -32 14 -71 7z"/>
<path d="M2811 2769 c-45 -130 -296 -433 -463 -559 -42 -32 -74 -61 -70 -66 4
-4 1 -4 -5 0 -7 4 -22 2 -34 -5 -20 -10 -21 -12 -5 -21 22 -12 49 6 185 125
90 78 176 173 268 292 67 88 163 265 143 265 -4 0 -13 -14 -19 -31z"/>
<path d="M2140 2083 c-62 -34 -63 -35 -25 -28 22 3 60 15 85 26 35 16 41 22
30 29 -19 12 -14 14 -90 -27z"/>
<path d="M8300 2522 c0 -26 49 -97 105 -152 30 -30 55 -50 55 -44 0 5 -23 32
-51 59 -28 28 -64 73 -80 100 -16 28 -29 44 -29 37z"/>
<path d="M6660 1410 c-10 -92 -2 -126 44 -177 23 -26 76 -95 116 -153 41 -58
100 -136 132 -175 33 -38 87 -109 121 -157 33 -48 63 -85 66 -83 6 7 -77 126
-154 220 -36 44 -98 127 -138 183 -39 57 -95 132 -124 166 l-52 62 -3 80 c-2
63 -4 70 -8 34z"/>
<path d="M1670 1150 c0 -10 9 -58 20 -105 27 -114 26 -123 -16 -166 -56 -57
-36 -64 24 -8 l53 49 -11 42 c-19 75 -62 208 -66 208 -2 0 -4 -9 -4 -20z"/>
<path d="M1434 933 c7 -41 45 -123 58 -123 6 0 3 12 -7 26 -9 15 -26 49 -36
78 -14 36 -18 42 -15 19z"/>
<path d="M6426 7185 c4 -8 8 -15 10 -15 2 0 4 7 4 15 0 8 -4 15 -10 15 -5 0
-7 -7 -4 -15z"/>
<path d="M6572 7178 c18 -33 49 -84 92 -151 21 -32 58 -106 82 -165 25 -59 51
-122 59 -139 33 -73 44 -100 54 -133 35 -113 67 -556 58 -805 -9 -255 -36
-375 -165 -736 -58 -164 -133 -294 -231 -402 -102 -111 -102 -116 -15 -293 70
-142 74 -166 39 -248 -20 -48 -35 -68 -60 -82 -30 -16 -34 -24 -49 -98 -9 -50
-13 -104 -10 -141 5 -53 -15 -248 -33 -313 -6 -24 -5 -24 58 -17 137 15 325
21 351 11 26 -10 262 33 638 114 595 129 970 180 1330 180 172 0 382 -22 470
-50 19 -6 78 -17 131 -25 53 -8 116 -22 140 -31 62 -23 190 -43 282 -43 107
-1 244 28 460 99 100 33 238 73 307 90 69 16 172 45 230 64 253 82 328 101
595 156 219 44 483 90 670 115 228 31 573 31 718 -1 l27 -6 0 1536 0 1536
-3120 0 -3120 0 12 -22z"/>
<path d="M8775 1614 c-102 -12 -195 -27 -191 -32 3 -3 39 1 80 8 99 17 130 9
223 -54 43 -29 93 -61 112 -71 52 -26 187 -45 381 -52 163 -6 187 -4 332 21
l157 28 63 -25 c35 -14 97 -30 138 -36 105 -17 169 -30 380 -80 142 -34 424
-118 558 -167 386 -141 870 -268 1327 -349 50 -9 124 -23 165 -30 41 -8 95
-16 120 -19 25 -2 75 -8 113 -12 l67 -7 0 57 c0 53 -1 56 -24 56 -70 0 -599
94 -841 150 -99 22 -223 50 -275 62 -113 24 -717 174 -1020 252 -261 67 -422
102 -515 111 -93 9 -200 32 -224 47 -16 10 -49 7 -173 -15 l-153 -27 -195 15
c-316 24 -349 31 -463 99 -43 25 -83 46 -88 46 -4 0 -6 7 -3 15 4 9 1 14 -7
14 -8 -1 -27 -4 -44 -5z"/>
<path d="M3162 947 c-90 -202 -106 -531 -46 -904 6 -42 7 -43 46 -43 33 0 39
3 34 16 -11 29 -34 176 -47 299 -15 148 -6 406 20 560 10 61 17 111 16 113 -2
2 -12 -17 -23 -41z"/>
<path d="M6270 769 c0 -8 11 -45 24 -84 58 -171 95 -402 96 -587 0 -59 4 -98
10 -98 14 0 12 154 -5 290 -16 132 -43 254 -86 390 -31 96 -39 115 -39 89z"/>
<path d="M7720 633 c1 -5 11 -28 24 -52 15 -29 26 -40 30 -32 5 7 -3 29 -18
52 -25 37 -37 48 -36 32z"/>
<path d="M1541 540 c-2 -30 -52 -368 -66 -449 -14 -76 -14 -117 0 -80 9 28 76
513 72 528 -4 14 -5 14 -6 1z"/>
</g>
</svg>
