<?xml version="1.0" standalone="no"?>
<!DOCTYPE svg PUBLIC "-//W3C//DTD SVG 20010904//EN"
 "http://www.w3.org/TR/2001/REC-SVG-20010904/DTD/svg10.dtd">
<svg version="1.0" xmlns="http://www.w3.org/2000/svg"
 width="1280.000000pt" height="720.000000pt" viewBox="0 0 1280.000000 720.000000"
 preserveAspectRatio="xMidYMid meet">
<metadata>
Created by potrace 1.16, written by Peter Selinger 2001-2019
</metadata>
<g transform="translate(0.000000,720.000000) scale(0.100000,-0.100000)"
fill="#000000" stroke="none">
<path d="M0 3600 l0 -3600 69 0 69 0 43 88 c48 98 50 103 79 187 12 33 25 69
30 80 13 31 60 164 77 220 19 62 43 105 60 105 7 0 13 -8 13 -17 0 -21 31 44
49 102 25 83 54 135 86 154 l32 19 -13 73 c-7 41 -13 102 -13 136 -1 62 -1 62
42 92 23 16 55 43 70 59 l29 30 -11 139 c-7 92 -7 163 -1 213 15 117 61 239
110 292 19 20 81 48 109 48 10 0 84 21 163 47 151 49 361 107 543 149 61 14
168 44 238 67 l129 42 77 110 c80 113 149 245 183 350 18 57 93 335 122 455
88 361 139 620 210 1065 39 247 40 275 17 415 -41 249 -54 389 -76 785 -19
349 -19 707 0 908 24 249 100 586 169 750 l16 37 -1360 0 -1360 0 0 -3600z"/>
<path d="M2724 7183 c-3 -10 -10 -27 -15 -38 -15 -35 -31 -79 -39 -110 -5 -16
-17 -61 -28 -100 -76 -262 -112 -560 -112 -920 0 -450 36 -957 91 -1295 23
-140 22 -168 -17 -415 -71 -445 -122 -704 -210 -1065 -116 -479 -173 -631
-306 -818 l-73 -103 -135 -44 c-74 -24 -184 -54 -245 -68 -89 -19 -111 -27
-114 -43 -2 -10 -8 -22 -15 -26 -16 -11 -48 -10 -41 2 3 5 12 7 19 4 14 -5 32
13 23 22 -8 8 -268 -60 -382 -99 -55 -19 -125 -40 -155 -47 -112 -25 -140 -44
-183 -120 -61 -110 -80 -239 -65 -438 l10 -144 -28 -30 c-16 -16 -48 -43 -71
-59 -42 -29 -43 -31 -42 -87 0 -31 6 -90 13 -131 13 -69 12 -75 -6 -90 -48
-42 -64 -62 -76 -97 -16 -46 -100 -270 -112 -299 -6 -14 -8 -10 -4 15 l5 35
-15 -30 c-14 -26 -15 -26 -10 -5 4 14 12 39 20 55 l13 30 -4 -30 -5 -30 16 34
c11 24 13 41 6 55 -8 20 -10 19 -27 -14 -10 -19 -26 -60 -36 -90 -30 -94 -80
-234 -95 -267 -8 -17 -14 -35 -14 -41 0 -13 -88 -213 -101 -229 -10 -11 88
-13 600 -13 l611 0 5 23 c2 12 14 94 25 182 21 159 67 433 77 448 3 4 8 47 12
95 7 77 8 80 10 29 0 -32 -6 -88 -14 -125 -27 -126 -54 -287 -75 -447 -11 -88
-23 -170 -25 -182 -4 -17 -1 -23 13 -23 16 0 20 19 36 158 10 86 28 215 41
287 29 159 49 348 40 384 -5 20 -4 23 6 14 15 -15 -2 -219 -31 -369 -19 -101
-60 -404 -60 -449 l0 -25 800 0 c568 0 800 3 800 11 0 6 -9 45 -19 87 -50 198
-65 312 -65 492 0 128 4 195 17 250 21 95 55 210 56 190 0 -8 -6 -37 -14 -65
-40 -130 -49 -200 -49 -375 0 -183 6 -230 61 -473 22 -97 30 -117 45 -117 10
0 18 1 18 3 0 1 -5 18 -10 37 -6 19 -27 114 -47 210 -35 166 -37 185 -37 370
0 158 3 211 19 280 11 47 20 106 20 133 0 26 3 47 7 47 11 0 2 -100 -17 -180
-14 -58 -19 -120 -19 -270 -1 -183 1 -205 32 -360 19 -91 40 -189 49 -217 l14
-53 1603 0 1603 0 7 31 c10 50 7 357 -4 449 -15 121 -57 304 -87 375 -39 93
-119 240 -189 346 -63 95 -81 139 -56 145 7 1 8 0 2 -3 -5 -2 -10 -9 -10 -14
0 -6 4 -8 9 -5 21 13 216 -311 274 -454 86 -211 123 -439 115 -716 l-4 -154
840 0 839 0 -7 92 c-3 50 -6 121 -6 159 0 64 -2 70 -51 143 -28 42 -107 135
-175 207 -112 119 -124 135 -124 169 0 20 -11 70 -25 111 -46 133 -97 351 -91
389 6 39 -32 210 -46 210 -5 0 -7 -8 -4 -17 2 -10 8 -42 11 -71 4 -28 10 -50
14 -47 5 2 6 -8 3 -23 -5 -23 -8 -20 -18 27 -23 101 -27 152 -12 149 7 -2 15
-6 18 -9 4 -4 74 -16 335 -57 17 -3 152 -5 300 -6 l270 -2 151 -51 c274 -94
488 -106 869 -48 44 7 220 -35 440 -104 50 -16 106 -32 125 -36 19 -4 78 -20
130 -35 91 -28 227 -61 465 -116 150 -34 195 -45 230 -55 93 -27 345 -79 505
-105 52 -9 187 -19 300 -24 158 -6 246 -15 385 -40 99 -17 205 -35 235 -41 30
-5 116 -12 191 -16 114 -5 145 -3 191 11 31 10 64 16 74 13 15 -4 13 -5 -6 -6
-14 -1 -45 -8 -70 -17 -37 -13 -71 -15 -185 -10 -77 3 -165 10 -195 15 -30 6
-136 24 -235 41 -139 25 -227 34 -385 40 -113 5 -248 15 -300 24 -160 26 -412
78 -505 105 -39 11 -93 24 -235 56 -240 54 -338 79 -445 110 -60 18 -126 36
-145 40 -19 4 -75 20 -125 36 -220 69 -396 111 -440 104 -257 -39 -426 -45
-603 -20 -114 16 -181 34 -327 86 l-90 33 -270 2 c-148 1 -283 3 -300 6 -16 3
-94 15 -173 28 -78 12 -145 21 -147 18 -3 -3 4 -40 15 -84 13 -47 18 -93 15
-114 -6 -38 44 -255 90 -389 14 -41 25 -89 25 -106 0 -27 19 -52 124 -164 68
-72 147 -165 175 -207 50 -74 51 -78 51 -148 0 -40 3 -114 6 -164 l7 -92 2378
0 2379 0 0 2089 0 2088 -37 -8 c-262 -55 -332 -75 -518 -149 -181 -71 -232
-88 -295 -95 -30 -4 -70 -10 -87 -15 -18 -5 -33 -5 -33 0 0 4 39 13 88 20 78
10 139 26 197 51 11 4 52 20 90 34 39 15 95 37 125 50 76 33 248 78 430 113
26 6 36 13 38 30 2 14 -2 22 -12 22 -13 0 -111 -22 -296 -66 -60 -15 -137 -41
-185 -64 -11 -5 -54 -23 -95 -39 -42 -16 -111 -47 -155 -69 -56 -28 -104 -43
-160 -52 -44 -7 -84 -15 -90 -20 -5 -4 -91 -10 -190 -14 -378 -14 -794 -83
-1210 -198 -99 -28 -198 -54 -220 -58 -235 -48 -579 -152 -700 -213 -38 -19
-92 -45 -120 -57 -75 -34 -307 -145 -415 -200 -52 -26 -151 -66 -220 -88 -199
-65 -318 -102 -327 -102 -20 1 73 34 201 71 77 22 145 44 150 48 6 5 24 11 39
15 16 4 117 50 225 103 108 52 233 112 277 133 44 20 120 56 169 80 142 68
481 171 721 220 22 4 121 30 220 58 409 113 800 178 1220 201 202 12 327 35
415 79 111 56 382 160 471 180 46 11 130 31 186 44 l103 23 0 1478 0 1477
-3270 0 c-1798 0 -3270 -2 -3270 -4 0 -2 20 -46 44 -97 56 -118 122 -342 141
-478 16 -115 19 -334 5 -421 -5 -30 -16 -106 -25 -169 -30 -229 -65 -361 -130
-496 l-44 -90 -10 -200 c-6 -110 -15 -346 -21 -525 -5 -179 -12 -347 -15 -375
-11 -107 -9 -810 3 -831 11 -20 20 -21 234 -26 156 -4 236 -2 268 7 25 7 127
22 226 34 98 12 253 33 344 47 91 14 219 29 285 34 216 16 488 30 582 30 101
0 348 -33 518 -70 28 -5 64 -13 80 -16 59 -12 186 -54 233 -78 26 -13 84 -31
129 -41 82 -18 143 -15 293 11 22 4 22 3 5 -4 -11 -5 -65 -15 -120 -22 -94
-12 -108 -11 -193 8 -51 12 -111 31 -134 43 -54 28 -139 57 -203 71 -27 5 -70
14 -95 20 -167 35 -414 68 -513 68 -94 0 -366 -14 -582 -30 -66 -5 -194 -20
-285 -34 -91 -14 -246 -35 -344 -47 -99 -12 -201 -27 -226 -34 -59 -16 -497
-8 -507 9 -22 34 -19 524 6 1246 19 516 31 712 48 745 49 95 64 130 87 201 31
97 51 195 71 345 9 63 20 139 25 169 14 87 11 306 -5 421 -19 139 -84 356
-142 478 l-48 100 -1758 0 c-1665 1 -1758 0 -1763 -16z m1658 -243 c55 -27
107 -50 115 -50 23 0 74 56 67 74 -8 22 22 31 41 13 9 -10 15 -34 15 -64 1
-129 114 -457 253 -728 l51 -100 -3 -112 c-3 -144 5 -160 91 -192 34 -13 83
-28 107 -35 l43 -11 -7 -110 c-3 -60 -16 -150 -27 -200 -32 -143 -30 -148 11
-25 21 63 46 133 56 155 10 22 21 60 25 85 l7 45 2 -43 c1 -28 -8 -60 -24 -92
-14 -27 -32 -73 -39 -102 -12 -44 -38 -125 -61 -187 -4 -10 -9 -11 -16 -4 -6
6 -1 42 16 109 24 91 44 240 45 324 0 33 -3 36 -53 52 -142 45 -165 57 -177
94 -7 19 -10 79 -9 137 l3 102 -46 90 c-130 252 -257 619 -258 743 0 25 -6 50
-15 58 -8 9 -15 13 -15 10 0 -3 0 -8 0 -11 1 -19 -35 -68 -57 -76 -32 -12 -71
0 -175 54 -42 22 -83 37 -91 34 -7 -3 -29 -35 -48 -71 -35 -68 -65 -86 -71
-43 -3 21 -8 22 -88 23 -47 0 -91 4 -98 8 -7 4 -21 1 -33 -7 -11 -8 -29 -13
-39 -10 -28 7 -65 -66 -105 -207 -20 -67 -37 -126 -40 -129 -8 -15 -44 -159
-59 -241 -30 -167 -46 -312 -62 -567 -16 -256 -14 -371 11 -792 6 -88 63 -287
88 -303 9 -6 8 -8 -3 -8 -13 0 -13 -1 0 -10 11 -7 11 -10 2 -10 -7 0 -32 20
-54 45 -22 25 -61 57 -86 71 -43 25 -46 26 -77 11 -27 -13 -32 -20 -28 -41 3
-14 1 -26 -5 -26 -6 0 -8 10 -5 23 4 22 4 22 -12 2 -20 -25 -14 -65 17 -107
35 -50 68 -140 68 -189 0 -25 7 -54 15 -65 8 -10 15 -26 15 -34 0 -20 231
-212 323 -269 21 -13 54 -44 75 -70 20 -26 63 -79 94 -117 32 -38 89 -125 128
-193 67 -116 138 -215 169 -235 7 -4 22 -17 32 -27 11 -11 28 -19 39 -19 11 0
20 -7 20 -15 0 -17 -21 -20 -37 -4 -7 7 -13 7 -17 0 -7 -11 169 -100 261 -130
121 -40 173 -68 173 -92 0 -20 -4 -21 -45 -16 -48 7 -65 -4 -44 -29 6 -8 64
-51 128 -96 64 -45 133 -96 153 -114 47 -42 117 -88 123 -82 3 3 -12 16 -32
30 -21 14 -94 74 -163 133 -68 59 -138 116 -155 127 -27 17 -27 19 -5 13 28
-8 63 -36 195 -151 101 -88 170 -144 179 -144 3 0 31 -20 62 -46 62 -50 110
-82 194 -127 30 -17 84 -49 120 -72 36 -22 108 -58 160 -79 99 -40 335 -156
380 -186 34 -23 131 -79 210 -122 94 -51 121 -67 197 -119 37 -26 109 -68 158
-94 50 -26 138 -74 196 -106 110 -60 329 -161 435 -199 180 -66 289 -100 336
-106 29 -4 66 -13 82 -22 96 -48 211 -63 481 -61 259 1 275 -1 467 -65 158
-53 354 -72 563 -54 249 20 388 15 531 -21 65 -16 139 -36 164 -45 58 -19 360
-86 565 -125 164 -31 354 -71 460 -96 79 -19 342 -70 430 -84 39 -6 167 -26
285 -46 118 -19 265 -41 325 -50 61 -8 153 -22 205 -30 52 -8 176 -20 275 -25
99 -6 209 -15 245 -20 l65 -9 -75 5 c-41 2 -151 9 -245 14 -93 5 -213 17 -265
25 -52 8 -144 22 -205 30 -60 9 -207 31 -325 50 -118 20 -246 40 -285 46 -88
14 -351 65 -430 84 -106 25 -296 65 -460 96 -225 42 -506 106 -596 134 -224
70 -361 82 -664 57 -163 -14 -232 -12 -387 13 -101 16 -160 30 -208 50 -19 8
-71 24 -115 36 -72 19 -103 21 -320 20 -258 -2 -384 13 -478 57 -23 11 -64 23
-91 27 -79 11 -374 115 -550 195 -122 55 -139 63 -226 110 -47 26 -125 68
-175 95 -119 63 -150 82 -210 125 -27 20 -90 58 -140 85 -49 26 -134 74 -187
107 -138 84 -313 171 -471 234 -32 13 -97 47 -145 77 -48 29 -123 75 -166 101
-44 26 -101 66 -128 89 -26 22 -50 38 -53 35 -3 -3 16 -23 42 -45 47 -39 94
-69 260 -168 45 -27 80 -51 78 -54 -7 -6 -296 168 -330 199 -16 15 -70 56
-118 91 -48 35 -147 107 -220 159 -91 66 -137 106 -148 129 -11 24 -28 38 -65
53 -49 19 -158 69 -244 111 -37 19 -60 22 -150 21 -96 0 -332 -31 -422 -55
-25 -6 -38 -16 -38 -27 0 -9 -5 -80 -10 -157 -12 -159 -25 -231 -46 -239 -8
-3 -14 -1 -14 4 0 6 4 10 10 10 16 0 28 69 39 222 6 81 11 155 11 166 0 24 29
32 225 63 80 13 187 23 250 23 119 1 102 6 265 -75 30 -15 82 -37 115 -49 33
-12 65 -27 70 -34 15 -16 108 -20 103 -4 -6 17 -81 53 -173 83 -139 45 -305
134 -305 163 0 6 5 12 11 12 5 0 8 -4 5 -8 -2 -4 4 -13 14 -20 30 -18 33 4 5
27 -14 11 -29 21 -33 23 -27 12 -202 275 -202 305 0 7 -30 46 -168 217 -29 36
-70 75 -90 88 -81 50 -322 247 -322 264 0 6 -7 25 -15 40 -8 16 -15 50 -15 76
0 38 -11 68 -50 143 -53 102 -59 128 -35 162 22 31 79 56 107 47 40 -12 94
-51 126 -89 l30 -37 -38 112 c-42 123 -43 131 -60 500 -22 475 36 1051 133
1326 8 22 27 85 42 140 35 131 66 184 106 184 16 0 32 6 35 14 6 15 21 16 44
1 8 -5 45 -8 82 -6 82 3 108 -4 108 -30 0 -30 15 -22 34 19 29 62 60 102 79
102 10 0 64 -22 119 -50z m161 13 c-7 -2 -13 -12 -13 -20 0 -9 -3 -14 -6 -10
-10 10 4 37 18 36 10 0 10 -2 1 -6z m44 -35 c-3 -8 -6 -5 -6 6 -1 11 2 17 5
13 3 -3 4 -12 1 -19z m73 -75 c0 -13 -3 -23 -7 -23 -5 0 -8 16 -9 35 0 22 3
31 8 23 4 -7 8 -23 8 -35z m-324 -388 c96 -17 203 -47 246 -71 14 -8 51 -14
82 -14 42 0 56 -4 56 -15 0 -18 -57 -29 -107 -21 -21 4 -48 8 -60 9 -11 1 -19
6 -15 11 3 5 0 6 -6 2 -7 -4 -12 -2 -12 4 0 11 41 5 72 -11 21 -11 76 -10 103
1 14 6 3 9 -40 9 -33 1 -69 7 -80 15 -31 20 -143 54 -240 71 -105 18 -345 19
-427 2 -52 -11 -41 -12 130 -12 106 0 220 -6 262 -13 93 -16 188 -48 216 -73
11 -11 24 -16 29 -12 4 5 5 0 2 -9 -4 -10 -2 -18 3 -18 6 0 10 -5 10 -12 0 -7
-17 4 -37 23 -36 33 -50 42 -114 67 -58 23 -192 37 -364 37 -151 0 -185 -3
-214 -18 -42 -21 -51 -21 -51 -2 0 54 351 85 556 50z m-1 -66 c4 -6 13 -8 19
-6 7 3 18 2 25 -2 7 -5 -17 -11 -55 -15 -36 -4 -69 -4 -72 -1 -3 3 8 5 24 5
16 0 36 5 44 11 16 11 -12 8 -105 -13 -72 -16 -32 -27 75 -21 95 5 163 -12
233 -60 21 -14 50 -31 66 -38 56 -25 92 -119 48 -127 -12 -2 -22 7 -31 30 -32
75 -85 98 -223 97 -70 -1 -96 -4 -73 -8 70 -14 128 -74 137 -141 l5 -38 91 2
c57 1 91 -3 94 -10 5 -14 -145 -29 -305 -29 -67 0 -122 -3 -122 -7 0 -9 -351
-11 -374 -2 -25 10 -19 34 9 34 44 0 27 17 -24 24 -74 10 -71 27 15 82 41 27
74 52 74 57 0 4 28 21 63 37 34 16 57 29 51 30 -18 0 -83 -25 -153 -59 -73
-35 -81 -37 -81 -17 0 35 401 183 527 195 6 1 15 -4 18 -10z m-98 -35 c-3 -3
-12 -4 -19 -1 -8 3 -5 6 6 6 11 1 17 -2 13 -5z m340 -66 c-3 -8 -6 -5 -6 6 -1
11 2 17 5 13 3 -3 4 -12 1 -19z m-1678 -230 c3 5 4 -49 2 -121 -3 -118 10
-336 25 -439 5 -33 3 -38 -14 -38 -50 0 -108 89 -148 226 -22 78 -14 164 25
247 35 75 94 152 100 129 2 -9 6 -11 10 -4z m2085 -58 c14 -22 26 -46 26 -54
0 -8 25 -46 54 -84 30 -39 49 -69 41 -66 -19 8 -105 124 -105 142 0 8 -8 26
-19 40 -10 15 -21 34 -24 42 -3 8 -6 -26 -6 -76 -1 -106 2 -110 92 -138 32
-10 57 -19 55 -21 -6 -6 -130 34 -145 47 -15 12 -19 208 -4 208 4 0 20 -18 35
-40z m-1817 -592 c-9 -360 -33 -976 -46 -1138 -24 -299 -87 -842 -101 -875
-20 -44 -40 -117 -40 -143 0 -36 -42 -268 -74 -412 -59 -261 -164 -546 -231
-625 -16 -19 -23 -23 -18 -11 4 13 3 17 -5 12 -6 -3 7 33 30 81 109 237 188
536 270 1026 23 136 45 247 49 247 4 0 4 -15 -1 -32 -13 -53 -21 -136 -11
-113 9 18 10 17 10 -8 1 -18 5 -26 12 -21 7 4 9 30 6 73 -4 49 -3 57 3 31 7
-28 8 -23 4 25 -4 55 12 245 51 610 19 181 60 993 67 1335 2 80 3 72 8 -55 6
-149 6 -149 6 60 1 116 -2 188 -6 160 l-7 -50 -1 53 c-2 42 1 52 15 52 15 0
16 -24 10 -282z m2784 273 c18 -2 17 -65 -1 -110 -10 -27 -26 -78 -36 -113
-22 -84 -64 -360 -64 -422 0 -42 -7 -58 -47 -115 -26 -36 -71 -102 -100 -146
-28 -44 -60 -91 -70 -104 -57 -78 -101 -165 -107 -212 -4 -28 -9 -49 -12 -46
-3 3 -1 31 5 62 10 52 54 139 104 205 10 14 42 61 70 105 29 44 74 110 100
146 38 54 47 74 47 108 0 115 68 466 106 549 18 39 13 49 -29 57 -24 5 -46 -1
-92 -26 -33 -17 -66 -36 -73 -42 -8 -6 -39 -61 -69 -121 -48 -95 -97 -235
-142 -404 -7 -23 -26 -59 -44 -79 -48 -54 -336 -305 -382 -332 -22 -13 -85
-39 -140 -58 -55 -18 -109 -38 -120 -42 -11 -5 -54 -21 -95 -34 -87 -30 -145
-52 -180 -71 -91 -49 -255 -77 -435 -74 -86 1 -110 3 -62 5 42 2 77 8 77 13 0
6 -3 9 -7 8 -5 -1 -25 4 -46 11 -21 7 -45 10 -54 7 -9 -4 -39 4 -67 18 -28 13
-85 38 -126 56 -41 18 -81 39 -87 48 -21 27 -15 42 16 42 21 0 35 -8 49 -28
13 -17 46 -38 88 -55 37 -16 77 -35 88 -44 21 -15 21 -15 -4 -8 -17 5 -22 4
-15 -3 14 -14 59 -27 51 -14 -3 5 30 0 73 -11 l78 -21 138 23 c116 19 165 33
303 87 91 36 224 86 296 111 155 54 177 66 281 158 111 99 124 111 190 185 89
101 115 144 135 228 11 42 28 104 39 136 12 33 21 60 21 61 0 1 -24 19 -52 39
-29 20 -71 50 -93 67 -22 16 -52 38 -66 47 -42 28 -149 128 -149 140 0 6 30
-17 66 -51 36 -34 77 -69 92 -79 15 -9 45 -31 67 -47 22 -17 64 -47 93 -67 28
-20 52 -41 52 -45 0 -5 -13 -48 -29 -96 -16 -49 -34 -113 -40 -143 -8 -40 -25
-73 -60 -120 -56 -74 -57 -99 -1 -45 34 33 42 53 86 202 33 113 68 205 109
287 l60 121 70 38 c59 32 76 37 108 32 29 -4 38 -2 34 7 -2 7 -14 12 -27 10
-13 -2 -20 1 -16 6 3 6 14 9 24 7 9 -2 20 -4 23 -4z m59 -140 c0 -10 -7 -21
-15 -25 -11 -4 -15 1 -15 19 0 16 6 25 15 25 8 0 15 -9 15 -19z m198 -198 c-5
-25 -28 -28 -28 -4 0 12 6 21 16 21 9 0 14 -7 12 -17z m-238 -43 c0 -10 -7
-20 -15 -24 -11 -4 -15 2 -15 24 0 22 4 28 15 24 8 -4 15 -14 15 -24z m146
-77 c-52 -104 -143 -173 -168 -128 -15 25 -28 1 -28 -51 0 -23 -11 -62 -26
-92 -20 -41 -31 -52 -50 -52 -19 0 -33 -17 -78 -92 -30 -51 -69 -122 -87 -158
-18 -36 -49 -90 -69 -120 -20 -30 -45 -70 -54 -88 -10 -19 -20 -32 -22 -29 -7
7 21 60 66 127 21 30 52 84 70 120 18 36 57 107 87 158 44 74 59 92 78 92 28
0 65 56 72 110 11 88 14 100 29 100 8 0 17 -7 20 -15 9 -24 28 -18 75 24 28
24 57 64 79 110 19 40 36 68 38 63 2 -6 -13 -41 -32 -79z m45 39 c-14 -26 -35
-121 -66 -297 -14 -82 -32 -172 -40 -200 -8 -27 -19 -104 -25 -170 -6 -66 -15
-147 -20 -180 -19 -128 -49 -410 -81 -750 -6 -66 -13 -123 -15 -127 -14 -22
-66 -4 -162 55 -35 22 -65 37 -68 34 -9 -9 158 -107 182 -107 12 0 41 -7 65
-15 24 -9 88 -27 142 -40 55 -13 107 -31 116 -39 22 -20 35 -20 52 0 12 15 35
16 209 10 168 -7 205 -5 265 10 39 9 72 21 75 25 3 4 106 17 230 28 124 12
257 29 295 37 85 18 752 37 860 24 133 -17 485 -84 600 -116 33 -9 76 -20 95
-25 19 -4 61 -15 93 -24 38 -11 62 -13 70 -7 7 6 32 8 57 6 39 -4 84 0 265 21
22 2 11 -2 -25 -10 -36 -8 -112 -16 -170 -19 -58 -2 -112 -7 -120 -10 -16 -7
-73 4 -155 28 -140 41 -333 83 -555 122 -167 29 -230 32 -585 24 -255 -7 -380
-13 -430 -24 -38 -8 -169 -25 -290 -36 -121 -12 -222 -24 -225 -28 -3 -4 -40
-16 -82 -26 -67 -15 -103 -17 -273 -10 -175 6 -195 5 -201 -10 -8 -22 -47 -20
-68 3 -10 10 -32 21 -49 24 -51 8 -159 36 -200 52 -20 8 -47 15 -60 15 -12 0
-45 12 -72 27 -69 36 -150 93 -134 93 11 0 11 3 -1 10 -34 23 47 -4 85 -29
100 -63 147 -82 159 -63 3 5 10 60 16 123 32 351 61 617 80 744 5 33 14 114
20 180 6 66 17 143 25 170 7 28 23 104 35 170 39 229 78 385 88 356 2 -5 -1
-18 -7 -29z m-1024 -182 c23 -13 34 -29 38 -54 8 -43 1 -56 -31 -56 -24 0 -34
23 -14 35 6 4 8 16 5 28 -5 20 -4 20 7 -1 9 -19 9 -25 -2 -32 -18 -11 -6 -24
15 -17 25 10 17 47 -17 79 -31 29 -35 30 -98 23 -147 -14 -263 -40 -388 -86
-29 -10 -61 -19 -71 -19 -33 0 -121 -42 -121 -58 0 -12 8 -13 38 -8 94 18 204
25 412 27 191 1 214 3 150 11 -70 8 -368 5 -470 -6 -25 -3 -11 1 30 9 136 25
520 16 520 -11 0 -11 -42 -14 -222 -14 -123 0 -263 -5 -313 -11 -139 -17 -157
-17 -161 4 -3 21 56 52 118 63 18 3 67 17 108 31 102 34 162 49 250 62 41 6
86 13 100 15 58 8 87 5 117 -14z m-357 -1 c0 -5 -4 -8 -9 -5 -5 4 -12 0 -14
-6 -3 -8 -6 -6 -6 5 -1 9 6 17 14 17 8 0 15 -5 15 -11z m324 -35 c4 -15 5 -28
3 -31 -3 -2 -8 8 -11 23 l-7 27 -82 -7 c-92 -8 -175 -25 -290 -61 -91 -29
-128 -33 -47 -5 142 49 274 76 376 79 48 1 52 -1 58 -25z m-497 -80 c-3 -3
-12 -4 -19 -1 -8 3 -5 6 6 6 11 1 17 -2 13 -5z m-542 -574 c4 -6 -7 -10 -27
-9 -31 1 -32 1 -8 9 14 4 26 8 27 9 1 1 5 -3 8 -9z m7731 -511 c-37 -4 -143
-13 -235 -19 -91 -6 -206 -15 -256 -21 -209 -23 -646 -97 -765 -129 -19 -5
-54 -14 -77 -20 -24 -6 -43 -17 -43 -24 0 -8 -12 -16 -27 -19 -47 -8 -492
-126 -618 -163 -129 -38 -221 -74 -380 -149 -55 -26 -116 -53 -135 -61 -99
-37 -156 -65 -184 -89 -39 -35 -80 -52 -253 -109 -143 -48 -296 -88 -373 -100
-78 -12 -38 2 66 23 110 23 387 109 471 147 29 13 62 33 73 44 12 12 65 39
118 62 53 22 126 54 162 71 36 16 94 43 130 59 36 16 74 33 85 38 49 22 174
62 325 103 142 40 477 127 486 127 1 0 4 7 6 17 2 12 27 21 88 35 475 103 756
146 1110 168 96 6 180 13 185 15 6 2 33 3 60 3 46 -1 44 -1 -19 -9z m-7636
-271 c29 -57 70 -126 92 -155 21 -29 38 -56 38 -61 0 -5 -57 -13 -127 -17
-108 -6 -211 -21 -354 -51 l-26 -6 -6 154 c-4 84 -4 163 -1 175 5 18 18 24 72
33 37 6 87 15 112 20 25 4 68 8 96 9 l51 1 53 -102z m4315 -37 c31 -6 21 -8
-46 -7 -48 1 -82 4 -75 8 14 10 69 9 121 -1z m44 -27 c8 -7 -64 -3 -104 6 -31
7 -24 7 30 3 39 -3 72 -7 74 -9z m-2507 -30 c35 -9 70 -21 78 -26 13 -8 12 -9
-2 -4 -9 3 -32 8 -52 11 -41 8 -116 34 -99 35 6 0 40 -7 75 -16z m2798 -10 c0
-2 -7 -4 -15 -4 -8 0 -15 4 -15 10 0 5 7 7 15 4 8 -4 15 -8 15 -10z m470 -249
c0 -10 -45 -23 -55 -17 -5 4 4 10 20 13 17 4 31 7 33 8 1 0 2 -1 2 -4z m-5617
-521 c-26 -36 -60 -83 -75 -104 -14 -21 -53 -73 -87 -116 -33 -44 -69 -90 -80
-105 -11 -14 -30 -52 -44 -86 l-25 -61 62 -6 c93 -9 445 -26 591 -29 72 -1
119 -4 105 -6 l-25 -4 25 -8 c18 -6 14 -7 -15 -3 -30 3 -36 2 -25 -6 11 -8
-12 -9 -85 -5 -55 3 -194 10 -310 15 -115 6 -238 13 -272 16 l-62 6 -6 -38
c-4 -22 -20 -95 -37 -164 -17 -69 -36 -156 -43 -195 -60 -320 -67 -354 -118
-555 -19 -74 -34 -136 -33 -137 1 -1 20 6 42 17 91 45 359 85 515 77 145 -6
445 -71 529 -114 14 -7 30 -13 37 -13 7 0 60 -23 119 -50 59 -28 108 -49 110
-47 2 2 -9 93 -25 203 -16 109 -30 192 -31 184 -1 -10 -3 -11 -7 -3 -2 7 3 20
12 29 13 13 16 14 15 3 -1 -8 -1 -32 0 -54 l3 -40 7 50 c5 37 7 42 8 18 2 -40
38 -288 54 -366 15 -82 30 -86 117 -37 39 22 73 40 76 40 3 0 40 16 82 36 376
174 737 291 1005 325 l97 12 -35 46 c-99 129 -214 295 -223 324 -6 18 -20 115
-31 216 -11 102 -26 191 -32 198 -14 18 -23 219 -11 251 5 14 7 -16 5 -80 -3
-76 0 -115 12 -148 9 -25 25 -128 36 -229 15 -128 27 -195 40 -220 17 -33 131
-194 214 -303 20 -25 36 -50 36 -55 0 -5 -46 -15 -102 -22 -293 -36 -706 -175
-1100 -371 -87 -43 -145 -66 -158 -63 -25 7 -34 41 -65 236 -12 84 -23 139
-24 122 0 -16 8 -88 19 -160 23 -156 23 -155 6 -155 -7 0 -60 22 -117 49 -293
137 -640 205 -878 172 -139 -20 -267 -49 -315 -73 -25 -12 -48 -20 -50 -17 -3
3 11 68 30 144 52 207 59 239 119 560 7 39 27 126 43 195 17 69 34 145 37 168
l7 44 77 -7 c112 -9 635 -34 639 -30 7 7 -85 14 -243 20 -195 7 -458 24 -464
30 -2 3 1 15 7 28 7 12 19 41 27 65 8 24 24 55 35 70 184 239 284 377 289 400
4 16 5 16 8 0 3 -10 -17 -47 -44 -84z m4427 -43 c0 -5 -37 -37 -82 -72 -45
-35 -104 -86 -132 -115 -69 -70 -134 -185 -146 -260 l-9 -59 4 64 c6 78 -5 74
-15 -6 -7 -53 -7 -54 -9 -16 -4 125 109 286 302 432 62 46 87 55 87 32z
m-2585 -201 c-22 -10 -50 -19 -61 -19 -12 -1 -40 -7 -62 -15 -51 -18 -124 -32
-267 -51 -60 -8 -141 -24 -180 -35 -131 -38 -170 -48 -217 -55 -27 -4 -86 -29
-141 -59 -52 -29 -114 -60 -138 -69 -61 -23 -153 -22 -208 3 -24 11 -53 20
-65 19 -19 -1 -19 -1 4 -9 14 -4 47 -17 73 -29 96 -42 177 -26 338 66 52 30
95 47 140 54 35 6 104 23 154 39 49 16 128 36 175 44 47 8 139 25 205 37 125
22 201 40 248 58 15 6 27 8 27 6 0 -15 -114 -46 -275 -74 -66 -12 -158 -29
-205 -37 -47 -8 -124 -28 -172 -44 -48 -16 -109 -32 -135 -35 -61 -8 -96 -22
-158 -61 -79 -49 -176 -84 -237 -84 -54 0 -205 50 -201 67 4 17 45 14 86 -6
53 -26 145 -27 202 -3 22 9 79 39 127 65 58 32 110 52 160 62 40 8 120 28 177
45 57 16 154 37 215 45 169 22 253 40 371 80 57 19 67 17 20 -5z m-3876 -307
l23 -6 -23 -13 c-13 -7 -33 -13 -44 -13 -16 0 -13 3 10 15 l30 14 -30 -5 c-22
-4 -26 -3 -15 5 18 12 18 12 49 3z m6111 -15 c0 -4 -7 -8 -15 -8 -8 0 -15 4
-15 8 0 5 7 9 15 9 8 0 15 -4 15 -9z m10 -141 c0 -33 172 -160 253 -186 43
-15 49 -24 10 -16 l-28 5 30 -14 c42 -21 19 -20 -36 2 -70 27 -185 100 -224
143 -36 40 -46 79 -20 79 8 0 15 -6 15 -13z m-6820 -72 c0 -8 -7 -15 -15 -15
-8 0 -15 7 -15 15 0 8 7 15 15 15 8 0 15 -7 15 -15z m5684 -451 c-5 -50 -4
-54 42 -110 62 -78 64 -80 64 -67 0 6 -20 35 -44 64 l-43 54 -5 130 c-3 79 -2
110 3 80 4 -27 8 -84 8 -125 l1 -76 53 -61 c28 -34 85 -90 125 -125 106 -91
292 -324 292 -365 0 -34 -35 -3 -125 115 -55 70 -149 175 -210 234 -61 58
-124 125 -139 147 -28 40 -29 46 -31 174 -2 118 -1 124 7 57 4 -41 6 -98 2
-126z m-4982 -241 c45 -99 58 -141 58 -196 0 -51 -14 -77 -76 -147 -13 -14
-31 -36 -42 -49 -20 -26 -52 -24 -52 3 0 19 93 132 121 147 19 10 21 18 17 67
-3 35 -16 79 -32 112 -15 30 -34 71 -41 91 -11 31 -11 36 2 36 9 0 28 -27 45
-64z m5911 22 c-3 -9 -8 -14 -10 -11 -3 3 -2 9 2 15 9 16 15 13 8 -4z m-6117
-297 c71 -68 89 -98 61 -98 -7 0 -46 35 -87 78 l-75 77 75 -72 c102 -99 114
-93 15 7 -99 99 -90 106 11 8z m71 -140 c-3 -7 -5 -2 -5 12 0 14 2 19 5 13 2
-7 2 -19 0 -25z"/>
<path d="M3808 6423 c-10 -2 -18 -9 -18 -14 0 -6 7 -6 18 -1 9 5 24 12 32 15
13 5 13 5 0 5 -8 0 -23 -2 -32 -5z"/>
<path d="M4015 6302 c-132 -49 -220 -90 -213 -98 3 -2 33 10 69 27 89 44 139
60 160 54 10 -4 27 -1 36 5 15 9 13 10 -12 5 -25 -4 -27 -3 -12 6 10 6 25 8
34 5 23 -9 97 15 81 27 -9 6 -8 7 5 3 10 -3 24 -6 30 -6 7 -1 -28 -16 -78 -34
-111 -40 -173 -71 -204 -102 -13 -14 -48 -38 -77 -55 -30 -17 -54 -34 -54 -39
0 -5 17 -12 38 -15 20 -4 43 -8 50 -11 20 -6 9 -29 -16 -32 -12 -2 -20 -8 -17
-13 7 -11 365 -12 365 -1 0 4 62 7 138 8 75 0 173 6 217 12 l80 11 -97 -4 -98
-4 0 31 c0 40 -41 101 -87 129 -29 18 -44 21 -91 16 -55 -6 -56 -5 -22 7 32
12 33 13 11 19 -13 3 -21 11 -19 18 6 17 28 24 28 9 0 -6 -4 -8 -10 -5 -5 3
-10 1 -10 -4 0 -7 45 -11 128 -11 113 0 133 -3 172 -22 29 -15 51 -35 62 -57
23 -47 36 -58 43 -39 7 18 -33 84 -55 92 -8 3 -33 17 -55 31 -98 62 -124 70
-235 71 -58 0 -116 4 -130 7 -17 5 -65 -8 -155 -41z m320 8 l-50 -7 45 -2 c25
-2 56 -7 70 -12 21 -7 20 -8 -9 -4 -18 3 -53 5 -77 5 -34 0 -42 3 -38 15 5 11
20 15 58 13 l51 -1 -50 -7z m-108 -66 c-3 -3 -12 -4 -19 -1 -8 3 -5 6 6 6 11
1 17 -2 13 -5z m-51 -16 c-20 -11 -256 -96 -291 -105 -53 -12 20 19 135 57 69
23 132 46 140 51 8 5 20 8 25 8 6 0 1 -5 -9 -11z m-12 -42 c-19 -19 -34 -44
-34 -57 0 -13 -4 -29 -8 -34 -8 -13 -236 -5 -249 9 -4 5 1 6 12 3 11 -3 67 -7
125 -8 l105 -3 6 39 c4 24 16 47 33 62 41 35 48 27 10 -11z m-29 -135 c17 -4
-17 -6 -75 -3 -58 2 -110 7 -117 11 -16 8 155 1 192 -8z"/>
<path d="M2857 6021 c-47 -56 -88 -150 -94 -216 -7 -72 11 -143 60 -236 28
-56 79 -110 91 -98 2 2 0 42 -6 89 -5 47 -12 177 -16 289 l-7 205 -28 -33z"/>
<path d="M3136 5050 c-10 -326 -34 -750 -51 -913 -43 -402 -63 -644 -49 -587
9 36 74 700 83 850 14 217 35 844 29 861 -3 8 -8 -87 -12 -211z"/>
<path d="M2976 3389 c-3 -8 -17 -81 -30 -164 -65 -387 -165 -750 -258 -939
-37 -74 -30 -84 10 -14 108 192 227 618 272 974 5 44 15 92 21 107 9 21 9 31
1 39 -8 8 -13 8 -16 -3z"/>
<path d="M5383 4907 c-70 -74 -245 -227 -280 -246 -12 -6 -73 -30 -135 -52
-200 -73 -301 -110 -398 -149 -84 -34 -208 -61 -375 -83 -16 -2 -3 -5 30 -5
98 -3 230 26 350 75 60 25 191 74 290 108 251 87 244 83 409 229 137 121 169
153 159 159 -6 4 -28 -13 -50 -36z"/>
<path d="M3779 4541 c10 -18 199 -106 208 -97 5 5 -19 16 -109 53 -20 8 -44
26 -53 39 -19 30 -61 35 -46 5z"/>
<path d="M10380 3670 c0 -5 7 -10 15 -10 8 0 15 5 15 10 0 6 -7 10 -15 10 -8
0 -15 -4 -15 -10z"/>
<path d="M3901 3680 c-57 -10 -108 -24 -113 -32 -5 -7 -7 -53 -4 -102 3 -49 6
-118 6 -154 0 -62 1 -64 23 -58 64 19 236 45 344 51 l122 7 -39 52 c-21 29
-61 98 -89 154 l-51 102 -48 -1 c-26 -1 -94 -9 -151 -19z"/>
<path d="M8016 2656 c-129 -89 -287 -276 -286 -337 0 -8 15 13 33 47 18 34 51
83 72 109 36 43 166 157 225 196 14 9 23 19 20 21 -3 3 -32 -13 -64 -36z"/>
<path d="M7730 2018 c0 -8 7 -21 15 -28 19 -16 19 -1 0 24 -12 16 -15 17 -15
4z"/>
<path d="M7760 1966 c0 -8 123 -93 167 -115 61 -30 75 -26 17 5 -27 14 -77 46
-111 70 -59 42 -73 50 -73 40z"/>
<path d="M6804 1243 c46 -43 130 -138 187 -211 100 -129 144 -171 78 -75 -95
139 -304 363 -338 363 -6 0 27 -35 73 -77z"/>
<path d="M1591 1315 c-1 -6 17 -51 39 -100 26 -60 40 -105 40 -134 0 -39 -6
-49 -55 -103 -66 -71 -90 -106 -80 -116 3 -4 16 4 26 18 11 14 30 36 43 50 99
110 101 151 18 330 -17 36 -31 60 -31 55z"/>
<path d="M5970 1315 c0 -11 24 -51 88 -146 48 -72 140 -248 171 -326 27 -69
68 -256 82 -374 6 -53 9 -180 7 -283 -2 -133 0 -186 8 -186 17 0 24 60 24 206
0 242 -29 420 -99 613 -33 91 -133 285 -190 370 -83 123 -91 135 -91 126z"/>
</g>
</svg>
