<?xml version="1.0" standalone="no"?>
<!DOCTYPE svg PUBLIC "-//W3C//DTD SVG 20010904//EN"
 "http://www.w3.org/TR/2001/REC-SVG-20010904/DTD/svg10.dtd">
<svg version="1.0" xmlns="http://www.w3.org/2000/svg"
 width="1280.000000pt" height="720.000000pt" viewBox="0 0 1280.000000 720.000000"
 preserveAspectRatio="xMidYMid meet">
<metadata>
Created by potrace 1.16, written by Peter Selinger 2001-2019
</metadata>
<g transform="translate(0.000000,720.000000) scale(0.100000,-0.100000)"
fill="#000000" stroke="none">
<path d="M0 3600 l0 -3600 80 0 80 0 18 42 c10 24 27 63 37 88 10 25 23 59 30
75 7 17 16 41 20 55 4 14 15 43 25 65 10 22 35 83 55 135 51 127 132 280 148
280 5 0 3 -10 -6 -23 -38 -58 -99 -182 -137 -277 -23 -58 -48 -119 -56 -135
-8 -17 -18 -44 -23 -60 -5 -17 -29 -78 -54 -137 l-45 -108 584 0 584 0 4 23
c3 12 10 54 16 92 10 70 43 265 79 465 11 58 25 134 31 170 31 173 33 179 68
247 10 17 36 56 59 85 l43 55 -21 60 c-11 34 -36 87 -55 118 -36 61 -42 85
-21 85 24 0 94 -133 117 -221 11 -42 10 -52 -9 -94 -11 -26 -38 -64 -59 -84
-35 -33 -40 -45 -61 -141 -12 -58 -26 -139 -31 -180 -17 -122 -90 -540 -105
-601 -8 -31 -15 -62 -15 -68 0 -8 225 -11 810 -11 l810 0 -16 38 c-8 20 -24
66 -35 102 -10 36 -23 79 -29 95 -21 69 -49 237 -55 340 -8 124 6 290 36 433
23 103 47 179 48 147 1 -17 3 -18 12 -5 9 13 10 12 5 -3 -15 -45 -37 -183 -46
-287 -24 -272 -2 -448 92 -732 l42 -128 1623 0 1623 0 1 113 c2 160 -2 261
-11 347 -15 134 -41 294 -55 325 -33 77 -85 211 -85 217 0 4 -12 32 -26 62
-20 42 -29 53 -44 49 -14 -4 -20 3 -25 29 -13 58 -54 128 -116 194 -32 35 -59
69 -59 75 0 7 13 -6 29 -28 16 -22 42 -50 58 -61 17 -12 45 -49 63 -84 18 -35
39 -67 47 -71 19 -12 42 -60 116 -247 52 -131 69 -188 82 -275 29 -191 35
-265 37 -460 1 -187 1 -188 8 -65 3 69 5 202 4 295 -1 152 -4 179 -27 256 -48
159 -165 443 -215 524 -63 101 -88 135 -98 135 -11 0 -50 40 -73 75 -8 11 5 1
28 -22 23 -24 47 -43 54 -43 56 -1 298 -549 336 -761 5 -32 8 -166 5 -317 l-5
-262 841 0 841 0 -5 87 c-3 49 -8 148 -11 221 -3 73 -10 145 -16 159 -17 45
-112 148 -216 235 -143 119 -137 110 -158 223 -10 55 -26 123 -35 150 -9 28
-27 97 -39 155 -12 58 -29 122 -37 144 -8 21 -12 41 -10 44 3 3 59 -3 123 -12
65 -9 153 -16 196 -16 43 0 86 -4 95 -9 21 -11 149 -26 338 -41 88 -7 185 -22
257 -40 114 -28 119 -28 259 -18 79 5 232 10 341 11 108 1 183 5 165 9 -18 4
-168 5 -333 1 -262 -5 -305 -3 -342 11 -24 9 -60 22 -81 30 -26 10 -122 18
-296 26 -142 6 -266 15 -275 20 -9 5 -56 14 -106 21 -351 47 -533 93 -765 191
-161 69 -258 123 -390 217 -30 22 -68 48 -85 57 -16 9 -50 34 -75 54 -53 43
-95 68 -273 160 -159 81 -215 112 -327 178 -47 28 -114 68 -150 88 -89 51
-293 190 -315 214 -10 11 -23 20 -29 20 -6 0 -42 21 -79 46 -37 26 -70 44 -73
42 -2 -3 20 -22 51 -43 30 -21 53 -40 50 -43 -2 -2 -33 16 -69 42 -35 25 -72
46 -82 46 -9 0 -32 11 -50 25 -18 14 -36 25 -39 25 -4 0 -50 27 -103 60 -53
34 -104 65 -112 70 -34 21 -399 219 -449 243 -30 15 -65 27 -76 27 -33 0 -127
35 -218 81 l-82 41 -110 -1 c-104 -2 -212 -25 -238 -51 -5 -4 -4 -58 3 -120
13 -120 8 -180 -15 -180 -7 0 -28 -25 -45 -55 -17 -30 -79 -114 -137 -187 -58
-73 -116 -149 -129 -168 -52 -79 -88 -127 -113 -153 l-26 -28 55 6 c30 4 61 9
68 11 8 2 123 9 257 15 l244 10 113 -26 c62 -15 133 -36 157 -47 24 -11 76
-25 116 -31 l73 -11 84 50 c59 36 87 47 94 40 13 -13 -18 -38 -104 -88 -52
-29 -57 -30 -130 -24 -42 4 -104 18 -137 31 -151 59 -215 69 -415 66 -96 -1
-224 -7 -285 -12 -259 -24 -233 -18 -244 -53 -32 -96 -63 -256 -71 -366 -6
-69 -14 -163 -20 -210 -5 -47 -14 -137 -20 -200 -6 -63 -17 -148 -24 -188 -7
-39 -9 -72 -5 -72 3 0 32 11 64 25 160 71 353 99 515 76 82 -12 234 -61 277
-88 11 -8 72 -30 133 -49 122 -37 192 -69 285 -131 l60 -41 49 42 c145 123
427 278 651 356 144 50 389 109 532 127 l131 17 -36 17 c-105 48 -195 212
-222 403 -19 132 -40 441 -34 488 6 45 6 47 -34 73 -33 22 -44 25 -61 16 -11
-6 -46 -11 -78 -11 -33 0 -64 -5 -69 -10 -21 -21 -317 -85 -463 -100 -87 -9
-114 -16 -167 -44 -35 -19 -64 -30 -64 -26 0 4 12 12 26 19 15 6 24 14 22 17
-7 7 -58 -17 -58 -28 0 -4 -5 -8 -11 -8 -19 0 1 18 54 48 57 32 121 48 237 58
41 3 102 12 135 19 33 8 100 23 149 35 49 11 105 29 125 40 35 19 141 32 141
18 0 -5 -22 -8 -49 -8 -31 0 -68 -9 -103 -25 -29 -14 -45 -25 -35 -25 10 0 28
5 40 12 20 11 119 27 188 30 15 0 41 -9 59 -22 31 -22 32 -25 26 -76 -6 -51 1
-170 25 -414 15 -159 53 -279 113 -358 54 -70 97 -109 132 -118 57 -15 20 -30
-113 -46 -148 -19 -393 -77 -535 -128 -209 -74 -503 -236 -641 -353 -30 -26
-57 -47 -61 -47 -4 0 -35 19 -69 41 -94 63 -181 104 -297 139 -58 18 -115 39
-128 46 -45 29 -182 73 -262 85 -167 24 -379 -9 -521 -81 -31 -15 -60 -25 -66
-22 -7 5 -6 32 3 82 7 41 18 127 24 190 6 63 15 153 20 200 6 47 14 141 20
210 9 116 51 323 81 395 7 17 14 38 16 48 6 33 23 57 41 56 16 -1 16 -2 0 -6
-10 -2 -18 -9 -18 -14 0 -6 5 -7 12 -3 7 4 8 3 4 -5 -4 -6 -12 -9 -18 -5 -5 3
-8 -2 -7 -12 2 -11 0 -25 -4 -31 -10 -15 43 -16 113 -3 39 8 36 8 -22 4 -76
-5 -84 3 -44 45 23 25 59 74 110 151 13 19 73 97 133 173 61 76 121 159 135
185 13 26 31 48 39 50 26 6 30 27 22 122 -4 52 -7 115 -8 139 l0 44 55 20 c37
13 96 22 180 26 l125 7 80 -41 c89 -46 180 -80 240 -90 39 -7 136 -54 317
-157 51 -29 119 -66 150 -83 48 -26 228 -135 312 -190 47 -31 27 -1 -22 32
-26 18 -79 55 -119 82 -115 79 -443 257 -563 306 -36 14 -89 37 -118 51 -28
13 -88 38 -131 54 -44 17 -96 42 -116 55 -20 14 -39 25 -44 25 -4 0 -18 12
-32 26 -13 14 -38 33 -55 42 -40 21 -95 86 -218 258 -147 204 -248 326 -371
450 -140 141 -223 245 -239 297 -7 23 -28 73 -47 111 l-33 69 23 18 c16 13 39
19 73 19 46 0 55 -4 104 -49 61 -56 185 -151 197 -151 5 0 5 5 1 11 -5 8 -1 8
14 0 12 -6 24 -17 28 -24 5 -8 2 -7 -9 2 -10 8 -20 12 -22 9 -6 -6 84 -78 97
-78 5 0 6 6 2 13 -6 10 -4 10 7 0 8 -9 10 -16 3 -23 -13 -13 -277 175 -349
250 -23 24 -37 30 -70 30 -22 0 -50 -7 -62 -15 l-21 -15 25 -52 c14 -29 34
-76 44 -105 22 -64 98 -160 244 -307 123 -123 224 -246 371 -450 120 -168 173
-231 222 -263 20 -14 46 -33 57 -43 28 -25 139 -84 205 -110 30 -11 75 -30
100 -42 25 -11 83 -36 130 -55 114 -46 405 -200 530 -281 30 -19 87 -59 126
-89 39 -30 76 -53 81 -51 9 3 121 -65 216 -129 17 -12 91 -61 162 -109 72 -48
142 -95 157 -106 15 -10 31 -18 35 -18 4 0 23 -11 42 -24 74 -48 231 -136 386
-216 208 -107 241 -126 295 -170 25 -20 59 -45 75 -54 17 -9 57 -36 90 -60
196 -144 518 -288 760 -342 81 -17 250 -46 380 -63 50 -7 100 -17 112 -21 12
-5 135 -14 274 -20 247 -11 319 -22 358 -54 10 -8 113 -11 345 -11 195 -1 370
-6 426 -13 196 -25 327 -52 417 -86 293 -113 954 -270 1273 -301 129 -13 386
-46 425 -55 22 -5 81 -10 130 -10 50 -1 140 -5 200 -10 438 -36 559 -42 778
-36 186 4 227 3 227 -8 0 -30 -90 -53 -240 -62 -201 -12 -540 -7 -684 10 -67
8 -159 17 -206 21 -47 3 -159 17 -250 30 -91 13 -228 31 -305 40 -290 32 -543
85 -815 170 -41 13 -104 26 -138 29 -105 10 -302 68 -437 130 -133 61 -228 86
-420 112 -103 13 -155 14 -365 5 -135 -6 -260 -14 -277 -17 -19 -3 -83 7 -155
25 -76 19 -174 34 -258 41 -188 14 -322 30 -342 41 -9 5 -54 9 -100 9 -46 0
-128 7 -182 15 -136 21 -129 22 -111 -22 7 -21 23 -83 35 -137 11 -55 29 -127
40 -160 10 -34 27 -101 36 -151 19 -102 14 -94 157 -213 111 -92 198 -190 216
-241 6 -19 13 -100 16 -180 3 -80 8 -179 11 -218 l6 -73 2389 0 2389 0 0 2110
0 2110 -47 -6 c-96 -12 -155 -34 -292 -110 -23 -13 -35 -15 -38 -7 -3 9 -193
-80 -328 -155 -11 -6 -47 -23 -80 -37 -85 -37 -177 -85 -198 -103 -16 -15 -17
-14 -11 1 3 10 59 43 123 73 131 63 159 77 355 177 77 39 141 66 143 61 2 -6
47 11 99 37 87 44 135 59 235 74 22 3 36 11 36 20 0 10 -8 13 -26 9 -24 -4
-24 -4 4 10 46 22 6 18 -44 -4 -24 -11 -83 -30 -130 -41 -108 -27 -171 -54
-361 -155 -47 -25 -130 -68 -185 -96 -55 -28 -127 -66 -160 -86 l-60 -36 -435
-7 c-239 -4 -444 -10 -455 -12 -35 -10 -128 -17 -121 -9 15 15 158 22 571 30
l430 7 50 30 c82 48 543 283 620 315 11 5 61 18 110 31 50 12 95 25 100 29 6
5 29 14 53 21 l42 12 0 1454 0 1453 -3460 0 c-2911 0 -3460 -2 -3460 -14 0 -7
12 -31 26 -52 42 -60 93 -167 119 -247 53 -163 57 -193 64 -432 6 -245 0 -382
-23 -535 -8 -52 -20 -129 -26 -170 -6 -41 -18 -109 -27 -150 -26 -120 -3 -424
36 -475 5 -5 18 -39 30 -75 45 -134 38 -258 -26 -470 l-35 -115 12 -135 c12
-144 24 -222 69 -450 16 -80 36 -185 44 -235 8 -49 22 -106 31 -126 l15 -36
153 -7 c190 -9 403 11 743 70 298 51 416 64 688 74 266 10 372 6 497 -19 271
-53 416 -96 555 -161 50 -24 110 -45 135 -47 25 -2 54 -8 65 -13 11 -5 67 -23
124 -39 l104 -31 81 39 c241 116 526 229 731 290 378 112 641 162 830 159 82
-1 77 -2 -46 -8 -157 -9 -178 -12 -359 -52 -334 -73 -668 -179 -910 -289 -25
-12 -61 -28 -80 -36 -19 -9 -82 -38 -139 -65 l-104 -49 -121 37 c-66 20 -143
40 -171 44 -52 8 -114 31 -200 73 -96 47 -244 88 -495 138 -125 25 -231 29
-497 19 -272 -10 -390 -23 -688 -74 -343 -60 -551 -79 -752 -70 -90 4 -162 9
-159 11 2 2 -4 26 -15 52 -10 26 -25 97 -34 157 -9 60 -22 137 -30 171 -30
128 -64 343 -75 473 l-12 135 35 117 c20 64 38 140 41 170 5 47 4 44 -14 -27
-10 -44 -40 -141 -65 -215 -26 -74 -62 -187 -80 -250 -19 -63 -53 -171 -75
-240 -36 -110 -51 -181 -79 -385 -8 -58 2 -56 -136 -26 -155 33 -165 23 -15
-15 74 -19 149 -39 165 -44 17 -5 55 -17 85 -26 30 -9 120 -32 200 -51 142
-35 149 -35 365 -36 226 0 344 11 640 63 368 65 513 79 840 81 237 2 295 -5
530 -61 117 -28 216 -59 360 -115 105 -40 173 -62 245 -79 112 -27 155 -41
157 -52 1 -6 -15 -19 -35 -27 -20 -9 -55 -28 -77 -42 -22 -14 -61 -36 -87 -50
-54 -28 -62 -41 -20 -30 42 10 88 32 272 125 41 21 107 52 145 69 39 17 77 35
86 40 8 5 51 23 94 41 44 17 93 37 110 45 48 21 194 76 260 97 33 10 87 27
120 38 137 43 491 128 690 166 262 49 347 57 651 61 160 2 300 0 312 -4 11 -4
-119 -8 -291 -9 -330 0 -393 -6 -672 -58 -225 -42 -564 -126 -719 -177 -49
-16 -94 -29 -99 -29 -5 0 -23 -6 -40 -13 -18 -8 -81 -33 -142 -57 -60 -23
-128 -50 -150 -60 -22 -10 -68 -30 -102 -44 -34 -14 -153 -71 -263 -125 -198
-98 -290 -134 -315 -124 -7 2 -26 -2 -42 -11 -27 -15 -26 -15 37 -12 84 5 82
4 75 16 -3 6 -1 10 4 10 27 0 7 -28 -31 -45 -24 -10 -61 -26 -83 -36 -89 -41
-333 -133 -372 -140 -24 -5 -52 -5 -64 -1 -15 6 -6 8 30 9 47 1 94 15 206 63
22 10 65 27 95 38 85 31 174 72 168 77 -17 18 -229 -52 -378 -124 -35 -17 -83
-34 -105 -36 l-40 -5 36 10 c19 5 70 25 112 44 95 44 250 106 266 106 6 0 11
6 11 14 0 8 17 20 38 27 20 7 48 20 62 29 26 18 136 82 197 114 l37 19 -51 18
c-28 9 -77 23 -110 29 -55 12 -117 32 -263 87 -157 58 -212 76 -325 103 -234
56 -293 63 -530 61 -327 -2 -472 -16 -840 -81 -290 -51 -415 -63 -635 -63
-205 0 -221 1 -360 32 -80 17 -154 36 -165 40 -36 16 -167 52 -353 98 -167 42
-209 59 -190 79 3 3 34 -4 69 -15 52 -15 133 -33 303 -64 10 -2 15 21 40 198
9 57 37 168 65 255 27 85 60 191 72 235 12 44 28 94 35 110 6 17 18 50 24 75
7 25 18 59 25 75 41 97 75 250 75 333 0 58 -33 196 -51 219 -6 6 -19 33 -30
60 l-19 48 6 -73 c4 -43 2 -77 -4 -85 -5 -6 -21 -43 -35 -82 -14 -38 -52 -126
-85 -195 -33 -69 -66 -142 -73 -164 -13 -35 -33 -55 -44 -44 -11 10 30 121 97
263 130 279 118 243 107 325 -17 119 -76 369 -96 403 -20 33 -76 58 -93 41 -5
-5 -3 -52 5 -111 39 -298 33 -348 -71 -558 -101 -204 -134 -260 -152 -260 -10
0 -16 6 -14 15 3 12 128 276 177 370 32 64 55 153 49 188 -4 21 -19 140 -33
267 -23 203 -28 230 -44 233 -41 8 -66 -9 -100 -66 -46 -79 -48 -87 -57 -262
-8 -170 -26 -254 -114 -534 -53 -168 -70 -206 -91 -206 -20 0 -19 26 5 96 11
32 30 88 41 124 12 36 37 105 56 155 22 55 39 118 44 165 l8 75 -4 -90 -3 -90
23 90 c18 67 24 119 24 202 1 128 13 198 46 263 38 73 60 92 108 88 l42 -3 26
-235 c14 -129 29 -252 33 -272 10 -56 -47 -206 -177 -457 -32 -62 -54 -111
-48 -110 24 9 213 390 231 467 13 58 9 156 -15 347 -9 67 -11 113 -5 119 5 5
26 6 51 0 32 -7 47 -17 60 -39 19 -32 82 -304 98 -418 9 -64 8 -72 -20 -140
-17 -40 -55 -122 -84 -183 -60 -122 -71 -148 -91 -214 -22 -68 -2 -36 46 75
23 55 58 129 76 165 18 36 47 102 64 148 32 83 32 84 20 168 -7 47 -9 88 -6
91 3 4 6 -9 7 -28 1 -29 2 -31 8 -10 5 21 8 17 20 -27 7 -29 17 -54 22 -58 12
-7 11 1 -6 66 -23 87 -30 321 -12 400 8 36 20 101 27 145 6 44 18 123 26 175
23 153 29 290 23 535 -7 235 -12 274 -61 420 -25 76 -69 166 -113 236 -19 29
-35 61 -35 71 0 17 -75 18 -1697 18 l-1698 0 -21 -53 c-65 -159 -105 -254
-114 -269 -6 -10 -10 -23 -10 -29 0 -6 -6 -25 -14 -42 -38 -83 -85 -289 -101
-447 -33 -309 -21 -490 50 -770 19 -74 39 -166 45 -205 13 -80 33 -181 54
-275 16 -72 22 -208 36 -768 8 -327 8 -399 -6 -500 -8 -64 -19 -173 -24 -242
-11 -144 -18 -202 -55 -434 -36 -235 -56 -319 -133 -564 -32 -104 -39 -117
-81 -154 -95 -84 -214 -151 -351 -198 -52 -18 -137 -48 -189 -66 -51 -19 -104
-34 -117 -34 -28 0 -204 -43 -263 -64 -24 -9 -83 -26 -130 -37 -146 -35 -214
-79 -262 -172 -49 -94 -73 -310 -55 -494 l7 -72 -64 -50 c-36 -28 -67 -60 -70
-72 -3 -12 1 -58 10 -103 8 -44 17 -92 20 -106 3 -19 -2 -30 -26 -48 -17 -12
-31 -28 -31 -35 0 -7 -6 -23 -13 -37 -7 -14 -19 -47 -27 -75 -7 -27 -17 -54
-21 -60 -13 -13 -12 -7 17 80 33 101 49 132 75 146 16 8 20 17 15 37 -21 94
-33 181 -29 205 4 18 26 43 69 77 l65 51 -6 47 c-18 149 -12 255 21 407 39
175 95 230 287 279 51 13 114 32 142 41 67 23 240 65 269 65 13 0 66 15 117
34 52 18 136 48 187 66 113 38 207 90 322 179 64 49 66 52 104 170 71 219 95
321 131 557 37 232 44 290 55 434 5 69 16 178 24 242 14 101 14 173 6 500 -14
560 -20 696 -36 768 -21 94 -41 195 -54 275 -6 39 -26 131 -45 205 -51 202
-68 317 -67 470 1 260 37 513 98 692 14 40 28 84 31 98 3 14 9 30 13 35 5 6
24 51 43 100 19 50 47 113 61 141 14 29 26 57 26 63 0 8 -339 11 -1230 11
l-1230 0 0 -3600z m3615 3283 c24 -249 85 -415 229 -628 64 -94 246 -291 306
-331 19 -13 55 -37 80 -55 138 -98 529 -269 615 -269 19 0 87 -20 151 -45 64
-25 125 -45 137 -43 26 4 35 -23 36 -113 2 -115 -125 -469 -220 -615 -33 -52
-58 -74 -152 -136 -202 -136 -349 -210 -552 -280 -33 -11 -103 -39 -155 -61
-90 -39 -100 -41 -195 -42 -55 0 -120 4 -145 8 -37 6 -41 6 -26 -4 11 -7 71
-14 135 -16 l116 -5 125 45 c258 94 275 101 458 194 78 39 156 83 173 97 17
14 35 26 41 26 29 0 -94 -78 -227 -144 -162 -80 -209 -100 -428 -177 l-142
-51 -115 5 c-125 6 -163 13 -157 31 3 7 20 9 48 6 24 -3 87 -5 139 -5 90 0
101 2 210 47 63 26 171 67 240 93 69 25 157 65 195 87 189 111 183 107 178
128 -6 21 22 30 29 9 2 -6 37 12 80 41 109 75 175 180 256 410 67 188 82 246
82 307 0 91 -4 97 -65 111 -30 7 -85 27 -122 44 -37 17 -97 34 -133 39 -36 5
-99 19 -141 33 -87 28 -412 187 -479 235 -25 17 -61 42 -80 55 -60 40 -233
227 -302 326 -139 201 -205 384 -233 643 -4 31 -10 57 -14 57 -5 0 -43 -36
-86 -81 -75 -79 -78 -81 -104 -68 -14 7 -33 18 -41 25 -8 6 -52 30 -96 54 -99
52 -117 50 -185 -20 l-48 -50 -42 15 c-23 9 -65 18 -93 21 -65 8 -73 -1 -121
-126 -61 -156 -78 -266 -70 -455 3 -88 15 -216 26 -285 18 -116 61 -282 79
-305 4 -5 10 -48 14 -95 11 -153 82 -403 155 -548 60 -119 196 -305 284 -388
67 -64 187 -151 272 -198 17 -9 39 -22 50 -28 11 -7 41 -25 66 -40 34 -21 45
-34 44 -50 -1 -13 -8 -24 -16 -26 -11 -2 -127 83 -164 120 -19 19 29 -9 69
-41 21 -17 43 -28 49 -24 5 3 7 1 4 -4 -4 -6 4 -18 18 -27 31 -20 34 -20 28 3
-3 10 -42 40 -89 67 -112 64 -261 161 -269 174 -3 5 -11 10 -16 10 -6 0 -7 -5
-3 -12 4 -7 3 -8 -5 -4 -6 4 -9 11 -7 15 3 4 -22 34 -55 67 -83 81 -222 277
-274 388 -71 149 -138 387 -151 535 -4 42 -21 121 -39 176 -43 131 -72 322
-80 520 -8 188 9 295 70 460 49 132 55 139 125 132 30 -4 74 -13 97 -21 38
-13 43 -13 58 4 10 11 14 24 9 32 -4 7 -4 10 1 6 4 -4 21 4 37 17 46 39 89 42
150 9 29 -15 66 -34 83 -43 16 -8 44 -25 62 -37 l33 -22 78 79 c43 43 85 79
94 79 13 0 18 -14 23 -67z m-311 -539 c29 -11 16 -29 -37 -53 -68 -31 -237
-91 -259 -91 -42 0 -131 -44 -170 -83 -40 -41 -40 -41 -22 -9 23 41 61 65 139
87 126 36 223 69 290 100 65 30 68 33 44 40 -19 5 -50 -3 -110 -28 -46 -19
-133 -50 -194 -70 -60 -19 -109 -40 -108 -46 2 -6 -2 -10 -8 -8 -7 1 -27 -17
-45 -41 -19 -24 -34 -39 -34 -34 0 14 62 93 80 103 8 5 62 22 120 40 98 30
153 50 225 84 33 15 65 18 89 9z m206 -238 c4 -12 3 -27 -3 -34 -6 -7 -8 -42
-5 -85 3 -39 3 -82 -1 -95 -3 -13 -7 20 -8 74 -2 56 2 103 8 110 15 18 -141
194 -172 194 -6 0 13 -21 41 -47 29 -26 64 -69 79 -95 15 -26 30 -46 32 -43 6
5 -6 -107 -21 -190 -13 -80 -11 -101 5 -45 7 25 13 38 14 30 1 -22 -24 -112
-40 -140 -21 -39 -4 -122 27 -134 17 -6 17 -5 3 31 -21 54 -28 83 -18 83 5 0
9 -7 9 -16 0 -22 43 -117 107 -237 29 -55 51 -103 47 -108 -7 -12 -41 -12 -48
0 -3 5 -15 7 -26 4 -13 -4 -32 7 -62 36 -24 22 -46 41 -50 41 -5 0 -8 7 -8 15
0 9 -18 35 -40 59 -40 43 -50 66 -29 66 5 0 47 -35 92 -77 115 -108 116 -109
75 -84 -46 27 -60 11 -21 -24 32 -28 52 -33 32 -8 -10 12 -4 11 24 -6 20 -12
41 -21 45 -19 4 2 -21 57 -55 123 -36 69 -63 111 -63 98 0 -12 20 -56 45 -96
61 -101 57 -111 -5 -14 -28 43 -50 89 -50 103 0 13 -6 24 -13 24 -18 0 -37 42
-38 83 0 32 0 32 -19 -13 -10 -25 -19 -56 -20 -70 -1 -14 -4 -19 -7 -12 -2 6
-9 10 -14 6 -24 -14 -5 63 35 143 43 84 76 216 76 301 0 42 -36 101 -102 169
-51 52 -59 63 -47 75 11 13 25 3 97 -71 46 -47 88 -94 92 -105z m-156 -17 c38
-22 46 -48 21 -69 -8 -7 -15 -26 -15 -42 0 -36 -33 -68 -150 -147 -91 -62
-147 -81 -235 -81 -63 0 -95 13 -95 38 0 22 86 96 147 126 126 63 297 129 307
118 3 -3 6 -1 6 5 0 24 -31 32 -126 36 l-99 3 106 2 c83 2 109 -1 119 -13 15
-19 9 -38 -15 -41 -30 -4 -174 -63 -260 -105 -44 -22 -102 -60 -129 -84 -42
-38 -47 -46 -36 -59 15 -19 114 -22 174 -5 42 12 189 107 244 158 22 20 32 39
32 59 0 16 7 35 15 42 22 18 19 26 -21 51 -32 19 -45 21 -132 17 -53 -3 -86
-1 -72 3 14 4 60 7 102 8 61 1 84 -3 112 -20z m193 -131 c-2 -13 -4 -3 -4 22
0 25 2 35 4 23 2 -13 2 -33 0 -45z m-20 0 c-2 -13 -4 -5 -4 17 -1 22 1 32 4
23 2 -10 2 -28 0 -40z m1891 -57 c10 -6 14 -71 18 -287 3 -153 6 -298 8 -321
2 -24 0 -43 -5 -43 -5 0 -9 105 -10 233 -1 127 -4 273 -8 322 -6 88 -7 90 -32
93 -21 2 -41 -10 -88 -54 -38 -35 -61 -64 -61 -78 0 -11 -9 -50 -21 -86 -17
-56 -20 -88 -18 -230 2 -152 0 -172 -25 -257 -30 -105 -40 -130 -77 -193 -15
-25 -37 -70 -50 -100 -40 -95 -100 -191 -125 -200 -13 -5 -24 -12 -24 -16 0
-3 7 -4 15 0 8 3 15 1 15 -5 0 -6 -8 -9 -17 -8 -11 1 -48 -26 -88 -65 -38 -37
-79 -72 -90 -78 l-20 -11 20 24 c11 12 34 34 50 48 17 14 51 47 77 73 26 27
52 48 58 48 13 0 51 60 96 153 19 39 44 88 54 107 53 100 80 163 100 235 20
70 23 100 21 242 -2 139 1 173 19 238 12 41 19 79 16 84 -7 11 70 99 109 122
32 20 62 24 83 10z m-2014 -106 c-4 -8 -8 -15 -10 -15 -2 0 -4 7 -4 15 0 8 4
15 10 15 5 0 7 -7 4 -15z m1799 -66 c-6 -6 -9 -19 -6 -28 4 -14 3 -14 -7 -1
-10 13 -11 11 -7 -7 3 -13 1 -23 -4 -23 -16 0 -10 42 9 56 21 16 30 18 15 3z
m297 -422 c0 -7 -4 -6 -10 3 -8 13 -10 12 -10 -4 0 -11 -3 -17 -6 -13 -4 3 -4
13 0 22 6 18 26 11 26 -8z m-1177 -323 c23 -8 47 -16 54 -16 7 -1 10 -5 8 -9
-3 -4 2 -9 10 -13 17 -6 21 -36 5 -36 -5 0 -9 5 -7 11 1 6 -4 14 -12 17 -9 3
-11 0 -6 -8 4 -7 4 -11 -1 -8 -5 2 -31 14 -57 27 -27 12 -46 25 -43 28 3 3 24
-4 48 -15 40 -20 68 -21 38 -1 -84 53 -238 36 -415 -45 -27 -13 -93 -37 -145
-54 -52 -17 -111 -37 -130 -45 -35 -15 -102 -77 -84 -77 6 0 23 14 39 30 21
22 38 30 62 30 40 0 147 35 183 59 41 29 273 109 331 115 53 6 53 6 -12 -8
-36 -8 -97 -26 -135 -41 -38 -15 -87 -33 -108 -41 -22 -9 -51 -23 -65 -33 -35
-24 -154 -61 -194 -61 -24 0 -41 -9 -62 -30 -27 -28 -27 -30 -8 -30 51 0 186
33 307 75 241 85 377 126 399 122 17 -3 15 -5 -8 -6 -16 -1 -39 -6 -50 -11
-13 -6 3 -7 45 -5 63 4 64 4 14 -4 -59 -10 -137 -34 -320 -102 -183 -67 -284
-91 -353 -85 -40 4 -47 3 -26 -3 17 -5 23 -9 15 -10 -8 -1 -32 -4 -52 -7 -31
-5 -38 -4 -38 10 0 11 9 16 28 17 17 1 21 3 9 6 -10 3 -17 12 -15 20 7 34 80
77 200 118 68 24 166 60 218 80 167 66 238 74 333 39z m-1313 -88 c8 -11 10
-17 4 -13 -9 5 -13 -137 -17 -561 -3 -312 -10 -603 -16 -647 -25 -195 -32
-272 -41 -460 -20 -443 -48 -718 -87 -875 -22 -91 -33 -115 -78 -175 -28 -38
-64 -91 -81 -117 -29 -48 -51 -58 -47 -22 2 16 72 153 140 274 19 35 67 209
77 285 12 84 36 440 46 675 5 135 12 263 15 285 24 185 35 385 35 655 0 376
10 711 22 704 4 -3 8 0 8 7 0 7 1 10 3 8 1 -2 9 -13 17 -23z m34 -60 c-9 -22
85 -166 109 -166 5 0 -6 19 -25 43 -34 42 -61 82 -41 62 37 -39 82 -104 74
-109 -11 -7 -41 3 -41 14 0 5 -12 22 -26 39 -22 27 -74 115 -74 127 0 2 7 4
15 4 8 0 12 -6 9 -14z m2951 -466 c-3 -4 0 -11 5 -13 6 -3 5 -4 -2 -3 -7 1
-15 11 -16 21 -3 11 0 15 7 10 6 -3 9 -10 6 -15z m-2440 -10 c10 -11 16 -20
13 -20 -3 0 -13 9 -23 20 -10 11 -16 20 -13 20 3 0 13 -9 23 -20z m8244 -542
c-5 -10 -17 -17 -27 -17 -16 1 -16 2 1 6 9 2 17 9 17 14 0 6 -10 8 -22 4 -17
-5 -19 -4 -9 4 8 5 23 9 32 8 14 -1 15 -5 8 -19z m-711 -5 c-15 -2 -42 -2 -60
0 -18 2 -6 4 27 4 33 0 48 -2 33 -4z m699 -29 c-3 -3 -12 -4 -19 -1 -8 3 -5 6
6 6 11 1 17 -2 13 -5z m-7976 -261 c48 -72 99 -122 149 -148 25 -13 55 -35 67
-49 33 -38 12 -32 -31 9 -21 19 -44 35 -52 35 -22 0 -92 68 -135 132 -22 32
-46 58 -54 58 -8 0 -29 -9 -48 -20 l-34 -20 14 -82 c7 -46 17 -108 21 -138 5
-30 12 -54 17 -53 6 2 35 12 65 23 43 15 78 19 160 18 l105 -1 -120 -7 c-89
-5 -132 -12 -166 -28 -52 -23 -69 -16 -69 28 -1 14 -9 72 -19 130 -10 58 -16
110 -14 116 5 15 63 43 90 43 16 1 32 -13 54 -46z m5032 -170 c-7 -2 -19 -2
-25 0 -7 3 -2 5 12 5 14 0 19 -2 13 -5z m-919 -701 c2 -4 -36 -48 -85 -97 -89
-89 -119 -133 -145 -210 -13 -39 -13 -39 -7 -5 10 62 54 133 131 212 42 43 73
80 70 83 -9 9 -155 -150 -177 -193 -12 -23 -28 -66 -36 -95 -15 -51 -15 -52
-10 -9 11 88 77 185 198 290 39 33 52 38 61 24z m-5764 -194 c0 -7 -18 -47
-40 -88 -22 -41 -63 -119 -91 -174 -27 -54 -52 -96 -55 -94 -5 5 69 155 136
276 22 40 40 75 40 79 0 12 -29 -19 -35 -38 -3 -10 -35 -67 -69 -127 -35 -60
-69 -125 -76 -146 -6 -20 -14 -35 -16 -33 -8 7 35 113 61 152 14 20 25 38 25
42 0 8 71 125 88 146 18 20 32 22 32 5z m-767 -349 c18 -1 -25 -17 -47 -18
-15 -1 -16 1 -6 14 7 9 20 13 27 10 8 -3 20 -5 26 -6z m6254 -31 c-3 -8 -6 -5
-6 6 -1 11 2 17 5 13 3 -3 4 -12 1 -19z m133 -261 c39 -43 67 -62 120 -84 76
-31 96 -60 35 -50 -58 9 -139 53 -177 95 -67 74 -136 221 -121 259 4 9 22 -18
49 -75 26 -53 64 -112 94 -145z m-6830 138 c0 -8 -7 -15 -15 -15 -8 0 -15 7
-15 15 0 8 7 15 15 15 8 0 15 -7 15 -15z m5664 -332 c7 -137 -7 -116 181 -278
152 -132 179 -159 233 -240 37 -55 92 -157 92 -170 0 -3 -9 -5 -20 -5 -14 0
-28 16 -46 53 -59 117 -127 195 -289 332 -161 136 -166 142 -181 227 -23 132
-16 220 17 202 3 -2 9 -56 13 -121z m-2237 -265 c1 -124 5 -166 22 -223 25
-82 26 -105 7 -105 -14 0 -36 49 -56 125 -11 44 -14 257 -4 318 4 20 12 37 18
37 8 0 12 -47 13 -152z m-2936 -334 c33 -25 59 -51 59 -57 0 -8 -3 -8 -8 -2
-11 16 -120 95 -139 102 -26 9 -9 -6 66 -61 35 -25 57 -46 50 -46 -19 0 -138
93 -139 109 0 23 48 3 111 -45z m-926 -341 c-3 -16 -10 -32 -15 -37 -5 -5 -4
7 2 27 13 43 23 50 13 10z m-40 -42 c-3 -11 -1 -22 5 -26 5 -3 10 -14 9 -23 0
-11 -4 -9 -11 8 -10 25 -10 24 -22 -15 -15 -48 -9 -67 11 -34 8 13 12 17 10 9
-15 -53 -15 -60 2 -25 24 49 27 32 5 -21 l-17 -39 -11 25 c-6 14 -15 28 -20
32 -6 4 -5 18 2 37 7 17 17 45 23 61 12 33 24 42 14 11z m32 -53 c-3 -8 -6 -5
-6 6 -1 11 2 17 5 13 3 -3 4 -12 1 -19z m-121 -174 c-35 -101 -40 -121 -28
-109 5 6 20 43 32 82 13 40 30 78 39 85 14 11 14 11 4 -2 -6 -8 -21 -45 -33
-82 -12 -38 -30 -85 -41 -105 -18 -35 -19 -36 -13 -8 9 40 -2 28 -20 -21 -8
-21 -15 -33 -15 -26 -1 7 10 40 24 74 14 34 25 65 25 69 0 14 42 121 46 117 2
-2 -7 -35 -20 -74z m-89 -288 c-7 -42 -34 -86 -53 -86 -19 0 -17 27 4 58 10
15 22 35 25 45 12 32 30 19 24 -17z"/>
<path d="M4720 4630 c0 -5 5 -10 11 -10 5 0 7 5 4 10 -3 6 -8 10 -11 10 -2 0
-4 -4 -4 -10z"/>
<path d="M3409 5742 c-20 -37 -39 -83 -43 -102 -6 -37 -4 -33 29 40 8 19 24
50 36 67 11 18 19 39 17 47 -2 8 -19 -15 -39 -52z"/>
<path d="M3350 5564 c0 -5 18 -28 40 -49 22 -21 40 -44 40 -50 0 -14 38 -37
44 -27 3 5 -24 37 -59 72 -36 36 -65 60 -65 54z"/>
<path d="M4080 4849 c-246 -86 -293 -100 -360 -114 -36 -7 -52 -14 -37 -14 44
-2 167 33 332 92 83 30 170 61 195 70 25 8 38 16 30 16 -8 0 -80 -23 -160 -50z"/>
<path d="M3568 4703 c6 -2 18 -2 25 0 6 3 1 5 -13 5 -14 0 -19 -2 -12 -5z"/>
<path d="M2977 4705 c-4 -104 -7 -329 -7 -500 0 -275 -11 -474 -35 -660 -3
-22 -10 -150 -15 -285 -10 -241 -34 -591 -46 -680 -16 -113 -61 -258 -106
-340 -102 -189 -119 -223 -114 -227 2 -2 17 17 32 44 15 26 51 80 80 118 45
60 56 85 78 170 38 150 66 429 86 870 9 188 16 263 41 460 10 75 25 1110 17
1185 -2 19 -6 -50 -11 -155z"/>
<path d="M7900 2639 c0 -5 5 -7 10 -4 6 3 10 8 10 11 0 2 -4 4 -10 4 -5 0 -10
-5 -10 -11z"/>
<path d="M7646 2005 c11 -49 73 -161 117 -211 41 -47 142 -104 182 -104 21 0
20 1 -86 48 -62 28 -121 98 -175 207 -25 49 -42 77 -38 60z"/>
<path d="M6580 1673 c1 -32 7 -89 14 -126 15 -77 25 -90 156 -200 174 -145
232 -209 304 -339 21 -38 42 -68 46 -68 12 0 -63 131 -110 195 -41 55 -105
117 -253 242 -53 46 -103 93 -111 106 -10 14 -18 62 -22 135 -7 116 -24 156
-24 55z"/>
<path d="M4356 1469 c-11 -57 -6 -272 8 -324 14 -56 45 -119 46 -95 0 8 -9 47
-21 85 -17 56 -21 100 -22 217 -1 82 -3 148 -3 148 -1 0 -4 -14 -8 -31z"/>
<path d="M273 123 c-14 -29 -8 -47 7 -23 9 13 14 50 8 50 -2 0 -9 -12 -15 -27z"/>
<path d="M247 73 c-10 -9 -9 -23 2 -23 5 0 11 7 15 15 5 15 -5 20 -17 8z"/>
<path d="M6035 5115 c38 -102 48 -143 55 -225 l9 -95 -4 95 c-3 92 -32 210
-58 235 -7 7 -8 4 -2 -10z"/>
<path d="M5428 5043 c-45 -114 -119 -344 -116 -355 6 -18 33 34 60 117 82 250
115 390 56 238z"/>
<path d="M5386 3659 c6 -10 81 -32 95 -27 5 2 -16 10 -46 19 -30 9 -52 12 -49
8z"/>
<path d="M5230 2690 c20 -13 33 -13 25 0 -3 6 -14 10 -23 10 -15 0 -15 -2 -2
-10z"/>
<path d="M5105 2500 c-84 -22 -228 -50 -290 -55 -96 -8 -176 -25 -200 -41 -26
-18 -6 -18 31 1 17 8 88 21 159 29 115 13 352 60 364 72 7 6 -31 3 -64 -6z"/>
<path d="M3625 2330 c-82 -4 -168 -8 -189 -9 -22 0 -37 -3 -34 -7 3 -3 118 0
256 6 211 10 257 9 298 -3 27 -8 72 -20 99 -26 28 -7 79 -23 114 -38 49 -19
85 -26 145 -27 80 -1 82 0 149 43 37 24 65 46 63 49 -3 2 -36 -15 -73 -39 -65
-42 -72 -44 -138 -43 -49 1 -89 9 -135 27 -36 14 -112 37 -170 51 -110 27
-121 28 -385 16z"/>
<path d="M1540 1386 c0 -5 14 -31 31 -57 17 -27 42 -81 55 -120 27 -79 26 -84
-31 -154 -18 -22 -33 -44 -34 -50 -1 -5 -9 -14 -17 -18 -8 -4 -14 -18 -14 -30
0 -13 -4 -27 -9 -33 -9 -9 -18 -46 -41 -174 -6 -36 -20 -112 -31 -170 -25
-142 -55 -315 -74 -430 -8 -52 -17 -107 -20 -122 -2 -16 -1 -28 4 -28 15 0 97
427 131 683 6 45 21 127 33 182 19 89 26 105 63 147 65 73 79 110 64 167 -21
78 -109 244 -110 207z"/>
<path d="M9348 1279 c120 -15 247 -48 332 -87 30 -13 69 -30 85 -38 113 -50
291 -101 387 -110 34 -3 97 -17 138 -30 238 -75 541 -138 815 -169 77 -9 214
-27 305 -40 91 -13 203 -27 250 -30 47 -4 139 -13 206 -21 144 -17 484 -22
684 -10 120 7 153 13 190 32 l45 23 -225 -6 c-215 -5 -341 1 -775 37 -60 5
-150 9 -200 10 -49 0 -108 5 -130 10 -39 9 -296 42 -425 55 -334 33 -1043 202
-1299 310 -66 28 -326 76 -401 74 -41 -1 -40 -2 18 -10z m2343 -466 c-11 -5
-11 -7 0 -14 10 -6 6 -9 -13 -9 -15 0 -30 4 -33 10 -4 6 1 7 11 3 12 -4 15 -3
10 5 -5 8 1 12 16 11 13 0 17 -3 9 -6z m52 -10 c-7 -2 -19 -2 -25 0 -7 3 -2 5
12 5 14 0 19 -2 13 -5z"/>
<path d="M6060 1153 c0 -14 19 -38 25 -32 8 8 -5 39 -16 39 -5 0 -9 -3 -9 -7z"/>
<path d="M2920 1048 c-54 -231 -61 -470 -19 -683 21 -106 21 -106 71 -259 29
-89 48 -119 65 -102 3 3 -8 43 -25 88 -63 171 -112 419 -112 570 0 111 17 295
36 392 21 110 10 106 -16 -6z"/>
</g>
</svg>
